<?xml version="1.0" standalone="no"?>
<!DOCTYPE svg PUBLIC "-//W3C//DTD SVG 1.1//EN" "http://www.w3.org/Graphics/SVG/1.1/DTD/svg11.dtd" >
<svg>
<metadata>
Created by FontForge 20120731 at Wed Feb 21 02:58:19 2018
 By www-data
Copyright (c) 2009, 2013 Cadson Demak Co. Ltd., Thailand. All Rights Reserved.
</metadata>
<defs>
<font id="SukhumvitSet-Light" horiz-adv-x="0" >
  <font-face 
    font-family="Sukhumvit Set"
    font-weight="300"
    font-stretch="normal"
    units-per-em="1000"
    panose-1="2 0 5 6 0 0 0 2 0 4"
    ascent="800"
    descent="-200"
    x-height="483"
    cap-height="674"
    bbox="-582 -422 1118 1025"
    underline-thickness="50"
    underline-position="-125"
    unicode-range="U+000D-FB02"
  />
<missing-glyph horiz-adv-x="515" 
d="M63 0v673h392v-673h-392zM115 52h287v570h-287v-570z" />
    <glyph glyph-name="uni0E5A" unicode="&#xe2f;&#xe2f;" horiz-adv-x="727" 
d="M388 0v425l-8 2q-10 -22 -28 -40t-41.5 -31t-51 -20.5t-56.5 -7.5q-45 0 -76 14.5t-50.5 40.5t-28 62t-8.5 79v35h66v-36q0 -72 27 -107.5t86 -35.5q33 0 64 14.5t55.5 38t39.5 52.5t15 59v15h63v-182q27 10 50.5 29t41 42t27.5 48t10 48v15h65v-559h-69v425l-7 2
q-15 -32 -45.5 -59t-72.5 -41v-327h-68z" />
    <glyph glyph-name="uni0E4F.liga" unicode="&#xe4f;&#x22;" horiz-adv-x="546" 
d="M275 26q-44 0 -83 16.5t-67.5 45.5t-45 68t-16.5 83t16.5 82.5t45 67t67.5 45t83 16.5t82.5 -16.5t67 -45t45 -67t16.5 -82.5t-16.5 -83t-45 -68t-67 -45.5t-82.5 -16.5zM275 51q39 0 73 14.5t59.5 40t40.5 60t15 73.5t-15 73t-40.5 59.5t-59.5 40.5t-73 15t-73.5 -15
t-60 -40.5t-40.5 -59.5t-15 -73t15 -73.5t40.5 -60t60 -40t73.5 -14.5zM275 120q-25 0 -47 9.5t-38 25.5t-25.5 37.5t-9.5 45.5q0 25 9.5 47t25.5 38t38 25t46 9q25 0 46.5 -9t37.5 -25t25.5 -37.5t9.5 -46.5t-9.5 -47t-25.5 -38t-37.5 -25t-45.5 -9zM275 160
q32 0 54.5 22.5t22.5 56.5q0 15 -6 29t-16.5 24.5t-25 17t-30.5 6.5q-32 0 -55 -23t-23 -55t23 -55t56 -23zM229 497h-34l-9 190h52zM357 497h-35l-9 190h53z" />
    <glyph glyph-name="uni0E24.liga" unicode="&#xe24;&#xe32;" horiz-adv-x="949" 
d="M149 88q0 -32 30 -32h51v-56h-70q-37 0 -58.5 22t-21.5 60v151q0 30 15.5 57.5t45.5 41.5q-21 17 -44 37.5t-44 37.5q9 31 31 60t54.5 51.5t73 36t86.5 13.5q60 0 104 -19t74 -53q35 29 82.5 50.5t104.5 21.5q51 0 90.5 -16t67 -44.5t41.5 -68t14 -86.5v-555h-69v555
q0 77 -38.5 117t-108.5 40q-49 0 -88 -17.5t-66 -45.5q10 -22 14 -45.5t4 -48.5v-555h-68v555q0 77 -40.5 117t-117.5 40q-30 0 -57.5 -7.5t-50 -21t-39.5 -32t-27 -40.5q20 -17 39.5 -36.5t39.5 -36.5q-54 -25 -54 -92v-156z" />
    <glyph glyph-name="uni0E26.liga" unicode="&#xe26;&#xe32;" horiz-adv-x="953" 
d="M169 81q0 -38 -21 -59.5t-59 -21.5h-55v56h37q17 0 23.5 8t6.5 23v141q0 29 15.5 56.5t44.5 41.5q-23 18 -50 38.5t-50 39.5q9 31 31 60.5t54 52.5t73 37t88 14q59 0 102.5 -18.5t72.5 -50.5q36 27 82 48t104 21q51 0 90.5 -16t66.5 -44.5t41 -68t14 -86.5v-555h-69v555
q0 77 -38.5 117t-108.5 40q-48 0 -86.5 -17.5t-65.5 -44.5q11 -22 15.5 -45.5t4.5 -49.5v-555h-69v555q0 77 -40 117t-116 40q-62 0 -109 -29.5t-65 -72.5q21 -18 45 -39t46 -39q-55 -28 -55 -92v-157z" />
    <glyph glyph-name="fi" unicode="fi" horiz-adv-x="535" 
d="M457 0h-68v430h-225v-430h-65v430h-79v53h79v18q0 41 10.5 75t32.5 58.5t55.5 38t78.5 13.5q35 0 66 -7.5t53 -18.5q-3 -11 -8 -23.5t-8 -23.5q-20 9 -46.5 14.5t-52.5 5.5q-66 0 -91 -36.5t-25 -96.5v-17h293v-483z" />
    <glyph glyph-name="fl" unicode="fl" horiz-adv-x="568" 
d="M307 483v-54h-144v-429h-65v429h-78v54h78v18q0 39 13.5 73t40.5 58.5t67 39t93 14.5q47 0 91.5 -9.5t86.5 -26.5v-650h-68v617q-26 8 -50.5 12t-59.5 4q-75 0 -112 -37t-37 -96v-17h144z" />
    <glyph glyph-name=".notdef" horiz-adv-x="515" 
d="M63 0v673h392v-673h-392zM115 52h287v570h-287v-570z" />
    <glyph glyph-name=".null" 
 />
    <glyph glyph-name=".null" 
 />
    <glyph glyph-name="nonmarkingreturn" unicode="&#xd;" horiz-adv-x="195" 
 />
    <glyph glyph-name="space" unicode=" " horiz-adv-x="258" 
 />
    <glyph glyph-name="exclam" unicode="!" horiz-adv-x="248" 
d="M160 523q-2 -84 -5.5 -166t-5.5 -167h-48q-2 85 -5.5 166.5t-5.5 166.5v151h70v-151zM72 43q0 21 13.5 36t39.5 15q25 0 38.5 -15t13.5 -36q0 -23 -13.5 -37.5t-38.5 -14.5q-26 0 -39.5 14.5t-13.5 37.5z" />
    <glyph glyph-name="quotedbl" unicode="&#x22;" horiz-adv-x="329" 
d="M114 457h-40l-10 231h61zM257 457h-39q-2 59 -5.5 116t-6.5 115h61z" />
    <glyph glyph-name="numbersign" unicode="#" horiz-adv-x="566" 
d="M72 444h105l45 206h56l-45 -206h155l44 206h56l-44 -206h95v-46h-105l-32 -147h95v-47h-104q-11 -50 -22.5 -101.5t-22.5 -102.5h-56l22 102l22 102h-154q-11 -50 -22 -101.5t-22 -102.5h-57q11 51 22.5 102t22.5 102h-95v47h105q3 17 7 36t8 36l16 75h-95v46zM191 251
h155l33 147h-156z" />
    <glyph glyph-name="dollar" unicode="$" horiz-adv-x="566" 
d="M256 -9q-64 0 -106 9.5t-74 25.5l17 54q29 -13 70 -22t97 -9v256q-31 10 -63.5 23.5t-59.5 34.5t-44 51.5t-17 75.5q0 66 44.5 112.5t139.5 54.5v94h44v-92q87 -4 149 -36l-17 -51q-26 11 -61 18.5t-71 9.5v-245q33 -11 66 -25t59.5 -35.5t43 -52t16.5 -73.5
q0 -79 -51 -122t-134 -53v-95h-44v88zM427 171q0 26 -10 45t-26.5 32.5t-39 23.5t-47.5 19v-239q55 9 89 37t34 82zM137 491q0 -26 9.5 -44.5t26.5 -32t39 -24t48 -20.5v227q-63 -7 -93 -35t-30 -71z" />
    <glyph glyph-name="percent" unicode="%" horiz-adv-x="768" 
d="M540 660h57l-367 -660h-55zM100 486q0 -26 4.5 -49.5t15 -42t26 -29.5t38.5 -11t39 11t26.5 29.5t15 42t4.5 48.5t-4.5 49t-15 42.5t-26.5 29.5t-39 11t-38.5 -11.5t-26 -30t-15 -42t-4.5 -47.5zM46 486q0 34 9 65.5t27 55.5t43.5 38t58.5 14t59 -14t43.5 -38t26.5 -55.5
t9 -65.5q0 -35 -9 -66t-26.5 -55t-43.5 -38t-59 -14t-58.5 14t-43.5 38t-27 55t-9 66zM504 164q0 -26 4.5 -49.5t15 -42t26 -29.5t38.5 -11q22 0 38.5 11t26.5 29.5t15 42t5 48.5t-5 49t-15 42.5t-26.5 29.5t-38.5 11q-23 0 -38.5 -11t-26 -29.5t-15 -42t-4.5 -48.5z
M450 164q0 34 9 65.5t27 55.5t43.5 38t58.5 14t59 -14t43.5 -38t26.5 -55.5t9 -65.5q0 -35 -9 -66t-26.5 -55t-43.5 -38t-59 -14t-58.5 14t-43.5 38t-27 55t-9 66z" />
    <glyph glyph-name="ampersand" unicode="&#x26;" horiz-adv-x="630" 
d="M478 50q-78 -59 -189 -59q-57 0 -98.5 14.5t-69 40t-40.5 59t-13 71.5q0 36 11.5 65t30 53t43 44t50.5 37l-13 19l-8 11q-25 34 -43.5 65.5t-18.5 72.5q0 62 42 101t119 39q41 0 70.5 -11t48.5 -30.5t28 -45t9 -54.5q0 -30 -12.5 -54.5t-33 -45.5t-47.5 -40.5t-57 -38.5
l189 -225q22 35 32.5 75t10.5 82v45h67v-45q0 -61 -17.5 -113t-50.5 -94l73 -88h-72zM293 53q42 0 78.5 11t64.5 34l-194 234q-44 -32 -73 -68t-29 -86q0 -58 39.5 -91.5t113.5 -33.5zM185 541q0 -61 56 -121v1l12 -15q24 15 46 30.5t38 32t25.5 35t9.5 39.5q0 38 -22 62
t-70 24q-40 0 -67.5 -21.5t-27.5 -66.5z" />
    <glyph glyph-name="quotesingle" unicode="'" horiz-adv-x="188" 
d="M115 457h-41l-10 231h61z" />
    <glyph glyph-name="parenleft" unicode="(" horiz-adv-x="297" 
d="M76 282q0 79 15.5 144.5t42 116.5t61 89t73.5 63l16 -27q-35 -26 -62.5 -65.5t-46.5 -89.5t-28.5 -109t-9.5 -122t9.5 -122t28.5 -109t46.5 -90t62.5 -65l-16 -27q-39 25 -73.5 63t-61 89t-42 116t-15.5 145z" />
    <glyph glyph-name="parenright" unicode=")" horiz-adv-x="297" 
d="M223 282q0 -80 -15.5 -145t-42 -116t-61 -89t-73.5 -63l-17 27q36 25 63 65t46 90t28.5 109t9.5 122t-9.5 122t-28.5 109t-46 89.5t-63 65.5l17 27q39 -25 73.5 -63t61 -89t42 -116.5t15.5 -144.5z" />
    <glyph glyph-name="asterisk" unicode="*" horiz-adv-x="496" 
d="M393 607l40 -42l-141 -88v-11q32 -20 70 -44t72 -45l-41 -41l-118 107l-9 -8l16 -164h-65l17 167l-13 2l-115 -104l-41 41l141 88v12l-141 88l42 42l113 -103l14 2l-17 168h65l-16 -168l13 -2z" />
    <glyph glyph-name="plus" unicode="+" horiz-adv-x="566" 
d="M315 494v-184h180v-54h-180v-183h-60v183h-181v54h181v184h60z" />
    <glyph glyph-name="comma" unicode="," horiz-adv-x="236" 
d="M170 90q-17 -57 -34.5 -109t-34.5 -107h-40q7 55 14.5 108t14.5 108h80z" />
    <glyph glyph-name="hyphen" unicode="-" horiz-adv-x="316" 
d="M284 298v-53h-251v53h251z" />
    <glyph glyph-name="period" unicode="." horiz-adv-x="236" 
d="M66 43q0 21 13.5 36t39.5 15q25 0 38.5 -15t13.5 -36q0 -23 -13.5 -37.5t-38.5 -14.5q-26 0 -39.5 14.5t-13.5 37.5z" />
    <glyph glyph-name="slash" unicode="/" horiz-adv-x="366" 
d="M68 -40h-53l285 714h53z" />
    <glyph glyph-name="zero" unicode="0" horiz-adv-x="566" 
d="M121 325q0 -140 41.5 -209.5t122.5 -69.5q79 0 121.5 69.5t42.5 209.5t-42.5 209.5t-121.5 69.5q-81 0 -122.5 -69.5t-41.5 -209.5zM52 325q0 78 16 140t46 105t73 66t98 23q54 0 97 -23t73 -66t46 -105t16 -140q0 -79 -16 -141t-46 -105t-73 -65.5t-97 -22.5
q-110 0 -171.5 88t-61.5 246z" />
    <glyph glyph-name="one" unicode="1" horiz-adv-x="566" 
d="M262 588q-33 -11 -70 -22.5t-71 -23.5v53l152 55h58v-589h158v-61h-389v61h162v527z" />
    <glyph glyph-name="two" unicode="2" horiz-adv-x="566" 
d="M269 599q-43 0 -83.5 -10t-72.5 -25l-18 54q32 17 77 29t97 12q105 0 154.5 -46t49.5 -126q0 -41 -15 -79.5t-41 -76t-61.5 -74.5t-75.5 -75l-125 -119h339v-63h-429v53l171 173q37 38 68 71t53 64.5t34.5 62.5t12.5 64q0 55 -37.5 83t-97.5 28z" />
    <glyph glyph-name="three" unicode="3" horiz-adv-x="566" 
d="M250 50q84 0 123 35.5t39 94.5q0 63 -40 94.5t-111 31.5h-90v56h90q59 0 96 33t37 94q0 51 -37 81t-118 30q-47 0 -84 -9t-68 -23l-17 53q32 17 76.5 27.5t95.5 10.5q57 0 98.5 -13t68 -36t39.5 -54t13 -67q0 -31 -9.5 -55.5t-25 -43t-37 -32t-45.5 -22.5
q61 -13 98.5 -54.5t37.5 -102.5q0 -87 -60 -137.5t-169 -50.5q-59 0 -104.5 10.5t-78.5 27.5l17 54q31 -14 72.5 -23.5t92.5 -9.5z" />
    <glyph glyph-name="four" unicode="4" horiz-adv-x="566" 
d="M377 185v355l-253 -355h253zM385 649h57v-464h77v-57h-77v-128h-67v128h-327v47z" />
    <glyph glyph-name="five" unicode="5" horiz-adv-x="566" 
d="M251 50q85 0 129 41.5t44 106.5q0 69 -40 107t-134 38h-157v51l26 256h334v-63h-278l-16 -183h92q118 0 180 -54.5t62 -151.5q0 -48 -17 -86.5t-48 -65.5t-76 -41t-100 -14q-63 0 -109 11t-79 28q4 14 9 28t9 26q30 -14 71.5 -24t97.5 -10z" />
    <glyph glyph-name="six" unicode="6" horiz-adv-x="566" 
d="M312 368q-57 0 -103.5 -24.5t-75.5 -56.5q0 -56 13 -100.5t35.5 -75.5t53.5 -48t66 -17q65 0 104.5 44.5t39.5 126.5q0 31 -6.5 58.5t-22.5 48t-41.5 32.5t-62.5 12zM321 604q-87 0 -136.5 -69t-52.5 -199q13 15 31.5 30.5t42.5 28t53 21t62 8.5q43 0 78 -14t60.5 -41
t39.5 -66t14 -88q0 -47 -14.5 -88t-42 -71t-67 -47.5t-88.5 -17.5q-112 0 -174.5 82t-62.5 245q0 82 18 145.5t51.5 107t80.5 66t105 22.5q45 0 78.5 -9.5t62.5 -24.5q-5 -14 -8 -25.5t-7 -24.5q-54 29 -124 29z" />
    <glyph glyph-name="seven" unicode="7" horiz-adv-x="566" 
d="M75 650h424v-46l-282 -604h-70l276 592h-348v58z" />
    <glyph glyph-name="eight" unicode="8" horiz-adv-x="566" 
d="M284 44q75 0 115.5 34.5t40.5 94.5q0 64 -37.5 98.5t-118.5 34.5t-118.5 -34.5t-37.5 -98.5q0 -60 40.5 -94.5t115.5 -34.5zM284 659q96 0 149.5 -45.5t53.5 -123.5q0 -31 -9 -56t-24 -44t-34.5 -31.5t-40.5 -19.5v-7q26 -5 49 -19t40.5 -35t27.5 -48t10 -59
q0 -84 -58.5 -132t-163.5 -48q-106 0 -164.5 48t-58.5 132q0 32 10.5 59t28 48t40.5 35t49 19v7q-22 7 -41.5 20t-34.5 31.5t-23.5 43.5t-8.5 56q0 78 53.5 123.5t149.5 45.5zM284 605q-63 0 -100 -29.5t-37 -89.5q0 -62 37 -94.5t100 -32.5q65 0 100.5 32.5t35.5 94.5
q0 60 -35.5 89.5t-100.5 29.5z" />
    <glyph glyph-name="nine" unicode="9" horiz-adv-x="566" 
d="M256 281q57 0 103.5 24.5t75.5 56.5q0 56 -13 100.5t-35.5 76t-52.5 48.5t-65 17q-66 0 -105.5 -45t-39.5 -126q0 -31 6.5 -58.5t22 -48.5t40.5 -33t63 -12zM241 46q101 0 146.5 69t49.5 199q-14 -15 -32.5 -30.5t-42.5 -28t-53 -21t-62 -8.5q-43 0 -78 14t-60.5 41
t-39.5 66t-14 88q0 47 14.5 88t42.5 71t67.5 47.5t89.5 17.5q52 0 95.5 -21t74.5 -62t48.5 -102t17.5 -142q0 -168 -66 -254.5t-196 -86.5q-45 0 -82 9t-66 23l16 50q27 -13 61.5 -20t68.5 -7z" />
    <glyph glyph-name="colon" unicode=":" horiz-adv-x="256" 
d="M76 423q0 22 13.5 37t39.5 15q25 0 38.5 -15t13.5 -37q0 -21 -13.5 -36.5t-38.5 -15.5q-26 0 -39.5 15.5t-13.5 36.5zM76 41q0 22 13.5 37t39.5 15q25 0 38.5 -15t13.5 -37q0 -21 -13.5 -36t-38.5 -15q-26 0 -39.5 15t-13.5 36z" />
    <glyph glyph-name="semicolon" unicode=";" horiz-adv-x="256" 
d="M76 423q0 22 13.5 37t39.5 15q25 0 38.5 -15t13.5 -37q0 -21 -13.5 -36.5t-38.5 -15.5q-26 0 -39.5 15.5t-13.5 36.5zM174 90q-17 -57 -34.5 -109t-34.5 -107h-40q7 55 14.5 108t14.5 108h80z" />
    <glyph glyph-name="less" unicode="&#x3c;" horiz-adv-x="565" 
d="M67 308q105 58 209 114t209 114v-60l-355 -191l355 -189v-63l-418 230v45z" />
    <glyph glyph-name="equal" unicode="=" horiz-adv-x="565" 
d="M480 219v-54h-399v54h399zM480 405v-54h-399v54h399z" />
    <glyph glyph-name="greater" unicode="&#x3e;" horiz-adv-x="565" 
d="M501 263q-104 -58 -208.5 -114.5t-209.5 -114.5v62l355 189q-88 47 -177.5 95.5t-177.5 95.5v61l418 -229v-45z" />
    <glyph glyph-name="question" unicode="?" horiz-adv-x="488" 
d="M227 623q-42 0 -83.5 -10.5t-73.5 -25.5l-17 55q32 16 77.5 28.5t96.5 12.5q102 0 151.5 -44t49.5 -119q0 -29 -9.5 -54t-24 -47.5t-32.5 -42t-35 -36.5q-14 -14 -27.5 -29t-24.5 -31t-18 -33.5t-7 -35.5q0 -15 1 -27t5 -22h-55q-11 20 -11 53q0 24 7 44t19 37.5t27 33.5
t31 32t31.5 33t27.5 35t19 38.5t7 45.5q0 22 -7.5 41.5t-23.5 34.5t-41 24t-60 9zM178 41q0 22 13.5 37t38.5 15q26 0 39.5 -15t13.5 -37q0 -21 -13.5 -36t-39.5 -15q-25 0 -38.5 15t-13.5 36z" />
    <glyph glyph-name="at" unicode="@" horiz-adv-x="816" 
d="M519 468q-17 8 -42 13t-52 5q-76 0 -108.5 -41.5t-32.5 -113.5q0 -39 9 -67.5t24.5 -47t35.5 -27t42 -8.5q27 0 49.5 11.5t39 32t26 49t9.5 61.5v133zM97 327q0 -77 24 -134t65.5 -95t97 -56.5t118.5 -18.5q41 0 81 9.5t73 29.5q0 -2 2.5 -5.5t5.5 -9.5l8 -16
q-30 -19 -74 -30t-98 -11q-72 0 -133.5 21t-107 63t-71.5 105t-26 148q0 71 24 135.5t70.5 114t113 78.5t152.5 29q78 0 140.5 -24.5t106 -68t67 -103.5t23.5 -131q0 -59 -11 -101.5t-29 -70t-42 -40.5t-50 -13q-39 0 -61.5 28.5t-24.5 66.5l-7 2q-8 -18 -22.5 -35
t-34 -30.5t-43 -21.5t-48.5 -8q-73 0 -114.5 52t-41.5 143q0 40 10 77t33 65.5t60.5 45t92.5 16.5q42 0 79.5 -9t69.5 -26v-242q0 -17 3 -33t9.5 -28t17.5 -19t27 -7q14 0 30 9t29 31.5t21.5 60t8.5 93.5q0 53 -17.5 105t-53.5 92.5t-92.5 65.5t-134.5 25t-138.5 -25.5
t-102.5 -69.5t-63.5 -103t-21.5 -126z" />
    <glyph glyph-name="A" unicode="A" horiz-adv-x="622" 
d="M461 187h-297l-68 -187h-70l251 674h71q63 -170 125.5 -337t125.5 -337h-70zM187 248h251l-77 207q-11 35 -23.5 75t-23.5 74q-13 -33 -26 -74t-24 -75z" />
    <glyph glyph-name="B" unicode="B" horiz-adv-x="614" 
d="M437 349q25 -3 48.5 -15t42.5 -31.5t30.5 -47.5t11.5 -63q0 -42 -14.5 -77.5t-44 -61t-74.5 -39.5t-105 -14h-247v674h246q103 0 156.5 -48.5t53.5 -126.5q0 -29 -9.5 -52.5t-24.5 -41.5t-33.5 -30.5t-36.5 -17.5v-8zM331 61q84 0 128 34t44 97q0 35 -12.5 59.5t-35 39.5
t-54.5 21.5t-71 6.5h-178v-258h179zM332 378q30 0 55.5 8t45 23.5t30.5 38.5t11 54q0 56 -38.5 83.5t-104.5 27.5h-179v-235h180z" />
    <glyph glyph-name="C" unicode="C" horiz-adv-x="570" 
d="M368 622q-118 0 -184.5 -74t-66.5 -211q0 -136 65.5 -210t184.5 -74q40 0 77.5 7.5t69.5 21.5l17 -56q-36 -17 -75.5 -26t-89.5 -9q-82 0 -141.5 25t-98.5 70t-58 109t-19 142q0 76 21 140t61.5 109.5t99.5 71t136 25.5q50 0 87 -8t70 -23q-4 -14 -8.5 -28t-8.5 -28
q-58 26 -139 26z" />
    <glyph glyph-name="D" unicode="D" horiz-adv-x="649" 
d="M604 338q0 -166 -84 -252t-249 -86h-186v674h186q165 0 249 -85t84 -251zM535 338q0 73 -17 125t-50.5 85t-83 48t-113.5 15h-117v-548h117q128 0 196 64.5t68 210.5z" />
    <glyph glyph-name="E" unicode="E" horiz-adv-x="545" 
d="M85 674h404v-62h-335v-233h315v-62h-315v-255h341v-62h-410v674z" />
    <glyph glyph-name="F" unicode="F" horiz-adv-x="523" 
d="M85 674h396v-63h-327v-242h307v-62h-307v-307h-69v674z" />
    <glyph glyph-name="G" unicode="G" horiz-adv-x="643" 
d="M379 621q-60 0 -108 -17.5t-82 -53t-52.5 -89.5t-18.5 -127q0 -63 15.5 -115t43.5 -89t67.5 -57.5t86.5 -20.5q37 0 69 11t56 33.5t37.5 56t13.5 78.5v78h-140v59h205v-368h-52l-15 97q-23 -45 -67.5 -75.5t-111.5 -30.5q-65 0 -116.5 24.5t-87 69t-54.5 108t-19 141.5
q0 83 22.5 148t64.5 109.5t103 68t138 23.5q52 0 91.5 -9.5t74.5 -24.5q-4 -14 -9 -28t-9 -28q-61 28 -146 28z" />
    <glyph glyph-name="H" unicode="H" horiz-adv-x="657" 
d="M507 316h-353v-316h-69v674h69v-295h353v295h69v-674h-69v316z" />
    <glyph glyph-name="I" unicode="I" horiz-adv-x="244" 
d="M157 0h-69v674h69v-674z" />
    <glyph glyph-name="J" unicode="J" horiz-adv-x="380" 
d="M299 190q0 -102 -42 -150t-126 -48q-38 0 -66 7t-50 18q4 14 9 28.5t9 28.5q37 -20 97 -20q45 0 72.5 30.5t27.5 105.5v484h69v-484z" />
    <glyph glyph-name="K" unicode="K" horiz-adv-x="598" 
d="M280 359l302 -359h-83l-284 340v33l276 301h80zM154 0h-69v674h69v-674z" />
    <glyph glyph-name="L" unicode="L" horiz-adv-x="510" 
d="M85 674h69v-611h326v-63h-395v674z" />
    <glyph glyph-name="M" unicode="M" horiz-adv-x="785" 
d="M357 111l-149 327q-14 31 -27 61.5t-26 71.5l-9 -1q5 -47 5.5 -90t0.5 -68v-412h-67v674h83l164 -363q8 -17 17 -38t17.5 -42t15.5 -39.5t11 -31.5q4 11 12 29.5t17.5 40t18.5 43t17 38.5l164 363h83v-674h-68v412q0 25 1 67.5t7 89.5l-8 2q-14 -41 -27.5 -71.5
t-27.5 -61.5l-149 -327h-76z" />
    <glyph glyph-name="N" unicode="N" horiz-adv-x="663" 
d="M447 215q21 -35 38 -66.5t27 -51.5l7 2q-3 35 -4.5 69t-1.5 76v430h69v-674h-76l-286 459q-16 23 -33 55.5t-29 57.5v-2q0 1 -1 2t-1 2h-8q3 -35 4.5 -68.5t1.5 -75.5v-430h-69v674h76z" />
    <glyph glyph-name="O" unicode="O" horiz-adv-x="688" 
d="M346 47q58 0 101 20t71.5 57.5t42.5 91.5t14 121t-14 121t-42.5 91.5t-71.5 57.5t-101 20t-101.5 -20t-72 -57.5t-42.5 -91.5t-14 -121t14 -121t42.5 -91.5t72 -57.5t101.5 -20zM346 -9q-77 0 -132.5 26t-92.5 72.5t-54.5 110t-17.5 137.5t17.5 137.5t54.5 110t92.5 72.5
t132.5 26q76 0 132.5 -26t93 -72.5t54.5 -110t18 -137.5t-18 -137.5t-54.5 -110t-93 -72.5t-132.5 -26z" />
    <glyph glyph-name="P" unicode="P" horiz-adv-x="560" 
d="M520 468q0 -46 -16 -84.5t-45 -66.5t-71 -44t-93 -16h-141v-257h-69v674h216q52 0 92.5 -15.5t68.5 -43.5t43 -65.5t15 -81.5zM452 468q0 66 -38.5 104.5t-112.5 38.5h-147v-291h141q73 0 115 39.5t42 108.5z" />
    <glyph glyph-name="Q" unicode="Q" horiz-adv-x="687" 
d="M211 -97q48 0 78.5 26t41.5 63q-73 3 -126.5 30t-88 73t-51.5 108t-17 134q0 74 17.5 137.5t54.5 110t92.5 72.5t132.5 26q76 0 132.5 -26t93 -72.5t54.5 -110t18 -137.5q0 -68 -15 -127t-45.5 -104t-77 -74t-109.5 -37q-8 -27 -25.5 -50.5t-42.5 -34.5l2 -7h203v-59
h-334v59h12zM345 47q116 0 172.5 77.5t56.5 212.5q0 67 -14 120.5t-42.5 91t-71.5 57.5t-101 20t-101 -20t-71.5 -57.5t-42.5 -91t-14 -120.5q0 -135 56.5 -212.5t172.5 -77.5z" />
    <glyph glyph-name="R" unicode="R" horiz-adv-x="587" 
d="M543 476q0 -73 -43.5 -125t-118.5 -72l165 -279h-76l-160 272h-157v-272h-68v674h238q52 0 93 -15.5t69 -42t43 -62.5t15 -78zM474 476q0 62 -38.5 98t-112.5 36h-170v-275h164q73 0 115 38t42 103z" />
    <glyph glyph-name="S" unicode="S" horiz-adv-x="528" 
d="M249 -9q-35 0 -63 2.5t-50.5 7.5t-41.5 11.5t-35 15.5q4 14 9 28t9 27q30 -14 70 -23t93 -9q37 0 69 7t54.5 22.5t35.5 39.5t13 57t-13.5 55t-36.5 38t-53 26.5t-63 21.5q-31 10 -64.5 24.5t-61 36t-45 53t-17.5 76.5q0 37 12.5 69.5t39.5 55.5t68.5 36.5t100.5 13.5
q48 0 88 -8.5t74 -25.5q-4 -14 -9.5 -28t-9.5 -27q-29 14 -66 21.5t-77 7.5q-83 0 -119 -32t-36 -82q0 -31 12.5 -52t33.5 -36t49.5 -26t60.5 -22q36 -12 71.5 -26.5t63.5 -36.5t45.5 -54.5t17.5 -79.5t-17 -81.5t-47.5 -57.5t-72.5 -34.5t-92 -11.5z" />
    <glyph glyph-name="T" unicode="T" horiz-adv-x="512" 
d="M292 611v-611h-69v611q-51 0 -104 -0.5t-104 -0.5v64h485v-64z" />
    <glyph glyph-name="U" unicode="U" horiz-adv-x="664" 
d="M334 -9q-58 0 -104.5 16.5t-79 50.5t-50 86.5t-17.5 123.5v406h69v-407q0 -110 47 -161.5t135 -51.5t135 51.5t47 161.5v407h69v-406q0 -71 -17.5 -123.5t-50 -86.5t-79 -50.5t-104.5 -16.5z" />
    <glyph glyph-name="V" unicode="V" horiz-adv-x="612" 
d="M521 674h70l-248 -674h-72q-62 170 -124 337t-124 337h70q38 -105 78.5 -214.5t77.5 -213.5l57 -181q15 41 30 89t28 91z" />
    <glyph glyph-name="W" unicode="W" horiz-adv-x="879" 
d="M193 0l-159 674h69l89 -383q13 -55 21.5 -109t13.5 -102l8 -1q18 99 51 207l118 388h74l118 -388q35 -108 50 -207l8 1q5 48 14.5 102t23.5 109l88 383h69q-40 -170 -79 -337t-79 -337h-71l-135 440q-5 17 -11 37.5t-11 41.5t-9.5 41t-7.5 38h-8l-9 -36t-10.5 -41
l-11 -42t-10.5 -39l-134 -440h-70z" />
    <glyph glyph-name="X" unicode="X" horiz-adv-x="612" 
d="M308 303l-198 -303h-75l232 350l-214 324h77l178 -276l177 276h77l-215 -324q59 -87 117 -175t117 -175h-77z" />
    <glyph glyph-name="Y" unicode="Y" horiz-adv-x="563" 
d="M317 284v-284h-69v284l-227 390h72l189 -331q46 82 94 165.5t95 165.5h74z" />
    <glyph glyph-name="Z" unicode="Z" horiz-adv-x="547" 
d="M47 50l364 562h-339v62h423v-51l-363 -561h369v-62h-454v50z" />
    <glyph glyph-name="bracketleft" unicode="[" horiz-adv-x="278" 
d="M86 684h168v-50h-109v-704h109v-49h-168v803z" />
    <glyph glyph-name="backslash" unicode="\" horiz-adv-x="366" 
d="M15 674h53q72 -181 142.5 -357.5t142.5 -356.5h-53z" />
    <glyph glyph-name="bracketright" unicode="]" horiz-adv-x="278" 
d="M194 -119h-168v49h109v704h-109v50h168v-803z" />
    <glyph glyph-name="asciicircum" unicode="^" horiz-adv-x="520" 
d="M475 279h-68l-145 333l-147 -333h-67l183 395h61z" />
    <glyph glyph-name="underscore" unicode="_" horiz-adv-x="427" 
d="M427 -78v-52h-424v52h424z" />
    <glyph glyph-name="grave" unicode="`" horiz-adv-x="295" 
d="M174 578l-20 -27q-40 26 -79 49t-80 49q10 13 19.5 24.5t18.5 24.5z" />
    <glyph glyph-name="a" unicode="a" horiz-adv-x="503" 
d="M366 245h-111q-72 0 -108.5 -29t-36.5 -83q0 -45 27 -68t67 -23q37 0 67 13.5t51 35.5t32.5 50t11.5 56v48zM366 319q0 65 -33 92.5t-88 27.5q-46 0 -83 -10t-67 -24q-4 13 -8.5 23.5t-8.5 22.5q27 16 71 28.5t98 12.5q93 0 138 -46.5t45 -127.5v-318h-50l-16 94
q-12 -21 -27 -39.5t-35.5 -33t-47 -22.5t-62.5 -8q-31 0 -57.5 9t-46.5 27t-31.5 44.5t-11.5 61.5q0 81 55.5 121t155.5 40h110v25z" />
    <glyph glyph-name="b" unicode="b" horiz-adv-x="557" 
d="M148 230q0 -39 12 -72t33 -57t49 -37.5t61 -13.5q28 0 54 10.5t46 34t32 61t12 92.5q0 93 -38 138.5t-97 45.5q-51 0 -93 -25t-71 -66v-111zM81 677h67v-281q11 15 28.5 32t40.5 31.5t50 23.5t58 9q46 0 81.5 -19.5t59 -53t35.5 -78t12 -93.5q0 -64 -14.5 -112t-41 -80.5
t-63 -48.5t-80.5 -16q-27 0 -52 8.5t-46 22.5t-38 33.5t-28 41.5l-16 -97h-53v677z" />
    <glyph glyph-name="c" unicode="c" horiz-adv-x="457" 
d="M280 439q-43 0 -74.5 -15t-52 -41t-30.5 -62t-10 -79t10 -79t31 -62.5t53 -41.5t77 -15q31 0 62 7t59 20l15 -48q-32 -16 -65 -24t-77 -8q-59 0 -102 19t-72 53t-43 80t-14 99t14 99t43 79.5t73 52.5t103 19q40 0 72.5 -8t62.5 -22q-3 -12 -7.5 -24.5t-7.5 -23.5
q-26 11 -55.5 18t-64.5 7z" />
    <glyph glyph-name="d" unicode="d" horiz-adv-x="556" 
d="M413 342q-27 42 -65.5 66t-80.5 24q-33 0 -61 -11.5t-48.5 -35t-32 -59.5t-11.5 -84q0 -53 12 -89.5t32.5 -59t46.5 -33t54 -10.5q32 0 60 13.5t49 37.5t33 57t12 72v112zM480 0h-53l-16 96q-22 -44 -65 -74.5t-97 -30.5q-44 0 -81 16t-63.5 47.5t-41 78t-14.5 108.5
q0 54 14 99.5t40.5 79.5t65 53t86.5 19q28 0 52.5 -8.5t44.5 -22.5t35 -31t26 -34v281h67v-677z" />
    <glyph glyph-name="e" unicode="e" horiz-adv-x="501" 
d="M113 212q6 -80 49.5 -124t124.5 -44q33 0 66.5 6.5t61.5 19.5l15 -48q-31 -14 -68 -22.5t-81 -8.5q-117 0 -174.5 68t-57.5 183q0 53 13 99t39.5 79.5t67.5 52.5t98 19q93 0 141 -53t48 -146q0 -23 -2.5 -43t-7.5 -38h-333zM267 442q-39 0 -67.5 -13.5t-47 -38t-28 -58
t-11.5 -73.5h279q2 5 2 18v16q0 72 -29 110.5t-98 38.5z" />
    <glyph glyph-name="f" unicode="f" horiz-adv-x="334" 
d="M254 633q-28 0 -45.5 -8t-27.5 -23t-13.5 -37.5t-3.5 -50.5v-31h145v-53h-145v-430h-65v430h-78v53h78v32q0 39 8 70.5t26 54t46.5 34.5t69.5 12q29 0 51 -6.5t41 -16.5q-3 -11 -7.5 -23.5t-7.5 -23.5q-33 17 -72 17z" />
    <glyph glyph-name="g" unicode="g" horiz-adv-x="554" 
d="M413 338q-25 40 -64.5 67t-81.5 27q-33 0 -61 -11.5t-48.5 -35t-32 -58.5t-11.5 -82q0 -51 12 -87t32.5 -58.5t46.5 -32.5t54 -10q34 0 62.5 13.5t49 37.5t31.5 57t11 72v101zM413 92l-7 2q-20 -40 -62 -68t-95 -28q-44 0 -81 16t-63.5 47t-41 77.5t-14.5 106.5
q0 52 14 97t40.5 78.5t65 52.5t86.5 19q28 0 52.5 -9t44 -22.5t34.5 -30.5t26 -32l14 85h54v-450q0 -63 -16 -107.5t-45 -73t-69.5 -42t-89.5 -13.5q-50 0 -96.5 13t-75.5 28l16 54q29 -16 68 -26t80 -10q36 0 65.5 8t50.5 28t33 54.5t12 87.5v58z" />
    <glyph glyph-name="h" unicode="h" horiz-adv-x="562" 
d="M148 0h-67v677h67v-277q12 15 30 31t41 29.5t50.5 22.5t57.5 9q77 0 120 -49.5t43 -138.5v-304h-65v304q0 60 -29.5 94.5t-80.5 34.5q-52 0 -96 -25.5t-71 -63.5v-344z" />
    <glyph glyph-name="i" unicode="i" horiz-adv-x="234" 
d="M152 0h-68v483h68v-483zM70 640q0 20 12.5 33.5t35.5 13.5q24 0 36 -13.5t12 -33.5t-12 -33.5t-36 -13.5q-23 0 -35.5 13.5t-12.5 33.5z" />
    <glyph glyph-name="j" unicode="j" horiz-adv-x="235" 
d="M152 -46q0 -39 -6 -68.5t-21 -49.5t-40.5 -30.5t-64.5 -10.5q-20 0 -37 4t-31 11l17 51q11 -4 23.5 -6.5t25.5 -2.5q41 0 54 23.5t13 79.5v528h67v-529zM71 640q0 20 12 33.5t35 13.5q24 0 36.5 -13.5t12.5 -33.5t-12.5 -33.5t-36.5 -13.5q-23 0 -35 13.5t-12 33.5z" />
    <glyph glyph-name="k" unicode="k" horiz-adv-x="501" 
d="M482 0h-79q-56 72 -101 128q-19 24 -37.5 47t-33 41t-24 29.5t-9.5 12.5v25l193 200h79l-205 -210zM148 0h-67v677h67v-677z" />
    <glyph glyph-name="l" unicode="l" horiz-adv-x="234" 
d="M152 0h-68v677h68v-677z" />
    <glyph glyph-name="m" unicode="m" horiz-adv-x="797" 
d="M145 0h-67v483h54l15 -85q10 16 25.5 32.5t35 30t44 22.5t53.5 9q48 0 78.5 -28.5t44.5 -76.5q26 42 69 73.5t96 31.5q70 0 102.5 -47.5t32.5 -125.5v-319h-66v319q0 51 -19 83t-66 32q-46 0 -82 -30t-58 -69v-335h-66v319q0 51 -19.5 83t-64.5 32q-47 0 -83.5 -28
t-58.5 -66v-340z" />
    <glyph glyph-name="n" unicode="n" horiz-adv-x="560" 
d="M146 0h-67v483h53l15 -84q12 15 30 31.5t40.5 30t49.5 22.5t58 9q77 0 120 -49.5t43 -138.5v-304h-66v304q0 60 -29 94.5t-80 34.5q-52 0 -95.5 -26.5t-71.5 -65.5v-341z" />
    <glyph glyph-name="o" unicode="o" horiz-adv-x="538" 
d="M113 242q0 -43 9 -79.5t28.5 -63t49 -41.5t71.5 -15t72 15t49.5 41.5t28.5 63t9 79.5q0 42 -9 78.5t-28.5 62.5t-49.5 41t-72 15t-71.5 -15t-49 -41t-28.5 -62.5t-9 -78.5zM47 242q0 53 13.5 98.5t41 79.5t70 53t99.5 19q58 0 100 -19t70 -53t41.5 -79.5t13.5 -98.5
t-13.5 -99t-41.5 -80t-70 -53t-100 -19q-57 0 -99.5 19t-70 53t-41 80t-13.5 99z" />
    <glyph glyph-name="p" unicode="p" horiz-adv-x="555" 
d="M146 230q0 -39 12 -72t33 -57t49 -37.5t61 -13.5q28 0 54.5 10.5t46 34t31.5 61t12 92.5q0 93 -38 138.5t-97 45.5q-48 0 -91.5 -25t-72.5 -66v-111zM133 483l14 -85q11 15 28.5 32t40 30.5t50 22.5t57.5 9q46 0 81.5 -19.5t59 -53t35.5 -78t12 -93.5q0 -64 -14.5 -112
t-41 -80.5t-63 -48.5t-80.5 -16q-54 0 -96 28t-63 67l-7 -2v-278h-67v677h54z" />
    <glyph glyph-name="q" unicode="q" horiz-adv-x="559" 
d="M414 338q-27 44 -64 69t-82 25q-33 0 -61 -11.5t-48.5 -35t-32 -59.5t-11.5 -84q0 -53 12 -89.5t32.5 -59t46.5 -33t54 -10.5q32 0 60 13.5t49 37.5t33 57t12 72v108zM427 483h54v-677h-67v278l-7 2q-10 -20 -26 -37t-36.5 -30t-44.5 -20.5t-50 -7.5q-44 0 -81 16
t-63.5 47.5t-41 78t-14.5 108.5q0 54 14 99.5t40.5 79.5t65 53t86.5 19q28 0 52 -9t44 -23t35 -30.5t25 -32.5z" />
    <glyph glyph-name="r" unicode="r" horiz-adv-x="369" 
d="M149 388q11 18 25 36.5t31.5 33.5t39 24.5t46.5 9.5q26 0 39.5 -4.5t19.5 -7.5q-5 -17 -8 -33.5t-8 -33.5q-21 15 -55 15q-43 0 -77 -24t-55 -67v-337h-67v483h52z" />
    <glyph glyph-name="s" unicode="s" horiz-adv-x="433" 
d="M200 42q64 0 91 23.5t27 58.5q0 21 -9.5 37t-26 27.5t-39 20t-47.5 16.5q-28 9 -54 21.5t-46 29.5t-32 40t-12 52q0 60 46 92t124 32q41 0 78 -7.5t66 -21.5q-3 -13 -7.5 -25t-7.5 -23q-27 12 -57 18.5t-66 6.5q-57 0 -84.5 -19.5t-27.5 -51.5q0 -38 29 -57t75 -33
q79 -25 121.5 -60t42.5 -96q0 -60 -43.5 -96t-137.5 -36q-45 0 -84.5 7t-66.5 21q3 12 7.5 25t7.5 24q27 -11 62 -18.5t71 -7.5z" />
    <glyph glyph-name="t" unicode="t" horiz-adv-x="349" 
d="M164 130q0 -43 13.5 -64.5t53.5 -21.5q23 0 41.5 4.5t34.5 12.5q4 -13 8 -23t8 -23q-18 -11 -43 -17.5t-60 -6.5q-61 0 -91 33t-30 105v301h-78v53h78l20 140h45v-140h152v-53h-152v-300z" />
    <glyph glyph-name="u" unicode="u" horiz-adv-x="553" 
d="M412 483h67v-483h-53l-16 94q-11 -17 -27 -35t-38.5 -33t-50.5 -25t-61 -10q-69 0 -112.5 45t-43.5 143v304h65v-304q0 -62 27.5 -96t75.5 -34q28 0 52.5 8.5t45.5 23t38.5 33.5t30.5 39v330z" />
    <glyph glyph-name="v" unicode="v" horiz-adv-x="462" 
d="M198 0l-176 483h69q21 -61 44 -123.5t44 -123.5l18 -59l35 -118q8 26 18.5 59t18.5 59l18 59l88 247h68l-175 -483h-70z" />
    <glyph glyph-name="w" unicode="w" horiz-adv-x="677" 
d="M468 190q8 -26 15 -58t12 -68l9 1q4 35 8 67t11 61l66 290h65l-117 -483h-66l-100 317q-8 26 -13.5 52t-10.5 56h-8q-7 -29 -13 -55.5t-15 -52.5l-99 -317h-66l-117 483h65l66 -290q7 -29 11 -61t6 -67l8 -1q7 34 14.5 66.5t15.5 59.5l91 293h70z" />
    <glyph glyph-name="x" unicode="x" horiz-adv-x="482" 
d="M242 207l-142 -207h-71l177 252l-161 231h70l117 -174q4 -8 8 -11q2 -2 2 -3l128 188h71l-162 -231l178 -252h-71z" />
    <glyph glyph-name="y" unicode="y" horiz-adv-x="550" 
d="M408 107q-11 -18 -27 -36.5t-37.5 -34.5t-48.5 -26t-59 -10q-74 0 -116.5 45t-42.5 143v295h65v-295q0 -62 27 -96t76 -34q28 0 52.5 9t45 23.5t37 33t28.5 38.5v321h68v-450q0 -120 -56.5 -178.5t-159.5 -58.5q-47 0 -92 12t-72 30q4 13 9.5 27t9.5 26q28 -16 64.5 -26
t76.5 -10q37 0 65 9t47.5 29.5t29.5 55t10 85.5v73z" />
    <glyph glyph-name="z" unicode="z" horiz-adv-x="449" 
d="M45 39l271 391h-251v53h332v-39l-272 -391h281v-53h-361v39z" />
    <glyph glyph-name="braceleft" unicode="{" horiz-adv-x="310" 
d="M56 304q47 1 63.5 22.5t16.5 62.5q0 19 -2 39.5t-5 42.5q-4 22 -6.5 43.5t-2.5 40.5q0 66 37 97.5t104 31.5h17v-39h-16q-47 0 -65 -26t-18 -75q0 -19 2 -38t5 -38q3 -20 5.5 -39.5t2.5 -37.5q0 -42 -19 -69t-67 -40q48 -14 67 -40.5t19 -68.5q0 -18 -2.5 -37.5
t-5.5 -39.5q-3 -19 -5 -38t-2 -39q0 -48 18 -73.5t65 -25.5h16v-39h-17q-67 0 -104 31.5t-37 96.5q0 18 2.5 40t6.5 44q3 21 5 42t2 40q0 40 -16.5 62t-63.5 23v44z" />
    <glyph glyph-name="bar" unicode="|" horiz-adv-x="247" 
d="M154 -202h-60v977h60v-977z" />
    <glyph glyph-name="braceright" unicode="}" horiz-adv-x="310" 
d="M256 260q-49 -1 -65 -22.5t-16 -62.5q0 -19 2 -40t5 -42q3 -22 5.5 -44t2.5 -40q0 -65 -36.5 -96.5t-103.5 -31.5h-16v39h15q46 0 65 25.5t19 73.5q0 20 -2 39t-5 38q-3 20 -5.5 39.5t-2.5 37.5q0 42 19 68.5t66 40.5q-47 13 -66 40t-19 69q0 18 2.5 37.5t5.5 39.5
q3 19 5 38t2 38q0 49 -19 75t-65 26h-15v39h16q67 0 103.5 -31.5t36.5 -97.5q0 -19 -2.5 -40.5t-5.5 -43.5t-5 -42.5t-2 -39.5q0 -41 16 -62.5t65 -22.5v-44z" />
    <glyph glyph-name="asciitilde" unicode="~" horiz-adv-x="544" 
d="M481 369q4 -5 9 -10l10 -10q-19 -36 -52.5 -63.5t-75.5 -27.5q-40 0 -66 14t-49 30q-18 13 -38 23t-40 10t-35.5 -5t-27.5 -14t-21.5 -21t-18.5 -25q-8 8 -15.5 16.5t-14.5 16.5q9 16 22 32t29.5 29t36 21t42.5 8q39 0 64 -13.5t47 -28.5q20 -13 38.5 -23.5t44.5 -10.5
q35 0 58.5 19t41.5 45z" />
    <glyph glyph-name="uni007F" horiz-adv-x="500" 
 />
    <glyph glyph-name="nonbreakingspace" unicode="&#xa0;" 
 />
    <glyph glyph-name="exclamdown" unicode="&#xa1;" horiz-adv-x="248" 
d="M90 -43q2 85 5.5 167t5.5 166h48q2 -85 5.5 -166.5t5.5 -166.5v-150h-70v150zM177 438q0 -21 -13.5 -36t-38.5 -15q-26 0 -39.5 15t-13.5 36q0 23 13.5 37.5t39.5 14.5q25 0 38.5 -14.5t13.5 -37.5z" />
    <glyph glyph-name="cent" unicode="&#xa2;" horiz-adv-x="566" 
d="M311 -7q-53 4 -93 24.5t-66.5 53.5t-40 76.5t-13.5 93.5q0 49 13.5 92.5t40 76.5t66.5 53.5t93 25.5v93h42v-92q67 -3 121 -29q-3 -11 -7.5 -23.5t-7.5 -23.5q-21 10 -47.5 15.5t-58.5 7.5v-393q29 2 58.5 8.5t52.5 16.5l15 -48q-52 -26 -126 -29v-93h-42v94zM164 241
q0 -77 36.5 -130.5t110.5 -65.5v391q-73 -10 -110 -63.5t-37 -131.5z" />
    <glyph glyph-name="sterling" unicode="&#xa3;" horiz-adv-x="566" 
d="M335 599q-38 0 -63.5 -11.5t-41 -29.5t-22.5 -40.5t-7 -43.5q0 -35 11.5 -64t26.5 -58h161v-47h-137q11 -23 17 -44t6 -42q0 -48 -25.5 -85t-69.5 -60l2 -7h326v-67h-446v67h33q51 20 80.5 61.5t29.5 82.5q0 26 -7.5 48.5t-16.5 45.5h-113v47h86q-17 32 -29.5 64.5
t-12.5 68.5q0 40 16 72t44 54.5t65 35t79 12.5q51 0 83.5 -9.5t64.5 -26.5l-17 -53q-28 15 -55.5 22t-67.5 7z" />
    <glyph glyph-name="currency" unicode="&#xa4;" horiz-adv-x="571" 
d="M476 152l-22 -24l-55 57q-28 -18 -54.5 -27t-56.5 -9q-32 0 -59 9t-53 27l-55 -57q-1 2 -4 5l-5 5l-23 24l55 56q-19 25 -28 51.5t-9 58.5q0 29 9.5 56.5t27.5 55.5l-42 42l-9 8v-1q-1 2 -2.5 3t-3.5 3l33 32l56 -56q26 20 53.5 29t57.5 9q58 0 111 -38l56 55l11 -12
q9 -10 19 -19l-54 -55q38 -53 38 -112q0 -29 -10 -57.5t-28 -52.5l55 -56zM424 328q0 28 -11 53t-30 43t-44 28.5t-52 10.5q-28 0 -53 -10.5t-43.5 -28.5t-29 -43t-10.5 -53t10.5 -52.5t29 -43t43.5 -29t53 -10.5q27 0 52 10.5t44 29t30 43t11 52.5z" />
    <glyph glyph-name="yen" unicode="&#xa5;" horiz-adv-x="566" 
d="M91 343h128q-42 75 -84 152.5t-84 154.5h71l161 -310l164 310h71l-169 -307h128v-38h-148l-5 -9h1l-7 -12v-66h159v-38h-159v-180h-69v180h-158v38h158v66l-11 21h-147v38z" />
    <glyph glyph-name="brokenbar" unicode="&#xa6;" horiz-adv-x="246" 
d="M95 674h57v-347h-57v347zM95 170h57v-347h-57v347z" />
    <glyph glyph-name="section" unicode="&#xa7;" horiz-adv-x="566" 
d="M276 385q-29 9 -47 15t-33 14q-11 -7 -20 -18q-8 -9 -13.5 -22t-5.5 -30q0 -24 14 -41.5t35 -30t45 -20.5t44 -14l10 -3q23 -8 36.5 -12t31.5 -14q11 6 21 16q8 8 14.5 20.5t6.5 29.5q0 40 -38 65.5t-101 44.5zM249 -12q30 0 57.5 6t48 17t33 27.5t12.5 37.5q0 23 -11 40
t-28.5 29t-40 21t-45.5 16q-25 7 -57 18t-60.5 29t-48.5 44t-20 64t20 62.5t50 36.5q-26 25 -36.5 51.5t-10.5 53.5q0 63 50 102.5t139 39.5q38 0 74 -8.5t67 -22.5l-16 -47q-26 14 -54 21t-63 7q-69 0 -101 -26.5t-32 -65.5q0 -21 10.5 -36.5t27.5 -27.5t39 -21t46 -17
q29 -9 61.5 -21.5t59.5 -30.5t45 -43t18 -60t-20 -60.5t-52 -36.5q29 -25 41 -55t12 -56q0 -32 -15.5 -57.5t-43.5 -43.5t-66 -27.5t-84 -9.5q-48 0 -88.5 9t-71.5 25q3 11 8 23t8 23q29 -13 61.5 -21.5t76.5 -8.5z" />
    <glyph glyph-name="dieresis" unicode="&#xa8;" horiz-adv-x="295" 
d="M7 617q0 18 11.5 30.5t32.5 12.5t32.5 -12.5t11.5 -30.5q0 -17 -11.5 -29.5t-32.5 -12.5t-32.5 12.5t-11.5 29.5zM202 617q0 18 11.5 30.5t32.5 12.5q20 0 32 -12.5t12 -30.5q0 -17 -12 -29.5t-32 -12.5q-21 0 -32.5 12.5t-11.5 29.5z" />
    <glyph glyph-name="copyright" unicode="&#xa9;" horiz-adv-x="688" 
d="M42 337q0 65 24.5 122t66 99.5t96.5 67t117 24.5t117 -24.5t96.5 -67t66 -99.5t24.5 -122t-24.5 -122t-66 -99.5t-96.5 -67t-117 -24.5t-117 24.5t-96.5 67t-66 99.5t-24.5 122zM611 337q0 58 -20 108.5t-55.5 88.5t-84 60t-105.5 22t-105.5 -22t-84 -60t-55.5 -88.5
t-20 -108.5t20 -108.5t55.5 -88.5t84 -60t105.5 -22t105.5 22t84 60t55.5 88.5t20 108.5zM360 477q-62 0 -90 -40.5t-28 -100.5q0 -30 7 -56t21.5 -44.5t37 -29.5t54.5 -11q47 0 85 19l9 -33q-21 -10 -45.5 -15.5t-53.5 -5.5q-42 0 -72.5 13.5t-50.5 37.5t-29.5 56t-9.5 69
t10 69t30 56t51.5 37.5t73.5 13.5q28 0 50.5 -5t43.5 -16q-2 -8 -5.5 -16t-5.5 -16q-18 8 -39 13t-44 5z" />
    <glyph glyph-name="ordfeminine" unicode="&#xaa;" horiz-adv-x="345" 
d="M247 479h-75q-48 0 -72.5 -20.5t-24.5 -57.5q0 -28 17.5 -45t45.5 -17q24 0 44 9.5t34.5 24.5t22.5 34.5t8 39.5v32zM247 532q0 43 -23 63t-61 20q-28 0 -56 -6.5t-51 -17.5q-3 10 -6.5 19t-6.5 18q21 12 53 22t71 10q68 0 101 -35t33 -94v-227h-44l-10 55
q-19 -26 -45.5 -44.5t-73.5 -18.5q-46 0 -78 27t-32 78q0 60 41 88t113 28h75v15z" />
    <glyph glyph-name="guillemotleft" unicode="&#xab;" horiz-adv-x="451" 
d="M275 241l127 -178h-52q-33 45 -65 88.5t-65 89.5l129 177h52zM98 241l127 -178h-52q-33 45 -65 88.5t-65 89.5l129 177h52z" />
    <glyph glyph-name="logicalnot" unicode="&#xac;" horiz-adv-x="496" 
d="M386 125v182h-343v55h403v-237h-60z" />
    <glyph glyph-name="uni00AD" unicode="&#xad;" horiz-adv-x="295" 
d="M13 274h270v-52h-270v52z" />
    <glyph glyph-name="registered" unicode="&#xae;" horiz-adv-x="529" 
d="M43 461q0 47 16 87.5t45.5 70.5t70.5 47.5t91 17.5t91 -17.5t70.5 -47.5t45.5 -70.5t16 -87.5t-16 -87.5t-45.5 -70.5t-70.5 -47.5t-91 -17.5t-91 17.5t-70.5 47.5t-45.5 70.5t-16 87.5zM458 461q0 40 -14 76t-39.5 63t-60.5 43t-78 16t-78 -16t-60.5 -43t-39.5 -63
t-14 -76q0 -41 14 -76.5t39.5 -62.5t60.5 -42.5t78 -15.5t78 15.5t60.5 42.5t39.5 62.5t14 76.5zM366 510q0 -26 -17 -45.5t-45 -27.5q14 -23 30 -50t30 -51h-33l-58 98h-52v-98h-30v244h90q45 0 65 -20.5t20 -49.5zM335 510q0 21 -13 32.5t-42 11.5h-59v-93h58q56 0 56 49z
" />
    <glyph glyph-name="macron" unicode="&#xaf;" horiz-adv-x="295" 
d="M14 581v44h268v-44h-268z" />
    <glyph glyph-name="degree" unicode="&#xb0;" horiz-adv-x="351" 
d="M78 556q0 -20 7.5 -38.5t20.5 -32t31 -21.5t39 -8q44 0 72.5 29.5t28.5 70.5q0 19 -7.5 36.5t-21 31t-32 21t-40.5 7.5q-21 0 -39 -7.5t-31 -21t-20.5 -31t-7.5 -36.5zM43 556q0 26 10 49.5t28 41t42.5 27.5t52.5 10t52.5 -10t42.5 -27.5t28.5 -41t10.5 -49.5
q0 -27 -10.5 -50.5t-28.5 -41.5t-42.5 -28t-52.5 -10t-52.5 10t-42.5 28t-28 41.5t-10 50.5z" />
    <glyph glyph-name="plusminus" unicode="&#xb1;" horiz-adv-x="566" 
d="M315 494v-176h180v-53h-180v-176h-60v176h-181v53h181v176h60zM495 43v-43h-421v43h421z" />
    <glyph glyph-name="twosuperior" unicode="&#xb2;" horiz-adv-x="307" 
d="M143 616q-19 0 -41.5 -6.5t-42.5 -15.5q-3 10 -7 19t-7 19q20 11 46 19t54 8q59 0 87 -25t28 -68q0 -22 -10.5 -44t-26.5 -42.5t-35 -39.5l-35 -35l-56 -56h173v-45h-240v34l92 93q15 16 30.5 33.5t27.5 34.5t19.5 34t7.5 33q0 25 -17 37.5t-47 12.5z" />
    <glyph glyph-name="threesuperior" unicode="&#xb3;" horiz-adv-x="300" 
d="M133 340q39 0 58 19t19 46q0 29 -19.5 44.5t-51.5 15.5h-51v41h51q26 0 43 14.5t17 46.5q0 22 -16 36t-56 14q-23 0 -43 -5t-38 -14q-3 10 -7 19t-7 19q43 23 97 23q66 0 94.5 -27t28.5 -65q0 -29 -18 -48.5t-47 -30.5q38 -8 56.5 -32t18.5 -51q0 -49 -32.5 -77.5
t-95.5 -28.5q-33 0 -58 6.5t-44 16.5l12 39q18 -9 41.5 -15t47.5 -6z" />
    <glyph glyph-name="acute" unicode="&#xb4;" horiz-adv-x="295" 
d="M265 698l36 -49q-40 -26 -79 -49t-80 -49l-19 27z" />
    <glyph glyph-name="mu" unicode="&#xb5;" horiz-adv-x="556" 
d="M79 483h66v-307q0 -63 28 -95.5t79 -32.5q27 0 50.5 9t44 23.5t37.5 33t30 38.5v331h68v-483h-54l-16 94q-11 -17 -27 -35.5t-36.5 -33.5t-45 -24.5t-51.5 -9.5q-74 0 -107 50v-244h-66v686z" />
    <glyph glyph-name="paragraph" unicode="&#xb6;" horiz-adv-x="442" 
d="M45 502q0 40 14 72t38 54.5t56 34t68 11.5h191v-41h-33q-44 0 -59 -17.5t-15 -54.5v-610h-60v382h-34q-32 0 -61.5 11t-53 32.5t-37.5 53t-14 72.5z" />
    <glyph glyph-name="periodcentered" unicode="&#xb7;" horiz-adv-x="236" 
d="M66 278q0 22 13.5 37t39.5 15q25 0 38.5 -15t13.5 -37q0 -21 -13.5 -36t-38.5 -15q-26 0 -39.5 15t-13.5 36z" />
    <glyph glyph-name="cedilla" unicode="&#xb8;" horiz-adv-x="295" 
d="M132 -166h-71l76 118h39z" />
    <glyph glyph-name="onesuperior" unicode="&#xb9;" horiz-adv-x="285" 
d="M123 607q-17 -5 -36.5 -11.5t-36.5 -11.5v41l85 30h40v-307h81v-44h-217v44h84v259z" />
    <glyph glyph-name="ordmasculine" unicode="&#xba;" horiz-adv-x="394" 
d="M90 479q0 -29 6 -54.5t19.5 -44t33.5 -29t49 -10.5q28 0 49 10.5t34 29t19.5 44t6.5 54.5q0 59 -26 97t-83 38t-82.5 -38t-25.5 -97zM33 479q0 38 10 71t30 57t51.5 38t73.5 14q43 0 74 -14t51 -38t30 -57t10 -71q0 -39 -10 -72t-30 -57t-51 -38t-74 -14q-42 0 -73.5 14
t-51.5 38t-30 57t-10 72z" />
    <glyph glyph-name="guillemotright" unicode="&#xbb;" horiz-adv-x="451" 
d="M51 418h53l129 -177q-32 -46 -64.5 -89.5t-64.5 -88.5h-53l128 178zM229 418h52l129 -177q-32 -46 -64.5 -89.5t-64.5 -88.5h-53l128 178z" />
    <glyph glyph-name="onequarter" unicode="&#xbc;" horiz-adv-x="760" 
d="M537 660h57l-366 -660h-56zM139 607q-17 -5 -36 -11.5t-36 -11.5v41q20 8 41.5 15t42.5 15h41v-307h81v-44h-218v44h84v259zM592 113v159l-117 -159h117zM596 351h44v-238h41v-45h-41v-68h-49v68h-169v38z" />
    <glyph glyph-name="onehalf" unicode="&#xbd;" horiz-adv-x="760" 
d="M538 660h56l-367 -660h-55zM139 607q-17 -5 -36 -11.5t-36 -11.5v41q20 8 41.5 15t42.5 15h41v-307h81v-44h-218v44h84v259zM586 313q-20 0 -42 -6.5t-42 -16.5q-3 11 -7 20t-8 19q21 10 47 18t54 8q59 0 87 -24.5t28 -68.5q0 -22 -10.5 -44t-26.5 -42.5t-35 -39.5
l-35 -35l-56 -55h173v-46h-240v34l91 94q16 16 31 33t27 34.5t19.5 34.5t7.5 32q0 25 -16.5 38t-46.5 13z" />
    <glyph glyph-name="threequarters" unicode="&#xbe;" horiz-adv-x="760" 
d="M538 660h56l-366 -660h-56zM592 113v159l-117 -159h117zM596 351h44v-238h41v-45h-41v-68h-49v68h-169v38zM148 340q40 0 59 19t19 46q0 29 -20 44.5t-52 15.5h-50v41h50q26 0 43.5 14.5t17.5 46.5q0 22 -16 36t-56 14q-23 0 -43 -5t-38 -14q-3 10 -7.5 19t-7.5 19
q44 23 98 23q33 0 56 -7.5t37.5 -20t21.5 -29t7 -35.5q0 -29 -18 -48.5t-48 -30.5q40 -8 58 -32t18 -51q0 -49 -32.5 -77.5t-94.5 -28.5q-34 0 -59 6.5t-45 17.5q3 10 7 18.5t7 18.5q18 -9 41 -14.5t47 -5.5z" />
    <glyph glyph-name="questiondown" unicode="&#xbf;" horiz-adv-x="488" 
d="M265 -143q40 0 82.5 11.5t73.5 25.5l17 -55q-32 -16 -77.5 -29t-96.5 -13q-101 0 -151 44t-50 120q0 28 9.5 53.5t24 48t32 42t34.5 36.5q14 13 28 28.5t25.5 31.5t18.5 33t7 35q0 30 -7 50h55q5 -10 8.5 -24.5t3.5 -28.5q0 -24 -7 -44t-19 -38t-27 -34t-31 -32
t-31.5 -32.5t-27.5 -34.5t-19.5 -39t-7.5 -45q0 -22 7.5 -42t23.5 -35t41.5 -24t60.5 -9zM313 438q0 -21 -13.5 -36t-38.5 -15q-26 0 -39.5 15t-13.5 36q0 23 13.5 37.5t39.5 14.5q25 0 38.5 -14.5t13.5 -37.5z" />
    <glyph glyph-name="Agrave" unicode="&#xc0;" horiz-adv-x="622" 
d="M461 187h-297l-68 -187h-70l251 674h71q63 -170 125.5 -337t125.5 -337h-70zM187 248h251l-77 207q-11 35 -23.5 75t-23.5 74q-13 -33 -26 -74t-24 -75zM401 774l-20 -27q-40 26 -79 49t-80 49q10 13 19.5 24.5t18.5 24.5z" />
    <glyph glyph-name="Aacute" unicode="&#xc1;" horiz-adv-x="622" 
d="M461 187h-297l-68 -187h-70l251 674h71q63 -170 125.5 -337t125.5 -337h-70zM187 248h251l-77 207q-11 35 -23.5 75t-23.5 74q-13 -33 -26 -74t-24 -75zM365 894l36 -49q-40 -26 -79 -49t-80 -49l-19 27z" />
    <glyph glyph-name="Acircumflex" unicode="&#xc2;" horiz-adv-x="622" 
d="M461 187h-297l-68 -187h-70l251 674h71q63 -170 125.5 -337t125.5 -337h-70zM187 248h251l-77 207q-11 35 -23.5 75t-23.5 74q-13 -33 -26 -74t-24 -75zM445 749h-59l-75 92l-74 -92h-60q29 33 56 66.5t55 66.5h47z" />
    <glyph glyph-name="Atilde" unicode="&#xc3;" horiz-adv-x="622" 
d="M461 187h-297l-68 -187h-70l251 674h71q63 -170 125.5 -337t125.5 -337h-70zM187 248h251l-77 207q-11 35 -23.5 75t-23.5 74q-13 -33 -26 -74t-24 -75zM459 853q-2 -46 -24 -69.5t-58 -23.5q-26 0 -43 8.5t-31 17.5t-27 15.5t-27 6.5q-22 0 -30.5 -13t-9.5 -32h-45
q2 44 23.5 68t59.5 24q23 0 40.5 -8t31.5 -18q14 -9 27 -15.5t28 -6.5q22 0 30 12.5t8 33.5h47z" />
    <glyph glyph-name="Adieresis" unicode="&#xc4;" horiz-adv-x="622" 
d="M461 187h-297l-68 -187h-70l251 674h71q63 -170 125.5 -337t125.5 -337h-70zM187 248h251l-77 207q-11 35 -23.5 75t-23.5 74q-13 -33 -26 -74t-24 -75zM170 813q0 18 11.5 30.5t32.5 12.5t32.5 -12.5t11.5 -30.5q0 -17 -11.5 -29.5t-32.5 -12.5t-32.5 12.5t-11.5 29.5z
M365 813q0 18 11.5 30.5t32.5 12.5q20 0 32 -12.5t12 -30.5q0 -17 -12 -29.5t-32 -12.5q-21 0 -32.5 12.5t-11.5 29.5z" />
    <glyph glyph-name="Aring" unicode="&#xc5;" horiz-adv-x="622" 
d="M461 187h-297l-68 -187h-70l251 674h71q63 -170 125.5 -337t125.5 -337h-70zM187 248h251l-77 207q-11 35 -23.5 75t-23.5 74q-13 -33 -26 -74t-24 -75zM259 832q0 -25 16 -40t37 -15q22 0 38 15t16 40q0 26 -15.5 41.5t-38.5 15.5q-22 0 -37.5 -15.5t-15.5 -41.5z
M223 831q0 38 25.5 64.5t63.5 26.5q37 0 63 -26.5t26 -64.5q0 -18 -7 -34t-19 -28t-28.5 -19t-34.5 -7q-38 0 -63.5 26t-25.5 62z" />
    <glyph glyph-name="AE" unicode="&#xc6;" horiz-adv-x="816" 
d="M470 187h-296q-20 -47 -40.5 -93.5t-40.5 -93.5h-69l298 674h441v-63h-350l68 -233h261v-61h-242l74 -255h195v-62h-243zM201 248h253l-64 207l-36 150q-14 -34 -30.5 -74.5t-30.5 -75.5v1z" />
    <glyph glyph-name="Ccedilla" unicode="&#xc7;" horiz-adv-x="570" 
d="M368 622q-118 0 -184.5 -74t-66.5 -211q0 -136 65.5 -210t184.5 -74q40 0 77.5 7.5t69.5 21.5l17 -56q-36 -17 -75.5 -26t-89.5 -9q-82 0 -141.5 25t-98.5 70t-58 109t-19 142q0 76 21 140t61.5 109.5t99.5 71t136 25.5q50 0 87 -8t70 -23q-4 -14 -8.5 -28t-8.5 -28
q-58 26 -139 26zM329 -166h-71l76 118h39z" />
    <glyph glyph-name="Egrave" unicode="&#xc8;" horiz-adv-x="545" 
d="M85 674h404v-62h-335v-233h315v-62h-315v-255h341v-62h-410v674zM382 774l-20 -27q-40 26 -79 49t-80 49q10 13 19.5 24.5t18.5 24.5z" />
    <glyph glyph-name="Eacute" unicode="&#xc9;" horiz-adv-x="545" 
d="M85 674h404v-62h-335v-233h315v-62h-315v-255h341v-62h-410v674zM346 894l36 -49q-40 -26 -79 -49t-80 -49l-19 27z" />
    <glyph glyph-name="Ecircumflex" unicode="&#xca;" horiz-adv-x="545" 
d="M85 674h404v-62h-335v-233h315v-62h-315v-255h341v-62h-410v674zM427 749h-59l-75 92l-74 -92h-60q29 33 56 66.5t55 66.5h47z" />
    <glyph glyph-name="Edieresis" unicode="&#xcb;" horiz-adv-x="545" 
d="M85 674h404v-62h-335v-233h315v-62h-315v-255h341v-62h-410v674zM152 813q0 18 11.5 30.5t32.5 12.5t32.5 -12.5t11.5 -30.5q0 -17 -11.5 -29.5t-32.5 -12.5t-32.5 12.5t-11.5 29.5zM347 813q0 18 11.5 30.5t32.5 12.5q20 0 32 -12.5t12 -30.5q0 -17 -12 -29.5t-32 -12.5
q-21 0 -32.5 12.5t-11.5 29.5z" />
    <glyph glyph-name="Igrave" unicode="&#xcc;" horiz-adv-x="244" 
d="M157 0h-69v674h69v-674zM212 774l-20 -27q-40 26 -79 49t-80 49q10 13 19.5 24.5t18.5 24.5z" />
    <glyph glyph-name="Iacute" unicode="&#xcd;" horiz-adv-x="244" 
d="M157 0h-69v674h69v-674zM176 894l36 -49q-40 -26 -79 -49t-80 -49l-19 27z" />
    <glyph glyph-name="Icircumflex" unicode="&#xce;" horiz-adv-x="244" 
d="M157 0h-69v674h69v-674zM257 749h-59l-75 92l-74 -92h-60q29 33 56 66.5t55 66.5h47z" />
    <glyph glyph-name="Idieresis" unicode="&#xcf;" horiz-adv-x="244" 
d="M157 0h-69v674h69v-674zM-18 813q0 18 11.5 30.5t32.5 12.5t32.5 -12.5t11.5 -30.5q0 -17 -11.5 -29.5t-32.5 -12.5t-32.5 12.5t-11.5 29.5zM177 813q0 18 11.5 30.5t32.5 12.5q20 0 32 -12.5t12 -30.5q0 -17 -12 -29.5t-32 -12.5q-21 0 -32.5 12.5t-11.5 29.5z" />
    <glyph glyph-name="Eth" unicode="&#xd0;" horiz-adv-x="650" 
d="M85 356v318h186q165 0 249 -85t84 -251t-84 -252t-249 -86h-186v305h-70v51h70zM535 338q0 73 -17 125t-50.5 85t-83 48t-113.5 15h-117v-255h180v-51h-180v-242h117q128 0 196 64.5t68 210.5z" />
    <glyph glyph-name="Ntilde" unicode="&#xd1;" horiz-adv-x="663" 
d="M447 215q21 -35 38 -66.5t27 -51.5l7 2q-3 35 -4.5 69t-1.5 76v430h69v-674h-76l-286 459q-16 23 -33 55.5t-29 57.5v-2q0 1 -1 2t-1 2h-8q3 -35 4.5 -68.5t1.5 -75.5v-430h-69v674h76zM480 853q-2 -46 -24 -69.5t-58 -23.5q-26 0 -43 8.5t-31 17.5t-27 15.5t-27 6.5
q-22 0 -30.5 -13t-9.5 -32h-45q2 44 23.5 68t59.5 24q23 0 40.5 -8t31.5 -18q14 -9 27 -15.5t28 -6.5q22 0 30 12.5t8 33.5h47z" />
    <glyph glyph-name="Ograve" unicode="&#xd2;" horiz-adv-x="688" 
d="M346 47q58 0 101 20t71.5 57.5t42.5 91.5t14 121t-14 121t-42.5 91.5t-71.5 57.5t-101 20t-101.5 -20t-72 -57.5t-42.5 -91.5t-14 -121t14 -121t42.5 -91.5t72 -57.5t101.5 -20zM346 -9q-77 0 -132.5 26t-92.5 72.5t-54.5 110t-17.5 137.5t17.5 137.5t54.5 110t92.5 72.5
t132.5 26q76 0 132.5 -26t93 -72.5t54.5 -110t18 -137.5t-18 -137.5t-54.5 -110t-93 -72.5t-132.5 -26zM434 774l-20 -27q-40 26 -79 49t-80 49q10 13 19.5 24.5t18.5 24.5z" />
    <glyph glyph-name="Oacute" unicode="&#xd3;" horiz-adv-x="688" 
d="M346 47q58 0 101 20t71.5 57.5t42.5 91.5t14 121t-14 121t-42.5 91.5t-71.5 57.5t-101 20t-101.5 -20t-72 -57.5t-42.5 -91.5t-14 -121t14 -121t42.5 -91.5t72 -57.5t101.5 -20zM346 -9q-77 0 -132.5 26t-92.5 72.5t-54.5 110t-17.5 137.5t17.5 137.5t54.5 110t92.5 72.5
t132.5 26q76 0 132.5 -26t93 -72.5t54.5 -110t18 -137.5t-18 -137.5t-54.5 -110t-93 -72.5t-132.5 -26zM398 894l36 -49q-40 -26 -79 -49t-80 -49l-19 27z" />
    <glyph glyph-name="Ocircumflex" unicode="&#xd4;" horiz-adv-x="688" 
d="M346 47q58 0 101 20t71.5 57.5t42.5 91.5t14 121t-14 121t-42.5 91.5t-71.5 57.5t-101 20t-101.5 -20t-72 -57.5t-42.5 -91.5t-14 -121t14 -121t42.5 -91.5t72 -57.5t101.5 -20zM346 -9q-77 0 -132.5 26t-92.5 72.5t-54.5 110t-17.5 137.5t17.5 137.5t54.5 110t92.5 72.5
t132.5 26q76 0 132.5 -26t93 -72.5t54.5 -110t18 -137.5t-18 -137.5t-54.5 -110t-93 -72.5t-132.5 -26zM478 749h-59l-75 92l-74 -92h-60q29 33 56 66.5t55 66.5h47z" />
    <glyph glyph-name="Otilde" unicode="&#xd5;" horiz-adv-x="688" 
d="M346 47q58 0 101 20t71.5 57.5t42.5 91.5t14 121t-14 121t-42.5 91.5t-71.5 57.5t-101 20t-101.5 -20t-72 -57.5t-42.5 -91.5t-14 -121t14 -121t42.5 -91.5t72 -57.5t101.5 -20zM346 -9q-77 0 -132.5 26t-92.5 72.5t-54.5 110t-17.5 137.5t17.5 137.5t54.5 110t92.5 72.5
t132.5 26q76 0 132.5 -26t93 -72.5t54.5 -110t18 -137.5t-18 -137.5t-54.5 -110t-93 -72.5t-132.5 -26zM492 853q-2 -46 -24 -69.5t-58 -23.5q-26 0 -43 8.5t-31 17.5t-27 15.5t-27 6.5q-22 0 -30.5 -13t-9.5 -32h-45q2 44 23.5 68t59.5 24q23 0 40.5 -8t31.5 -18
q14 -9 27 -15.5t28 -6.5q22 0 30 12.5t8 33.5h47z" />
    <glyph glyph-name="Odieresis" unicode="&#xd6;" horiz-adv-x="688" 
d="M346 47q58 0 101 20t71.5 57.5t42.5 91.5t14 121t-14 121t-42.5 91.5t-71.5 57.5t-101 20t-101.5 -20t-72 -57.5t-42.5 -91.5t-14 -121t14 -121t42.5 -91.5t72 -57.5t101.5 -20zM346 -9q-77 0 -132.5 26t-92.5 72.5t-54.5 110t-17.5 137.5t17.5 137.5t54.5 110t92.5 72.5
t132.5 26q76 0 132.5 -26t93 -72.5t54.5 -110t18 -137.5t-18 -137.5t-54.5 -110t-93 -72.5t-132.5 -26zM203 813q0 18 11.5 30.5t32.5 12.5t32.5 -12.5t11.5 -30.5q0 -17 -11.5 -29.5t-32.5 -12.5t-32.5 12.5t-11.5 29.5zM398 813q0 18 11.5 30.5t32.5 12.5q20 0 32 -12.5
t12 -30.5q0 -17 -12 -29.5t-32 -12.5q-21 0 -32.5 12.5t-11.5 29.5z" />
    <glyph glyph-name="multiply" unicode="&#xd7;" horiz-adv-x="566" 
d="M431 91l-150 150l-150 -150l-42 42l150 149l-151 151l43 42l150 -150l150 150l42 -42l-151 -151l151 -149z" />
    <glyph glyph-name="Oslash" unicode="&#xd8;" horiz-adv-x="688" 
d="M542 616q52 -49 77 -120t25 -159q0 -74 -18 -137.5t-54.5 -110t-93 -72.5t-132.5 -26q-49 0 -88.5 10t-72.5 30l-44 -71h-51l60 97q-53 48 -77 120t-24 160q0 74 17.5 137.5t54.5 110t92.5 72.5t132.5 26q48 0 87.5 -10.5t72.5 -30.5l45 72h51zM116 337q0 -72 16.5 -129
t50.5 -97l292 479q-26 17 -58.5 27t-70.5 10q-58 0 -101.5 -20t-72 -57.5t-42.5 -91.5t-14 -121zM346 47q58 0 101 20t71.5 57.5t42.5 91.5t14 121q0 143 -67 224l-291 -477q54 -37 129 -37z" />
    <glyph glyph-name="Ugrave" unicode="&#xd9;" horiz-adv-x="664" 
d="M334 -9q-58 0 -104.5 16.5t-79 50.5t-50 86.5t-17.5 123.5v406h69v-407q0 -110 47 -161.5t135 -51.5t135 51.5t47 161.5v407h69v-406q0 -71 -17.5 -123.5t-50 -86.5t-79 -50.5t-104.5 -16.5zM422 774l-20 -27q-40 26 -79 49t-80 49q10 13 19.5 24.5t18.5 24.5z" />
    <glyph glyph-name="Uacute" unicode="&#xda;" horiz-adv-x="664" 
d="M334 -9q-58 0 -104.5 16.5t-79 50.5t-50 86.5t-17.5 123.5v406h69v-407q0 -110 47 -161.5t135 -51.5t135 51.5t47 161.5v407h69v-406q0 -71 -17.5 -123.5t-50 -86.5t-79 -50.5t-104.5 -16.5zM386 894l36 -49q-40 -26 -79 -49t-80 -49l-19 27z" />
    <glyph glyph-name="Ucircumflex" unicode="&#xdb;" horiz-adv-x="664" 
d="M334 -9q-58 0 -104.5 16.5t-79 50.5t-50 86.5t-17.5 123.5v406h69v-407q0 -110 47 -161.5t135 -51.5t135 51.5t47 161.5v407h69v-406q0 -71 -17.5 -123.5t-50 -86.5t-79 -50.5t-104.5 -16.5zM466 749h-59l-75 92l-74 -92h-60q29 33 56 66.5t55 66.5h47z" />
    <glyph glyph-name="Udieresis" unicode="&#xdc;" horiz-adv-x="664" 
d="M334 -9q-58 0 -104.5 16.5t-79 50.5t-50 86.5t-17.5 123.5v406h69v-407q0 -110 47 -161.5t135 -51.5t135 51.5t47 161.5v407h69v-406q0 -71 -17.5 -123.5t-50 -86.5t-79 -50.5t-104.5 -16.5zM191 813q0 18 11.5 30.5t32.5 12.5t32.5 -12.5t11.5 -30.5q0 -17 -11.5 -29.5
t-32.5 -12.5t-32.5 12.5t-11.5 29.5zM386 813q0 18 11.5 30.5t32.5 12.5q20 0 32 -12.5t12 -30.5q0 -17 -12 -29.5t-32 -12.5q-21 0 -32.5 12.5t-11.5 29.5z" />
    <glyph glyph-name="Yacute" unicode="&#xdd;" horiz-adv-x="563" 
d="M317 284v-284h-69v284l-227 390h72l189 -331q46 82 94 165.5t95 165.5h74zM335 894l36 -49q-40 -26 -79 -49t-80 -49l-19 27z" />
    <glyph glyph-name="Thorn" unicode="&#xde;" horiz-adv-x="564" 
d="M520 344q0 -45 -16 -83t-45 -65t-71 -42t-93 -15h-141v-139h-69v674h69v-129h147q52 0 92.5 -15t68.5 -41.5t43 -63.5t15 -81zM452 344q0 67 -38.5 103t-112.5 36h-147v-282h141q73 0 115 37t42 106z" />
    <glyph glyph-name="germandbls" unicode="&#xdf;" horiz-adv-x="597" 
d="M348 42q61 0 98.5 39t37.5 111q0 87 -46 127.5t-123 40.5h-49v54h65q52 0 87 23t35 73q0 32 -11.5 54.5t-30 36.5t-42.5 20.5t-48 6.5q-92 0 -134.5 -52.5t-42.5 -143.5v-432h-66v432q0 55 15 102t45 80.5t75.5 52.5t106.5 19q43 0 79.5 -11.5t63 -33.5t41 -52.5
t14.5 -68.5q0 -27 -10 -48.5t-26 -38t-36.5 -27.5t-41.5 -16l-1 -8q28 -5 55 -17.5t48 -35t33.5 -56.5t12.5 -82q0 -50 -15.5 -87t-42.5 -62.5t-63.5 -38t-78.5 -12.5q-85 0 -140 26q3 14 7 26t7 24q27 -11 58 -18t64 -7z" />
    <glyph glyph-name="agrave" unicode="&#xe0;" horiz-adv-x="503" 
d="M366 245h-111q-72 0 -108.5 -29t-36.5 -83q0 -45 27 -68t67 -23q37 0 67 13.5t51 35.5t32.5 50t11.5 56v48zM366 319q0 65 -33 92.5t-88 27.5q-46 0 -83 -10t-67 -24q-4 13 -8.5 23.5t-8.5 22.5q27 16 71 28.5t98 12.5q93 0 138 -46.5t45 -127.5v-318h-50l-16 94
q-12 -21 -27 -39.5t-35.5 -33t-47 -22.5t-62.5 -8q-31 0 -57.5 9t-46.5 27t-31.5 44.5t-11.5 61.5q0 81 55.5 121t155.5 40h110v25zM341 578l-20 -27q-40 26 -79 49t-80 49q10 13 19.5 24.5t18.5 24.5z" />
    <glyph glyph-name="aacute" unicode="&#xe1;" horiz-adv-x="503" 
d="M366 245h-111q-72 0 -108.5 -29t-36.5 -83q0 -45 27 -68t67 -23q37 0 67 13.5t51 35.5t32.5 50t11.5 56v48zM366 319q0 65 -33 92.5t-88 27.5q-46 0 -83 -10t-67 -24q-4 13 -8.5 23.5t-8.5 22.5q27 16 71 28.5t98 12.5q93 0 138 -46.5t45 -127.5v-318h-50l-16 94
q-12 -21 -27 -39.5t-35.5 -33t-47 -22.5t-62.5 -8q-31 0 -57.5 9t-46.5 27t-31.5 44.5t-11.5 61.5q0 81 55.5 121t155.5 40h110v25zM305 698l36 -49q-40 -26 -79 -49t-80 -49l-19 27z" />
    <glyph glyph-name="acircumflex" unicode="&#xe2;" horiz-adv-x="503" 
d="M366 245h-111q-72 0 -108.5 -29t-36.5 -83q0 -45 27 -68t67 -23q37 0 67 13.5t51 35.5t32.5 50t11.5 56v48zM366 319q0 65 -33 92.5t-88 27.5q-46 0 -83 -10t-67 -24q-4 13 -8.5 23.5t-8.5 22.5q27 16 71 28.5t98 12.5q93 0 138 -46.5t45 -127.5v-318h-50l-16 94
q-12 -21 -27 -39.5t-35.5 -33t-47 -22.5t-62.5 -8q-31 0 -57.5 9t-46.5 27t-31.5 44.5t-11.5 61.5q0 81 55.5 121t155.5 40h110v25zM386 553h-59l-75 92l-74 -92h-60q29 33 56 66.5t55 66.5h47z" />
    <glyph glyph-name="atilde" unicode="&#xe3;" horiz-adv-x="503" 
d="M366 245h-111q-72 0 -108.5 -29t-36.5 -83q0 -45 27 -68t67 -23q37 0 67 13.5t51 35.5t32.5 50t11.5 56v48zM366 319q0 65 -33 92.5t-88 27.5q-46 0 -83 -10t-67 -24q-4 13 -8.5 23.5t-8.5 22.5q27 16 71 28.5t98 12.5q93 0 138 -46.5t45 -127.5v-318h-50l-16 94
q-12 -21 -27 -39.5t-35.5 -33t-47 -22.5t-62.5 -8q-31 0 -57.5 9t-46.5 27t-31.5 44.5t-11.5 61.5q0 81 55.5 121t155.5 40h110v25zM400 657q-2 -46 -24 -69.5t-58 -23.5q-26 0 -43 8.5t-31 17.5t-27 15.5t-27 6.5q-22 0 -30.5 -13t-9.5 -32h-45q2 44 23.5 68t59.5 24
q23 0 40.5 -8t31.5 -18q14 -9 27 -15.5t28 -6.5q22 0 30 12.5t8 33.5h47z" />
    <glyph glyph-name="adieresis" unicode="&#xe4;" horiz-adv-x="503" 
d="M366 245h-111q-72 0 -108.5 -29t-36.5 -83q0 -45 27 -68t67 -23q37 0 67 13.5t51 35.5t32.5 50t11.5 56v48zM366 319q0 65 -33 92.5t-88 27.5q-46 0 -83 -10t-67 -24q-4 13 -8.5 23.5t-8.5 22.5q27 16 71 28.5t98 12.5q93 0 138 -46.5t45 -127.5v-318h-50l-16 94
q-12 -21 -27 -39.5t-35.5 -33t-47 -22.5t-62.5 -8q-31 0 -57.5 9t-46.5 27t-31.5 44.5t-11.5 61.5q0 81 55.5 121t155.5 40h110v25zM111 617q0 18 11.5 30.5t32.5 12.5t32.5 -12.5t11.5 -30.5q0 -17 -11.5 -29.5t-32.5 -12.5t-32.5 12.5t-11.5 29.5zM306 617q0 18 11.5 30.5
t32.5 12.5q20 0 32 -12.5t12 -30.5q0 -17 -12 -29.5t-32 -12.5q-21 0 -32.5 12.5t-11.5 29.5z" />
    <glyph glyph-name="aring" unicode="&#xe5;" horiz-adv-x="503" 
d="M366 245h-111q-72 0 -108.5 -29t-36.5 -83q0 -45 27 -68t67 -23q37 0 67 13.5t51 35.5t32.5 50t11.5 56v48zM366 319q0 65 -33 92.5t-88 27.5q-46 0 -83 -10t-67 -24q-4 13 -8.5 23.5t-8.5 22.5q27 16 71 28.5t98 12.5q93 0 138 -46.5t45 -127.5v-318h-50l-16 94
q-12 -21 -27 -39.5t-35.5 -33t-47 -22.5t-62.5 -8q-31 0 -57.5 9t-46.5 27t-31.5 44.5t-11.5 61.5q0 81 55.5 121t155.5 40h110v25zM199 636q0 -25 16 -40t37 -15q22 0 38 15t16 40q0 26 -15.5 41.5t-38.5 15.5q-22 0 -37.5 -15.5t-15.5 -41.5zM163 635q0 38 25.5 64.5
t63.5 26.5q37 0 63 -26.5t26 -64.5q0 -18 -7 -34t-19 -28t-28.5 -19t-34.5 -7q-38 0 -63.5 26t-25.5 62z" />
    <glyph glyph-name="ae" unicode="&#xe6;" horiz-adv-x="796" 
d="M426 212q7 -80 46.5 -124t120.5 -44q63 0 120 26l15 -48q-32 -16 -65 -23.5t-78 -7.5q-78 0 -121.5 34.5t-67.5 94.5q-13 -27 -32.5 -50.5t-45 -41t-57.5 -27.5t-71 -10q-31 0 -58 9t-47 27t-31.5 44.5t-11.5 61.5q0 81 56 121t156 40h110v25q0 65 -33 92.5t-88 27.5
q-45 0 -82.5 -9t-68.5 -23q-4 13 -8 23.5t-8 23.5q27 16 71 27t98 11q61 0 98.5 -22.5t58.5 -64.5q25 41 68 64t102 23q91 0 136.5 -53t45.5 -146q0 -45 -9 -81h-319zM364 245h-111q-73 0 -109 -29t-36 -83q0 -45 26.5 -68t67.5 -23q37 0 67 13t51 34.5t32.5 49.5t11.5 58
v48zM572 442q-39 0 -66 -13.5t-44 -38t-25 -58t-10 -73.5h266v18q0 5 0.5 9.5t0.5 6.5q0 72 -27 110.5t-95 38.5z" />
    <glyph glyph-name="ccedilla" unicode="&#xe7;" horiz-adv-x="457" 
d="M280 439q-43 0 -74.5 -15t-52 -41t-30.5 -62t-10 -79t10 -79t31 -62.5t53 -41.5t77 -15q31 0 62 7t59 20l15 -48q-32 -16 -65 -24t-77 -8q-59 0 -102 19t-72 53t-43 80t-14 99t14 99t43 79.5t73 52.5t103 19q40 0 72.5 -8t62.5 -22q-3 -12 -7.5 -24.5t-7.5 -23.5
q-26 11 -55.5 18t-64.5 7zM243 -166h-71l76 118h39z" />
    <glyph glyph-name="egrave" unicode="&#xe8;" horiz-adv-x="501" 
d="M113 212q6 -80 49.5 -124t124.5 -44q33 0 66.5 6.5t61.5 19.5l15 -48q-31 -14 -68 -22.5t-81 -8.5q-117 0 -174.5 68t-57.5 183q0 53 13 99t39.5 79.5t67.5 52.5t98 19q93 0 141 -53t48 -146q0 -23 -2.5 -43t-7.5 -38h-333zM267 442q-39 0 -67.5 -13.5t-47 -38t-28 -58
t-11.5 -73.5h279q2 5 2 18v16q0 72 -29 110.5t-98 38.5zM340 578l-20 -27q-40 26 -79 49t-80 49q10 13 19.5 24.5t18.5 24.5z" />
    <glyph glyph-name="eacute" unicode="&#xe9;" horiz-adv-x="501" 
d="M113 212q6 -80 49.5 -124t124.5 -44q33 0 66.5 6.5t61.5 19.5l15 -48q-31 -14 -68 -22.5t-81 -8.5q-117 0 -174.5 68t-57.5 183q0 53 13 99t39.5 79.5t67.5 52.5t98 19q93 0 141 -53t48 -146q0 -23 -2.5 -43t-7.5 -38h-333zM267 442q-39 0 -67.5 -13.5t-47 -38t-28 -58
t-11.5 -73.5h279q2 5 2 18v16q0 72 -29 110.5t-98 38.5zM304 698l36 -49q-40 -26 -79 -49t-80 -49l-19 27z" />
    <glyph glyph-name="ecircumflex" unicode="&#xea;" horiz-adv-x="501" 
d="M113 212q6 -80 49.5 -124t124.5 -44q33 0 66.5 6.5t61.5 19.5l15 -48q-31 -14 -68 -22.5t-81 -8.5q-117 0 -174.5 68t-57.5 183q0 53 13 99t39.5 79.5t67.5 52.5t98 19q93 0 141 -53t48 -146q0 -23 -2.5 -43t-7.5 -38h-333zM267 442q-39 0 -67.5 -13.5t-47 -38t-28 -58
t-11.5 -73.5h279q2 5 2 18v16q0 72 -29 110.5t-98 38.5zM385 553h-59l-75 92l-74 -92h-60q29 33 56 66.5t55 66.5h47z" />
    <glyph glyph-name="edieresis" unicode="&#xeb;" horiz-adv-x="501" 
d="M113 212q6 -80 49.5 -124t124.5 -44q33 0 66.5 6.5t61.5 19.5l15 -48q-31 -14 -68 -22.5t-81 -8.5q-117 0 -174.5 68t-57.5 183q0 53 13 99t39.5 79.5t67.5 52.5t98 19q93 0 141 -53t48 -146q0 -23 -2.5 -43t-7.5 -38h-333zM267 442q-39 0 -67.5 -13.5t-47 -38t-28 -58
t-11.5 -73.5h279q2 5 2 18v16q0 72 -29 110.5t-98 38.5zM110 617q0 18 11.5 30.5t32.5 12.5t32.5 -12.5t11.5 -30.5q0 -17 -11.5 -29.5t-32.5 -12.5t-32.5 12.5t-11.5 29.5zM305 617q0 18 11.5 30.5t32.5 12.5q20 0 32 -12.5t12 -30.5q0 -17 -12 -29.5t-32 -12.5
q-21 0 -32.5 12.5t-11.5 29.5z" />
    <glyph glyph-name="igrave" unicode="&#xec;" horiz-adv-x="234" 
d="M152 0h-68v483h68v-483zM207 578l-20 -27q-40 26 -79 49t-80 49q10 13 19.5 24.5t18.5 24.5z" />
    <glyph glyph-name="iacute" unicode="&#xed;" horiz-adv-x="234" 
d="M152 0h-68v483h68v-483zM171 698l36 -49q-40 -26 -79 -49t-80 -49l-19 27z" />
    <glyph glyph-name="icircumflex" unicode="&#xee;" horiz-adv-x="234" 
d="M152 0h-68v483h68v-483zM252 553h-59l-75 92l-74 -92h-60q29 33 56 66.5t55 66.5h47z" />
    <glyph glyph-name="idieresis" unicode="&#xef;" horiz-adv-x="234" 
d="M152 0h-68v483h68v-483zM-23 617q0 18 11.5 30.5t32.5 12.5t32.5 -12.5t11.5 -30.5q0 -17 -11.5 -29.5t-32.5 -12.5t-32.5 12.5t-11.5 29.5zM172 617q0 18 11.5 30.5t32.5 12.5q20 0 32 -12.5t12 -30.5q0 -17 -12 -29.5t-32 -12.5q-21 0 -32.5 12.5t-11.5 29.5z" />
    <glyph glyph-name="eth" unicode="&#xf0;" horiz-adv-x="550" 
d="M190 533q-4 9 -7 15t-7 15l98 47q-26 20 -55 35t-58 25l22 41q77 -27 141 -78q27 13 55.5 27t55.5 26l16 -30l-98 -47q69 -65 111 -155t42 -202q0 -54 -15.5 -102t-45.5 -83t-73.5 -55.5t-98.5 -20.5q-53 0 -95.5 19.5t-72 53t-45.5 78t-16 94.5q0 52 16 98.5t45.5 81.5
t71 55.5t91.5 20.5q47 0 81.5 -15t60.5 -43l7 3q-11 39 -40 77.5t-71 72.5zM441 242q0 39 -9.5 75t-29.5 63.5t-51.5 44t-75.5 16.5q-41 0 -72 -16.5t-51.5 -44t-30.5 -64.5t-10 -78q0 -40 11 -75.5t32 -61.5t51 -41.5t68 -15.5q41 0 72.5 18.5t52.5 47t32 64t11 68.5z" />
    <glyph glyph-name="ntilde" unicode="&#xf1;" horiz-adv-x="560" 
d="M146 0h-67v483h53l15 -84q12 15 30 31.5t40.5 30t49.5 22.5t58 9q77 0 120 -49.5t43 -138.5v-304h-66v304q0 60 -29 94.5t-80 34.5q-52 0 -95.5 -26.5t-71.5 -65.5v-341zM428 657q-2 -46 -24 -69.5t-58 -23.5q-26 0 -43 8.5t-31 17.5t-27 15.5t-27 6.5q-22 0 -30.5 -13
t-9.5 -32h-45q2 44 23.5 68t59.5 24q23 0 40.5 -8t31.5 -18q14 -9 27 -15.5t28 -6.5q22 0 30 12.5t8 33.5h47z" />
    <glyph glyph-name="ograve" unicode="&#xf2;" horiz-adv-x="538" 
d="M113 242q0 -43 9 -79.5t28.5 -63t49 -41.5t71.5 -15t72 15t49.5 41.5t28.5 63t9 79.5q0 42 -9 78.5t-28.5 62.5t-49.5 41t-72 15t-71.5 -15t-49 -41t-28.5 -62.5t-9 -78.5zM47 242q0 53 13.5 98.5t41 79.5t70 53t99.5 19q58 0 100 -19t70 -53t41.5 -79.5t13.5 -98.5
t-13.5 -99t-41.5 -80t-70 -53t-100 -19q-57 0 -99.5 19t-70 53t-41 80t-13.5 99zM359 578l-20 -27q-40 26 -79 49t-80 49q10 13 19.5 24.5t18.5 24.5z" />
    <glyph glyph-name="oacute" unicode="&#xf3;" horiz-adv-x="538" 
d="M113 242q0 -43 9 -79.5t28.5 -63t49 -41.5t71.5 -15t72 15t49.5 41.5t28.5 63t9 79.5q0 42 -9 78.5t-28.5 62.5t-49.5 41t-72 15t-71.5 -15t-49 -41t-28.5 -62.5t-9 -78.5zM47 242q0 53 13.5 98.5t41 79.5t70 53t99.5 19q58 0 100 -19t70 -53t41.5 -79.5t13.5 -98.5
t-13.5 -99t-41.5 -80t-70 -53t-100 -19q-57 0 -99.5 19t-70 53t-41 80t-13.5 99zM323 698l36 -49q-40 -26 -79 -49t-80 -49l-19 27z" />
    <glyph glyph-name="ocircumflex" unicode="&#xf4;" horiz-adv-x="538" 
d="M113 242q0 -43 9 -79.5t28.5 -63t49 -41.5t71.5 -15t72 15t49.5 41.5t28.5 63t9 79.5q0 42 -9 78.5t-28.5 62.5t-49.5 41t-72 15t-71.5 -15t-49 -41t-28.5 -62.5t-9 -78.5zM47 242q0 53 13.5 98.5t41 79.5t70 53t99.5 19q58 0 100 -19t70 -53t41.5 -79.5t13.5 -98.5
t-13.5 -99t-41.5 -80t-70 -53t-100 -19q-57 0 -99.5 19t-70 53t-41 80t-13.5 99zM403 553h-59l-75 92l-74 -92h-60q29 33 56 66.5t55 66.5h47z" />
    <glyph glyph-name="otilde" unicode="&#xf5;" horiz-adv-x="538" 
d="M113 242q0 -43 9 -79.5t28.5 -63t49 -41.5t71.5 -15t72 15t49.5 41.5t28.5 63t9 79.5q0 42 -9 78.5t-28.5 62.5t-49.5 41t-72 15t-71.5 -15t-49 -41t-28.5 -62.5t-9 -78.5zM47 242q0 53 13.5 98.5t41 79.5t70 53t99.5 19q58 0 100 -19t70 -53t41.5 -79.5t13.5 -98.5
t-13.5 -99t-41.5 -80t-70 -53t-100 -19q-57 0 -99.5 19t-70 53t-41 80t-13.5 99zM417 657q-2 -46 -24 -69.5t-58 -23.5q-26 0 -43 8.5t-31 17.5t-27 15.5t-27 6.5q-22 0 -30.5 -13t-9.5 -32h-45q2 44 23.5 68t59.5 24q23 0 40.5 -8t31.5 -18q14 -9 27 -15.5t28 -6.5
q22 0 30 12.5t8 33.5h47z" />
    <glyph glyph-name="odieresis" unicode="&#xf6;" horiz-adv-x="538" 
d="M113 242q0 -43 9 -79.5t28.5 -63t49 -41.5t71.5 -15t72 15t49.5 41.5t28.5 63t9 79.5q0 42 -9 78.5t-28.5 62.5t-49.5 41t-72 15t-71.5 -15t-49 -41t-28.5 -62.5t-9 -78.5zM47 242q0 53 13.5 98.5t41 79.5t70 53t99.5 19q58 0 100 -19t70 -53t41.5 -79.5t13.5 -98.5
t-13.5 -99t-41.5 -80t-70 -53t-100 -19q-57 0 -99.5 19t-70 53t-41 80t-13.5 99zM128 617q0 18 11.5 30.5t32.5 12.5t32.5 -12.5t11.5 -30.5q0 -17 -11.5 -29.5t-32.5 -12.5t-32.5 12.5t-11.5 29.5zM323 617q0 18 11.5 30.5t32.5 12.5q20 0 32 -12.5t12 -30.5
q0 -17 -12 -29.5t-32 -12.5q-21 0 -32.5 12.5t-11.5 29.5z" />
    <glyph glyph-name="divide" unicode="&#xf7;" horiz-adv-x="565" 
d="M487 310v-54h-413v54h413zM223 130q0 22 14.5 37.5t40.5 15.5t40.5 -15.5t14.5 -37.5q0 -23 -14.5 -38.5t-40.5 -15.5t-40.5 15.5t-14.5 38.5zM223 436q0 23 14.5 39t40.5 16t40.5 -16t14.5 -39q0 -22 -14.5 -37.5t-40.5 -15.5t-40.5 15.5t-14.5 37.5z" />
    <glyph glyph-name="oslash" unicode="&#xf8;" horiz-adv-x="538" 
d="M404 457q47 -35 69.5 -91.5t22.5 -123.5q0 -53 -13.5 -99t-41.5 -80t-70 -53t-100 -19q-29 0 -56.5 6t-53.5 17l-29 -55h-43l41 75q-43 35 -63 88.5t-20 119.5q0 53 13.5 98.5t41 79.5t70 53t99.5 19q27 0 51.5 -5t48.5 -15l40 73h42zM430 242q0 49 -13 90t-42 70
l-186 -339q17 -9 38 -14.5t44 -5.5q42 0 72 15t49.5 41.5t28.5 63t9 79.5zM113 242q0 -47 11 -86.5t36 -68.5l183 336q-34 16 -72 16q-42 0 -71.5 -15t-49 -41t-28.5 -62.5t-9 -78.5z" />
    <glyph glyph-name="ugrave" unicode="&#xf9;" horiz-adv-x="553" 
d="M412 483h67v-483h-53l-16 94q-11 -17 -27 -35t-38.5 -33t-50.5 -25t-61 -10q-69 0 -112.5 45t-43.5 143v304h65v-304q0 -62 27.5 -96t75.5 -34q28 0 52.5 8.5t45.5 23t38.5 33.5t30.5 39v330zM366 578l-20 -27q-40 26 -79 49t-80 49q10 13 19.5 24.5t18.5 24.5z" />
    <glyph glyph-name="uacute" unicode="&#xfa;" horiz-adv-x="553" 
d="M412 483h67v-483h-53l-16 94q-11 -17 -27 -35t-38.5 -33t-50.5 -25t-61 -10q-69 0 -112.5 45t-43.5 143v304h65v-304q0 -62 27.5 -96t75.5 -34q28 0 52.5 8.5t45.5 23t38.5 33.5t30.5 39v330zM330 698l36 -49q-40 -26 -79 -49t-80 -49l-19 27z" />
    <glyph glyph-name="ucircumflex" unicode="&#xfb;" horiz-adv-x="553" 
d="M412 483h67v-483h-53l-16 94q-11 -17 -27 -35t-38.5 -33t-50.5 -25t-61 -10q-69 0 -112.5 45t-43.5 143v304h65v-304q0 -62 27.5 -96t75.5 -34q28 0 52.5 8.5t45.5 23t38.5 33.5t30.5 39v330zM411 553h-59l-75 92l-74 -92h-60q29 33 56 66.5t55 66.5h47z" />
    <glyph glyph-name="udieresis" unicode="&#xfc;" horiz-adv-x="553" 
d="M412 483h67v-483h-53l-16 94q-11 -17 -27 -35t-38.5 -33t-50.5 -25t-61 -10q-69 0 -112.5 45t-43.5 143v304h65v-304q0 -62 27.5 -96t75.5 -34q28 0 52.5 8.5t45.5 23t38.5 33.5t30.5 39v330zM136 617q0 18 11.5 30.5t32.5 12.5t32.5 -12.5t11.5 -30.5q0 -17 -11.5 -29.5
t-32.5 -12.5t-32.5 12.5t-11.5 29.5zM331 617q0 18 11.5 30.5t32.5 12.5q20 0 32 -12.5t12 -30.5q0 -17 -12 -29.5t-32 -12.5q-21 0 -32.5 12.5t-11.5 29.5z" />
    <glyph glyph-name="yacute" unicode="&#xfd;" horiz-adv-x="550" 
d="M408 107q-11 -18 -27 -36.5t-37.5 -34.5t-48.5 -26t-59 -10q-74 0 -116.5 45t-42.5 143v295h65v-295q0 -62 27 -96t76 -34q28 0 52.5 9t45 23.5t37 33t28.5 38.5v321h68v-450q0 -120 -56.5 -178.5t-159.5 -58.5q-47 0 -92 12t-72 30q4 13 9.5 27t9.5 26q28 -16 64.5 -26
t76.5 -10q37 0 65 9t47.5 29.5t29.5 55t10 85.5v73zM329 698l36 -49q-40 -26 -79 -49t-80 -49l-19 27z" />
    <glyph glyph-name="thorn" unicode="&#xfe;" horiz-adv-x="587" 
d="M148 230q0 -39 12 -72t33 -57t49 -37.5t61 -13.5q28 0 54 10.5t46 34t32 61t12 92.5q0 93 -38 138.5t-97 45.5q-48 0 -91.5 -25t-72.5 -66v-111zM148 677v-281q11 15 28.5 32t40.5 31.5t50 23.5t58 9q46 0 81.5 -19.5t59 -53t35.5 -78t12 -93.5q0 -64 -14.5 -112
t-41 -80.5t-63 -48.5t-80.5 -16q-54 0 -96.5 28t-62.5 67l-7 -2v-278h-67v871h67z" />
    <glyph glyph-name="ydieresis" unicode="&#xff;" horiz-adv-x="550" 
d="M408 107q-11 -18 -27 -36.5t-37.5 -34.5t-48.5 -26t-59 -10q-74 0 -116.5 45t-42.5 143v295h65v-295q0 -62 27 -96t76 -34q28 0 52.5 9t45 23.5t37 33t28.5 38.5v321h68v-450q0 -120 -56.5 -178.5t-159.5 -58.5q-47 0 -92 12t-72 30q4 13 9.5 27t9.5 26q28 -16 64.5 -26
t76.5 -10q37 0 65 9t47.5 29.5t29.5 55t10 85.5v73zM134 617q0 18 11.5 30.5t32.5 12.5t32.5 -12.5t11.5 -30.5q0 -17 -11.5 -29.5t-32.5 -12.5t-32.5 12.5t-11.5 29.5zM329 617q0 18 11.5 30.5t32.5 12.5q20 0 32 -12.5t12 -30.5q0 -17 -12 -29.5t-32 -12.5
q-21 0 -32.5 12.5t-11.5 29.5z" />
    <glyph glyph-name="dotlessi" unicode="&#x131;" horiz-adv-x="234" 
d="M152 0h-68v483h68v-483z" />
    <glyph glyph-name="Lslash" unicode="&#x141;" horiz-adv-x="510" 
d="M25 327l61 26v321h68v-291q37 15 76 32t75 33v-59l-151 -66v-260h326v-63h-394v292l-61 -26v61z" />
    <glyph glyph-name="lslash" unicode="&#x142;" horiz-adv-x="234" 
d="M151 381l56 25v-60l-56 -25v-321h-68v291q-13 -5 -26.5 -11.5t-27.5 -12.5v61l54 24v325h68v-296z" />
    <glyph glyph-name="OE" unicode="&#x152;" horiz-adv-x="991" 
d="M533 97q-28 -45 -74.5 -75.5t-118.5 -30.5q-75 0 -130 26t-91.5 72.5t-54 110t-17.5 137.5t17.5 137.5t53.5 110t90.5 72.5t128.5 26q73 0 121 -31.5t75 -75.5v98h406v-63h-337v-233h317v-61h-317v-255h343v-62h-412v97zM344 47q33 0 62 9.5t53.5 26t43 38.5t30.5 46v348
q-28 53 -78.5 82t-110.5 29q-58 0 -101 -20t-71.5 -57.5t-42.5 -91t-14 -120.5q0 -135 56.5 -212.5t172.5 -77.5z" />
    <glyph glyph-name="oe" unicode="&#x153;" horiz-adv-x="840" 
d="M456 212q7 -80 49.5 -124.5t123.5 -44.5q34 0 66.5 6t60.5 20l3 -8q4 -10 6.5 -19t5.5 -20q-59 -31 -148 -31q-66 0 -114 22.5t-77 64.5q-26 -39 -63.5 -63t-100.5 -24q-58 0 -100 19t-69.5 53t-41 80t-13.5 99t13.5 98.5t41 79.5t69.5 53t100 19q63 0 102.5 -25
t60.5 -62q27 41 71 64t107 23q96 0 143 -53t47 -147q0 -23 -2.5 -43t-7.5 -37h-333zM110 242q0 -43 9 -79.5t28.5 -63t49 -41.5t71.5 -15q54 0 88.5 22t51.5 63q-8 26 -13 54.5t-5 59.5q0 59 16 110q-17 40 -50.5 63.5t-87.5 23.5q-42 0 -71.5 -15t-49 -41t-28.5 -62.5
t-9 -78.5zM609 442q-40 0 -68 -13.5t-46.5 -38t-28 -58t-11.5 -73.5h281v19q0 4 0.5 7t0.5 7q0 72 -29.5 111t-98.5 39z" />
    <glyph glyph-name="Scaron" unicode="&#x160;" horiz-adv-x="528" 
d="M249 -9q-35 0 -63 2.5t-50.5 7.5t-41.5 11.5t-35 15.5q4 14 9 28t9 27q30 -14 70 -23t93 -9q37 0 69 7t54.5 22.5t35.5 39.5t13 57t-13.5 55t-36.5 38t-53 26.5t-63 21.5q-31 10 -64.5 24.5t-61 36t-45 53t-17.5 76.5q0 37 12.5 69.5t39.5 55.5t68.5 36.5t100.5 13.5
q48 0 88 -8.5t74 -25.5q-4 -14 -9.5 -28t-9.5 -27q-29 14 -66 21.5t-77 7.5q-83 0 -119 -32t-36 -82q0 -31 12.5 -52t33.5 -36t49.5 -26t60.5 -22q36 -12 71.5 -26.5t63.5 -36.5t45.5 -54.5t17.5 -79.5t-17 -81.5t-47.5 -57.5t-72.5 -34.5t-92 -11.5zM288 746h-47l-112 134
h61l74 -92l75 92h59z" />
    <glyph glyph-name="scaron" unicode="&#x161;" horiz-adv-x="433" 
d="M200 42q64 0 91 23.5t27 58.5q0 21 -9.5 37t-26 27.5t-39 20t-47.5 16.5q-28 9 -54 21.5t-46 29.5t-32 40t-12 52q0 60 46 92t124 32q41 0 78 -7.5t66 -21.5q-3 -13 -7.5 -25t-7.5 -23q-27 12 -57 18.5t-66 6.5q-57 0 -84.5 -19.5t-27.5 -51.5q0 -38 29 -57t75 -33
q79 -25 121.5 -60t42.5 -96q0 -60 -43.5 -96t-137.5 -36q-45 0 -84.5 7t-66.5 21q3 12 7.5 25t7.5 24q27 -11 62 -18.5t71 -7.5zM241 550h-47l-112 134h61l74 -92l75 92h59z" />
    <glyph glyph-name="Ydieresis" unicode="&#x178;" horiz-adv-x="563" 
d="M317 284v-284h-69v284l-227 390h72l189 -331q46 82 94 165.5t95 165.5h74zM141 813q0 18 11.5 30.5t32.5 12.5t32.5 -12.5t11.5 -30.5q0 -17 -11.5 -29.5t-32.5 -12.5t-32.5 12.5t-11.5 29.5zM336 813q0 18 11.5 30.5t32.5 12.5q20 0 32 -12.5t12 -30.5q0 -17 -12 -29.5
t-32 -12.5q-21 0 -32.5 12.5t-11.5 29.5z" />
    <glyph glyph-name="Zcaron" unicode="&#x17d;" horiz-adv-x="547" 
d="M47 50l364 562h-339v62h423v-51l-363 -561h369v-62h-454v50zM298 746h-47l-112 134h61l74 -92l75 92h59z" />
    <glyph glyph-name="zcaron" unicode="&#x17e;" horiz-adv-x="449" 
d="M45 39l271 391h-251v53h332v-39l-272 -391h281v-53h-361v39zM249 550h-47l-112 134h61l74 -92l75 92h59z" />
    <glyph glyph-name="florin" unicode="&#x192;" horiz-adv-x="566" 
d="M250 396q6 57 15.5 106t28 84.5t50.5 55.5t83 20q23 0 40.5 -4.5t31.5 -11.5q-6 -14 -12 -26t-11 -25q-13 5 -26.5 7t-27.5 2q-47 0 -66.5 -33t-27.5 -90l-13 -85h129v-40h-134q-5 -31 -9 -63.5t-8 -63.5q-5 -32 -9 -63.5t-8 -61.5v1q-6 -41 -17 -74.5t-30.5 -57.5
t-48 -37.5t-69.5 -13.5q-22 0 -40.5 5t-31.5 11l23 51q12 -5 26 -7t28 -2q46 0 65 31.5t28 90.5l35 254h-95v40h101z" />
    <glyph glyph-name="circumflex" unicode="&#x2c6;" horiz-adv-x="295" 
d="M282 553h-59l-75 92l-74 -92h-60q29 33 56 66.5t55 66.5h47z" />
    <glyph glyph-name="caron" unicode="&#x2c7;" horiz-adv-x="295" 
d="M172 550h-47l-112 134h61l74 -92l75 92h59z" />
    <glyph glyph-name="breve" unicode="&#x2d8;" horiz-adv-x="295" 
d="M287 693q-7 -52 -41.5 -86.5t-96.5 -34.5q-63 0 -98.5 34.5t-41.5 86.5h46q6 -34 30 -54.5t64 -20.5q38 0 63 20.5t31 54.5h44z" />
    <glyph glyph-name="dotaccent" unicode="&#x2d9;" horiz-adv-x="295" 
d="M99 621q0 20 13 33.5t36 13.5t35.5 -13.5t12.5 -33.5t-12.5 -33.5t-35.5 -13.5t-36 13.5t-13 33.5z" />
    <glyph glyph-name="ring" unicode="&#x2da;" horiz-adv-x="295" 
d="M95 636q0 -25 16 -40t37 -15q22 0 38 15t16 40q0 26 -15.5 41.5t-38.5 15.5q-22 0 -37.5 -15.5t-15.5 -41.5zM59 635q0 38 25.5 64.5t63.5 26.5q37 0 63 -26.5t26 -64.5q0 -18 -7 -34t-19 -28t-28.5 -19t-34.5 -7q-38 0 -63.5 26t-25.5 62z" />
    <glyph glyph-name="ogonek" unicode="&#x2db;" horiz-adv-x="295" 
d="M127 -6h40l74 -113h-71z" />
    <glyph glyph-name="tilde" unicode="&#x2dc;" horiz-adv-x="295" 
d="M296 657q-2 -46 -24 -69.5t-58 -23.5q-26 0 -43 8.5t-31 17.5t-27 15.5t-27 6.5q-22 0 -30.5 -13t-9.5 -32h-45q2 44 23.5 68t59.5 24q23 0 40.5 -8t31.5 -18q14 -9 27 -15.5t28 -6.5q22 0 30 12.5t8 33.5h47z" />
    <glyph glyph-name="hungarumlaut" unicode="&#x2dd;" horiz-adv-x="295" 
d="M125 688h72l-105 -129h-47zM283 688h70q-27 -33 -51.5 -64.5t-50.5 -64.5h-48z" />
    <glyph glyph-name="uni03A9" unicode="&#x3a9;" horiz-adv-x="745" 
d="M376 620q-109 0 -172.5 -65.5t-63.5 -186.5q0 -56 18 -106t45 -91t57.5 -73t56.5 -52v-46h-207v59h134q-24 22 -54 53.5t-56 72.5t-43.5 91t-17.5 108q0 68 21 123.5t60 94.5t94.5 60t125.5 21t126 -21t95.5 -60t60.5 -94.5t21 -123.5q0 -58 -17.5 -108t-44 -91
t-56.5 -72.5t-54 -53.5h133v-59h-206v46q25 20 56 52t57.5 73t44.5 91t18 106q0 121 -62.5 186.5t-169.5 65.5z" />
    <glyph glyph-name="pi" unicode="&#x3c0;" horiz-adv-x="594" 
d="M556 7q-13 -7 -32.5 -10.5t-39.5 -3.5q-35 0 -57 11t-35.5 29.5t-18.5 43.5t-5 53v300h-145v-236q0 -24 -2 -51.5t-6.5 -54t-10.5 -50t-13 -38.5h-64q8 18 13.5 42.5t9.5 51.5t5.5 53t1.5 47v236q-39 -1 -66 -6.5t-49 -14.5l-10 51q19 10 52.5 17t69.5 7h401v-54h-122
v-307q0 -36 14 -58t46 -22q17 0 28.5 2t20.5 6z" />
    <glyph glyph-name="uni0E00" unicode="&#xe00;" horiz-adv-x="195" 
 />
    <glyph glyph-name="uni0E01" unicode="&#xe01;" horiz-adv-x="601" 
d="M456 0v353q0 77 -40.5 117t-117.5 40q-60 0 -106.5 -28t-66.5 -73q20 -17 39.5 -36.5t39.5 -36.5q-54 -25 -54 -92v-244h-69v233q0 30 16 57.5t45 41.5q-21 17 -44 37.5t-44 37.5q9 31 31 60t54 51.5t72.5 36t86.5 13.5q56 0 98 -16t70.5 -44.5t43 -68t14.5 -86.5v-353
h-68z" />
    <glyph glyph-name="uni0E02" unicode="&#xe02;" horiz-adv-x="552" 
d="M406 559h69v-373q0 -96 -48.5 -145.5t-153.5 -49.5t-154 51t-49 135v79q0 32 18.5 58.5t38.5 49.5q18 22 31 41t13 39v27q0 14 -6.5 22t-23.5 8h-65v58h72q49 0 68.5 -22.5t19.5 -60.5v-31q0 -28 -16 -53t-36 -48q-18 -22 -32.5 -43.5t-14.5 -44.5v-79q0 -64 32 -96.5
t104 -32.5q34 0 59 6.5t41.5 22.5t24.5 42.5t8 65.5v374z" />
    <glyph glyph-name="uni0E03" unicode="&#xe03;" horiz-adv-x="556" 
d="M74 255q0 29 18 54.5t39 48.5q20 23 36 45.5t16 48.5v23q0 13 -6.5 22t-23.5 9q-13 0 -24 -10t-18 -23q-13 7 -24.5 12t-24.5 11l-23 11v58l50 -28l17 -8q10 17 28 26t38 9q38 0 57 -23.5t19 -65.5v-23q0 -33 -18.5 -61t-39.5 -51q-18 -20 -33.5 -41.5t-15.5 -43.5v-78
q0 -64 32 -96.5t104 -32.5q34 0 59 6.5t41.5 22.5t24.5 42.5t8 65.5v374h69v-373q0 -96 -48.5 -145.5t-153.5 -49.5t-154 51t-49 135v78z" />
    <glyph glyph-name="uni0E04" unicode="&#xe04;" horiz-adv-x="617" 
d="M310 568q56 0 99 -16.5t72.5 -45t44.5 -67.5t15 -84v-355h-69v356q0 68 -40.5 111t-121.5 43t-121 -42.5t-40 -111.5v-130l7 -1q14 31 44 52.5t72 21.5h66v-60h-66q-45 0 -77 -26t-46 -74v-139h-69v355q0 45 15 84t44.5 67.5t72 45t98.5 16.5z" />
    <glyph glyph-name="uni0E05" unicode="&#xe05;" horiz-adv-x="626" 
d="M150 226l7 -1q14 31 44 52.5t73 21.5h66v-60h-66q-45 0 -77.5 -26t-46.5 -74v-139h-69v389q0 73 33.5 117.5t98.5 61.5l102 -69l102 69q64 -17 98 -62t34 -117v-389h-69v397q0 86 -66 107q-23 -14 -49.5 -30t-49.5 -30l-99 60q-66 -21 -66 -107v-171z" />
    <glyph glyph-name="uni0E06" unicode="&#xe06;" horiz-adv-x="602" 
d="M151 172q11 -25 29.5 -47.5t41.5 -39t50 -26.5t56 -10q69 0 99 40.5t30 116.5v353h69v-354q0 -101 -46.5 -157.5t-142.5 -56.5q-60 0 -106.5 27.5t-79.5 78.5q-1 -21 -2.5 -48t-2.5 -49h-64v249q0 29 15.5 54t34.5 49q18 24 33.5 49t15.5 52v22q0 14 -6.5 22.5t-23.5 8.5
q-14 0 -24.5 -8t-16.5 -25q-20 9 -36.5 17.5t-36.5 17.5v57l67 -36q10 17 27.5 26t37.5 9q39 0 58 -23.5t19 -64.5v-23q0 -37 -17 -66t-36 -54q-17 -22 -29.5 -42.5t-12.5 -41.5v-77z" />
    <glyph glyph-name="uni0E07" unicode="&#xe07;" horiz-adv-x="555" 
d="M189 0l-170 559h67l153 -501h19q35 0 67.5 16t57.5 46.5t40 74.5t15 101q0 58 -10.5 98.5t-29 66t-43 37.5t-52.5 12q-32 0 -59 -8q-2 14 -5.5 26t-5.5 26q15 8 36 11t38 3q44 0 80.5 -17.5t62.5 -51.5t40.5 -85t14.5 -118q0 -69 -20.5 -124t-55 -93.5t-79.5 -58.5
t-95 -20h-66z" />
    <glyph glyph-name="uni0E08" unicode="&#xe08;" horiz-adv-x="538" 
d="M184 0l-56 231q-6 26 -31 26h-35v58h41q38 0 59.5 -15t29.5 -56l43 -186h17q32 0 62 15.5t53.5 46.5t37.5 76t14 104q0 109 -46.5 159.5t-136.5 50.5q-60 0 -107.5 -18.5t-85.5 -49.5l-21 52q39 31 95 52.5t118 21.5q125 0 189 -72t64 -197q0 -66 -18 -121t-50 -94.5
t-77 -61.5t-99 -22h-60z" />
    <glyph glyph-name="uni0E09" unicode="&#xe09;" horiz-adv-x="587" 
d="M447 0l-5 96q-29 -45 -71.5 -75t-112.5 -30q-160 0 -160 167v72q0 14 -7 20.5t-18 6.5h-28v57h47q34 0 53 -18t19 -56v-79q0 -59 25.5 -85.5t85.5 -26.5q28 0 53.5 10t47 26.5t38 39t28.5 47.5v164q0 83 -41.5 128.5t-124.5 45.5q-63 0 -116 -18.5t-94 -47.5l-25 51
q45 31 102.5 52t131.5 21q117 0 176 -63t59 -169v-336h-63z" />
    <glyph glyph-name="uni0E0A" unicode="&#xe0a;" horiz-adv-x="553" 
d="M476 187q0 -97 -49 -146.5t-153 -49.5q-105 0 -154.5 51.5t-49.5 135.5v78q0 30 18.5 57.5t38.5 50.5q17 21 31 41t14 40v26q0 14 -7 22t-24 8h-65v58h73q48 0 68 -22.5t20 -60.5v-30q0 -28 -16 -53.5t-36 -48.5q-19 -22 -33.5 -43.5t-14.5 -44.5v-78q0 -65 32.5 -97.5
t104.5 -32.5q34 0 58.5 6.5t41 22.5t24.5 42.5t8 66.5v105q0 46 -20.5 67t-52.5 21h-17l-10 29q27 38 54 75t54 76h74l-112 -147q44 -7 72 -39.5t28 -80.5v-105z" />
    <glyph glyph-name="uni0E0B" unicode="&#xe0b;" horiz-adv-x="556" 
d="M141 178q0 -65 32 -97.5t104 -32.5q34 0 59 6.5t41.5 22.5t24.5 42.5t8 66.5v105q0 46 -20.5 67t-52.5 21h-17l-10 29l107 151h74l-112 -147q45 -7 72.5 -39.5t27.5 -80.5v-105q0 -97 -49 -146.5t-153 -49.5q-105 0 -154 51.5t-49 135.5v78q0 29 18 54t39 48
q20 23 36.5 46t16.5 49v22q0 14 -7 22.5t-24 8.5q-14 0 -24.5 -8t-16.5 -25q-20 9 -36.5 17.5t-36.5 17.5v57l67 -36q10 17 27.5 26t37.5 9q39 0 58 -23.5t19 -64.5v-23q0 -34 -18.5 -62t-40.5 -51q-19 -21 -33.5 -41t-14.5 -43v-78z" />
    <glyph glyph-name="uni0E0C" unicode="&#xe0c;" horiz-adv-x="919" 
d="M431 353q0 77 -36 117t-108 40q-27 0 -52 -7.5t-46.5 -21t-38 -32t-26.5 -40.5q18 -17 38.5 -36.5t40.5 -36.5q-54 -27 -54 -92v-156q0 -32 30 -32h51v-56h-70q-37 0 -58.5 22t-21.5 60v151q0 30 16 57.5t45 41.5l-88 74q9 31 30 60.5t51.5 52t69.5 36t83 13.5
q53 0 93 -16t66.5 -44.5t40 -68t13.5 -86.5v-181q12 -26 29.5 -48t39 -39t46 -26.5t49.5 -9.5q61 0 87 40.5t26 111.5v358h68v-344q0 -104 -39.5 -164t-131.5 -60q-55 0 -97.5 28t-74.5 77l-7 -96h-64v353zM209 339l-1 -7q-1 0 -2.5 1.5l-2.5 2.5z" />
    <glyph glyph-name="uni0E0D" unicode="&#xe0d;" horiz-adv-x="919" 
d="M843 60q0 -58 -15.5 -99.5t-43.5 -68.5t-67.5 -39.5t-87.5 -12.5q-57 0 -103 12t-73 30q4 13 8.5 26t8.5 26q29 -17 67.5 -26t78.5 -9q37 0 66.5 6.5t50 24.5t31.5 49.5t11 81.5v35l-8 2q-9 -18 -24.5 -36t-36.5 -31.5t-47.5 -22t-58.5 -8.5q-37 0 -68 11t-53.5 34
t-35.5 57.5t-13 82.5v168q0 77 -35.5 117t-107.5 40q-27 0 -52 -7.5t-46.5 -21t-38 -32t-26.5 -40.5q20 -17 39.5 -36.5t39.5 -36.5q-54 -25 -54 -92v-156q0 -32 30 -32h51v-56h-70q-37 0 -58.5 22t-21.5 60v151q0 28 16 56.5t45 42.5q-21 17 -44 37.5t-44 37.5q9 31 30 60
t52 51.5t69.5 36t82.5 13.5q53 0 93 -16t66.5 -44.5t39.5 -68t13 -86.5v-168q0 -58 27 -92.5t87 -34.5q29 0 53.5 8.5t45 23.5t36.5 34.5t27 41.5v393h68v-499z" />
    <glyph glyph-name="uni0E0E" unicode="&#xe0e;" horiz-adv-x="609" 
d="M464 353q0 77 -40 117t-116 40q-62 0 -109 -29.5t-65 -72.5q21 -18 45 -39t46 -39q-55 -28 -55 -92v-157q0 -38 -21 -59.5t-59 -21.5h-55v56h37q17 0 23.5 8t6.5 23v141q0 29 15.5 56.5t44.5 41.5q-23 18 -50 38.5t-50 39.5q9 31 31 60.5t54.5 52.5t73 37t87.5 14
q55 0 97.5 -16t70.5 -44.5t42.5 -68t14.5 -86.5v-555h-88q-27 23 -62.5 40t-80.5 17q-49 0 -83 -13.5t-66 -38.5l-9 26l-8 24q27 26 67 43t91 17q48 0 94.5 -22.5t75.5 -53.5v516z" />
    <glyph glyph-name="uni0E0F" unicode="&#xe0f;" horiz-adv-x="609" 
d="M533 -202h-70l-127 77q-16 -38 -50.5 -60.5t-71.5 -22.5t-68.5 8.5t-51.5 20.5q5 14 9 28.5t9 29.5q21 -14 47.5 -24t49.5 -10q42 0 73 28.5t42 70.5l140 -84v493q0 77 -40 117t-116 40q-62 0 -109 -29.5t-65 -72.5l74 -60l17 -17q-55 -27 -55 -93v-157q0 -38 -21 -59.5
t-59 -21.5h-55v56h37q17 0 23.5 8t6.5 23v141q0 29 15.5 56.5t43.5 41.5l-37 29q-14 11 -31 24.5t-31 24.5q9 31 31 60.5t54.5 52.5t73 37t87.5 14q55 0 97.5 -16t70.5 -44.5t42.5 -68t14.5 -86.5v-555z" />
    <glyph glyph-name="uni0E10" unicode="&#xe10;" horiz-adv-x="538" 
d="M184 0l-56 231q-6 26 -31 26h-35v58h41q38 0 59.5 -15t29.5 -56l43 -186h17q32 0 62 15.5t53.5 46.5t37.5 76t14 104q0 106 -46.5 158t-136.5 52q-58 0 -106.5 -19t-86.5 -49l-21 52q39 31 95 52.5t118 21.5q76 0 133 -33l54 63h76l-83 -98q36 -38 54.5 -89t18.5 -112
q0 -66 -18 -121t-50 -94.5t-77 -61.5t-99 -22h-60zM338 -202q-33 0 -58 14.5t-42 36.5q-15 -23 -42.5 -37t-62.5 -14h-62v58h68q32 0 56 14.5t43 37.5q20 -22 41 -37t55 -15h58v60h64v-118h-118z" />
    <glyph glyph-name="uni0E11" unicode="&#xe11;" horiz-adv-x="606" 
d="M150 0h-68v218q0 37 9.5 69t24 60t32 50.5t33.5 40.5v37q0 13 -6.5 22t-23.5 9q-13 0 -23.5 -9.5t-17.5 -23.5l-65 34v58l48 -29q5 -2 5.5 -3.5t5.5 -3.5q10 17 28 26t38 9q31 0 48.5 -24t18.5 -56q24 33 62 58.5t88 25.5q31 0 57 -10t45 -31t29.5 -54t10.5 -79v-394h-69
v393q0 68 -20 92.5t-56 24.5q-41 0 -83 -28t-75.5 -71t-54.5 -94t-21 -97v-220z" />
    <glyph glyph-name="uni0E12" unicode="&#xe12;" horiz-adv-x="983" 
d="M546 172q11 -25 29 -47.5t40.5 -39t48.5 -26.5t54 -10q66 0 94.5 40.5t28.5 116.5v353h69v-354q0 -101 -44.5 -157.5t-138.5 -56.5q-59 0 -104 27.5t-77 78.5q-1 -21 -2.5 -48t-2.5 -49h-64v400q0 43 -17 68.5t-47 36.5l-81 -54l-77 53q-28 -6 -52.5 -23.5t-42.5 -46
t-28 -67.5t-10 -88q0 -62 13 -105t35 -70t50 -39.5t57 -12.5q39 0 67 11q3 -14 6.5 -26t6.5 -26q-17 -7 -38.5 -12t-45.5 -5q-46 0 -86 16.5t-70 51t-47 88.5t-17 128q0 59 15 108t41.5 86t62.5 61.5t79 34.5l81 -64q20 15 41.5 31.5t41.5 32.5q62 -14 96.5 -57.5
t34.5 -115.5v-223z" />
    <glyph glyph-name="uni0E13" unicode="&#xe13;" horiz-adv-x="919" 
d="M780 0l-8 96q-31 -49 -74 -77t-101 -28q-85 0 -126 48.5t-41 133.5v180q0 77 -35.5 117t-107.5 40q-27 0 -52 -7.5t-46.5 -21t-38 -32t-26.5 -40.5q20 -17 39.5 -36.5t39.5 -36.5q-54 -25 -54 -92v-156q0 -32 30 -32h51v-56h-70q-37 0 -58.5 22t-21.5 60v151
q0 30 16 57.5t45 41.5q-21 17 -44 37.5t-44 37.5q9 31 30 60t52 51.5t69.5 36t82.5 13.5q53 0 93 -16t66.5 -44.5t39.5 -68t13 -86.5v-179q0 -57 25 -91t77 -34q29 0 55.5 9.5t49 26.5t40 39t29.5 48v387h68v-559h-63z" />
    <glyph glyph-name="uni0E14" unicode="&#xe14;" horiz-adv-x="620" 
d="M475 0v336q0 37 -9.5 69t-29 55.5t-49.5 36.5t-70 13q-49 0 -85.5 -17t-61 -48.5t-36.5 -75t-12 -97.5q0 -61 14.5 -103t37 -68t51 -37.5t57.5 -11.5q38 0 64 10q3 -14 6.5 -26t6.5 -26q-17 -7 -37.5 -11.5t-43.5 -4.5q-44 0 -84.5 16.5t-72 51t-50 86.5t-18.5 124
q0 62 17.5 116t51 94t82.5 63t111 23q59 0 102 -18.5t71.5 -50.5t42 -74.5t13.5 -89.5v-335h-69z" />
    <glyph glyph-name="uni0E15" unicode="&#xe15;" horiz-adv-x="633" 
d="M338 450q-20 14 -40.5 27t-40.5 26q-28 -6 -53 -23.5t-43.5 -46t-29 -68.5t-10.5 -90q0 -60 14 -102.5t36.5 -69.5t51 -39t58.5 -12q38 0 66 11q4 -14 6.5 -26.5t5.5 -26.5q-32 -16 -84 -16q-46 0 -86.5 16.5t-70.5 50.5t-47.5 87t-17.5 127q0 60 15 110.5t41.5 88
t63 61.5t79.5 33l86 -63q15 11 31.5 22t31.5 22l24 19q61 -15 96 -58t35 -115v-395h-69v400q0 42 -17 67.5t-48 36.5zM336 449l2 1q1 -1 2 -1h-4z" />
    <glyph glyph-name="uni0E16" unicode="&#xe16;" horiz-adv-x="603" 
d="M150 88q0 -32 30 -32h51v-56h-70q-37 0 -58.5 22t-21.5 60v151q0 30 16 57.5t45 41.5l-88 74q9 31 30.5 60.5t54 52t73 36t87.5 13.5q55 0 97.5 -16t71 -44.5t43 -68t14.5 -86.5v-353h-68v353q0 77 -40.5 117t-117.5 40q-30 0 -57.5 -7.5t-50 -21t-39.5 -32t-27 -40.5
q18 -17 38.5 -36.5t40.5 -36.5q-54 -27 -54 -92v-156zM210 339l-1 -7q-1 0 -2.5 1.5l-2.5 2.5z" />
    <glyph glyph-name="uni0E17" unicode="&#xe17;" horiz-adv-x="612" 
d="M467 363q0 76 -29 111.5t-83 35.5q-32 0 -62.5 -10t-57 -27t-48 -39.5t-36.5 -47.5v-386h-69v559h64l5 -96q18 20 41 39t49 33.5t56 23.5t62 9q87 0 132 -54t45 -151v-363h-69v363z" />
    <glyph glyph-name="uni0E18" unicode="&#xe18;" horiz-adv-x="552" 
d="M500 151q0 -48 -12.5 -79t-39.5 -49t-69 -25t-101 -7q-60 0 -102.5 8.5t-69 28t-39 52t-12.5 80.5v55h66v-55q0 -34 8 -56t27 -34.5t48.5 -17.5t73.5 -5t74 4t48.5 15.5t26.5 31.5t8 53v50q0 32 -16.5 48t-47.5 21l-191 26q-57 10 -93 41t-36 90q0 63 56.5 103t162.5 40
q59 0 110 -11.5t92 -31.5q-4 -14 -6.5 -26.5t-5.5 -26.5q-38 19 -86.5 29.5t-101.5 10.5q-81 0 -118 -24.5t-37 -62.5q0 -35 18 -50.5t50 -20.5l192 -28q57 -11 90 -42.5t33 -85.5v-49z" />
    <glyph glyph-name="uni0E19" unicode="&#xe19;" horiz-adv-x="602" 
d="M149 196q0 -75 29 -111t98 -36q28 0 55.5 10t51 26.5t42.5 39t30 47.5v387h68v-559h-63l-5 97q-33 -50 -81.5 -78t-114.5 -28q-89 0 -134 52t-45 152v364h69v-363z" />
    <glyph glyph-name="uni0E1A" unicode="&#xe1a;" horiz-adv-x="600" 
d="M302 49q78 0 115.5 40.5t37.5 112.5v357h68v-357q0 -102 -56 -156.5t-165 -54.5t-165.5 54.5t-56.5 156.5v357h69v-357q0 -72 37.5 -112.5t115.5 -40.5z" />
    <glyph glyph-name="uni0E1B" unicode="&#xe1b;" horiz-adv-x="600" 
d="M302 49q78 0 115.5 40.5t37.5 112.5v549h68v-549q0 -102 -56 -156.5t-165 -54.5t-165.5 54.5t-56.5 156.5v357h69v-357q0 -72 37.5 -112.5t115.5 -40.5z" />
    <glyph glyph-name="uni0E1C" unicode="&#xe1c;" horiz-adv-x="655" 
d="M468 191q12 -24 22 -52t19 -59l8 1q-5 38 -6 74.5t-1 78.5v325h67v-559h-76q-33 66 -67.5 133t-67.5 133q-13 26 -21.5 52.5t-12.5 39.5q-2 -7 -6 -18t-8.5 -24t-10 -26t-11.5 -24l-138 -266h-76v477q0 37 21.5 60t59.5 22h59v-58h-41q-32 0 -32 -32v-235q0 -42 -2 -78
t-7 -74l8 -2q9 26 19.5 56.5t24.5 55.5l112 208h55z" />
    <glyph glyph-name="uni0E1D" unicode="&#xe1d;" horiz-adv-x="655" 
d="M468 191q12 -24 22 -52t19 -59l8 1q-5 38 -6 74.5t-1 78.5v517h67v-751h-76q-33 66 -67.5 133t-67.5 133q-13 26 -21.5 52.5t-12.5 39.5q-2 -7 -6 -18t-8.5 -24t-10 -26t-11.5 -24l-138 -266h-76v477q0 37 21.5 60t59.5 22h59v-58h-41q-32 0 -32 -32v-235q0 -42 -2 -78
t-7 -74l8 -2q9 26 19.5 56.5t24.5 55.5l112 208h55z" />
    <glyph glyph-name="uni0E1E" unicode="&#xe1e;" horiz-adv-x="700" 
d="M381 530l102 -308q8 -27 16.5 -62.5t15.5 -85.5l8 1q4 51 8 84.5t9 63.5q14 84 27.5 167.5t26.5 168.5h69l-92 -559h-78l-111 329q-5 13 -8.5 29.5t-7 33.5t-6 34t-3.5 31l-8 1q-2 -15 -5 -32t-6.5 -34.5t-7.5 -33.5t-8 -29l-111 -329h-77q-20 125 -40.5 246.5
t-40.5 246.5l-12 66h69q13 -85 27 -168.5t27 -167.5q4 -28 8.5 -65t6.5 -83l8 -1q9 51 17 85.5t18 62.5l101 308h58z" />
    <glyph glyph-name="uni0E1F" unicode="&#xe1f;" horiz-adv-x="700" 
d="M383 530l104 -308q8 -27 16.5 -62.5t15.5 -85.5l8 1q4 51 8 84.5t9 63.5l55 528h70l-94 -751h-78l-113 329q-5 13 -8.5 29.5t-7 33.5t-6 34t-3.5 31l-8 1q-2 -15 -5 -32t-6.5 -34.5t-7.5 -33.5t-8 -29l-113 -329h-78q-20 125 -40 246.5t-40 246.5l-12 66h69
q13 -85 27 -168.5t27 -167.5q4 -28 8.5 -65t6.5 -83l8 -1q8 51 17.5 85t19.5 63l101 308h58z" />
    <glyph glyph-name="uni0E20" unicode="&#xe20;" horiz-adv-x="609" 
d="M464 353q0 77 -40 117t-116 40q-62 0 -109 -29.5t-65 -72.5q21 -18 45 -39t46 -39q-55 -28 -55 -92v-157q0 -38 -21 -59.5t-59 -21.5h-55v56h37q17 0 23.5 8t6.5 23v141q0 29 15.5 56.5t44.5 41.5q-23 18 -50 38.5t-50 39.5q9 31 31 60.5t54.5 52.5t73 37t87.5 14
q55 0 97.5 -16t70.5 -44.5t42.5 -68t14.5 -86.5v-353h-69v353z" />
    <glyph glyph-name="uni0E21" unicode="&#xe21;" horiz-adv-x="602" 
d="M457 559h68v-354q0 -101 -46 -157.5t-142 -56.5q-60 0 -106.5 27.5t-79.5 78.5q-1 -21 -2.5 -48t-2.5 -49h-64v559h69v-387q11 -25 29.5 -47.5t41.5 -39t50 -26.5t56 -10q69 0 99 40.5t30 116.5v353z" />
    <glyph glyph-name="uni0E22" unicode="&#xe22;" horiz-adv-x="577" 
d="M431 559h69v-356q0 -49 -13 -88t-40.5 -66.5t-71 -42.5t-103.5 -15q-103 0 -162 45.5t-59 130.5q0 51 27.5 87.5t78.5 53.5q-46 13 -76 44.5t-30 85.5t36.5 90.5t100.5 36.5q24 0 45.5 -5t37.5 -12q-1 -11 -2.5 -19t-3.5 -19l-3 -15q-11 5 -27.5 8.5t-34.5 3.5
q-42 0 -62.5 -21.5t-20.5 -56.5q0 -22 9 -38.5t24 -28t33.5 -17t36.5 -5.5h78l2 -19q2 -10 2.5 -20t1.5 -20h-71q-49 0 -82 -30.5t-33 -79.5q0 -31 13 -54t34.5 -38t49.5 -22.5t58 -7.5q81 0 119.5 39.5t38.5 115.5v355z" />
    <glyph glyph-name="uni0E23" unicode="&#xe23;" horiz-adv-x="490" 
d="M228 48q73 0 110.5 28t37.5 70q0 25 -13.5 43t-35.5 31.5t-49.5 23.5t-54.5 18q-36 10 -67.5 23t-55 31.5t-37 44.5t-13.5 63q0 68 54 106t148 38q47 0 90.5 -9.5t76.5 -26.5l-17 -51q-29 14 -64.5 22t-77.5 8q-70 0 -106.5 -24.5t-36.5 -62.5q0 -22 11 -38t29 -28
t42 -21t50 -17q39 -13 74 -28.5t62 -36.5t42.5 -48t15.5 -63q0 -70 -51.5 -111.5t-159.5 -41.5q-55 0 -101 10t-78 27l16 52q30 -14 72 -23t87 -9z" />
    <glyph glyph-name="uni0E24" unicode="&#xe24;" horiz-adv-x="603" 
d="M150 88q0 -32 30 -32h51v-56h-70q-37 0 -58.5 22t-21.5 60v151q0 30 16 57.5t45 41.5l-88 74q9 31 30.5 60.5t54 52t73 36t87.5 13.5q55 0 97.5 -16t71 -44.5t43 -68t14.5 -86.5v-555h-68v555q0 77 -40.5 117t-117.5 40q-30 0 -57.5 -7.5t-50 -21t-39.5 -32t-27 -40.5
q18 -17 38.5 -36.5t40.5 -36.5q-54 -27 -54 -92v-156zM210 339l-1 -7q-1 0 -2.5 1.5l-2.5 2.5z" />
    <glyph glyph-name="uni0E25" unicode="&#xe25;" horiz-adv-x="572" 
d="M426 0v279h-147q-79 0 -124.5 -29t-45.5 -95q0 -28 9 -48.5t25 -33.5t36.5 -19.5t44.5 -6.5q21 0 43.5 3.5t39.5 10.5l12 -53q-20 -8 -47 -12.5t-55 -4.5q-37 0 -69 10t-56 30.5t-37.5 51t-13.5 71.5q0 87 61 135t185 48h139v22q0 73 -33.5 113t-115.5 40q-57 0 -106 -17
t-86 -41l-22 48q16 12 39 24t51 21t60.5 15t68.5 6q103 0 158 -55.5t55 -152.5v-360h-69z" />
    <glyph glyph-name="uni0E26" unicode="&#xe26;" horiz-adv-x="609" 
d="M464 353q0 77 -40 117t-116 40q-62 0 -109 -29.5t-65 -72.5q21 -18 45 -39t46 -39q-55 -28 -55 -92v-157q0 -38 -21 -59.5t-59 -21.5h-55v56h37q17 0 23.5 8t6.5 23v141q0 29 15.5 56.5t44.5 41.5q-23 18 -50 38.5t-50 39.5q9 31 31 60.5t54.5 52.5t73 37t87.5 14
q55 0 97.5 -16t70.5 -44.5t42.5 -68t14.5 -86.5v-555h-69v555z" />
    <glyph glyph-name="uni0E27" unicode="&#xe27;" horiz-adv-x="518" 
d="M58 95q35 -20 75 -33t88 -13q82 0 130 55t48 173t-45.5 175.5t-132.5 57.5q-51 0 -91 -13.5t-75 -36.5l-15 55q37 22 85.5 37.5t100.5 15.5q118 0 180 -76t62 -210q0 -143 -64.5 -217t-183.5 -74q-57 0 -99.5 12.5t-78.5 35.5z" />
    <glyph glyph-name="uni0E28" unicode="&#xe28;" horiz-adv-x="617" 
d="M310 568q35 0 66 -8.5t59 -23.5q12 14 26 31t26 31h77l-82 -95q28 -31 43 -68.5t15 -79.5v-355h-68v356q0 68 -40.5 111t-121.5 43t-121 -42.5t-40 -111.5v-130l7 -1q14 31 44 52.5t72 21.5h66v-60h-66q-45 0 -77 -26t-46 -74v-139h-69v355q0 45 15 84t44.5 67.5t72 45
t98.5 16.5z" />
    <glyph glyph-name="uni0E29" unicode="&#xe29;" horiz-adv-x="614" 
d="M302 49q78 0 115 40.5t37 112.5v100h-134v57h134v200h69v-200h83l-15 -57h-68v-100q0 -102 -56 -156.5t-165 -54.5t-165.5 54.5t-56.5 156.5v357h69v-357q0 -72 37.5 -112.5t115.5 -40.5z" />
    <glyph glyph-name="uni0E2A" unicode="&#xe2a;" horiz-adv-x="572" 
d="M426 0v279h-147q-79 0 -124.5 -29t-45.5 -95q0 -28 9 -48.5t25 -33.5t36.5 -19.5t44.5 -6.5q21 0 43.5 3.5t39.5 10.5l12 -53q-20 -8 -47 -12.5t-55 -4.5q-37 0 -69 10t-56 30.5t-37.5 51t-13.5 71.5q0 87 61 135t185 48h139v22q0 69 -33.5 111t-113.5 42q-59 0 -108 -17
t-86 -41l-22 48q17 12 40.5 24t51.5 21t59.5 15t64.5 6q67 0 116 -26q11 14 24 28t25 28h76l-77 -91q52 -57 52 -147v-360h-69z" />
    <glyph glyph-name="uni0E2B" unicode="&#xe2b;" horiz-adv-x="578" 
d="M475 0l-73 254q-28 100 -117 103l-134 -110v-247h-69v559h69v-238q69 57 143 119t143 119h90l-195 -163q57 -9 90 -46t50 -91q18 -65 37.5 -129.5t38.5 -129.5h-73z" />
    <glyph glyph-name="uni0E2C" unicode="&#xe2c;" horiz-adv-x="655" 
d="M577 0h-76l-138 266q-13 24 -21.5 50.5t-11.5 41.5q-5 -13 -13 -35t-25 -57l-134 -266h-76v559h67v-325q0 -42 -1.5 -78t-6.5 -74l8 -2q10 31 19.5 58.5t22.5 52.5l109 209h55l111 -208q14 -25 24.5 -55.5t18.5 -56.5l8 1q-4 38 -5.5 74.5t-1.5 78.5v201q0 55 -19 77
t-68 22h-12l-10 29l129 188h71l-133 -184q55 -6 82 -43t27 -88v-436z" />
    <glyph glyph-name="uni0E2D" unicode="&#xe2d;" horiz-adv-x="586" 
d="M159 257q-16 0 -26 -11t-10 -29v-29q0 -71 39 -105t122 -34q88 0 135.5 54.5t47.5 176.5q0 112 -48.5 171t-136.5 59q-63 0 -113 -17.5t-88 -46.5l-22 50q35 27 93.5 49.5t130.5 22.5q123 0 188 -78t65 -214q0 -140 -63.5 -212.5t-187.5 -72.5q-116 0 -173 51.5
t-57 145.5v32q0 47 25.5 71t70.5 24h86v-58h-78z" />
    <glyph glyph-name="uni0E2E" unicode="&#xe2e;" horiz-adv-x="586" 
d="M159 257q-16 0 -26 -11t-10 -29v-29q0 -71 39 -105t122 -34q88 0 135.5 54.5t47.5 176.5q0 112 -48.5 171t-136.5 59q-63 0 -113 -17.5t-88 -46.5l-22 50q35 27 93.5 49.5t130.5 22.5q65 0 117 -26q11 14 24 28t25 28h76l-75 -89q42 -40 64 -99t22 -134
q0 -140 -63.5 -212.5t-187.5 -72.5q-116 0 -173 51.5t-57 145.5v32q0 47 25.5 71t70.5 24h86v-58h-78z" />
    <glyph glyph-name="uni0E2F" unicode="&#xe2f;" horiz-adv-x="536" 
d="M388 0v425l-7 2q-10 -22 -28 -40t-41.5 -31t-51 -20.5t-56.5 -7.5q-45 0 -76 14.5t-50.5 40.5t-28 62t-8.5 79v35h66v-36q0 -72 26.5 -107.5t85.5 -35.5q33 0 64 14.5t55.5 38t39.5 52.5t15 59v15h64v-559h-69z" />
    <glyph glyph-name="uni0E30" unicode="&#xe30;" horiz-adv-x="296" 
d="M133 374q-39 0 -61.5 17.5t-22.5 57.5v41h64v-33q0 -15 6.5 -21.5t23.5 -6.5h101v-55h-111zM133 90q-39 0 -61.5 16.5t-22.5 57.5v41h64v-33q0 -14 6.5 -20.5t23.5 -6.5h101v-55h-111z" />
    <glyph glyph-name="uni0E31" unicode="&#xe31;" 
d="M-190 646q-45 0 -68.5 20t-23.5 62v35h65v-26q0 -20 8.5 -28.5t28.5 -8.5h237v-54h-247z" />
    <glyph glyph-name="uni0E32" unicode="&#xe32;" horiz-adv-x="467" 
d="M321 0v363q0 75 -32 111t-96 36q-48 0 -89.5 -16.5t-72.5 -39.5l-17 49q14 12 34.5 23.5t44.5 21t51 15t54 5.5q96 0 143.5 -54t47.5 -151v-363h-68z" />
    <glyph glyph-name="uni0E33" unicode="&#xe33;" horiz-adv-x="467" 
d="M-119 629q-19 0 -35.5 7t-29 19.5t-19.5 29.5t-7 37q0 19 7 36t19.5 30t29 20t35.5 7q39 0 66 -27t27 -66q0 -40 -27 -66.5t-66 -26.5zM-119 672q20 0 35 14.5t15 36.5q0 21 -15 35t-35 14q-19 0 -33 -14t-14 -35q0 -22 14 -36.5t33 -14.5zM321 0v363q0 75 -31.5 111
t-95.5 36q-48 0 -90 -16.5t-72 -39.5l-17 49q14 12 34.5 23.5t44.5 21t51 15t54 5.5q95 0 143 -54t48 -151v-363h-69z" />
    <glyph glyph-name="uni0E34" unicode="&#xe34;" 
d="M-502 646v54h422v-54h-422z" />
    <glyph glyph-name="uni0E35" unicode="&#xe35;" 
d="M-502 646v54h357v95h65v-149h-422z" />
    <glyph glyph-name="uni0E36" unicode="&#xe36;" 
d="M-501 646v54h288q-8 16 -8 27q0 35 23 59t58 24t58.5 -24t23.5 -59t-23.5 -58.5t-58.5 -22.5h-361zM-140 687q17 0 28 12t11 29t-11 28.5t-28 11.5q-16 0 -27.5 -11.5t-11.5 -28.5t11.5 -29t27.5 -12z" />
    <glyph glyph-name="uni0E37" unicode="&#xe37;" 
d="M-502 646v54h249v95h55v-97h61v97h57v-149h-422z" />
    <glyph glyph-name="uni0E38" unicode="&#xe38;" 
d="M-148 -257v94q0 26 -26 26h-34v56h54q38 0 55.5 -17.5t17.5 -59.5v-99h-67z" />
    <glyph glyph-name="uni0E39" unicode="&#xe39;" 
d="M-202 -268q-60 0 -90 25.5t-30 73.5v34h-53v55h116v-70q0 -39 12 -55t45 -16q32 0 44.5 16t12.5 55v70h64v-89q0 -48 -30.5 -73.5t-90.5 -25.5z" />
    <glyph glyph-name="uni0E3A" unicode="&#xe3a;" 
d="M-61 -129q0 -22 -16 -38t-42 -16q-23 0 -39.5 16t-16.5 38q0 23 16.5 40t39.5 17q26 0 42 -17t16 -40z" />
    <glyph glyph-name="uni0E3F" unicode="&#xe3f;" horiz-adv-x="566" 
d="M278 0h-198v650h198v101h44v-102q89 -7 135 -51.5t46 -116.5q0 -28 -9.5 -51t-24.5 -40t-33.5 -28.5t-36.5 -17.5v-7q25 -4 48.5 -15t42 -29.5t30 -45t11.5 -61.5q0 -79 -51 -129t-158 -56v-102h-44v101zM278 59v248h-132v-248h132zM278 365v226h-132v-226h132zM466 186
q0 61 -39.5 88t-104.5 32v-246q69 6 106.5 37.5t37.5 88.5zM437 484q0 48 -30.5 74t-84.5 31v-224q50 8 82.5 36.5t32.5 82.5z" />
    <glyph glyph-name="uni0E40" unicode="&#xe40;" horiz-adv-x="236" 
d="M84 0v559h69v-559h-69z" />
    <glyph glyph-name="uni0E41" unicode="&#xe41;" horiz-adv-x="430" 
d="M84 0v559h67v-559h-67zM282 0v559h67v-559h-67z" />
    <glyph glyph-name="uni0E42" unicode="&#xe42;" horiz-adv-x="267" 
d="M110 0v618q0 46 -13.5 80.5t-32.5 58.5t-38 38t-29 19q0 4 -1 7.5t-1 6.5q31 55 92.5 82.5t135.5 27.5q58 0 93.5 -7.5t63.5 -18.5l-12 -57q-28 14 -64.5 20t-73.5 6q-51 0 -93.5 -14t-66.5 -43q54 -30 81.5 -87.5t27.5 -126.5v-610h-69z" />
    <glyph glyph-name="uni0E43" unicode="&#xe43;" horiz-adv-x="267" 
d="M110 0v544q0 46 22 81.5t46 66.5q21 28 38 53.5t17 53.5q0 35 -21 57.5t-69 22.5q-38 0 -77.5 -15.5t-74.5 -50.5q-6 12 -10.5 23.5t-9.5 23.5q25 33 73.5 55.5t103.5 22.5q38 0 67 -11t49 -29.5t30.5 -44t10.5 -54.5q0 -37 -18.5 -66.5t-40.5 -58.5q-25 -33 -46 -68.5
t-21 -80.5v-525h-69z" />
    <glyph glyph-name="uni0E44" unicode="&#xe44;" horiz-adv-x="267" 
d="M111 0v677q0 60 23 109t66 82h-256v56h338v-48q-49 -24 -76 -69.5t-27 -110.5v-696h-68z" />
    <glyph glyph-name="uni0E45" unicode="&#xe45;" horiz-adv-x="467" 
d="M321 -202v565q0 75 -32 111t-96 36q-48 0 -89.5 -16.5t-72.5 -39.5l-17 49q14 12 34.5 23.5t44.5 21t51 15t54 5.5q96 0 143.5 -54t47.5 -151v-565h-68z" />
    <glyph glyph-name="uni0E46" unicode="&#xe46;" horiz-adv-x="556" 
d="M408 -202v620q0 41 -14 65.5t-43 29.5l-84 -60l-86 60q-32 -5 -50.5 -24.5t-18.5 -48.5q0 -35 20 -54t54 -19q14 0 28 3q2 -14 3.5 -25.5t3.5 -24.5q-11 -3 -22 -4t-21 -1q-23 0 -45.5 7t-40 22t-28.5 39t-11 57q0 26 11.5 47.5t30.5 38t43 28t48 16.5l80 -63
q20 14 41.5 30.5t41.5 32.5q62 -7 95 -51t33 -107v-614h-69z" />
    <glyph glyph-name="uni0E47" unicode="&#xe47;" 
d="M-176 646q-23 0 -43 15t-31 41q-8 -26 -29.5 -43t-53.5 -17q-24 0 -43 8t-32.5 21.5t-20.5 31.5t-7 37t7 38t21 33.5t36 23.5t52 9h204v-51h-201q-30 0 -43 -16.5t-13 -37.5t13 -35t38 -14q20 0 32.5 12t17.5 29h40q9 -31 51 -31h65v-54h-60z" />
    <glyph glyph-name="uni0E48" unicode="&#xe48;" 
d="M-145 854v125h64v-125h-64z" />
    <glyph glyph-name="uni0E49" unicode="&#xe49;" 
d="M-160 854q-40 0 -40 47v18q0 11 -3.5 16t-15.5 5h-45v53h78q44 0 44 -51v-17q0 -8 3.5 -13t14.5 -5h131v-53h-167z" />
    <glyph glyph-name="uni0E4A" unicode="&#xe4a;" 
d="M-127 854q-2 4 -1.5 6t-1.5 5q8 11 8 27q0 17 -9.5 26t-21.5 11l-46 -34l-46 32q-11 -1 -18.5 -12t-7.5 -23q0 -10 1 -19t6 -21h-57q-4 12 -5.5 24.5t-1.5 23.5q0 28 19.5 51t58.5 30l52 -45l47 46q35 -3 52.5 -22t17.5 -49v-11t-2 -16q26 12 35 32.5t9 47.5q0 21 -7 40
h59q0 2 0.5 0.5t1.5 -3.5v1q2 -7 4 -16t2 -23q0 -20 -7.5 -39t-21.5 -35t-35.5 -25.5t-48.5 -9.5h-35z" />
    <glyph glyph-name="uni0E4B" unicode="&#xe4b;" 
d="M-85 919q0 -15 1 -32t1 -33h-59l2 65q-17 0 -36.5 -1t-36.5 -1v45l73 -2q0 16 -1 32.5t-1 32.5h59l-2 -65q17 0 36 1t37 1v-45z" />
    <glyph glyph-name="uni0E4C" unicode="&#xe4c;" 
d="M-96 824q-44 0 -44 -41v-17h-67v27q0 39 24 62t70 23h88v-54h-71z" />
    <glyph glyph-name="uni0E4D" unicode="&#xe4d;" 
d="M-118 629q-38 0 -64.5 26.5t-26.5 66.5q0 19 7 36t19.5 30t29 20t35.5 7q39 0 66 -27t27 -66q0 -40 -27 -66.5t-66 -26.5zM-118 672q21 0 35.5 14.5t14.5 36.5q0 21 -14.5 35t-35.5 14q-19 0 -33 -14t-14 -35q0 -22 14 -36.5t33 -14.5z" />
    <glyph glyph-name="uni0E4E" unicode="&#xe4e;" 
d="M-157 656q-11 -6 -23 -8.5t-29 -2.5q-19 0 -36.5 4.5t-31 14.5t-21.5 25t-8 36q0 16 6.5 31t20 25.5t35 15t50.5 1.5q-20 23 -20 42q0 17 16 31t49 14h54q2 -11 5.5 -21t5.5 -21h-50q-14 0 -21 -7.5t-7 -17.5t6.5 -19.5t18.5 -15.5q-4 -8 -7 -14.5t-6 -14.5q-14 3 -26 5
t-27 2q-24 0 -35.5 -9.5t-11.5 -26.5t13 -27.5t38 -10.5q10 0 20.5 1t21.5 4v-36z" />
    <glyph glyph-name="uni0E4F" unicode="&#xe4f;" horiz-adv-x="546" 
d="M275 26q-44 0 -83 16.5t-67.5 45.5t-45 68t-16.5 83t16.5 82.5t45 67t67.5 45t83 16.5t82.5 -16.5t67 -45t45 -67t16.5 -82.5t-16.5 -83t-45 -68t-67 -45.5t-82.5 -16.5zM275 51q39 0 73 14.5t59.5 40t40.5 60t15 73.5t-15 73t-40.5 59.5t-59.5 40.5t-73 15t-73.5 -15
t-60 -40.5t-40.5 -59.5t-15 -73t15 -73.5t40.5 -60t60 -40t73.5 -14.5zM275 120q-25 0 -47 9.5t-38 25.5t-25.5 37.5t-9.5 45.5q0 25 9.5 47t25.5 38t38 25t46 9q25 0 46.5 -9t37.5 -25t25.5 -37.5t9.5 -46.5t-9.5 -47t-25.5 -38t-37.5 -25t-45.5 -9zM275 160
q32 0 54.5 22.5t22.5 56.5q0 15 -6 29t-16.5 24.5t-25 17t-30.5 6.5q-32 0 -55 -23t-23 -55t23 -55t56 -23z" />
    <glyph glyph-name="uni0E50" unicode="&#xe50;" horiz-adv-x="635" 
d="M320 490q55 0 103.5 -17t84.5 -49.5t57 -78.5t21 -104t-21 -104.5t-57 -78.5t-85 -49.5t-104 -17.5t-103.5 17.5t-84.5 49.5t-57 78.5t-21 104.5t21 104t57 78.5t84.5 49.5t104.5 17zM319 47q42 0 78.5 13.5t63.5 38.5t43 61t16 81t-16 81t-43 61t-63.5 38t-78.5 13
q-41 0 -77.5 -13t-63.5 -38t-43 -61t-16 -81t16 -81t43 -61t63.5 -38.5t77.5 -13.5z" />
    <glyph glyph-name="uni0E51" unicode="&#xe51;" horiz-adv-x="640" 
d="M273 -61h29q40 0 79.5 15.5t71 47.5t51.5 79.5t20 112.5q0 54 -14 98t-41 75.5t-66.5 49t-89.5 17.5q-44 0 -81 -14t-63.5 -39t-41.5 -59.5t-15 -74.5q0 -38 11 -67t30.5 -49t46 -30.5t57.5 -10.5q20 0 41.5 4.5t38.5 10.5l2 -25q1 -7 1.5 -13t0.5 -13q-36 -20 -85 -20
q-42 0 -79 13.5t-65.5 40.5t-45 67t-16.5 93t19 97.5t54 76.5t84 50t108 18q65 0 116 -22t86.5 -61t54.5 -93t19 -118q0 -71 -23.5 -128t-63.5 -97.5t-93.5 -62.5t-114.5 -22h-29z" />
    <glyph glyph-name="uni0E52" unicode="&#xe52;" horiz-adv-x="745" 
d="M674 189q0 -42 -12 -76.5t-36 -59.5t-58.5 -39t-79.5 -14h-224q-45 0 -80 14t-58.5 39t-35.5 59.5t-12 76.5v370h67v-370q0 -69 34 -101t90 -32h213q56 0 91 32t35 101v129q0 55 -19 81t-58 30l-84 -67l-91 68q-31 -6 -47.5 -33t-16.5 -56q0 -39 25 -64t59 -36
q-4 -12 -8.5 -24.5t-9.5 -24.5q-58 11 -92 49.5t-34 97.5q0 63 34.5 102.5t91.5 48.5l89 -76l82 76q76 -8 110.5 -52.5t34.5 -122.5v-126z" />
    <glyph glyph-name="uni0E53" unicode="&#xe53;" horiz-adv-x="658" 
d="M306 185v145q0 47 -16 75t-58 28q-29 0 -48.5 -14.5t-32.5 -40.5t-18.5 -61.5t-5.5 -76.5q0 -93 28.5 -143.5t75.5 -50.5q25 0 46 8l15 -45q-27 -15 -64 -15q-38 0 -69 17.5t-52.5 49.5t-33.5 77t-12 101q0 55 10.5 101t30.5 79.5t50.5 52t71.5 18.5q45 0 71.5 -22.5
t40.5 -57.5q17 35 44.5 57.5t71.5 22.5q35 0 60 -12t41.5 -33.5t24.5 -50.5t8 -63v-331h-66v332q0 18 -2 36.5t-9.5 32.5t-21.5 23t-38 9q-44 0 -64 -27.5t-20 -75.5v-145h-59z" />
    <glyph glyph-name="uni0E54" unicode="&#xe54;" horiz-adv-x="605" 
d="M517 0q-47 0 -77 10.5t-56 37.5q-20 -24 -49.5 -40.5t-81.5 -16.5q-43 0 -79.5 17t-63.5 49t-42 77t-15 102q0 60 20 106t55.5 76.5t84 46.5t105.5 16h110q55 0 73.5 19t18.5 49v10h66v-10q0 -60 -37 -92t-110 -32h-120q-44 0 -80.5 -11t-63 -34t-41.5 -58.5t-15 -83.5
q0 -45 12 -80.5t32 -60t47.5 -38t58.5 -13.5q33 0 54 10t38 28q-11 17 -17.5 38.5t-6.5 44.5q0 58 35 90.5t86 32.5h61l-12 -53h-35q-32 0 -51.5 -22t-19.5 -57q0 -51 32 -77.5t93 -26.5h49l-12 -54h-46z" />
    <glyph glyph-name="uni0E55" unicode="&#xe55;" horiz-adv-x="605" 
d="M517 0q-46 0 -77 9.5t-56 37.5q-20 -24 -50 -40t-81 -16q-44 0 -80.5 17t-63.5 49t-42 77t-15 102q0 89 44.5 146.5t116.5 81.5q-15 25 -15 48q0 18 6.5 34t18 28t27.5 19t34 7q37 0 62.5 -25t25.5 -63q0 -7 -2.5 -14.5l-5.5 -16.5h63q55 0 73.5 19t18.5 49v10h66v-10
q0 -60 -37 -92.5t-109 -32.5h-121q-44 0 -80.5 -11t-63 -34t-41.5 -58t-15 -83q0 -45 12 -80.5t32.5 -60.5t47.5 -38.5t58 -13.5q33 0 54.5 10.5t38.5 27.5q-24 34 -24 84q0 58 35 90.5t86 32.5h61l-13 -53h-34q-32 0 -52 -22t-20 -57q0 -52 32 -78t94 -26h49l-12 -54h-46z
M284 469q19 0 31.5 13t12.5 31q0 19 -12.5 32t-31.5 13q-17 0 -29.5 -13t-12.5 -32q0 -18 12.5 -31t29.5 -13z" />
    <glyph glyph-name="uni0E56" unicode="&#xe56;" horiz-adv-x="613" 
d="M158 230q-10 -13 -16 -31.5t-6 -33.5q0 -22 10.5 -43.5t31 -38t51 -26.5t71.5 -10q50 0 87.5 15t62 41t36.5 62.5t12 80.5q0 42 -13 76.5t-36 60t-56.5 39.5t-73.5 14q-65 0 -104.5 -23.5t-66.5 -61.5h-56q-18 55 -37 108.5t-37 108.5h64l54 -165q32 38 80.5 62.5
t107.5 24.5q51 0 95 -18t76.5 -50.5t50.5 -78t18 -99.5q0 -51 -15 -96.5t-47 -80.5t-82 -55.5t-119 -20.5q-54 0 -96 13.5t-71.5 37t-45 56.5t-15.5 72q0 29 11 54.5t26 40.5z" />
    <glyph glyph-name="uni0E57" unicode="&#xe57;" horiz-adv-x="801" 
d="M286 304v48q0 34 -12 57.5t-47 23.5q-27 0 -46 -14.5t-31 -40.5t-18 -61.5t-6 -76.5q0 -93 30 -143.5t74 -50.5q28 0 47 8l13 -44q-26 -16 -63 -16q-38 0 -69 17.5t-52.5 49.5t-33.5 77t-12 101q0 55 11 101t31.5 79.5t50.5 52t68 18.5q40 0 61 -21t32 -57q16 36 43.5 57
t68.5 21q27 0 48 -12t35 -33.5t21 -50.5t7 -63v-280h29q43 0 69.5 27.5t26.5 83.5v397h66v-386q0 -78 -40.5 -125.5t-122.5 -47.5h-93v332q0 18 -1.5 36.5t-8 32.5t-19 23t-33.5 9q-32 0 -49.5 -23t-17.5 -58v-48h-57z" />
    <glyph glyph-name="uni0E58" unicode="&#xe58;" horiz-adv-x="632" 
d="M297 424q-79 0 -118.5 -41.5t-39.5 -107.5v-120q0 -42 25 -70.5t63 -29.5l110 108l119 -107q37 11 57 40t20 68q0 42 -23 69t-58 34q6 13 11 24.5t10 24.5q26 -4 48.5 -18.5t39 -35.5t26 -47t9.5 -54q0 -33 -13 -62t-34 -51t-48 -36t-54 -16l-110 102l-97 -102
q-74 3 -120.5 43t-46.5 114v128q0 41 15 77.5t43.5 63.5t68.5 43t90 16h128q55 0 73.5 19t18.5 49v10h66v-10q0 -60 -37 -92.5t-110 -32.5h-132z" />
    <glyph glyph-name="uni0E59" unicode="&#xe59;" horiz-adv-x="616" 
d="M447 0l-119 341q-14 41 -35.5 66.5t-61.5 25.5q-27 0 -49 -14t-37 -39.5t-23.5 -60.5t-8.5 -77q0 -46 9.5 -83t25.5 -62.5t36.5 -39.5t42.5 -14q12 0 27 3.5t29 11.5l15 -45q-16 -10 -34.5 -15.5t-39.5 -5.5q-36 0 -68 16.5t-56 48.5t-38 78.5t-14 105.5q0 55 13.5 100.5
t37 78.5t56.5 51.5t72 18.5q27 0 47.5 -6.5t35.5 -17t25.5 -24.5t19.5 -30l7 2q0 38 21.5 57t51.5 19q33 0 54.5 -20t34.5 -51l25 140h57q-9 -50 -18.5 -97.5t-18.5 -97.5h-48q-8 32 -25.5 53.5t-44.5 21.5q-31 0 -47 -24.5t-16 -56.5l122 -358h-63z" />
    <glyph glyph-name="uni0E5B" unicode="&#xe5b;" horiz-adv-x="1135" 
d="M1118 191q-24 -8 -43 -10.5t-36 -2.5q-44 0 -77 29t-56 80l-47 -163h-28l-73 203l-65 -221h-30l-67 202q-15 -53 -42.5 -100t-65 -81.5t-84 -54.5t-98.5 -20q-53 0 -97.5 18t-77 49.5t-50.5 74.5t-18 93q0 48 14.5 88.5t42 70t66 46t86.5 16.5q39 0 71 -15t55.5 -40
t37 -57.5t15.5 -66.5h-53q-5 55 -38 92t-90 37q-36 0 -64 -14.5t-47 -38.5t-29 -54.5t-10 -63.5q0 -40 14.5 -73.5t39.5 -57.5t59 -37.5t73 -13.5q65 0 112.5 32t79 80.5t48 106.5t20.5 110h34l79 -235l60 214h35l68 -202l55 180h25q12 -78 43 -123.5t83 -45.5q13 0 27 2.5
t28 6.5z" />
    <glyph glyph-name="endash" unicode="&#x2013;" horiz-adv-x="512" 
d="M480 277v-45h-445v45h445z" />
    <glyph glyph-name="emdash" unicode="&#x2014;" horiz-adv-x="989" 
d="M921 277v-45h-847v45h847z" />
    <glyph glyph-name="quoteleft" unicode="&#x2018;" horiz-adv-x="208" 
d="M143 680q-8 -14 -14 -30.5t-10.5 -33t-7 -31t-2.5 -24.5q0 -20 14 -20q34 0 34 -40q0 -20 -11.5 -31.5t-33.5 -11.5q-23 0 -35.5 14t-12.5 40q0 18 5 41t13 46.5t18.5 45.5t21.5 39z" />
    <glyph glyph-name="quoteright" unicode="&#x2019;" horiz-adv-x="207" 
d="M64 463q14 29 25 63t11 55t-15 21q-33 0 -33 41q0 19 11 31t34 12q22 0 34.5 -14t12.5 -41v-4q-1 -18 -6 -40.5t-13 -46t-18 -45t-21 -37.5l-14 4zM59 465l5 -2l-2 -4z" />
    <glyph glyph-name="quotesinglbase" unicode="&#x201a;" horiz-adv-x="207" 
d="M64 -113q7 14 13.5 30t11.5 31.5t8 30t3 24.5q0 21 -15 21q-33 0 -33 41q0 20 11 31t34 11q22 0 34.5 -13.5t12.5 -39.5v-5q-1 -18 -6 -41t-13 -45.5t-18 -44t-21 -36.5zM59 -112l5 -1q-1 -1 -1 -2t-1 -3z" />
    <glyph glyph-name="quotedblleft" unicode="&#x201c;" horiz-adv-x="363" 
d="M300 679q-8 -14 -14 -30.5t-11 -33t-7.5 -31t-2.5 -24.5q0 -20 15 -20q34 0 34 -40q0 -20 -12 -31.5t-34 -11.5q-46 0 -46 54q0 19 5 42t13 47t18 46t21 38zM143 679q-8 -14 -14.5 -30.5t-11 -33t-7 -31t-2.5 -24.5q0 -20 14 -20q34 0 34 -40q0 -20 -11 -31.5t-34 -11.5
q-22 0 -34.5 14t-12.5 40q0 19 5 42t13 47t18 46t21 38z" />
    <glyph glyph-name="quotedblright" unicode="&#x201d;" horiz-adv-x="363" 
d="M64 463q14 29 24.5 63t10.5 55t-14 21q-33 0 -33 41q0 19 11 31t33 12t35 -14t13 -41v-4q-1 -18 -6 -40.5t-13 -46t-18.5 -45t-20.5 -37.5l-14 4zM59 465l5 -2l-2 -4zM221 463q7 15 14 31.5t11.5 33t7.5 31t3 25.5q0 18 -15 18q-34 0 -34 41q0 19 12.5 31t33.5 12
q22 0 35 -14t13 -41q0 -18 -5 -41t-13 -46.5t-18.5 -46t-21.5 -39.5zM216 465l5 -2l-2 -4z" />
    <glyph glyph-name="quotedblbase" unicode="&#x201e;" horiz-adv-x="363" 
d="M64 -113q7 14 13.5 30t11 31.5t7.5 30t3 24.5q0 21 -14 21q-33 0 -33 41q0 20 11 31t33 11t35 -13.5t13 -39.5v-5q-1 -18 -6 -41t-13 -45.5t-18.5 -44t-20.5 -36.5zM59 -112l5 -1q-1 -1 -1 -2t-1 -3zM221 -113q15 29 25.5 63.5t10.5 54.5q0 19 -15 19q-34 0 -34 41
q0 20 12 31t34 11t35 -13.5t13 -39.5q0 -19 -5 -42t-13 -47t-18.5 -45.5t-21.5 -37.5zM216 -112l5 -1q-1 -1 -1 -2t-1 -3z" />
    <glyph glyph-name="dagger" unicode="&#x2020;" horiz-adv-x="538" 
d="M303 674v-196h173v-51h-173v-427h-65v427h-173v51h173v196h65z" />
    <glyph glyph-name="daggerdbl" unicode="&#x2021;" horiz-adv-x="538" 
d="M238 -51v197h-173v50h173v231h-173v51h173v196h65v-196h173v-51h-173v-231h173v-50h-173v-197h-65z" />
    <glyph glyph-name="bullet" unicode="&#x2022;" horiz-adv-x="306" 
d="M252 346q0 -40 -24.5 -69t-74.5 -29q-48 0 -72.5 28t-24.5 68q0 41 24.5 69t73.5 28t73.5 -28t24.5 -67z" />
    <glyph glyph-name="ellipsis" unicode="&#x2026;" horiz-adv-x="708" 
d="M65 43q0 21 13 36t39 15t39.5 -15t13.5 -36q0 -23 -13.5 -37.5t-39.5 -14.5t-39 14.5t-13 37.5zM303 43q0 21 13.5 36t39.5 15t39.5 -15t13.5 -36q0 -23 -13.5 -37.5t-39.5 -14.5t-39.5 14.5t-13.5 37.5zM542 43q0 21 13.5 36t39.5 15q25 0 39 -15t14 -36
q0 -23 -14 -37.5t-39 -14.5q-26 0 -39.5 14.5t-13.5 37.5z" />
    <glyph glyph-name="perthousand" unicode="&#x2030;" horiz-adv-x="1117" 
d="M540 660h56l-367 -660h-55zM99 486q0 -26 4.5 -49.5t15 -42t26 -29.5t38.5 -11t39 11t26.5 29.5t15 42t4.5 48.5t-4.5 49t-15 42.5t-26.5 29.5t-39 11t-38.5 -11.5t-26 -30t-15 -42t-4.5 -47.5zM45 486q0 34 9 65.5t27 55.5t43.5 38t58.5 14t59 -14t43 -38t26 -55.5
t9 -65.5q0 -35 -9 -66t-26 -55t-43 -38t-59 -14t-58.5 14t-43.5 38t-27 55t-9 66zM503 164q0 -26 4.5 -49.5t15 -42t26 -29.5t38.5 -11q22 0 38.5 11t26.5 29.5t15 42t5 48.5t-5 49t-15 42.5t-26.5 29.5t-38.5 11q-23 0 -38.5 -11t-26 -29.5t-15 -42t-4.5 -48.5zM449 164
q0 34 9 65.5t27 55.5t43.5 38t58.5 14t59 -14t43.5 -38t26.5 -55.5t9 -65.5q0 -35 -9 -66t-26.5 -55t-43.5 -38t-59 -14t-58.5 14t-43.5 38t-27 55t-9 66zM856 164q0 -26 4.5 -49.5t15 -42t26.5 -29.5t39 -11q22 0 38.5 11t26.5 29.5t15 42t5 48.5t-5 49t-15 42.5
t-26.5 29.5t-38.5 11q-23 0 -39 -11t-26.5 -29.5t-15 -42t-4.5 -48.5zM803 164q0 34 9 65.5t26.5 55.5t43.5 38t59 14t58.5 -14t43 -38t26.5 -55.5t9 -65.5q0 -35 -9 -66t-26.5 -55t-43 -38t-58.5 -14t-59 14t-43.5 38t-26.5 55t-9 66z" />
    <glyph glyph-name="guilsinglleft" unicode="&#x2039;" horiz-adv-x="273" 
d="M98 241l128 -178h-54q-33 45 -64 89t-63 89q32 45 63.5 88.5t63.5 88.5h53z" />
    <glyph glyph-name="guilsinglright" unicode="&#x203a;" horiz-adv-x="272" 
d="M48 418h52l130 -177q-33 -46 -65 -89.5t-65 -88.5h-52l127 178z" />
    <glyph glyph-name="fraction" unicode="&#x2044;" horiz-adv-x="429" 
d="M363 660h56l-367 -660h-54z" />
    <glyph glyph-name="Euro" unicode="&#x20ac;" horiz-adv-x="565" 
d="M49 246l12 37h67q-2 13 -2 26.5v27.5q0 8 0.5 19t1.5 21l-79 3q3 11 6 19.5t6 18.5h72q9 57 30 105.5t53.5 84t75 55.5t94.5 20q48 0 78 -13.5t56 -36.5l-8 -25l-9 -29q-22 20 -49.5 31t-62.5 11q-79 0 -127 -55t-64 -148h229l-5 -16q-2 -5 -3.5 -10.5t-3.5 -11.5h-221
q-1 -10 -1 -21.5v-21.5v-28t2 -26h231q-2 -4 -3.5 -9.5t-2.5 -9.5l-5 -18h-214q18 -91 68.5 -142.5t124.5 -51.5q35 0 63.5 11t51.5 31l9 -27t9 -28q-26 -23 -57.5 -35.5t-80.5 -12.5q-51 0 -93.5 18.5t-75.5 52.5t-56 81t-33 103h-84zM44 246h5l-1 -5z" />
    <glyph glyph-name="afii61289" unicode="&#x2113;" horiz-adv-x="394" 
d="M188 152q0 -57 14.5 -80t53.5 -23q26 0 50 8l16 -50q-14 -7 -31 -11t-37 -4q-75 0 -104.5 39t-29.5 122v46q-20 -15 -35.5 -25t-30.5 -19q-4 -4 -8 -6.5t-9 -5.5q-6 9 -11 17l-10 16q27 16 54 34.5t50 39.5v228q0 112 34 167t94 55q51 0 82.5 -37.5t31.5 -113.5
q0 -94 -43.5 -171.5t-130.5 -141.5v-84zM188 294q62 54 86 117t24 138q0 57 -13 80.5t-36 23.5q-16 0 -27.5 -8.5t-19 -29t-11 -54t-3.5 -83.5v-184z" />
    <glyph glyph-name="trademark" unicode="&#x2122;" horiz-adv-x="774" 
d="M182 636v-337h-46v337q-26 0 -56.5 -0.5t-57.5 -0.5v39h276v-39zM552 400q4 16 9.5 29.5t11.5 24.5q1 3 3 7t3 8v-1l90 206h57v-375h-45v228q0 10 0.5 23t1.5 24q1 5 1.5 12t0.5 12l-7 1l-14 -31l-14 -34v1l-76 -173h-51l-77 173q-9 20 -14.5 36.5t-8.5 27.5l-8 -1
q-1 -15 0 -34.5t1 -36.5v-228h-46v375h58l90 -206v1l6 -15q5 -11 10 -24t9 -27z" />
    <glyph glyph-name="Omega" unicode="&#x2126;" horiz-adv-x="745" 
d="M376 620q-109 0 -172.5 -65.5t-63.5 -186.5q0 -56 18 -106t45 -91t57.5 -73t56.5 -52v-46h-207v59h134q-24 22 -54 53.5t-56 72.5t-43.5 91t-17.5 108q0 68 21 123.5t60 94.5t94.5 60t125.5 21t126 -21t95.5 -60t60.5 -94.5t21 -123.5q0 -58 -17.5 -108t-44 -91
t-56.5 -72.5t-54 -53.5h133v-59h-206v46q25 20 56 52t57.5 73t44.5 91t18 106q0 121 -62.5 186.5t-169.5 65.5z" />
    <glyph glyph-name="estimated" unicode="&#x212e;" horiz-adv-x="818" 
d="M785 313h-617v-192q9 -11 32 -30.5t55.5 -38t72.5 -32.5t82 -14q43 0 82.5 12t71 29t54.5 37t35 35h62q-57 -67 -136.5 -99.5t-167.5 -32.5q-77 0 -145 24.5t-118.5 69t-80 106t-29.5 136.5q0 73 29.5 135t80 106.5t118.5 69.5t145 25t145 -24.5t119 -68.5t80.5 -104
t29.5 -131v-18zM655 522q-12 16 -35 36.5t-55 38.5t-71.5 30t-83.5 12q-42 0 -82 -14t-72.5 -33t-55.5 -38.5t-32 -30.5v-190h487v189z" />
    <glyph glyph-name="partialdiff" unicode="&#x2202;" horiz-adv-x="593" 
d="M300 370q-45 0 -80 -18.5t-59 -48.5t-36.5 -68.5t-12.5 -77.5q0 -54 28.5 -82.5t81.5 -28.5q35 0 70 17t65 48t54.5 75t38.5 99q-21 33 -58 59t-92 26zM342 604q-37 0 -67 -7.5t-57 -21.5l-8 49q26 16 64.5 25.5t76.5 9.5q96 0 146.5 -54.5t50.5 -153.5q0 -45 -9.5 -96.5
t-28.5 -102.5t-46.5 -98t-64 -83.5t-81 -58t-97.5 -21.5q-92 0 -135 45t-43 120q0 50 19 98.5t52.5 86.5t80.5 61.5t104 23.5q33 0 60 -8.5t47 -22t35 -29.5t24 -31q15 66 15 117q0 74 -35.5 113t-102.5 39z" />
    <glyph glyph-name="Delta" unicode="&#x2206;" horiz-adv-x="622" 
d="M312 566l-193 -513h385zM588 0h-551l263 674h24z" />
    <glyph glyph-name="product" unicode="&#x220f;" horiz-adv-x="607" 
d="M93 674h424v-723h-69v660h-286v-660h-69v723z" />
    <glyph glyph-name="summation" unicode="&#x2211;" horiz-adv-x="542" 
d="M43 -50v31l262 335q-23 31 -55 73.5t-66 88t-66.5 88.5t-55.5 74v34h418v-50h-337q57 -76 115 -153.5t115 -153.5l-247 -317h374v-50h-457z" />
    <glyph glyph-name="minus" unicode="&#x2212;" horiz-adv-x="566" 
d="M491 310v-54h-413v54h413z" />
    <glyph glyph-name="radical" unicode="&#x221a;" horiz-adv-x="519" 
d="M23 360v51h122l105 -360l177 623h59l-198 -686h-71l-112 372h-82z" />
    <glyph glyph-name="infinity" unicode="&#x221e;" horiz-adv-x="761" 
d="M357 311q-29 44 -67 70t-80 26q-49 0 -74 -29t-25 -68q0 -46 28.5 -74t72.5 -28t81.5 29.5t63.5 69.5v4zM653 310q0 39 -24 68t-76 29q-45 0 -79 -26t-67 -72q29 -47 66.5 -74t80.5 -27q25 0 44 8.5t31 22.5t18 32.5t6 38.5zM708 311q0 -31 -10.5 -57.5t-30 -46
t-47 -30.5t-61.5 -11q-55 0 -100 30t-75 75q-35 -42 -78.5 -73.5t-99.5 -31.5q-65 0 -107 38.5t-42 104.5q0 31 11 57t31 45t47.5 29t60.5 10q29 0 54.5 -8.5t47 -22.5t39.5 -32.5t33 -39.5q13 16 30.5 34.5t39.5 33.5t48.5 25t57.5 10q32 0 59.5 -10t48 -28.5t32 -44
t11.5 -56.5z" />
    <glyph glyph-name="integral" unicode="&#x222b;" horiz-adv-x="425" 
d="M247 126q0 -44 -6.5 -77.5t-21.5 -56.5t-40.5 -34.5t-63.5 -11.5q-21 0 -38 4t-31 12q4 12 8.5 25t8.5 24q24 -8 49 -8q42 0 55 26t13 83v390q0 44 6 78t21 57t40.5 34.5t63.5 11.5q20 0 38 -4.5t31 -10.5q-5 -14 -8 -26t-7 -25q-22 8 -51 8q-41 0 -54 -26.5t-13 -82.5
v-390z" />
    <glyph glyph-name="approxequal" unicode="&#x2248;" horiz-adv-x="566" 
d="M512 403q-19 -36 -52.5 -64t-76.5 -28q-40 0 -66 14t-47 29q-20 13 -38 24t-41 11q-38 0 -61 -20t-41 -46l-31 33q9 16 22 32t29.5 29t36.5 21t43 8q37 0 63.5 -13.5t47.5 -28.5q19 -13 37.5 -24t43.5 -11q36 0 59.5 19.5t40.5 45.5zM512 218q-19 -36 -52.5 -64
t-76.5 -28q-40 0 -66 14.5t-47 29.5q-20 13 -38 23.5t-41 10.5q-40 0 -62.5 -19.5t-39.5 -45.5l-31 33q9 16 22 32t29.5 29t36.5 21t43 8q37 0 63.5 -13.5t47.5 -28.5q19 -14 37.5 -24.5t43.5 -10.5q36 0 59.5 19.5t40.5 45.5z" />
    <glyph glyph-name="notequal" unicode="&#x2260;" horiz-adv-x="566" 
d="M356 405h124v-54h-146l-53 -132h199v-54h-221l-64 -165h-50l66 165h-130v54h151l53 132h-204v54h225l69 172h49z" />
    <glyph glyph-name="lessequal" unicode="&#x2264;" horiz-adv-x="566" 
d="M68 346q105 58 209 114.5t209 114.5v-61l-355 -189q88 -47 177.5 -95.5t177.5 -94.5v-62l-418 230v43zM486 43v-43h-418v43h418z" />
    <glyph glyph-name="greaterequal" unicode="&#x2265;" horiz-adv-x="566" 
d="M501 43v-43h-418v43h418zM501 303q-104 -58 -208.5 -114.5t-209.5 -114.5v61l355 190l-355 189v62l418 -230v-43z" />
    <glyph glyph-name="lozenge" unicode="&#x25ca;" horiz-adv-x="583" 
d="M477 342l-184 274l-186 -274l186 -275zM543 342l-230 -342h-42l-228 341l229 343h41z" />
    <glyph glyph-name="uni0E10.alt1" unicode="&#xf700;" horiz-adv-x="538" 
d="M184 0l-56 231q-6 26 -31 26h-35v58h41q38 0 59.5 -15t29.5 -56l43 -186h17q32 0 62 15.5t53.5 46.5t37.5 76t14 104q0 106 -46.5 158t-136.5 52q-58 0 -106.5 -19t-86.5 -49l-21 52q39 31 95 52.5t118 21.5q76 0 133 -33l54 63h76l-83 -98q36 -38 54.5 -89t18.5 -112
q0 -66 -18 -121t-50 -94.5t-77 -61.5t-99 -22h-60z" />
    <glyph glyph-name="uni0E34.alt1" unicode="&#xf701;" 
d="M-582 646v54h372v-54h-372z" />
    <glyph glyph-name="uni0E35.alt1" unicode="&#xf702;" 
d="M-582 646v54h307v95h65v-149h-372z" />
    <glyph glyph-name="uni0E36.alt1" unicode="&#xf703;" 
d="M-582 646v54h236q-8 16 -8 27q0 35 23.5 59t57.5 24q35 0 58 -24t23 -59t-23 -58t-58 -23h-309zM-273 687q17 0 28.5 12t11.5 29t-11.5 28.5t-28.5 11.5q-16 0 -27.5 -11.5t-11.5 -28.5t11.5 -29t27.5 -12z" />
    <glyph glyph-name="uni0E37.alt1" unicode="&#xf704;" 
d="M-582 646v54h198v95h56v-97h61v97h57v-149h-372z" />
    <glyph glyph-name="uni0E48.alt1" unicode="&#xf705;" 
d="M-344 646v156h67v-156h-67z" />
    <glyph glyph-name="uni0E49.alt1" unicode="&#xf706;" 
d="M-353 646q-24 0 -33.5 14t-9.5 37v20q0 14 -4.5 19.5t-18.5 5.5h-49v54h75q30 0 43 -13.5t13 -42.5v-20q0 -8 4 -14t17 -6h132v-54h-169z" />
    <glyph glyph-name="uni0E4A.alt1" unicode="&#xf707;" 
d="M-345 646q-2 4 -1.5 6t-1.5 5q9 13 9 31q0 37 -35 42l-17 -15l-28 -22l-42 36q-17 -2 -27 -14.5t-10 -26.5q0 -12 0.5 -21.5t5.5 -22.5h-58q-4 12 -6 26.5t-2 25.5q0 30 21.5 56t64.5 33l52 -50l53 51q35 -4 55 -25t20 -56q0 -7 -1 -14.5t-2 -14.5q29 14 38 37t9 49
q0 15 -2.5 28t-5.5 22h65q3 -10 5.5 -21.5t2.5 -26.5q0 -22 -8 -43.5t-23.5 -38t-37.5 -26.5t-50 -10h-43z" />
    <glyph glyph-name="uni0E4B.alt1" unicode="&#xf708;" 
d="M-291 724l3 -78h-63l3 78q-20 0 -42 -1t-42 -1v48l84 -2l-3 78h63l-3 -78q20 0 43.5 1t43.5 1v-48z" />
    <glyph glyph-name="uni0E4C.alt1" unicode="&#xf709;" 
d="M-286 708q-26 0 -38 -10.5t-12 -34.5v-19h-73v30q0 43 25 67.5t76 24.5h97v-58h-75z" />
    <glyph glyph-name="uni0E48.alt2" unicode="&#xf70a;" 
d="M-148 646v156h67v-156h-67z" />
    <glyph glyph-name="uni0E49.alt2" unicode="&#xf70b;" 
d="M-185 646q-24 0 -33.5 14t-9.5 37v20q0 14 -4.5 19.5t-18.5 5.5h-49v54h75q26 0 41 -11t15 -36v-29q0 -8 4 -14t17 -6h137v-54h-174z" />
    <glyph glyph-name="uni0E4A.alt2" unicode="&#xf70c;" 
d="M-159 646l-5 11q9 13 9 31q0 37 -34 42q-11 -10 -24.5 -19t-25.5 -18l-46 36q-17 -2 -26.5 -14.5t-9.5 -26.5q0 -12 0.5 -21.5t5.5 -22.5h-58q-4 12 -6 26.5t-2 25.5q0 30 21.5 56t64.5 33l56 -50q12 12 27.5 25.5t28.5 25.5q35 -4 55.5 -25t20.5 -56q0 -3 -1 -11.5
t-3 -17.5q28 14 41.5 37t13.5 49q0 15 -2.5 28t-5.5 22h64q3 -10 5.5 -21.5t2.5 -26.5q0 -22 -8.5 -43.5t-25 -38t-40 -26.5t-52.5 -10h-41z" />
    <glyph glyph-name="uni0E4B.alt2" unicode="&#xf70d;" 
d="M-88 724l4 -78h-64l3 78q-19 0 -41.5 -1t-42.5 -1v48l84 -2l-3 78h64l-4 -78q20 0 42.5 1t43.5 1v-48z" />
    <glyph glyph-name="uni0E4C.alt2" unicode="&#xf70e;" 
d="M-103 708q-26 0 -38.5 -10.5t-12.5 -34.5v-19h-73v30q0 43 25 67.5t76 24.5h99v-58h-76z" />
    <glyph glyph-name="uni0E0D.alt1" unicode="&#xf70f;" horiz-adv-x="919" 
d="M845 185q0 -101 -56.5 -147.5t-149.5 -46.5q-47 0 -85.5 11.5t-66 35t-42.5 60t-15 87.5v168q0 77 -35.5 117t-107.5 40q-27 0 -52 -7.5t-46.5 -21t-38 -32t-26.5 -40.5q18 -17 38.5 -36.5t40.5 -36.5q-54 -27 -54 -92v-156q0 -32 30 -32h51v-56h-70q-37 0 -58.5 22
t-21.5 60v151q0 30 16 57.5t45 41.5l-88 74q9 31 30 60.5t51.5 52t69.5 36t83 13.5q53 0 93 -16t66.5 -44.5t39.5 -68t13 -86.5v-168q0 -136 139 -136q72 0 105.5 34t33.5 102v374h68v-374zM209 339l-1 -7q-1 0 -2.5 1.5l-2.5 2.5z" />
    <glyph glyph-name="uni0E31.alt1" unicode="&#xf710;" 
d="M-333 646q-92 0 -92 82v35h64v-26q0 -20 8.5 -28.5t28.5 -8.5h217v-54h-226z" />
    <glyph glyph-name="uni0E4D.alt1" unicode="&#xf711;" 
d="M-319 629q-38 0 -64.5 26.5t-26.5 66.5q0 19 7 36t19.5 30t29 20t35.5 7q39 0 66 -27t27 -66q0 -40 -27 -66.5t-66 -26.5zM-319 672q20 0 35 14.5t15 36.5q0 21 -15 35t-35 14q-19 0 -33 -14t-14 -35q0 -22 14 -36.5t33 -14.5z" />
    <glyph glyph-name="uni0E47.alt1" unicode="&#xf712;" 
d="M-273 646q-23 0 -43 15t-31 41q-8 -26 -29.5 -43t-53.5 -17q-24 0 -43 8t-32 21.5t-20 31.5t-7 37t6.5 38t21 33.5t36 23.5t51.5 9h205v-51h-202q-29 0 -42 -16.5t-13 -37.5t13 -35t37 -14q20 0 33 12t18 29h39q9 -31 52 -31h65v-54h-61z" />
    <glyph glyph-name="uni0E48.alt3" unicode="&#xf713;" 
d="M-274 854v125h64v-125h-64z" />
    <glyph glyph-name="uni0E49.alt3" unicode="&#xf714;" 
d="M-299 854q-40 0 -40 47v18q0 11 -3.5 16t-15.5 5h-45v53h78q44 0 44 -51v-17q0 -8 3.5 -13t14.5 -5h131v-53h-167z" />
    <glyph glyph-name="uni0E4A.alt3" unicode="&#xf715;" 
d="M-256 854q-2 4 -1.5 6t-1.5 5q8 11 8 27q0 17 -9.5 26t-21.5 11l-46 -34l-46 32q-11 -1 -18.5 -12t-7.5 -23q0 -10 1 -19t6 -21h-57q-4 12 -5.5 24.5t-1.5 23.5q0 28 19.5 51t58.5 30l52 -45l47 46q35 -3 52.5 -22t17.5 -49v-11t-2 -16q26 12 35 32.5t9 47.5q0 21 -7 40
h59q0 2 0.5 0.5t1.5 -3.5v1q2 -7 4 -16t2 -23q0 -20 -7.5 -39t-21.5 -35t-35.5 -25.5t-48.5 -9.5h-35z" />
    <glyph glyph-name="uni0E4B.alt3" unicode="&#xf716;" 
d="M-215 919q0 -15 1 -32t1 -33h-59l2 65q-17 0 -36.5 -1t-36.5 -1v45l73 -2q0 16 -1 32.5t-1 32.5h59l-2 -65q17 0 36 1t37 1v-45z" />
    <glyph glyph-name="uni0E4C.alt3" unicode="&#xf717;" 
d="M-225 824q-44 0 -44 -41v-17h-67v27q0 39 24 62t70 23h88v-54h-71z" />
    <glyph glyph-name="uni0E38.alt1" unicode="&#xf718;" 
d="M-148 -412v84q0 27 -26 27h-34v56h54q38 0 55.5 -17.5t17.5 -59.5v-90h-67z" />
    <glyph glyph-name="uni0E39.alt1" unicode="&#xf719;" 
d="M-202 -422q-60 0 -90 25.5t-30 73.5v24h-53v54h116v-62q0 -37 12.5 -52t44.5 -15q31 0 44 15t13 52v62h64v-78q0 -48 -30.5 -73.5t-90.5 -25.5z" />
    <glyph glyph-name="uni0E3A.alt1" unicode="&#xf71a;" 
d="M-63 -295q0 -23 -16 -39.5t-42 -16.5q-23 0 -39.5 16.5t-16.5 39.5t16.5 39t39.5 16q26 0 42 -16t16 -39z" />
    <glyph glyph-name="uni0E0E.alt1" unicode="&#xf71b;" horiz-adv-x="609" 
d="M464 353q0 77 -40 117t-116 40q-62 0 -109 -29.5t-65 -72.5q21 -18 45 -39t46 -39q-55 -28 -55 -92v-157q0 -38 -21 -59.5t-59 -21.5h-55v56h37q17 0 23.5 8t6.5 23v141q0 29 15.5 56.5t44.5 41.5q-23 18 -50 38.5t-50 39.5q9 31 31 60.5t54.5 52.5t73 37t87.5 14
q55 0 97.5 -16t70.5 -44.5t42.5 -68t14.5 -86.5v-535h-88q-27 23 -62.5 40.5t-80.5 17.5q-49 0 -83 -14t-66 -39l-9 26l-8 25q27 25 67 42t91 17q48 0 94.5 -22.5t75.5 -53.5v496z" />
    <glyph glyph-name="uni0E0F.alt1" unicode="&#xf71c;" horiz-adv-x="609" 
d="M533 -182h-70l-127 77q-16 -38 -50.5 -60.5t-71.5 -22.5t-68.5 8.5t-51.5 20.5q5 14 9 29t9 29q21 -14 47.5 -24t49.5 -10q42 0 73 28.5t42 71.5l140 -84v472q0 77 -40 117t-116 40q-62 0 -109 -29.5t-65 -72.5l74 -60l17 -17q-55 -27 -55 -93v-157q0 -38 -21 -59.5
t-59 -21.5h-55v56h37q17 0 23.5 8t6.5 23v141q0 29 15.5 56.5t43.5 41.5l-37 29q-14 11 -31 24.5t-31 24.5q9 31 31 60.5t54.5 52.5t73 37t87.5 14q55 0 97.5 -16t70.5 -44.5t42.5 -68t14.5 -86.5v-535z" />
    <glyph glyph-name="uni0E2C.alt1" unicode="&#xf71d;" horiz-adv-x="655" 
d="M510 346q0 45 -20 66.5t-53 21.5h-17l-5 15q-1 3 -2.5 6t-2.5 6l72 93l34 44h74q-28 -33 -55.5 -66t-56.5 -66q48 -6 73.5 -38.5t25.5 -80.5v-347h-76l-138 266q-13 24 -21.5 50.5t-11.5 41.5q-5 -13 -13 -35t-25 -57l-134 -266h-76v559h67v-325q0 -42 -1.5 -78t-6.5 -74
l8 -2q10 31 19.5 58.5t22.5 52.5l109 209h55l112 -208q14 -25 24 -55.5t18 -56.5l8 1q-4 38 -5.5 74.5t-1.5 78.5v112z" />
    <glyph glyph-name="uni0E33.alt1" horiz-adv-x="467" 
d="M-322 632q-19 0 -36 7t-29.5 19.5t-19.5 29.5t-7 37t7 37t19.5 30t29.5 20t36 7q39 0 66 -27t27 -67t-27 -66.5t-66 -26.5zM-322 675q20 0 35 15t15 36t-15 35.5t-35 14.5t-34 -14.5t-14 -35.5t14 -36t34 -15zM323 0v365q0 76 -31.5 111.5t-96.5 35.5q-48 0 -90 -16
t-72 -39l-18 48q15 12 35.5 24t44.5 21t51 14.5t54 5.5q97 0 145 -54t48 -151v-365h-70z" />
    <glyph glyph-name="uni0E4E.alt1" 
d="M-258 659q-11 -6 -23 -8.5t-30 -2.5t-35.5 4.5t-31 14.5t-22 25t-8.5 36q0 35 27 57.5t88 16.5q-12 12 -17 22.5t-5 19.5q0 17 16 31.5t50 14.5h54q3 -11 5 -21.5t4 -21.5h-49q-14 0 -20.5 -7.5t-6.5 -17.5q0 -19 23 -34q-2 -8 -5.5 -15t-6.5 -15q-13 3 -25.5 5t-28.5 2
q-23 0 -34.5 -10t-11.5 -27t13 -27.5t37 -10.5q11 0 21.5 1t21.5 5v-37z" />
    </font>
</defs>
</svg>
