<?xml version="1.0" standalone="no"?>
<!DOCTYPE svg PUBLIC "-//W3C//DTD SVG 1.1//EN" "http://www.w3.org/Graphics/SVG/1.1/DTD/svg11.dtd" >
<svg>
<metadata>
Created by FontForge 20120731 at Wed Feb 21 03:01:07 2018
 By www-data
Copyright (c) 2009, 2013 Cadson Demak Co. Ltd., Thailand. All Rights Reserved.
</metadata>
<defs>
<font id="SukhumvitSet-SemiBold" horiz-adv-x="0" >
  <font-face 
    font-family="Sukhumvit Set"
    font-weight="600"
    font-stretch="normal"
    units-per-em="1000"
    panose-1="2 0 5 6 0 0 0 2 0 4"
    ascent="800"
    descent="-200"
    x-height="483"
    cap-height="674"
    bbox="-616 -452 1133 1064"
    underline-thickness="50"
    underline-position="-125"
    unicode-range="U+000D-FB02"
  />
<missing-glyph horiz-adv-x="515" 
d="M60 0v673h395v-673h-395zM122 63h270v548h-270v-548z" />
    <glyph glyph-name="uni0E5A" unicode="&#xe2f;&#xe2f;" horiz-adv-x="778" 
d="M373 0v400q-20 -39 -65 -64t-99 -25q-45 0 -77.5 15t-54 42t-32 63.5t-10.5 79.5v49h106v-49q0 -115 87 -115q27 0 53.5 11t47.5 30t34 44.5t13 54.5v24h105v-168q24 5 45.5 18.5t38 33t26.5 43t10 49.5v24h105v-560h-108v400q-16 -31 -46.5 -56t-70.5 -36v-308h-108z
" />
    <glyph glyph-name="uni0E4F.liga" unicode="&#xe4f;&#x22;" horiz-adv-x="546" 
d="M273 26q-44 0 -83 17t-68 46t-45.5 68t-16.5 83t16.5 83t45.5 68t68 45.5t83 16.5t83 -16.5t68 -45.5t45.5 -68t16.5 -83t-16.5 -83t-45.5 -68t-68 -46t-83 -17zM273 65q36 0 68 13.5t55.5 37.5t37 56t13.5 68t-13.5 67.5t-37 55.5t-55.5 37.5t-68 13.5t-68 -13.5
t-55.5 -37.5t-37.5 -55.5t-14 -67.5t14 -68t37.5 -56t55.5 -37.5t68 -13.5zM273 117q-26 0 -48.5 9.5t-39.5 26t-26.5 39t-9.5 47.5q0 26 10 49t26.5 39.5t39 26t47.5 9.5q26 0 48.5 -9.5t39.5 -26.5t26.5 -39.5t9.5 -47.5q0 -26 -10 -48.5t-26.5 -39t-39 -26t-47.5 -9.5z
M273 179q24 0 41.5 17.5t17.5 43.5q0 24 -17.5 41.5t-42.5 17.5q-24 0 -42 -17.5t-18 -42.5q0 -24 17.5 -42t43.5 -18zM176 489l-13 198h80l-13 -198h-54zM315 489l-12 198h79l-12 -198h-55z" />
    <glyph glyph-name="uni0E24.liga" unicode="&#xe24;&#xe32;" horiz-adv-x="963" 
d="M179 108q0 -10 4 -15.5t15 -5.5h56v-87h-83q-49 0 -74.5 27.5t-25.5 72.5v136q0 30 14.5 55.5t38.5 39.5l-81 68q9 33 32.5 64t57.5 55t78 38.5t94 14.5q59 0 103.5 -17t75.5 -47q33 26 78 45t105 19q53 0 95 -16.5t71 -45.5t44.5 -69.5t15.5 -89.5v-550h-108v550
q0 66 -34 99t-90 33q-42 0 -75 -14t-56 -35q8 -19 11 -39.5t3 -43.5v-550h-108v550q0 66 -35 99t-98 33q-25 0 -48 -6t-42.5 -17t-34 -25.5t-21.5 -30.5l80 -70q-29 -12 -43.5 -34t-14.5 -57v-134z" />
    <glyph glyph-name="uni0E26.liga" unicode="&#xe26;&#xe32;" horiz-adv-x="970" 
d="M199 100q0 -45 -25.5 -73t-75.5 -27h-71v87h45q19 0 19 21v124q0 30 13.5 55t37.5 38l-91 74q9 33 32.5 64t57.5 55t77.5 38.5t94.5 14.5q59 0 103.5 -17t74.5 -47q33 26 78 45t105 19q54 0 96 -16.5t71 -45.5t44 -69.5t15 -89.5v-550h-108v550q0 66 -34 99t-89 33
q-42 0 -75.5 -14t-55.5 -35q14 -39 14 -83v-550h-108v550q0 66 -35 99t-98 33q-51 0 -91 -23t-55 -56l90 -76q-29 -12 -42.5 -32.5t-13.5 -55.5v-139z" />
    <glyph glyph-name="fi" unicode="fi" horiz-adv-x="567" 
d="M493 0h-106v404h-198v-404h-103v404h-74v79h74q0 94 52 148t144 54q38 0 72.5 -9.5t57.5 -22.5l-22 -69q-18 9 -41 15t-53 6q-57 0 -82 -29t-25 -93h304v-483z" />
    <glyph glyph-name="fl" unicode="fl" horiz-adv-x="597" 
d="M523 0h-106v590q-21 7 -47.5 11t-53.5 4q-64 0 -95.5 -29t-31.5 -93h136v-79h-136v-404h-103v404h-74v79h74q0 44 15 81t44 64t72.5 42t99.5 15q73 0 125.5 -13.5t80.5 -26.5v-645z" />
    <glyph glyph-name=".notdef" horiz-adv-x="515" 
d="M60 0v673h395v-673h-395zM122 63h270v548h-270v-548z" />
    <glyph glyph-name=".null" 
 />
    <glyph glyph-name=".null" 
 />
    <glyph glyph-name="nonmarkingreturn" unicode="&#xd;" horiz-adv-x="195" 
 />
    <glyph glyph-name="space" unicode=" " horiz-adv-x="240" 
 />
    <glyph glyph-name="exclam" unicode="!" horiz-adv-x="262" 
d="M169 191h-76l-17 323v160h110v-160zM131 -11q-34 0 -52.5 20t-18.5 48t18.5 48.5t52.5 20.5t52.5 -20.5t18.5 -48.5t-18.5 -48t-52.5 -20z" />
    <glyph glyph-name="quotedbl" unicode="&#x22;" horiz-adv-x="358" 
d="M225 452l-15 236h98l-15 -236h-68zM66 452l-16 236h99l-16 -236h-67z" />
    <glyph glyph-name="numbersign" unicode="#" horiz-adv-x="580" 
d="M65 456h104l42 194h88l-41 -194h121l42 194h89l-42 -194h87v-77h-104l-23 -108h88v-77h-104l-42 -194h-89l42 194h-122l-41 -194h-89l42 194h-88v77h104l24 108h-88v77zM216 270h124l24 110h-124z" />
    <glyph glyph-name="dollar" unicode="$" horiz-adv-x="580" 
d="M261 -11q-63 1 -109.5 12t-81.5 31l26 86q31 -17 74 -28t91 -11v211q-30 10 -63 23.5t-61 35.5t-46.5 54.5t-18.5 80.5q0 34 11 64t34.5 53t59 38t84.5 20v91h60v-90q45 -2 83.5 -11.5t72.5 -26.5l-26 -83q-29 13 -63 21t-67 10v-198q33 -11 66.5 -26t60.5 -37.5t44 -55
t17 -77.5q0 -42 -14 -73.5t-38.5 -54t-59 -36.5t-76.5 -19v-93h-60v89zM171 486q0 -38 26 -58.5t64 -34.5v174q-46 -7 -68 -28.5t-22 -52.5zM410 178q0 37 -25.5 57.5t-63.5 34.5v-185q39 9 64 32t25 61z" />
    <glyph glyph-name="percent" unicode="%" horiz-adv-x="784" 
d="M528 660h94l-366 -660h-95zM121 484q0 -22 3.5 -42t11 -35t19 -24t27.5 -9t27.5 9t19 24t11 35t3.5 42t-3.5 42t-11 35t-19 24t-27.5 9t-27.5 -9t-19 -24t-11 -35t-3.5 -42zM36 484q0 36 9.5 68t28.5 56.5t46 38.5t62 14q34 0 61.5 -14t46 -38.5t28.5 -56.5t10 -68
t-10 -68t-28.5 -56t-46 -38t-61.5 -14q-35 0 -62 14t-46 38t-28.5 56t-9.5 68zM541 165q0 -22 3.5 -42t11 -35t19 -24t27.5 -9t27.5 9t19 24t11 35t3.5 42t-3.5 42t-11 35t-19 24t-27.5 9t-27.5 -9t-19 -24t-11 -35t-3.5 -42zM456 165q0 36 9.5 68t28.5 56.5t46 38.5t62 14
q34 0 61.5 -14t46 -38.5t28.5 -56.5t10 -68t-10 -68t-28.5 -56t-46 -38t-61.5 -14q-35 0 -62 14t-46 38t-28.5 56t-9.5 68z" />
    <glyph glyph-name="ampersand" unicode="&#x26;" horiz-adv-x="640" 
d="M460 43q-33 -25 -76.5 -39.5t-94.5 -14.5q-62 0 -106.5 15.5t-73.5 42.5t-43 63.5t-14 77.5q0 33 10 60.5t27 50.5t39.5 42t47.5 36l-8 9q-31 35 -48 68t-17 71q0 73 44.5 116.5t129.5 43.5q47 0 80 -12t54 -32.5t30.5 -48t9.5 -57.5q0 -31 -11.5 -56t-30 -46t-43 -39.5
t-51.5 -35.5l150 -176q13 22 20 51.5t7 64.5v52h106v-52q0 -62 -18 -110t-47 -85l87 -103h-123zM291 83q32 0 59 9t48 23l-161 190q-30 -24 -51 -51.5t-21 -62.5q0 -50 33 -79t93 -29zM208 530q0 -45 41 -94l9 -11q35 21 61 47t26 60q0 29 -16 50t-51 21q-33 0 -51.5 -19.5
t-18.5 -53.5z" />
    <glyph glyph-name="quotesingle" unicode="'" horiz-adv-x="199" 
d="M66 452l-16 236h99l-16 -236h-67z" />
    <glyph glyph-name="parenleft" unicode="(" horiz-adv-x="306" 
d="M60 284q0 84 16.5 149.5t45 116.5t66.5 87.5t81 61.5l27 -49q-35 -24 -61 -62t-43 -86t-25.5 -103.5t-8.5 -114.5t8.5 -114.5t25.5 -103.5t43 -86t61 -62l-27 -49q-43 25 -81 62t-66.5 87.5t-45 116.5t-16.5 149z" />
    <glyph glyph-name="parenright" unicode=")" horiz-adv-x="306" 
d="M246 284q0 -83 -16.5 -149t-45 -116.5t-66.5 -87.5t-81 -62l-27 49q35 24 61 62t43 86t25.5 103.5t8.5 114.5t-8.5 114.5t-25.5 103.5t-43 86t-61 62l27 49q43 -25 81 -61.5t66.5 -87.5t45 -116.5t16.5 -149.5z" />
    <glyph glyph-name="asterisk" unicode="*" horiz-adv-x="490" 
d="M444 557l-143 -94l144 -92l-66 -63l-104 106l20 -155h-100l22 156l-106 -107l-66 63l144 96l-143 90l66 64l104 -102l-21 155h100l-20 -155l104 102z" />
    <glyph glyph-name="plus" unicode="+" horiz-adv-x="580" 
d="M506 241h-166v-169h-99v169h-167v85h167v170h99v-170h166v-85z" />
    <glyph glyph-name="comma" unicode="," horiz-adv-x="252" 
d="M197 119l-81 -244h-69l28 244h122z" />
    <glyph glyph-name="hyphen" unicode="-" horiz-adv-x="327" 
d="M302 306v-85h-277v85h277z" />
    <glyph glyph-name="period" unicode="." horiz-adv-x="252" 
d="M55 57q0 28 18 48.5t53 20.5q34 0 52.5 -20.5t18.5 -48.5t-18.5 -48.5t-52.5 -20.5q-35 0 -53 20.5t-18 48.5z" />
    <glyph glyph-name="slash" unicode="/" horiz-adv-x="384" 
d="M95 -40h-90l283 714h91z" />
    <glyph glyph-name="zero" unicode="0" horiz-adv-x="580" 
d="M290 74q66 0 102.5 63t36.5 188t-36.5 188t-102.5 63t-102.5 -63t-36.5 -188t36.5 -188t102.5 -63zM290 -11q-57 0 -103 23t-78 66t-49 105.5t-17 141.5t17 141.5t49 105.5t78 66t103 23t103 -23t78 -66t49 -105.5t17 -141.5t-17 -141.5t-49 -105.5t-78 -66t-103 -23z
" />
    <glyph glyph-name="one" unicode="1" horiz-adv-x="580" 
d="M246 549l-134 -38v83l158 56h84v-557l149 1v-94h-411v94l154 -1v456z" />
    <glyph glyph-name="two" unicode="2" horiz-adv-x="580" 
d="M269 571q-44 0 -85.5 -11.5t-75.5 -28.5l-25 82q33 17 84 32.5t110 15.5q108 0 159.5 -49.5t51.5 -131.5q0 -40 -16 -78.5t-43 -76t-62 -74.5t-73 -74l-84 -81h298v-96h-449v75l160 163q39 40 69 72t51 60t31.5 54.5t10.5 55.5q0 44 -29 67.5t-83 23.5z" />
    <glyph glyph-name="three" unicode="3" horiz-adv-x="580" 
d="M254 80q69 0 106.5 30.5t37.5 78.5q0 51 -36.5 76t-93.5 25h-100v87h100q46 0 78.5 26.5t32.5 74.5q0 42 -32 67t-101 25q-45 0 -84.5 -9.5t-72.5 -26.5l-25 83q32 17 81 30.5t109 13.5q59 0 102.5 -14t72 -38t42.5 -56.5t14 -69.5q0 -57 -27.5 -90.5t-70.5 -53.5
q25 -6 46.5 -19.5t37.5 -33t25 -45t9 -55.5q0 -45 -17.5 -81.5t-49.5 -62t-77 -39.5t-100 -14q-64 0 -115.5 13t-84.5 31l25 83q33 -16 76.5 -26t91.5 -10z" />
    <glyph glyph-name="four" unicode="4" horiz-adv-x="580" 
d="M358 208v279l-199 -279h199zM372 650h90v-442h74v-88h-74v-120h-106v120h-315v71z" />
    <glyph glyph-name="five" unicode="5" horiz-adv-x="580" 
d="M253 80q37 0 64.5 10t46 26.5t27.5 39t9 48.5q0 57 -33 88t-110 31h-172v68l26 259h358v-96h-268l-11 -136h68q123 0 186.5 -56.5t63.5 -156.5q0 -50 -17.5 -89.5t-50.5 -68t-80 -43.5t-106 -15q-65 0 -115 12t-85 32l27 86q32 -17 75 -28t97 -11z" />
    <glyph glyph-name="six" unicode="6" horiz-adv-x="580" 
d="M314 344q-49 0 -87 -18t-64 -43q0 -50 12 -88t31.5 -64.5t45 -40t54.5 -13.5q53 0 87 37.5t34 106.5q0 26 -6.5 48.5t-20 39t-35 26t-51.5 9.5zM331 573q-78 0 -120 -55t-47 -151q23 23 65.5 43.5t103.5 20.5q42 0 78.5 -13.5t63.5 -40t42.5 -66t15.5 -90.5
q0 -49 -16 -91t-45.5 -73.5t-71.5 -49.5t-93 -18q-118 0 -184.5 83t-66.5 246q0 83 19.5 147t55 107.5t85 66t109.5 22.5q48 0 85.5 -11.5t69.5 -30.5l-26 -82q-56 36 -123 36z" />
    <glyph glyph-name="seven" unicode="7" horiz-adv-x="580" 
d="M72 650h446v-69l-258 -581h-111l247 556h-324v94z" />
    <glyph glyph-name="eight" unicode="8" horiz-adv-x="580" 
d="M290 75q60 0 95.5 28.5t35.5 78.5q0 107 -131 107q-130 0 -130 -107q0 -50 35 -78.5t95 -28.5zM290 661q104 0 160.5 -47t56.5 -129q0 -54 -27 -91t-70 -55q23 -6 44 -20t37 -35t25.5 -47.5t9.5 -56.5q0 -90 -63 -140.5t-173 -50.5q-109 0 -172 50.5t-63 140.5
q0 30 9.5 56.5t25.5 47.5t37 35t44 20q-43 18 -70.5 55t-27.5 91q0 82 57 129t160 47zM290 374q52 0 82.5 27t30.5 77q0 47 -31 72.5t-82 25.5t-82 -25.5t-31 -72.5q0 -50 31 -77t82 -27z" />
    <glyph glyph-name="nine" unicode="9" horiz-adv-x="580" 
d="M266 305q49 0 86.5 18t63.5 43q0 49 -12 88t-31.5 65t-45 40t-54.5 14q-53 0 -87 -38t-34 -106q0 -26 6.5 -49t20 -39.5t35.5 -26t52 -9.5zM245 77q85 0 126.5 54t43.5 151q-23 -22 -65.5 -42.5t-103.5 -20.5q-41 0 -77.5 13.5t-63.5 40t-42.5 65.5t-15.5 90
q0 49 16 91.5t45 74t71 49.5t93 18q118 0 185 -83.5t67 -246.5q0 -168 -73.5 -255t-199.5 -87q-48 0 -89.5 9.5t-75.5 26.5l26 82q28 -15 62 -22.5t71 -7.5z" />
    <glyph glyph-name="colon" unicode=":" horiz-adv-x="272" 
d="M65 411q0 28 18 48.5t53 20.5q34 0 52.5 -20.5t18.5 -48.5t-18.5 -48.5t-52.5 -20.5q-35 0 -53 20.5t-18 48.5zM65 57q0 28 18 48.5t53 20.5q34 0 52.5 -20.5t18.5 -48.5t-18.5 -48.5t-52.5 -20.5q-35 0 -53 20.5t-18 48.5z" />
    <glyph glyph-name="semicolon" unicode=";" horiz-adv-x="272" 
d="M65 411q0 28 18 48.5t53 20.5q34 0 52.5 -20.5t18.5 -48.5t-18.5 -48.5t-52.5 -20.5q-35 0 -53 20.5t-18 48.5zM200 119l-81 -244h-69l28 244h122z" />
    <glyph glyph-name="less" unicode="&#x3c;" horiz-adv-x="580" 
d="M62 327l438 239v-102l-326 -169l326 -169v-101l-438 238v64z" />
    <glyph glyph-name="equal" unicode="=" horiz-adv-x="580" 
d="M498 331h-416v80h416v-80zM498 149h-416v80h416v-80z" />
    <glyph glyph-name="greater" unicode="&#x3e;" horiz-adv-x="580" 
d="M518 263l-438 -238v101l326 169l-326 169v102l438 -239v-64z" />
    <glyph glyph-name="question" unicode="?" horiz-adv-x="497" 
d="M226 593q-43 0 -84 -12t-73 -29l-27 86q34 18 82 32.5t105 14.5q54 0 94 -12.5t66.5 -35t39.5 -54.5t13 -70t-12.5 -66.5t-31.5 -52.5t-41.5 -44.5t-41.5 -40.5t-31.5 -42.5t-12.5 -50.5t7 -48h-90q-6 10 -10 23.5t-4 29.5q0 32 12 57t29.5 46.5t38.5 41.5t38.5 41
t29.5 44.5t12 53.5q0 17 -6 33t-19 28t-33.5 19.5t-49.5 7.5zM162 57q0 28 18.5 48.5t52.5 20.5q35 0 53 -20.5t18 -48.5t-18 -48.5t-53 -20.5q-34 0 -52.5 20.5t-18.5 48.5z" />
    <glyph glyph-name="at" unicode="@" horiz-adv-x="829" 
d="M504 450q-29 13 -74 13q-63 0 -91 -34t-28 -97q0 -69 26.5 -99t63.5 -30q45 0 74 37t29 100v110zM122 326q0 -70 23 -122t62 -87t90 -52.5t106 -17.5q44 0 84.5 12.5t74.5 32.5l26 -54q-34 -21 -80.5 -35t-109.5 -14q-69 0 -130.5 21.5t-107.5 63.5t-73 104.5t-27 144.5
q0 73 25 139t72 115.5t115 78.5t154 29q78 0 141.5 -24.5t108.5 -69t69 -106t24 -135.5q0 -57 -11.5 -99t-31 -69.5t-44.5 -40.5t-53 -13q-42 0 -69 28.5t-32 66.5q-17 -39 -53.5 -66t-84.5 -27q-74 0 -118 52.5t-44 146.5q0 40 10 78t33 66.5t62 46t98 17.5q45 0 85 -10.5
t75 -29.5v-238q0 -28 9.5 -48.5t33.5 -20.5q25 0 47 39t22 126q0 56 -17 105.5t-51.5 86t-86.5 58t-122 21.5q-72 0 -128.5 -23.5t-95.5 -64t-59.5 -95.5t-20.5 -117z" />
    <glyph glyph-name="A" unicode="A" horiz-adv-x="626" 
d="M614 0h-112l-59 166h-261l-58 -166h-112l246 674h110zM360 402l-46 160h-2l-46 -160l-50 -143h194z" />
    <glyph glyph-name="B" unicode="B" horiz-adv-x="624" 
d="M554 493q0 -27 -9 -50t-23.5 -40.5t-32 -29.5t-33.5 -18q24 -6 47 -18.5t40.5 -32t28 -47t10.5 -61.5q0 -42 -14.5 -78t-45 -62.5t-77 -41t-110.5 -14.5h-260v674h262q55 0 95.5 -13t67.5 -37t40.5 -57.5t13.5 -73.5zM334 92q67 0 104.5 28.5t37.5 79.5q0 54 -39 78
t-105 24h-151v-210h153zM338 394q46 0 79 24.5t33 72.5q0 44 -30.5 67.5t-82.5 23.5h-156v-188h157z" />
    <glyph glyph-name="C" unicode="C" horiz-adv-x="575" 
d="M361 -11q-80 0 -140.5 26t-100.5 72t-60 110t-20 140q0 75 21 138.5t62 110t100.5 73t137.5 26.5q54 0 96 -9.5t81 -29.5l-27 -85q-66 32 -144 32q-106 0 -162.5 -67t-56.5 -189q0 -121 56 -188.5t163 -67.5q35 0 74 8.5t76 27.5l26 -86q-38 -20 -83.5 -31t-98.5 -11z
" />
    <glyph glyph-name="D" unicode="D" horiz-adv-x="658" 
d="M616 339q0 -167 -85.5 -253t-252.5 -86h-203v674h203q167 0 252.5 -85t85.5 -250zM508 339q0 64 -15.5 109.5t-45 74.5t-72 42t-97.5 13h-95v-482h95q55 0 97.5 14t72 43t45 75t15.5 111z" />
    <glyph glyph-name="E" unicode="E" horiz-adv-x="550" 
d="M75 674h425v-95h-319v-186h299v-94h-299v-205h325v-94h-431v674z" />
    <glyph glyph-name="F" unicode="F" horiz-adv-x="528" 
d="M75 674h417v-95h-311v-194h291v-96h-291v-289h-106v674z" />
    <glyph glyph-name="G" unicode="G" horiz-adv-x="650" 
d="M382 593q-108 0 -171 -64.5t-63 -194.5q0 -57 14 -103.5t38.5 -79.5t58.5 -51.5t75 -18.5q31 0 58 9.5t46.5 28t30.5 47.5t11 68v54h-132v93h237v-381h-91l-14 79q-20 -37 -59 -63.5t-101 -26.5q-65 0 -116.5 25t-88 70t-56 108.5t-19.5 141.5q0 82 23 147t66.5 110.5
t106 69.5t141.5 24q54 0 97.5 -11t82.5 -31l-27 -85q-32 16 -70.5 25.5t-77.5 9.5z" />
    <glyph glyph-name="H" unicode="H" horiz-adv-x="667" 
d="M484 298h-301v-298h-108v674h108v-280h301v280h108v-674h-108v298z" />
    <glyph glyph-name="I" unicode="I" horiz-adv-x="262" 
d="M185 0h-108v674h108v-674z" />
    <glyph glyph-name="J" unicode="J" horiz-adv-x="392" 
d="M320 197q0 -108 -46.5 -157.5t-136.5 -49.5q-39 0 -73 9t-56 23l26 89q19 -11 43.5 -18.5t53.5 -7.5q39 0 60 25t21 87v477h108v-477z" />
    <glyph glyph-name="K" unicode="K" horiz-adv-x="612" 
d="M320 358l292 -358h-128l-263 325v62l258 287h124zM183 0h-108v674h108v-674z" />
    <glyph glyph-name="L" unicode="L" horiz-adv-x="517" 
d="M75 674h108v-578h308v-96h-416v674z" />
    <glyph glyph-name="M" unicode="M" horiz-adv-x="801" 
d="M347 106l-125 285q-17 38 -29 76.5t-23 80.5h-3q3 -23 6 -48t4.5 -49t2.5 -45t1 -36v-370h-106v674h125l147 -335q20 -44 33 -83.5t19 -68.5h2q7 29 19.5 68.5t32.5 83.5l148 335h125v-674h-106v370q0 15 1 36t2.5 45t4 49t5.5 48h-2q-11 -42 -23 -80.5t-29 -76.5
l-125 -285h-107z" />
    <glyph glyph-name="N" unicode="N" horiz-adv-x="674" 
d="M491 674h108v-674h-111l-249 408q-21 34 -38 72t-28 69h-3q7 -38 10 -80.5t3 -79.5v-389h-108v674h116l244 -409q20 -34 37.5 -71.5t28.5 -69.5h2q-6 38 -9 80.5t-3 80.5v389z" />
    <glyph glyph-name="O" unicode="O" horiz-adv-x="696" 
d="M348 685q78 0 136 -26.5t96.5 -73t57 -110.5t18.5 -138t-18.5 -138t-57 -110.5t-96.5 -73t-136 -26.5t-136 26.5t-96.5 73t-57 110.5t-18.5 138t18.5 138t57 110.5t96.5 73t136 26.5zM348 76q100 0 150 68.5t50 192.5t-50 192.5t-150 68.5t-150 -68.5t-50 -192.5
t50 -192.5t150 -68.5z" />
    <glyph glyph-name="P" unicode="P" horiz-adv-x="574" 
d="M536 460q0 -46 -16.5 -85.5t-47 -69t-74 -46.5t-97.5 -17h-118v-242h-108v674h232q54 0 96.5 -16.5t72 -45.5t45 -68t15.5 -84zM428 460q0 54 -31 86t-90 32h-124v-240h118q60 0 93.5 32.5t33.5 89.5z" />
    <glyph glyph-name="Q" unicode="Q" horiz-adv-x="696" 
d="M348 685q78 0 136 -26.5t96.5 -73t57 -110.5t18.5 -138q0 -65 -14.5 -122t-43.5 -102t-73.5 -75t-104.5 -42q-8 -20 -24 -39t-35 -28h192v-85h-352v85h17q43 0 66.5 18t32.5 43q-71 5 -123 33.5t-86 74.5t-51 107t-17 132q0 74 18.5 138t57 110.5t96.5 73t136 26.5z
M348 76q100 0 150 68.5t50 192.5t-50 192.5t-150 68.5t-150 -68.5t-50 -192.5t50 -192.5t150 -68.5z" />
    <glyph glyph-name="R" unicode="R" horiz-adv-x="595" 
d="M554 468q0 -70 -40 -121.5t-107 -72.5l159 -274h-116l-150 258h-117v-258h-108v674h247q55 0 98.5 -16t73 -44t45 -65.5t15.5 -80.5zM446 468q0 50 -31 80t-93 30h-139v-224h136q60 0 93.5 31t33.5 83z" />
    <glyph glyph-name="S" unicode="S" horiz-adv-x="534" 
d="M241 -11q-66 0 -114 12t-85 32l27 87q32 -17 75.5 -27.5t91.5 -10.5q64 0 106.5 24.5t42.5 77.5q0 26 -12.5 44.5t-32.5 31.5t-47 23t-55 19q-31 10 -65 24t-62.5 36.5t-47.5 56t-19 83.5q0 39 13.5 72t41.5 58t72 39t106 14q54 0 98 -10t82 -30l-27 -84
q-34 16 -72.5 23.5t-76.5 7.5q-69 0 -100.5 -25t-31.5 -63q0 -26 11.5 -43.5t30.5 -30.5t44 -22.5t52 -18.5q35 -12 71 -27.5t65.5 -39t48 -57.5t18.5 -83q0 -50 -18.5 -86t-51.5 -60t-79 -35.5t-100 -11.5z" />
    <glyph glyph-name="T" unicode="T" horiz-adv-x="517" 
d="M312 0h-108v579l-198 -1v96h505v-96l-199 1v-579z" />
    <glyph glyph-name="U" unicode="U" horiz-adv-x="672" 
d="M336 -11q-61 0 -110 17t-83 52t-52.5 88.5t-18.5 125.5v402h108v-403q0 -95 41 -142t115 -47t115 47t41 142v403h108v-402q0 -72 -18.5 -125.5t-52.5 -88.5t-83 -52t-110 -17z" />
    <glyph glyph-name="V" unicode="V" horiz-adv-x="616" 
d="M252 0l-240 674h113l131 -384l51 -186h2l51 186l131 384h113l-240 -674h-112z" />
    <glyph glyph-name="W" unicode="W" horiz-adv-x="892" 
d="M501 674l107 -350q15 -49 25.5 -103.5t18.5 -118.5h2q2 32 4.5 61t6 57t8.5 56.5t12 59.5l74 338h109l-156 -674h-109l-117 393q-13 42 -22.5 89t-16.5 96h-2q-7 -49 -16.5 -96t-22.5 -89l-117 -393h-109l-156 674h109l74 -338q7 -31 12 -59.5t8.5 -56.5t6 -57t4.5 -61h2
q8 64 18.5 118.5t25.5 103.5l107 350h110z" />
    <glyph glyph-name="X" unicode="X" horiz-adv-x="619" 
d="M370 350l235 -350h-119l-176 274h-2l-175 -274h-119l235 350l-218 324h121l156 -248h2l157 248h121z" />
    <glyph glyph-name="Y" unicode="Y" horiz-adv-x="582" 
d="M291 379l163 295h116l-225 -387v-287h-108v287l-225 387h116l163 -295v0z" />
    <glyph glyph-name="Z" unicode="Z" horiz-adv-x="553" 
d="M38 70l334 510l-309 -1v95h443v-70l-333 -510l338 1v-95h-473v70z" />
    <glyph glyph-name="bracketleft" unicode="[" horiz-adv-x="290" 
d="M75 684h200v-75h-103v-652h103v-75h-200v802z" />
    <glyph glyph-name="backslash" unicode="\" horiz-adv-x="384" 
d="M5 674h90l284 -714h-91z" />
    <glyph glyph-name="bracketright" unicode="]" horiz-adv-x="290" 
d="M215 -118h-200v75h103v652h-103v75h200v-802z" />
    <glyph glyph-name="asciicircum" unicode="^" horiz-adv-x="545" 
d="M510 276h-112l-126 287l-125 -287h-112l193 398h89z" />
    <glyph glyph-name="underscore" unicode="_" horiz-adv-x="441" 
d="M441 -61v-85h-441v85h441z" />
    <glyph glyph-name="grave" unicode="`" horiz-adv-x="316" 
d="M191 584l-30 -45l-187 102l57 79z" />
    <glyph glyph-name="a" unicode="a" horiz-adv-x="508" 
d="M338 229h-85q-55 0 -84.5 -24t-29.5 -67q0 -32 19.5 -51t49.5 -19q29 0 53 11t41 29t26.5 41.5t9.5 47.5v32zM38 136q0 87 58 126.5t158 39.5h84v16q0 48 -26 70.5t-73 22.5q-42 0 -78 -10t-68 -27l-24 74q29 18 76 32t103 14q98 0 145 -48t47 -132v-314h-87l-15 72
q-10 -16 -22.5 -31t-30 -26.5t-41.5 -18.5t-57 -7q-31 0 -58 9.5t-47.5 28.5t-32 46.5t-11.5 62.5z" />
    <glyph glyph-name="b" unicode="b" horiz-adv-x="565" 
d="M178 232q0 -35 9.5 -63.5t26 -48.5t39 -31t47.5 -11q24 0 46 9t38 29t25.5 53t9.5 80q0 75 -30 115.5t-81 40.5q-40 0 -73.5 -21t-56.5 -51v-101zM72 674h106v-259q10 13 25.5 27t35.5 25.5t44.5 19t52.5 7.5q49 0 84.5 -21t58.5 -55t34.5 -78.5t11.5 -90.5
q0 -63 -15 -111.5t-42 -81.5t-63.5 -50t-78.5 -17q-55 0 -92 25.5t-56 57.5l-15 -72h-91v674z" />
    <glyph glyph-name="c" unicode="c" horiz-adv-x="463" 
d="M284 72q32 0 64 7.5t61 23.5l24 -76q-67 -38 -155 -38q-60 0 -105 19.5t-75 54t-45 80.5t-15 99q0 52 15 98t45 80.5t75.5 54t107.5 19.5q40 0 77 -8.5t69 -26.5l-23 -76q-54 28 -119 28q-74 0 -107.5 -47t-33.5 -122q0 -76 34 -123t106 -47z" />
    <glyph glyph-name="d" unicode="d" horiz-adv-x="565" 
d="M387 335q-21 32 -50.5 51t-66.5 19q-54 0 -89 -41t-35 -122q0 -45 9.5 -76t26 -50.5t38 -28.5t45.5 -9q25 0 47.5 11t39 31t26 48.5t9.5 63.5v103zM493 0h-91l-15 72q-19 -32 -55.5 -57.5t-88.5 -25.5q-44 0 -81 17t-64 49.5t-42.5 79.5t-15.5 107q0 51 13.5 96.5
t39.5 80t64 55t88 20.5q27 0 49 -7t39.5 -18t31 -24.5t22.5 -27.5v257h106v-674z" />
    <glyph glyph-name="e" unicode="e" horiz-adv-x="505" 
d="M145 201q9 -66 47.5 -97.5t98.5 -31.5q32 0 64 7t61 21l24 -76q-65 -35 -160 -35q-60 0 -105 17.5t-75 50.5t-45 80t-15 105q0 52 13 98t40.5 80.5t70.5 54t103 19.5q49 0 86.5 -15t63 -42t38 -65t12.5 -83q0 -24 -3.5 -47t-8.5 -41h-310zM268 415q-60 0 -90.5 -40
t-35.5 -106h226v18q0 61 -23.5 94.5t-76.5 33.5z" />
    <glyph glyph-name="f" unicode="f" horiz-adv-x="346" 
d="M266 605q-46 0 -61.5 -25t-15.5 -70v-27h136v-79h-136v-404h-103v404h-74v79h74v28q0 81 37.5 127.5t124.5 46.5q35 0 60.5 -7t47.5 -19l-22 -69q-33 15 -68 15z" />
    <glyph glyph-name="g" unicode="g" horiz-adv-x="563" 
d="M387 332q-19 31 -49.5 52t-67.5 21q-54 0 -89 -39.5t-35 -117.5q0 -44 9.5 -74t26 -49t38 -27.5t45.5 -8.5q54 0 88 40t34 111v92zM388 83q-19 -32 -56 -57.5t-89 -25.5q-44 0 -81 17t-64 48.5t-42.5 77.5t-15.5 104q0 49 13.5 94t39.5 79t64 54t88 20q27 0 49 -7
t39.5 -18.5t31 -25.5t22.5 -28l14 68h92v-443q0 -66 -17.5 -112t-49 -75t-74.5 -42t-93 -13q-55 0 -104.5 14t-80.5 34l27 83q32 -20 70 -30t76 -10q31 0 56.5 7t44.5 23.5t29.5 45t10.5 72.5v46z" />
    <glyph glyph-name="h" unicode="h" horiz-adv-x="571" 
d="M178 0h-106v674h106v-257q10 12 26 26t37 25t46.5 18.5t55.5 7.5q72 0 116 -50.5t44 -141.5v-302h-106v300q0 50 -21 77.5t-64 27.5q-42 0 -76.5 -20.5t-57.5 -49.5v-335z" />
    <glyph glyph-name="i" unicode="i" horiz-adv-x="254" 
d="M180 0h-106v483h106v-483zM127 558q-32 0 -49.5 19t-17.5 45t17.5 44.5t49.5 18.5t49.5 -18.5t17.5 -44.5t-17.5 -45t-49.5 -19z" />
    <glyph glyph-name="j" unicode="j" horiz-adv-x="254" 
d="M180 -26q0 -86 -32.5 -131.5t-110.5 -45.5q-31 0 -55 7t-41 18l24 78q27 -13 57 -13q29 0 40.5 18.5t11.5 63.5v514h106v-509zM127 558q-32 0 -49.5 19t-17.5 45t17.5 44.5t49.5 18.5t49.5 -18.5t17.5 -44.5t-17.5 -45t-49.5 -19z" />
    <glyph glyph-name="k" unicode="k" horiz-adv-x="514" 
d="M512 0h-118l-186 243v50l175 190h122l-199 -215zM178 0h-106v676h106v-676z" />
    <glyph glyph-name="l" unicode="l" horiz-adv-x="254" 
d="M180 0h-106v674h106v-674z" />
    <glyph glyph-name="m" unicode="m" horiz-adv-x="808" 
d="M173 0h-103v483h89l14 -68q10 13 24 27t32.5 25.5t41.5 19t51 7.5q48 0 79 -24t44 -67q13 18 29.5 34t36.5 29t43 20.5t49 7.5q69 0 103 -47t34 -128v-319h-103v313q0 41 -13 64.5t-50 23.5q-39 0 -69 -20.5t-48 -51.5v-329h-103v313q0 41 -12.5 64.5t-49.5 23.5
q-38 0 -70 -19t-49 -49v-333z" />
    <glyph glyph-name="n" unicode="n" horiz-adv-x="568" 
d="M176 0h-106v483h92l14 -68q10 13 26 27t37 25.5t46 19t54 7.5q75 0 118 -50.5t43 -141.5v-302h-106v300q0 50 -20.5 77.5t-62.5 27.5t-77 -21t-58 -51v-333z" />
    <glyph glyph-name="o" unicode="o" horiz-adv-x="550" 
d="M146 242q0 -76 31 -123t98 -47t98.5 47t31.5 123q0 75 -31.5 122t-98.5 47t-98 -47t-31 -122zM40 242q0 52 14.5 98t43.5 80.5t73 54t104 19.5t104 -19.5t73.5 -54t43.5 -80.5t14 -98q0 -53 -14 -99t-43.5 -80.5t-73.5 -54t-104 -19.5t-104 19.5t-73 54t-43.5 80.5
t-14.5 99z" />
    <glyph glyph-name="p" unicode="p" horiz-adv-x="566" 
d="M178 232q0 -35 10 -63.5t26.5 -48.5t39 -31t47.5 -11q24 0 45.5 9t38 29t26 53t9.5 80q0 75 -30 115.5t-81 40.5q-41 0 -74.5 -21t-56.5 -51v-101zM72 483h92l14 -68q10 13 25.5 27t36 25.5t45 19t52.5 7.5q48 0 84 -21t59 -55t34.5 -78.5t11.5 -90.5q0 -63 -15 -111.5
t-42 -81.5t-63.5 -50t-79.5 -17q-54 0 -91 25.5t-57 57.5v-263h-106v674z" />
    <glyph glyph-name="q" unicode="q" horiz-adv-x="565" 
d="M387 332q-20 32 -49 52.5t-68 20.5q-54 0 -89 -41t-35 -122q0 -45 9.5 -76t26 -50.5t38 -28.5t45.5 -9q25 0 47.5 11t39 31t26 48.5t9.5 63.5v100zM493 -191h-106v263q-19 -32 -55.5 -57.5t-88.5 -25.5q-44 0 -81 17t-64 49.5t-42.5 79.5t-15.5 107q0 51 13.5 96.5
t39.5 80t64 55t88 20.5q27 0 49 -7t39.5 -18.5t31 -25.5t22.5 -28l14 68h92v-674z" />
    <glyph glyph-name="r" unicode="r" horiz-adv-x="379" 
d="M176 406q9 15 20.5 31t26.5 28.5t34.5 20.5t43.5 8q27 0 44 -8t24 -13l-26 -100q-23 20 -61 20q-35 0 -62.5 -16.5t-43.5 -49.5v-327h-106v483h90z" />
    <glyph glyph-name="s" unicode="s" horiz-adv-x="439" 
d="M200 71q51 0 72.5 17t21.5 43q0 33 -29.5 50t-73.5 30q-32 9 -59.5 21t-47 29.5t-30.5 41t-11 56.5q0 63 49 99t134 36q42 0 81.5 -8t73.5 -25l-24 -79q-56 29 -124 29q-46 0 -66.5 -14t-20.5 -38q0 -27 22 -41t60 -26q41 -14 72.5 -28.5t53 -33.5t32.5 -44t11 -58
q0 -61 -47.5 -100t-144.5 -39q-48 0 -91 8.5t-74 25.5l24 79q27 -14 62.5 -22.5t73.5 -8.5z" />
    <glyph glyph-name="t" unicode="t" horiz-adv-x="361" 
d="M189 141q0 -33 11.5 -50t42.5 -17q39 0 71 20l23 -77q-23 -14 -49.5 -21t-62.5 -7q-72 0 -105.5 36.5t-33.5 115.5v263h-74v79h75l25 138h77v-138h143v-79h-143v-263z" />
    <glyph glyph-name="u" unicode="u" horiz-adv-x="561" 
d="M385 483h106v-483h-91l-15 72q-10 -14 -24.5 -28.5t-34 -26.5t-43.5 -20t-53 -8q-75 0 -118.5 45t-43.5 142v307h105v-305q0 -51 21.5 -76t60.5 -25q43 0 75 23.5t55 54.5v328z" />
    <glyph glyph-name="v" unicode="v" horiz-adv-x="480" 
d="M185 0l-173 483h107l76 -222l44 -168h2l43 168l77 222h107l-173 -483h-110z" />
    <glyph glyph-name="w" unicode="w" horiz-adv-x="697" 
d="M470 250q10 -33 17 -69.5t15 -85.5h3q3 51 8 96.5t11 71.5l47 220h106l-115 -483h-106l-74 235q-13 39 -20.5 78t-12.5 80h-2q-5 -41 -12.5 -80t-19.5 -78l-75 -235h-106l-114 483h105l48 -220q5 -26 10.5 -71.5t8.5 -96.5h3q7 49 14 85.5t17 69.5l72 233h101z" />
    <glyph glyph-name="x" unicode="x" horiz-adv-x="499" 
d="M249 183h-2l-117 -183h-112l174 250l-163 233h112l106 -166h2l105 166h112l-162 -233l177 -250h-112z" />
    <glyph glyph-name="y" unicode="y" horiz-adv-x="560" 
d="M385 83q-9 -14 -23.5 -29t-34 -27t-43.5 -19.5t-53 -7.5q-75 0 -119 45t-44 142v296h105v-294q0 -51 22 -76t61 -25q43 0 74.5 23.5t53.5 54.5v317h106v-443q0 -63 -17 -109t-47.5 -75.5t-73 -43.5t-94.5 -14t-99.5 13t-77.5 33l26 83q65 -40 140 -40q65 0 101.5 33
t36.5 117v46z" />
    <glyph glyph-name="z" unicode="z" horiz-adv-x="455" 
d="M38 57l242 347h-224v79h349v-57l-242 -347h251v-79h-376v57z" />
    <glyph glyph-name="braceleft" unicode="{" horiz-adv-x="322" 
d="M45 319q45 0 65 17t20 53q0 17 -3.5 37t-7.5 40.5t-7.5 41t-3.5 40.5q0 69 42 102.5t120 33.5h27v-69h-24q-38 0 -53 -21t-15 -61q0 -35 7.5 -72t7.5 -72q0 -86 -75 -105v-2q75 -21 75 -106q0 -35 -7.5 -72t-7.5 -72q0 -40 15 -61t53 -21h24v-68h-27q-78 0 -120 33.5
t-42 101.5q0 20 3.5 41t7.5 41.5t7.5 40t3.5 36.5q0 36 -20 53t-65 17v73z" />
    <glyph glyph-name="bar" unicode="|" horiz-adv-x="268" 
d="M85 774h98v-974h-98v974z" />
    <glyph glyph-name="braceright" unicode="}" horiz-adv-x="322" 
d="M277 246q-45 0 -65 -17t-20 -53q0 -17 3.5 -36.5t7 -40t7 -41.5t3.5 -41q0 -68 -41.5 -101.5t-120.5 -33.5h-26v68h24q38 0 53 21t15 61q0 35 -8 72t-8 72q0 85 75 106v2q-75 19 -75 105q0 35 8 72t8 72q0 40 -15 61t-53 21h-24v69h26q79 0 120.5 -33.5t41.5 -102.5
q0 -20 -3.5 -40.5l-7 -41t-7 -40.5t-3.5 -37q0 -36 20 -53t65 -17v-73z" />
    <glyph glyph-name="asciitilde" unicode="~" horiz-adv-x="557" 
d="M372 240q-32 0 -57 12t-46.5 26.5t-42 26.5t-44.5 12q-32 0 -54 -20.5t-40 -49.5l-50 52q9 19 22 38t31 35t41.5 26t52.5 10q33 0 57.5 -12t45.5 -26t41.5 -26t45.5 -12q31 0 53.5 20t40.5 49l50 -52q-9 -20 -23 -39.5t-32 -35t-41 -25t-51 -9.5z" />
    <glyph glyph-name="uni007F" horiz-adv-x="500" 
 />
    <glyph glyph-name="nonbreakingspace" unicode="&#xa0;" 
 />
    <glyph glyph-name="exclamdown" unicode="&#xa1;" horiz-adv-x="262" 
d="M131 491q34 0 52.5 -20t18.5 -48t-18.5 -48.5t-52.5 -20.5t-52.5 20.5t-18.5 48.5t18.5 48t52.5 20zM186 -34v-160h-110v160l17 323h76z" />
    <glyph glyph-name="cent" unicode="&#xa2;" horiz-adv-x="580" 
d="M307 -9q-53 4 -93.5 25t-68 54.5t-41.5 77.5t-14 94q0 49 13.5 92.5t41 77t68 54.5t94.5 26v91h60v-91q68 -5 122 -34l-23 -76q-21 11 -46.5 18t-52.5 9v-337q27 3 54 10.5t51 19.5l23 -76q-27 -15 -60 -24t-68 -12v-90h-60v91zM195 242q0 -67 28 -111.5t84 -55.5v332
q-57 -11 -84.5 -55t-27.5 -110z" />
    <glyph glyph-name="sterling" unicode="&#xa3;" horiz-adv-x="580" 
d="M71 358h71q-14 28 -25.5 56.5t-11.5 62.5q0 42 17.5 75.5t47.5 57.5t70 37t85 13q28 0 50.5 -2.5t41 -7.5t36 -12.5t37.5 -17.5l-27 -85q-28 16 -57 23t-67 7q-30 0 -52 -8.5t-35.5 -22.5t-20 -31.5t-6.5 -36.5q0 -30 10 -56t23 -52h156v-63h-126q6 -17 10 -34t4 -35
q0 -38 -23 -71.5t-58 -55.5h314v-99h-476v99h42q19 9 36 22.5t30 29.5t20 33t7 32q0 21 -5 40.5t-13 38.5h-105v63z" />
    <glyph glyph-name="currency" unicode="&#xa4;" horiz-adv-x="575" 
d="M168 328q0 -26 9.5 -48t25.5 -38.5t37.5 -26t46.5 -9.5q24 0 46 9.5t38.5 26t26.5 38.5t10 48t-10 48.5t-26.5 39t-38.5 25.5t-46 9q-25 0 -46.5 -9t-37.5 -25.5t-25.5 -39t-9.5 -48.5zM102 328q0 29 8 54.5t25 51.5l-55 57l46 47l57 -58q45 35 104 35q56 0 105 -35
l57 57l45 -46l-54 -57q17 -26 25 -51t8 -55q0 -57 -33 -105l55 -57l-46 -48l-57 58q-25 -17 -50 -25.5t-54 -8.5q-30 0 -56 8.5t-49 25.5l-57 -58l-46 48l55 57q-17 24 -25 49.5t-8 55.5z" />
    <glyph glyph-name="yen" unicode="&#xa5;" horiz-adv-x="580" 
d="M84 348h119l-167 302h116l139 -281h1l136 281h116l-166 -302h119v-57h-149l-3 -20v-46h152v-57h-152v-168h-108v168h-153v57h153v46l-3 20h-150v57z" />
    <glyph glyph-name="brokenbar" unicode="&#xa6;" horiz-adv-x="265" 
d="M85 674h95v-351h-95v351zM85 176h95v-351h-95v351z" />
    <glyph glyph-name="section" unicode="&#xa7;" horiz-adv-x="580" 
d="M398 278q0 16 -10.5 29t-28 23.5t-40 19t-47.5 15.5q-20 5 -35.5 10t-28.5 12q-2 -2 -11 -12.5t-9 -28.5q0 -28 24 -45.5t56 -29t64 -19t47 -14.5q2 2 10.5 11.5t8.5 28.5zM248 21q28 0 52 5.5t42 14.5t28 21.5t10 27.5q0 18 -9 30.5t-23.5 22t-33 16.5t-38.5 13
q-26 8 -59.5 19.5t-63.5 30t-50.5 46t-20.5 68.5q0 36 15 59.5t42 36.5q-20 21 -28.5 46.5t-8.5 51.5q0 34 14 63t40.5 49t64.5 31.5t86 11.5q43 0 84.5 -11.5t76.5 -28.5l-24 -76q-63 33 -130 33q-54 0 -79.5 -21t-25.5 -51q0 -26 22 -41.5t55 -28t71 -24.5t71 -30.5
t55 -46.5t22 -72q0 -35 -15.5 -59t-41.5 -36q20 -23 29 -48.5t9 -51.5q0 -35 -16 -63t-46 -48.5t-73 -31.5t-96 -11q-45 0 -90.5 11t-80.5 28l24 76q31 -14 67 -23t73 -9z" />
    <glyph glyph-name="dieresis" unicode="&#xa8;" horiz-adv-x="316" 
d="M57 669q29 0 44 -17t15 -40t-15 -39.5t-44 -16.5t-44 16.5t-15 39.5t15 40t44 17zM259 669q29 0 44 -17t15 -40t-15 -39.5t-44 -16.5t-44 16.5t-15 39.5t15 40t44 17z" />
    <glyph glyph-name="copyright" unicode="&#xa9;" horiz-adv-x="699" 
d="M349 599q-54 0 -99.5 -20.5t-79.5 -56t-53 -83.5t-19 -102q0 -55 19 -103t53 -83.5t79.5 -56t99.5 -20.5t100 20.5t79.5 56t52.5 83.5t19 103q0 54 -19 102t-52.5 83.5t-79.5 56t-100 20.5zM364 461q-54 0 -79.5 -35t-25.5 -90t25.5 -90.5t81.5 -35.5q46 0 89 23l15 -50
q-23 -13 -50 -19.5t-60 -6.5q-42 0 -74 14t-53.5 38t-32 56.5t-10.5 70.5t11 70.5t32.5 56.5t54 38t76.5 14q59 0 103 -25q-4 -13 -7.5 -25t-8.5 -24q-20 10 -40.5 15t-46.5 5zM349 23q-65 0 -121 24.5t-98 67.5t-66 100t-24 122t24 122t66 99.5t98 67t121 24.5t121.5 -24.5
t98.5 -67t66 -99.5t24 -122t-24 -122t-66 -100t-98.5 -67.5t-121.5 -24.5z" />
    <glyph glyph-name="ordfeminine" unicode="&#xaa;" horiz-adv-x="356" 
d="M237 465h-59q-39 0 -59.5 -16.5t-20.5 -45.5q0 -22 13 -35t36 -13q19 0 35.5 7.5t28.5 20.5t19 29t7 34v19zM237 527q0 35 -19 52t-48 17q-28 0 -57 -7.5t-56 -21.5l-20 58q23 12 58.5 23.5t77.5 11.5q72 0 107 -36.5t35 -97.5v-226h-64l-9 48q-15 -22 -39 -38.5
t-70 -16.5q-48 0 -82 27t-34 81q0 63 43 92.5t118 29.5h59v4z" />
    <glyph glyph-name="guillemotleft" unicode="&#xab;" horiz-adv-x="484" 
d="M321 242l128 -180h-95l-129 180l129 180h95zM126 242l128 -180h-96l-128 180l128 180h96z" />
    <glyph glyph-name="logicalnot" unicode="&#xac;" horiz-adv-x="509" 
d="M361 116v171h-326v83h424v-254h-98z" />
    <glyph glyph-name="uni00AD" unicode="&#xad;" horiz-adv-x="312" 
d="M10 290h292v-81h-292v81z" />
    <glyph glyph-name="registered" unicode="&#xae;" horiz-adv-x="534" 
d="M372 505q0 -26 -16.5 -46.5t-40.5 -27.5l60 -101h-52l-55 95h-37v-95h-48v252h97q50 0 71 -22t21 -55zM324 505q0 18 -10.5 26.5t-34.5 8.5h-48v-74h47q46 0 46 39zM267 234q-51 0 -92.5 17.5t-71.5 48t-46.5 71.5t-16.5 88t16.5 88t46.5 71.5t71.5 48t92.5 17.5
q50 0 92 -17.5t72 -48t46.5 -71.5t16.5 -88t-16.5 -88t-46.5 -71.5t-72 -48t-92 -17.5zM267 275q40 0 73.5 14.5t56.5 39.5t36 58.5t13 71.5t-13 71.5t-36 58.5t-56.5 39.5t-73.5 14.5q-41 0 -74 -14.5t-56.5 -39.5t-36 -58.5t-12.5 -71.5t12.5 -71.5t36 -58.5t56.5 -39.5
t74 -14.5z" />
    <glyph glyph-name="macron" unicode="&#xaf;" horiz-adv-x="316" 
d="M9 571v71h298v-71h-298z" />
    <glyph glyph-name="degree" unicode="&#xb0;" horiz-adv-x="357" 
d="M105 551q0 -32 21 -54t52 -22q32 0 53.5 22t21.5 54q0 31 -21.5 53t-53.5 22q-31 0 -52 -22t-21 -53zM38 551q0 27 10.5 51.5t29 43t44.5 29t56 10.5t56 -10.5t45 -29t29.5 -43t10.5 -51.5q0 -28 -10.5 -52.5t-29.5 -42.5t-45 -28.5t-56 -10.5t-56 10.5t-44.5 28.5
t-29 42.5t-10.5 52.5z" />
    <glyph glyph-name="plusminus" unicode="&#xb1;" horiz-adv-x="580" 
d="M506 261h-166v-159h-99v159h-167v85h167v160h99v-160h166v-85zM506 0h-432v65h432v-65z" />
    <glyph glyph-name="twosuperior" unicode="&#xb2;" horiz-adv-x="312" 
d="M138 591q-19 0 -42 -5.5t-43 -15.5l-21 62q24 11 52 20t63 9q64 0 94.5 -27.5t30.5 -71.5q0 -23 -10 -45t-25 -41.5t-33.5 -37.5t-34.5 -34l-35 -33h150v-71h-261v54l88 88q34 34 55 61t21 53q0 35 -49 35z" />
    <glyph glyph-name="threesuperior" unicode="&#xb3;" horiz-adv-x="309" 
d="M137 363q29 0 43.5 12.5t14.5 32.5q0 43 -52 43h-61v64h59q20 0 32.5 10t12.5 31q0 17 -13.5 26.5t-43.5 9.5q-38 0 -86 -24l-23 63q26 14 55.5 22t58.5 8q70 0 102.5 -29t32.5 -70q0 -28 -15 -47t-37 -27q29 -8 45.5 -31.5t16.5 -51.5q0 -51 -35.5 -81t-98.5 -30
q-41 0 -71.5 8t-55.5 22l23 65q21 -12 46.5 -19t49.5 -7z" />
    <glyph glyph-name="acute" unicode="&#xb4;" horiz-adv-x="316" 
d="M284 720l56 -79l-186 -102l-31 45z" />
    <glyph glyph-name="mu" unicode="&#xb5;" horiz-adv-x="563" 
d="M70 483h106v-297q0 -51 23.5 -81t66.5 -30q36 0 67 24.5t54 55.5v328h106v-483h-91l-15 72q-9 -15 -21.5 -30t-28.5 -26.5t-35 -19t-40 -7.5q-35 0 -55 10t-31 21v-220h-106v683z" />
    <glyph glyph-name="paragraph" unicode="&#xb6;" horiz-adv-x="453" 
d="M35 492q0 43 15 77t40.5 57t59 35.5t70.5 12.5h205v-65h-55q-31 0 -41.5 -14t-10.5 -41v-602h-91v363q-35 0 -69.5 10t-61.5 31.5t-44 55t-17 80.5z" />
    <glyph glyph-name="periodcentered" unicode="&#xb7;" horiz-adv-x="252" 
d="M55 267q0 28 18 48.5t53 20.5q34 0 52.5 -20.5t18.5 -48.5t-18.5 -48.5t-52.5 -20.5q-35 0 -53 20.5t-18 48.5z" />
    <glyph glyph-name="cedilla" unicode="&#xb8;" horiz-adv-x="316" 
d="M149 -175h-112l94 135h67z" />
    <glyph glyph-name="onesuperior" unicode="&#xb9;" horiz-adv-x="297" 
d="M113 578l-68 -22v66l92 33h62v-285h75v-70h-241v70h80v208z" />
    <glyph glyph-name="ordmasculine" unicode="&#xba;" horiz-adv-x="400" 
d="M109 477q0 -52 21.5 -86.5t69.5 -34.5t70 34.5t22 86.5t-22 85.5t-70 33.5t-69.5 -33.5t-21.5 -85.5zM28 477q0 39 10.5 72t31.5 58t53.5 39t76.5 14t76.5 -14t53.5 -39t31.5 -58t10.5 -72t-10.5 -72.5t-31.5 -58.5t-53.5 -39t-76.5 -14t-76.5 14t-53.5 39t-31.5 58.5
t-10.5 72.5z" />
    <glyph glyph-name="guillemotright" unicode="&#xbb;" horiz-adv-x="484" 
d="M230 422h95l129 -180l-129 -180h-95l128 180zM35 422h95l128 -180l-128 -180h-95l128 180z" />
    <glyph glyph-name="onequarter" unicode="&#xbc;" horiz-adv-x="776" 
d="M603 130v115l-83 -115h83zM612 355h71v-225h43v-67h-43v-63h-81v63h-159v56zM530 660h95l-367 -660h-94zM126 578l-68 -22v66l92 33h62v-285h74v-70h-241v70h81v208z" />
    <glyph glyph-name="onehalf" unicode="&#xbd;" horiz-adv-x="776" 
d="M530 660h95l-367 -660h-94zM126 578l-68 -22v66l92 33h62v-285h74v-70h-241v70h81v208zM586 291q-19 0 -40.5 -6.5t-41.5 -16.5l-21 63q24 11 50.5 20.5t61.5 9.5q64 0 94.5 -27.5t30.5 -71.5q0 -23 -10 -45t-25 -41.5t-33.5 -37.5t-34.5 -34l-35 -33h150v-71h-261v54
l88 88q34 34 55 61t21 53q0 35 -49 35z" />
    <glyph glyph-name="threequarters" unicode="&#xbe;" horiz-adv-x="776" 
d="M530 660h95l-367 -660h-94zM152 363q29 0 43.5 12.5t14.5 32.5q0 43 -52 43h-61v64h59q20 0 32.5 10t12.5 31q0 36 -51 36q-44 0 -92 -24l-23 63q26 14 56.5 22t65.5 8q65 0 96 -28.5t31 -70.5q0 -28 -15 -47t-37 -27q29 -8 45.5 -31.5t16.5 -51.5q0 -51 -35.5 -81
t-98.5 -30q-41 0 -71.5 8t-55.5 22l23 65q21 -12 46.5 -19t49.5 -7zM603 130v115l-83 -115h83zM612 355h71v-225h43v-67h-43v-63h-81v63h-159v56z" />
    <glyph glyph-name="questiondown" unicode="&#xbf;" horiz-adv-x="497" 
d="M271 -115q43 0 84 12t73 29l27 -86q-34 -18 -82 -32.5t-105 -14.5q-108 0 -160.5 47.5t-52.5 124.5q0 38 12.5 66.5t31.5 52.5t41.5 44t41.5 41t31.5 43t12.5 50t-7 48h90q6 -10 10 -23.5t4 -29.5q0 -32 -12 -57t-29.5 -46.5t-38.5 -41.5t-38.5 -41t-29.5 -44.5
t-12 -53.5q0 -17 6 -33t19 -28t33.5 -19.5t49.5 -7.5zM335 421q0 -28 -18.5 -48.5t-52.5 -20.5q-35 0 -53 20.5t-18 48.5t18 48.5t53 20.5q34 0 52.5 -20.5t18.5 -48.5z" />
    <glyph glyph-name="Agrave" unicode="&#xc0;" horiz-adv-x="626" 
d="M614 0h-112l-59 166h-261l-58 -166h-112l246 674h110zM360 402l-46 160h-2l-46 -160l-50 -143h194zM422 780l-30 -45l-187 102l57 79z" />
    <glyph glyph-name="Aacute" unicode="&#xc1;" horiz-adv-x="626" 
d="M614 0h-112l-59 166h-261l-58 -166h-112l246 674h110zM360 402l-46 160h-2l-46 -160l-50 -143h194zM366 916l56 -79l-186 -102l-31 45z" />
    <glyph glyph-name="Acircumflex" unicode="&#xc2;" horiz-adv-x="626" 
d="M614 0h-112l-59 166h-261l-58 -166h-112l246 674h110zM360 402l-46 160h-2l-46 -160l-50 -143h194zM471 738h-104l-54 81l-53 -81h-105l125 144h66z" />
    <glyph glyph-name="Atilde" unicode="&#xc3;" horiz-adv-x="626" 
d="M614 0h-112l-59 166h-261l-58 -166h-112l246 674h110zM360 402l-46 160h-2l-46 -160l-50 -143h194zM471 863q0 -54 -23.5 -83.5t-65.5 -29.5q-24 0 -41.5 7.5t-32 17t-27 17t-26.5 7.5q-20 0 -26.5 -14t-6.5 -31h-67q0 52 22.5 82.5t67.5 30.5q23 0 41 -8t33 -17t27 -17
t24 -8q20 0 26.5 13t6.5 33h68z" />
    <glyph glyph-name="Adieresis" unicode="&#xc4;" horiz-adv-x="626" 
d="M614 0h-112l-59 166h-261l-58 -166h-112l246 674h110zM360 402l-46 160h-2l-46 -160l-50 -143h194zM212 865q29 0 44 -17t15 -40t-15 -39.5t-44 -16.5t-44 16.5t-15 39.5t15 40t44 17zM414 865q29 0 44 -17t15 -40t-15 -39.5t-44 -16.5t-44 16.5t-15 39.5t15 40t44 17z
" />
    <glyph glyph-name="Aring" unicode="&#xc5;" horiz-adv-x="626" 
d="M614 0h-112l-59 166h-261l-58 -166h-112l246 674h110zM360 402l-46 160h-2l-46 -160l-50 -143h194zM313 926q42 0 70.5 -28t28.5 -69q0 -40 -28 -68t-71 -28t-71 28t-28 68q0 41 28.5 69t70.5 28zM313 787q17 0 27.5 11.5t10.5 31.5q0 19 -10.5 30.5t-27.5 11.5
t-27.5 -11.5t-10.5 -30.5q0 -20 10.5 -31.5t27.5 -11.5z" />
    <glyph glyph-name="AE" unicode="&#xc6;" horiz-adv-x="831" 
d="M455 166h-260l-71 -166h-112l298 674h471v-95h-334l54 -186h260v-94h-234l59 -205h201v-94h-286zM236 259h194l-40 143l-31 162h-2l-60 -162z" />
    <glyph glyph-name="Ccedilla" unicode="&#xc7;" horiz-adv-x="575" 
d="M361 -11q-80 0 -140.5 26t-100.5 72t-60 110t-20 140q0 75 21 138.5t62 110t100.5 73t137.5 26.5q54 0 96 -9.5t81 -29.5l-27 -85q-66 32 -144 32q-106 0 -162.5 -67t-56.5 -189q0 -121 56 -188.5t163 -67.5q35 0 74 8.5t76 27.5l26 -86q-38 -20 -83.5 -31t-98.5 -11z
M344 -175h-112l94 135h67z" />
    <glyph glyph-name="Egrave" unicode="&#xc8;" horiz-adv-x="550" 
d="M75 674h425v-95h-319v-186h299v-94h-299v-205h325v-94h-431v674zM394 780l-30 -45l-187 102l57 79z" />
    <glyph glyph-name="Eacute" unicode="&#xc9;" horiz-adv-x="550" 
d="M75 674h425v-95h-319v-186h299v-94h-299v-205h325v-94h-431v674zM338 916l56 -79l-186 -102l-31 45z" />
    <glyph glyph-name="Ecircumflex" unicode="&#xca;" horiz-adv-x="550" 
d="M75 674h425v-95h-319v-186h299v-94h-299v-205h325v-94h-431v674zM443 738h-104l-54 81l-53 -81h-105l125 144h66z" />
    <glyph glyph-name="Edieresis" unicode="&#xcb;" horiz-adv-x="550" 
d="M75 674h425v-95h-319v-186h299v-94h-299v-205h325v-94h-431v674zM184 865q29 0 44 -17t15 -40t-15 -39.5t-44 -16.5t-44 16.5t-15 39.5t15 40t44 17zM386 865q29 0 44 -17t15 -40t-15 -39.5t-44 -16.5t-44 16.5t-15 39.5t15 40t44 17z" />
    <glyph glyph-name="Igrave" unicode="&#xcc;" horiz-adv-x="262" 
d="M185 0h-108v674h108v-674zM240 780l-30 -45l-187 102l57 79z" />
    <glyph glyph-name="Iacute" unicode="&#xcd;" horiz-adv-x="262" 
d="M185 0h-108v674h108v-674zM185 916l56 -79l-186 -102l-31 45z" />
    <glyph glyph-name="Icircumflex" unicode="&#xce;" horiz-adv-x="262" 
d="M185 0h-108v674h108v-674zM290 738h-104l-54 81l-53 -81h-105l125 144h66z" />
    <glyph glyph-name="Idieresis" unicode="&#xcf;" horiz-adv-x="262" 
d="M185 0h-108v674h108v-674zM31 865q29 0 44 -17t15 -40t-15 -39.5t-44 -16.5t-44 16.5t-15 39.5t15 40t44 17zM233 865q29 0 44 -17t15 -40t-15 -39.5t-44 -16.5t-44 16.5t-15 39.5t15 40t44 17z" />
    <glyph glyph-name="Eth" unicode="&#xd0;" horiz-adv-x="658" 
d="M75 370v304h203q167 0 252.5 -85t85.5 -250q0 -167 -85.5 -253t-252.5 -86h-203v290h-67v80h67zM508 339q0 64 -15.5 109.5t-45 74.5t-72 42t-97.5 13h-95v-208h157v-80h-157v-194h95q55 0 97.5 14t72 43t45 75t15.5 111z" />
    <glyph glyph-name="Ntilde" unicode="&#xd1;" horiz-adv-x="674" 
d="M491 674h108v-674h-111l-249 408q-21 34 -38 72t-28 69h-3q7 -38 10 -80.5t3 -79.5v-389h-108v674h116l244 -409q20 -34 37.5 -71.5t28.5 -69.5h2q-6 38 -9 80.5t-3 80.5v389zM495 863q0 -54 -23.5 -83.5t-65.5 -29.5q-24 0 -41.5 7.5t-32 17t-27 17t-26.5 7.5
q-20 0 -26.5 -14t-6.5 -31h-67q0 52 22.5 82.5t67.5 30.5q23 0 41 -8t33 -17t27 -17t24 -8q20 0 26.5 13t6.5 33h68z" />
    <glyph glyph-name="Ograve" unicode="&#xd2;" horiz-adv-x="696" 
d="M348 685q78 0 136 -26.5t96.5 -73t57 -110.5t18.5 -138t-18.5 -138t-57 -110.5t-96.5 -73t-136 -26.5t-136 26.5t-96.5 73t-57 110.5t-18.5 138t18.5 138t57 110.5t96.5 73t136 26.5zM348 76q100 0 150 68.5t50 192.5t-50 192.5t-150 68.5t-150 -68.5t-50 -192.5
t50 -192.5t150 -68.5zM457 780l-30 -45l-187 102l57 79z" />
    <glyph glyph-name="Oacute" unicode="&#xd3;" horiz-adv-x="696" 
d="M348 685q78 0 136 -26.5t96.5 -73t57 -110.5t18.5 -138t-18.5 -138t-57 -110.5t-96.5 -73t-136 -26.5t-136 26.5t-96.5 73t-57 110.5t-18.5 138t18.5 138t57 110.5t96.5 73t136 26.5zM348 76q100 0 150 68.5t50 192.5t-50 192.5t-150 68.5t-150 -68.5t-50 -192.5
t50 -192.5t150 -68.5zM401 916l56 -79l-186 -102l-31 45z" />
    <glyph glyph-name="Ocircumflex" unicode="&#xd4;" horiz-adv-x="696" 
d="M348 685q78 0 136 -26.5t96.5 -73t57 -110.5t18.5 -138t-18.5 -138t-57 -110.5t-96.5 -73t-136 -26.5t-136 26.5t-96.5 73t-57 110.5t-18.5 138t18.5 138t57 110.5t96.5 73t136 26.5zM348 76q100 0 150 68.5t50 192.5t-50 192.5t-150 68.5t-150 -68.5t-50 -192.5
t50 -192.5t150 -68.5zM506 738h-104l-54 81l-53 -81h-105l125 144h66z" />
    <glyph glyph-name="Otilde" unicode="&#xd5;" horiz-adv-x="696" 
d="M348 685q78 0 136 -26.5t96.5 -73t57 -110.5t18.5 -138t-18.5 -138t-57 -110.5t-96.5 -73t-136 -26.5t-136 26.5t-96.5 73t-57 110.5t-18.5 138t18.5 138t57 110.5t96.5 73t136 26.5zM348 76q100 0 150 68.5t50 192.5t-50 192.5t-150 68.5t-150 -68.5t-50 -192.5
t50 -192.5t150 -68.5zM506 863q0 -54 -23.5 -83.5t-65.5 -29.5q-24 0 -41.5 7.5t-32 17t-27 17t-26.5 7.5q-20 0 -26.5 -14t-6.5 -31h-67q0 52 22.5 82.5t67.5 30.5q23 0 41 -8t33 -17t27 -17t24 -8q20 0 26.5 13t6.5 33h68z" />
    <glyph glyph-name="Odieresis" unicode="&#xd6;" horiz-adv-x="696" 
d="M348 685q78 0 136 -26.5t96.5 -73t57 -110.5t18.5 -138t-18.5 -138t-57 -110.5t-96.5 -73t-136 -26.5t-136 26.5t-96.5 73t-57 110.5t-18.5 138t18.5 138t57 110.5t96.5 73t136 26.5zM348 76q100 0 150 68.5t50 192.5t-50 192.5t-150 68.5t-150 -68.5t-50 -192.5
t50 -192.5t150 -68.5zM247 865q29 0 44 -17t15 -40t-15 -39.5t-44 -16.5t-44 16.5t-15 39.5t15 40t44 17zM449 865q29 0 44 -17t15 -40t-15 -39.5t-44 -16.5t-44 16.5t-15 39.5t15 40t44 17z" />
    <glyph glyph-name="multiply" unicode="&#xd7;" horiz-adv-x="580" 
d="M290 208l-136 -137l-68 68l137 136l-137 137l68 67l136 -136l137 136l67 -67l-136 -137l136 -136l-67 -68z" />
    <glyph glyph-name="Oslash" unicode="&#xd8;" horiz-adv-x="696" 
d="M348 685q46 0 84 -9.5t70 -26.5l40 65h74l-62 -101q51 -48 76.5 -119t25.5 -157q0 -74 -18.5 -138t-57 -110.5t-96.5 -73t-136 -26.5q-90 0 -154 35l-39 -64h-74l61 100q-52 48 -77 119t-25 158q0 74 18.5 138t57 110.5t96.5 73t136 26.5zM148 337q0 -123 48 -189
l258 422q-45 28 -106 28q-100 0 -150 -68.5t-50 -192.5zM348 76q100 0 150 68.5t50 192.5q0 122 -48 188l-258 -422q43 -27 106 -27z" />
    <glyph glyph-name="Ugrave" unicode="&#xd9;" horiz-adv-x="672" 
d="M336 -11q-61 0 -110 17t-83 52t-52.5 88.5t-18.5 125.5v402h108v-403q0 -95 41 -142t115 -47t115 47t41 142v403h108v-402q0 -72 -18.5 -125.5t-52.5 -88.5t-83 -52t-110 -17zM445 780l-30 -45l-187 102l57 79z" />
    <glyph glyph-name="Uacute" unicode="&#xda;" horiz-adv-x="672" 
d="M336 -11q-61 0 -110 17t-83 52t-52.5 88.5t-18.5 125.5v402h108v-403q0 -95 41 -142t115 -47t115 47t41 142v403h108v-402q0 -72 -18.5 -125.5t-52.5 -88.5t-83 -52t-110 -17zM389 916l56 -79l-186 -102l-31 45z" />
    <glyph glyph-name="Ucircumflex" unicode="&#xdb;" horiz-adv-x="672" 
d="M336 -11q-61 0 -110 17t-83 52t-52.5 88.5t-18.5 125.5v402h108v-403q0 -95 41 -142t115 -47t115 47t41 142v403h108v-402q0 -72 -18.5 -125.5t-52.5 -88.5t-83 -52t-110 -17zM494 738h-104l-54 81l-53 -81h-105l125 144h66z" />
    <glyph glyph-name="Udieresis" unicode="&#xdc;" horiz-adv-x="672" 
d="M336 -11q-61 0 -110 17t-83 52t-52.5 88.5t-18.5 125.5v402h108v-403q0 -95 41 -142t115 -47t115 47t41 142v403h108v-402q0 -72 -18.5 -125.5t-52.5 -88.5t-83 -52t-110 -17zM235 865q29 0 44 -17t15 -40t-15 -39.5t-44 -16.5t-44 16.5t-15 39.5t15 40t44 17zM437 865
q29 0 44 -17t15 -40t-15 -39.5t-44 -16.5t-44 16.5t-15 39.5t15 40t44 17z" />
    <glyph glyph-name="Yacute" unicode="&#xdd;" horiz-adv-x="582" 
d="M291 379l163 295h116l-225 -387v-287h-108v287l-225 387h116l163 -295v0zM344 916l56 -79l-186 -102l-31 45z" />
    <glyph glyph-name="Thorn" unicode="&#xde;" horiz-adv-x="576" 
d="M536 339q0 -45 -16.5 -83.5t-47 -67t-74 -45t-97.5 -16.5h-118v-127h-108v674h108v-127h124q54 0 96.5 -16t72 -44t45 -66t15.5 -82zM428 339q0 53 -31 82.5t-90 29.5h-124v-228h118q60 0 93.5 30.5t33.5 85.5z" />
    <glyph glyph-name="germandbls" unicode="&#xdf;" horiz-adv-x="609" 
d="M175 0h-105v420q0 55 15.5 103t46.5 84t78.5 57t110.5 21q45 0 85 -13t69 -36.5t46 -55.5t17 -69q0 -30 -10 -53t-25.5 -39.5t-35 -27t-38.5 -14.5q28 -7 53 -22t44.5 -38t31 -55t11.5 -73q0 -51 -15.5 -88.5t-43 -61.5t-65 -36t-80.5 -12q-42 0 -80.5 7.5t-67.5 24.5
l19 74q25 -12 55.5 -20t62.5 -8q51 0 81 32t30 98t-42.5 103t-124.5 37h-32v79h68q47 0 75 20.5t28 66.5q0 43 -32 70t-83 27q-78 0 -112.5 -48.5t-34.5 -133.5v-420z" />
    <glyph glyph-name="agrave" unicode="&#xe0;" horiz-adv-x="508" 
d="M338 229h-85q-55 0 -84.5 -24t-29.5 -67q0 -32 19.5 -51t49.5 -19q29 0 53 11t41 29t26.5 41.5t9.5 47.5v32zM38 136q0 87 58 126.5t158 39.5h84v16q0 48 -26 70.5t-73 22.5q-42 0 -78 -10t-68 -27l-24 74q29 18 76 32t103 14q98 0 145 -48t47 -132v-314h-87l-15 72
q-10 -16 -22.5 -31t-30 -26.5t-41.5 -18.5t-57 -7q-31 0 -58 9.5t-47.5 28.5t-32 46.5t-11.5 62.5zM363 584l-30 -45l-187 102l57 79z" />
    <glyph glyph-name="aacute" unicode="&#xe1;" horiz-adv-x="508" 
d="M338 229h-85q-55 0 -84.5 -24t-29.5 -67q0 -32 19.5 -51t49.5 -19q29 0 53 11t41 29t26.5 41.5t9.5 47.5v32zM38 136q0 87 58 126.5t158 39.5h84v16q0 48 -26 70.5t-73 22.5q-42 0 -78 -10t-68 -27l-24 74q29 18 76 32t103 14q98 0 145 -48t47 -132v-314h-87l-15 72
q-10 -16 -22.5 -31t-30 -26.5t-41.5 -18.5t-57 -7q-31 0 -58 9.5t-47.5 28.5t-32 46.5t-11.5 62.5zM307 720l56 -79l-186 -102l-31 45z" />
    <glyph glyph-name="acircumflex" unicode="&#xe2;" horiz-adv-x="508" 
d="M338 229h-85q-55 0 -84.5 -24t-29.5 -67q0 -32 19.5 -51t49.5 -19q29 0 53 11t41 29t26.5 41.5t9.5 47.5v32zM38 136q0 87 58 126.5t158 39.5h84v16q0 48 -26 70.5t-73 22.5q-42 0 -78 -10t-68 -27l-24 74q29 18 76 32t103 14q98 0 145 -48t47 -132v-314h-87l-15 72
q-10 -16 -22.5 -31t-30 -26.5t-41.5 -18.5t-57 -7q-31 0 -58 9.5t-47.5 28.5t-32 46.5t-11.5 62.5zM412 542h-104l-54 81l-53 -81h-105l125 144h66z" />
    <glyph glyph-name="atilde" unicode="&#xe3;" horiz-adv-x="508" 
d="M338 229h-85q-55 0 -84.5 -24t-29.5 -67q0 -32 19.5 -51t49.5 -19q29 0 53 11t41 29t26.5 41.5t9.5 47.5v32zM38 136q0 87 58 126.5t158 39.5h84v16q0 48 -26 70.5t-73 22.5q-42 0 -78 -10t-68 -27l-24 74q29 18 76 32t103 14q98 0 145 -48t47 -132v-314h-87l-15 72
q-10 -16 -22.5 -31t-30 -26.5t-41.5 -18.5t-57 -7q-31 0 -58 9.5t-47.5 28.5t-32 46.5t-11.5 62.5zM412 667q0 -54 -23.5 -83.5t-65.5 -29.5q-24 0 -41.5 7.5t-32 17t-27 17t-26.5 7.5q-20 0 -26.5 -14t-6.5 -31h-67q0 52 22.5 82.5t67.5 30.5q23 0 41 -8t33 -17t27 -17
t24 -8q20 0 26.5 13t6.5 33h68z" />
    <glyph glyph-name="adieresis" unicode="&#xe4;" horiz-adv-x="508" 
d="M338 229h-85q-55 0 -84.5 -24t-29.5 -67q0 -32 19.5 -51t49.5 -19q29 0 53 11t41 29t26.5 41.5t9.5 47.5v32zM38 136q0 87 58 126.5t158 39.5h84v16q0 48 -26 70.5t-73 22.5q-42 0 -78 -10t-68 -27l-24 74q29 18 76 32t103 14q98 0 145 -48t47 -132v-314h-87l-15 72
q-10 -16 -22.5 -31t-30 -26.5t-41.5 -18.5t-57 -7q-31 0 -58 9.5t-47.5 28.5t-32 46.5t-11.5 62.5zM153 669q29 0 44 -17t15 -40t-15 -39.5t-44 -16.5t-44 16.5t-15 39.5t15 40t44 17zM355 669q29 0 44 -17t15 -40t-15 -39.5t-44 -16.5t-44 16.5t-15 39.5t15 40t44 17z" />
    <glyph glyph-name="aring" unicode="&#xe5;" horiz-adv-x="508" 
d="M338 229h-85q-55 0 -84.5 -24t-29.5 -67q0 -32 19.5 -51t49.5 -19q29 0 53 11t41 29t26.5 41.5t9.5 47.5v32zM38 136q0 87 58 126.5t158 39.5h84v16q0 48 -26 70.5t-73 22.5q-42 0 -78 -10t-68 -27l-24 74q29 18 76 32t103 14q98 0 145 -48t47 -132v-314h-87l-15 72
q-10 -16 -22.5 -31t-30 -26.5t-41.5 -18.5t-57 -7q-31 0 -58 9.5t-47.5 28.5t-32 46.5t-11.5 62.5zM254 730q42 0 70.5 -28t28.5 -69q0 -40 -28 -68t-71 -28t-71 28t-28 68q0 41 28.5 69t70.5 28zM254 591q17 0 27.5 11.5t10.5 31.5q0 19 -10.5 30.5t-27.5 11.5t-27.5 -11.5
t-10.5 -30.5q0 -20 10.5 -31.5t27.5 -11.5z" />
    <glyph glyph-name="ae" unicode="&#xe6;" horiz-adv-x="790" 
d="M443 201q18 -129 140 -129q63 0 119 28l23 -76q-32 -17 -68.5 -26t-84.5 -9q-38 0 -67 8t-51 22.5t-37.5 35t-26.5 45.5q-24 -46 -73 -78.5t-120 -32.5q-34 0 -63 9.5t-50.5 28.5t-33.5 46.5t-12 62.5q0 87 58.5 126.5t159.5 39.5h85v16q0 48 -26.5 70.5t-74.5 22.5
q-42 0 -78.5 -10t-68.5 -27l-24 74q29 18 77 32t103 14q59 0 96 -19.5t57 -54.5q23 32 63 53t94 21q48 0 84.5 -15t60.5 -42t36 -65t12 -83q0 -24 -3.5 -47t-8.5 -41h-297zM341 229h-86q-56 0 -86 -24t-30 -67q0 -32 20 -51t50 -19q29 0 53 10.5t41.5 28t27.5 41t10 49.5v32
zM560 415q-59 0 -86 -40.5t-31 -105.5h211v18q0 61 -20.5 94.5t-73.5 33.5z" />
    <glyph glyph-name="ccedilla" unicode="&#xe7;" horiz-adv-x="463" 
d="M284 72q32 0 64 7.5t61 23.5l24 -76q-67 -38 -155 -38q-60 0 -105 19.5t-75 54t-45 80.5t-15 99q0 52 15 98t45 80.5t75.5 54t107.5 19.5q40 0 77 -8.5t69 -26.5l-23 -76q-54 28 -119 28q-74 0 -107.5 -47t-33.5 -122q0 -76 34 -123t106 -47zM262 -175h-112l94 135h67z
" />
    <glyph glyph-name="egrave" unicode="&#xe8;" horiz-adv-x="505" 
d="M145 201q9 -66 47.5 -97.5t98.5 -31.5q32 0 64 7t61 21l24 -76q-65 -35 -160 -35q-60 0 -105 17.5t-75 50.5t-45 80t-15 105q0 52 13 98t40.5 80.5t70.5 54t103 19.5q49 0 86.5 -15t63 -42t38 -65t12.5 -83q0 -24 -3.5 -47t-8.5 -41h-310zM268 415q-60 0 -90.5 -40
t-35.5 -106h226v18q0 61 -23.5 94.5t-76.5 33.5zM361 584l-30 -45l-187 102l57 79z" />
    <glyph glyph-name="eacute" unicode="&#xe9;" horiz-adv-x="505" 
d="M145 201q9 -66 47.5 -97.5t98.5 -31.5q32 0 64 7t61 21l24 -76q-65 -35 -160 -35q-60 0 -105 17.5t-75 50.5t-45 80t-15 105q0 52 13 98t40.5 80.5t70.5 54t103 19.5q49 0 86.5 -15t63 -42t38 -65t12.5 -83q0 -24 -3.5 -47t-8.5 -41h-310zM268 415q-60 0 -90.5 -40
t-35.5 -106h226v18q0 61 -23.5 94.5t-76.5 33.5zM305 720l56 -79l-186 -102l-31 45z" />
    <glyph glyph-name="ecircumflex" unicode="&#xea;" horiz-adv-x="505" 
d="M145 201q9 -66 47.5 -97.5t98.5 -31.5q32 0 64 7t61 21l24 -76q-65 -35 -160 -35q-60 0 -105 17.5t-75 50.5t-45 80t-15 105q0 52 13 98t40.5 80.5t70.5 54t103 19.5q49 0 86.5 -15t63 -42t38 -65t12.5 -83q0 -24 -3.5 -47t-8.5 -41h-310zM268 415q-60 0 -90.5 -40
t-35.5 -106h226v18q0 61 -23.5 94.5t-76.5 33.5zM410 542h-104l-54 81l-53 -81h-105l125 144h66z" />
    <glyph glyph-name="edieresis" unicode="&#xeb;" horiz-adv-x="505" 
d="M145 201q9 -66 47.5 -97.5t98.5 -31.5q32 0 64 7t61 21l24 -76q-65 -35 -160 -35q-60 0 -105 17.5t-75 50.5t-45 80t-15 105q0 52 13 98t40.5 80.5t70.5 54t103 19.5q49 0 86.5 -15t63 -42t38 -65t12.5 -83q0 -24 -3.5 -47t-8.5 -41h-310zM268 415q-60 0 -90.5 -40
t-35.5 -106h226v18q0 61 -23.5 94.5t-76.5 33.5zM151 669q29 0 44 -17t15 -40t-15 -39.5t-44 -16.5t-44 16.5t-15 39.5t15 40t44 17zM353 669q29 0 44 -17t15 -40t-15 -39.5t-44 -16.5t-44 16.5t-15 39.5t15 40t44 17z" />
    <glyph glyph-name="igrave" unicode="&#xec;" horiz-adv-x="254" 
d="M180 0h-106v483h106v-483zM236 584l-30 -45l-187 102l57 79z" />
    <glyph glyph-name="iacute" unicode="&#xed;" horiz-adv-x="254" 
d="M180 0h-106v483h106v-483zM181 720l56 -79l-186 -102l-31 45z" />
    <glyph glyph-name="icircumflex" unicode="&#xee;" horiz-adv-x="254" 
d="M180 0h-106v483h106v-483zM286 542h-104l-54 81l-53 -81h-105l125 144h66z" />
    <glyph glyph-name="idieresis" unicode="&#xef;" horiz-adv-x="254" 
d="M180 0h-106v483h106v-483zM27 669q29 0 44 -17t15 -40t-15 -39.5t-44 -16.5t-44 16.5t-15 39.5t15 40t44 17zM229 669q29 0 44 -17t15 -40t-15 -39.5t-44 -16.5t-44 16.5t-15 39.5t15 40t44 17z" />
    <glyph glyph-name="eth" unicode="&#xf0;" horiz-adv-x="556" 
d="M185 506l-22 49l83 40q-49 32 -101 49l36 64q79 -27 143 -76l118 55l25 -49l-97 -45q70 -66 108 -154.5t38 -191.5q0 -56 -16.5 -103t-48 -81.5t-76 -54t-99.5 -19.5q-54 0 -98 19t-75 51.5t-48 77t-17 95.5t17.5 96.5t48 80t71 55t87.5 20.5t80.5 -16t54.5 -39h2
q-11 32 -38.5 65.5t-64.5 63.5zM415 238q0 33 -8.5 62.5t-25.5 52t-43 36t-60 13.5q-33 0 -58.5 -13.5t-43 -36t-26.5 -53.5t-9 -65q0 -33 9 -62.5t26.5 -51.5t42.5 -35t57 -13q33 0 58.5 15.5t43.5 39.5t27.5 53.5t9.5 57.5z" />
    <glyph glyph-name="ntilde" unicode="&#xf1;" horiz-adv-x="568" 
d="M176 0h-106v483h92l14 -68q10 13 26 27t37 25.5t46 19t54 7.5q75 0 118 -50.5t43 -141.5v-302h-106v300q0 50 -20.5 77.5t-62.5 27.5t-77 -21t-58 -51v-333zM442 667q0 -54 -23.5 -83.5t-65.5 -29.5q-24 0 -41.5 7.5t-32 17t-27 17t-26.5 7.5q-20 0 -26.5 -14t-6.5 -31
h-67q0 52 22.5 82.5t67.5 30.5q23 0 41 -8t33 -17t27 -17t24 -8q20 0 26.5 13t6.5 33h68z" />
    <glyph glyph-name="ograve" unicode="&#xf2;" horiz-adv-x="550" 
d="M146 242q0 -76 31 -123t98 -47t98.5 47t31.5 123q0 75 -31.5 122t-98.5 47t-98 -47t-31 -122zM40 242q0 52 14.5 98t43.5 80.5t73 54t104 19.5t104 -19.5t73.5 -54t43.5 -80.5t14 -98q0 -53 -14 -99t-43.5 -80.5t-73.5 -54t-104 -19.5t-104 19.5t-73 54t-43.5 80.5
t-14.5 99zM384 584l-30 -45l-187 102l57 79z" />
    <glyph glyph-name="oacute" unicode="&#xf3;" horiz-adv-x="550" 
d="M146 242q0 -76 31 -123t98 -47t98.5 47t31.5 123q0 75 -31.5 122t-98.5 47t-98 -47t-31 -122zM40 242q0 52 14.5 98t43.5 80.5t73 54t104 19.5t104 -19.5t73.5 -54t43.5 -80.5t14 -98q0 -53 -14 -99t-43.5 -80.5t-73.5 -54t-104 -19.5t-104 19.5t-73 54t-43.5 80.5
t-14.5 99zM328 720l56 -79l-186 -102l-31 45z" />
    <glyph glyph-name="ocircumflex" unicode="&#xf4;" horiz-adv-x="550" 
d="M146 242q0 -76 31 -123t98 -47t98.5 47t31.5 123q0 75 -31.5 122t-98.5 47t-98 -47t-31 -122zM40 242q0 52 14.5 98t43.5 80.5t73 54t104 19.5t104 -19.5t73.5 -54t43.5 -80.5t14 -98q0 -53 -14 -99t-43.5 -80.5t-73.5 -54t-104 -19.5t-104 19.5t-73 54t-43.5 80.5
t-14.5 99zM433 542h-104l-54 81l-53 -81h-105l125 144h66z" />
    <glyph glyph-name="otilde" unicode="&#xf5;" horiz-adv-x="550" 
d="M146 242q0 -76 31 -123t98 -47t98.5 47t31.5 123q0 75 -31.5 122t-98.5 47t-98 -47t-31 -122zM40 242q0 52 14.5 98t43.5 80.5t73 54t104 19.5t104 -19.5t73.5 -54t43.5 -80.5t14 -98q0 -53 -14 -99t-43.5 -80.5t-73.5 -54t-104 -19.5t-104 19.5t-73 54t-43.5 80.5
t-14.5 99zM433 667q0 -54 -23.5 -83.5t-65.5 -29.5q-24 0 -41.5 7.5t-32 17t-27 17t-26.5 7.5q-20 0 -26.5 -14t-6.5 -31h-67q0 52 22.5 82.5t67.5 30.5q23 0 41 -8t33 -17t27 -17t24 -8q20 0 26.5 13t6.5 33h68z" />
    <glyph glyph-name="odieresis" unicode="&#xf6;" horiz-adv-x="550" 
d="M146 242q0 -76 31 -123t98 -47t98.5 47t31.5 123q0 75 -31.5 122t-98.5 47t-98 -47t-31 -122zM40 242q0 52 14.5 98t43.5 80.5t73 54t104 19.5t104 -19.5t73.5 -54t43.5 -80.5t14 -98q0 -53 -14 -99t-43.5 -80.5t-73.5 -54t-104 -19.5t-104 19.5t-73 54t-43.5 80.5
t-14.5 99zM174 669q29 0 44 -17t15 -40t-15 -39.5t-44 -16.5t-44 16.5t-15 39.5t15 40t44 17zM376 669q29 0 44 -17t15 -40t-15 -39.5t-44 -16.5t-44 16.5t-15 39.5t15 40t44 17z" />
    <glyph glyph-name="divide" unicode="&#xf7;" horiz-adv-x="580" 
d="M501 241h-422v85h422v-85zM217 120q0 28 18.5 48.5t52.5 20.5q35 0 53 -20.5t18 -48.5t-18 -48.5t-53 -20.5q-34 0 -52.5 20.5t-18.5 48.5zM217 448q0 28 18.5 48.5t52.5 20.5q35 0 53 -20.5t18 -48.5t-18 -48.5t-53 -20.5q-34 0 -52.5 20.5t-18.5 48.5z" />
    <glyph glyph-name="oslash" unicode="&#xf8;" horiz-adv-x="550" 
d="M40 242q0 52 14.5 98t43.5 80.5t73 54t104 19.5q29 0 53.5 -5t46.5 -13l34 57h69l-52 -87q42 -35 63 -88t21 -116q0 -53 -14 -99t-43.5 -80.5t-73.5 -54t-104 -19.5q-32 0 -58.5 5.5t-49.5 15.5l-30 -50h-69l49 83q-39 35 -58 86t-19 113zM405 242q0 74 -30 119
l-163 -274q27 -15 63 -15q67 0 98.5 47t31.5 123zM146 242q0 -68 24 -111l160 269q-25 11 -55 11q-67 0 -98 -47t-31 -122z" />
    <glyph glyph-name="ugrave" unicode="&#xf9;" horiz-adv-x="561" 
d="M385 483h106v-483h-91l-15 72q-10 -14 -24.5 -28.5t-34 -26.5t-43.5 -20t-53 -8q-75 0 -118.5 45t-43.5 142v307h105v-305q0 -51 21.5 -76t60.5 -25q43 0 75 23.5t55 54.5v328zM389 584l-30 -45l-187 102l57 79z" />
    <glyph glyph-name="uacute" unicode="&#xfa;" horiz-adv-x="561" 
d="M385 483h106v-483h-91l-15 72q-10 -14 -24.5 -28.5t-34 -26.5t-43.5 -20t-53 -8q-75 0 -118.5 45t-43.5 142v307h105v-305q0 -51 21.5 -76t60.5 -25q43 0 75 23.5t55 54.5v328zM333 720l56 -79l-186 -102l-31 45z" />
    <glyph glyph-name="ucircumflex" unicode="&#xfb;" horiz-adv-x="561" 
d="M385 483h106v-483h-91l-15 72q-10 -14 -24.5 -28.5t-34 -26.5t-43.5 -20t-53 -8q-75 0 -118.5 45t-43.5 142v307h105v-305q0 -51 21.5 -76t60.5 -25q43 0 75 23.5t55 54.5v328zM438 542h-104l-54 81l-53 -81h-105l125 144h66z" />
    <glyph glyph-name="udieresis" unicode="&#xfc;" horiz-adv-x="561" 
d="M385 483h106v-483h-91l-15 72q-10 -14 -24.5 -28.5t-34 -26.5t-43.5 -20t-53 -8q-75 0 -118.5 45t-43.5 142v307h105v-305q0 -51 21.5 -76t60.5 -25q43 0 75 23.5t55 54.5v328zM179 669q29 0 44 -17t15 -40t-15 -39.5t-44 -16.5t-44 16.5t-15 39.5t15 40t44 17zM381 669
q29 0 44 -17t15 -40t-15 -39.5t-44 -16.5t-44 16.5t-15 39.5t15 40t44 17z" />
    <glyph glyph-name="yacute" unicode="&#xfd;" horiz-adv-x="560" 
d="M385 83q-9 -14 -23.5 -29t-34 -27t-43.5 -19.5t-53 -7.5q-75 0 -119 45t-44 142v296h105v-294q0 -51 22 -76t61 -25q43 0 74.5 23.5t53.5 54.5v317h106v-443q0 -63 -17 -109t-47.5 -75.5t-73 -43.5t-94.5 -14t-99.5 13t-77.5 33l26 83q65 -40 140 -40q65 0 101.5 33
t36.5 117v46zM333 720l56 -79l-186 -102l-31 45z" />
    <glyph glyph-name="thorn" unicode="&#xfe;" horiz-adv-x="565" 
d="M178 232q0 -35 9.5 -63.5t26 -48.5t39 -31t47.5 -11q24 0 46 9t38.5 29t26 53t9.5 80q0 75 -30.5 115.5t-81.5 40.5q-40 0 -73.5 -21t-56.5 -51v-101zM72 674h106v-259q10 13 25.5 27t35.5 25.5t44.5 19t52.5 7.5q49 0 84.5 -21t58.5 -55t34.5 -78.5t11.5 -90.5
q0 -63 -15 -111.5t-42 -81.5t-63.5 -50t-78.5 -17q-55 0 -92 25.5t-56 57.5v-263h-106v865z" />
    <glyph glyph-name="ydieresis" unicode="&#xff;" horiz-adv-x="560" 
d="M385 83q-9 -14 -23.5 -29t-34 -27t-43.5 -19.5t-53 -7.5q-75 0 -119 45t-44 142v296h105v-294q0 -51 22 -76t61 -25q43 0 74.5 23.5t53.5 54.5v317h106v-443q0 -63 -17 -109t-47.5 -75.5t-73 -43.5t-94.5 -14t-99.5 13t-77.5 33l26 83q65 -40 140 -40q65 0 101.5 33
t36.5 117v46zM179 669q29 0 44 -17t15 -40t-15 -39.5t-44 -16.5t-44 16.5t-15 39.5t15 40t44 17zM381 669q29 0 44 -17t15 -40t-15 -39.5t-44 -16.5t-44 16.5t-15 39.5t15 40t44 17z" />
    <glyph glyph-name="dotlessi" unicode="&#x131;" horiz-adv-x="254" 
d="M180 0h-106v483h106v-483z" />
    <glyph glyph-name="Lslash" unicode="&#x141;" horiz-adv-x="517" 
d="M75 360v314h108v-267l145 63v-87l-145 -63v-224h308v-96h-416v273l-61 -26v87z" />
    <glyph glyph-name="lslash" unicode="&#x142;" horiz-adv-x="252" 
d="M181 406l55 24v-87l-55 -24v-319h-107v272l-58 -25v87l58 25v315h107v-268z" />
    <glyph glyph-name="OE" unicode="&#x152;" horiz-adv-x="997" 
d="M523 71q-26 -32 -70.5 -57t-112.5 -25q-75 0 -131.5 26.5t-94 73t-56 110.5t-18.5 138t18.5 138t56 110.5t94 73t131.5 26.5q69 0 113.5 -24t69.5 -58v71h424v-95h-319v-186h300v-94h-300v-205h325v-94h-430v71zM148 337q0 -124 50 -191.5t150 -67.5q76 0 119.5 43
t54.5 123v181q-11 80 -54.5 125.5t-119.5 45.5q-100 0 -150 -67.5t-50 -191.5z" />
    <glyph glyph-name="oe" unicode="&#x153;" horiz-adv-x="841" 
d="M481 201q9 -66 47.5 -97.5t98.5 -31.5q32 0 64 7t61 21l24 -76q-65 -35 -160 -35q-62 0 -108.5 20t-74.5 55q-23 -34 -60.5 -54.5t-97.5 -20.5t-104 19.5t-73 54t-43.5 80.5t-14.5 99q0 52 14.5 98t43.5 80.5t73 54t104 19.5q59 0 97.5 -21t60.5 -53q26 33 68.5 53.5
t101.5 20.5q49 0 86.5 -15t63 -42t38 -65t12.5 -83q0 -24 -3.5 -47t-8.5 -41h-310zM146 242q0 -76 32.5 -123t99.5 -47q41 0 69 17t44 49q-15 45 -15 104q0 27 3 52t10 48q-15 32 -42.5 50.5t-68.5 18.5q-67 0 -99.5 -47t-32.5 -122zM604 415q-60 0 -90.5 -40t-35.5 -106
h226v18q0 61 -23.5 94.5t-76.5 33.5z" />
    <glyph glyph-name="Scaron" unicode="&#x160;" horiz-adv-x="534" 
d="M241 -11q-66 0 -114 12t-85 32l27 87q32 -17 75.5 -27.5t91.5 -10.5q64 0 106.5 24.5t42.5 77.5q0 26 -12.5 44.5t-32.5 31.5t-47 23t-55 19q-31 10 -65 24t-62.5 36.5t-47.5 56t-19 83.5q0 39 13.5 72t41.5 58t72 39t106 14q54 0 98 -10t82 -30l-27 -84
q-34 16 -72.5 23.5t-76.5 7.5q-69 0 -100.5 -25t-31.5 -63q0 -26 11.5 -43.5t30.5 -30.5t44 -22.5t52 -18.5q35 -12 71 -27.5t65.5 -39t48 -57.5t18.5 -83q0 -50 -18.5 -86t-51.5 -60t-79 -35.5t-100 -11.5zM300 737h-66l-125 144h105l53 -81l54 81h104z" />
    <glyph glyph-name="scaron" unicode="&#x161;" horiz-adv-x="439" 
d="M200 71q51 0 72.5 17t21.5 43q0 33 -29.5 50t-73.5 30q-32 9 -59.5 21t-47 29.5t-30.5 41t-11 56.5q0 63 49 99t134 36q42 0 81.5 -8t73.5 -25l-24 -79q-56 29 -124 29q-46 0 -66.5 -14t-20.5 -38q0 -27 22 -41t60 -26q41 -14 72.5 -28.5t53 -33.5t32.5 -44t11 -58
q0 -61 -47.5 -100t-144.5 -39q-48 0 -91 8.5t-74 25.5l24 79q27 -14 62.5 -22.5t73.5 -8.5zM252 541h-66l-125 144h105l53 -81l54 81h104z" />
    <glyph glyph-name="Ydieresis" unicode="&#x178;" horiz-adv-x="582" 
d="M291 379l163 295h116l-225 -387v-287h-108v287l-225 387h116l163 -295v0zM190 865q29 0 44 -17t15 -40t-15 -39.5t-44 -16.5t-44 16.5t-15 39.5t15 40t44 17zM392 865q29 0 44 -17t15 -40t-15 -39.5t-44 -16.5t-44 16.5t-15 39.5t15 40t44 17z" />
    <glyph glyph-name="Zcaron" unicode="&#x17d;" horiz-adv-x="553" 
d="M37 70l334 510l-309 -1v95h443v-70l-333 -510l338 1v-95h-473v70zM309 737h-66l-125 144h105l53 -81l54 81h104z" />
    <glyph glyph-name="zcaron" unicode="&#x17e;" horiz-adv-x="455" 
d="M38 57l242 347h-224v79h349v-57l-242 -347h251v-79h-376v57zM260 541h-66l-125 144h105l53 -81l54 81h104z" />
    <glyph glyph-name="florin" unicode="&#x192;" horiz-adv-x="580" 
d="M223 327h-83v70h93l13 95q11 83 53 132t129 49q29 0 52 -7t40 -16l-33 -72q-23 12 -54 12q-41 0 -58 -25.5t-24 -72.5l-14 -95h119v-70h-129l-30 -225q-6 -41 -18.5 -74.5t-34 -57t-53.5 -36t-75 -12.5q-30 0 -52.5 6.5t-39.5 16.5l33 71q21 -11 53 -11q40 0 58.5 25
t24.5 72z" />
    <glyph glyph-name="circumflex" unicode="&#x2c6;" horiz-adv-x="316" 
d="M316 542h-104l-54 81l-53 -81h-105l125 144h66z" />
    <glyph glyph-name="caron" unicode="&#x2c7;" horiz-adv-x="316" 
d="M191 541h-66l-125 144h105l53 -81l54 81h104z" />
    <glyph glyph-name="breve" unicode="&#x2d8;" horiz-adv-x="316" 
d="M159 561q-72 0 -111 38t-45 101h80q11 -60 76 -60t76 60h78q-6 -63 -44 -101t-110 -38z" />
    <glyph glyph-name="dotaccent" unicode="&#x2d9;" horiz-adv-x="316" 
d="M158 553q-31 0 -47 18t-16 43q0 24 16 42.5t47 18.5t47 -18.5t16 -42.5q0 -25 -16 -43t-47 -18z" />
    <glyph glyph-name="ring" unicode="&#x2da;" horiz-adv-x="316" 
d="M158 730q42 0 70.5 -28t28.5 -69q0 -40 -28 -68t-71 -28t-71 28t-28 68q0 41 28.5 69t70.5 28zM158 591q17 0 27.5 11.5t10.5 31.5q0 19 -10.5 30.5t-27.5 11.5t-27.5 -11.5t-10.5 -30.5q0 -20 10.5 -31.5t27.5 -11.5z" />
    <glyph glyph-name="ogonek" unicode="&#x2db;" horiz-adv-x="316" 
d="M117 2h67l94 -140h-112z" />
    <glyph glyph-name="tilde" unicode="&#x2dc;" horiz-adv-x="316" 
d="M316 667q0 -54 -23.5 -83.5t-65.5 -29.5q-24 0 -41.5 7.5t-32 17t-27 17t-26.5 7.5q-20 0 -26.5 -14t-6.5 -31h-67q0 52 22.5 82.5t67.5 30.5q23 0 41 -8t33 -17t27 -17t24 -8q20 0 26.5 13t6.5 33h68z" />
    <glyph glyph-name="hungarumlaut" unicode="&#x2dd;" horiz-adv-x="316" 
d="M285 691h105l-117 -142h-69zM117 691h105l-118 -142h-69z" />
    <glyph glyph-name="uni03A9" unicode="&#x3a9;" horiz-adv-x="755" 
d="M379 590q-48 0 -87.5 -15.5t-68.5 -44t-45 -70.5t-16 -94q0 -53 17 -100t42.5 -86.5t55.5 -69.5t56 -49v-61h-232v83h118q-22 19 -48.5 48.5t-50 67.5t-39.5 84t-16 98q0 69 23 124.5t64.5 95.5t98.5 61.5t126 21.5t126.5 -21.5t99 -61.5t64.5 -95.5t23 -124.5
q0 -52 -16 -98t-39.5 -84t-50.5 -67.5t-49 -48.5h119v-83h-233v61q26 19 56.5 49t56 69.5t42.5 86.5t17 100q0 52 -16 94t-44.5 70.5t-68 44t-85.5 15.5z" />
    <glyph glyph-name="pi" unicode="&#x3c0;" horiz-adv-x="620" 
d="M580 11q-17 -11 -40 -16t-48 -5q-39 0 -64 11.5t-39.5 31t-20 45.5t-5.5 55v268h-112v-199q0 -24 -2.5 -53.5t-7 -58t-11 -53t-15.5 -37.5h-105q11 17 18.5 44t12.5 56t7.5 56.5t2.5 45.5v198q-29 -2 -54 -9t-48 -18l-16 78q10 6 25.5 12t33 10.5t36.5 7.5t36 3h412v-83
h-113v-274q0 -25 10.5 -41t35.5 -16q26 0 49 11z" />
    <glyph glyph-name="uni0E00" unicode="&#xe00;" horiz-adv-x="195" 
 />
    <glyph glyph-name="uni0E01" unicode="&#xe01;" horiz-adv-x="613" 
d="M435 0v350q0 66 -34.5 99t-97.5 33q-25 0 -48 -6t-42.5 -17t-34 -25.5t-21.5 -30.5l80 -70q-29 -12 -43.5 -34t-14.5 -57v-242h-108v236q0 30 14.5 55.5t38.5 39.5l-81 68q9 33 32.5 64t57.5 55t77.5 38.5t93.5 14.5q58 0 103 -16.5t75 -45.5t45.5 -69.5t15.5 -89.5v-350
h-108z" />
    <glyph glyph-name="uni0E02" unicode="&#xe02;" horiz-adv-x="561" 
d="M164 183q0 -52 26.5 -79.5t84.5 -27.5q55 0 81.5 26t26.5 91v367h108v-366q0 -98 -51.5 -151.5t-164.5 -53.5q-114 0 -166 53t-52 142v64q0 31 15 55.5t32.5 46t32.5 40.5t15 39v19q0 24 -24 24h-65v88h78q65 0 89.5 -27t24.5 -76v-27q0 -28 -14 -51t-31.5 -44t-31.5 -42
t-14 -45v-65z" />
    <glyph glyph-name="uni0E03" unicode="&#xe03;" horiz-adv-x="568" 
d="M171 183q0 -52 26.5 -79.5t83.5 -27.5q55 0 82 26t27 91v367h108v-366q0 -99 -51.5 -152t-165.5 -53q-113 0 -165 53t-52 142v71q0 30 16 55t35 47.5t35 43.5t16 44v16q0 9 -4.5 15t-15.5 6q-12 0 -21 -10t-14 -27l-83 39v87l77 -39q11 15 30.5 25t46.5 10q44 0 66 -26.5
t22 -73.5v-19q0 -31 -15.5 -56t-34 -47t-34 -43.5t-15.5 -46.5v-72z" />
    <glyph glyph-name="uni0E04" unicode="&#xe04;" horiz-adv-x="629" 
d="M178 241q12 26 39 44t69 18h64v-92h-65q-86 0 -107 -79v-132h-108v351q0 46 16.5 86.5t47.5 70t76.5 46.5t103.5 17t103.5 -17t77 -46.5t48 -70t16.5 -86.5v-351h-108v351q0 57 -34.5 94t-102.5 37q-67 0 -101.5 -37t-34.5 -94v-110z" />
    <glyph glyph-name="uni0E05" unicode="&#xe05;" horiz-adv-x="639" 
d="M178 241q13 26 40.5 44t70.5 18h64v-92h-66q-86 0 -109 -79v-132h-108v387q0 73 37 120t109 64l103 -66l104 66q72 -17 108.5 -64t36.5 -120v-387h-108v390q0 68 -51 83l-90 -53l-90 53q-24 -8 -37.5 -28t-13.5 -55v-149z" />
    <glyph glyph-name="uni0E06" unicode="&#xe06;" horiz-adv-x="613" 
d="M183 180q20 -42 60 -72t87 -30q55 0 80 33t25 97v352h108v-355q0 -104 -48.5 -160t-143.5 -56q-59 0 -100.5 25.5t-67.5 60.5l-10 -75h-98v250q0 30 14.5 55.5t32.5 48.5t32.5 45t14.5 46v16q0 9 -4.5 15t-15.5 6q-12 0 -21 -10t-14 -27l-83 39v87l77 -39q11 15 30.5 25
t46.5 10q44 0 66 -26.5t22 -73.5v-16q0 -33 -14 -59.5t-31 -49.5t-31 -45t-14 -47v-70z" />
    <glyph glyph-name="uni0E07" unicode="&#xe07;" horiz-adv-x="564" 
d="M175 0l-169 560h108l142 -471h12q28 0 54 14t46 41t32 65.5t12 86.5q0 101 -32.5 143.5t-81.5 42.5q-33 0 -64 -12l-16 82q18 9 43.5 14t49.5 5q45 0 83.5 -18.5t66.5 -54t43.5 -86.5t15.5 -116q0 -69 -19.5 -123.5t-53.5 -93t-80.5 -59t-101.5 -20.5h-90z" />
    <glyph glyph-name="uni0E08" unicode="&#xe08;" horiz-adv-x="545" 
d="M167 0l-52 211q-5 23 -27 23h-38v89h59q41 0 65 -15.5t35 -60.5l38 -158h12q26 1 50 16t43 41.5t30 64.5t11 87q0 97 -41 140.5t-116 43.5q-52 0 -102.5 -19t-90.5 -54l-33 80q42 34 101 58t128 24q129 0 195.5 -72.5t66.5 -201.5q0 -64 -19 -118.5t-52 -94t-78 -62
t-97 -22.5h-88z" />
    <glyph glyph-name="uni0E09" unicode="&#xe09;" horiz-adv-x="594" 
d="M37 234v89h69q40 0 64 -20.5t24 -68.5v-68q0 -50 21.5 -69t63.5 -19q51 0 85 30t52 72v155q0 71 -34.5 109t-105.5 38q-59 0 -113 -21.5t-94 -51.5l-39 82q51 35 112.5 57.5t135.5 22.5q124 0 185 -63t61 -173v-335h-99l-9 75q-12 -17 -27 -32.5t-34.5 -27.5t-45.5 -19
t-60 -7q-79 0 -120.5 42t-41.5 130v51q0 22 -19 22h-31z" />
    <glyph glyph-name="uni0E0A" unicode="&#xe0a;" horiz-adv-x="561" 
d="M164 183q0 -52 27 -79.5t84 -27.5q55 0 82 26t27 91v102q0 37 -14 53t-40 16h-17l-16 42l106 154h115l-113 -146q40 -11 63.5 -43t23.5 -77v-100q0 -99 -51.5 -152t-165.5 -53q-113 0 -165.5 53t-52.5 142v64q0 31 15 55.5t32.5 46t32.5 40.5t15 39v19q0 24 -24 24h-65
v88h78q65 0 89.5 -27t24.5 -76v-27q0 -28 -14 -51t-31.5 -44t-31.5 -42t-14 -45v-65z" />
    <glyph glyph-name="uni0E0B" unicode="&#xe0b;" horiz-adv-x="567" 
d="M498 194q0 -99 -51.5 -152t-165.5 -53q-113 0 -165 53t-52 142l-1 71q0 30 16 55t35.5 47.5t35.5 43.5t16 44v16q0 9 -4.5 15t-15.5 6q-12 0 -21 -10t-14 -27l-83 39v87l77 -39q11 15 30.5 25t46.5 10q44 0 66 -26.5t22 -73.5v-19q0 -31 -15.5 -56t-34 -47t-34 -43.5
t-15.5 -46.5v-72q0 -52 26.5 -79.5t83.5 -27.5q55 0 82 26t27 91v102q0 37 -14 53t-40 16h-17l-16 42l106 154h115l-113 -146q40 -11 63.5 -43t23.5 -77v-100z" />
    <glyph glyph-name="uni0E0C" unicode="&#xe0c;" horiz-adv-x="929" 
d="M751 560h108v-355q0 -104 -46.5 -160t-134.5 -56q-52 0 -92 25.5t-66 60.5l-9 -75h-99v350q0 66 -32 99t-89 33q-22 0 -42.5 -6t-38.5 -17t-32 -25.5t-21 -30.5l80 -70q-29 -12 -43.5 -34t-14.5 -57v-134q0 -10 4 -15.5t15 -5.5h56v-87h-83q-49 0 -74.5 27.5t-25.5 72.5
v136q0 30 14.5 55.5t38.5 39.5l-81 68q9 33 31.5 64t55 55t74 38.5t89.5 14.5q56 0 98.5 -16.5t71 -45.5t43 -69.5t14.5 -89.5v-170q20 -42 58 -72t79 -30q94 0 94 130v352z" />
    <glyph glyph-name="uni0E0D" unicode="&#xe0d;" horiz-adv-x="929" 
d="M750 86q-10 -15 -25 -30t-35 -27.5t-45 -20.5t-55 -8q-38 0 -71 11t-57 34.5t-37.5 60t-13.5 87.5v157q0 66 -31.5 99t-88.5 33q-22 0 -42.5 -6t-38.5 -17t-32 -25.5t-21 -30.5l80 -70q-29 -12 -43.5 -34t-14.5 -57v-134q0 -10 4 -15.5t15 -5.5h56v-87h-83
q-49 0 -74.5 27.5t-25.5 72.5v136q0 30 14.5 55.5t38.5 39.5l-81 68q9 33 31.5 64t55 55t74 38.5t89.5 14.5q56 0 98 -16.5t70.5 -45.5t43 -69.5t14.5 -89.5v-154q0 -54 23 -80.5t67 -26.5q50 0 85 27t55 65v379h108v-510q0 -56 -17.5 -97t-49 -68t-74.5 -40t-94 -13
q-60 0 -106.5 13t-83.5 33l27 78q33 -18 73.5 -28t77.5 -10q31 0 57 5t44.5 19.5t28.5 39.5t10 65v39z" />
    <glyph glyph-name="uni0E0E" unicode="&#xe0e;" horiz-adv-x="622" 
d="M552 -200h-122q-23 22 -56 38t-70 16q-45 0 -79.5 -13t-72.5 -44l-29 84q30 28 70 45.5t96 17.5q22 0 45 -5t43.5 -14t37.5 -20.5t29 -24.5v470q0 66 -35 99t-98 33q-51 0 -91 -23t-55 -56l90 -76q-29 -12 -42.5 -32.5t-13.5 -55.5v-139q0 -44 -26.5 -72t-74.5 -28h-71
v87h45q19 0 19 21v124q0 30 13.5 55t37.5 38l-91 74q9 33 32.5 64t57.5 55t77.5 38.5t94.5 14.5q59 0 103.5 -16.5t74.5 -45.5t45.5 -69.5t15.5 -89.5v-550z" />
    <glyph glyph-name="uni0E0F" unicode="&#xe0f;" horiz-adv-x="622" 
d="M552 -200h-108l-108 66q-18 -32 -50.5 -52.5t-75.5 -20.5q-34 0 -66 8t-55 22l27 87q20 -14 45 -23t48 -9q43 0 71.5 24t37.5 65l126 -78v461q0 66 -35 99t-98 33q-51 0 -91 -23t-55 -56l90 -76q-29 -12 -42.5 -32.5t-13.5 -55.5v-139q0 -45 -25.5 -72.5t-75.5 -27.5h-71
v87h45q19 0 19 21v124q0 30 13.5 55t37.5 38l-91 74q9 33 32.5 64t57.5 55t77.5 38.5t94.5 14.5q59 0 103.5 -16.5t74.5 -45.5t45.5 -69.5t15.5 -89.5v-550z" />
    <glyph glyph-name="uni0E10" unicode="&#xe10;" horiz-adv-x="545" 
d="M167 0l-52 211q-5 23 -27 23h-38v89h59q41 0 65 -15.5t35 -60.5l38 -158h12q26 1 50 16t43 41.5t30 64.5t11 87q0 93 -41 138.5t-116 45.5q-52 0 -102.5 -19t-90.5 -54l-33 80q42 36 101 59t128 23q63 0 118 -25l45 53h121l-91 -108q33 -37 51 -86t18 -108
q0 -64 -19 -118.5t-52 -94t-78 -62t-97 -22.5h-88zM331 -200q-33 0 -59.5 14t-40.5 36q-13 -23 -41 -36.5t-60 -13.5h-72v88h74q62 0 99 49q20 -24 40.5 -36.5t52.5 -12.5h43v57h99v-145h-135z" />
    <glyph glyph-name="uni0E11" unicode="&#xe11;" horiz-adv-x="620" 
d="M180 0h-108v226q0 32 9 62t22.5 56.5t30 48.5t32.5 38v30q0 9 -4.5 15t-15.5 6q-12 0 -21 -10t-14 -27l-78 39v87l72 -39q11 15 30.5 25t46.5 10q34 0 53 -19t21 -48q20 29 57 50t85 21q31 0 59 -11t48 -34t32 -58t12 -83v-385h-108v382q0 55 -15.5 77.5t-47.5 22.5
q-38 0 -74 -24.5t-63.5 -62t-44 -82t-16.5 -85.5v-228z" />
    <glyph glyph-name="uni0E12" unicode="&#xe12;" horiz-adv-x="991" 
d="M813 560h108v-355q0 -104 -47 -160t-141 -56q-58 0 -99 25.5t-67 60.5l-9 -75h-99v390q0 68 -51 83l-78 -49l-76 48q-46 -15 -73.5 -65t-27.5 -129q0 -56 11.5 -93.5t30.5 -60t42 -32.5t46 -10q20 0 37 2.5t34 10.5l20 -81q-19 -10 -43.5 -15.5t-55.5 -5.5
q-47 0 -89 16.5t-73.5 51t-49.5 88.5t-18 129q0 55 14 104t40 87.5t62.5 65t82.5 36.5l86 -63l92 63q72 -17 108.5 -64t36.5 -120v-207q20 -42 59.5 -72t85.5 -30q54 0 77.5 34t23.5 96v352z" />
    <glyph glyph-name="uni0E13" unicode="&#xe13;" horiz-adv-x="929" 
d="M520 184q0 -106 82 -106q50 0 88.5 30t58.5 72v380h108v-560h-99l-9 75q-26 -35 -65.5 -60.5t-95.5 -25.5q-85 0 -130.5 49t-45.5 143v169q0 66 -32 99t-89 33q-22 0 -42.5 -6t-38.5 -17t-32 -25.5t-21 -30.5l80 -70q-29 -12 -43.5 -34t-14.5 -57v-134q0 -10 4 -15.5
t15 -5.5h56v-87h-83q-49 0 -74.5 27.5t-25.5 72.5v136q0 30 14.5 55.5t38.5 39.5l-81 68q9 33 31.5 64t55 55t74 38.5t89.5 14.5q56 0 98.5 -16.5t71 -45.5t43 -69.5t14.5 -89.5v-166z" />
    <glyph glyph-name="uni0E14" unicode="&#xe14;" horiz-adv-x="635" 
d="M461 0v336q0 64 -35.5 105t-103.5 41q-81 0 -125 -56t-44 -153q0 -54 12 -90.5t31 -59t42.5 -32t46.5 -9.5q20 0 37 2.5t34 10.5l20 -81q-19 -10 -43.5 -15.5t-55.5 -5.5q-45 0 -87 16.5t-74.5 51t-51.5 87.5t-19 125q0 63 17.5 117.5t52 94.5t86 63t118.5 23
q62 0 109 -18.5t78.5 -50.5t47 -75t15.5 -92v-335h-108z" />
    <glyph glyph-name="uni0E15" unicode="&#xe15;" horiz-adv-x="648" 
d="M336 508l96 63q72 -17 108.5 -64t36.5 -120v-387h-108v390q0 70 -51 85l-82 -51l-80 50q-46 -15 -74.5 -66t-28.5 -132q0 -55 12 -92t31 -59.5t42.5 -32.5t46.5 -10q20 0 37 2.5t34 10.5l20 -81q-19 -10 -43.5 -15.5t-55.5 -5.5q-47 0 -89.5 16t-74 50.5t-50 88
t-18.5 128.5q0 56 14 105.5t40.5 88t63.5 65t83 36.5z" />
    <glyph glyph-name="uni0E16" unicode="&#xe16;" horiz-adv-x="614" 
d="M179 108q0 -10 4 -15.5t15 -5.5h56v-87h-83q-49 0 -74.5 27.5t-25.5 72.5v136q0 30 14.5 55.5t38.5 39.5l-81 68q9 33 32.5 64t57.5 55t78 38.5t94 14.5q58 0 103 -16.5t75 -45.5t45.5 -69.5t15.5 -89.5v-350h-108v350q0 66 -35 99t-98 33q-25 0 -48 -6t-42.5 -17
t-34 -25.5t-21.5 -30.5l80 -70q-29 -12 -43.5 -34t-14.5 -57v-134z" />
    <glyph glyph-name="uni0E17" unicode="&#xe17;" horiz-adv-x="622" 
d="M444 360q0 63 -22.5 92.5t-64.5 29.5q-54 0 -100.5 -28.5t-76.5 -70.5v-383h-108v560h98l10 -76q16 16 37 31.5t45 28t52 20t60 7.5q84 0 131 -55.5t47 -152.5v-363h-108v360z" />
    <glyph glyph-name="uni0E18" unicode="&#xe18;" horiz-adv-x="561" 
d="M513 161q0 -89 -55 -129.5t-179 -40.5q-125 0 -179.5 42t-54.5 137v58h104v-58q0 -55 30 -75t100 -20q36 0 61 3.5t40.5 13.5t22.5 26.5t7 42.5v47q0 23 -12 34.5t-35 14.5l-183 25q-63 9 -100.5 40.5t-37.5 93.5q0 71 61 113t173 42q124 0 213 -46l-20 -82
q-44 23 -92 33.5t-99 10.5q-66 0 -99.5 -19t-33.5 -47q0 -23 14 -35t38 -16l181 -26q65 -10 100 -41.5t35 -96.5v-45z" />
    <glyph glyph-name="uni0E19" unicode="&#xe19;" horiz-adv-x="613" 
d="M178 198q0 -64 26 -92t79 -28q47 0 88.5 29.5t61.5 72.5v380h108v-560h-98l-10 75q-26 -35 -69.5 -60.5t-106.5 -25.5q-91 0 -139 51t-48 155v365h108v-362z" />
    <glyph glyph-name="uni0E1A" unicode="&#xe1a;" horiz-adv-x="614" 
d="M307 -11q-114 0 -175.5 55.5t-61.5 164.5v351h108v-351q0 -62 33 -96.5t96 -34.5t96 34.5t33 96.5v351h108v-351q0 -109 -61.5 -164.5t-175.5 -55.5z" />
    <glyph glyph-name="uni0E1B" unicode="&#xe1b;" horiz-adv-x="614" 
d="M307 -11q-114 0 -175.5 55.5t-61.5 164.5v351h108v-351q0 -62 33 -96.5t96 -34.5t96 34.5t33 96.5v541h108v-541q0 -109 -61.5 -164.5t-175.5 -55.5z" />
    <glyph glyph-name="uni0E1C" unicode="&#xe1c;" horiz-adv-x="673" 
d="M368 240q-10 22 -17.5 45t-11.5 38h-2q-3 -15 -10.5 -38t-17.5 -45l-120 -240h-117v434q0 27 4.5 50t15.5 40t30.5 26.5t49.5 9.5h74v-88h-50q-20 0 -20 -21v-187q0 -42 -3 -79.5t-10 -78.5h3q20 74 48 127l87 170h74l92 -181q13 -25 21.5 -53t18.5 -63h2q-6 41 -9 78.5
t-3 78.5v297h104v-560h-117z" />
    <glyph glyph-name="uni0E1D" unicode="&#xe1d;" horiz-adv-x="673" 
d="M368 240q-10 22 -17.5 45t-11.5 38h-2q-3 -15 -10.5 -38t-17.5 -45l-120 -240h-117v434q0 27 4.5 50t15.5 40t30.5 26.5t49.5 9.5h74v-88h-50q-20 0 -20 -21v-187q0 -42 -3 -79.5t-10 -78.5h3q20 74 48 127l87 170h74l92 -181q13 -25 21.5 -53t18.5 -63h2q-6 41 -9 78.5
t-3 78.5v487h104v-750h-117z" />
    <glyph glyph-name="uni0E1E" unicode="&#xe1e;" horiz-adv-x="727" 
d="M412 532l87 -289q9 -32 14 -66.5t12 -81.5h3q1 24 1.5 43.5t2 37t3.5 34t5 36.5l50 314h107l-94 -560h-119l-85 271q-12 38 -20.5 83.5t-13.5 93.5h-3q-5 -48 -13.5 -93.5t-20.5 -83.5l-85 -271h-119l-94 560h107l50 -313q3 -20 5 -37t3 -34.5t2 -37t2 -43.5h3
q7 47 12.5 82t14.5 67l86 288h97z" />
    <glyph glyph-name="uni0E1F" unicode="&#xe1f;" horiz-adv-x="727" 
d="M414 532l84 -267q12 -38 20.5 -76.5t16.5 -93.5h3q0 27 1 49t2 41.5t2.5 38t3.5 39.5l50 487h100l-85 -750h-117l-90 271q-13 38 -23 79.5t-16 89.5h-2q-5 -48 -13 -89.5t-20 -79.5l-88 -271h-119q-23 141 -46.5 280t-47.5 280h107q6 -33 11 -67t11 -72.5t13 -82.5
t16 -98q3 -17 4.5 -33t3 -32.5t2.5 -36t2 -43.5h3q5 48 11.5 82.5t16.5 66.5l85 288h98z" />
    <glyph glyph-name="uni0E20" unicode="&#xe20;" horiz-adv-x="622" 
d="M199 100q0 -45 -25.5 -73t-75.5 -27h-71v87h45q19 0 19 21v124q0 30 13.5 55t37.5 38l-91 74q9 33 32.5 64t57.5 55t77.5 38.5t94.5 14.5q59 0 103.5 -16.5t74.5 -45.5t45.5 -69.5t15.5 -89.5v-350h-108v350q0 66 -35 99t-98 33q-51 0 -91 -23t-55 -56l90 -76
q-29 -12 -42.5 -32.5t-13.5 -55.5v-139z" />
    <glyph glyph-name="uni0E21" unicode="&#xe21;" horiz-adv-x="613" 
d="M435 560h108v-355q0 -104 -49.5 -160t-143.5 -56q-59 0 -101.5 25.5t-68.5 60.5l-10 -75h-98v560h108v-380q20 -42 61 -72t88 -30q106 0 106 130v352z" />
    <glyph glyph-name="uni0E22" unicode="&#xe22;" horiz-adv-x="590" 
d="M412 560h108v-348q0 -50 -14 -91t-44 -70.5t-78 -45.5t-116 -16q-103 0 -164.5 47t-61.5 137q0 49 26.5 84t70.5 46q-19 5 -36.5 16.5t-31 28.5t-21.5 39t-8 48q0 28 10 52t29 42t46.5 28t62.5 10q33 0 58 -5.5t44 -13.5l-12 -85q-14 6 -30.5 10t-32.5 4q-35 0 -53 -16
t-18 -42q0 -17 7 -30t18.5 -22t26 -13.5t28.5 -4.5h81l9 -87h-74q-42 0 -68 -23t-26 -62q0 -24 10 -42.5t26.5 -31t39 -19t47.5 -6.5q71 0 106 35.5t35 99.5v347z" />
    <glyph glyph-name="uni0E23" unicode="&#xe23;" horiz-adv-x="500" 
d="M229 77q60 0 91.5 19.5t31.5 54.5q0 19 -11.5 33.5t-30.5 26t-42 19.5t-47 16q-38 12 -71 26t-57 34t-38 48t-14 68q0 33 15 60.5t42.5 47t66.5 30.5t86 11q55 0 102 -12t85 -32l-28 -80q-35 19 -72 27t-80 8q-51 0 -81.5 -16t-30.5 -45q0 -17 9.5 -29.5t25.5 -22.5
t38 -18.5t48 -16.5q45 -15 80 -31t59.5 -37.5t37.5 -50.5t13 -68q0 -70 -54.5 -114t-166.5 -44q-118 0 -192 43l26 83q34 -17 74.5 -27.5t84.5 -10.5z" />
    <glyph glyph-name="uni0E24" unicode="&#xe24;" horiz-adv-x="614" 
d="M179 108q0 -10 4 -15.5t15 -5.5h56v-87h-83q-49 0 -74.5 27.5t-25.5 72.5v136q0 30 14.5 55.5t38.5 39.5l-81 68q9 33 32.5 64t57.5 55t78 38.5t94 14.5q58 0 103 -16.5t75 -45.5t45.5 -69.5t15.5 -89.5v-550h-108v550q0 66 -35 99t-98 33q-25 0 -48 -6t-42.5 -17
t-34 -25.5t-21.5 -30.5l80 -70q-29 -12 -43.5 -34t-14.5 -57v-134z" />
    <glyph glyph-name="uni0E25" unicode="&#xe25;" horiz-adv-x="586" 
d="M409 0v257h-131q-63 0 -100.5 -21.5t-37.5 -72.5q0 -43 26.5 -65t64.5 -22q20 0 41.5 4.5t40.5 12.5l17 -83q-48 -20 -110 -20q-39 0 -73 10.5t-59 32t-39.5 54t-14.5 75.5q0 182 254 182h121v16q0 57 -29 91t-98 34q-60 0 -107.5 -18t-85.5 -44l-35 75q18 13 42.5 26.5
t54.5 23.5t64.5 16.5t72.5 6.5q109 0 168.5 -57t59.5 -153v-361h-107z" />
    <glyph glyph-name="uni0E26" unicode="&#xe26;" horiz-adv-x="622" 
d="M199 100q0 -45 -25.5 -73t-75.5 -27h-71v87h45q19 0 19 21v124q0 30 13.5 55t37.5 38l-91 74q9 33 32.5 64t57.5 55t77.5 38.5t94.5 14.5q59 0 103.5 -16.5t74.5 -45.5t45.5 -69.5t15.5 -89.5v-550h-108v550q0 66 -35 99t-98 33q-51 0 -91 -23t-55 -56l90 -76
q-29 -12 -42.5 -32.5t-13.5 -55.5v-139z" />
    <glyph glyph-name="uni0E27" unicode="&#xe27;" horiz-adv-x="527" 
d="M56 127q35 -21 75.5 -35t85.5 -14q74 0 115.5 50t41.5 150q0 106 -41.5 155t-115.5 49q-48 0 -86 -14t-76 -39l-25 83q41 26 92 42.5t105 16.5q123 0 189 -75t66 -211q0 -147 -68 -221.5t-192 -74.5q-116 0 -191 52z" />
    <glyph glyph-name="uni0E28" unicode="&#xe28;" horiz-adv-x="629" 
d="M178 241q12 26 39 44t69 18h62v-92h-63q-86 0 -107 -79v-132h-108v351q0 46 16.5 86.5t48 70t77 46.5t103.5 17q30 0 56.5 -6t49.5 -17l43 51h121l-87 -104q32 -29 46.5 -68t14.5 -81v-346h-108v346q0 57 -34 96.5t-102 39.5q-67 0 -102 -37t-35 -94v-110z" />
    <glyph glyph-name="uni0E29" unicode="&#xe29;" horiz-adv-x="627" 
d="M307 -11q-114 0 -175.5 55.5t-61.5 164.5v351h108v-351q0 -62 33 -96.5t96 -34.5t96 34.5t33 96.5v75h-125v87h125v189h108v-189h87l-22 -87h-65v-75q0 -109 -61.5 -164.5t-175.5 -55.5z" />
    <glyph glyph-name="uni0E2A" unicode="&#xe2a;" horiz-adv-x="586" 
d="M409 0v257h-131q-63 0 -100.5 -21.5t-37.5 -72.5q0 -43 26.5 -65t64.5 -22q20 0 41.5 4.5t40.5 12.5l17 -83q-48 -20 -110 -20q-39 0 -73 10.5t-59 32t-39.5 54t-14.5 75.5q0 182 254 182h121v16q0 27 -7 49.5t-22 39.5t-39 26.5t-58 9.5q-61 0 -108.5 -18t-85.5 -44
l-35 75q18 14 43.5 27t55.5 23.5t64 16.5t69 6q58 0 99 -19l39 47h120l-80 -97q26 -27 39 -63t13 -78v-361h-107z" />
    <glyph glyph-name="uni0E2B" unicode="&#xe2b;" horiz-adv-x="597" 
d="M462 0l-76 246q-27 85 -95 87l-111 -94v-239h-108v560h108v-205l246 205h140l-200 -165q52 -11 80.5 -45t44.5 -84l84 -266h-113z" />
    <glyph glyph-name="uni0E2C" unicode="&#xe2c;" horiz-adv-x="673" 
d="M601 0h-117q-26 51 -51 100.5t-50 100.5l-19 39q-11 21 -17.5 44.5t-11.5 38.5h-2q-4 -15 -10.5 -38.5t-17.5 -44.5l-116 -240h-117v560h104v-273q0 -36 -2.5 -82.5t-10.5 -98.5h3q9 35 18.5 63t21.5 53l91 181h74l74 -139q17 -32 33.5 -71.5t28.5 -86.5h2
q-7 48 -9.5 90.5t-2.5 89.5v144q0 39 -16 63.5t-54 24.5h-12l-16 42l135 190h109l-142 -183q50 -8 75 -47.5t25 -94.5v-425z" />
    <glyph glyph-name="uni0E2D" unicode="&#xe2d;" horiz-adv-x="598" 
d="M172 234q-22 0 -22 -24v-15q0 -117 134 -117q75 0 118.5 49t43.5 157q0 96 -45 147t-121 51q-63 0 -113 -20t-88 -49l-35 80q19 15 44 29t55.5 25t66 17.5t74.5 6.5q63 0 113 -19.5t85 -57t53.5 -91.5t18.5 -123q0 -145 -69.5 -218t-194.5 -73t-185.5 54.5t-60.5 151.5
v23q0 105 102 105h109v-89h-83z" />
    <glyph glyph-name="uni0E2E" unicode="&#xe2e;" horiz-adv-x="598" 
d="M172 234q-22 0 -22 -24v-15q0 -117 134 -117q75 0 118.5 49t43.5 157q0 46 -12.5 83t-34.5 62.5t-52.5 39t-66.5 13.5q-63 0 -113 -20t-88 -49l-35 80q19 15 44 29t55.5 25t66 17.5t74.5 6.5q59 0 111 -22l43 50h120l-85 -101q38 -38 59.5 -93.5t21.5 -124.5
q0 -145 -69.5 -218t-194.5 -73t-185.5 54.5t-60.5 151.5v23q0 105 102 105h109v-89h-83z" />
    <glyph glyph-name="uni0E2F" unicode="&#xe2f;" horiz-adv-x="553" 
d="M373 0v400q-20 -39 -65 -64t-99 -25q-45 0 -77.5 15t-54 42t-32 63.5t-10.5 79.5v49h106v-49q0 -115 87 -115q27 0 53.5 11t47.5 30t34 44.5t13 54.5v24h105v-560h-108z" />
    <glyph glyph-name="uni0E30" unicode="&#xe30;" horiz-adv-x="312" 
d="M143 453q0 -21 21 -21h102v-84h-123q-44 0 -72.5 22t-28.5 75v48h101v-40zM143 180q0 -21 21 -21h102v-84h-123q-44 0 -72.5 22t-28.5 75v48h101v-40z" />
    <glyph glyph-name="uni0E31" unicode="&#xe31;" 
d="M-201 744q0 -26 25 -26h246v-84h-265q-50 0 -78.5 24t-28.5 78v45h101v-37z" />
    <glyph glyph-name="uni0E32" unicode="&#xe32;" horiz-adv-x="481" 
d="M303 0v360q0 122 -105 122q-46 0 -88.5 -17t-74.5 -40l-28 79q35 26 89 46.5t112 20.5q100 0 151.5 -57t51.5 -158v-356h-108z" />
    <glyph glyph-name="uni0E33" unicode="&#xe33;" horiz-adv-x="481" 
d="M-126 619q-22 0 -41.5 8t-33.5 22.5t-22.5 33.5t-8.5 42q0 45 30.5 75t75.5 30t75.5 -30t30.5 -75q0 -23 -8.5 -42t-22.5 -33.5t-33.5 -22.5t-41.5 -8zM-126 684q17 0 29 12.5t12 29.5t-12 29t-29 12t-28.5 -12t-11.5 -29t11.5 -29.5t28.5 -12.5zM303 0v360
q0 122 -105 122q-46 0 -88.5 -17t-74.5 -40l-28 79q35 26 89 46.5t112 20.5q100 0 151.5 -57t51.5 -158v-356h-108z" />
    <glyph glyph-name="uni0E34" unicode="&#xe34;" 
d="M-512 634v84h442v-84h-442z" />
    <glyph glyph-name="uni0E35" unicode="&#xe35;" 
d="M-512 634v84h343v93h99v-177h-442z" />
    <glyph glyph-name="uni0E36" unicode="&#xe36;" 
d="M-174 634h-338v84h276q0 44 25 75t70 31q40 0 68 -27t28 -68q0 -20 -8 -37.5t-21.5 -30.5t-31 -20t-35.5 -7h-33zM-141 694q15 0 25 10.5t10 25.5t-10 25t-25 10q-14 0 -24.5 -10t-10.5 -25t10.5 -25.5t24.5 -10.5z" />
    <glyph glyph-name="uni0E37" unicode="&#xe37;" 
d="M-512 634v84h232v93h81v-97h48v97h81v-177h-442z" />
    <glyph glyph-name="uni0E38" unicode="&#xe38;" 
d="M-171 -174q0 22 -22 22h-39v84h75q45 0 66 -20t21 -68v-116h-101v98z" />
    <glyph glyph-name="uni0E39" unicode="&#xe39;" 
d="M-210 -282q-69 0 -103.5 29t-34.5 80v24h-57v81h153v-105q0 -20 12.5 -29t29.5 -9t29.5 9t12.5 29v105h98v-105q0 -51 -36 -80t-104 -29z" />
    <glyph glyph-name="uni0E3A" unicode="&#xe3a;" 
d="M-53 -132q0 -29 -21 -50t-52 -21q-15 0 -28 5.5t-23 15.5t-16 23t-6 27t6 27t16 22.5t23 15.5t28 6q31 0 52 -21t21 -50z" />
    <glyph glyph-name="uni0E3F" unicode="&#xe3f;" horiz-adv-x="580" 
d="M270 0h-198v651h198v99h60v-100q94 -7 139.5 -53.5t45.5 -120.5q0 -27 -9 -48.5t-22.5 -38t-30 -28t-32.5 -18.5q24 -5 45.5 -17t38.5 -30.5t27 -45t10 -60.5q0 -39 -12.5 -72.5t-39 -58t-66.5 -40t-94 -18.5v-101h-60v100zM270 89v203h-95v-203h95zM270 380v181h-95
v-181h95zM439 193q0 47 -29 69.5t-80 27.5v-199q51 6 80 32t29 70zM413 475q0 36 -22.5 57t-60.5 27v-177q36 6 59.5 28.5t23.5 64.5z" />
    <glyph glyph-name="uni0E40" unicode="&#xe40;" horiz-adv-x="254" 
d="M181 560v-560h-108v560h108z" />
    <glyph glyph-name="uni0E41" unicode="&#xe41;" horiz-adv-x="465" 
d="M180 560v-560h-107v560h107zM392 560v-560h-107v560h107z" />
    <glyph glyph-name="uni0E42" unicode="&#xe42;" horiz-adv-x="288" 
d="M103 0v607q0 43 -12.5 75t-30 54.5t-36 36t-31.5 18.5l-2 26q32 55 96 87.5t147 32.5q62 0 102 -9t73 -22l-17 -90q-35 18 -73 25.5t-78 7.5q-48 0 -83 -12.5t-53 -32.5q51 -29 79 -81.5t28 -123.5v-599h-109z" />
    <glyph glyph-name="uni0E43" unicode="&#xe43;" horiz-adv-x="288" 
d="M103 0v527q0 42 19 76t41.5 64t41.5 57t19 55q0 29 -17.5 49t-57.5 20q-39 0 -73 -19t-68 -52l-38 69q34 40 83.5 65.5t112.5 25.5q40 0 71 -12t52.5 -33t32.5 -49t11 -59q0 -41 -19 -73.5t-41.5 -62.5t-41.5 -62t-19 -73v-513h-109z" />
    <glyph glyph-name="uni0E44" unicode="&#xe44;" horiz-adv-x="288" 
d="M103 0v653q0 63 21.5 108.5t62.5 72.5h-220v87h343v-77q-49 -22 -73.5 -67t-24.5 -110v-667h-109z" />
    <glyph glyph-name="uni0E45" unicode="&#xe45;" horiz-adv-x="481" 
d="M303 -200v560q0 122 -105 122q-46 0 -88.5 -17t-74.5 -40l-28 79q35 26 89 46.5t112 20.5q100 0 151.5 -57t51.5 -158v-556h-108z" />
    <glyph glyph-name="uni0E46" unicode="&#xe46;" horiz-adv-x="569" 
d="M391 -200v619q0 65 -40 72l-81 -56l-87 56q-23 -5 -34.5 -21.5t-11.5 -39.5q0 -27 16 -42.5t38 -15.5q5 0 14 1t23 6l13 -77q-27 -13 -64 -13q-25 0 -49 8.5t-43 25.5t-30.5 44t-11.5 64q0 32 12 57t32 42.5t45.5 28t53.5 13.5l84 -61l84 61q72 -5 108.5 -51t36.5 -113
v-608h-108z" />
    <glyph glyph-name="uni0E47" unicode="&#xe47;" 
d="M-174 633q-26 0 -46 13.5t-31 35.5q-9 -23 -31.5 -38.5t-57.5 -15.5q-55 0 -88 32t-33 83q0 23 8.5 44.5t25.5 38.5t42.5 27t60.5 10h218v-77h-215q-26 0 -38 -13t-12 -31t11.5 -31t30.5 -13t32 12.5t16 29.5h56q4 -14 15.5 -22t31.5 -8h73v-77h-69z" />
    <glyph glyph-name="uni0E48" unicode="&#xe48;" 
d="M-169 862v149h99v-149h-99z" />
    <glyph glyph-name="uni0E49" unicode="&#xe49;" 
d="M-145 957q0 -15 14 -15h134v-80h-180q-20 0 -33.5 12t-13.5 32v25q0 8 -2.5 12t-10.5 4h-55v81h87q28 0 44 -12.5t16 -38.5v-20z" />
    <glyph glyph-name="uni0E4A" unicode="&#xe4a;" 
d="M-157 862l-7 16q9 9 9 28q0 14 -8 22t-20 10l-45 -33l-46 30q-10 -2 -16 -10t-6 -19q0 -14 3 -23.5t9 -22.5h-78q-8 14 -11 30t-3 31t6 30.5t17.5 28.5t29 21.5t40.5 10.5l56 -46l51 47q40 -2 61 -24.5t23 -55.5q0 -12 -3 -24q17 12 23.5 33.5t6.5 47.5q0 24 -13 49h89
q5 -11 7.5 -22t2.5 -26q0 -26 -9 -49t-25.5 -41t-40 -28.5t-51.5 -10.5h-52z" />
    <glyph glyph-name="uni0E4B" unicode="&#xe4b;" 
d="M-242 999l80 -2l-3 67h90l-2 -67l79 2v-73l-79 3l2 -67h-90l3 67l-80 -3v73z" />
    <glyph glyph-name="uni0E4C" unicode="&#xe4c;" 
d="M-94 829q-31 0 -31 -31v-28h-105v43q0 46 28 72.5t84 26.5h100v-83h-76z" />
    <glyph glyph-name="uni0E4D" unicode="&#xe4d;" 
d="M-126 619q-22 0 -41.5 8t-33.5 22.5t-22.5 33.5t-8.5 42q0 45 30.5 75t75.5 30t75.5 -30t30.5 -75q0 -23 -8.5 -42t-22.5 -33.5t-33.5 -22.5t-41.5 -8zM-126 684q17 0 29 12.5t12 29.5t-12 29t-29 12t-28.5 -12t-11.5 -29t11.5 -29.5t28.5 -12.5z" />
    <glyph glyph-name="uni0E4E" unicode="&#xe4e;" 
d="M-142 646q-14 -8 -30.5 -12.5t-37.5 -4.5q-24 0 -44.5 5t-36.5 16t-25 28.5t-9 42.5q0 40 28.5 67t90.5 20q-7 7 -11.5 17t-4.5 21q0 19 16.5 34t55.5 15h71l16 -63h-71q-6 0 -10 -5t-4 -12q0 -8 8.5 -15t21.5 -14l-18 -44q-33 10 -64 10q-19 0 -31 -7t-12 -21t12 -22
t32 -8q11 0 25.5 1.5t31.5 8.5v-58z" />
    <glyph glyph-name="uni0E4F" unicode="&#xe4f;" horiz-adv-x="546" 
d="M273 26q-44 0 -83 17t-68 46t-45.5 68t-16.5 83t16.5 83t45.5 68t68 45.5t83 16.5t83 -16.5t68 -45.5t45.5 -68t16.5 -83t-16.5 -83t-45.5 -68t-68 -46t-83 -17zM273 65q36 0 68 13.5t55.5 37.5t37 56t13.5 68t-13.5 67.5t-37 55.5t-55.5 37.5t-68 13.5t-68 -13.5
t-55.5 -37.5t-37.5 -55.5t-14 -67.5t14 -68t37.5 -56t55.5 -37.5t68 -13.5zM273 117q-26 0 -48.5 9.5t-39.5 26t-26.5 39t-9.5 47.5q0 26 10 49t26.5 39.5t39 26t47.5 9.5q26 0 48.5 -9.5t39.5 -26.5t26.5 -39.5t9.5 -47.5q0 -26 -10 -48.5t-26.5 -39t-39 -26t-47.5 -9.5z
M273 179q24 0 41.5 17.5t17.5 43.5q0 24 -17.5 41.5t-42.5 17.5q-24 0 -42 -17.5t-18 -42.5q0 -24 17.5 -42t43.5 -18z" />
    <glyph glyph-name="uni0E50" unicode="&#xe50;" horiz-adv-x="644" 
d="M149 242q0 -39 13.5 -70t36.5 -53t54.5 -33.5t67.5 -11.5t68 11.5t55 33.5t36.5 53t13.5 70t-13.5 70t-36.5 52.5t-55 33t-68 11.5t-67.5 -11.5t-54.5 -33t-36.5 -52.5t-13.5 -70zM44 242q0 60 22 106.5t59.5 79t88.5 49.5t108 17t107.5 -17t88.5 -49.5t60 -79t22 -106.5
t-22 -106.5t-60 -79t-89 -49.5t-108 -17t-107.5 17t-88 49.5t-59.5 79t-22 106.5z" />
    <glyph glyph-name="uni0E51" unicode="&#xe51;" horiz-adv-x="653" 
d="M261 -30h30q39 0 77 14t68 42.5t48.5 71.5t18.5 102q0 49 -13.5 88t-38.5 66t-59 41t-76 14q-38 0 -69.5 -11.5t-54 -32t-35 -48.5t-12.5 -62q0 -63 32 -97t81 -34q23 0 47.5 4.5t44.5 13.5l10 -77q-48 -25 -102 -25q-44 0 -83 13.5t-68.5 40t-47 67t-17.5 94.5t20 98
t56.5 75.5t87 48.5t110.5 17q67 0 121 -20.5t92 -59t59 -92.5t21 -120q0 -74 -25.5 -132.5t-69.5 -99t-103.5 -62t-126.5 -21.5h-33z" />
    <glyph glyph-name="uni0E52" unicode="&#xe52;" horiz-adv-x="756" 
d="M691 198q0 -44 -13 -80.5t-38 -62.5t-62 -40.5t-85 -14.5h-228q-48 0 -85 14.5t-62 40.5t-38 62.5t-13 80.5v362h106v-362q0 -56 26.5 -84.5t70.5 -28.5h219q43 0 69.5 28.5t26.5 84.5v116q0 41 -12 62.5t-41 27.5l-77 -57l-81 58q-20 -5 -31.5 -25t-11.5 -44
q0 -30 19.5 -52.5t49.5 -32.5l-24 -68q-65 10 -104.5 50.5t-39.5 107.5q0 58 34 100t97 53l92 -73l83 73q81 -10 117 -54.5t36 -127.5v-114z" />
    <glyph glyph-name="uni0E53" unicode="&#xe53;" horiz-adv-x="670" 
d="M290 180v145q0 39 -11.5 61.5t-42.5 22.5q-45 0 -64 -46.5t-19 -118.5q0 -79 23 -124.5t65 -45.5q22 0 49 11l20 -68q-33 -24 -75 -24q-44 0 -78.5 17.5t-58.5 50t-37 79t-13 103.5q0 56 12 102t35 79t56 51.5t75 18.5q45 0 71.5 -20t40.5 -52q16 32 43.5 52t77.5 20
q69 0 107.5 -45t38.5 -118v-331h-106v332q0 14 -2 28t-7.5 25t-16 17.5t-26.5 6.5q-34 0 -48.5 -22.5t-14.5 -61.5v-145h-94z" />
    <glyph glyph-name="uni0E54" unicode="&#xe54;" horiz-adv-x="617" 
d="M512 0q-47 0 -75.5 8.5t-51.5 31.5q-17 -20 -47 -35.5t-83 -15.5q-46 0 -84.5 17t-66.5 49.5t-44 78.5t-16 103q0 61 20.5 107.5t56.5 77t85.5 46t107.5 15.5h105q23 0 37.5 4t22.5 11t10.5 16.5t2.5 21.5v24h105v-24q0 -69 -42.5 -103.5t-121.5 -34.5h-118
q-77 0 -121.5 -37.5t-44.5 -121.5q0 -38 10 -68.5t26.5 -52.5t39 -33.5t48.5 -11.5q27 0 45 7t31 18q-11 17 -17 37.5t-6 41.5q0 32 10.5 55.5t28.5 38.5t42 22.5t51 7.5h79l-18 -83h-38q-23 0 -39 -15t-16 -43q0 -35 24.5 -56t77.5 -21h64l-18 -83h-62z" />
    <glyph glyph-name="uni0E55" unicode="&#xe55;" horiz-adv-x="617" 
d="M512 0q-47 0 -75.5 8.5t-51.5 31.5q-17 -20 -47 -35.5t-83 -15.5q-46 0 -84.5 17t-66.5 49.5t-44 78.5t-16 103q0 88 40 143.5t107 81.5q-8 19 -8 39q0 21 8 39.5t21.5 32t32 21.5t39.5 8t39.5 -8t32 -21.5t21.5 -32t8 -39.5q0 -8 -2 -18h36q23 0 37.5 4t22.5 11
t10.5 16.5t2.5 21.5v24h105v-24q0 -69 -42 -103.5t-122 -34.5h-118q-77 0 -121.5 -37.5t-44.5 -121.5q0 -38 10 -68.5t26.5 -52.5t39 -33.5t48.5 -11.5q27 0 45 7t31 18q-11 17 -17 37.5t-6 41.5q0 32 10.5 55.5t28.5 38.5t42 22.5t51 7.5h79l-18 -83h-38q-23 0 -39 -15
t-16 -43q0 -35 24.5 -56t77.5 -21h64l-18 -83h-62zM284 465q15 0 25.5 11t10.5 26q0 16 -10.5 26t-25.5 10q-14 0 -24.5 -10t-10.5 -26q0 -15 10.5 -26t24.5 -11z" />
    <glyph glyph-name="uni0E56" unicode="&#xe56;" horiz-adv-x="620" 
d="M189 226q-11 -12 -17 -28.5t-6 -32.5q0 -18 9 -34t26.5 -29t43 -20.5t58.5 -7.5q42 0 73.5 13.5t52 36.5t31 55t10.5 70q0 36 -11 65.5t-31.5 50.5t-49.5 33t-65 12q-52 0 -88 -19t-60 -51h-81l-79 230h106l44 -151q26 32 72 53.5t103 21.5q50 0 95 -18t78.5 -50.5
t53 -78t19.5 -101.5q0 -50 -15.5 -96.5t-49 -82t-85 -57t-123.5 -21.5q-56 0 -100.5 13t-75 37t-47 57t-16.5 73q0 36 14.5 64.5t35.5 47.5z" />
    <glyph glyph-name="uni0E57" unicode="&#xe57;" horiz-adv-x="818" 
d="M273 300v44q0 30 -8 47.5t-34 17.5q-21 0 -36 -12.5t-24.5 -34t-13.5 -52t-4 -66.5q0 -79 24.5 -124.5t63.5 -45.5q24 0 49 11l20 -68q-17 -13 -36 -18.5t-39 -5.5q-44 0 -78.5 17.5t-58.5 50t-37 79t-13 103.5q0 56 12 102t34.5 79t54.5 51.5t72 18.5t62 -17.5t32 -48.5
q14 31 42 48.5t71 17.5q57 0 89.5 -45t32.5 -118v-257h22q35 0 55.5 24t20.5 69v393h103v-384q0 -79 -44 -127.5t-134 -48.5h-125v335q0 29 -9 51.5t-39 22.5q-23 0 -33.5 -17t-10.5 -48v-44h-83z" />
    <glyph glyph-name="uni0E58" unicode="&#xe58;" horiz-adv-x="656" 
d="M295 398q-63 0 -95 -34t-32 -88v-107q0 -38 18 -59t45 -23l112 94l119 -93q26 8 40 29.5t14 50.5q0 35 -22 56t-53 25l32 79q32 -4 58.5 -18t45 -35.5t29 -49.5t10.5 -60q0 -34 -14 -64.5t-36.5 -53.5t-51.5 -37.5t-59 -15.5l-112 91l-99 -90q-85 2 -133 44.5t-48 122.5
v119q0 43 16 80t45.5 64t71 42.5t93.5 15.5h130q46 0 59.5 15t13.5 38v24h104v-24q0 -69 -42 -103.5t-122 -34.5h-137z" />
    <glyph glyph-name="uni0E59" unicode="&#xe59;" horiz-adv-x="634" 
d="M430 0l-118 335q-13 35 -28 54t-47 19q-21 0 -38 -12t-28.5 -33.5t-18 -51t-6.5 -65.5q0 -42 7.5 -74t20 -54t29 -33.5t33.5 -11.5q32 0 66 19l21 -72q-41 -30 -92 -30q-39 0 -73.5 17t-60.5 49.5t-41 80t-15 108.5q0 56 15 102t40.5 78.5t60.5 50.5t75 18
q53 0 83.5 -19.5t48.5 -52.5q-2 34 19.5 53t53.5 19q56 0 79 -53l20 119h93l-40 -205h-77q-8 28 -22 43.5t-37 15.5q-22 0 -34 -17t-12 -38l124 -359h-101z" />
    <glyph glyph-name="uni0E5B" unicode="&#xe5b;" horiz-adv-x="1148" 
d="M1133 186q-27 -9 -51 -13t-42 -4q-43 0 -75 21.5t-53 60.5l-40 -132h-45l-62 168l-58 -186h-46l-58 165q-15 -47 -42.5 -87.5t-65 -70t-84 -46.5t-99.5 -17q-57 0 -103.5 18.5t-79.5 51.5t-51 77.5t-18 96.5q0 49 16 91t45.5 72.5t70 47.5t90.5 17q43 0 78 -16.5
t59 -44.5t37.5 -63.5t14.5 -73.5h-79q-4 54 -33.5 89t-77.5 35q-33 0 -58 -13t-42.5 -35t-26 -49.5t-8.5 -56.5q0 -38 13 -68.5t36 -52t54 -33.5t67 -12q62 0 107 31t75 78t45.5 103t18.5 107h53l69 -198l51 177h52l59 -168l45 145h46q6 -79 36 -121.5t76 -42.5q28 0 61 12z
" />
    <glyph glyph-name="endash" unicode="&#x2013;" horiz-adv-x="525" 
d="M500 289v-76h-475v76h475z" />
    <glyph glyph-name="emdash" unicode="&#x2014;" horiz-adv-x="985" 
d="M925 289v-76h-865v76h865z" />
    <glyph glyph-name="quoteleft" unicode="&#x2018;" horiz-adv-x="219" 
d="M164 674q-16 -25 -27 -56.5t-11 -47.5q0 -13 11 -13q21 0 31.5 -15.5t10.5 -38.5q0 -25 -15 -40.5t-44 -15.5q-64 0 -64 67q0 19 6 42.5t15.5 47t21.5 45.5t24 38z" />
    <glyph glyph-name="quoteright" unicode="&#x2019;" horiz-adv-x="219" 
d="M55 460q8 12 15 27t12 29.5t7.5 27t2.5 20.5q0 13 -11 13q-20 0 -30.5 15.5t-10.5 38.5q0 25 14.5 40.5t43.5 15.5q65 0 65 -67q0 -20 -6 -43t-15.5 -46.5t-21.5 -45.5t-24 -38l-41 13v0z" />
    <glyph glyph-name="quotesinglbase" unicode="&#x201a;" horiz-adv-x="219" 
d="M55 -99q7 12 14 26.5t12 28.5t8 26.5t3 20.5q0 6 -2 10.5t-9 4.5q-20 0 -30.5 15.5t-10.5 38.5q0 25 15 40.5t43 15.5q65 0 65 -67q0 -20 -6 -43t-15.5 -46.5t-21.5 -45t-24 -37.5z" />
    <glyph glyph-name="quotedblleft" unicode="&#x201c;" horiz-adv-x="387" 
d="M332 674q-16 -25 -27 -56.5t-11 -47.5q0 -13 11 -13q21 0 31.5 -15.5t10.5 -38.5q0 -25 -15 -40.5t-44 -15.5q-64 0 -64 67q0 19 6 42.5t15.5 47t21.5 45.5t24 38zM164 674q-16 -25 -27 -56.5t-11 -47.5q0 -13 11 -13q21 0 31.5 -15.5t10.5 -38.5q0 -25 -15 -40.5
t-44 -15.5q-64 0 -64 67q0 19 6 42.5t15.5 47t21.5 45.5t24 38z" />
    <glyph glyph-name="quotedblright" unicode="&#x201d;" horiz-adv-x="387" 
d="M55 460q16 25 27 56.5t11 47.5q0 13 -11 13q-21 0 -31.5 15.5t-10.5 38.5q0 25 15 40.5t44 15.5q64 0 64 -67q0 -20 -6 -43t-15.5 -46.5t-21.5 -45.5t-24 -38zM223 460q16 25 27 56.5t11 47.5q0 13 -11 13q-21 0 -31.5 15.5t-10.5 38.5q0 25 15 40.5t44 15.5q64 0 64 -67
q0 -20 -6 -43t-15.5 -46.5t-21.5 -45.5t-24 -38z" />
    <glyph glyph-name="quotedblbase" unicode="&#x201e;" horiz-adv-x="387" 
d="M223 -99q7 12 14 26.5t12 28.5t8 26.5t3 20.5q0 6 -2 10.5t-9 4.5q-20 0 -30.5 15.5t-10.5 38.5q0 25 15 40.5t43 15.5q65 0 65 -67q0 -20 -6 -43t-15.5 -46.5t-21.5 -45t-24 -37.5zM55 -99q7 12 14 26.5t12 28.5t8 26.5t3 20.5q0 6 -2 10.5t-9 4.5q-20 0 -30.5 15.5
t-10.5 38.5q0 25 15 40.5t43 15.5q65 0 65 -67q0 -20 -6 -43t-15.5 -46.5t-21.5 -45t-24 -37.5z" />
    <glyph glyph-name="dagger" unicode="&#x2020;" horiz-adv-x="544" 
d="M324 0h-104v404h-168v79h168v191h104v-191h168v-79h-168v-404z" />
    <glyph glyph-name="daggerdbl" unicode="&#x2021;" horiz-adv-x="544" 
d="M324 220h168v-79h-168v-191h-104v191h-168v79h168v184h-168v79h168v191h104v-191h168v-79h-168v-184z" />
    <glyph glyph-name="bullet" unicode="&#x2022;" horiz-adv-x="317" 
d="M158 227q-29 0 -50 8.5t-35 23.5t-21 35t-7 42q0 46 28 78.5t85 32.5t85.5 -32.5t28.5 -77.5q0 -22 -7.5 -42t-21.5 -35t-35.5 -24t-49.5 -9z" />
    <glyph glyph-name="ellipsis" unicode="&#x2026;" horiz-adv-x="756" 
d="M55 57q0 28 18 48.5t53 20.5q34 0 52.5 -20.5t18.5 -48.5t-18.5 -48.5t-52.5 -20.5q-35 0 -53 20.5t-18 48.5zM307 57q0 28 18 48.5t53 20.5q34 0 52.5 -20.5t18.5 -48.5t-18.5 -48.5t-52.5 -20.5q-35 0 -53 20.5t-18 48.5zM559 57q0 28 18 48.5t53 20.5q34 0 52.5 -20.5
t18.5 -48.5t-18.5 -48.5t-52.5 -20.5q-35 0 -53 20.5t-18 48.5z" />
    <glyph glyph-name="perthousand" unicode="&#x2030;" horiz-adv-x="1135" 
d="M528 660h94l-366 -660h-95zM121 484q0 -22 3.5 -42t11 -35t19 -24t27.5 -9t27.5 9t19 24t11 35t3.5 42t-3.5 42t-11 35t-19 24t-27.5 9t-27.5 -9t-19 -24t-11 -35t-3.5 -42zM36 484q0 36 9.5 68t28.5 56.5t46 38.5t62 14q34 0 61.5 -14t46 -38.5t28.5 -56.5t10 -68
t-10 -68t-28.5 -56t-46 -38t-61.5 -14q-35 0 -62 14t-46 38t-28.5 56t-9.5 68zM541 165q0 -22 3.5 -42t11 -35t19 -24t27.5 -9t27.5 9t19 24t11 35t3.5 42t-3.5 42t-11 35t-19 24t-27.5 9t-27.5 -9t-19 -24t-11 -35t-3.5 -42zM456 165q0 36 9.5 68t28.5 56.5t46 38.5t62 14
q34 0 61.5 -14t46 -38.5t28.5 -56.5t10 -68t-10 -68t-28.5 -56t-46 -38t-61.5 -14q-35 0 -62 14t-46 38t-28.5 56t-9.5 68zM892 165q0 -22 3.5 -42t11 -35t19 -24t27.5 -9t27.5 9t19 24t11 35t3.5 42t-3.5 42t-11 35t-19 24t-27.5 9t-27.5 -9t-19 -24t-11 -35t-3.5 -42z
M807 165q0 36 9.5 68t28.5 56.5t46 38.5t62 14q34 0 61.5 -14t46 -38.5t28.5 -56.5t10 -68t-10 -68t-28.5 -56t-46 -38t-61.5 -14q-35 0 -62 14t-46 38t-28.5 56t-9.5 68z" />
    <glyph glyph-name="guilsinglleft" unicode="&#x2039;" horiz-adv-x="288" 
d="M125 242l128 -180h-95l-128 180l128 180h95z" />
    <glyph glyph-name="guilsinglright" unicode="&#x203a;" horiz-adv-x="288" 
d="M35 422h95l128 -180l-128 -180h-95l128 180z" />
    <glyph glyph-name="fraction" unicode="&#x2044;" horiz-adv-x="461" 
d="M361 660h95l-367 -660h-94z" />
    <glyph glyph-name="Euro" unicode="&#x20ac;" horiz-adv-x="580" 
d="M63 296h56q-2 10 -2 20v21v18t1 18h-72l17 56h62q9 54 30.5 101t54 81.5t76.5 54t100 19.5q51 0 86.5 -14t62.5 -40l-28 -87q-23 26 -52.5 38.5t-61.5 12.5q-56 0 -100.5 -40t-61.5 -126h214l-17 -56h-204q-1 -9 -1 -18v-18v-21t2 -20h220l-17 -56h-195
q18 -84 62.5 -122.5t99.5 -38.5q32 0 62.5 12.5t53.5 38.5l28 -87q-27 -26 -63.5 -40t-87.5 -14q-55 0 -99 19t-77 53t-54.5 79.5t-31.5 99.5h-80z" />
    <glyph glyph-name="afii61289" unicode="&#x2113;" horiz-adv-x="407" 
d="M211 322q35 39 55 91.5t20 123.5q0 90 -34 90q-20 0 -30.5 -33t-10.5 -114v-158zM108 166q-16 -13 -32 -22.5t-32 -18.5l-39 56q28 17 54 34.5t49 38.5v226q0 108 38.5 162.5t107.5 54.5q26 0 49.5 -10t41 -29.5t27.5 -50t10 -70.5q0 -90 -44.5 -168.5t-124.5 -141.5v-71
q0 -45 13 -61t39 -16q31 0 57 13l24 -78q-17 -11 -40.5 -17.5t-55.5 -6.5q-79 0 -110.5 44t-31.5 132z" />
    <glyph glyph-name="trademark" unicode="&#x2122;" horiz-adv-x="795" 
d="M197 619v-325h-65v325l-112 -1v56h292v-56zM558 408q6 20 13 41.5t15 38.5l83 186h76v-379h-65v209q0 20 1.5 40.5t3.5 34.5h-3q-2 -9 -7.5 -29t-14.5 -41l-69 -153h-67l-68 153q-10 21 -15.5 41t-7.5 29h-2q1 -14 2.5 -34.5t1.5 -40.5v-209h-64v379h76l82 -186
q8 -17 15 -38.5t13 -41.5h1z" />
    <glyph glyph-name="Omega" unicode="&#x2126;" horiz-adv-x="755" 
d="M379 590q-48 0 -87.5 -15.5t-68.5 -44t-45 -70.5t-16 -94q0 -53 17 -100t42.5 -86.5t55.5 -69.5t56 -49v-61h-232v83h118q-22 19 -48.5 48.5t-50 67.5t-39.5 84t-16 98q0 69 23 124.5t64.5 95.5t98.5 61.5t126 21.5t126.5 -21.5t99 -61.5t64.5 -95.5t23 -124.5
q0 -52 -16 -98t-39.5 -84t-50.5 -67.5t-49 -48.5h119v-83h-233v61q26 19 56.5 49t56 69.5t42.5 86.5t17 100q0 52 -16 94t-44.5 70.5t-68 44t-85.5 15.5z" />
    <glyph glyph-name="estimated" unicode="&#x212e;" horiz-adv-x="818" 
d="M782 309h-610v-183q9 -11 31.5 -30t54 -37t70.5 -31.5t80 -13.5q43 0 81.5 12t69.5 29t53.5 36.5t33.5 34.5h72q-57 -69 -139 -104t-170 -35q-77 0 -145 24.5t-118.5 69t-80 106.5t-29.5 136q0 73 29.5 135t80 106.5t118.5 69.5t145 25t145 -24.5t118.5 -68.5t80 -104
t29.5 -131v-22zM646 519q-11 15 -33.5 34.5t-54 37t-69.5 29t-81 11.5q-41 0 -80 -13.5t-70.5 -31.5t-54 -37t-31.5 -30v-182h474v182z" />
    <glyph glyph-name="partialdiff" unicode="&#x2202;" horiz-adv-x="604" 
d="M303 348q-37 0 -66 -15t-49 -40t-30.5 -56.5t-10.5 -64.5q0 -45 22.5 -69t62.5 -24q30 0 59 14t55.5 41t47.5 66t34 89q-18 24 -50.5 41.5t-74.5 17.5zM341 571q-35 0 -68 -8.5t-62 -25.5l-14 81q30 18 74 30t87 12q100 0 153 -58t53 -161q0 -44 -9.5 -94.5t-28.5 -100.5
t-47 -96t-65.5 -81.5t-84 -57t-102.5 -21.5q-94 0 -141.5 47.5t-47.5 128.5q0 51 19.5 100t55 87t84 61.5t106.5 23.5q30 0 53 -6t40.5 -15.5t30.5 -21t23 -22.5q11 36 11 73q0 60 -31.5 92.5t-88.5 32.5z" />
    <glyph glyph-name="Delta" unicode="&#x2206;" horiz-adv-x="632" 
d="M315 505l-157 -421h311zM607 0h-582l266 674h49z" />
    <glyph glyph-name="product" unicode="&#x220f;" horiz-adv-x="616" 
d="M85 674h446v-722h-104v631h-238v-631h-104v722z" />
    <glyph glyph-name="summation" unicode="&#x2211;" horiz-adv-x="550" 
d="M38 -48v48l243 316l-225 306v52h441v-74h-313l209 -283l-223 -291h345v-74h-477z" />
    <glyph glyph-name="minus" unicode="&#x2212;" horiz-adv-x="580" 
d="M501 241h-422v85h422v-85z" />
    <glyph glyph-name="radical" unicode="&#x221a;" horiz-adv-x="526" 
d="M16 325v78h147l87 -300l160 571h91l-203 -686h-92l-107 337h-83z" />
    <glyph glyph-name="infinity" unicode="&#x221e;" horiz-adv-x="773" 
d="M218 221q38 0 73 26t60 62q-27 38 -62 59t-73 21q-42 0 -64 -22t-22 -57q0 -39 24.5 -64t63.5 -25zM642 310q0 35 -21 60t-66 25q-41 0 -72.5 -23.5t-60.5 -62.5q26 -41 60.5 -62t73.5 -21q45 0 65.5 24.5t20.5 59.5zM721 311q0 -32 -11 -60t-32 -48.5t-50.5 -32.5
t-66.5 -12q-56 0 -101 27t-74 67q-31 -36 -75 -65t-100 -29q-35 0 -64 11t-50 30.5t-33 47.5t-12 62q0 33 12 61t33 47.5t50.5 30.5t64.5 11q30 0 55 -7.5t46.5 -20.5t40 -30t33.5 -36q12 16 28.5 32.5t38 30t47.5 22.5t58 9q35 0 64.5 -11t51.5 -30.5t34 -46.5t12 -60z" />
    <glyph glyph-name="integral" unicode="&#x222b;" horiz-adv-x="438" 
d="M272 121q0 -86 -32.5 -131t-110.5 -45q-32 0 -55.5 7t-40.5 17l24 78q26 -13 57 -13q29 0 40.5 18.5t11.5 63.5v392q0 86 32.5 131.5t110.5 45.5q31 0 55 -7t41 -18l-24 -78q-27 13 -57 13t-41 -18.5t-11 -63.5v-392z" />
    <glyph glyph-name="approxequal" unicode="&#x2248;" horiz-adv-x="580" 
d="M377 292q-32 0 -57 12t-46.5 26t-42 26t-44.5 12q-32 0 -54 -20t-40 -50l-50 53q9 19 22 38t31 34.5t41.5 25.5t52.5 10q33 0 57.5 -12t45.5 -26t41.5 -26t45.5 -12q31 0 53.5 20.5t40.5 49.5l50 -52q-9 -20 -23 -39.5t-32 -35t-41 -25t-51 -9.5zM377 107q-32 0 -57 12
t-46.5 26.5t-42 26.5t-44.5 12q-32 0 -54 -20.5t-40 -49.5l-50 52q9 19 22 38t31 35t41.5 26t52.5 10q33 0 57.5 -12t45.5 -26t41.5 -26t45.5 -12q31 0 53.5 20t40.5 49l50 -52q-9 -20 -23 -39.5t-32 -35t-41 -25t-51 -9.5z" />
    <glyph glyph-name="notequal" unicode="&#x2260;" horiz-adv-x="580" 
d="M379 411h119v-80h-151l-41 -102h192v-80h-224l-59 -149h-72l59 149h-120v80h152l41 102h-193v80h225l66 167h72z" />
    <glyph glyph-name="lessequal" unicode="&#x2264;" horiz-adv-x="580" 
d="M62 377l438 234v-102l-326 -164l326 -164v-101l-438 233v64zM500 0h-438v65h438v-65z" />
    <glyph glyph-name="greaterequal" unicode="&#x2265;" horiz-adv-x="580" 
d="M520 0h-440v65h440v-65zM520 313l-440 -233v101l328 164l-328 164v102l440 -234v-64z" />
    <glyph glyph-name="lozenge" unicode="&#x25ca;" horiz-adv-x="593" 
d="M449 342l-153 236l-154 -236l154 -237zM557 342l-229 -342h-64l-228 341l228 343h64z" />
    <glyph glyph-name="uni0E10.alt1" unicode="&#xf700;" horiz-adv-x="545" 
d="M167 0l-52 211q-5 23 -27 23h-38v89h59q41 0 65 -15.5t35 -60.5l38 -158h12q26 1 50 16t43 41.5t30 64.5t11 87q0 93 -41 138.5t-116 45.5q-52 0 -102.5 -19t-90.5 -54l-33 80q42 36 101 59t128 23q63 0 118 -25l45 53h121l-91 -108q33 -37 51 -86t18 -108
q0 -64 -19 -118.5t-52 -94t-78 -62t-97 -22.5h-88z" />
    <glyph glyph-name="uni0E34.alt1" unicode="&#xf701;" 
d="M-609 634v84h379v-84h-379z" />
    <glyph glyph-name="uni0E35.alt1" unicode="&#xf702;" 
d="M-609 634v84h281v93h98v-177h-379z" />
    <glyph glyph-name="uni0E36.alt1" unicode="&#xf703;" 
d="M-332 634h-277v84h209v6q0 20 7 38.5t20 32t30 21.5t37 8q41 0 68.5 -27t27.5 -68q0 -20 -8 -37.5t-21 -30t-30.5 -20t-36.5 -7.5h-26zM-306 694q15 0 25 10.5t10 25.5t-10 25t-25 10q-14 0 -24 -10t-10 -25t10 -25.5t24 -10.5z" />
    <glyph glyph-name="uni0E37.alt1" unicode="&#xf704;" 
d="M-609 634v84h170v93h80v-97h49v97h80v-177h-379z" />
    <glyph glyph-name="uni0E48.alt1" unicode="&#xf705;" 
d="M-375 634v180h102v-180h-102z" />
    <glyph glyph-name="uni0E49.alt1" unicode="&#xf706;" 
d="M-356 734q0 -16 16 -16h136v-84h-176q-23 0 -42.5 8.5t-19.5 37.5v27q0 9 -3 13t-13 4h-56v87h95q29 0 46 -13t17 -40v-24z" />
    <glyph glyph-name="uni0E4A.alt1" unicode="&#xf707;" 
d="M-389 634l-7 17q9 10 9 33q0 15 -7.5 24.5t-21.5 11.5l-42 -33l-46 30q-12 -2 -18 -11.5t-6 -21.5q0 -16 2.5 -27t9.5 -25h-84q-8 14 -12 32.5t-4 34.5t6.5 33t19.5 31t32 23.5t44 11.5q14 -12 27 -24t27 -23l50 48q43 -2 66.5 -26.5t25.5 -62.5v-13t-2 -13
q19 14 24.5 39t5.5 48q0 17 -3.5 30.5t-10.5 27.5h92q5 -12 8 -25t3 -34q0 -26 -9 -50.5t-25.5 -43.5t-40.5 -30.5t-55 -11.5h-58z" />
    <glyph glyph-name="uni0E4B.alt1" unicode="&#xf708;" 
d="M-492 788l90 -2l-3 81h95l-3 -81l91 2v-75l-91 2l3 -81h-95l3 81l-90 -2v75z" />
    <glyph glyph-name="uni0E4C.alt1" unicode="&#xf709;" 
d="M-307 698q-17 0 -26.5 -8t-9.5 -27v-31h-111v46q0 51 31 79.5t91 28.5h105v-88h-80z" />
    <glyph glyph-name="uni0E48.alt2" unicode="&#xf70a;" 
d="M-172 634v180h102v-180h-102z" />
    <glyph glyph-name="uni0E49.alt2" unicode="&#xf70b;" 
d="M-175 734q0 -16 16 -16h134v-84h-188q-19 0 -33.5 11.5t-14.5 34.5v27q0 9 -3 13t-13 4h-56v87h95q29 0 46 -13t17 -40v-24z" />
    <glyph glyph-name="uni0E4A.alt2" unicode="&#xf70c;" 
d="M-178 634l-7 17q9 10 9 31q0 15 -7.5 24.5t-21.5 11.5l-47 -33l-50 30q-12 -2 -19.5 -11.5t-7.5 -21.5q0 -16 3 -26t9 -24h-83q-8 14 -12 32.5t-4 34.5t7 33t20 31t32.5 23.5t44.5 11.5l58 -47l55 48q43 -2 66.5 -26.5t25.5 -62.5v-13t-2 -13q19 14 27 39t8 48
q0 17 -3.5 30.5t-10.5 27.5h92q5 -12 7.5 -25t2.5 -34q0 -26 -9.5 -50.5t-27 -43.5t-42 -30.5t-55.5 -11.5h-58z" />
    <glyph glyph-name="uni0E4B.alt2" unicode="&#xf70d;" 
d="M-256 788l90 -2l-3 81h95l-2 -81l90 2v-75l-90 2l2 -81h-95l3 81l-90 -2v75z" />
    <glyph glyph-name="uni0E4C.alt2" unicode="&#xf70e;" 
d="M-114 700q-17 0 -26.5 -8t-9.5 -27v-31h-111v46q0 51 31 79.5t91 28.5h113v-88h-88z" />
    <glyph glyph-name="uni0E0D.alt1" unicode="&#xf70f;" horiz-adv-x="929" 
d="M520 199q0 -60 26 -90.5t89 -30.5t89.5 30.5t26.5 90.5v361h108v-364q0 -106 -59 -156.5t-165 -50.5t-164.5 50.5t-58.5 156.5v154q0 66 -32 99t-89 33q-22 0 -42.5 -6t-38.5 -17t-32 -25.5t-21 -30.5l80 -70q-29 -12 -43.5 -34t-14.5 -57v-134q0 -10 4 -15.5t15 -5.5h56
v-87h-83q-49 0 -74.5 27.5t-25.5 72.5v136q0 30 14.5 55.5t38.5 39.5l-81 68q9 33 31.5 64t55 55t74 38.5t89.5 14.5q56 0 98.5 -16.5t71 -45.5t43 -69.5t14.5 -89.5v-151z" />
    <glyph glyph-name="uni0E31.alt1" unicode="&#xf710;" 
d="M-356 744q0 -26 25 -26h216v-84h-235q-50 0 -78.5 24t-28.5 78v45h101v-37z" />
    <glyph glyph-name="uni0E4D.alt1" unicode="&#xf711;" 
d="M-344 619q-22 0 -41.5 8t-33.5 22.5t-22.5 33.5t-8.5 42q0 45 30.5 75t75.5 30t75.5 -30t30.5 -75q0 -23 -8.5 -42t-22.5 -33.5t-33.5 -22.5t-41.5 -8zM-344 684q17 0 29 12.5t12 29.5t-12 29t-29 12t-28.5 -12t-11.5 -29t11.5 -29.5t28.5 -12.5z" />
    <glyph glyph-name="uni0E47.alt1" unicode="&#xf712;" 
d="M-293 633q-26 0 -46 13.5t-31 35.5q-9 -23 -31 -38.5t-57 -15.5q-55 0 -88 32t-33 83q0 23 8.5 44.5t25.5 38.5t42.5 27t60.5 10h213v-77h-210q-27 0 -39 -13t-12 -31t11.5 -31t31.5 -13q19 0 31.5 12.5t16.5 29.5h55q4 -14 15.5 -22t31.5 -8h69v-77h-65z" />
    <glyph glyph-name="uni0E48.alt3" unicode="&#xf713;" 
d="M-328 862v149h99v-149h-99z" />
    <glyph glyph-name="uni0E49.alt3" unicode="&#xf714;" 
d="M-304 957q0 -15 14 -15h134v-80h-180q-20 0 -33.5 12t-13.5 32v25q0 8 -2.5 12t-10.5 4h-55v81h87q28 0 44 -12.5t16 -38.5v-20z" />
    <glyph glyph-name="uni0E4A.alt3" unicode="&#xf715;" 
d="M-316 862l-7 16q9 9 9 28q0 14 -8 22t-20 10l-45 -33l-46 30q-10 -2 -16 -10t-6 -19q0 -14 3 -23.5t9 -22.5h-78q-8 14 -11 30t-3 31t6 30.5t17.5 28.5t29 21.5t40.5 10.5l56 -46l51 47q40 -2 61 -24.5t23 -55.5q0 -12 -3 -24q17 12 23.5 33.5t6.5 47.5q0 24 -13 49h89
q5 -11 7.5 -22t2.5 -26q0 -26 -9 -49t-25.5 -41t-40 -28.5t-51.5 -10.5h-52z" />
    <glyph glyph-name="uni0E4B.alt3" unicode="&#xf716;" 
d="M-401 999l80 -2l-3 67h90l-2 -67l79 2v-73l-79 3l2 -67h-90l3 67l-80 -3v73z" />
    <glyph glyph-name="uni0E4C.alt3" unicode="&#xf717;" 
d="M-253 829q-31 0 -31 -31v-28h-105v43q0 46 28 72.5t84 26.5h100v-83h-76z" />
    <glyph glyph-name="uni0E38.alt1" unicode="&#xf718;" 
d="M-171 -349q0 23 -22 23h-39v84h75q45 0 66 -20.5t21 -67.5v-111h-101v92z" />
    <glyph glyph-name="uni0E39.alt1" unicode="&#xf719;" 
d="M-210 -452q-69 0 -103.5 29.5t-34.5 79.5v20h-57v80h153v-100q0 -20 12.5 -28.5t29.5 -8.5t29.5 8.5t12.5 28.5v100h98v-100q0 -50 -36 -79.5t-104 -29.5z" />
    <glyph glyph-name="uni0E3A.alt1" unicode="&#xf71a;" 
d="M-53 -308q0 -29 -21 -49.5t-52 -20.5q-15 0 -28 5.5t-23 15t-16 22.5t-6 27t6 27t16 23t23 16t28 6q31 0 52 -21.5t21 -50.5z" />
    <glyph glyph-name="uni0E0E.alt1" unicode="&#xf71b;" horiz-adv-x="622" 
d="M552 -180h-122q-23 22 -56 38t-70 16q-45 0 -79.5 -13t-72.5 -44l-29 84q30 28 70 45.5t96 17.5q22 0 45 -5t43.5 -14t37.5 -20.5t29 -24.5v450q0 66 -35 99t-98 33q-51 0 -91 -23t-55 -56l90 -76q-29 -12 -42.5 -32.5t-13.5 -55.5v-139q0 -44 -26.5 -72t-74.5 -28h-71
v87h45q19 0 19 21v124q0 30 13.5 55t37.5 38l-91 74q9 33 32.5 64t57.5 55t77.5 38.5t94.5 14.5q59 0 103.5 -16.5t74.5 -45.5t45.5 -69.5t15.5 -89.5v-530z" />
    <glyph glyph-name="uni0E0F.alt1" unicode="&#xf71c;" horiz-adv-x="622" 
d="M552 -180h-108l-108 66q-18 -32 -50.5 -52.5t-75.5 -20.5q-34 0 -66 8t-55 22l27 87q20 -14 45 -23t48 -9q43 0 71.5 24t37.5 65l126 -78v441q0 66 -35 99t-98 33q-51 0 -91 -23t-55 -56l90 -76q-29 -12 -42.5 -32.5t-13.5 -55.5v-139q0 -45 -25.5 -72.5t-75.5 -27.5h-71
v87h45q19 0 19 21v124q0 30 13.5 55t37.5 38l-91 74q9 33 32.5 64t57.5 55t77.5 38.5t94.5 14.5q59 0 103.5 -16.5t74.5 -45.5t45.5 -69.5t15.5 -89.5v-530z" />
    <glyph glyph-name="uni0E2C.alt1" unicode="&#xf71d;" horiz-adv-x="673" 
d="M601 0h-117l-112 222q-12 23 -22 52t-15 49h-2q-5 -20 -15 -49t-21 -52l-108 -222h-117v560h104v-274q0 -47 -2.5 -89.5t-10.5 -90.5h3q11 44 23 76.5t25 58.5l83 162h74l87 -162q27 -52 49 -135h2q-7 48 -9.5 90.5t-2.5 89.5v58q0 37 -14 53t-40 16h-17l-16 42l106 144
h112l-113 -136q42 -10 64 -42.5t22 -77.5v-343z" />
    <glyph glyph-name="uni0E33.alt1" horiz-adv-x="481" 
d="M-344 619q-22 0 -41.5 8t-33.5 22.5t-22.5 33.5t-8.5 42q0 45 30.5 75t75.5 30t75.5 -30t30.5 -75q0 -23 -8.5 -42t-22.5 -33.5t-33.5 -22.5t-41.5 -8zM-344 684q17 0 29 12.5t12 29.5t-12 29t-29 12t-28.5 -12t-11.5 -29t11.5 -29.5t28.5 -12.5zM303 0v360
q0 122 -105 122q-46 0 -88.5 -17t-74.5 -40l-28 79q35 26 89 46.5t112 20.5q100 0 151.5 -57t51.5 -158v-356h-108z" />
    <glyph glyph-name="uni0E4E.alt1" 
d="M-268 646q-14 -8 -30.5 -12.5t-37.5 -4.5q-24 0 -44.5 5t-36.5 16t-25 28.5t-9 42.5q0 40 28.5 67t90.5 20q-7 7 -11.5 17t-4.5 21q0 19 16.5 34t55.5 15h71l16 -63h-71q-6 0 -10 -5t-4 -12q0 -8 8.5 -15t21.5 -14l-18 -44q-33 10 -64 10q-19 0 -31 -7t-12 -21t12 -22
t32 -8q11 0 25.5 1.5t31.5 8.5v-58z" />
    </font>
</defs>
</svg>
