<?xml version="1.0" standalone="no"?>
<!DOCTYPE svg PUBLIC "-//W3C//DTD SVG 1.1//EN" "http://www.w3.org/Graphics/SVG/1.1/DTD/svg11.dtd" >
<svg xmlns="http://www.w3.org/2000/svg" xmlns:xlink="http://www.w3.org/1999/xlink" version="1.1">
<metadata>
Created by FontForge 20170910 at Mon Oct 22 22:56:53 2007
 By Jimmy Wärting
Copyright (c) 2007 by True Corporation PLC.. All rights reserved.
</metadata>
<defs>
<font id="TrueBold" horiz-adv-x="0" >
  <font-face 
    font-family="True Bold"
    font-weight="400"
    font-stretch="normal"
    units-per-em="2048"
    panose-1="2 0 5 6 0 0 0 2 0 4"
    ascent="1638"
    descent="-410"
    x-height="713"
    cap-height="965"
    bbox="-922 -625 1595 1599"
    underline-thickness="72"
    underline-position="-195"
    unicode-range="U+0020-F880"
  />
<missing-glyph horiz-adv-x="1599" 
d="M100 0v1599h1399v-1599h-1399zM1401 100v1399h-1200v-1399h1200z" />
    <glyph glyph-name="saraueesp1" unicode="&#xe37;&#xe48;" 
d="M-750 922v133h291v92h135v-92h62v92h201v-225h-689zM-362 1198v184h200v-184h-200z" />
    <glyph glyph-name=".notdef" horiz-adv-x="1599" 
d="M100 0v1599h1399v-1599h-1399zM1401 100v1399h-1200v-1399h1200z" />
    <glyph glyph-name=".null" 
 />
    <glyph glyph-name="nonmarkingreturn" horiz-adv-x="614" 
 />
    <glyph glyph-name="space" unicode=" " horiz-adv-x="614" 
 />
    <glyph glyph-name="space" unicode="&#xa0;" horiz-adv-x="614" 
 />
    <glyph glyph-name="parenleft" unicode="(" horiz-adv-x="461" 
d="M274 -193q-51 70 -92 142t-69.5 148.5t-44 158t-15.5 170.5q0 96 15.5 178t44 156.5t69.5 143.5t92 140h177q-45 -71 -82 -140t-63.5 -143.5t-41 -156.5t-14.5 -178q0 -89 14.5 -170.5t41 -158t63.5 -148.5t82 -142h-177z" />
    <glyph glyph-name="parenright" unicode=")" horiz-adv-x="461" 
d="M406 426q0 -89 -15.5 -170.5t-44 -158t-69.5 -148.5t-93 -142h-174q44 70 81 142t63.5 148.5t41.5 158t15 170.5q0 96 -15 178t-41.5 156.5t-63.5 143.5t-81 140h174q52 -71 93 -140t69.5 -143.5t44 -156.5t15.5 -178z" />
    <glyph glyph-name="asterisk" unicode="*" horiz-adv-x="768" 
d="M477 657l133 -149l-127 -90l-98 172l-106 -172l-125 90l135 149l-189 43l45 144l185 -80l-23 201h158l-25 -199l185 78l45 -144z" />
    <glyph glyph-name="plus" unicode="+" horiz-adv-x="829" 
d="M487 279v-279h-145v279h-279v143h279v278h145v-278h279v-143h-279z" />
    <glyph glyph-name="comma" unicode="," horiz-adv-x="385" 
d="M195 -152h-162l88 345h201z" />
    <glyph glyph-name="hyphen" unicode="-" horiz-adv-x="461" 
d="M49 295v154h363v-154h-363z" />
    <glyph glyph-name="period" unicode="." horiz-adv-x="385" 
d="M96 0v193h193v-193h-193z" />
    <glyph glyph-name="slash" unicode="/" horiz-adv-x="539" 
d="M172 -16h-143l338 997h143z" />
    <glyph glyph-name="zero" unicode="0" horiz-adv-x="768" 
d="M721 479q0 -56 -5.5 -114t-20 -113t-39 -104t-62 -85.5t-89.5 -57.5t-122 -21q-74 0 -127.5 23t-91 61t-60 88.5t-35 105.5t-16.5 111t-4 106q0 91 15.5 180.5t53.5 161t102.5 116t162.5 44.5q71 0 123.5 -21.5t90 -58.5t61.5 -86.5t38 -105t19.5 -115t5.5 -115.5z
M526 479q0 31 -0.5 70t-4.5 79t-12.5 77.5t-24.5 67t-40.5 47.5t-60.5 18q-35 0 -59.5 -18t-40 -47.5t-24 -67t-12.5 -77.5t-4.5 -79t-0.5 -70q0 -30 0.5 -68t4.5 -77t12 -76.5t24 -66.5t40 -46.5t60 -17.5t61 17.5t40.5 46.5t24 66.5t12.5 76.5t4.5 77t0.5 68z" />
    <glyph glyph-name="one" unicode="1" horiz-adv-x="768" 
d="M369 0v745l-162 -133l-98 125l282 228h172v-965h-194z" />
    <glyph glyph-name="two" unicode="2" horiz-adv-x="768" 
d="M57 0v162q22 21 62 57t86.5 81t94.5 96.5t87 104t63.5 103.5t24.5 96q0 33 -13.5 57.5t-36 40t-51 23.5t-57.5 8q-61 0 -118 -23t-105 -54l-16 159q66 34 139 52t148 18q69 0 125 -17.5t95.5 -52.5t61 -87.5t21.5 -123.5q0 -77 -35 -150t-88.5 -142t-118 -133.5
t-123.5 -122.5h395v-152h-641z" />
    <glyph glyph-name="three" unicode="3" horiz-adv-x="768" 
d="M684 270q0 -86 -35 -141.5t-89.5 -87.5t-119.5 -44.5t-125 -12.5q-63 0 -131.5 7.5t-122.5 22.5l13 166q49 -20 102.5 -32.5t110.5 -12.5q31 0 66.5 7.5t66.5 24t51.5 42.5t20.5 63q0 42 -16 71t-44.5 47t-67.5 26t-85 8h-95v151h88q97 0 156 32t59 95q0 36 -13.5 60.5
t-36.5 39.5t-53 21t-62 6q-59 0 -113 -13t-105 -38l-12 156q59 22 127 34.5t143 12.5q45 0 100 -9.5t103.5 -36.5t81.5 -75.5t33 -126.5q0 -49 -14.5 -86t-39 -64t-57 -46t-69.5 -33v-4q46 -6 80.5 -26t57.5 -50.5t34.5 -69.5t11.5 -84z" />
    <glyph glyph-name="four" unicode="4" horiz-adv-x="768" 
d="M623 201v-201h-185v201h-415v155l360 609h240v-621h122v-143h-122zM438 764h-2l-239 -420h241v420z" />
    <glyph glyph-name="five" unicode="5" horiz-adv-x="768" 
d="M700 311q0 -68 -23.5 -128t-70.5 -104t-117 -69.5t-163 -25.5q-57 0 -117.5 7.5t-108.5 18.5l4 174q36 -15 85 -32t112 -17q37 0 74.5 9.5t66.5 29.5t47.5 52.5t18.5 78.5q0 47 -19 79t-50 52t-71 28.5t-81 8.5q-45 0 -88 -6.5t-86 -20.5l10 519h555v-144h-373l-4 -207
q17 3 38.5 7t49.5 4q51 0 105.5 -14t100.5 -49.5t75.5 -96t29.5 -154.5z" />
    <glyph glyph-name="six" unicode="6" horiz-adv-x="768" 
d="M709 330q0 -78 -19.5 -142t-59 -109.5t-100 -70t-141.5 -24.5q-101 0 -164.5 38.5t-100 101.5t-50 143.5t-13.5 164.5q0 66 7.5 132t25.5 127t48 114t74 92t103.5 61.5t137.5 22.5q54 0 104 -8t101 -27l-27 -155q-37 17 -78 27.5t-90 10.5q-63 0 -106 -26.5t-69.5 -69
t-39 -96t-14.5 -107.5l2 -2q35 50 80.5 73.5t107.5 23.5q68 0 120.5 -21t88 -59.5t54 -93t18.5 -121.5zM516 299q0 35 -7.5 68t-23.5 58.5t-41 40.5t-59 15q-35 0 -60 -15t-41 -40t-23 -58t-7 -69q0 -35 7.5 -66t24 -54.5t42 -37.5t61.5 -14q34 0 58 15t39.5 39.5t22.5 55
t7 62.5z" />
    <glyph glyph-name="seven" unicode="7" horiz-adv-x="768" 
d="M348 0h-211l359 813h-426v152h620v-160z" />
    <glyph glyph-name="eight" unicode="8" horiz-adv-x="768" 
d="M721 264q0 -73 -25 -125.5t-69.5 -87t-105 -51t-132.5 -16.5q-71 0 -132.5 16t-108 49.5t-73 86t-26.5 126.5q0 81 44 138.5t132 99.5v4q-72 32 -115.5 90t-43.5 133q0 64 23 112t64.5 79.5t97.5 47t122 15.5q64 0 122.5 -13.5t103 -41.5t71 -72t26.5 -104
q0 -33 -10.5 -67.5t-30.5 -65.5t-50 -57t-70 -42v-2q96 -45 141 -106.5t45 -145.5zM510 717q0 54 -31.5 87.5t-87.5 33.5q-26 0 -51 -7.5t-45 -22t-32.5 -36.5t-12.5 -51q0 -31 14.5 -53.5t36.5 -40t49 -30t51 -22.5q21 8 40.5 22.5t35 33.5t24.5 41t9 45zM526 256
q0 35 -14 62t-37 47t-51.5 34.5t-58.5 24.5q-53 -26 -88 -62.5t-35 -97.5q0 -30 12 -55t32 -43.5t47 -28.5t56 -10q28 0 53 9t44 25.5t29.5 40.5t10.5 54z" />
    <glyph glyph-name="nine" unicode="9" horiz-adv-x="768" 
d="M709 532q0 -65 -7.5 -131.5t-25.5 -127t-48 -113.5t-74 -92t-103.5 -61.5t-137.5 -22.5q-54 0 -103.5 8t-100.5 26l24 156q38 -17 79.5 -28t90.5 -11q62 0 105 26.5t69.5 69.5t39.5 96t15 107l-2 2q-35 -51 -80.5 -73.5t-107.5 -22.5q-68 0 -120.5 21t-88 59.5t-54 93
t-18.5 121.5q0 78 19.5 142t59 109.5t100 70t141.5 24.5q100 0 164 -38t100.5 -101t50 -144t13.5 -166zM516 666q0 34 -7.5 65.5t-24 55t-42 37.5t-61.5 14q-34 0 -58 -15t-39.5 -39t-22.5 -55t-7 -63q0 -36 7.5 -69t23.5 -58.5t40.5 -40.5t59.5 -15t60 15t40.5 40t23 58.5
t7.5 69.5z" />
    <glyph glyph-name="colon" unicode=":" horiz-adv-x="385" 
d="M96 518v195h193v-195h-193zM96 0v193h193v-193h-193z" />
    <glyph glyph-name="semicolon" unicode=";" horiz-adv-x="385" 
d="M96 518v195h193v-195h-193zM195 -152h-162l88 345h201z" />
    <glyph glyph-name="less" unicode="&#x3c;" horiz-adv-x="829" 
d="M63 291v119l703 301v-142l-516 -219l516 -221v-139z" />
    <glyph glyph-name="equal" unicode="=" horiz-adv-x="829" 
d="M63 428v143h703v-143h-703zM63 127v143h703v-143h-703z" />
    <glyph glyph-name="greater" unicode="&#x3e;" horiz-adv-x="829" 
d="M63 -10v139l517 221l-517 219v142l703 -301v-119z" />
    <glyph glyph-name="question" unicode="?" horiz-adv-x="690" 
d="M657 733q0 -48 -18.5 -87.5t-46 -74.5t-59 -67.5t-57 -66.5t-41.5 -71.5t-11 -82.5h-170q0 49 8.5 87.5t22.5 69.5t32 56t37 47q19 21 38 40t33 39t23 42t9 49q0 34 -14 57.5t-36.5 38.5t-51 22t-58.5 7q-56 0 -109 -16.5t-104 -39.5l-14 154q66 20 134.5 32.5
t137.5 12.5q60 0 116.5 -13.5t101 -43.5t71 -77t26.5 -114zM242 0v193h194v-193h-194z" />
    <glyph glyph-name="at" unicode="@" horiz-adv-x="1106" 
d="M1055 575q0 -71 -19.5 -127t-50.5 -99t-70 -73t-77.5 -49t-73.5 -28t-57 -9q-29 0 -51.5 18.5t-24.5 53.5h-2q-26 -29 -61 -50.5t-79 -21.5q-43 0 -82 17t-68.5 47.5t-47 72.5t-17.5 93q0 68 22.5 128.5t61 105.5t90.5 71.5t111 26.5q51 0 92 -22.5t70 -65.5l16 65h115
l-76 -336q-3 -11 -5.5 -24.5t-2.5 -22.5t4 -14.5t16 -5.5q25 0 53 14t50.5 44t37.5 76t15 111q0 85 -33 139.5t-84.5 86.5t-115.5 44.5t-125 12.5q-87 0 -159 -30.5t-123.5 -82t-80 -118.5t-28.5 -140q0 -81 27 -149t74.5 -117.5t113 -77.5t143.5 -28q41 0 83.5 3.5t84 13
t80 26.5t71.5 45h117q-38 -57 -86 -97.5t-103.5 -67t-117.5 -38.5t-129 -12q-90 0 -179.5 31t-161.5 93.5t-116.5 156t-44.5 218.5q0 103 40 194t111 158.5t169.5 106.5t214.5 39q84 0 167.5 -23.5t150.5 -73t109 -126.5t42 -183zM676 506q0 49 -28 79.5t-75 30.5
q-34 0 -62 -16t-48.5 -41.5t-31.5 -56.5t-11 -62q0 -49 26.5 -81.5t75.5 -32.5q33 0 61 16t49 41.5t32.5 58t11.5 64.5z" />
    <glyph glyph-name="A" unicode="A" horiz-adv-x="997" 
d="M772 0l-84 221h-391l-84 -221h-201l377 965h217l379 -965h-213zM496 772h-4l-140 -399h283z" />
    <glyph glyph-name="B" unicode="B" horiz-adv-x="844" 
d="M788 279q0 -60 -16.5 -104.5t-44 -75.5t-63 -50.5t-73.5 -30t-75 -14.5t-67 -4h-336v965h336q31 0 66 -3.5t69.5 -13.5t66.5 -27t56 -45t38.5 -67t14.5 -92q0 -43 -14 -79t-39.5 -64t-61 -46.5t-78.5 -25.5v-2q50 -5 90.5 -23.5t69.5 -47.5t45 -67.5t16 -82.5zM567 692
q0 42 -16.5 66.5t-43.5 36.5t-60 15t-66 3h-76v-238h80q30 0 62 4.5t59 17t44 35.5t17 60zM596 287q0 47 -17.5 75.5t-45.5 44t-64 20.5t-72 5h-92v-280h92q34 0 69 5t64 20t47.5 41.5t18.5 68.5z" />
    <glyph glyph-name="C" unicode="C" horiz-adv-x="844" 
d="M815 14q-54 -12 -109.5 -21t-111.5 -9q-117 0 -214 29.5t-166.5 89t-108.5 150t-39 212.5q0 124 36.5 220.5t104.5 162t166 99.5t221 34q48 0 106.5 -9.5t112.5 -29.5l-14 -164q-56 31 -106.5 41t-102.5 10q-75 0 -135 -26.5t-102 -73.5t-64.5 -111t-22.5 -139
q0 -74 22.5 -136.5t64.5 -109t103 -72.5t138 -26q28 0 58.5 3t59 8.5t53 13t42.5 16.5l8 -162v0z" />
    <glyph glyph-name="D" unicode="D" horiz-adv-x="997" 
d="M934 483q0 -144 -45.5 -237t-122.5 -148t-177.5 -76.5t-211.5 -21.5h-264v965h264q111 0 211.5 -21.5t177.5 -76t122.5 -147.5t45.5 -237zM731 483q0 78 -27 139.5t-71 104t-101.5 64.5t-117.5 22h-109v-661h109q60 0 117.5 22t101.5 64.5t71 104t27 140.5z" />
    <glyph glyph-name="E" unicode="E" horiz-adv-x="768" 
d="M113 0v965h569v-152h-377v-238h344v-151h-344v-272h379v-152h-571z" />
    <glyph glyph-name="F" unicode="F" horiz-adv-x="690" 
d="M305 813v-238h326v-151h-326v-424h-192v965h536v-152h-344z" />
    <glyph glyph-name="G" unicode="G" horiz-adv-x="997" 
d="M907 33q-77 -20 -156 -34.5t-157 -14.5q-117 0 -214 29.5t-166.5 89t-108.5 150t-39 212.5q0 124 36.5 220.5t104.5 162t166 99.5t221 34q85 0 153.5 -10t131.5 -29l-13 -164q-57 26 -124 38.5t-126 12.5q-84 0 -149.5 -26.5t-110 -73.5t-67.5 -111t-23 -139
q0 -74 22.5 -136.5t64.5 -109t103 -72.5t138 -26q40 0 71 4t56 11v251h-205v152h391v-520v0z" />
    <glyph glyph-name="H" unicode="H" horiz-adv-x="997" 
d="M692 0v424h-387v-424h-192v965h192v-390h387v390h195v-965h-195z" />
    <glyph glyph-name="I" unicode="I" horiz-adv-x="385" 
d="M96 0v965h193v-965h-193z" />
    <glyph glyph-name="J" unicode="J" horiz-adv-x="539" 
d="M442 229q0 -38 -13.5 -81t-44 -79.5t-81 -60.5t-125.5 -24q-40 0 -73.5 3.5t-73.5 14.5v166q20 -6 41.5 -11t50.5 -5q47 0 72.5 17t37 42.5t13.5 55t2 55.5v643h194v-736v0z" />
    <glyph glyph-name="K" unicode="K" horiz-adv-x="922" 
d="M655 0l-346 449h-4v-449h-192v965h192v-414l348 414h238l-395 -455l411 -510h-252z" />
    <glyph glyph-name="L" unicode="L" horiz-adv-x="690" 
d="M113 0v965h192v-813h375v-152h-567z" />
    <glyph glyph-name="M" unicode="M" horiz-adv-x="1305" 
d="M1008 0v797h-2l-261 -797h-186l-260 797l-2 -4v-793h-184v965h309l229 -732h2l230 732h311v-965h-186z" />
    <glyph glyph-name="N" unicode="N" horiz-adv-x="997" 
d="M659 0l-368 721h-4v-721h-185v965h238l369 -721h2v721h184v-965h-236z" />
    <glyph glyph-name="O" unicode="O" horiz-adv-x="1075" 
d="M1010 485q0 -110 -30.5 -201.5t-90.5 -158.5t-148 -104t-202 -37q-117 0 -205.5 36.5t-148 102.5t-89.5 158.5t-30 203.5t30.5 202t90.5 156.5t148 101.5t204 36q113 0 200.5 -36.5t147.5 -102.5t91.5 -157t31.5 -200zM809 485q0 64 -15.5 125.5t-48.5 110t-84 78.5
t-122 30q-72 0 -124 -30t-85 -78.5t-48.5 -110t-15.5 -125.5q0 -65 14.5 -128t47 -112.5t84.5 -79.5t127 -30q73 0 124.5 30t84 79.5t47 112.5t14.5 128z" />
    <glyph glyph-name="P" unicode="P" horiz-adv-x="768" 
d="M741 674q0 -84 -28.5 -142.5t-78.5 -95t-117.5 -53t-145.5 -16.5h-82v-367h-193v965h244q79 0 151.5 -13.5t128 -46.5t88.5 -89t33 -142zM541 662q0 42 -14.5 71t-40 46.5t-59 25.5t-71.5 8h-67v-295h67q36 0 69.5 7t59 23.5t41 44t15.5 69.5z" />
    <glyph glyph-name="Q" unicode="Q" horiz-adv-x="1075" 
d="M1010 485q0 -77 -15.5 -146.5t-46 -127.5t-76 -103t-104.5 -73l217 -217h-233l-168 168q-11 -2 -22 -2h-23q-117 0 -205.5 36.5t-148 102.5t-89.5 158.5t-30 203.5t30.5 202t90.5 156.5t148 101.5t204 36q113 0 200.5 -36.5t147.5 -102.5t91.5 -157t31.5 -200zM809 485
q0 64 -15.5 125.5t-48.5 110t-84 78.5t-122 30q-72 0 -124 -30t-85 -78.5t-48.5 -110t-15.5 -125.5q0 -65 14.5 -128t47 -112.5t84.5 -79.5t127 -30q73 0 124.5 30t84 79.5t47 112.5t14.5 128z" />
    <glyph glyph-name="R" unicode="R" horiz-adv-x="844" 
d="M602 0l-117 301q-11 27 -21.5 46t-25.5 31t-36 17.5t-52 5.5h-61v-401h-193v965h207q52 0 106.5 -0.5t105 -7t95.5 -22t78 -44t52.5 -74t19.5 -112.5q0 -43 -14 -81.5t-40.5 -68.5t-63.5 -50t-83 -26v-2q20 -2 36 -11.5t28.5 -24t22 -31.5t16.5 -33l155 -377h-215z
M557 686q0 44 -18.5 69.5t-47.5 38t-66 16t-73 3.5h-63v-260h63q36 0 73 4t66 18t47.5 40t18.5 71z" />
    <glyph glyph-name="S" unicode="S" horiz-adv-x="768" 
d="M705 274q0 -79 -29 -134.5t-78.5 -90t-115.5 -50t-140 -15.5q-39 0 -69 2.5t-57.5 7t-56 11.5t-63.5 15l17 175q51 -26 106.5 -43t112.5 -17q28 0 58 7t55.5 22.5t42 39t16.5 56.5q0 34 -18 58t-48 41.5t-68 32.5t-78 31.5t-78 37t-68 51t-48 73t-18 101.5q0 81 29 137.5
t76.5 91.5t108 50.5t124.5 15.5q62 0 119.5 -8t111.5 -27l-18 -158q-94 41 -197 41q-24 0 -51 -6t-49 -21t-36.5 -41t-14.5 -65q0 -32 18 -53.5t48 -38t67.5 -30.5t77.5 -30.5t77.5 -38t67.5 -52.5t48 -74.5t18 -104.5z" />
    <glyph glyph-name="T" unicode="T" horiz-adv-x="768" 
d="M481 813v-813h-194v813h-277v152h748v-152h-277z" />
    <glyph glyph-name="U" unicode="U" horiz-adv-x="997" 
d="M893 348q0 -97 -27 -166t-77.5 -113t-123.5 -64.5t-165 -20.5q-93 0 -166.5 20.5t-124.5 64.5t-78 113t-27 166v617h195v-557q0 -62 10.5 -112t34 -86t62 -55.5t94.5 -19.5q55 0 93 19.5t62 55.5t34.5 86t10.5 112v557h193v-617v0z" />
    <glyph glyph-name="V" unicode="V" horiz-adv-x="922" 
d="M584 0h-238l-332 965h207l248 -758h2l246 758h190z" />
    <glyph glyph-name="W" unicode="W" horiz-adv-x="1382" 
d="M1116 0h-248l-174 772h-4l-170 -772h-250l-256 965h203l180 -772h2l164 772h264l170 -772h2l181 772h188z" />
    <glyph glyph-name="X" unicode="X" horiz-adv-x="922" 
d="M680 0l-223 377l-226 -377h-217l316 502l-287 463h223l203 -344l205 344h209l-291 -463l315 -502h-227z" />
    <glyph glyph-name="Y" unicode="Y" horiz-adv-x="922" 
d="M561 381v-381h-192v381l-355 584h228l227 -406l233 406h205z" />
    <glyph glyph-name="Z" unicode="Z" horiz-adv-x="768" 
d="M49 0v158l455 655h-436v152h641v-158l-457 -655h467v-152h-670z" />
    <glyph glyph-name="bracketleft" unicode="[" horiz-adv-x="461" 
d="M100 -193v1237h310v-135h-134v-966h134v-136h-310z" />
    <glyph glyph-name="backslash" unicode="\" horiz-adv-x="539" 
d="M365 -16l-338 997h145l336 -997h-143z" />
    <glyph glyph-name="bracketright" unicode="]" horiz-adv-x="461" 
d="M51 -193v136h133v966h-133v135h309v-1237h-309z" />
    <glyph glyph-name="asciicircum" unicode="^" horiz-adv-x="829" 
d="M594 432l-180 387l-178 -387h-144l258 533h129l258 -533h-143z" />
    <glyph glyph-name="underscore" unicode="_" horiz-adv-x="690" 
d="M0 -172v68h690v-68h-690z" />
    <glyph glyph-name="grave" unicode="`" horiz-adv-x="385" 
d="M229 809l-188 201h188l115 -201h-115z" />
    <glyph glyph-name="a" unicode="a" horiz-adv-x="768" 
d="M530 0q-6 28 -7 58.5t-3 47.5h-2q-16 -30 -40.5 -52.5t-53.5 -38t-61.5 -23.5t-63.5 -8q-48 0 -93 14t-80 40.5t-56 66t-21 90.5q0 80 34.5 128t88.5 74q53 25 117 34t121 9h102q0 86 -39 120t-121 34q-59 0 -115.5 -21.5t-103.5 -56.5l-6 158q54 26 121 40.5t127 14.5
q81 0 139.5 -17.5t95.5 -54t54.5 -93.5t17.5 -136v-90v-97t2 -81q2 -42 3.5 -80t4.5 -80h-162zM432 330q-31 0 -67 -4t-66.5 -17t-51 -37.5t-20.5 -64.5q0 -23 9 -40t25 -27.5t37.5 -15.5t45.5 -5q43 0 76 17t55 46q23 31 30 68.5t7 79.5h-80z" />
    <glyph glyph-name="b" unicode="b" horiz-adv-x="844" 
d="M795 358q0 -73 -16 -140.5t-51.5 -119.5t-92.5 -83t-139 -31q-29 0 -59 5.5t-58.5 17.5t-54 32t-45.5 49h-5v-88h-178v1036h185v-415h2q38 51 89 79.5t124 28.5q82 0 139 -30.5t92.5 -81.5t51.5 -118t16 -141zM602 358q0 36 -7.5 76t-25 73.5t-47 56t-73.5 22.5
q-45 0 -76.5 -21.5t-51.5 -55t-29 -74t-9 -77.5q0 -38 8 -78.5t26.5 -74.5t49.5 -56t77 -22t76.5 22.5t48.5 56.5t25.5 74.5t7.5 77.5z" />
    <glyph glyph-name="c" unicode="c" horiz-adv-x="614" 
d="M586 6q-41 -12 -84.5 -17t-100.5 -5q-87 0 -153 28t-110.5 78t-66.5 118.5t-22 149.5q0 78 22.5 145.5t66.5 117.5t108 79t147 29q57 0 99.5 -6t80.5 -18l-16 -146q-25 11 -54 19t-71 8q-43 0 -78 -16.5t-59.5 -46.5t-37.5 -72t-13 -93q0 -49 11.5 -91.5t35.5 -73.5
t60 -48.5t85 -17.5q19 0 39.5 3.5t39 8.5t35 10.5t28.5 10.5l8 -154v0z" />
    <glyph glyph-name="d" unicode="d" horiz-adv-x="844" 
d="M569 0v80h-2q-42 -53 -97.5 -74.5t-121.5 -21.5q-82 0 -139 31t-92.5 83t-51.5 119.5t-16 140.5q0 74 16 141t51.5 118t92.5 81.5t139 30.5q69 0 120 -24.5t93 -75.5h2v407h187v-1036h-181zM563 358q0 37 -9 77.5t-29 74t-51.5 55t-76.5 21.5t-75 -22.5t-47 -56
t-24 -73.5t-7 -76q0 -37 7.5 -77.5t25 -74.5t47.5 -56.5t75 -22.5q46 0 77.5 22t50.5 56t27.5 74.5t8.5 78.5z" />
    <glyph glyph-name="e" unicode="e" horiz-adv-x="768" 
d="M227 299q7 -87 61.5 -133.5t141.5 -46.5q68 0 126.5 21t109.5 50v-149q-51 -29 -110.5 -43t-133.5 -14q-89 0 -158 24.5t-117 72t-73 116t-25 155.5q0 78 21 146.5t62.5 119.5t103.5 81t145 30q99 0 164 -32.5t104 -89.5t54.5 -136t15.5 -172h-492zM543 426
q-2 34 -11.5 64.5t-27.5 53.5t-46 36.5t-67 13.5t-68 -13t-49.5 -35.5t-32 -53.5t-14.5 -66h316z" />
    <glyph glyph-name="f" unicode="f" horiz-adv-x="539" 
d="M510 885q-12 8 -31.5 16t-48.5 8q-23 0 -38.5 -9t-25.5 -24t-14 -34.5t-4 -40.5v-88h162v-138h-162v-575h-184v575h-137v138h137v98q0 54 15 98.5t43.5 76.5t70.5 49.5t96 17.5q35 0 72 -4t63 -11z" />
    <glyph glyph-name="g" unicode="g" horiz-adv-x="844" 
d="M750 70q0 -73 -17 -141t-59.5 -120.5t-115.5 -84t-185 -31.5q-56 0 -118 10.5t-128 38.5l16 158q21 -12 47.5 -23.5t54.5 -20.5t55.5 -14.5t49.5 -5.5q77 0 120 26t63.5 66.5t25 89.5t4.5 95h-2q-13 -23 -34.5 -43t-50 -36t-63 -25t-73.5 -9q-79 0 -134.5 29t-90 78.5
t-50.5 114.5t-16 136q0 64 17 130.5t53.5 119.5t93.5 87t137 34q71 0 126 -26.5t93 -88.5h2v99h179v-643zM563 365q0 45 -9 85t-28 70.5t-47.5 48t-68.5 17.5q-48 0 -79.5 -20t-51 -52.5t-27.5 -73t-8 -82.5q0 -36 9.5 -74t29 -69.5t49 -51.5t69.5 -20q43 0 74 17.5t50.5 48
t28.5 71t9 85.5z" />
    <glyph glyph-name="h" unicode="h" horiz-adv-x="844" 
d="M563 0v381q0 32 -2 68t-13 66.5t-35 50.5t-69 20q-51 0 -82.5 -24.5t-49.5 -60.5t-24.5 -77.5t-6.5 -75.5v-348h-185v1036h185v-422h2q35 53 93 84t132 31q63 0 108.5 -21t75.5 -58.5t44 -89t14 -111.5v-449h-187z" />
    <glyph glyph-name="i" unicode="i" horiz-adv-x="385" 
d="M100 842v176h185v-176h-185zM100 0v713h185v-713h-185z" />
    <glyph glyph-name="j" unicode="j" horiz-adv-x="385" 
d="M100 842v176h185v-176h-185zM285 -53q0 -38 -7.5 -82.5t-30.5 -82.5t-65 -63.5t-112 -25.5q-22 0 -47.5 3t-42.5 9l6 131q37 2 59.5 8.5t34.5 21t16 40.5t4 67v740h185v-766z" />
    <glyph glyph-name="k" unicode="k" horiz-adv-x="768" 
d="M524 0l-237 346h-2v-346h-185v1036h185v-608h2l221 285h219l-266 -320l299 -393h-236z" />
    <glyph glyph-name="l" unicode="l" horiz-adv-x="385" 
d="M100 0v1036h185v-1036h-185z" />
    <glyph glyph-name="m" unicode="m" horiz-adv-x="1229" 
d="M952 0v424q0 25 -1.5 53.5t-11.5 52.5t-31.5 40t-61.5 16q-46 0 -73 -24.5t-41.5 -61t-18.5 -78.5t-4 -76v-346h-187v424q0 25 -1.5 53.5t-11.5 52.5t-31.5 40t-61.5 16q-46 0 -73 -24.5t-41.5 -61t-18.5 -78.5t-4 -76v-346h-187v713h174v-101h2q22 33 48 55.5t53.5 36
t55.5 19.5t54 6q76 0 128 -30.5t83 -96.5q16 32 40.5 56t54 39.5t62 23.5t64.5 8q66 0 110 -21.5t70 -59t37 -88.5t11 -111v-449h-187z" />
    <glyph glyph-name="n" unicode="n" horiz-adv-x="844" 
d="M563 0v381q0 32 -2 68t-13 66.5t-35 50.5t-69 20q-51 0 -82.5 -24.5t-49.5 -60.5t-24.5 -77.5t-6.5 -75.5v-348h-185v713h174v-99h4q44 62 102 88.5t132 26.5q63 0 108.5 -21t75.5 -58.5t44 -89t14 -111.5v-449h-187z" />
    <glyph glyph-name="o" unicode="o" horiz-adv-x="844" 
d="M795 350q0 -76 -25 -143t-73 -116.5t-117.5 -78t-157.5 -28.5q-89 0 -158 28.5t-117 78t-73 116.5t-25 143q0 88 28.5 158.5t79 119.5t118.5 75t147 26t147 -26t118.5 -75t79 -119.5t28.5 -158.5zM602 373q0 41 -11 79.5t-33.5 68t-56.5 47.5t-79 18t-78.5 -18.5
t-55.5 -48.5t-33 -68t-11 -78q0 -44 8 -88t28 -79t54.5 -57t87.5 -22t87.5 21.5t55 56.5t29 79t8.5 89z" />
    <glyph glyph-name="p" unicode="p" horiz-adv-x="844" 
d="M795 358q0 -73 -16 -140.5t-52 -119.5t-93.5 -83t-141.5 -31q-29 0 -56.5 4t-53 15t-50.5 30t-49 49h-2v-373h-185v1004h176v-103h2q32 53 86 86t136 33t139 -30.5t92.5 -81.5t51.5 -118t16 -141zM602 358q0 36 -7.5 76t-25 73.5t-47 56t-73.5 22.5q-45 0 -76.5 -21.5
t-51.5 -55t-29 -74t-9 -77.5q0 -38 8 -78.5t26.5 -74.5t49.5 -56t77 -22t76.5 22.5t48.5 56.5t25.5 74.5t7.5 77.5z" />
    <glyph glyph-name="q" unicode="q" horiz-adv-x="844" 
d="M563 -291v373h-2q-24 -30 -48.5 -49t-50 -30t-53 -15t-57.5 -4q-84 0 -141.5 31t-93.5 83t-52 119.5t-16 140.5q0 74 16 141t52 118t93.5 81.5t141.5 30.5q79 0 131 -31.5t86 -87.5h2v103h179v-1004h-187zM563 358q0 37 -9 77.5t-29 74t-51.5 55t-76.5 21.5t-75 -22.5
t-47 -56t-24 -73.5t-7 -76q0 -37 7.5 -77.5t25 -74.5t47.5 -56.5t75 -22.5q46 0 77.5 22t50.5 56t27.5 74.5t8.5 78.5z" />
    <glyph glyph-name="r" unicode="r" horiz-adv-x="539" 
d="M518 537q-12 8 -34.5 11t-47.5 3q-38 0 -63.5 -14.5t-42.5 -38t-26 -53.5t-13.5 -62t-5 -63.5t-0.5 -57.5v-262h-185v713h164v-162h2q3 24 18 55t40.5 58.5t60 46t76.5 18.5q14 0 28.5 -0.5t28.5 -5.5v-186v0z" />
    <glyph glyph-name="s" unicode="s" horiz-adv-x="614" 
d="M565 215q0 -62 -25.5 -106t-67 -72t-95.5 -40.5t-111 -12.5q-52 0 -105 8t-104 22l11 152q43 -22 88.5 -34.5t93.5 -12.5q18 0 39 4t40 14t31.5 27t12.5 43q0 35 -24 53t-60 29.5t-78 23t-78 33.5t-60 59.5t-24 102.5q0 58 23.5 99.5t62.5 68.5t89.5 40t105.5 13
q65 0 111 -8.5t89 -18.5l-12 -139q-21 7 -40 13t-38.5 10t-41 6t-46.5 2q-18 0 -37.5 -4t-35 -13t-25.5 -24.5t-10 -38.5q0 -21 14 -34.5t36.5 -23.5t51 -18t59 -19t59 -26t51 -38.5t36.5 -57.5t14 -82z" />
    <glyph glyph-name="t" unicode="t" horiz-adv-x="539" 
d="M518 0q-29 -8 -62 -12t-75 -4q-109 0 -167 62.5t-58 168.5v360h-138v138h138v141l186 59v-200h164v-138h-164v-331q0 -23 3.5 -44t13 -37t26.5 -26t43 -10q25 0 47.5 4.5t36.5 15.5l6 -147v0z" />
    <glyph glyph-name="u" unicode="u" horiz-adv-x="844" 
d="M573 0v96h-2q-43 -52 -102 -82t-131 -30q-64 0 -109.5 21t-75 58t-43.5 88t-14 111v451h185v-381q0 -33 2 -69t13.5 -66.5t36 -50t68.5 -19.5q50 0 81.5 24t49.5 60t24.5 77.5t6.5 76.5v348h187v-713h-177z" />
    <glyph glyph-name="v" unicode="v" horiz-adv-x="768" 
d="M489 0h-208l-265 713h199l178 -520h2l172 520h185z" />
    <glyph glyph-name="w" unicode="w" horiz-adv-x="1229" 
d="M995 0h-219l-153 543h-5l-151 -543h-211l-242 713h197l158 -529h4l143 529h215l156 -529h2l147 529h178z" />
    <glyph glyph-name="x" unicode="x" horiz-adv-x="768" 
d="M535 0l-158 266l-162 -266h-203l246 373l-221 340h219l139 -234l137 234h197l-213 -340l240 -373h-221z" />
    <glyph glyph-name="y" unicode="y" horiz-adv-x="768" 
d="M487 6q-22 -59 -44 -115.5t-53.5 -100.5t-79 -70.5t-120.5 -26.5q-32 0 -65.5 5.5t-65.5 14.5l13 135q18 -6 39.5 -9t56.5 -3q56 0 87.5 35t31.5 92l-273 750h205l172 -520h2l172 520h189z" />
    <glyph glyph-name="z" unicode="z" horiz-adv-x="690" 
d="M49 0v152l361 415h-344v146h563v-154l-355 -416h367v-143h-592z" />
    <glyph glyph-name="braceleft" unicode="{" horiz-adv-x="461" 
d="M342 -193q-39 0 -76 11.5t-65.5 34.5t-46 58t-17.5 83v233q0 40 -10.5 67t-26.5 43t-36 23t-39 7v118q19 0 39 6.5t36 21.5t26.5 39.5t10.5 61.5v244q0 48 18 83.5t47.5 58t66 33.5t73.5 11h104v-110h-61q-23 0 -36.5 -7t-21 -20t-10 -31.5t-2.5 -41.5v-240
q0 -48 -16 -79.5t-39.5 -50.5t-50.5 -27t-49 -9v-4q22 -2 49 -8.5t50.5 -25t39.5 -52.5t16 -90v-230q0 -24 2.5 -42.5t10 -31t21 -19.5t36.5 -7h61v-111h-104z" />
    <glyph glyph-name="bar" unicode="|" horiz-adv-x="307" 
d="M82 -346v1382h143v-1382h-143z" />
    <glyph glyph-name="braceright" unicode="}" horiz-adv-x="461" 
d="M436 367q-19 0 -39.5 -7t-37 -23t-27 -43t-10.5 -67v-233q0 -48 -17 -83.5t-45.5 -58.5t-65.5 -34t-77 -11h-103v111h62q23 0 36.5 7t21 19.5t9.5 31t2 42.5v230q0 56 16 90t39 52.5t50 25t49 8.5v4q-22 1 -49 9t-50 27t-39 50.5t-16 79.5v240q0 23 -2 41.5t-9.5 31.5
t-21 20t-36.5 7h-62v110h103q40 0 77 -11t65.5 -33.5t45.5 -58t17 -83.5v-244q0 -37 10.5 -61.5t27 -39.5t37 -21.5t39.5 -6.5v-118v0z" />
    <glyph glyph-name="asciitilde" unicode="~" horiz-adv-x="829" 
d="M733 350q-12 -21 -28.5 -43t-36 -39t-43 -28t-50.5 -11q-49 0 -86.5 15.5t-74.5 34.5q-34 18 -68.5 32.5t-81.5 14.5q-24 0 -42 -9t-32.5 -23t-25 -31.5t-19.5 -35.5l-49 121q11 22 26 43.5t35.5 38.5t46.5 28t58 11q54 0 92 -14t70 -31q37 -19 72 -35t73 -16
q18 0 34 8.5t30 23t26.5 32.5t24.5 36l49 -123v0z" />
    <glyph glyph-name="quotedbl" unicode="&#x22;" horiz-adv-x="666" 
d="M375 618v347h168v-347h-168zM121 618v347h170v-347h-170z" />
    <glyph glyph-name="exclam" unicode="!" horiz-adv-x="539" 
d="M346 283h-158l-24 682h213zM172 0v193h195v-193h-195z" />
    <glyph glyph-name="guillemotleft" unicode="&#xab;" horiz-adv-x="768" 
d="M539 88l-162 285l162 282h174l-152 -282l152 -285h-174zM231 88l-163 285l163 282h175l-152 -282l152 -285h-175z" />
    <glyph glyph-name="logicalnot" unicode="&#xac;" horiz-adv-x="829" 
d="M665 119v178h-584v90h666v-268h-82z" />
    <glyph glyph-name="registered" unicode="&#xae;" horiz-adv-x="1106" 
d="M1053 483q0 -104 -39.5 -194.5t-107.5 -158.5t-159 -107t-194 -39t-194 39t-159 107t-107.5 158.5t-39.5 194.5q0 103 39.5 194t107.5 158.5t159 106.5t194 39t194 -39t159 -106.5t107.5 -158.5t39.5 -194zM907 483q0 86 -27.5 157.5t-75 122.5t-112 79t-139.5 28
t-140 -28t-112.5 -79t-74.5 -122.5t-27 -157.5q0 -87 27 -158.5t74.5 -122.5t112.5 -79.5t140 -28.5t139.5 28.5t112 79.5t75 122.5t27.5 158.5zM662 207l-134 235h-57v-235h-119v555h209q53 0 94 -8.5t69.5 -28t43 -51t14.5 -78.5q0 -75 -41 -108.5t-106 -38.5l147 -242
h-120zM664 606q0 22 -10.5 34.5t-26.5 19t-35 8.5t-37 2h-84v-135h96q22 0 39.5 2t30.5 9.5t20 21.5t7 38z" />
    <glyph glyph-name="degree" unicode="&#xb0;" horiz-adv-x="541" 
d="M266 915q43 0 80.5 -16t65 -43t43.5 -64t16 -79t-16 -79t-43.5 -64.5t-65 -43.5t-80.5 -16q-41 0 -77 15.5t-63.5 43t-43.5 64.5t-16 80q0 40 15.5 77t42.5 64.5t63.5 44t78.5 16.5zM266 858q-31 0 -57.5 -11t-46 -30.5t-30.5 -46t-11 -57.5q0 -30 11.5 -57t31 -47
t46 -32t56.5 -12q61 0 105 43q45 46 45 105q0 30 -12 56.5t-32.5 46t-47.5 31t-58 11.5z" />
    <glyph glyph-name="paragraph" unicode="&#xb6;" horiz-adv-x="727" 
d="M629 -244h-62v1356h-145v-1356h-55v805q-168 0 -263 62q-104 74 -104 235q0 153 94 229q90 66 248 66h389v-41h-102v-1356z" />
    <glyph glyph-name="periodcentered" unicode="&#xb7;" horiz-adv-x="338" 
d="M170 520q31 0 51.5 -21.5t20.5 -49.5q0 -31 -21.5 -52.5t-50.5 -21.5q-33 0 -53.5 20.5t-20.5 53.5q0 30 20.5 50.5t53.5 20.5z" />
    <glyph glyph-name="periodcentered" unicode="&#x2219;" horiz-adv-x="338" 
d="M170 520q31 0 51.5 -21.5t20.5 -49.5q0 -31 -21.5 -52.5t-50.5 -21.5q-33 0 -53.5 20.5t-20.5 53.5q0 30 20.5 50.5t53.5 20.5z" />
    <glyph glyph-name="guillemotright" unicode="&#xbb;" horiz-adv-x="768" 
d="M539 88h-174l151 285l-151 282h174l161 -282zM229 88h-174l152 285l-152 282h174l164 -282z" />
    <glyph glyph-name="multiply" unicode="&#xd7;" horiz-adv-x="829" 
d="M639 27l-225 225l-224 -225l-98 98l223 225l-223 223l98 101l224 -225l225 225l98 -101l-225 -223l225 -225z" />
    <glyph glyph-name="divide" unicode="&#xf7;" horiz-adv-x="829" 
d="M520 625q0 -47 -28.5 -77t-77.5 -30q-48 0 -76.5 30t-28.5 77q0 46 28.5 76t76.5 30q49 0 77.5 -30t28.5 -76zM63 279v143h703v-143h-703zM520 74q0 -47 -28.5 -77t-77.5 -30q-48 0 -76.5 30t-28.5 77q0 48 28.5 77t76.5 29q49 0 77.5 -29t28.5 -77z" />
    <glyph glyph-name="uni0E00" unicode="&#xe00;" horiz-adv-x="205" 
 />
    <glyph glyph-name="uni0E01" unicode="&#xe01;" horiz-adv-x="831" 
d="M569 0v543q0 37 -12 64.5t-32.5 44.5t-49 25.5t-61.5 8.5q-32 0 -60 -8.5t-48.5 -25.5t-32 -44.5t-11.5 -64.5v-543h-201v561q0 55 20.5 104.5t63 87.5t109.5 60.5t160 22.5q94 0 161 -22.5t110.5 -60.5t64 -87.5t20.5 -104.5v-561h-201z" />
    <glyph glyph-name="uni0E02" unicode="&#xe02;" horiz-adv-x="786" 
d="M725 238q0 -55 -21 -101.5t-62.5 -80.5t-104 -53t-146.5 -19q-83 0 -145 19t-103 53t-61.5 80.5t-20.5 101.5v225q0 32 8 52.5t20.5 34t27 22.5t27 17t20.5 17.5t8 24.5q0 31 -23 43t-65 12h-23v133h150q25 0 53 -6.5t52 -21t40.5 -37.5t18.5 -56q3 -40 -4 -66.5t-20 -45
t-28 -32t-29 -27t-23 -30.5t-9 -42v-191q0 -37 9.5 -62t27 -40.5t41 -22t51.5 -6.5t52.5 6.5t42.5 22t28 40.5t10 62v555h201v-581v0z" />
    <glyph glyph-name="uni0E03" unicode="&#xe03;" horiz-adv-x="786" 
d="M725 238q0 -55 -21 -101.5t-62.5 -80.5t-104 -53t-146.5 -19q-83 0 -145 19t-103 53t-61.5 80.5t-20.5 101.5v221q0 28 8.5 46.5t21.5 31t28.5 22.5t28.5 21.5t21.5 28t8.5 42.5h-139v168h100l72 -65l63 65h113v-137q0 -43 -9.5 -69.5t-23 -44t-30 -29t-30 -24.5
t-23 -30.5t-9.5 -46.5v-174q0 -37 9.5 -62t27 -40.5t41 -22t51.5 -6.5t52.5 6.5t42.5 22t28 40.5t10 62v555h201v-581v0z" />
    <glyph glyph-name="uni0E04" unicode="&#xe04;" horiz-adv-x="831" 
d="M569 0v555q0 37 -13.5 62t-35 40.5t-49.5 22t-57 6.5q-26 0 -53 -6.5t-49 -22t-36 -40.5t-14 -62v-84h172v-178h-172v-293h-201v561q0 55 20.5 104.5t63 87.5t109.5 60.5t160 22.5q94 0 161 -22.5t110.5 -60.5t64 -87.5t20.5 -104.5v-561h-201z" />
    <glyph glyph-name="uni0E05" unicode="&#xe05;" horiz-adv-x="831" 
d="M569 0v586q0 29 -13 49t-32 27l-110 -76l-107 76q-18 -7 -31.5 -27t-13.5 -49v-125h172v-174h-172v-287h-201v588q0 49 17.5 92t48.5 76t74.5 54t95.5 26l117 -86l121 86q52 -5 95.5 -26t74.5 -54t48 -76t17 -92v-588h-201z" />
    <glyph glyph-name="uni0E06" unicode="&#xe06;" horiz-adv-x="831" 
d="M770 223q0 -53 -18.5 -96.5t-51.5 -74t-80 -47.5t-104 -17q-44 0 -81.5 9t-69.5 24.5t-57.5 36t-45.5 44.5v-102h-201v459q0 28 8.5 46.5t21.5 31t28.5 22.5t28.5 21.5t21.5 28t8.5 42.5h-139v168h100l72 -65l63 65h113v-137q0 -43 -9.5 -69.5t-23 -44t-30 -29t-30 -24.5
t-23 -30.5t-9.5 -46.5v-114q0 -29 12.5 -62.5t35.5 -61.5t56.5 -46.5t75.5 -18.5q35 0 59 11t39 31t22 47.5t7 60.5v534h201v-596v0z" />
    <glyph glyph-name="uni0E07" unicode="&#xe07;" horiz-adv-x="809" 
d="M758 440q0 -98 -17 -178.5t-52.5 -139t-90.5 -90.5t-131 -32h-317l-130 819h209l105 -669h72q24 0 51 13t49 45t36.5 87.5t14.5 140.5q0 68 -15.5 112.5t-41 70.5t-59 36.5t-70.5 10.5v153h80q82 0 140.5 -30.5t95.5 -82t54 -120.5t17 -146z" />
    <glyph glyph-name="uni0E08" unicode="&#xe08;" horiz-adv-x="797" 
d="M748 428q-3 -98 -22 -177t-56.5 -134.5t-95 -86t-136.5 -30.5h-270l-43 307q-6 40 -18 60t-44 20h-24v129h170q40 0 66 -21t32 -63l39 -282h49q28 0 55.5 15.5t49 49t34.5 86t13 127.5q0 125 -43.5 191.5t-126.5 66.5q-32 0 -57 -8.5t-43.5 -22.5t-31 -32.5t-18.5 -38.5
h-209q6 43 30 88t68 81.5t110 59.5t155 23q98 0 168.5 -30.5t115 -85t64.5 -129.5t19 -163z" />
    <glyph glyph-name="uni0E09" unicode="&#xe09;" horiz-adv-x="809" 
d="M547 0v102q-17 -21 -40.5 -41.5t-54.5 -36.5t-68 -26t-81 -10q-54 0 -99 17t-76.5 47.5t-49 74t-17.5 96.5v84q0 16 -0.5 29.5t-3.5 23.5t-10 15.5t-20 5.5h-11v127h164q42 0 62 -21t20 -53v-149q0 -33 5.5 -60.5t19 -47.5t35.5 -31t55 -11q40 0 71.5 18t53.5 45.5
t33.5 61t11.5 64.5v200q0 81 -46 121.5t-118 40.5q-30 0 -57.5 -8t-49 -23t-36.5 -36t-19 -46h-205q4 52 31 100t74.5 84t115 57.5t152.5 21.5q88 0 155.5 -21t112.5 -58.5t68 -89t23 -112.5v-555h-201z" />
    <glyph glyph-name="uni0E0A" unicode="&#xe0a;" horiz-adv-x="809" 
d="M756 297q0 -83 -27 -140.5t-73.5 -93.5t-109 -52t-132.5 -15l-353 4v819h201v-669h80q40 0 77 7.5t65.5 27t45.5 52t17 82.5q0 91 -52.5 137.5t-142.5 51.5v133q37 1 72.5 11.5t62.5 32t42 55t12 79.5h207q4 -41 -5.5 -79t-32 -70t-57.5 -56.5t-80 -38.5v-2
q34 -11 67 -35t58.5 -59t41.5 -81t16 -101z" />
    <glyph glyph-name="uni0E0B" unicode="&#xe0b;" horiz-adv-x="815" 
d="M764 297q0 -83 -27 -140.5t-73.5 -93.5t-108 -52t-131.5 -15l-350 4v459q0 28 6.5 46t16 31t20.5 23.5t20.5 22.5t16 28t6.5 41h-121v168h88l72 -65l63 65h103v-141q0 -35 -6.5 -57t-17 -37t-22 -25.5t-22 -22.5t-17 -28.5t-6.5 -42.5v-315h76q41 0 78 8t65.5 28.5
t45 55.5t16.5 88q0 86 -34 129.5t-115 48.5v133q29 3 56.5 13t48 30.5t31.5 53.5t7 81h207q4 -41 -5 -80t-30 -71t-53 -56.5t-74 -36.5v-2q35 -11 66 -35.5t54 -60t36.5 -81t13.5 -99.5z" />
    <glyph glyph-name="uni0E0C" unicode="&#xe0c;" horiz-adv-x="1315" 
d="M1253 223q0 -53 -17.5 -96.5t-49 -74t-76 -47.5t-98.5 -17q-44 0 -81 10t-67 26t-53.5 36.5t-40.5 41.5v-102h-201v555q0 33 -12 57.5t-33 41t-49.5 24.5t-60.5 8q-25 0 -49 -6.5t-45 -18.5t-36.5 -29t-23.5 -38l66 -51q-25 -13 -44.5 -36.5t-19.5 -55.5v-297h103v-154
h-304v438q0 32 19 62.5t61 46.5l-86 59q6 40 30 81t67.5 74t108 54t153.5 21q97 0 165 -23t110.5 -61.5t61.5 -89.5t19 -107v-231q0 -29 11 -62.5t32.5 -61.5t53 -46.5t71.5 -18.5q33 0 55 11t35.5 31t19 47.5t5.5 60.5v534h200v-596v0z" />
    <glyph glyph-name="uni0E0D" unicode="&#xe0d;" horiz-adv-x="1315" 
d="M1253 57q0 -65 -14 -120t-51 -95t-102 -63t-166 -23h-351v158h320q81 0 122.5 32t41.5 79v41q-37 -32 -89.5 -51t-123.5 -19q-60 0 -110 13.5t-85.5 42.5t-55.5 74.5t-20 109.5v319q0 33 -12 57.5t-33 41t-49.5 24.5t-60.5 8q-25 0 -49 -6.5t-45 -18.5t-36.5 -29
t-23.5 -38l66 -51q-25 -13 -44.5 -36.5t-19.5 -55.5v-297h103v-154h-304v438q0 32 19 62.5t61 46.5l-86 59q6 40 30 81t67.5 74t108 54t153.5 21q97 0 165 -23t110.5 -61.5t61.5 -89.5t19 -107v-274q0 -39 10.5 -65.5t29 -43t44 -24t55.5 -7.5q63 0 103.5 33t40.5 107v538
h200v-762v0z" />
    <glyph glyph-name="uni0E0E" unicode="&#xe0e;" horiz-adv-x="854" 
d="M467 -307l-96 65l-95 -65h-192v151h182l105 68l104 -68h117v711q0 33 -12.5 57.5t-33.5 41t-49.5 24.5t-60.5 8q-24 0 -48.5 -6.5t-45 -18.5t-36.5 -29t-23 -38l65 -51q-25 -13 -44 -36.5t-19 -55.5v-451h-269v154h68v284q0 32 19 62.5t61 46.5l-86 59q6 40 29.5 81
t67 74t108.5 54t153 21q97 0 165 -23t111 -61.5t62 -89.5t19 -107v-862h-326z" />
    <glyph glyph-name="uni0E0F" unicode="&#xe0f;" horiz-adv-x="854" 
d="M537 -307l-101 65l-106 -65h-246v215h201v-84l151 90l156 -92v733q0 33 -12.5 57.5t-33.5 41t-49.5 24.5t-60.5 8q-24 0 -48.5 -6.5t-45 -18.5t-36.5 -29t-23 -38l65 -51q-25 -13 -44 -36.5t-19 -55.5v-451h-269v154h68v284q0 32 19 62.5t61 46.5l-86 59q6 40 29.5 81
t67 74t108.5 54t153 21q97 0 165 -23t111 -61.5t62 -89.5t19 -107v-862h-256z" />
    <glyph glyph-name="uni0E10" unicode="&#xe10;" horiz-adv-x="809" 
d="M791 881q-3 -18 -11 -38t-24.5 -40t-42 -38t-62.5 -30q53 -54 76 -132.5t21 -174.5q-3 -98 -22 -177t-56.5 -134.5t-95 -86t-136.5 -30.5h-270l-43 307q-6 40 -18 60t-44 20h-24v129h170q40 0 66 -21t32 -63l39 -282h49q28 0 55.5 15.5t49 49t34.5 86t13 127.5
q0 125 -43.5 191.5t-126.5 66.5q-32 0 -57 -8.5t-43.5 -22.5t-31 -32.5t-18.5 -38.5h-209q6 43 30 88t68 81.5t110 59.5t155 23q38 0 72 -5t65 -14q17 13 26.5 30.5t12.5 33.5h234zM444 -307l-94 65l-96 -65h-193v151h183l106 68l99 -68h75v86h201v-237h-281z" />
    <glyph glyph-name="uni0E11" unicode="&#xe11;" horiz-adv-x="842" 
d="M580 0v631l-291 -631h-215v465q0 26 7 43t17.5 29.5t22.5 22.5t22.5 22t17.5 28t7 41h-127v168h84l72 -65l63 65h115v-137q0 -32 -7.5 -53t-18.5 -36.5t-24.5 -27t-24.5 -24.5t-18.5 -29.5t-7.5 -40.5v-59q0 -22 -2.5 -52t-4.5 -57q-4 -32 -7 -65h4q7 30 15 59
q7 25 16 51.5t18 46.5l201 424h133q60 0 96.5 -36t36.5 -111v-672h-200z" />
    <glyph glyph-name="uni0E12" unicode="&#xe12;" horiz-adv-x="1348" 
d="M1286 223q0 -53 -17.5 -96.5t-49 -74t-76 -47.5t-99.5 -17q-44 0 -81.5 10t-67.5 26t-53.5 36.5t-40.5 41.5v-102h-201v633l-125 -109l-141 113q-9 -5 -24.5 -21t-30.5 -44.5t-26 -71t-11 -99.5q0 -75 18.5 -122t48.5 -72t69 -31.5t81 0.5v-176q-111 -21 -190.5 5
t-130.5 83.5t-75 139.5t-24 173q0 98 27.5 175.5t71 132.5t98.5 86t110 36l129 -98l98 86h228v-495q0 -29 11.5 -62.5t33.5 -61.5t53.5 -46.5t71.5 -18.5q32 0 54 11t35.5 31t19 47.5t5.5 60.5v534h201v-596v0z" />
    <glyph glyph-name="uni0E13" unicode="&#xe13;" horiz-adv-x="1315" 
d="M1053 0v102q-17 -21 -40.5 -41.5t-53.5 -36.5t-67 -26t-81 -10q-54 0 -99 17t-76.5 47.5t-49 74t-17.5 96.5v332q0 33 -12 57.5t-33 41t-49.5 24.5t-60.5 8q-25 0 -49 -6.5t-45 -18.5t-36.5 -29t-23.5 -38l66 -51q-25 -13 -44.5 -36.5t-19.5 -55.5v-297h103v-154h-304
v438q0 32 19 62.5t61 46.5l-86 59q6 40 30 81t67.5 74t108 54t153.5 21q97 0 165 -23t110.5 -61.5t61.5 -89.5t19 -107v-270q0 -33 5.5 -60.5t19 -47.5t35.5 -31t55 -11q40 0 71 18t52.5 45.5t33 61t11.5 64.5v495h200v-819h-200z" />
    <glyph glyph-name="uni0E14" unicode="&#xe14;" horiz-adv-x="842" 
d="M580 0v659l-121 3q-43 1 -82.5 -14.5t-69.5 -47.5t-47.5 -81.5t-17.5 -117.5q0 -75 18.5 -122t48.5 -72t69 -31.5t81 0.5v-176q-114 -21 -194 5t-130.5 83.5t-73 139.5t-22.5 173q0 92 25 169.5t71.5 133.5t114 87t151.5 30l379 -2v-819h-200z" />
    <glyph glyph-name="uni0E15" unicode="&#xe15;" horiz-adv-x="862" 
d="M600 0v633l-125 -109l-141 113q-9 -5 -24.5 -21t-30.5 -44.5t-26 -71t-11 -99.5q0 -75 18.5 -122t48.5 -72t69 -31.5t81 0.5v-176q-111 -21 -190.5 5t-130.5 83.5t-75 139.5t-24 173q0 98 27.5 175.5t71 132.5t98.5 86t110 36l129 -98l98 86h228v-819h-201z" />
    <glyph glyph-name="uni0E16" unicode="&#xe16;" horiz-adv-x="831" 
d="M569 0v555q0 33 -12 57.5t-33 41t-49.5 24.5t-60.5 8q-25 0 -49 -6.5t-45 -18.5t-36.5 -29t-23.5 -38l66 -51q-25 -13 -44.5 -36.5t-19.5 -55.5v-297h103v-154h-304v438q0 32 19 62.5t61 46.5l-86 59q6 40 30 81t67.5 74t108 54t153.5 21q97 0 165 -23t110.5 -61.5
t61.5 -89.5t19 -107v-555h-201z" />
    <glyph glyph-name="uni0E17" unicode="&#xe17;" horiz-adv-x="831" 
d="M569 0v532q0 33 -7 61t-22 47.5t-39 30.5t-59 11q-42 0 -75.5 -18.5t-56.5 -46.5t-35.5 -61t-12.5 -62v-494h-201v819h201v-104q20 24 45.5 44.5t57.5 36t69.5 24.5t81.5 9q57 0 104 -17t80 -47.5t51.5 -74t18.5 -96.5v-594h-201z" />
    <glyph glyph-name="uni0E18" unicode="&#xe18;" horiz-adv-x="819" 
d="M561 573q-3 27 -18 48t-38 35.5t-53 22t-63 7.5q-31 0 -57 -7t-44.5 -18.5t-29 -27t-10.5 -33.5q0 -20 22 -31t58 -18t81.5 -12.5t93.5 -14t93.5 -23.5t81.5 -41.5t58 -66t22 -98.5v-295h-697v348h201v-198h295v108q0 39 -22 61.5t-58 35.5t-81.5 19t-93.5 13t-93.5 17
t-81.5 31t-58 56t-22 91q0 54 24.5 100t70.5 80.5t112.5 54t151.5 19.5q86 0 151 -20t110 -55.5t69.5 -83.5t29.5 -104h-205z" />
    <glyph glyph-name="uni0E19" unicode="&#xe19;" horiz-adv-x="831" 
d="M569 0v104q-20 -24 -45.5 -44.5t-57.5 -36t-69.5 -24.5t-81.5 -9q-57 0 -104 17t-80.5 47.5t-51.5 74t-18 96.5v594h86q53 0 84 -27.5t31 -89.5v-415q0 -66 29 -108t98 -42q42 0 75.5 18.5t57 46.5t35.5 61.5t12 62.5v493h201v-819h-201z" />
    <glyph glyph-name="uni0E1A" unicode="&#xe1a;" horiz-adv-x="831" 
d="M770 258q0 -54 -20.5 -104t-64 -87.5t-110.5 -60t-161 -22.5q-93 0 -160 22.5t-109.5 60t-63 87.5t-20.5 104v561h86q53 0 84 -27.5t31 -89.5v-426q0 -36 11.5 -63t32 -44.5t48.5 -26.5t60 -9q34 0 62.5 8.5t49 25.5t32 44t11.5 65v543h201v-561v0z" />
    <glyph glyph-name="uni0E1B" unicode="&#xe1b;" horiz-adv-x="831" 
d="M770 258q0 -54 -20.5 -104t-64 -87.5t-110.5 -60t-161 -22.5q-93 0 -160 22.5t-109.5 60t-63 87.5t-20.5 104v561h86q53 0 84 -27.5t31 -89.5v-426q0 -36 11.5 -63t32 -44.5t48.5 -26.5t60 -9q34 0 62.5 8.5t49 25.5t32 44t11.5 65v748h201v-766v0z" />
    <glyph glyph-name="uni0E1C" unicode="&#xe1c;" horiz-adv-x="1004" 
d="M864 0h-213l-145 557h-4l-146 -557h-215l-127 819h283v-139h-70l54 -385h4l143 524h152l145 -524h4l74 524h186z" />
    <glyph glyph-name="uni0E1D" unicode="&#xe1d;" horiz-adv-x="1004" 
d="M864 0h-213l-145 557h-4l-146 -557h-215l-127 819h283v-139h-70l54 -385h4l143 524h152l145 -524h4l105 729h186z" />
    <glyph glyph-name="uni0E1E" unicode="&#xe1e;" horiz-adv-x="1004" 
d="M864 0h-213l-145 557h-4l-146 -557h-215l-127 819h193l74 -524h4l143 524h152l145 -524h4l72 524h188z" />
    <glyph glyph-name="uni0E1F" unicode="&#xe1f;" horiz-adv-x="1004" 
d="M864 0h-213l-145 557h-4l-146 -557h-215l-127 819h193l74 -524h4l143 524h152l145 -524h4l102 729h189z" />
    <glyph glyph-name="uni0E20" unicode="&#xe20;" horiz-adv-x="854" 
d="M592 0v555q0 33 -12.5 57.5t-33.5 41t-49.5 24.5t-60.5 8q-24 0 -48.5 -6.5t-45 -18.5t-36.5 -29t-23 -38l65 -51q-25 -13 -44 -36.5t-19 -55.5v-451h-269v154h68v284q0 32 19 62.5t61 46.5l-86 59q6 40 29.5 81t67 74t108.5 54t153 21q97 0 165 -23t111 -61.5t62 -89.5
t19 -107v-555h-201z" />
    <glyph glyph-name="uni0E21" unicode="&#xe21;" horiz-adv-x="831" 
d="M770 225q0 -53 -18 -96.5t-51 -74t-80 -47.5t-105 -17q-44 0 -81.5 9t-69.5 24.5t-57.5 36t-45.5 44.5v-104h-201v819h86q53 0 84 -27.5t31 -89.5v-376q0 -29 12.5 -62.5t35.5 -61.5t56.5 -46.5t75.5 -18.5q35 0 59 11t39 31t22 47.5t7 60.5v532h201v-594v0z" />
    <glyph glyph-name="uni0E22" unicode="&#xe22;" horiz-adv-x="831" 
d="M334 -4q-77 -1 -132.5 14.5t-91.5 44.5t-53.5 71.5t-17.5 96.5q0 48 15.5 85.5t39.5 65t53.5 45t57.5 25.5v2q-24 5 -49.5 18.5t-46.5 36t-34.5 53.5t-13.5 71q0 42 16.5 78t47 62.5t75 41.5t101.5 14l131 -2v-151q-72 3 -118 -15.5t-46 -62.5q0 -26 15 -42t38.5 -24.5
t52.5 -10t58 0.5v-141q-35 3 -67 -3t-57.5 -20.5t-40.5 -37t-15 -52.5q0 -39 15.5 -61.5t41 -33.5t57.5 -13.5t64 -1.5l139 4v665h201v-819z" />
    <glyph glyph-name="uni0E23" unicode="&#xe23;" horiz-adv-x="795" 
d="M555 573q-2 24 -14.5 44.5t-34 36t-50.5 24t-63 8.5q-32 0 -58 -7t-45 -19t-29.5 -28t-10.5 -34q0 -26 21.5 -41t57 -24t81 -15t92.5 -16t92.5 -26t81 -44.5t57 -73t21.5 -110.5q0 -127 -89.5 -195.5t-273.5 -68.5q-171 0 -262.5 74.5t-91.5 205.5h205q0 -35 15 -60
t39 -41t54 -23t60 -7q31 0 57.5 7.5t45.5 20t29.5 29.5t10.5 35q0 37 -21.5 58t-57 33.5t-81 20t-92.5 16t-92.5 22t-81 38.5t-57 65.5t-21.5 103.5q0 54 24.5 100t70 80.5t110 54t145.5 19.5q88 0 155 -21t112 -56.5t67.5 -83.5t22.5 -102h-201z" />
    <glyph glyph-name="uni0E24" unicode="&#xe24;" horiz-adv-x="831" 
d="M569 -246v801q0 33 -12 57.5t-33 41t-49.5 24.5t-60.5 8q-25 0 -49 -6.5t-45 -18.5t-36.5 -29t-23.5 -38l66 -51q-25 -13 -44.5 -36.5t-19.5 -55.5v-297h103v-154h-304v438q0 32 19 62.5t61 46.5l-86 59q6 40 30 81t67.5 74t108 54t153.5 21q97 0 165 -23t110.5 -61.5
t61.5 -89.5t19 -107v-801h-201z" />
    <glyph glyph-name="uni0E25" unicode="&#xe25;" horiz-adv-x="823" 
d="M561 0v334q-3 7 -14.5 18.5t-32 22.5t-49 18.5t-64.5 7.5t-66 -10t-51.5 -27t-33.5 -40.5t-12 -51.5q0 -41 19 -67.5t48 -39.5t63 -13t64 12v-162q-100 -20 -174 -4.5t-122.5 55t-72.5 97.5t-24 124q0 58 21 111.5t62 94.5t103 66t144 25q77 0 125.5 -16.5t66.5 -32.5v43
q0 28 -12 50t-32 38t-48 24.5t-59 8.5q-65 0 -105.5 -29.5t-52.5 -72.5h-205q5 45 30.5 90t70.5 81t109.5 58.5t148.5 22.5q90 0 157 -19.5t111.5 -54.5t66 -83t21.5 -106v-573h-201z" />
    <glyph glyph-name="uni0E26" unicode="&#xe26;" horiz-adv-x="854" 
d="M592 -246v801q0 33 -12.5 57.5t-33.5 41t-49.5 24.5t-60.5 8q-24 0 -48.5 -6.5t-45 -18.5t-36.5 -29t-23 -38l65 -51q-25 -13 -44 -36.5t-19 -55.5v-451h-269v154h68v284q0 32 19 62.5t61 46.5l-86 59q6 40 29.5 81t67 74t108.5 54t153 21q97 0 165 -23t111 -61.5
t62 -89.5t19 -107v-801h-201z" />
    <glyph glyph-name="uni0E27" unicode="&#xe27;" horiz-adv-x="799" 
d="M754 410q0 -101 -20 -180t-64 -134t-113.5 -83.5t-169.5 -28.5q-84 0 -148.5 22.5t-108.5 61.5t-67 90.5t-24 109.5h209q2 -25 12 -47t27.5 -38.5t41.5 -26t54 -9.5t58.5 9.5t51 37.5t36.5 79.5t14 136.5q0 84 -14 135.5t-36.5 79.5t-51 37.5t-58.5 9.5t-54 -9.5
t-41.5 -26t-27.5 -38.5t-12 -47h-209q1 58 24 110t67 91t108.5 61.5t148.5 22.5q100 0 169.5 -29t113.5 -83.5t64 -134t20 -179.5z" />
    <glyph glyph-name="uni0E28" unicode="&#xe28;" horiz-adv-x="831" 
d="M831 881q-2 -17 -10 -36.5t-23 -39t-39 -37t-59 -29.5q36 -37 53 -82t17 -96v-561h-201v555q0 37 -13.5 62t-35 40.5t-49.5 22t-57 6.5q-26 0 -53 -6.5t-49 -22t-36 -40.5t-14 -62v-84h172v-178h-172v-293h-201v561q0 55 20.5 104.5t63 87.5t109.5 60.5t160 22.5
q42 0 77 -4.5t66 -12.5q19 13 28.5 29t12.5 33h233v0z" />
    <glyph glyph-name="uni0E29" unicode="&#xe29;" horiz-adv-x="831" 
d="M770 258q0 -54 -20.5 -104t-64 -87.5t-110.5 -60t-161 -22.5q-93 0 -160 22.5t-109.5 60t-63 87.5t-20.5 104v561h201v-543q0 -36 11.5 -63t32 -44.5t48.5 -26.5t60 -9q34 0 62.5 8.5t49 25.5t32 44t11.5 65v146q-14 -38 -48.5 -63t-76.5 -25q-27 0 -51 10.5t-42 29
t-29 42.5t-11 51t11 51t29 42.5t42 29t51 10.5q42 0 76.5 -25t48.5 -63v307h201v-561v0z" />
    <glyph glyph-name="uni0E2A" unicode="&#xe2a;" horiz-adv-x="823" 
d="M823 881q-2 -16 -10.5 -36.5t-24 -40.5t-37.5 -37.5t-51 -27.5q62 -68 62 -166v-573h-201v334q-3 7 -14.5 18.5t-32 22.5t-49 18.5t-64.5 7.5t-66 -10t-51.5 -27t-33.5 -40.5t-12 -51.5q0 -41 19 -67.5t48 -39.5t63 -13t64 12v-162q-100 -20 -174 -4.5t-122.5 55
t-72.5 97.5t-24 124q0 58 21 111.5t62 94.5t103 66t144 25q77 0 125.5 -16.5t66.5 -32.5v43q0 28 -12 50t-32 38t-48 24.5t-59 8.5q-65 0 -105.5 -29.5t-52.5 -72.5h-205q5 45 30.5 90t70.5 81t109.5 58.5t148.5 22.5q45 0 83 -5t72 -14q16 13 22.5 31.5t6.5 32.5h233v0z
" />
    <glyph glyph-name="uni0E2B" unicode="&#xe2b;" horiz-adv-x="831" 
d="M569 0v373q0 28 -5.5 53.5t-19 44.5t-36.5 30t-57 11q-36 0 -70 -17.5t-60.5 -44.5t-42.5 -59.5t-16 -62.5v-328h-201v819h201v-270q90 94 213 117h-86v153h381v-153h-164q42 -10 73 -33.5t51.5 -55.5t30 -71.5t9.5 -81.5v-424h-201z" />
    <glyph glyph-name="uni0E2C" unicode="&#xe2c;" horiz-adv-x="1004" 
d="M1016 971q-4 -26 -11.5 -50.5t-22 -44t-38 -33.5t-59.5 -20v-2q51 -17 71.5 -59t12.5 -90l-105 -672h-213l-145 557h-4l-146 -557h-215l-127 819h191l76 -524h4l143 524h152l145 -524h4l49 348q4 25 2.5 47.5t-9.5 40.5t-24 29.5t-42 13.5v105q37 1 61 9t38.5 22.5t22 35
t11.5 47.5l4 31h182z" />
    <glyph glyph-name="uni0E2D" unicode="&#xe2d;" horiz-adv-x="903" 
d="M860 410q0 -96 -29 -174.5t-83 -134.5t-130 -86.5t-169 -30.5q-101 0 -182.5 36.5t-136 104t-80 164t-13.5 215.5h391v-160h-170q-2 -44 13.5 -81t41.5 -63.5t60.5 -41.5t72.5 -15q41 0 78 16.5t65.5 49.5t45 83t16.5 118q0 71 -18 120.5t-47.5 80.5t-67 45t-76.5 14
q-35 0 -65.5 -11.5t-54.5 -30t-40.5 -41t-23.5 -44.5l-190 53q17 51 51.5 94.5t83.5 76t111.5 51t134.5 18.5q93 0 169 -30.5t130 -86.5t83 -134.5t29 -174.5z" />
    <glyph glyph-name="uni0E2E" unicode="&#xe2e;" horiz-adv-x="903" 
d="M860 410q0 -96 -29 -174.5t-83 -134.5t-130 -86.5t-169 -30.5q-101 0 -182.5 36.5t-136 104t-80 164t-13.5 215.5h391v-160h-170q-2 -44 13.5 -81t41.5 -63.5t60.5 -41.5t72.5 -15q41 0 78 16.5t65.5 49.5t45 83t16.5 118q0 71 -18 120.5t-47.5 80.5t-67 45t-76.5 14
q-35 0 -65.5 -11.5t-54.5 -30t-40.5 -41t-23.5 -44.5l-190 53q17 51 51.5 94.5t83.5 76t111.5 51t134.5 18.5q74 0 139 -21q18 12 26.5 31t10.5 35h233q-2 -17 -11 -37.5t-24.5 -41t-39.5 -37.5t-56 -26q65 -57 99 -140t34 -189z" />
    <glyph glyph-name="uni0E2F" unicode="&#xe2f;" horiz-adv-x="774" 
d="M512 0v578q-12 -15 -34.5 -32t-54.5 -31.5t-71 -24t-84 -9.5q-49 0 -91 12t-72.5 36t-48 59.5t-17.5 81.5q0 33 13 61.5t36.5 49t55 32.5t69.5 12q20 0 37.5 -1t29.5 -3q14 -2 25 -4v-115q-31 5 -50 -4.5t-19 -29.5q0 -22 22 -32.5t57 -10.5q36 0 71 12.5t63 37.5
t45.5 61t17.5 83h201v-819h-201z" />
    <glyph glyph-name="uni0E30" unicode="&#xe30;" horiz-adv-x="494" 
d="M61 489v228h201v-84h170v-144h-371zM61 102v228h201v-84h170v-144h-371z" />
    <glyph glyph-name="uni0E31" unicode="&#xe31;" 
d="M-461 922v225h201v-92h444v-133h-645z" />
    <glyph glyph-name="uni0E32" unicode="&#xe32;" horiz-adv-x="553" 
d="M291 0v463q0 37 -10.5 69.5t-31.5 56t-53 37t-75 13.5h-101v180h138q86 0 149 -26t104 -71.5t61 -107t20 -131.5v-483h-201z" />
    <glyph glyph-name="uni0E33" unicode="&#xe33;" horiz-adv-x="512" 
d="M-25 1038q0 -26 -10.5 -49t-29.5 -40.5t-44 -27.5t-53 -10q-29 0 -53.5 10t-43.5 27.5t-29.5 40.5t-10.5 49q0 27 10.5 50t29.5 40.5t43.5 27t53.5 9.5q28 0 53 -9.5t44 -27t29.5 -40.5t10.5 -50zM270 0v463q0 37 -10.5 69.5t-31.5 56t-53 37t-75 13.5h-100v180h137
q86 0 149 -26t104 -71.5t61 -107t20 -131.5v-483h-201z" />
    <glyph glyph-name="uni0E34" unicode="&#xe34;" 
d="M-61 1001q0 -38 -26 -58.5t-65 -20.5h-598v133h689v-54v0z" />
    <glyph glyph-name="uni0E35" unicode="&#xe35;" 
d="M-750 922v133h488v92h201v-225h-689z" />
    <glyph glyph-name="uni0E36" unicode="&#xe36;" 
d="M-27 1038q0 -24 -8.5 -45t-26 -36.5t-42.5 -25t-58 -9.5h-588v133h453q6 43 39.5 71.5t95.5 28.5q66 0 100.5 -34.5t34.5 -82.5z" />
    <glyph glyph-name="uni0E37" unicode="&#xe37;" 
d="M-750 922v133h291v92h135v-92h62v92h201v-225h-689z" />
    <glyph glyph-name="uni0E38" unicode="&#xe38;" 
d="M-262 -328v129h-80v138h281v-267h-201z" />
    <glyph glyph-name="uni0E39" unicode="&#xe39;" 
d="M-61 -164q0 -41 -12.5 -73.5t-42 -55t-77.5 -34t-118 -11.5q-74 0 -123 10.5t-78.5 31t-42 50t-12.5 68.5h-43v117h235v-103q0 -28 15 -40.5t41 -12.5q27 0 42 12.5t15 40.5v103h201v-103v0z" />
    <glyph glyph-name="uni0E3A" unicode="&#xe3a;" 
d="M-35 -178q0 -24 -9.5 -45.5t-26.5 -37t-40 -25t-51 -9.5t-51 9.5t-40 25t-26.5 37t-9.5 45.5t9.5 45.5t26.5 37.5t40 25t51 9t51 -9t40 -25t26.5 -37.5t9.5 -45.5z" />
    <glyph glyph-name="uni0E3F" unicode="&#xe3f;" horiz-adv-x="844" 
d="M788 279q0 -57 -15 -100t-40.5 -73.5t-58.5 -50.5t-68.5 -32t-71.5 -17t-67 -6v-125h-66v125h-288v965h288v116h66v-116q47 -2 98.5 -12t95 -37t71.5 -75t28 -124q0 -43 -14 -79t-39.5 -64t-61 -46.5t-78.5 -25.5v-2q50 -5 90.5 -23.5t69.5 -47.5t45 -67.5t16 -82.5z
M567 692q0 28 -8 48.5t-21.5 34t-31.5 21t-39 11.5v-223q20 4 38 12.5t32 21.5t22 31.5t8 42.5zM401 813h-20h-76v-238h80h16v238zM596 287q0 35 -10.5 60t-28 41.5t-41 25.5t-49.5 14v-270q26 4 49.5 12.5t41 24t28 38t10.5 54.5zM401 432h-4h-92v-280h92h4v280z" />
    <glyph glyph-name="uni0E40" unicode="&#xe40;" horiz-adv-x="406" 
d="M102 0v819h201v-819h-201z" />
    <glyph glyph-name="uni0E41" unicode="&#xe41;" horiz-adv-x="709" 
d="M406 0v819h200v-819h-200zM102 0v819h201v-819h-201z" />
    <glyph glyph-name="uni0E42" unicode="&#xe42;" horiz-adv-x="446" 
d="M588 1098q-15 -5 -33 -9q-16 -3 -38 -5.5t-48 -2.5q-37 0 -73.5 5.5t-66 8.5t-47.5 -1t-18 -23q0 -14 9.5 -26t20.5 -26t20.5 -32t9.5 -43v-944h-201v930q0 32 -12 52t-26 36.5t-26 35t-12 48.5q0 72 50.5 115t138.5 43q34 0 60 -5t50.5 -10.5t49.5 -10.5t57 -5t57.5 2.5
t42.5 5.5q20 4 35 8v-147v0z" />
    <glyph glyph-name="uni0E43" unicode="&#xe43;" horiz-adv-x="446" 
d="M418 1124q2 -34 -4.5 -57t-17 -39.5t-23 -29.5t-23.5 -26t-18.5 -29.5t-7.5 -39.5v-903h-201v915q0 42 16 64.5t35 38.5t35 31.5t16 44.5q0 20 -18.5 34.5t-52.5 14.5h-7q-21 0 -37 -6.5t-26.5 -17.5t-16 -25t-4.5 -29v-9t1 -7q1 -4 2 -7h-170q-2 8 -3 27.5t1 38.5
q5 75 66 118.5t169 43.5h57q61 0 104 -10.5t71 -30t41.5 -46.5t15.5 -59z" />
    <glyph glyph-name="uni0E44" unicode="&#xe44;" horiz-adv-x="446" 
d="M399 1102q0 -30 -11.5 -48.5t-26 -35t-26 -36.5t-11.5 -52v-930h-201v946q0 25 9 41t20.5 28.5t20.5 25t9 30.5q0 19 -16.5 24.5t-45 4t-65.5 -5.5t-78 -4q-26 0 -47.5 2.5t-37.5 5.5q-18 4 -33 8v147q15 -4 35 -8q17 -3 42.5 -5.5t57.5 -2.5q31 0 55.5 3.5t47.5 8
t46.5 8t53.5 3.5q97 0 149.5 -40.5t52.5 -117.5z" />
    <glyph glyph-name="uni0E45" unicode="&#xe45;" horiz-adv-x="553" 
d="M291 -246v709q0 37 -10.5 69.5t-31.5 56t-53 37t-75 13.5h-101v180h138q86 0 149 -26t104 -71.5t61 -107t20 -131.5v-729h-201z" />
    <glyph glyph-name="uni0E46" unicode="&#xe46;" horiz-adv-x="799" 
d="M537 -246v908l-127 -119l-115 96q-16 0 -33.5 -13t-17.5 -44q0 -20 8 -31.5t20.5 -17t27.5 -5.5t28 2v-151l-27 -2q-125 -9 -192.5 40t-67.5 169q0 45 10.5 87.5t36.5 74.5t69.5 51.5t108.5 19.5h29l121 -96l112 96h209v-1065h-200z" />
    <glyph glyph-name="uni0E47" unicode="&#xe47;" 
d="M-276 922l-89 59l-92 -59h-239v110q0 37 12.5 69t39 56t69 37.5t102.5 13.5h342v-94h-283q-49 0 -69.5 -18.5t-20.5 -42.5v-25h35l104 62l105 -62h129v-106h-145z" />
    <glyph glyph-name="uni0E48" unicode="&#xe48;" 
d="M-262 1198v184h201v-184h-201z" />
    <glyph glyph-name="uni0E49" unicode="&#xe49;" 
d="M-358 1198v49q0 10 -0.5 18t-4.5 13.5t-12.5 8.5t-23.5 3h-21v111h141q68 0 95.5 -22.5t27.5 -59.5v-10h215v-111h-417z" />
    <glyph glyph-name="uni0E4A" unicode="&#xe4a;" 
d="M-137 1198v92l-74 -53l-74 53v-92h-172v74q0 60 36 93.5t112 33.5h24l74 -51l72 51h26q150 0 150 -94v-11h82v-96h-256z" />
    <glyph glyph-name="uni0E4B" unicode="&#xe4b;" 
d="M-72 1264v-66h-180v66h-74v92h74v65h180v-65h74v-92h-74z" />
    <glyph glyph-name="uni0E4C" unicode="&#xe4c;" 
d="M-63 1200q-38 0 -51 -13.5t-13 -39.5v-21h-203v52q0 41 14 67t41 40.5t66 20t88 5.5h96v-111h-38z" />
    <glyph glyph-name="uni0E4D" unicode="&#xe4d;" 
d="M-25 1038q0 -26 -10.5 -49t-29.5 -40.5t-44 -27.5t-53 -10q-29 0 -53.5 10t-43.5 27.5t-29.5 40.5t-10.5 49q0 27 10.5 50t29.5 40.5t43.5 27t53.5 9.5q28 0 53 -9.5t44 -27t29.5 -40.5t10.5 -50z" />
    <glyph glyph-name="uni0E4E" unicode="&#xe4e;" 
d="M80 1438q-26 2 -46 3t-34 1q-44 0 -82.5 -5t-67 -15.5t-45.5 -26.5t-17 -37q0 -29 29 -35t92 -6v-94q-20 2 -35.5 3t-28.5 1q-40 0 -74 -6t-59.5 -16.5t-40 -26t-14.5 -33.5q0 -29 49 -29q31 0 58.5 9.5t58.5 23.5l49 -82q-35 -19 -80 -33t-90 -14q-8 2 -9 2h-7h-11
q-57 6 -92 36t-35 75q0 42 24 75.5t66 53.5q35 21 82 24q-43 21 -43 74q0 21 9.5 42.5t26.5 41t40.5 35.5t50.5 26q54 23 118 28t133 5h25v-100v0z" />
    <glyph glyph-name="uni0E4F" unicode="&#xe4f;" horiz-adv-x="983" 
d="M911 410q0 -87 -33 -163.5t-90 -133.5t-133 -90t-163 -33t-163.5 33t-133.5 90t-90 133.5t-33 163.5t33 163t90 133t133.5 90t163.5 33t163 -33t133 -90t90 -133t33 -163zM850 410q0 73 -28.5 138.5t-77 114t-114 77t-138.5 28.5q-74 0 -139.5 -28.5t-114 -77t-77 -114
t-28.5 -138.5q0 -74 28.5 -139.5t77 -114t114 -77t139.5 -28.5q73 0 138.5 28.5t114 77t77 114t28.5 139.5zM748 410q0 -53 -20 -100t-55 -81.5t-81.5 -54.5t-99.5 -20t-100 20t-81.5 54.5t-54.5 81.5t-20 100t20 99.5t54.5 81.5t81.5 55t100 20t99.5 -20t81.5 -55t55 -81.5
t20 -99.5z" />
    <glyph glyph-name="uni0E50" unicode="&#xe50;" horiz-adv-x="815" 
d="M774 307q0 -66 -22.5 -124t-68.5 -100.5t-114.5 -67.5t-160.5 -25t-160.5 25t-114 67.5t-68 100.5t-22.5 124q0 67 22.5 125t68 101t114 67.5t160.5 24.5t160.5 -24.5t114.5 -67.5t68.5 -101t22.5 -125zM567 307q0 34 -10.5 62.5t-31 49.5t-50 32.5t-67.5 11.5
q-39 0 -68.5 -11.5t-49.5 -32.5t-30 -49.5t-10 -62.5q0 -33 10 -61.5t30 -49t49.5 -32.5t68.5 -12q38 0 67.5 12t50 32.5t31 49t10.5 61.5z" />
    <glyph glyph-name="uni0E51" unicode="&#xe51;" horiz-adv-x="815" 
d="M772 303q-2 -76 -34 -135t-88.5 -100t-135 -63.5t-172.5 -24.5q-54 -2 -97 1.5t-74 8.5q-36 5 -65 12l-47 158q39 -13 82 -22q37 -8 83 -13t95 -2q60 3 106 18.5t77.5 40t48 55.5t16.5 66q2 75 -45 115.5t-129 40.5q-30 0 -56 -5.5t-45.5 -16t-30.5 -25.5t-11 -33
q0 -34 37.5 -47.5t105.5 6.5l-6 -158l-33 -6q-65 -12 -121.5 -6t-98.5 31.5t-66.5 70.5t-24.5 111q0 59 28 104.5t76 76.5t113 47t139 16q95 0 166 -23t117.5 -65.5t68.5 -102t21 -131.5z" />
    <glyph glyph-name="uni0E52" unicode="&#xe52;" horiz-adv-x="1059" 
d="M66 0v598q0 43 -19.5 79.5t-54.5 65.5l174 86q18 -11 36 -26t31.5 -35t22 -44.5t8.5 -53.5v-520h531v313l-101 -92l-106 92q-14 0 -26.5 -4t-22 -13.5t-15 -25t-4.5 -37.5q0 -21 8 -34t22.5 -19.5t33.5 -8t41 0.5v-132l-41 -4q-69 -7 -118 0t-80.5 30t-47 62t-16.5 97
q-3 65 11.5 111t42.5 75.5t68 43t88 13.5h66l96 -83l88 83h209v-618h-925z" />
    <glyph glyph-name="uni0E53" unicode="&#xe53;" horiz-adv-x="831" 
d="M561 0v446l-115 -94l-129 99q-10 -1 -20.5 -9.5t-19 -26.5t-14 -46.5t-5.5 -69.5q0 -49 10.5 -78.5t28 -44.5t41.5 -18.5t51 -1.5v-156l-59 -4q-89 -6 -144.5 15t-87.5 62t-43.5 98.5t-11.5 125.5q0 81 17 141t47.5 99t73 58t93.5 19h58l112 -82l101 82h219v-614h-203z
" />
    <glyph glyph-name="uni0E54" unicode="&#xe54;" horiz-adv-x="860" 
d="M469 451q-113 0 -166 -40t-53 -112q0 -40 12 -66.5t36.5 -42.5t61 -23.5t84.5 -8.5q-24 17 -39.5 43.5t-15.5 58.5q0 26 11 49t30 40t44.5 26.5t53.5 9.5q29 0 55 -9.5t45.5 -26.5t30.5 -40t11 -49q0 -32 -16 -58.5t-42 -43.5h185v-158h-414q-78 0 -141 16.5t-107.5 52
t-68 91t-23.5 133.5q0 73 24.5 131t71.5 99t115 63t154 22h204v211h203v-368h-346z" />
    <glyph glyph-name="uni0E55" unicode="&#xe55;" horiz-adv-x="883" 
d="M469 451q-113 0 -166 -40t-53 -112q0 -40 12 -66.5t36.5 -42.5t61 -23.5t84.5 -8.5q-24 17 -39.5 43.5t-15.5 58.5q0 26 11 49t30 40t44.5 26.5t53.5 9.5q29 0 55 -9.5t45.5 -26.5t30.5 -40t11 -49q0 -32 -16 -58.5t-42 -43.5h185v-158h-414q-78 0 -141 16.5t-107.5 52
t-68 91t-23.5 133.5q0 127 72.5 207t206.5 102q-23 16 -34.5 39t-11.5 49q0 24 11 46t31 38.5t48.5 26.5t63.5 10t64 -10t49.5 -26.5t31.5 -38.5t11 -46q0 -23 -10.5 -44t-28.5 -38h88v211h203v-368h-369z" />
    <glyph glyph-name="uni0E56" unicode="&#xe56;" horiz-adv-x="815" 
d="M774 305q0 -87 -25 -147t-72.5 -97.5t-115 -54t-151.5 -16.5q-160 0 -248 59.5t-94 196.5h202q7 -57 48 -82t98 -25q66 0 108.5 42.5t42.5 123.5q0 72 -40 115t-115 45q-28 0 -50.5 -6t-40.5 -14.5t-30.5 -19t-20.5 -19.5h-204v190q0 45 -19.5 81.5t-54.5 65.5l174 86
q18 -11 36 -26.5t31.5 -35.5t22 -44.5t8.5 -52.5v-131q15 17 36.5 31.5t47 25t54 16.5t57.5 6q86 0 146 -23t97.5 -64.5t54.5 -99t17 -126.5z" />
    <glyph glyph-name="uni0E57" unicode="&#xe57;" horiz-adv-x="1106" 
d="M1114 743q-34 -26 -53 -58t-19 -79v-383q0 -118 -67 -172.5t-195 -52.5l-219 2v449l-115 -97l-129 101q-10 -1 -20.5 -9.5t-19 -26.5t-14 -46.5t-5.5 -69.5q0 -50 10.5 -79.5t28 -45t41.5 -19t51 -1.5v-156l-59 -4q-89 -6 -144.5 15t-87.5 62t-43.5 99.5t-11.5 126.5
q0 81 17 141t47.5 99t73 58t93.5 19h58l112 -84l101 84h219v-458q43 2 63.5 28t20.5 72v389q0 38 9.5 67.5t24 51.5t32.5 37.5t36 25.5l164 -86v0z" />
    <glyph glyph-name="uni0E58" unicode="&#xe58;" horiz-adv-x="831" 
d="M545 0l-121 104l-102 -104l-70 -2q-42 -2 -79.5 17t-66.5 58t-46 97t-17 135q0 67 16.5 122.5t54.5 95.5t99.5 62.5t151.5 22.5h196v211h203v-368h-340q-93 0 -133.5 -35t-40.5 -111q0 -36 6 -59t15 -36.5t19.5 -19.5t18.5 -8l117 105l135 -107v127h203v-307h-219z" />
    <glyph glyph-name="uni0E59" unicode="&#xe59;" horiz-adv-x="932" 
d="M963 739q-38 -23 -55 -53.5t-17 -75.5v-161h-182q-29 0 -47.5 -22t-26.5 -53t-6.5 -64.5t12.5 -57.5l111 -252h-205l-189 449q-24 0 -43.5 -6t-34 -22.5t-22.5 -44.5t-8 -73q0 -48 8 -77.5t25.5 -46t43.5 -22t62 -3.5v-154l-59 -4q-90 -6 -146 15t-87.5 62.5t-42.5 100
t-11 127.5q0 157 65 232t209 75h175l40 -92l7 14q15 36 43.5 57t79.5 21h24v68q0 29 9 54t25 45t36 33.5t43 20.5l164 -90v0z" />
    <glyph glyph-name="uni0E5A" unicode="&#xe5a;" horiz-adv-x="1013" 
d="M805 0v819h149v-819h-149zM512 0v578q-12 -15 -34.5 -32t-54.5 -31.5t-71 -24t-84 -9.5q-49 0 -91 12t-72.5 36t-48 59.5t-17.5 81.5q0 33 13 61.5t36.5 49t55 32.5t69.5 12q20 0 37.5 -1t29.5 -3q14 -2 25 -4v-115q-31 5 -50 -4.5t-19 -29.5q0 -22 22 -32.5t57 -10.5
q36 0 71 12.5t63 37.5t45.5 61t17.5 83h201v-819h-201z" />
    <glyph glyph-name="uni0E5B" unicode="&#xe5b;" horiz-adv-x="1393" 
d="M1368 434q0 -12 -17.5 -23.5t-37.5 -13.5l-103 -10q-6 -20 -19 -38.5t-30 -18.5q-15 0 -31 22q-5 5 -11 17t-17 30q-11 -37 -27 -64.5t-33 -27.5q-14 0 -31 28.5t-40 76.5q-8 -29 -15 -50.5t-12 -33.5q-18 -41 -39 -41q-19 0 -47 63q-8 17 -14.5 35t-14.5 35
q-6 -28 -16 -56t-22 -50.5t-24 -37t-22 -14.5q-34 0 -45 35q-5 19 -6.5 31.5t-3.5 23.5q-3 21 -18 62q-17 -69 -45.5 -128t-65.5 -98q-100 -112 -227 -112q-62 0 -112 24.5t-86 68.5t-55.5 106.5t-19.5 138.5q0 149 70 243q35 51 80.5 75t99.5 24q43 0 82 -18.5t68 -52
t46 -79.5t17 -100q0 -44 -10 -79t-28.5 -60t-43.5 -38.5t-55 -13.5q-24 0 -46.5 10.5t-39.5 28.5t-27 42.5t-10 52.5q0 27 10 51t27 43t38.5 30t45.5 11l21 -2q-35 80 -93 80q-32 0 -59.5 -19t-47.5 -53t-32 -81t-12 -103t13.5 -100t37.5 -74.5t57.5 -47t73.5 -16.5
q47 0 88.5 24.5t74.5 69.5t57 109.5t36 144.5q8 50 19.5 66t37.5 16q10 0 22.5 -12t25.5 -32t26 -47t25 -58l12 73q15 58 41 58q19 0 45.5 -32.5t46.5 -86.5q16 82 45 82q23 0 46.5 -29.5t47.5 -77.5q13 38 24.5 58t31.5 20q14 0 30.5 -18.5t30.5 -44.5q16 32 47 28l111 -14
q18 0 35.5 -10t17.5 -21zM434 449q0 61 -49 61q-19 0 -34 -17.5t-15 -43.5t14.5 -43t34.5 -17q49 0 49 60z" />
    <glyph glyph-name="endash" unicode="&#x2013;" horiz-adv-x="829" 
d="M63 279v143h703v-143h-703z" />
    <glyph glyph-name="emdash" unicode="&#x2014;" horiz-adv-x="1659" 
d="M63 279v143h1532v-143h-1532z" />
    <glyph glyph-name="quoteleft" unicode="&#x2018;" horiz-adv-x="375" 
d="M92 530v207q0 45 14.5 84.5t40 69.5t61 49t77.5 25v-88q-53 -19 -71.5 -53.5t-18.5 -84.5h90v-209h-193z" />
    <glyph glyph-name="quoteright" unicode="&#x2019;" horiz-adv-x="375" 
d="M285 758q0 -45 -14.5 -83.5t-40 -68.5t-61 -50t-77.5 -26v91q52 16 70 51t18 86h-88v207h193v-207v0z" />
    <glyph glyph-name="quotedblleft" unicode="&#x201c;" horiz-adv-x="627" 
d="M360 530v207q0 45 14.5 84.5t40 69.5t61 49t77.5 25v-88q-53 -19 -71.5 -53.5t-18.5 -84.5h90v-209h-193zM74 530v207q0 45 14 84.5t39.5 69.5t60.5 49t76 25v-88q-51 -19 -69.5 -53.5t-18.5 -84.5h88v-209h-190z" />
    <glyph glyph-name="quotedblright" unicode="&#x201d;" horiz-adv-x="627" 
d="M553 758q0 -45 -14.5 -83.5t-40 -68.5t-61 -50t-77.5 -26v91q53 17 72 51.5t19 85.5h-91v207h193v-207zM264 758q0 -45 -14 -83.5t-39.5 -68.5t-60.5 -50t-76 -26v91q51 17 69.5 51.5t18.5 85.5h-88v207h190v-207z" />
    <glyph glyph-name="bullet" unicode="&#x2022;" horiz-adv-x="758" 
d="M686 410q0 -64 -24 -120t-65.5 -98t-97.5 -66t-120 -24t-120 24t-97.5 66t-65.5 98t-24 120t24 120t65.5 97.5t97.5 65.5t120 24t120 -24t97.5 -65.5t65.5 -97.5t24 -120z" />
    <glyph glyph-name="ellipsis" unicode="&#x2026;" horiz-adv-x="1382" 
d="M1055 0v193h194v-193h-194zM594 0v193h194v-193h-194zM133 0v193h195v-193h-195z" />
    <glyph glyph-name="thothannobasethai" unicode="&#xf700;" horiz-adv-x="809" 
d="M791 881q-3 -18 -11 -38t-24.5 -40t-42 -38t-62.5 -30q53 -54 76 -132.5t21 -174.5q-3 -98 -22 -177t-56.5 -134.5t-95 -86t-136.5 -30.5h-270l-43 307q-6 40 -18 60t-44 20h-24v129h170q40 0 66 -21t32 -63l39 -282h49q28 0 55.5 15.5t49 49t34.5 86t13 127.5
q0 125 -43.5 191.5t-126.5 66.5q-32 0 -57 -8.5t-43.5 -22.5t-31 -32.5t-18.5 -38.5h-209q6 43 30 88t68 81.5t110 59.5t155 23q38 0 72 -5t65 -14q17 13 26.5 30.5t12.5 33.5h234v0z" />
    <glyph glyph-name="saraileftthai" unicode="&#xf701;" 
d="M-344 1001q0 -38 -26 -58.5t-64 -20.5h-475v133h565v-54v0z" />
    <glyph glyph-name="saraiileftthai" unicode="&#xf702;" 
d="M-909 922v133h364v92h201v-225h-565z" />
    <glyph glyph-name="saraueleftthai" unicode="&#xf703;" 
d="M-309 1038q0 -24 -8.5 -45t-26 -36.5t-42.5 -25t-58 -9.5h-465v133h329q7 43 40.5 71.5t95.5 28.5q66 0 100.5 -34.5t34.5 -82.5z" />
    <glyph glyph-name="saraueeleftthai" unicode="&#xf704;" 
d="M-909 922v133h168v92h135v-92h61v92h201v-225h-565z" />
    <glyph glyph-name="maieklowleftthai" unicode="&#xf705;" 
d="M-537 922v245h201v-245h-201z" />
    <glyph glyph-name="maitholowleftthai" unicode="&#xf706;" 
d="M-510 922v79q0 19 -9.5 31t-31.5 12h-18v123h135q63 0 94 -27.5t31 -70.5v-14h309v-133h-510z" />
    <glyph glyph-name="maitrilowleftthai" unicode="&#xf707;" 
d="M-383 922v94q0 12 -6 20q-3 4 -6 6l-88 -71l-101 71q-3 -2 -6 -6q-6 -8 -6 -18v-96h-170v110q0 36 11.5 61.5t32 42t48.5 24t62 7.5h49l80 -53l73 53h50q31 0 58.5 -6.5t47.5 -21t31.5 -38t11.5 -57.5v-12h211v-110h-383z" />
    <glyph glyph-name="maichattawalowleftthai" unicode="&#xf708;" 
d="M-414 1008v-86h-180v86h-102v125h102v86h180v-86h103v-125h-103z" />
    <glyph glyph-name="thanthakhatlowleftthai" unicode="&#xf709;" 
d="M-373 995q-26 0 -41.5 -12t-15.5 -37v-24h-201v63q0 37 12 64.5t33.5 44.5t51.5 25.5t65 8.5h162v-133h-66z" />
    <glyph glyph-name="maieklowrightthai" unicode="&#xf70a;" 
d="M-262 922v245h201v-245h-201z" />
    <glyph glyph-name="maitholowrightthai" unicode="&#xf70b;" 
d="M-391 922v79q0 19 -9.5 31t-31.5 12h-19v123h136q63 0 94 -27.5t31 -70.5v-14h272v-133h-473z" />
    <glyph glyph-name="maitrilowrightthai" unicode="&#xf70c;" 
d="M-289 922v94q0 12 -6 20q-3 4 -6 6l-88 -71l-100 71q-4 -2 -7 -6q-6 -8 -6 -18v-96h-170v110q0 36 11.5 61.5t32 42t48.5 24t62 7.5h49l80 -53l74 53h49q31 0 58.5 -6.5t47.5 -21t31.5 -38t11.5 -57.5v-12h115v-110h-287z" />
    <glyph glyph-name="maichattawalowrightthai" unicode="&#xf70d;" 
d="M-164 1008v-86h-180v86h-102v125h102v86h180v-86h103v-125h-103z" />
    <glyph glyph-name="thanthakhatlowrightthai" unicode="&#xf70e;" 
d="M-80 995q-26 0 -41.5 -12t-15.5 -37v-24h-201v63q0 37 12 64.5t33.5 44.5t51.5 25.5t65 8.5h162v-133h-66z" />
    <glyph glyph-name="yoyingnobasethai" unicode="&#xf70f;" horiz-adv-x="1315" 
d="M1253 258q0 -54 -18.5 -104t-59.5 -87.5t-106.5 -60t-159.5 -22.5q-93 0 -157.5 22.5t-105 60t-59 87.5t-18.5 104v297q0 33 -12 57.5t-33 41t-49.5 24.5t-60.5 8q-25 0 -49 -6.5t-45 -18.5t-36.5 -29t-23.5 -38l66 -51q-25 -13 -44.5 -36.5t-19.5 -55.5v-297h103v-154
h-304v438q0 32 19 62.5t61 46.5l-86 59q6 40 30 81t67.5 74t108 54t153.5 21q97 0 165 -23t110.5 -61.5t61.5 -89.5t19 -107v-289q0 -72 38.5 -102.5t100.5 -30.5q31 0 57.5 6.5t46 22.5t30 41t10.5 63v553h200v-561v0z" />
    <glyph glyph-name="maihanakatleftthai" unicode="&#xf710;" 
d="M-723 922v225h201v-92h522v-133h-723z" />
    <glyph glyph-name="nikhahitleftthai" unicode="&#xf711;" 
d="M-291 1038q0 -26 -10.5 -49t-29.5 -40.5t-44 -27.5t-53 -10q-29 0 -53.5 10t-43.5 27.5t-29.5 40.5t-10.5 49q0 27 10.5 50t29.5 40.5t43.5 27t53.5 9.5q28 0 53 -9.5t44 -27t29.5 -40.5t10.5 -50z" />
    <glyph glyph-name="maitaikhuleftthai" unicode="&#xf712;" 
d="M-461 922l-88 59l-92 -59h-240v110q0 37 12.5 69t39.5 56t69.5 37.5t102.5 13.5h342v-94h-283q-50 0 -70 -18.5t-20 -42.5v-25h35l104 62l105 -62h129v-106h-146z" />
    <glyph glyph-name="maiekupperleftthai" unicode="&#xf713;" 
d="M-545 1198v184h201v-184h-201z" />
    <glyph glyph-name="maithoupperleftthai" unicode="&#xf714;" 
d="M-641 1198v49q0 10 -0.5 18t-4.5 13.5t-12.5 8.5t-23.5 3h-20v111h141q68 0 95.5 -22.5t27.5 -59.5v-10h215v-111h-418z" />
    <glyph glyph-name="maitriupperleftthai" unicode="&#xf715;" 
d="M-410 1198v92l-73 -53l-74 53v-92h-172v74q0 60 36 93.5t111 33.5h25l74 -51l71 51h27q149 0 149 -94v-11h82v-96h-256z" />
    <glyph glyph-name="maichattawaupperleftthai" unicode="&#xf716;" 
d="M-354 1264v-66h-181v66h-73v92h73v65h181v-65h73v-92h-73z" />
    <glyph glyph-name="thanthakhatupperleftthai" unicode="&#xf717;" 
d="M-340 1200q-37 0 -50 -13.5t-13 -39.5v-21h-203v52q0 41 14 67t41 40.5t66 20t88 5.5h96v-111h-39z" />
    <glyph glyph-name="saraulowthai" unicode="&#xf718;" 
d="M-262 -614v129h-80v137h281v-266h-201z" />
    <glyph glyph-name="sarauulowthai" unicode="&#xf719;" 
d="M-61 -451q0 -41 -12.5 -73.5t-42 -55t-77.5 -34t-118 -11.5q-74 0 -123 10.5t-78.5 31t-42 50.5t-12.5 68h-43v117h235v-103q0 -27 15 -40t41 -13q27 0 42 13t15 40v103h201v-103v0z" />
    <glyph glyph-name="phinthulowthai" unicode="&#xf71a;" 
d="M-61 -465q0 -24 -9.5 -45t-26.5 -37t-40.5 -25.5t-50.5 -9.5q-28 0 -51 9.5t-40 25.5t-26.5 37t-9.5 45q0 50 35.5 83.5t91.5 33.5q27 0 50.5 -9t40.5 -25t26.5 -37t9.5 -46z" />
    <glyph glyph-name="minus" unicode="&#xad;" horiz-adv-x="829" 
d="M63 279v143h703v-143h-703z" />
    <glyph glyph-name="uni0E33_1" horiz-adv-x="553" 
d="M291 0v463q0 37 -10.5 69.5t-31.5 56t-53 37t-75 13.5h-101v180h138q86 0 149 -26t104 -71.5t61 -107t20 -131.5v-483h-201zM-291 1038q0 -26 -10.5 -49t-29.5 -40.5t-44 -27.5t-53 -10q-29 0 -53.5 10t-43.5 27.5t-29.5 40.5t-10.5 49q0 27 10.5 50t29.5 40.5t43.5 27
t53.5 9.5q28 0 53 -9.5t44 -27t29.5 -40.5t10.5 -50z" />
    <glyph glyph-name="uni0E4E_1" 
d="M-100 1438q-26 2 -46 3t-34 1q-44 0 -82.5 -5t-67 -15.5t-45.5 -26.5t-17 -37q0 -29 29 -35t92 -6v-94q-20 2 -35.5 3t-28.5 1q-40 0 -74 -6t-59.5 -16.5t-40 -26t-14.5 -33.5q0 -29 49 -29q31 0 58.5 9.5t58.5 23.5l49 -82q-35 -19 -80 -33t-90 -14q-8 2 -9 2h-7h-11
q-57 6 -92 36t-35 75q0 42 24 75.5t66 53.5q35 21 82 24q-43 21 -43 74q0 21 9.5 42.5t26.5 41t40.5 35.5t50.5 26q54 23 118 28t133 5h25v-100v0z" />
    <glyph glyph-name="currency" unicode="&#xa4;" horiz-adv-x="840" 
d="M422 729q-96 0 -160 -67q-65 -73 -65 -160q0 -94 63 -164q65 -68 162 -68q92 0 158 68q63 63 63 164q0 46 -16.5 87t-45.5 72t-70 49.5t-89 18.5zM8 164l148 145q-62 83 -62 193q0 114 62 188l-148 150l76 71l145 -145q79 59 193 59q55 0 105.5 -16t82.5 -43l150 145
l71 -71l-145 -150q59 -79 59 -188q0 -114 -59 -193l145 -145l-71 -76l-150 148q-15 -13 -36 -23.5t-47 -20.5q-53 -18 -105 -18q-110 0 -193 62l-145 -148z" />
    <glyph glyph-name="FL00A9h" unicode="&#xa9;" horiz-adv-x="1106" 
d="M1053 483q0 -104 -39.5 -194.5t-107.5 -158.5t-159 -107t-194 -39t-194 39t-159 107t-107.5 158.5t-39.5 194.5q0 103 39.5 194t107.5 158.5t159 106.5t194 39t194 -39t159 -106.5t107.5 -158.5t39.5 -194zM907 483q0 86 -27.5 157.5t-75 122.5t-112 79t-139.5 28
t-140 -28t-112.5 -79t-74.5 -122.5t-27 -157.5q0 -87 27 -158.5t74.5 -122.5t112.5 -79.5t140 -28.5t139.5 28.5t112 79.5t75 122.5t27.5 158.5zM815 401q-8 -51 -30.5 -89.5t-55 -65t-73 -40t-85.5 -13.5q-64 0 -115.5 22.5t-88 62.5t-56.5 93.5t-20 115.5q0 63 19 116.5
t55 93t87.5 61.5t116.5 22q46 0 87 -13t73 -39.5t53 -65t29 -89.5h-111q-11 50 -47 73.5t-84 23.5q-69 0 -106 -50.5t-37 -132.5q0 -38 10.5 -71.5t29 -58.5t45.5 -39.5t60 -14.5q53 0 88 25t41 73h115z" />
    <glyph glyph-name="fongmanfunnuthai" unicode="&#xf880;" 
 />
    <glyph glyph-name="lochula.short" unicode="&#xf71d;" 
 />
    <glyph glyph-name="percent" unicode="%" horiz-adv-x="1382" 
d="M1237 238q0 -121 -59 -187.5t-170 -66.5q-112 0 -172 66.5t-60 187.5q0 120 60 187t172 67q111 0 170 -67t59 -187zM453 -31h-115l598 1026h113zM608 727q0 -121 -59 -187.5t-170 -66.5q-112 0 -172 66.5t-60 187.5t60 187.5t172 66.5q111 0 170 -66.5t59 -187.5z
M1094 238q0 22 -3 47t-12.5 46.5t-26.5 35.5t-44 14q-28 0 -45 -14t-26.5 -35.5t-13 -46.5t-3.5 -47q0 -23 3.5 -48t13 -46.5t26.5 -35.5t45 -14q27 0 44 14t26.5 35.5t12.5 46.5t3 48zM465 727q0 22 -3 47t-12 46.5t-26 35.5t-45 14t-45 -14t-26.5 -35.5t-13 -46.5
t-3.5 -47t3.5 -47t13 -46.5t26.5 -35.5t45 -14t45 14t26 35.5t12 46.5t3 47z" />
    <glyph glyph-name="zerowidthnonjoiner" unicode="&#x200c;" 
 />
    <glyph glyph-name="zerowidthjoiner" unicode="&#x200d;" 
 />
    <glyph glyph-name="F881" 
 />
    <glyph glyph-name="F882" 
 />
    <glyph glyph-name="saraueesp2" 
d="M-645 1198v184h201v-184h-201zM-909 922v133h168v92h135v-92h61v92h201v-225h-565z" />
    <glyph glyph-name="saraisp" 
d="M-233 1047q0 -39 -26 -59.5t-65 -20.5h-598v133h689v-53v0z" />
    <glyph glyph-name="saraiisp" 
d="M-922 967v133h488v92h201v-225h-689z" />
    <glyph glyph-name="numbersign" unicode="#" horiz-adv-x="768" 
d="M594 571l-23 -178h111v-110h-127l-39 -283h-123l41 283h-141l-41 -283h-123l41 283h-125v110h139l25 178h-121v111h137l39 283h123l-39 -283h141l39 283h121l-39 -283h113v-111h-129zM332 571l-23 -178h140l24 178h-141z" />
    <glyph glyph-name="dollar" unicode="$" horiz-adv-x="768" 
d="M705 274q0 -68 -21.5 -118t-59.5 -84.5t-89.5 -54.5t-110.5 -27v-115h-66v111q-5 -2 -9 -2h-7q-39 0 -69 2.5t-57.5 7t-56 11.5t-63.5 15l17 175q51 -26 106.5 -43t112.5 -17h12t14 2v260q-47 18 -96 38.5t-89.5 52.5t-66.5 79.5t-26 118.5q0 72 23 124t61 87.5t88.5 55
t105.5 26.5v102h66v-100q60 0 116.5 -8t108.5 -27l-18 -158q-94 41 -197 41q-6 0 -10 -2v-256l95 -38t91 -52.5t68 -82t27 -124.5zM358 815q-32 -14 -53.5 -42.5t-21.5 -76.5q0 -34 20.5 -56.5t54.5 -39.5v215zM504 260q0 38 -23 63t-57 44v-211q34 14 57 40t23 64z" />
    <glyph glyph-name="quotesingle" unicode="'" horiz-adv-x="385" 
d="M109 618v347h167v-347h-167z" />
    <glyph glyph-name="ampersand" unicode="&#x26;" horiz-adv-x="997" 
d="M756 0l-66 86q-51 -53 -121 -77.5t-141 -24.5q-72 0 -135 18t-110 53.5t-74 88t-27 120.5q0 44 10.5 82t34.5 70.5t63 61t97 52.5q-29 26 -53.5 50t-42.5 50.5t-28.5 58t-10.5 73.5q0 54 26.5 95t68.5 68.5t94 41.5t103 14t101 -12t89.5 -38t64 -67.5t24.5 -99.5
q0 -50 -14.5 -88t-39.5 -68t-59 -54t-73 -46l176 -195q35 42 47 98t14 113h168q-3 -93 -33.5 -176.5t-89.5 -154.5l174 -193h-237zM555 745q0 26 -9 45t-23.5 31.5t-33.5 18.5t-40 6t-41 -6t-35.5 -18.5t-25 -32t-9.5 -46.5q0 -20 9 -38.5t22.5 -35.5t29 -32.5t29.5 -30.5
q18 9 40.5 24.5t41.5 34t32 39t13 41.5zM385 424q-24 -12 -45 -27t-37 -34t-25.5 -42t-9.5 -51q0 -32 13 -58.5t35.5 -45.5t52 -29t63.5 -10q48 0 92 13t76 44z" />
    </font>
</defs>
</svg>
