<?xml version="1.0" standalone="no"?>
<!DOCTYPE svg PUBLIC "-//W3C//DTD SVG 1.1//EN" "http://www.w3.org/Graphics/SVG/1.1/DTD/svg11.dtd" >
<svg>
<metadata>
Created by FontForge 20120731 at Mon Feb 26 08:21:01 2018
 By www-data
Copyright (c) 2017 by trueplookpanya. All rights reserved.
</metadata>
<defs>
<font id="TrueTextBOnline" horiz-adv-x="0" >
  <font-face 
    font-family="TrueTextBOnline"
    font-weight="400"
    font-stretch="normal"
    units-per-em="1000"
    panose-1="2 0 0 0 0 0 0 0 0 0"
    ascent="750"
    descent="-250"
    x-height="426"
    cap-height="589"
    bbox="-587 -511 984 1002"
    underline-thickness="35"
    underline-position="-74"
    stemh="42"
    stemv="45"
    unicode-range="U+0020-F882"
  />
<missing-glyph horiz-adv-x="524" 
 />
    <glyph glyph-name="quotedblleft" unicode="&#x2018;&#x2018;" horiz-adv-x="327" 
d="M281 475c0 -32 -23 -54 -52 -54c-30 0 -51 25 -51 61c0 58 21 103 64 134l32 -21c-29 -20 -50 -48 -50 -68l5 2c29 0 52 -20 52 -54zM141 475c0 -32 -23 -54 -51 -54c-30 0 -52 25 -52 61c0 58 22 103 64 134l33 -21c-30 -20 -50 -48 -50 -68l5 2c28 0 51 -20 51 -54z
" />
    <glyph glyph-name="quotedblright" unicode="&#x2019;&#x2019;" horiz-adv-x="329" 
d="M39 562c0 32 23 54 52 54s51 -25 51 -62c0 -58 -22 -102 -64 -133l-33 21c30 20 50 48 50 68l-4 -3c-29 0 -52 21 -52 55zM179 562c0 32 23 54 51 54c30 0 52 -25 52 -62c0 -58 -22 -102 -64 -133l-33 21c29 20 50 48 50 68l-5 -3c-28 0 -51 21 -51 55z" />
    <glyph glyph-name="rulakkhangyao" unicode="&#xe24;&#xe32;" horiz-adv-x="912" 
d="M430 362v-543h-52v544c0 70 -62 104 -142 104c-66 0 -111 -20 -139 -56c25 -10 57 -23 88 -42c-13 -8 -26 -20 -38 -35c-16 -19 -23 -36 -23 -53v-126c14 7 26 9 37 9c46 0 85 -34 85 -85c0 -49 -41 -83 -87 -83c-54 0 -87 33 -87 89v197c0 31 22 63 46 77
c-30 14 -60 24 -92 33c35 75 110 122 209 122c117 0 195 -51 195 -152zM200 79c0 26 -13 40 -40 40c-26 0 -40 -14 -40 -40c0 -27 14 -40 40 -40c27 0 40 13 40 40zM821 361v-545h-53v542c0 70 -43 106 -114 106c-64 0 -111 -30 -127 -102h-51c10 90 79 149 178 149
s167 -59 167 -150z" />
    <glyph glyph-name="lulakkhangyao" unicode="&#xe26;&#xe32;" horiz-adv-x="976" 
d="M493 359v-543h-52v544c0 70 -62 104 -142 104c-66 0 -111 -20 -140 -56c25 -10 58 -23 89 -42c-14 -8 -27 -20 -39 -35c-15 -19 -22 -36 -22 -53v-196c0 -56 -33 -89 -84 -89c-45 0 -81 33 -81 83c0 51 35 85 79 85c15 0 26 -2 33 -7v125c0 31 23 63 47 77
c-32 14 -61 24 -92 33c34 75 109 122 209 122c117 0 195 -51 195 -152zM140 76c0 24 -17 40 -38 40c-25 0 -38 -14 -38 -40c0 -24 14 -40 38 -40c21 0 38 16 38 40zM870 361v-545h-53v542c0 70 -43 106 -114 106c-64 0 -111 -30 -127 -102h-51c10 90 79 149 178 149
s167 -59 167 -150z" />
    <glyph glyph-name="copyright2" unicode="&#x3b;&#x3b;For&#x20;Education&#x20;Used&#x20;Only&#x3b;&#x3b;" horiz-adv-x="702" 
d="M661 305c0 -87 -30 -159 -89 -219c-58 -58 -132 -86 -218 -86c-88 0 -161 28 -219 86c-60 60 -89 132 -89 219c0 88 30 159 89 218s132 88 219 88c86 0 159 -29 218 -88s89 -130 89 -218zM613 305c0 73 -25 135 -74 186s-110 76 -185 76c-74 0 -136 -25 -185 -76
c-50 -49 -74 -112 -74 -186c0 -73 24 -136 74 -188c48 -50 110 -76 185 -76s136 26 185 76c49 52 74 115 74 188zM471 240h43c-12 -79 -73 -125 -153 -125c-110 0 -179 79 -179 190c0 112 68 189 179 189c80 0 141 -46 153 -125h-43c-10 51 -48 87 -109 87
c-85 0 -136 -61 -136 -151s48 -153 136 -153c59 0 99 37 109 88z" />
    <glyph glyph-name="registered2" unicode="&#x3b;&#x3b;Registered&#x3b;&#x3b;" horiz-adv-x="702" 
d="M654 304c0 -87 -30 -159 -89 -219c-58 -58 -132 -86 -218 -86c-88 0 -161 28 -219 86c-60 60 -89 132 -89 219c0 88 30 159 89 218s132 88 219 88c86 0 159 -29 218 -88s89 -130 89 -218zM606 304c0 73 -25 135 -74 186s-110 76 -185 76c-74 0 -136 -25 -185 -76
c-50 -49 -74 -112 -74 -186c0 -73 24 -136 74 -188c48 -50 110 -76 185 -76s136 26 185 76c49 52 74 115 74 188zM398 284l105 -157h-51l-99 157h-74v-157h-44v354h137c76 0 115 -33 115 -98c0 -59 -35 -90 -89 -99zM443 383c0 45 -33 61 -84 61h-80v-124h57c37 0 60 2 74 9
c22 9 33 27 33 54z" />
    <glyph glyph-name="trademark2" unicode="&#x3b;&#x3b;Trademark&#x3b;&#x3b;" horiz-adv-x="591" 
d="M40 625h217c7 0 13 -6 13 -13c0 -8 -6 -14 -13 -14h-95v-285c0 -7 -6 -13 -14 -13c-7 0 -12 6 -12 13v285h-96c-8 0 -13 6 -13 14c0 7 5 13 13 13zM545 630c5 -2 9 -7 9 -13v-303c0 -7 -6 -13 -13 -13s-13 6 -13 13v257l-85 -135c-2 -4 -6 -6 -11 -6c-4 0 -8 2 -11 6
l-86 135v-257c0 -7 -6 -13 -13 -13c-8 0 -14 6 -14 13v303c0 6 5 11 10 13c6 1 12 -1 15 -6l99 -156l98 156c3 5 9 7 15 6z" />
    <glyph glyph-name="multiply2" unicode="&#x3b;&#x3b;Multiply&#x3b;&#x3b;" horiz-adv-x="474" 
d="M270 252l157 -157l-31 -32l-157 158l-156 -156l-32 31l157 156l-157 156l32 31l156 -157l157 157l31 -29z" />
    <glyph glyph-name="divide2" unicode="&#x3b;&#x3b;Divide&#x3b;&#x3b;" horiz-adv-x="474" 
d="M277 426c0 -29 -13 -44 -40 -44c-26 0 -40 15 -40 44s14 44 40 44c27 0 40 -15 40 -44zM438 278v-44h-401v44h401zM277 85c0 -28 -13 -42 -40 -42c-26 0 -40 14 -40 42c0 29 14 44 40 44c27 0 40 -15 40 -44z" />
    <glyph glyph-name=".notdef" horiz-adv-x="524" 
 />
    <glyph glyph-name="NULL" 
 />
    <glyph glyph-name="CR" horiz-adv-x="249" 
 />
    <glyph glyph-name="space" unicode=" " horiz-adv-x="249" 
 />
    <glyph glyph-name="numbersign" unicode="#" horiz-adv-x="483" 
d="M441 388v-38h-91l-18 -129h87v-37h-92l-26 -184h-41l26 184h-116l-26 -184h-41l26 184h-92v37h97l17 129h-90v38h95l27 182h41l-27 -182h117l26 182h41l-26 -182h86zM291 221l18 129h-117l-17 -129h116z" />
    <glyph glyph-name="dollar" unicode="$" horiz-adv-x="472" 
d="M440 162c0 -51 -19 -91 -59 -123c-36 -26 -81 -40 -133 -40v-70h-31v71c-129 13 -188 72 -188 197h52c0 -94 45 -146 136 -156v244c-73 16 -119 38 -143 66c-20 23 -31 56 -31 99c0 98 74 161 174 161v65h31v-65c50 0 91 -17 124 -50c35 -33 52 -76 52 -129h-52
c0 83 -48 135 -124 135v-238c77 -16 129 -38 157 -68c24 -25 35 -58 35 -99zM217 337v230c-70 0 -120 -41 -120 -122c0 -28 7 -49 21 -66c16 -16 49 -30 99 -42zM388 161c0 35 -16 62 -46 82c-20 14 -50 25 -94 35v-237c39 0 71 9 96 27c29 22 44 53 44 93z" />
    <glyph glyph-name="percent" unicode="%" horiz-adv-x="720" 
d="M671 150c0 -49 -9 -86 -30 -112c-22 -29 -56 -43 -101 -43c-88 0 -131 59 -131 155c0 95 41 156 131 156s131 -63 131 -156zM520 603h39l-372 -623h-41zM309 432c0 -49 -10 -85 -30 -112c-23 -29 -57 -45 -101 -45c-89 0 -130 61 -130 157c0 95 41 156 130 156
s131 -62 131 -156zM627 148c0 31 -5 57 -17 78c-15 28 -39 42 -70 42c-61 0 -87 -56 -87 -120c0 -31 5 -56 17 -78c15 -26 39 -39 70 -39s55 12 70 38c12 20 17 46 17 79zM265 432c0 31 -6 57 -17 78c-16 27 -39 41 -70 41c-64 0 -87 -54 -87 -119c0 -35 5 -60 17 -79
c15 -26 38 -40 70 -40c31 0 54 13 70 39c11 21 17 48 17 80z" />
    <glyph glyph-name="ampersand" unicode="&#x26;" horiz-adv-x="508" 
d="M416 120l99 -120h-65l-63 76c-46 -56 -102 -86 -174 -86c-104 0 -177 59 -177 163c0 38 15 72 46 105c24 25 56 49 98 70c-30 39 -46 60 -49 65c-16 26 -24 51 -24 77c0 70 55 119 130 119c74 0 132 -49 132 -119c0 -32 -13 -62 -36 -90c-17 -19 -43 -40 -80 -64
l128 -155c14 27 17 54 17 100h53c0 -46 -9 -92 -35 -141zM316 470c0 47 -32 75 -79 75c-46 0 -77 -26 -77 -75c0 -18 7 -38 22 -62c7 -12 22 -31 44 -58c27 16 46 33 60 47c20 23 30 47 30 73zM354 115l-145 179c-35 -19 -63 -38 -82 -58c-26 -28 -40 -57 -40 -88
c0 -67 59 -117 129 -117c56 0 102 33 138 84z" />
    <glyph glyph-name="quotesingle" unicode="'" horiz-adv-x="154" 
d="M103 722v-201h-53v201h53z" />
    <glyph glyph-name="parenleft" unicode="(" horiz-adv-x="213" 
d="M211 -47h-41c-79 131 -116 235 -116 375s39 263 116 382h41c-70 -111 -106 -257 -106 -401c0 -122 40 -244 106 -356z" />
    <glyph glyph-name="parenright" unicode=")" horiz-adv-x="202" 
d="M3 710h41c79 -131 116 -235 116 -375s-39 -263 -116 -382h-41c70 111 106 257 106 401c0 122 -40 244 -106 356z" />
    <glyph glyph-name="asterisk" unicode="*" horiz-adv-x="310" 
d="M269 643l11 -30l-96 -33l59 -81l-27 -19l-59 83l-61 -83l-26 19l60 81l-95 33l11 30l95 -34v101h33v-101z" />
    <glyph glyph-name="plus" unicode="+" horiz-adv-x="453" 
d="M418 249v-44h-172v-172h-44v172h-171v44h171v171h44v-171h172z" />
    <glyph glyph-name="comma" unicode="," horiz-adv-x="150" 
d="M118 41c0 -49 -20 -91 -59 -119l-28 18c24 17 45 44 45 62l-5 -2c-26 0 -47 17 -47 49c0 26 21 48 47 48s47 -20 47 -56z" />
    <glyph glyph-name="hyphen" unicode="-" horiz-adv-x="460" 
d="M424 272v-44h-387v44h387z" />
    <glyph glyph-name="period" unicode="." horiz-adv-x="196" 
d="M141 42c0 -29 -18 -46 -43 -46s-44 16 -44 46c0 28 19 47 44 47s43 -18 43 -47z" />
    <glyph glyph-name="slash" unicode="/" horiz-adv-x="302" 
d="M257 607h41l-251 -611h-44z" />
    <glyph glyph-name="zero" unicode="0" horiz-adv-x="483" 
d="M443 289c0 -83 -12 -150 -37 -199c-34 -65 -89 -97 -165 -97s-130 32 -164 95c-25 50 -38 117 -38 201c0 83 13 149 38 199c34 65 89 98 164 98s130 -33 163 -97c27 -50 39 -116 39 -200zM391 289c0 68 -9 122 -25 163c-25 61 -67 90 -125 90c-45 0 -80 -17 -105 -53
c-29 -44 -44 -111 -44 -200c0 -69 8 -123 25 -164c24 -60 65 -90 124 -90s101 30 125 89c16 39 25 93 25 165z" />
    <glyph glyph-name="one" unicode="1" horiz-adv-x="310" 
d="M245 577v-577h-53v428h-152v38c54 0 90 5 109 15c28 15 46 47 53 96h43z" />
    <glyph glyph-name="two" unicode="2" horiz-adv-x="449" 
d="M411 48v-48h-381c0 69 34 130 102 183c58 44 117 85 176 129c31 34 48 64 48 109c0 72 -55 118 -129 118c-90 0 -130 -68 -130 -161h-53c0 125 61 205 185 205c105 0 179 -58 179 -163c0 -43 -15 -83 -44 -119c-21 -27 -55 -56 -101 -86c-34 -24 -68 -46 -103 -68
c-41 -33 -64 -66 -71 -99h322z" />
    <glyph glyph-name="three" unicode="3" horiz-adv-x="448" 
d="M423 168c0 -110 -85 -174 -199 -174c-122 0 -198 70 -198 194h52c0 -91 53 -152 145 -152c81 0 147 47 147 127s-58 123 -139 123h-43v43h43c30 0 57 9 79 25c26 19 39 47 39 81c0 71 -53 108 -126 108c-86 0 -131 -58 -131 -146h-53c0 110 71 190 183 190
c51 0 91 -11 123 -35c37 -26 55 -64 55 -112c0 -64 -35 -113 -96 -128c76 -14 119 -68 119 -144z" />
    <glyph glyph-name="four" unicode="4" horiz-adv-x="470" 
d="M436 187v-43h-87v-144h-48v144h-266v49l267 384h47v-390h87zM81 187h220v314z" />
    <glyph glyph-name="five" unicode="5" horiz-adv-x="462" 
d="M429 189c0 -56 -19 -103 -58 -139s-86 -55 -142 -55c-110 0 -190 67 -190 175h52c0 -78 62 -133 143 -133c85 0 143 71 143 157c0 85 -62 150 -148 150c-51 0 -99 -22 -128 -69h-44l55 301h289v-48h-252l-37 -191c30 31 78 51 124 51c118 0 193 -80 193 -199z" />
    <glyph glyph-name="six" unicode="6" horiz-adv-x="467" 
d="M432 188c0 -57 -19 -104 -57 -140c-36 -36 -83 -54 -140 -54c-140 0 -202 82 -202 305c0 66 10 122 31 169c35 79 94 119 175 119c106 0 166 -50 178 -151h-51c-10 66 -55 107 -122 107c-59 0 -102 -29 -129 -90c-20 -45 -30 -101 -30 -168c30 58 91 95 155 95
c116 0 192 -78 192 -192zM380 185c0 86 -55 152 -141 152c-88 0 -142 -64 -142 -152c0 -89 48 -149 143 -149c81 0 140 66 140 149z" />
    <glyph glyph-name="seven" unicode="7" horiz-adv-x="471" 
d="M423 570v-47c-61 -61 -107 -125 -144 -189c-60 -106 -90 -217 -90 -334h-56c0 94 20 183 59 267c36 76 95 161 179 256h-319v47h371z" />
    <glyph glyph-name="eight" unicode="8" horiz-adv-x="471" 
d="M432 165c0 -111 -85 -172 -200 -172c-58 0 -105 14 -141 40c-39 32 -58 76 -58 132c0 77 44 133 118 147c-63 22 -94 64 -94 129c0 47 18 83 55 110c32 24 71 35 120 35c46 0 86 -11 118 -35c38 -26 57 -63 57 -110c0 -62 -35 -109 -94 -127v-2c74 -14 119 -69 119 -147z
M356 441c0 64 -50 101 -124 101c-69 0 -124 -37 -124 -101c0 -37 13 -64 39 -82c21 -16 49 -24 85 -24c70 0 124 35 124 106zM379 165c0 81 -62 126 -147 126c-84 0 -147 -45 -147 -126c0 -84 61 -130 147 -130c43 0 78 10 104 31c28 24 43 57 43 99z" />
    <glyph glyph-name="nine" unicode="9" horiz-adv-x="471" 
d="M431 277c0 -66 -10 -120 -31 -169c-35 -78 -94 -117 -176 -117c-105 0 -164 50 -177 149h52c8 -65 55 -107 121 -107c59 0 102 30 128 90c20 44 30 100 30 168c-29 -58 -89 -96 -155 -96c-115 0 -191 79 -191 194c0 56 18 102 55 139s85 56 142 56
c141 0 202 -84 202 -307zM367 392c0 43 -11 78 -33 104c-26 30 -63 44 -111 44c-80 0 -138 -65 -138 -148c0 -87 53 -153 139 -153c90 0 143 64 143 153z" />
    <glyph glyph-name="colon" unicode=":" horiz-adv-x="168" 
d="M127 380c0 -29 -18 -47 -43 -47s-44 17 -44 47c0 29 19 48 44 48s43 -17 43 -48zM127 47c0 -29 -18 -46 -43 -46s-44 16 -44 46c0 29 19 48 44 48s43 -18 43 -48z" />
    <glyph glyph-name="semicolon" unicode=";" horiz-adv-x="168" 
d="M129 380c0 -29 -18 -47 -43 -47s-44 17 -44 47c0 29 19 47 44 47s43 -16 43 -47zM133 41c0 -49 -20 -91 -59 -119l-28 19c24 16 45 44 45 61l-5 -1c-26 0 -47 17 -47 48c0 26 21 49 47 49s47 -21 47 -57z" />
    <glyph glyph-name="less" unicode="&#x3c;" horiz-adv-x="458" 
d="M421 37v-42l-387 190v45l387 192v-44l-336 -170z" />
    <glyph glyph-name="equal" unicode="=" horiz-adv-x="452" 
d="M417 329v-44h-387v44h387zM417 191v-43h-387v43h387z" />
    <glyph glyph-name="greater" unicode="&#x3e;" horiz-adv-x="465" 
d="M40 378v42l387 -190v-45l-387 -192v44l336 170z" />
    <glyph glyph-name="question" unicode="?" horiz-adv-x="448" 
d="M406 450c0 -31 -7 -60 -24 -84c-7 -11 -24 -30 -52 -58c-25 -22 -42 -39 -52 -55c-17 -29 -26 -65 -26 -109h-51c0 70 11 119 75 181c26 24 44 41 54 55c16 23 25 46 25 70c0 68 -52 103 -122 103c-90 0 -141 -63 -141 -159h-51c0 130 70 209 194 209
c100 0 171 -53 171 -153zM271 48c0 -25 -17 -48 -44 -48c-29 0 -43 16 -43 48s14 47 43 47s44 -15 44 -47z" />
    <glyph glyph-name="at" unicode="@" horiz-adv-x="691" 
d="M639 345c0 -64 -20 -120 -60 -169c-39 -47 -83 -71 -131 -71c-32 0 -56 20 -56 56c-31 -31 -66 -55 -107 -55c-66 0 -109 52 -109 120c0 61 19 116 55 165c39 50 86 74 142 74c39 0 68 -21 87 -70l20 54h44l-79 -238c-7 -19 -9 -33 -9 -45c0 -16 6 -24 19 -24
c36 0 67 22 96 67c29 44 44 90 44 138c0 67 -23 119 -67 158c-46 39 -102 59 -167 59c-77 0 -140 -26 -188 -79c-49 -50 -73 -115 -73 -194c0 -75 25 -138 75 -190c51 -50 114 -76 187 -76c84 0 167 42 213 110h43c-49 -90 -152 -145 -256 -145c-89 0 -163 28 -219 86
c-58 60 -87 133 -87 221s29 158 88 217c58 58 130 87 215 87c81 0 148 -24 200 -72c53 -47 80 -109 80 -184zM434 344c0 41 -31 77 -65 77c-39 0 -73 -21 -100 -63c-26 -42 -40 -84 -40 -128c0 -51 27 -80 69 -80c35 0 67 22 94 66c28 45 42 87 42 128z" />
    <glyph glyph-name="A" unicode="A" horiz-adv-x="538" 
d="M303 589l230 -589h-60l-71 184h-269l-70 -184h-59l235 589h64zM150 231h233l-114 301z" />
    <glyph glyph-name="B" unicode="B" horiz-adv-x="561" 
d="M524 167c0 -43 -11 -77 -34 -105c-35 -41 -94 -62 -178 -62h-249v589h249c57 0 100 -10 132 -31c39 -23 57 -62 57 -113c0 -65 -38 -118 -103 -133c77 -11 126 -67 126 -145zM445 431c0 74 -44 110 -133 110h-194v-210h194c86 0 133 39 133 100zM467 168
c0 77 -53 115 -155 115h-194v-235h194c46 0 83 8 109 25c31 20 46 51 46 95z" />
    <glyph glyph-name="C" unicode="C" horiz-adv-x="579" 
d="M495 230h56c-16 -147 -107 -235 -246 -235c-89 0 -158 30 -207 90c-47 58 -70 129 -70 215s23 157 69 212c51 64 118 94 208 94c58 0 111 -17 158 -51c46 -34 72 -80 80 -139h-56c-20 91 -93 143 -182 143c-72 0 -128 -27 -169 -82c-35 -48 -52 -107 -52 -177
c0 -71 17 -131 52 -179c41 -54 97 -81 169 -81c106 0 179 79 190 190z" />
    <glyph glyph-name="D" unicode="D" horiz-adv-x="579" 
d="M540 295c0 -196 -91 -295 -270 -295h-203v589h203c181 0 270 -98 270 -294zM484 295c0 175 -72 246 -242 246h-120v-493h120c169 0 242 72 242 247z" />
    <glyph glyph-name="E" unicode="E" horiz-adv-x="500" 
d="M477 48v-48h-411v589h407v-48h-352v-212h329v-49h-329v-232h356z" />
    <glyph glyph-name="F" unicode="F" horiz-adv-x="463" 
d="M438 589v-48h-318v-212h283v-49h-283v-280h-55v589h373z" />
    <glyph glyph-name="G" unicode="G" horiz-adv-x="601" 
d="M561 300v-300h-40l-7 107c-39 -80 -118 -117 -207 -117s-158 30 -207 90c-47 58 -70 129 -70 215s23 157 69 212c51 64 118 94 208 94c129 0 227 -70 246 -194h-56c-3 36 -22 68 -55 98c-36 32 -80 49 -135 49c-72 0 -128 -27 -169 -82c-35 -48 -52 -107 -52 -177
c0 -71 17 -131 52 -179c41 -54 97 -81 169 -81c129 0 205 88 205 216h-201v49h250z" />
    <glyph glyph-name="H" unicode="H" horiz-adv-x="565" 
d="M515 589v-589h-56v285h-350v-285h-55v589h55v-255h350v255h56z" />
    <glyph glyph-name="I" unicode="I" horiz-adv-x="172" 
d="M119 589v-589h-57v589h57z" />
    <glyph glyph-name="J" unicode="J" horiz-adv-x="403" 
d="M353 590v-425c0 -121 -46 -174 -172 -174c-61 0 -106 17 -132 59c-21 32 -31 79 -31 140h56c0 -44 4 -75 12 -95c17 -40 50 -59 100 -59c86 0 111 39 111 153v401h56z" />
    <glyph glyph-name="K" unicode="K" horiz-adv-x="543" 
d="M276 346l277 -346h-73l-245 308l-114 -105v-203h-55v589h55v-317l343 317h76z" />
    <glyph glyph-name="L" unicode="L" horiz-adv-x="449" 
d="M452 48v-48h-385v589h55v-541h330z" />
    <glyph glyph-name="M" unicode="M" horiz-adv-x="694" 
d="M644 589v-589h-56v509l-204 -509h-53l-202 509l-2 -509h-56v589h83l203 -516l204 516h83z" />
    <glyph glyph-name="N" unicode="N" horiz-adv-x="592" 
d="M537 589v-589h-62l-344 499l-1 -499h-56v589h62l344 -497l1 497h56z" />
    <glyph glyph-name="O" unicode="O" horiz-adv-x="611" 
d="M583 300c0 -86 -22 -158 -68 -214c-52 -61 -121 -91 -209 -91s-158 30 -208 90c-47 57 -71 128 -71 215c0 86 24 157 69 212c52 63 122 94 210 94c87 0 156 -30 208 -92c46 -57 69 -128 69 -214zM527 300c0 71 -17 130 -52 177c-40 55 -96 82 -169 82
c-72 0 -129 -27 -170 -82c-35 -48 -52 -107 -52 -177c0 -71 17 -131 52 -179c41 -54 98 -81 170 -81c73 0 129 27 169 81c36 49 52 107 52 179z" />
    <glyph glyph-name="P" unicode="P" horiz-adv-x="543" 
d="M512 421c0 -106 -66 -168 -176 -168h-206v-253h-55v589h261c105 0 176 -63 176 -168zM455 421c0 79 -50 120 -131 120h-194v-241h194c80 0 131 41 131 121z" />
    <glyph glyph-name="Q" unicode="Q" horiz-adv-x="630" 
d="M592 297c0 -93 -31 -177 -89 -233l85 -63l-29 -34l-91 67c-44 -29 -94 -42 -153 -42c-88 0 -158 30 -208 90c-47 57 -71 129 -71 215s24 157 69 213c52 63 122 94 210 94c87 0 156 -31 208 -92c46 -57 69 -129 69 -215zM536 297c0 72 -17 131 -52 178
c-40 54 -96 81 -169 81c-72 0 -129 -27 -170 -81c-35 -48 -52 -107 -52 -178c0 -70 17 -130 52 -178c41 -55 98 -82 170 -82c41 0 78 10 109 29l-78 59l29 36l86 -64c49 46 75 122 75 200z" />
    <glyph glyph-name="R" unicode="R" horiz-adv-x="565" 
d="M536 0h-61c-14 20 -16 52 -16 92c0 134 -42 169 -117 169h-215v-261h-54v589h269c52 0 94 -12 125 -37c36 -27 55 -66 55 -117c0 -76 -39 -135 -116 -150c74 -10 103 -57 103 -134c0 -69 4 -122 27 -151zM465 424c0 78 -43 117 -128 117h-210v-232h210
c74 0 128 44 128 115z" />
    <glyph glyph-name="S" unicode="S" horiz-adv-x="533" 
d="M495 161c0 -39 -11 -72 -34 -100c-36 -44 -100 -66 -192 -66c-74 0 -130 15 -169 46c-44 35 -66 87 -66 158h56c0 -57 19 -99 55 -125c33 -23 79 -34 137 -34c37 0 71 9 101 27c37 23 55 53 55 93c0 30 -13 54 -40 74c-19 14 -46 23 -81 32l-131 33c-42 11 -73 25 -93 42
c-26 24 -40 57 -40 99s13 77 39 105c36 41 91 61 164 61c60 0 112 -16 155 -49c42 -31 63 -75 63 -133h-56c0 86 -71 135 -161 135c-43 0 -77 -9 -102 -25c-30 -20 -46 -50 -46 -93c0 -26 9 -46 27 -61c14 -12 35 -22 62 -29l144 -35c49 -14 85 -30 107 -49
c30 -26 46 -61 46 -106z" />
    <glyph glyph-name="T" unicode="T" horiz-adv-x="470" 
d="M467 589v-48h-205v-541h-57v541h-203v48h465z" />
    <glyph glyph-name="U" unicode="U" horiz-adv-x="558" 
d="M513 594v-376c0 -66 -17 -118 -52 -158c-40 -43 -99 -65 -177 -65s-136 20 -175 64c-36 40 -53 92 -53 159v376h56v-364c0 -133 58 -190 172 -190c115 0 173 55 173 190v364h56z" />
    <glyph glyph-name="V" unicode="V" horiz-adv-x="519" 
d="M450 589h59l-219 -589h-65l-217 589h59l191 -528z" />
    <glyph glyph-name="W" unicode="W" horiz-adv-x="755" 
d="M694 589h57l-163 -589h-60l-149 527l-150 -527h-61l-164 589h60l134 -515l145 515h70l145 -515z" />
    <glyph glyph-name="X" unicode="X" horiz-adv-x="472" 
d="M267 303l213 -303h-67l-179 260l-181 -260h-62l211 304l-201 285h67l166 -247l173 247h62z" />
    <glyph glyph-name="Y" unicode="Y" horiz-adv-x="510" 
d="M446 589h68l-232 -347v-242h-57v242l-230 347h65l194 -299z" />
    <glyph glyph-name="Z" unicode="Z" horiz-adv-x="480" 
d="M464 48v-48h-459v50l388 491h-362v48h425v-49l-388 -492h396z" />
    <glyph glyph-name="bracketleft" unicode="[" horiz-adv-x="271" 
d="M203 -54v-44h-133v757h133v-44h-80v-669h80z" />
    <glyph glyph-name="backslash" unicode="\" horiz-adv-x="304" 
d="M44 606l254 -611h-44l-251 611h41z" />
    <glyph glyph-name="bracketright" unicode="]" horiz-adv-x="204" 
d="M139 659v-757h-133v44h80v669h-80v44h133z" />
    <glyph glyph-name="asciicircum" unicode="^" horiz-adv-x="482" 
d="M262 685l191 -373h-48l-165 321l-162 -321h-48l190 373h42z" />
    <glyph glyph-name="underscore" unicode="_" horiz-adv-x="463" 
d="M463 -164h-463v44h463v-44z" />
    <glyph glyph-name="grave" unicode="`" horiz-adv-x="155" 
d="M41 616l87 -116h-42l-107 116h62z" />
    <glyph glyph-name="a" unicode="a" horiz-adv-x="435" 
d="M423 48v-44l-34 -3c-48 0 -61 25 -61 74c-21 -31 -42 -53 -61 -64c-25 -14 -57 -21 -97 -21s-73 10 -99 29c-29 22 -43 53 -43 94c0 53 24 89 71 108c25 10 78 20 158 29c25 4 41 8 49 12c11 9 17 24 17 46c0 64 -42 86 -111 86c-72 0 -114 -29 -114 -98h-51
c0 95 67 142 172 142c46 0 81 -8 106 -25c34 -22 50 -59 50 -111v-226c0 -21 11 -31 31 -31zM323 166v67c-7 -11 -34 -16 -45 -19c-44 -9 -88 -15 -132 -23c-44 -14 -66 -39 -66 -75c0 -50 44 -84 96 -84c83 0 147 52 147 134z" />
    <glyph glyph-name="b" unicode="b" horiz-adv-x="478" 
d="M454 213c0 -66 -16 -118 -47 -158c-33 -43 -82 -65 -144 -65c-69 0 -129 32 -153 91l-1 -81h-48v589h51v-244c22 59 84 93 151 93c62 0 109 -22 143 -67c32 -41 48 -94 48 -158zM401 213c0 51 -10 91 -31 123c-25 39 -60 58 -107 58c-52 0 -91 -19 -117 -58
c-23 -32 -34 -73 -34 -123c0 -51 11 -92 33 -124c26 -39 66 -58 118 -58c45 0 81 19 106 58c21 34 32 76 32 124z" />
    <glyph glyph-name="c" unicode="c" horiz-adv-x="432" 
d="M352 156h52c-14 -104 -80 -163 -176 -163c-63 0 -112 21 -148 63s-53 96 -53 160s17 118 52 160c36 43 86 65 149 65c95 0 160 -48 172 -145h-51c-14 64 -55 101 -121 101c-47 0 -84 -17 -110 -53s-39 -78 -39 -128c0 -49 13 -91 39 -127s63 -54 110 -54
c65 0 117 50 124 121z" />
    <glyph glyph-name="d" unicode="d" horiz-adv-x="470" 
d="M420 589v-589h-48v81c-23 -54 -90 -91 -153 -91c-62 0 -109 21 -143 63c-32 44 -49 96 -49 160c0 65 15 117 47 157c33 45 81 68 145 68c68 0 126 -33 147 -93l2 244h52zM368 213c0 51 -11 92 -32 123c-26 39 -65 58 -117 58c-47 0 -82 -19 -107 -58
c-21 -34 -32 -75 -32 -123c0 -50 10 -91 31 -124c25 -39 61 -58 108 -58c51 0 90 19 116 58c22 32 33 73 33 124z" />
    <glyph glyph-name="e" unicode="e" horiz-adv-x="445" 
d="M412 205h-328c0 -44 11 -81 32 -113c26 -37 62 -55 108 -55c73 0 117 40 134 109h52c-23 -100 -81 -151 -186 -151c-129 0 -193 93 -193 223c0 62 16 114 45 155c34 47 83 70 148 70c64 0 112 -24 145 -73c29 -43 43 -97 43 -165zM84 248h275c0 84 -51 151 -135 151
c-40 0 -73 -15 -99 -46c-22 -27 -36 -63 -41 -105z" />
    <glyph glyph-name="f" unicode="f" horiz-adv-x="215" 
d="M227 587v-46l-39 4c-26 0 -43 -8 -50 -24c-5 -8 -7 -28 -7 -58v-37h84v-43h-84v-383h-52v383h-73v43h73v39c0 40 6 70 20 89c16 23 44 35 84 35z" />
    <glyph glyph-name="g" unicode="g" horiz-adv-x="455" 
d="M405 429v-392c0 -64 -14 -114 -41 -147c-31 -37 -81 -55 -148 -55c-48 0 -87 9 -120 30c-37 23 -56 56 -56 98h53c9 -60 58 -85 123 -85c96 0 138 54 138 159v58c-26 -56 -76 -88 -138 -88c-65 0 -114 22 -147 65c-30 38 -45 90 -45 155c0 123 72 213 192 213
c60 0 114 -36 135 -85l3 74h51zM354 220c0 47 -10 88 -31 120c-24 37 -60 56 -107 56c-90 0 -140 -80 -140 -176c0 -46 11 -85 34 -116c26 -35 61 -53 106 -53c86 0 138 75 138 169z" />
    <glyph glyph-name="h" unicode="h" horiz-adv-x="454" 
d="M405 274v-274h-51v266c0 40 -8 70 -23 92c-17 23 -46 36 -86 36c-81 0 -132 -60 -132 -145v-249h-53v589h53v-236c19 49 77 85 137 85c55 0 96 -15 121 -44c23 -27 34 -66 34 -120z" />
    <glyph glyph-name="i" unicode="i" horiz-adv-x="176" 
d="M117 589v-83h-53v83h53zM117 426v-426h-53v426h53z" />
    <glyph glyph-name="j" unicode="j" horiz-adv-x="144" 
d="M99 615v-83h-52v83h52zM99 452v-464c0 -36 -6 -64 -17 -83c-14 -23 -39 -35 -74 -35l-34 1v44c12 -2 21 -3 26 -1c35 0 47 20 47 61v477h52z" />
    <glyph glyph-name="k" unicode="k" horiz-adv-x="410" 
d="M223 267l194 -267h-65l-169 231l-84 -70v-161h-51v589h51v-369l237 206h69z" />
    <glyph glyph-name="l" unicode="l" horiz-adv-x="187" 
d="M122 589v-589h-53v589h53z" />
    <glyph glyph-name="m" unicode="m" horiz-adv-x="697" 
d="M647 288v-288h-51v286c0 74 -28 107 -101 107c-41 0 -73 -14 -92 -46c-16 -26 -23 -60 -23 -106v-241h-53v288c0 32 -6 56 -19 74c-14 21 -37 31 -69 31c-85 0 -128 -61 -128 -156v-237h-51v426h47v-72c32 56 76 83 141 83c59 0 108 -28 123 -82c25 56 76 82 135 82
c94 0 141 -49 141 -149z" />
    <glyph glyph-name="n" unicode="n" horiz-adv-x="454" 
d="M406 274v-274h-51v266c0 39 -8 70 -23 91c-17 24 -46 36 -86 36c-81 0 -132 -60 -132 -144v-249h-53v426h53v-74c19 49 77 85 137 85c55 0 96 -14 121 -44c23 -26 34 -66 34 -119z" />
    <glyph glyph-name="o" unicode="o" horiz-adv-x="449" 
d="M426 216c0 -63 -17 -115 -51 -157c-38 -44 -88 -66 -151 -66s-112 21 -148 63s-54 96 -54 160s18 118 53 160c36 43 86 65 149 65c61 0 112 -22 150 -66c35 -41 52 -94 52 -159zM374 216c0 50 -13 92 -38 125c-27 38 -65 56 -112 56s-84 -17 -110 -53s-39 -78 -39 -128
c0 -49 13 -91 39 -127s63 -54 110 -54s85 19 112 56c25 35 38 77 38 125z" />
    <glyph glyph-name="p" unicode="p" horiz-adv-x="488" 
d="M455 215c0 -65 -16 -118 -47 -158c-33 -43 -82 -65 -144 -65c-67 0 -128 31 -149 92l-2 -237h-51v581h48v-81c25 56 84 93 154 93c62 0 109 -22 143 -66c32 -42 48 -95 48 -159zM402 215c0 51 -10 91 -31 124c-25 38 -60 57 -107 57c-54 0 -93 -18 -118 -54
c-22 -31 -33 -73 -33 -127c0 -50 11 -92 33 -124c26 -39 66 -57 118 -57c45 0 81 19 106 57c21 35 32 76 32 124z" />
    <glyph glyph-name="q" unicode="q" horiz-adv-x="465" 
d="M416 426v-581h-52v237c-24 -61 -83 -92 -149 -92c-62 0 -109 21 -143 63c-32 44 -49 96 -49 160c0 65 15 118 47 157c33 45 81 68 145 68c66 0 127 -37 152 -93l1 81h48zM364 213c0 51 -11 93 -32 124c-26 38 -65 57 -117 57c-47 0 -82 -19 -107 -57
c-21 -35 -32 -76 -32 -124c0 -50 10 -91 31 -124c25 -38 61 -57 108 -57c51 0 90 19 116 57c22 32 33 73 33 124z" />
    <glyph glyph-name="r" unicode="r" horiz-adv-x="262" 
d="M262 431v-51c-94 0 -158 -64 -158 -154v-226h-52v426h48v-100c29 70 82 105 162 105z" />
    <glyph glyph-name="s" unicode="s" horiz-adv-x="395" 
d="M367 119c0 -44 -18 -77 -54 -99c-32 -19 -70 -27 -116 -27c-105 0 -166 44 -176 148h53c0 -66 54 -106 125 -106c29 0 55 6 76 18c27 14 40 36 40 63c0 21 -10 39 -29 53c-14 11 -36 19 -63 25l-68 15c-38 10 -66 22 -85 36c-22 19 -33 44 -33 77c0 80 74 119 160 119
c91 0 156 -45 156 -136h-51c0 60 -48 92 -113 92c-55 0 -100 -21 -100 -72c0 -21 10 -37 30 -50c10 -7 30 -14 59 -22l69 -15c33 -5 61 -16 82 -34c26 -21 38 -49 38 -85z" />
    <glyph glyph-name="t" unicode="t" horiz-adv-x="231" 
d="M218 42v-44l-46 -1c-71 0 -93 21 -93 95v291h-74v43h74v128h53v-128h86v-43h-86v-288c0 -40 6 -56 41 -56z" />
    <glyph glyph-name="u" unicode="u" horiz-adv-x="456" 
d="M406 426v-426h-48v76c-28 -56 -85 -87 -148 -87c-103 0 -149 57 -149 160v277h53v-277c0 -82 32 -118 113 -118c84 0 128 76 128 171v224h51z" />
    <glyph glyph-name="v" unicode="v" horiz-adv-x="381" 
d="M326 426h54l-159 -426h-55l-165 426h59l132 -373z" />
    <glyph glyph-name="w" unicode="w" horiz-adv-x="606" 
d="M547 426h55l-138 -426h-56l-105 358l-106 -358h-56l-138 426h55l110 -365l105 365h59l104 -365z" />
    <glyph glyph-name="x" unicode="x" horiz-adv-x="399" 
d="M230 223l166 -223h-66l-134 179l-132 -179h-63l165 221l-152 205h65l121 -162l118 162h66z" />
    <glyph glyph-name="y" unicode="y" horiz-adv-x="381" 
d="M328 426h51l-186 -489c-14 -39 -28 -64 -42 -75s-37 -17 -69 -17c-17 0 -31 1 -39 3v44l34 -3c21 0 36 6 48 18c7 9 16 24 28 47l17 47l-170 425h56l140 -363z" />
    <glyph glyph-name="z" unicode="z" horiz-adv-x="374" 
d="M365 44v-44h-355v43l278 340h-259v43h325v-37l-281 -345h292z" />
    <glyph glyph-name="braceleft" unicode="{" horiz-adv-x="246" 
d="M222 -110v-44h-41c-47 0 -73 37 -73 103v120c0 40 -4 71 -12 91c-9 28 -25 42 -47 42v43c45 0 59 51 59 131v124c0 64 26 103 73 103h41v-44h-16c-32 0 -46 -34 -46 -85v-116c0 -62 -22 -112 -57 -134c35 -26 57 -74 57 -135v-114c0 -51 11 -85 46 -85h16z" />
    <glyph glyph-name="bar" unicode="|" horiz-adv-x="175" 
d="M109 605v-611h-43v611h43z" />
    <glyph glyph-name="braceright" unicode="}" horiz-adv-x="285" 
d="M219 -110v-44h-41c-47 0 -73 37 -73 103v120c0 40 -4 71 -12 91c-9 28 -25 42 -47 42v43c45 0 59 51 59 131v124c0 64 26 103 73 103h41v-44h-16c-32 0 -46 -34 -46 -85v-116c0 -62 -22 -112 -57 -134c35 -26 57 -74 57 -135v-114c0 -51 11 -85 46 -85h16z" />
    <glyph glyph-name="asciitilde" unicode="~" horiz-adv-x="456" 
d="M387 353l29 -30c-41 -58 -66 -71 -103 -71c-29 0 -57 13 -92 27c-39 21 -65 27 -87 27c-16 0 -31 -6 -44 -18c-9 -9 -17 -21 -26 -38l-29 28c12 22 23 37 37 49c18 15 40 23 66 23c19 0 39 -4 58 -12c11 -4 23 -8 37 -15c24 -11 38 -18 43 -18c16 -7 28 -9 38 -9
c15 0 28 5 41 17c9 9 19 21 32 40z" />
    <glyph glyph-name="thothannobasethai" unicode="&#xf700;" horiz-adv-x="495" 
d="M405 506l39 -32c-24 -28 -48 -42 -89 -42c-24 0 -52 5 -85 15s-58 15 -75 15c-56 0 -92 -19 -113 -50c49 0 102 -4 168 -13c105 -16 155 -47 155 -113c0 -19 -17 -73 -54 -164c-18 -43 -26 -83 -26 -122h-67l-55 191c-16 -14 -34 -21 -55 -21c-44 0 -83 32 -83 82
c0 49 39 84 83 84c52 0 79 -30 93 -81l47 -176c2 15 17 57 45 130c13 32 19 55 19 72c0 32 -29 55 -87 68c-20 6 -56 11 -107 16c-51 4 -101 7 -151 7c19 86 82 138 182 138c24 0 55 -6 91 -17c36 -9 59 -15 66 -15c24 0 44 13 59 28zM187 252c0 28 -12 42 -39 42
c-25 0 -38 -14 -38 -42c0 -26 13 -39 38 -39c22 0 39 18 39 39z" />
    <glyph glyph-name="saraileftthai" unicode="&#xf701;" 
d="M-165 585c-86 14 -176 19 -284 19c-41 0 -85 -1 -131 -1c16 90 90 145 190 145c121 0 204 -58 225 -163zM-225 632c-31 49 -97 74 -163 74c-54 0 -107 -22 -137 -64c30 4 65 5 105 5c58 0 124 -5 195 -15z" />
    <glyph glyph-name="saraiileftthai" unicode="&#xf702;" 
d="M-153 785v-199c-84 14 -175 19 -282 19c-41 0 -84 -1 -131 -1c17 90 90 145 191 145c70 0 128 -19 169 -58v94h53zM-211 633c-29 49 -97 74 -162 74c-54 0 -107 -22 -138 -64c31 4 65 5 105 5c59 0 124 -5 195 -15z" />
    <glyph glyph-name="saraueleftthai" unicode="&#xf703;" 
d="M-144 719c0 -34 -17 -56 -50 -69c9 -15 17 -37 21 -64c-86 15 -176 20 -283 20c-41 0 -84 -1 -131 -1c17 90 91 145 190 145c37 0 70 -6 101 -18c5 37 35 61 74 61c44 0 78 -33 78 -74zM-188 721c0 19 -12 31 -31 31s-31 -12 -31 -31s12 -31 31 -31s31 12 31 31z
M-232 634c-29 49 -96 73 -163 73c-53 0 -107 -22 -137 -63c30 4 65 5 105 5c59 0 124 -5 195 -15z" />
    <glyph glyph-name="saraueeleftthai" unicode="&#xf704;" 
d="M-169 784v-199c-84 14 -175 19 -282 19c-41 0 -84 -1 -131 -1c17 90 90 145 191 145c28 0 55 -3 80 -10v46h52v-67c7 -4 13 -8 20 -13c3 -1 9 -6 17 -14v94h53zM-227 632c-29 49 -97 74 -162 74c-54 0 -107 -22 -138 -64c31 4 65 5 105 5c59 0 124 -5 195 -15z" />
    <glyph glyph-name="maieklowleftthai" unicode="&#xf705;" 
d="M-153 720v-137h-53v137h53z" />
    <glyph glyph-name="maitholowleftthai" unicode="&#xf706;" 
d="M-146 760l43 -10c-12 -47 -41 -85 -85 -113c-54 -34 -119 -50 -202 -50v30c29 6 48 17 59 33c-36 0 -61 25 -61 62c0 35 30 62 66 62c39 0 69 -22 69 -63c0 -30 -17 -60 -39 -79c71 13 141 63 150 128zM-295 711c0 20 -10 30 -31 30c-20 0 -31 -10 -31 -30s11 -30 31 -30
c21 0 31 10 31 30z" />
    <glyph glyph-name="maitrilowleftthai" unicode="&#xf707;" 
d="M-141 778h39c0 -46 -11 -88 -33 -126c-19 -32 -41 -57 -65 -75l-38 12c11 32 15 46 15 71c0 30 -12 45 -34 45c-14 0 -25 -5 -31 -16c-3 -3 -5 -9 -6 -18h-36c-6 23 -21 34 -46 34c-19 0 -33 -11 -37 -26l15 3c30 0 53 -21 53 -53c0 -35 -25 -56 -54 -56
c-16 0 -30 5 -41 16c-16 14 -24 34 -24 61c0 55 38 94 87 94c16 0 29 -3 41 -11c8 -4 16 -12 24 -23c11 17 33 33 61 33c40 0 67 -30 67 -69l-2 -27c25 34 45 77 45 131zM-376 628c0 16 -8 25 -23 25c-16 0 -24 -9 -24 -25c0 -18 8 -26 24 -26c15 0 23 8 23 26z" />
    <glyph glyph-name="maichattawalowleftthai" unicode="&#xf708;" 
d="M-106 671v-36h-77v-73h-47v73h-79v36h79v74h47v-74h77z" />
    <glyph glyph-name="thanthakhatlowleftthai" unicode="&#xf709;" 
d="M-142 816h48c-7 -73 -83 -85 -99 -82c-8 0 -15 1 -20 1h-12c28 -7 48 -31 48 -61c0 -36 -29 -65 -66 -65c-39 0 -74 30 -74 74c0 46 31 82 80 87c24 2 45 5 63 8c16 5 32 22 32 38zM-213 673c0 20 -10 30 -30 30s-30 -10 -30 -30c0 -22 10 -32 30 -32s30 10 30 32z" />
    <glyph glyph-name="maieklowrightthai" unicode="&#xf70a;" 
d="M-58 720v-137h-53v137h53z" />
    <glyph glyph-name="maitholowrightthai" unicode="&#xf70b;" 
d="M-40 760l43 -10c-12 -47 -41 -85 -85 -113c-54 -34 -119 -50 -202 -50v30c29 6 48 17 59 33c-36 0 -61 25 -61 62c0 35 30 62 66 62c39 0 69 -22 69 -63c0 -30 -17 -60 -39 -79c71 13 141 63 150 128zM-189 711c0 20 -10 30 -31 30c-20 0 -31 -10 -31 -30s11 -30 31 -30
c21 0 31 10 31 30z" />
    <glyph glyph-name="maitrilowrightthai" unicode="&#xf70c;" 
d="M-71 778h39c0 -46 -11 -88 -33 -126c-19 -32 -41 -57 -65 -75l-38 12c11 32 15 46 15 71c0 30 -12 45 -34 45c-14 0 -25 -5 -31 -16c-3 -3 -5 -9 -6 -18h-36c-6 23 -21 34 -46 34c-19 0 -33 -11 -37 -26l15 3c30 0 53 -21 53 -53c0 -35 -25 -56 -54 -56
c-16 0 -30 5 -41 16c-16 14 -24 34 -24 61c0 55 38 94 87 94c16 0 29 -3 41 -11c8 -4 16 -12 24 -23c11 17 33 33 61 33c40 0 67 -30 67 -69l-2 -27c25 34 45 77 45 131zM-306 628c0 16 -8 25 -23 25c-16 0 -24 -9 -24 -25c0 -18 8 -26 24 -26c15 0 23 8 23 26z" />
    <glyph glyph-name="maichattawalowrightthai" unicode="&#xf70d;" 
d="M-36 671v-36h-77v-73h-47v73h-79v36h79v74h47v-74h77z" />
    <glyph glyph-name="thanthakhatlowrightthai" unicode="&#xf70e;" 
d="M-73 816h48c-7 -73 -83 -85 -99 -82c-8 0 -15 1 -20 1h-12c28 -7 48 -31 48 -61c0 -36 -29 -65 -66 -65c-39 0 -74 30 -74 74c0 46 31 82 80 87c24 2 45 5 63 8c16 5 32 22 32 38zM-144 673c0 20 -10 30 -30 30s-30 -10 -30 -30c0 -22 10 -32 30 -32s30 10 30 32z" />
    <glyph glyph-name="yoyingnobasethai" unicode="&#xf70f;" horiz-adv-x="727" 
d="M669 500v-409c0 -36 -10 -60 -30 -73c-16 -12 -45 -18 -85 -18h-230v49h63v310c0 70 -61 104 -141 104c-66 0 -111 -20 -140 -57c25 -9 57 -22 88 -41c-13 -9 -26 -20 -38 -35c-15 -19 -23 -36 -23 -54v-125c14 7 26 9 38 9c45 0 84 -34 84 -85c0 -49 -40 -83 -87 -83
c-54 0 -87 33 -87 89v197c0 31 22 63 46 77c-30 14 -60 23 -91 33c34 75 109 122 208 122c118 0 196 -51 196 -152v-309h96h35c8 0 13 0 16 1c20 4 30 22 30 55v395h52zM210 75c0 26 -14 40 -41 40c-26 0 -39 -14 -39 -40c0 -27 13 -40 39 -40c27 0 41 13 41 40z" />
    <glyph glyph-name="quoteleft" unicode="&#x2018;" horiz-adv-x="159" 
d="M130 477c0 -32 -23 -54 -52 -54s-51 25 -51 61c0 58 22 103 64 134l33 -21c-30 -20 -50 -48 -50 -68l4 2c29 0 52 -20 52 -54z" />
    <glyph glyph-name="quoteright" unicode="&#x2019;" horiz-adv-x="154" 
d="M127 557c0 -58 -22 -102 -64 -133l-33 21c30 20 50 48 50 68l-5 -3c-28 0 -51 21 -51 55c0 32 23 54 51 54c30 0 52 -25 52 -62z" />
    <glyph glyph-name="bullet" unicode="&#x2022;" horiz-adv-x="196" 
d="M98 224c-41 0 -72 31 -72 72s31 72 72 72s72 -31 72 -72s-31 -72 -72 -72z" />
    <glyph glyph-name="endash" unicode="&#x2013;" horiz-adv-x="460" 
d="M419 272v-44h-387v44h387z" />
    <glyph glyph-name="emdash" unicode="&#x2014;" horiz-adv-x="965" 
d="M898 273v-44h-851v44h851z" />
    <glyph glyph-name="maihanakatleftthai" unicode="&#xf710;" 
d="M-104 769h48c0 -56 -23 -102 -69 -137c-38 -31 -84 -46 -136 -46c-44 0 -79 8 -108 25c-32 19 -49 45 -49 80c0 44 30 75 77 75c41 0 76 -31 76 -75c0 -26 -9 -46 -27 -59c14 -2 22 -2 28 -2c42 0 79 12 110 36c33 26 50 60 50 103zM-304 689c0 20 -17 38 -37 38
s-38 -18 -38 -38s18 -37 38 -37s37 17 37 37z" />
    <glyph glyph-name="nikhahitleftthai" unicode="&#xf711;" 
d="M-156 667c0 -48 -37 -86 -86 -86s-86 38 -86 86c0 49 37 86 86 86s86 -37 86 -86zM-199 667c0 25 -18 42 -43 42s-43 -17 -43 -42s18 -42 43 -42s43 17 43 42z" />
    <glyph glyph-name="maitaikhuleftthai" unicode="&#xf712;" 
d="M-217 834h50c-9 -66 -55 -103 -126 -103l-85 3c-42 0 -69 -19 -69 -56c0 -29 19 -41 38 -45l57 61c19 -21 34 -37 48 -47c0 37 28 65 64 65c39 0 66 -26 66 -65c0 -37 -35 -67 -75 -67c-39 0 -74 18 -104 52l-42 -45h-16c-44 0 -85 33 -85 89c0 58 41 103 117 103l84 -4
c45 0 71 20 78 59zM-210 647c0 20 -10 30 -30 30s-30 -10 -30 -30s10 -30 30 -30s30 10 30 30z" />
    <glyph glyph-name="maiekupperleftthai" unicode="&#xf713;" 
d="M-152 937v-137h-53v137h53z" />
    <glyph glyph-name="maithoupperleftthai" unicode="&#xf714;" 
d="M-141 963l43 -10c-12 -47 -41 -85 -85 -113c-54 -34 -119 -50 -202 -50v30c29 6 48 17 59 33c-36 0 -61 25 -61 62c0 35 30 62 66 62c39 0 69 -22 69 -63c0 -30 -17 -60 -39 -79c71 13 141 63 150 128zM-290 914c0 20 -10 30 -31 30c-20 0 -31 -10 -31 -30s11 -30 31 -30
c21 0 31 10 31 30z" />
    <glyph glyph-name="maitriupperleftthai" unicode="&#xf715;" 
d="M-146 995h39c0 -46 -11 -88 -33 -126c-19 -32 -41 -57 -65 -75l-38 12c11 32 15 46 15 71c0 30 -12 45 -34 45c-14 0 -25 -5 -31 -16c-3 -3 -5 -9 -6 -18h-36c-6 23 -21 34 -46 34c-19 0 -33 -11 -37 -26l15 3c30 0 53 -21 53 -53c0 -35 -25 -56 -54 -56
c-16 0 -30 5 -41 16c-16 14 -24 34 -24 61c0 55 38 94 87 94c16 0 29 -3 41 -11c8 -4 16 -12 24 -23c11 17 33 33 61 33c40 0 67 -30 67 -69l-2 -27c25 34 45 77 45 131zM-381 845c0 16 -8 25 -23 25c-16 0 -24 -9 -24 -25c0 -18 8 -26 24 -26c15 0 23 8 23 26z" />
    <glyph glyph-name="maichattawaupperleftthai" unicode="&#xf716;" 
d="M-108 909v-36h-77v-73h-47v73h-79v36h79v74h47v-74h77z" />
    <glyph glyph-name="thanthakhatupperleftthai" unicode="&#xf717;" 
d="M-171 1002h48c-7 -73 -83 -85 -99 -82c-8 0 -15 1 -20 1h-12c28 -7 48 -31 48 -61c0 -36 -29 -65 -66 -65c-39 0 -74 30 -74 74c0 46 31 82 80 87c24 2 45 5 63 8c16 5 32 22 32 38zM-242 859c0 20 -10 30 -30 30s-30 -10 -30 -30c0 -22 10 -32 30 -32s30 10 30 32z" />
    <glyph glyph-name="kokaithai" unicode="&#xe01;" horiz-adv-x="499" 
d="M429 358v-358h-52v359c0 70 -62 104 -142 104c-66 0 -111 -20 -139 -57c25 -9 57 -22 88 -41c-13 -9 -26 -20 -38 -35c-16 -19 -23 -37 -23 -54v-276h-53v278c0 31 23 63 47 77c-30 14 -61 23 -92 32c35 76 110 123 209 123c117 0 195 -51 195 -152z" />
    <glyph glyph-name="khokhaithai" unicode="&#xe02;" horiz-adv-x="466" 
d="M402 500v-410c0 -70 -36 -90 -115 -90h-200v48h63v203c0 25 15 51 45 77s45 49 45 67c0 42 -31 73 -80 73c-30 0 -53 -9 -62 -19c39 0 76 -29 76 -70c0 -44 -33 -76 -76 -76c-45 0 -83 31 -83 87c0 29 11 55 35 79c29 28 65 42 111 42c79 0 130 -46 130 -117
c0 -29 -15 -57 -45 -86c-29 -29 -43 -54 -43 -75v-185h66c34 0 55 2 62 6c13 6 19 23 19 51v395h52zM134 379c0 19 -17 34 -36 34s-37 -15 -37 -34s18 -34 37 -34s36 15 36 34z" />
    <glyph glyph-name="khokhuatthai" unicode="&#xe03;" horiz-adv-x="497" 
d="M425 500v-410c0 -70 -36 -90 -114 -90h-201v48h63v204c0 24 14 50 44 80c29 28 45 52 45 71c0 26 -21 56 -29 56c-7 0 -38 -25 -51 -40c-26 20 -56 42 -63 42c-14 -10 -27 -24 -36 -43l19 2c41 0 75 -28 75 -69s-37 -74 -76 -74c-47 0 -83 32 -83 91c0 64 47 123 103 143
c16 -7 38 -23 58 -39c18 16 51 37 59 37c12 0 26 -9 43 -29c20 -23 31 -49 31 -79c0 -23 -9 -44 -26 -64c-41 -47 -61 -79 -61 -98v-191h67h35c8 0 13 1 16 1c20 4 30 23 30 56v395h52zM135 351c0 19 -15 32 -34 32c-21 0 -36 -13 -36 -32s15 -35 36 -35c16 0 34 16 34 35z
" />
    <glyph glyph-name="khokhwaithai" unicode="&#xe04;" horiz-adv-x="508" 
d="M434 340v-340h-52v332c0 38 -12 69 -35 92c-26 26 -63 39 -110 39c-90 0 -158 -54 -158 -128c0 -39 6 -81 18 -130c5 -21 6 -69 6 -117c4 46 7 77 16 114c15 55 27 86 42 125s44 61 83 61c52 0 85 -31 85 -80c0 -46 -39 -79 -85 -79c-22 0 -40 7 -56 20
c-12 -34 -25 -74 -39 -125c-13 -48 -22 -89 -27 -124h-60v75c0 35 -8 89 -23 163c-8 41 -12 74 -12 97c0 49 19 91 58 124c39 34 88 52 152 52c119 0 197 -71 197 -171zM284 308c0 26 -13 38 -40 38c-25 0 -40 -14 -40 -38c0 -20 19 -39 40 -39c24 0 40 18 40 39z" />
    <glyph glyph-name="khokhonthai" unicode="&#xe05;" horiz-adv-x="511" 
d="M433 376v-376h-52v367c0 51 -22 77 -61 91l-81 -55l-88 58c-44 -11 -73 -57 -73 -108c0 -65 21 -135 21 -200c0 -26 -1 -49 -1 -65c4 39 9 71 20 113c12 43 28 92 36 109c17 47 49 66 86 66c51 0 85 -31 85 -80c0 -45 -41 -78 -85 -78c-22 0 -40 6 -57 20
c-14 -37 -26 -75 -37 -116c-14 -51 -24 -91 -29 -122h-60v74c0 39 -5 86 -16 144c-10 59 -15 101 -15 130c0 89 61 152 138 161l72 -46l76 48c35 -8 61 -21 80 -37c28 -24 41 -56 41 -98zM279 296c0 27 -13 39 -39 39c-25 0 -40 -15 -40 -39c0 -19 18 -38 40 -38
c24 0 39 17 39 38z" />
    <glyph glyph-name="khorakhangthai" unicode="&#xe06;" horiz-adv-x="542" 
d="M473 500v-445c0 -37 -16 -55 -50 -55h-20c-14 31 -39 61 -75 89c-35 27 -75 45 -120 53v-67c0 -41 -31 -78 -80 -78c-22 0 -42 7 -60 21c-20 17 -30 41 -30 71c0 59 49 102 118 102v55c0 25 16 53 50 83c34 31 51 56 51 73c0 27 -21 57 -29 57c-7 0 -38 -26 -51 -40
c-26 20 -56 41 -63 41c-14 -9 -27 -24 -36 -42l19 2c41 0 75 -29 75 -69c0 -42 -36 -74 -76 -74c-47 0 -83 32 -83 90c0 65 47 124 104 143c15 -6 37 -22 58 -39c17 17 50 38 58 38c12 0 26 -10 43 -29c21 -23 31 -50 31 -79c0 -23 -10 -46 -30 -67
c-46 -48 -69 -82 -69 -100v-48c37 -5 71 -16 105 -35c42 -22 78 -52 108 -89v438h52zM131 351c0 19 -16 32 -35 32c-20 0 -36 -13 -36 -32c0 -20 16 -35 36 -35c16 0 35 15 35 35zM156 80v68c-41 0 -72 -25 -72 -59s14 -51 41 -51c20 0 31 15 31 42z" />
    <glyph glyph-name="ngonguthai" unicode="&#xe07;" horiz-adv-x="472" 
d="M391 419v-326c0 -69 -31 -93 -101 -93h-83c-17 72 -44 148 -84 232c-42 83 -80 149 -122 196l47 21c41 -46 80 -110 119 -191c42 -81 66 -149 80 -210h35c44 0 57 8 57 54v247c-13 -6 -26 -9 -37 -9c-46 0 -84 34 -84 85c0 49 40 86 86 86c54 0 87 -36 87 -92zM343 425
c0 27 -14 40 -40 40c-27 0 -40 -13 -40 -40c0 -26 13 -40 40 -40c26 0 40 14 40 40z" />
    <glyph glyph-name="chochanthai" unicode="&#xe08;" horiz-adv-x="470" 
d="M401 354c0 -45 -14 -101 -40 -169c-31 -76 -49 -138 -54 -185h-67l-47 209c-16 -12 -34 -18 -52 -18c-45 0 -84 33 -84 82c0 48 38 83 84 83c50 0 81 -27 92 -80l40 -193c1 11 19 65 54 161c14 41 21 78 21 109c0 68 -61 110 -142 110c-75 0 -137 -38 -149 -101h-55
c0 39 18 74 55 103c39 30 89 46 149 46c64 0 112 -16 147 -47c32 -29 48 -65 48 -110zM180 273c0 25 -18 41 -39 41c-26 0 -39 -14 -39 -41c0 -26 13 -39 39 -39c21 0 39 17 39 39z" />
    <glyph glyph-name="chochingthai" unicode="&#xe09;" horiz-adv-x="547" 
d="M507 80c0 -49 -37 -82 -87 -82c-49 0 -88 35 -88 82c0 8 1 14 3 20c2 3 2 7 6 14c-29 -7 -59 -22 -90 -46c-32 -24 -54 -46 -68 -68h-48v185c-12 -7 -24 -8 -35 -8c-46 0 -82 30 -82 80c0 45 39 78 83 78c51 0 86 -34 86 -86v-174c54 52 133 91 215 91v191
c0 70 -54 106 -137 106c-76 0 -140 -31 -154 -101h-51c9 88 90 148 205 148c114 0 189 -59 189 -150v-200c37 -16 53 -43 53 -80zM461 80c0 28 -14 42 -41 42c-22 0 -42 -17 -42 -42c0 -24 18 -41 42 -41c23 0 41 17 41 41zM139 257c0 21 -17 38 -38 38s-39 -17 -39 -38
c0 -22 18 -39 39 -39s38 17 38 39z" />
    <glyph glyph-name="chochangthai" unicode="&#xe0a;" horiz-adv-x="511" 
d="M386 500h52c1 -2 2 -5 2 -8v-11c0 -49 -27 -95 -68 -110c41 -9 64 -46 64 -84v-197c0 -70 -36 -90 -115 -90h-225v48h63v203c0 25 14 51 44 77s46 49 46 67c0 42 -32 73 -80 73c-30 0 -53 -9 -63 -19c40 0 77 -29 77 -70c0 -44 -33 -76 -77 -76c-45 0 -83 31 -83 87
c0 29 12 55 36 79c28 28 64 42 111 42c79 0 130 -46 130 -117c0 -29 -15 -57 -45 -86c-29 -29 -44 -54 -44 -75v-185h91c34 0 55 2 63 6c12 6 18 23 18 51v182c0 34 -20 58 -64 58v48c38 0 69 38 69 87c0 6 0 12 -2 20zM142 379c0 19 -17 34 -36 34s-36 -15 -36 -34
s17 -34 36 -34s36 15 36 34z" />
    <glyph glyph-name="sosothai" unicode="&#xe0b;" horiz-adv-x="529" 
d="M404 500h52c1 -2 2 -5 2 -8v-11c0 -49 -27 -95 -67 -110c40 -9 63 -46 63 -84v-197c0 -70 -36 -90 -115 -90h-225v48h62v204c0 24 15 50 44 80c30 28 45 52 45 71c0 26 -20 56 -28 56s-39 -25 -52 -40c-26 20 -56 42 -62 42c-14 -10 -27 -24 -36 -43l18 2
c41 0 76 -28 76 -69s-37 -74 -77 -74c-46 0 -83 32 -83 91c0 64 48 123 104 143c15 -7 38 -23 58 -39c18 16 51 37 59 37c11 0 25 -9 42 -29c21 -23 31 -49 31 -79c0 -23 -9 -44 -26 -64c-40 -47 -60 -79 -60 -98v-191h91c34 0 55 2 63 6c12 6 18 23 18 51v182
c0 34 -20 58 -64 58v48c38 0 69 38 69 87c0 6 0 12 -2 20zM139 351c0 19 -15 32 -35 32s-35 -13 -35 -32s15 -35 35 -35c17 0 35 16 35 35z" />
    <glyph glyph-name="chochoethai" unicode="&#xe0c;" horiz-adv-x="744" 
d="M665 500v-455c0 -35 -6 -45 -41 -45h-15c-14 19 -32 38 -56 56c-28 22 -55 37 -84 47c5 -10 5 -18 5 -28c0 -46 -38 -79 -85 -79c-46 0 -84 33 -84 79c0 41 29 78 78 83v201c0 70 -61 104 -141 104c-66 0 -111 -20 -140 -56c25 -9 57 -23 88 -42c-13 -8 -26 -20 -38 -35
c-15 -18 -23 -36 -23 -53v-125c14 6 26 8 38 8c45 0 84 -34 84 -85c0 -48 -40 -83 -87 -83c-54 0 -87 33 -87 89v197c0 31 22 63 46 78c-30 14 -60 23 -91 32c34 75 109 123 208 123c118 0 196 -52 196 -153v-203c58 -6 132 -45 177 -90v435h52zM430 75c0 26 -13 39 -41 39
c-23 0 -41 -15 -41 -39c0 -21 18 -39 41 -39c22 0 41 18 41 39zM206 75c0 27 -14 40 -41 40c-26 0 -39 -13 -39 -40c0 -26 13 -40 39 -40c27 0 41 14 41 40z" />
    <glyph glyph-name="yoyingthai" unicode="&#xe0d;" horiz-adv-x="753" 
d="M669 500v-409c0 -36 -10 -60 -30 -73c-16 -12 -45 -18 -85 -18h-230v49h63v310c0 70 -61 104 -141 104c-66 0 -111 -20 -140 -57c25 -9 57 -22 88 -41c-13 -9 -26 -20 -38 -35c-15 -19 -23 -36 -23 -54v-125c14 7 26 9 38 9c45 0 84 -34 84 -85c0 -49 -40 -83 -87 -83
c-54 0 -87 33 -87 89v197c0 31 22 63 46 77c-30 14 -60 23 -91 33c34 75 109 122 208 122c118 0 196 -51 196 -152v-309h96h35c8 0 13 0 16 1c20 4 30 22 30 55v395h52zM617 -45h52c0 -48 -21 -87 -62 -117c-38 -27 -84 -41 -136 -41c-81 0 -137 36 -137 97
c0 39 34 71 74 71c44 0 74 -29 74 -71c0 -23 -10 -39 -22 -51c42 0 78 9 107 28c33 21 50 49 50 84zM441 -106c0 17 -14 31 -33 31s-32 -14 -32 -31c0 -19 13 -32 32 -32s33 13 33 32zM210 75c0 26 -14 40 -41 40c-26 0 -39 -14 -39 -40c0 -27 13 -40 39 -40
c27 0 41 13 41 40z" />
    <glyph glyph-name="dochadathai" unicode="&#xe0e;" horiz-adv-x="581" 
d="M493 356v-532c0 -49 -25 -74 -75 -74h-27c-17 34 -41 64 -69 88c-27 -51 -76 -84 -134 -84c-54 0 -93 29 -93 78c0 51 50 92 117 92c17 0 34 -2 52 -6c7 -2 16 -5 30 -10c1 2 1 5 1 8v12c0 4 0 10 -2 20h49c0 -4 1 -7 1 -11v-14c0 -15 -1 -27 -5 -39
c34 -23 60 -51 80 -85c10 0 16 2 18 8c3 3 5 12 5 27v523c0 71 -62 104 -142 104c-66 0 -111 -19 -140 -56c25 -9 58 -23 89 -41c-14 -9 -27 -21 -39 -35c-15 -19 -22 -37 -22 -54v-195c0 -56 -33 -89 -84 -89c-45 0 -81 32 -81 83s35 84 79 84c15 0 26 -2 33 -7v125
c0 31 23 64 47 78c-32 14 -61 23 -92 32c34 75 109 123 209 123c117 0 195 -51 195 -153zM140 74c0 23 -17 39 -38 39c-25 0 -38 -13 -38 -39c0 -24 14 -41 38 -41c21 0 38 17 38 41zM280 -138c-21 10 -43 14 -68 14c-39 0 -69 -15 -69 -44c0 -20 20 -31 45 -31
c41 0 73 24 92 61z" />
    <glyph glyph-name="topatakthai" unicode="&#xe0f;" horiz-adv-x="577" 
d="M491 356v-532c0 -50 -26 -74 -76 -74h-23l-51 61l-48 -61h-31l-31 44c-23 -30 -53 -45 -92 -45c-48 0 -87 31 -87 75c0 45 40 80 91 80c24 0 50 -8 72 -24c0 5 1 16 1 25v14v10h52c0 -46 0 -61 -12 -90l24 -30c19 23 31 37 36 43c7 7 15 14 26 25c14 -11 29 -27 48 -49
c6 -6 13 -15 25 -29c16 0 24 13 24 40v518c0 70 -62 104 -142 104c-66 0 -111 -20 -140 -56c25 -10 58 -23 89 -42c-14 -8 -27 -20 -39 -35c-15 -19 -22 -36 -22 -53v-196c0 -56 -33 -89 -84 -89c-45 0 -81 33 -81 83c0 51 35 85 79 85c15 0 26 -2 33 -7v125
c0 31 23 63 47 77c-32 14 -61 24 -92 33c34 75 109 122 209 122c117 0 195 -51 195 -152zM138 73c0 24 -17 40 -38 40c-25 0 -38 -14 -38 -40c0 -24 14 -40 38 -40c21 0 38 16 38 40zM199 -172c-13 21 -32 31 -56 31s-43 -15 -43 -35c0 -19 19 -32 39 -32c26 0 49 17 60 36z
" />
    <glyph glyph-name="thothanthai" unicode="&#xe10;" horiz-adv-x="493" 
d="M405 506l39 -32c-24 -28 -48 -42 -89 -42c-24 0 -52 5 -85 15s-58 15 -75 15c-56 0 -92 -19 -113 -50c49 0 102 -4 168 -13c105 -16 155 -47 155 -113c0 -19 -17 -73 -54 -164c-18 -43 -26 -83 -26 -122h-67l-55 191c-16 -14 -34 -21 -55 -21c-44 0 -83 32 -83 82
c0 49 39 84 83 84c52 0 79 -30 93 -81l47 -176c2 15 17 57 45 130c13 32 19 55 19 72c0 32 -29 55 -87 68c-20 6 -56 11 -107 16c-51 4 -101 7 -151 7c19 86 82 138 182 138c24 0 55 -6 91 -17c36 -9 59 -15 66 -15c24 0 44 13 59 28zM411 -91v-86c0 -48 -23 -72 -70 -72
h-36l-39 37l-38 -37h-41l-23 40c-8 -8 -16 -15 -24 -20c-17 -10 -36 -16 -60 -16c-46 0 -77 30 -77 70c0 45 39 74 83 74c26 0 47 -8 64 -22l4 48h49c0 -35 -4 -65 -13 -90l25 -34c10 12 44 39 52 45l27 -22c14 -12 22 -20 26 -24h15c15 0 23 8 23 25v19l-18 -3
c-41 0 -71 29 -71 68c0 36 32 67 71 67c40 0 71 -28 71 -67zM187 252c0 28 -12 42 -39 42c-25 0 -38 -14 -38 -42c0 -26 13 -39 38 -39c22 0 39 18 39 39zM371 -91c0 19 -12 31 -31 31s-31 -12 -31 -31s12 -32 31 -32s31 13 31 32zM134 -170c-11 16 -27 24 -48 24
c-19 0 -36 -14 -36 -29c0 -17 11 -25 32 -25c24 0 33 8 52 30z" />
    <glyph glyph-name="thonangmonthothai" unicode="&#xe11;" horiz-adv-x="618" 
d="M543 406v-406h-53v399c0 41 -13 65 -39 65c-12 0 -23 -7 -32 -20c-7 -9 -14 -24 -23 -43l-168 -401h-61v252c0 24 15 50 44 80c30 28 45 52 45 71c0 26 -20 56 -28 56s-39 -25 -52 -40c-26 20 -56 42 -62 42c-14 -10 -27 -24 -36 -43l18 2c41 0 76 -28 76 -69
s-37 -74 -77 -74c-46 0 -83 32 -83 91c0 64 48 123 104 143c15 -7 38 -23 58 -39c18 16 51 37 59 37c11 0 25 -9 42 -29c21 -23 31 -49 31 -79c0 -23 -9 -44 -26 -64c-40 -47 -60 -79 -60 -98v-134l134 319c12 26 24 46 37 59c19 18 41 26 64 26c58 0 88 -34 88 -103z
M130 351c0 19 -15 32 -35 32s-35 -13 -35 -32s15 -35 35 -35c17 0 35 16 35 35z" />
    <glyph glyph-name="thophuthaothai" unicode="&#xe12;" horiz-adv-x="738" 
d="M666 500v-457c0 -31 -7 -43 -36 -43h-20c-26 36 -82 81 -139 101l4 -25c0 -47 -39 -80 -85 -80c-47 0 -85 33 -85 80c0 40 30 77 79 82v207c0 54 -22 79 -61 93l-81 -55l-88 58c-44 -11 -73 -57 -73 -108c0 -26 3 -55 8 -89c0 -2 4 -27 13 -76c7 -31 8 -64 8 -105
c11 17 31 49 53 79c9 11 17 22 27 33c7 7 14 17 24 28c-37 8 -64 41 -64 78c0 46 38 81 84 81s85 -34 85 -78c0 -29 -19 -58 -38 -77c-12 -14 -24 -26 -36 -40c-16 -19 -30 -35 -41 -52c-31 -42 -64 -95 -84 -135h-60v74c0 39 -5 86 -16 144c-10 59 -15 101 -15 130
c0 89 61 152 137 161l73 -46l76 48c35 -8 61 -20 80 -37c28 -24 41 -56 41 -98v-221c60 -6 131 -45 178 -90v435h52zM274 302c0 26 -14 38 -40 38c-25 0 -40 -14 -40 -38c0 -20 18 -39 40 -39c23 0 40 18 40 39zM431 76c0 25 -14 38 -41 38c-24 0 -41 -15 -41 -38
c0 -22 17 -40 41 -40c21 0 41 18 41 40z" />
    <glyph glyph-name="nonenthai" unicode="&#xe13;" horiz-adv-x="790" 
d="M740 81c0 -49 -37 -82 -87 -82s-88 35 -88 82c0 10 2 19 5 28c-44 -17 -101 -62 -127 -108h-50v359c0 70 -62 104 -142 104c-66 0 -111 -20 -140 -56c25 -9 58 -23 89 -42c-14 -8 -27 -20 -39 -35c-15 -18 -22 -36 -22 -53v-125c14 6 25 8 37 8c46 0 84 -34 84 -85
c0 -48 -40 -83 -87 -83c-53 0 -87 33 -87 89v197c0 31 23 63 47 78c-30 14 -61 23 -92 32c34 75 109 123 209 123c117 0 195 -52 195 -153v-280c49 49 125 88 190 88v334h52v-340c35 -16 53 -43 53 -80zM693 81c0 26 -13 39 -40 39c-24 0 -42 -15 -42 -39
c0 -21 18 -38 42 -38c21 0 40 17 40 38zM215 76c0 27 -13 40 -40 40s-40 -13 -40 -40c0 -26 13 -40 40 -40s40 14 40 40z" />
    <glyph glyph-name="dodekthai" unicode="&#xe14;" horiz-adv-x="524" 
d="M449 354v-354h-52v345c0 74 -58 118 -149 118c-86 0 -154 -46 -154 -117c-1 -4 -1 -8 -1 -12v-9c0 -21 4 -49 10 -81c17 -80 25 -132 25 -156c14 23 30 50 52 77l51 63c-37 9 -64 36 -64 77c0 45 35 82 83 82c50 0 86 -34 86 -78c0 -30 -19 -58 -38 -77
c-29 -33 -45 -50 -48 -54c-20 -26 -39 -49 -75 -109c-18 -31 -31 -52 -38 -69h-60v69c0 29 -8 85 -23 166c-8 45 -12 80 -12 104c0 96 83 172 207 172c120 0 200 -66 200 -157zM291 307c0 25 -14 38 -41 38c-25 0 -39 -14 -39 -38c0 -20 18 -39 39 -39c24 0 41 17 41 39z
" />
    <glyph glyph-name="totaothai" unicode="&#xe15;" horiz-adv-x="510" 
d="M441 376v-376h-52v365c0 54 -22 79 -61 93l-81 -55l-88 58c-44 -11 -73 -57 -73 -108c0 -26 3 -55 8 -89c0 -2 4 -27 13 -76c7 -31 8 -64 8 -105c11 17 32 49 53 78c9 12 17 22 27 34c7 7 14 17 24 28c-36 8 -64 41 -64 78c0 46 38 81 84 81s85 -34 85 -78
c0 -30 -19 -58 -38 -77c-12 -14 -24 -26 -36 -41c-16 -18 -30 -34 -41 -51c-31 -42 -64 -96 -84 -135h-60v74c0 39 -5 86 -16 144c-10 59 -15 101 -15 130c0 89 61 152 138 161l72 -46l76 48c35 -8 61 -21 80 -37c28 -24 41 -56 41 -98zM279 302c0 25 -13 38 -40 38
c-25 0 -40 -14 -40 -38c0 -20 18 -39 40 -39c23 0 40 17 40 39z" />
    <glyph glyph-name="thothungthai" unicode="&#xe16;" horiz-adv-x="518" 
d="M430 358v-358h-52v359c0 70 -62 104 -142 104c-66 0 -111 -20 -139 -56c25 -9 57 -23 88 -42c-13 -8 -26 -20 -38 -35c-16 -18 -23 -36 -23 -53v-125c14 6 26 8 37 8c46 0 85 -34 85 -85c0 -48 -41 -83 -87 -83c-54 0 -87 33 -87 89v197c0 31 22 63 46 78
c-30 14 -60 23 -92 32c35 75 110 123 209 123c117 0 195 -52 195 -153zM200 75c0 27 -13 40 -40 40c-26 0 -40 -13 -40 -40c0 -26 14 -40 40 -40c27 0 40 14 40 40z" />
    <glyph glyph-name="thothahanthai" unicode="&#xe17;" horiz-adv-x="579" 
d="M491 406v-406h-52v399c0 43 -13 65 -39 65c-22 0 -40 -24 -54 -63l-144 -401h-61v349c-14 -7 -26 -9 -37 -9c-46 0 -84 34 -84 85c0 49 40 86 86 86c54 0 87 -36 87 -92v-206c0 -44 -3 -103 -6 -132c5 16 6 26 8 35c6 27 12 47 16 61l87 248c21 54 52 86 103 86
c60 0 90 -35 90 -105zM145 425c0 27 -14 40 -40 40c-27 0 -40 -13 -40 -40c0 -26 13 -40 40 -40c26 0 40 14 40 40z" />
    <glyph glyph-name="thothongthai" unicode="&#xe18;" horiz-adv-x="482" 
d="M403 508l39 -34c-23 -26 -51 -42 -92 -42c-19 0 -46 5 -80 14c-35 12 -61 17 -80 17c-47 0 -77 -18 -96 -48c65 0 127 -5 183 -16c81 -20 120 -49 120 -108v-201c0 -70 -36 -90 -115 -90h-238v48h50v261h53v-261h116c34 0 55 2 63 6c13 6 19 23 19 51v188
c0 16 -9 30 -28 41c-25 14 -65 24 -120 30c-21 0 -53 1 -97 3c-43 2 -69 3 -79 3c20 91 83 141 174 141c23 0 52 -6 86 -17c34 -10 55 -15 62 -15c25 0 29 -1 60 29z" />
    <glyph glyph-name="nonuthai" unicode="&#xe19;" horiz-adv-x="560" 
d="M524 80c0 -49 -38 -82 -88 -82c-49 0 -87 35 -87 82c0 14 3 26 10 38c-32 -4 -65 -20 -99 -45c-30 -23 -54 -47 -71 -73h-50v349c-14 -7 -26 -9 -38 -9c-45 0 -84 34 -84 85c0 49 40 85 87 85c54 0 87 -35 87 -91v-345c59 56 144 93 228 93v333h52v-340
c35 -16 53 -43 53 -80zM142 425c0 27 -13 40 -39 40c-27 0 -41 -13 -41 -40c0 -26 14 -40 41 -40c26 0 39 14 39 40zM477 80c0 28 -13 42 -41 42c-27 0 -41 -14 -41 -42c0 -27 14 -41 41 -41c28 0 41 14 41 41z" />
    <glyph glyph-name="bobaimaithai" unicode="&#xe1a;" horiz-adv-x="556" 
d="M481 500v-410c0 -35 -10 -59 -30 -72c-16 -12 -45 -18 -85 -18h-287v48h62v301c-14 -7 -25 -9 -37 -9c-46 0 -84 34 -84 85c0 49 40 86 86 86c54 0 88 -36 88 -92v-371h153c66 0 82 4 82 57v395h52zM145 425c0 27 -14 40 -40 40c-27 0 -40 -13 -40 -40
c0 -26 13 -40 40 -40c26 0 40 14 40 40z" />
    <glyph glyph-name="poplathai" unicode="&#xe1b;" horiz-adv-x="569" 
d="M480 713v-623c0 -35 -10 -59 -30 -72c-16 -12 -45 -18 -85 -18h-287v48h62v301c-14 -7 -25 -9 -37 -9c-46 0 -84 34 -84 85c0 49 40 86 86 86c54 0 88 -36 88 -92v-371h153c66 0 82 4 82 57v608h52zM144 425c0 27 -14 40 -40 40c-27 0 -40 -13 -40 -40
c0 -26 13 -40 40 -40c26 0 40 14 40 40z" />
    <glyph glyph-name="phophungthai" unicode="&#xe1c;" horiz-adv-x="520" 
d="M452 500v-462c0 -25 -12 -38 -37 -38h-14l-147 209l-146 -209h-14c-25 0 -37 13 -37 38v381c0 56 34 92 87 92c47 0 87 -35 87 -86s-38 -85 -84 -85c-12 0 -23 2 -38 9v-264l124 175h42l124 -175v415h53zM186 425c0 27 -14 40 -41 40c-26 0 -39 -13 -39 -40
c0 -26 13 -40 39 -40c27 0 41 14 41 40z" />
    <glyph glyph-name="fofathai" unicode="&#xe1d;" horiz-adv-x="527" 
d="M455 713v-675c0 -25 -12 -38 -37 -38h-14l-147 209l-146 -209h-14c-25 0 -37 13 -37 38v381c0 56 34 92 87 92c47 0 87 -35 87 -86s-38 -85 -84 -85c-12 0 -23 2 -38 9v-264l124 175h42l124 -175v628h53zM189 425c0 27 -14 40 -41 40c-26 0 -39 -13 -39 -40
c0 -26 13 -40 39 -40c27 0 41 14 41 40z" />
    <glyph glyph-name="phophanthai" unicode="&#xe1e;" horiz-adv-x="620" 
d="M549 41c0 -27 -14 -41 -40 -41h-32l-136 412l-132 -412h-31c-27 0 -41 14 -41 41v308c-14 -7 -25 -9 -37 -9c-46 0 -84 34 -84 85c0 49 40 86 87 86c53 0 87 -36 87 -92v-253c0 -41 -2 -80 -6 -99c5 25 10 44 20 79l114 354h47l117 -354c3 -10 8 -30 14 -62
c2 -3 3 -9 4 -17c-2 31 -3 58 -4 99v334h53v-459zM141 425c0 27 -13 40 -40 40c-26 0 -40 -13 -40 -40c0 -26 14 -40 40 -40c27 0 40 14 40 40z" />
    <glyph glyph-name="fofanthai" unicode="&#xe1f;" horiz-adv-x="641" 
d="M551 713v-672c0 -27 -14 -41 -40 -41h-32l-136 412l-132 -412h-31c-27 0 -41 14 -41 41v308c-14 -7 -25 -9 -37 -9c-46 0 -84 34 -84 85c0 49 40 86 87 86c53 0 87 -36 87 -92v-253c0 -41 -2 -80 -6 -99c5 25 10 44 20 79l114 354h47l117 -354c3 -10 8 -30 14 -62
c2 -3 3 -9 4 -17c-2 31 -3 58 -4 99v547h53zM143 425c0 27 -13 40 -40 40c-26 0 -40 -13 -40 -40c0 -26 14 -40 40 -40c27 0 40 14 40 40z" />
    <glyph glyph-name="phosamphaothai" unicode="&#xe20;" horiz-adv-x="571" 
d="M489 358v-358h-52v359c0 70 -62 104 -142 104c-66 0 -111 -20 -140 -56c25 -9 58 -23 89 -42c-14 -8 -27 -20 -39 -35c-15 -18 -22 -36 -22 -53v-196c0 -56 -33 -89 -84 -89c-45 0 -81 33 -81 83c0 52 35 85 79 85c15 0 26 -2 33 -7v125c0 31 23 63 47 78
c-32 14 -61 23 -92 32c34 75 109 123 209 123c117 0 195 -52 195 -153zM136 75c0 24 -17 40 -38 40c-25 0 -38 -13 -38 -40c0 -23 14 -40 38 -40c21 0 38 17 38 40z" />
    <glyph glyph-name="momathai" unicode="&#xe21;" horiz-adv-x="532" 
d="M458 500v-448c0 -41 -16 -52 -53 -52h-14c-16 31 -41 60 -77 87c-39 31 -80 48 -122 55v-67c0 -42 -31 -78 -80 -78c-22 0 -42 7 -59 21c-21 17 -30 40 -30 70c0 60 48 103 117 103v157c-14 -6 -26 -8 -37 -8c-46 0 -84 34 -84 85c0 48 40 85 86 85c54 0 87 -35 87 -91
v-233c38 -5 73 -16 105 -34c44 -21 79 -51 108 -87v435h53zM144 425c0 27 -13 40 -40 40s-40 -13 -40 -40s13 -40 40 -40s40 13 40 40zM140 80v65c-39 0 -70 -22 -70 -57c0 -30 14 -47 39 -47c21 0 31 13 31 39z" />
    <glyph glyph-name="yoyakthai" unicode="&#xe22;" horiz-adv-x="519" 
d="M436 500v-408c0 -61 -19 -92 -119 -92h-240v161c0 47 27 83 64 97c-51 16 -76 47 -76 92v69c0 56 34 92 87 92c47 0 87 -35 87 -86s-38 -85 -84 -85c-15 0 -28 3 -38 9c0 -41 38 -64 88 -64h55v-47h-54c-51 0 -76 -33 -76 -79v-111h171c26 0 44 1 51 2c21 4 32 22 32 53
v397h52zM193 425c0 27 -13 40 -39 40c-27 0 -41 -13 -41 -40c0 -26 14 -40 41 -40c26 0 39 14 39 40z" />
    <glyph glyph-name="roruathai" unicode="&#xe23;" horiz-adv-x="446" 
d="M369 511l39 -31c-23 -28 -55 -43 -92 -43c-21 0 -46 5 -77 15c-30 10 -53 15 -70 15c-49 0 -85 -20 -104 -51c110 0 187 -13 233 -38c38 -20 57 -49 57 -87v-206c0 -56 -35 -89 -88 -89c-47 0 -86 32 -86 83c0 52 37 85 83 85c12 0 25 -3 38 -8v131c0 35 -27 60 -80 74
c-35 9 -89 12 -163 12h-58c14 91 77 142 168 142c21 0 48 -6 79 -16c32 -9 51 -15 61 -15c29 0 41 9 60 27zM306 79c0 27 -14 40 -41 40c-26 0 -39 -13 -39 -40c0 -26 13 -40 39 -40c27 0 41 14 41 40z" />
    <glyph glyph-name="ruthai" unicode="&#xe24;" horiz-adv-x="508" 
d="M430 362v-543h-52v544c0 70 -62 104 -142 104c-66 0 -111 -20 -139 -56c25 -10 57 -23 88 -42c-13 -8 -26 -20 -38 -35c-16 -19 -23 -36 -23 -53v-126c14 7 26 9 37 9c46 0 85 -34 85 -85c0 -49 -41 -83 -87 -83c-54 0 -87 33 -87 89v197c0 31 22 63 46 77
c-30 14 -60 24 -92 33c35 75 110 122 209 122c117 0 195 -51 195 -152zM200 79c0 26 -13 40 -40 40c-26 0 -40 -14 -40 -40c0 -27 14 -40 40 -40c27 0 40 13 40 40z" />
    <glyph glyph-name="lolingthai" unicode="&#xe25;" horiz-adv-x="534" 
d="M447 360v-360h-53l-133 259c-19 35 -37 54 -77 54c-34 0 -56 -23 -56 -58v-103c14 6 26 8 38 8c45 0 84 -34 84 -85c0 -48 -41 -83 -87 -83c-54 0 -87 33 -87 89v183c0 56 49 95 107 95c56 0 97 -24 122 -72l89 -173v243c0 68 -61 106 -142 106c-76 0 -137 -29 -149 -88
h-51c8 80 90 136 203 136c111 0 192 -60 192 -151zM205 75c0 27 -14 40 -41 40c-26 0 -39 -13 -39 -40c0 -26 13 -40 39 -40c27 0 41 14 41 40z" />
    <glyph glyph-name="luthai" unicode="&#xe26;" horiz-adv-x="582" 
d="M493 359v-543h-52v544c0 70 -62 104 -142 104c-66 0 -111 -20 -140 -56c25 -10 58 -23 89 -42c-14 -8 -27 -20 -39 -35c-15 -19 -22 -36 -22 -53v-196c0 -56 -33 -89 -84 -89c-45 0 -81 33 -81 83c0 51 35 85 79 85c15 0 26 -2 33 -7v125c0 31 23 63 47 77
c-32 14 -61 24 -92 33c34 75 109 122 209 122c117 0 195 -51 195 -152zM140 76c0 24 -17 40 -38 40c-25 0 -38 -14 -38 -40c0 -24 14 -40 38 -40c21 0 38 16 38 40z" />
    <glyph glyph-name="wowaenthai" unicode="&#xe27;" horiz-adv-x="464" 
d="M372 362v-279c0 -56 -34 -89 -88 -89c-46 0 -86 32 -86 83c0 52 38 85 84 85c12 0 23 -2 37 -8v205c0 68 -56 106 -127 106c-67 0 -124 -32 -139 -101h-50c8 88 84 149 189 149c104 0 180 -60 180 -151zM323 77c0 27 -13 40 -40 40s-40 -13 -40 -40c0 -26 13 -40 40 -40
s40 14 40 40z" />
    <glyph glyph-name="sosalathai" unicode="&#xe28;" horiz-adv-x="521" 
d="M408 556h59c0 -44 -30 -77 -76 -92c36 -31 55 -73 55 -124v-340h-53v332c0 38 -11 69 -35 92c-26 26 -63 39 -110 39c-90 0 -158 -54 -158 -127c0 -40 6 -82 18 -130c5 -22 6 -69 6 -118c4 46 8 77 17 114c14 55 27 86 41 125c15 39 45 61 84 61c51 0 85 -31 85 -80
c0 -46 -40 -79 -85 -79c-23 0 -41 7 -56 20c-13 -34 -25 -73 -39 -125c-14 -48 -23 -89 -28 -124h-60v76c0 34 -8 88 -22 162c-9 41 -13 74 -13 98c0 48 19 90 58 123c39 35 88 52 152 52c15 0 29 -2 40 -3c34 -5 52 -8 56 -8c37 0 64 22 64 56zM295 308c0 26 -13 39 -39 39
c-25 0 -40 -15 -40 -39c0 -19 18 -39 40 -39c24 0 39 18 39 39z" />
    <glyph glyph-name="sorusithai" unicode="&#xe29;" horiz-adv-x="564" 
d="M514 323l35 -35c-25 -25 -49 -43 -75 -58v-140c0 -35 -10 -59 -30 -72c-17 -12 -45 -18 -85 -18h-288v48h63v301c-14 -7 -26 -9 -38 -9c-45 0 -84 34 -84 85c0 49 40 86 87 86c54 0 87 -36 87 -92v-371h154c66 0 81 4 81 57v100c-31 -12 -62 -19 -92 -19
c-57 0 -96 33 -96 79c0 41 34 74 78 74c45 0 79 -31 79 -75l-4 -23c15 5 26 9 35 16v243h53v-212c11 10 28 23 40 35zM347 266c0 19 -14 35 -36 35c-19 0 -36 -16 -36 -35c0 -18 16 -33 36 -33s36 13 36 33zM137 425c0 27 -13 40 -39 40c-27 0 -41 -13 -41 -40
c0 -26 14 -40 41 -40c26 0 39 14 39 40z" />
    <glyph glyph-name="sosuathai" unicode="&#xe2a;" horiz-adv-x="543" 
d="M419 556h59c0 -44 -28 -74 -74 -93c32 -26 46 -61 46 -102v-361h-52l-134 259c-19 35 -37 54 -76 54c-34 0 -56 -23 -56 -57v-104c14 6 25 8 37 8c46 0 84 -34 84 -85c0 -48 -40 -83 -87 -83c-53 0 -87 33 -87 90v182c0 56 49 95 107 95c56 0 97 -24 122 -72l90 -173v243
c0 68 -61 106 -143 106c-76 0 -137 -29 -148 -88h-52c8 80 89 133 203 133c16 0 36 -1 58 -5c23 -3 36 -4 39 -4c34 0 64 26 64 57zM208 75c0 27 -14 40 -40 40c-27 0 -40 -13 -40 -40c0 -26 13 -40 40 -40c26 0 40 14 40 40z" />
    <glyph glyph-name="hohipthai" unicode="&#xe2b;" horiz-adv-x="563" 
d="M503 429c0 -34 -15 -58 -43 -72c17 -17 26 -37 26 -63v-294h-53v294c0 23 -9 40 -27 51c-47 -31 -92 -82 -136 -151c-43 -69 -70 -133 -83 -194h-52v349c-14 -7 -25 -9 -37 -9c-46 0 -84 34 -84 85c0 49 40 86 87 86c53 0 87 -36 87 -92v-203c0 -55 -2 -91 -6 -107
c4 14 7 23 10 32c9 24 17 44 27 61c20 31 42 61 64 88c28 34 54 59 79 78c-19 16 -29 37 -29 61c0 46 39 82 85 82s85 -36 85 -82zM460 431c0 21 -18 38 -42 38c-22 0 -41 -17 -41 -38c0 -24 16 -41 41 -41c21 0 42 17 42 41zM139 425c0 27 -13 40 -40 40
c-26 0 -40 -13 -40 -40c0 -26 14 -40 40 -40c27 0 40 14 40 40z" />
    <glyph glyph-name="lochulathai" unicode="&#xe2c;" horiz-adv-x="638" 
d="M542 556l47 -18c-15 -26 -31 -47 -48 -63c8 -12 11 -28 11 -50v-385c0 -27 -13 -40 -40 -40h-31l-136 308l-133 -308h-31c-27 0 -40 13 -40 40v309c-14 -7 -26 -9 -37 -9c-46 0 -85 34 -85 85c0 49 41 85 87 85c54 0 87 -35 87 -91v-253c0 -44 -1 -80 -6 -99l36 81
l98 227h48l101 -227l33 -81c0 7 -1 15 -1 25c0 11 0 22 -1 33c-1 13 -1 22 -1 29v12v258l-1 15c-25 -15 -65 -34 -109 -34c-64 0 -112 30 -112 76s58 82 119 82c47 0 88 -15 116 -45c11 9 20 22 29 38zM476 481c-18 23 -45 34 -81 34c-37 0 -67 -14 -67 -34s26 -29 63 -29
s61 13 85 29zM145 425c0 27 -14 40 -40 40c-27 0 -40 -13 -40 -40c0 -26 13 -40 40 -40c26 0 40 14 40 40z" />
    <glyph glyph-name="oangthai" unicode="&#xe2d;" horiz-adv-x="546" 
d="M452 360v-268c0 -61 -19 -92 -119 -92h-252v253c0 56 33 91 87 91c46 0 87 -34 87 -85s-38 -85 -84 -85c-12 0 -24 2 -38 9v-135h184c26 0 44 1 51 2c21 4 31 22 31 53v254c0 68 -61 106 -139 106c-71 0 -139 -31 -152 -101h-51c10 88 91 149 203 149
c111 0 192 -60 192 -151zM210 259c0 26 -14 40 -41 40c-26 0 -39 -14 -39 -40c0 -27 13 -40 39 -40c27 0 41 13 41 40z" />
    <glyph glyph-name="honokhukthai" unicode="&#xe2e;" horiz-adv-x="538" 
d="M438 519l44 -26c-6 -13 -14 -24 -22 -33c-5 -6 -14 -15 -26 -26c11 -16 17 -32 17 -60v-282c0 -61 -19 -92 -118 -92h-253v236c0 56 34 92 87 92c47 0 87 -34 87 -86c0 -51 -38 -84 -84 -84c-12 0 -23 1 -37 8v-118h183h36c8 0 13 0 16 1c20 4 31 21 31 54v267v11
c0 3 -1 5 -1 8c-3 7 -4 10 -5 12c-24 -16 -47 -27 -66 -35c-27 -11 -56 -16 -86 -16c-3 -1 -5 -1 -7 -1h-6h-15c-39 0 -69 5 -93 15c-29 12 -43 31 -43 56c0 29 16 52 50 69c33 18 72 27 116 27c66 0 119 -15 157 -45l14 15c9 12 17 21 24 33zM362 439
c-29 21 -73 32 -122 32c-59 0 -110 -19 -110 -47c0 -20 31 -29 78 -29h18c4 0 9 1 13 1c60 7 85 18 123 43zM209 242c0 27 -13 41 -40 41s-40 -14 -40 -41c0 -26 13 -39 40 -39s40 13 40 39z" />
    <glyph glyph-name="paiyannoithai" unicode="&#xe2f;" horiz-adv-x="511" 
d="M421 467v-467h-52v401c-47 -48 -113 -79 -189 -79c-75 0 -130 43 -130 104c0 44 35 80 84 80s83 -33 83 -80c0 -20 -8 -39 -25 -58c39 0 75 13 110 39s56 57 64 93h22c20 0 33 0 33 -33zM172 426c0 22 -14 38 -38 38c-26 0 -39 -12 -39 -38c0 -25 13 -37 39 -37
c25 0 38 12 38 37z" />
    <glyph glyph-name="saraathai" unicode="&#xe30;" horiz-adv-x="440" 
d="M333 500h52c0 -59 -20 -106 -59 -141c-37 -31 -79 -48 -133 -48c-90 0 -151 42 -151 110c0 46 37 80 83 80c43 0 81 -35 81 -81c0 -25 -9 -45 -28 -59c44 0 79 11 108 34c32 25 47 60 47 105zM333 188h52c0 -58 -20 -105 -59 -140c-37 -32 -79 -48 -133 -48
c-90 0 -151 41 -151 110c0 46 37 80 83 80c43 0 81 -35 81 -81c0 -25 -9 -45 -28 -59c44 0 79 11 108 34c32 25 47 60 47 104zM163 420c0 21 -17 39 -38 39c-22 0 -39 -18 -39 -39c0 -22 17 -39 39 -39c21 0 38 17 38 39zM163 109c0 21 -17 39 -38 39c-22 0 -39 -18 -39 -39
c0 -22 17 -39 39 -39c21 0 38 17 38 39z" />
    <glyph glyph-name="maihanakatthai" unicode="&#xe31;" 
d="M26 769h48c0 -56 -23 -102 -69 -137c-38 -31 -84 -46 -136 -46c-44 0 -79 8 -108 25c-32 19 -49 45 -49 80c0 44 30 75 77 75c41 0 76 -31 76 -75c0 -26 -9 -46 -27 -59c14 -2 22 -2 28 -2c42 0 79 12 110 36c33 26 50 60 50 103zM-174 689c0 20 -17 38 -37 38
s-38 -18 -38 -38s18 -37 38 -37s37 17 37 37z" />
    <glyph glyph-name="saraaathai" unicode="&#xe32;" horiz-adv-x="437" 
d="M346 360v-360h-53v357c0 71 -43 106 -114 106c-64 0 -111 -30 -127 -101h-51c10 89 79 149 178 149s167 -60 167 -151z" />
    <glyph glyph-name="saraamthai" unicode="&#xe33;" horiz-adv-x="433" 
d="M-14 667c0 -48 -37 -86 -86 -86s-86 38 -86 86c0 49 37 86 86 86s86 -37 86 -86zM345 360v-360h-52v356c0 71 -43 106 -115 106c-64 0 -111 -30 -126 -101h-51c9 90 78 149 177 149c100 0 167 -59 167 -150zM-57 667c0 25 -18 42 -43 42s-43 -17 -43 -42s18 -42 43 -42
s43 17 43 42z" />
    <glyph glyph-name="saraithai" unicode="&#xe34;" 
d="M-67 585c-86 14 -176 19 -284 19c-41 0 -85 -1 -131 -1c16 90 90 145 190 145c121 0 204 -58 225 -163zM-127 632c-31 49 -97 74 -163 74c-54 0 -107 -22 -137 -64c30 4 65 5 105 5c58 0 124 -5 195 -15z" />
    <glyph glyph-name="saraiithai" unicode="&#xe35;" 
d="M-66 785v-199c-84 14 -175 19 -282 19c-41 0 -84 -1 -131 -1c17 90 90 145 191 145c70 0 128 -19 169 -58v94h53zM-124 633c-29 49 -97 74 -162 74c-54 0 -107 -22 -138 -64c31 4 65 5 105 5c59 0 124 -5 195 -15z" />
    <glyph glyph-name="sarauethai" unicode="&#xe36;" 
d="M-34 719c0 -34 -17 -56 -50 -69c9 -15 17 -37 21 -64c-86 15 -176 20 -283 20c-41 0 -84 -1 -131 -1c17 90 91 145 190 145c37 0 70 -6 101 -18c5 37 35 61 74 61c44 0 78 -33 78 -74zM-78 721c0 19 -12 31 -31 31s-31 -12 -31 -31s12 -31 31 -31s31 12 31 31zM-122 634
c-29 49 -96 73 -163 73c-53 0 -107 -22 -137 -63c30 4 65 5 105 5c59 0 124 -5 195 -15z" />
    <glyph glyph-name="saraueethai" unicode="&#xe37;" 
d="M-60 784v-199c-84 14 -175 19 -282 19c-41 0 -84 -1 -131 -1c17 90 90 145 191 145c28 0 55 -3 80 -10v46h52v-67c7 -4 13 -8 20 -13c3 -1 9 -6 17 -14v94h53zM-118 632c-29 49 -97 74 -162 74c-54 0 -107 -22 -138 -64c31 4 65 5 105 5c59 0 124 -5 195 -15z" />
    <glyph glyph-name="sarauthai" unicode="&#xe38;" 
d="M-81 -149v-174h-53v106c-9 -4 -19 -6 -31 -6c-19 0 -35 6 -49 20c-17 16 -26 36 -26 61c0 49 36 82 78 82c46 0 81 -35 81 -89zM-129 -142c0 26 -11 38 -33 38s-33 -12 -33 -38s11 -39 33 -39s33 13 33 39z" />
    <glyph glyph-name="sarauuthai" unicode="&#xe39;" 
d="M-73 -60v-172c0 -49 -26 -67 -73 -67h-92v82c-10 -4 -20 -6 -31 -6c-20 0 -36 7 -49 20c-18 16 -26 36 -26 61c0 49 36 82 77 82c47 0 82 -34 82 -89v-105h32c18 0 27 6 27 20v174h53zM-233 -142c0 26 -11 38 -34 38c-22 0 -33 -12 -33 -38s11 -39 33 -39
c23 0 34 13 34 39z" />
    <glyph glyph-name="phinthuthai" unicode="&#xe3a;" 
d="M-81 -110c0 -29 -19 -46 -44 -46s-44 17 -44 46s19 47 44 47s44 -18 44 -47z" />
    <glyph glyph-name="bahtthai" unicode="&#xe3f;" horiz-adv-x="587" 
d="M530 168c0 -43 -11 -78 -34 -105c-35 -42 -94 -63 -178 -63h-20v-80h-31v80h-198v589h198v78h31v-78h20c57 0 100 -10 132 -30c39 -24 57 -62 57 -114c0 -65 -38 -117 -103 -132c77 -12 126 -67 126 -145zM451 432c0 73 -44 110 -133 110h-20v-210h20
c86 0 133 39 133 100zM124 332h143v210h-143v-210zM473 169c0 76 -53 114 -155 114h-20v-235h20c46 0 83 9 109 25c31 20 46 52 46 96zM124 48h143v235h-143v-235z" />
    <glyph glyph-name="saraethai" unicode="&#xe40;" horiz-adv-x="291" 
d="M261 72c0 -47 -40 -79 -84 -79c-54 0 -90 29 -90 85v422h53v-355c12 6 24 9 38 9c45 0 83 -31 83 -82zM217 72c0 26 -13 38 -40 38c-24 0 -42 -14 -42 -38c0 -21 18 -39 42 -39c21 0 40 18 40 39z" />
    <glyph glyph-name="saraaethai" unicode="&#xe41;" horiz-adv-x="536" 
d="M499 73c0 -47 -40 -79 -85 -79c-54 0 -89 29 -89 85v422h52v-355c12 6 24 9 38 9c45 0 84 -31 84 -82zM262 73c0 -47 -40 -79 -85 -79c-53 0 -89 29 -89 85v422h53v-355c11 6 24 9 38 9c45 0 83 -31 83 -82zM455 73c0 26 -14 38 -41 38c-24 0 -42 -14 -42 -38
c0 -21 18 -39 42 -39c21 0 41 18 41 39zM218 73c0 26 -13 38 -41 38c-23 0 -41 -14 -41 -38c0 -21 18 -39 41 -39c22 0 41 18 41 39z" />
    <glyph glyph-name="saraothai" unicode="&#xe42;" horiz-adv-x="347" 
d="M301 836l33 -32c-29 -24 -59 -43 -94 -43c-19 0 -49 7 -91 19c-19 7 -37 9 -51 9c-39 0 -63 -11 -74 -34c99 0 171 -49 171 -117v-493c11 7 24 10 38 10c46 0 83 -32 83 -84c0 -49 -40 -80 -86 -80c-54 0 -88 30 -88 86v553c0 35 -20 60 -62 75c-34 11 -77 18 -133 18
c20 70 79 113 144 113c21 0 48 -4 80 -13c34 -9 54 -14 65 -14c17 0 31 3 44 11c5 3 12 7 21 16zM272 71c0 24 -17 41 -41 41c-23 0 -41 -17 -41 -41c0 -21 18 -39 41 -39c22 0 41 18 41 39z" />
    <glyph glyph-name="saraaimaimuanthai" unicode="&#xe43;" horiz-adv-x="336" 
d="M321 72c0 -50 -40 -81 -86 -81c-54 0 -88 31 -88 87v518c0 23 9 48 26 75c19 26 28 51 28 72c0 42 -30 72 -84 72c-30 0 -52 -6 -65 -21l9 2c44 0 77 -31 77 -75c0 -41 -33 -75 -77 -75c-41 0 -83 36 -83 92c0 71 58 124 139 124c79 0 136 -46 136 -116
c0 -29 -8 -57 -27 -85c-18 -27 -26 -52 -26 -74v-441c11 6 24 9 37 9c46 0 84 -32 84 -83zM96 721c0 19 -15 33 -35 33c-19 0 -32 -14 -32 -33c0 -23 11 -35 32 -35c23 0 35 12 35 35zM277 72c0 24 -17 41 -41 41s-41 -17 -41 -41c0 -22 17 -39 41 -39c21 0 41 17 41 39z
" />
    <glyph glyph-name="saraaimaimalaithai" unicode="&#xe44;" horiz-adv-x="338" 
d="M319 72c0 -49 -40 -80 -86 -80c-54 0 -88 30 -88 86v559c0 22 6 43 18 61c8 15 21 27 37 38c0 14 -22 30 -42 30l-89 -68c-17 15 -31 27 -42 34c-39 24 -77 40 -121 48l51 41c28 -7 53 -18 76 -32c16 -9 28 -19 37 -29l74 54c56 0 112 -38 112 -87
c-17 -11 -30 -21 -37 -31c-14 -18 -21 -37 -21 -57v-493c11 7 24 10 37 10c47 0 84 -32 84 -84zM275 72c0 24 -17 41 -41 41s-41 -17 -41 -41c0 -21 17 -39 41 -39c22 0 41 18 41 39z" />
    <glyph glyph-name="lakkhangyaothai" unicode="&#xe45;" horiz-adv-x="432" 
d="M350 361v-545h-53v542c0 70 -43 106 -114 106c-64 0 -111 -30 -127 -102h-51c10 90 79 149 178 149s167 -59 167 -150z" />
    <glyph glyph-name="maiyamokthai" unicode="&#xe46;" horiz-adv-x="497" 
d="M415 380v-559h-53v549c0 51 -16 81 -48 91l-75 -60l-82 63c-28 -9 -47 -32 -56 -56c8 5 17 6 29 6c41 0 77 -27 77 -73s-36 -72 -77 -72c-23 0 -42 7 -57 23c-21 19 -31 45 -31 77c0 73 52 136 128 147l67 -53l70 52c32 -7 55 -19 73 -36c23 -24 35 -57 35 -99zM162 341
c0 19 -14 34 -33 34s-35 -15 -35 -34c0 -16 16 -32 35 -32s33 12 33 32z" />
    <glyph glyph-name="maitaikhuthai" unicode="&#xe47;" 
d="M-117 834h50c-9 -66 -55 -103 -126 -103l-85 3c-42 0 -69 -19 -69 -56c0 -29 19 -41 38 -45l57 61c19 -21 34 -37 48 -47c0 37 28 65 64 65c39 0 66 -26 66 -65c0 -37 -35 -67 -75 -67c-39 0 -74 18 -104 52l-42 -45h-16c-44 0 -85 33 -85 89c0 58 41 103 117 103l84 -4
c45 0 71 20 78 59zM-110 647c0 20 -10 30 -30 30s-30 -10 -30 -30s10 -30 30 -30s30 10 30 30z" />
    <glyph glyph-name="maiekthai" unicode="&#xe48;" 
d="M-67 937v-137h-53v137h53z" />
    <glyph glyph-name="maithothai" unicode="&#xe49;" 
d="M-11 963l43 -10c-12 -47 -41 -85 -85 -113c-54 -34 -119 -50 -202 -50v30c29 6 48 17 59 33c-36 0 -61 25 -61 62c0 35 30 62 66 62c39 0 69 -22 69 -63c0 -30 -17 -60 -39 -79c71 13 141 63 150 128zM-160 914c0 20 -10 30 -31 30c-20 0 -31 -10 -31 -30s11 -30 31 -30
c21 0 31 10 31 30z" />
    <glyph glyph-name="maitrithai" unicode="&#xe4a;" 
d="M33 999h39c0 -46 -11 -88 -33 -126c-19 -32 -41 -57 -65 -75l-38 12c11 32 15 46 15 71c0 30 -12 45 -34 45c-14 0 -25 -5 -31 -16c-3 -3 -5 -9 -6 -18h-36c-6 23 -21 34 -46 34c-19 0 -33 -11 -37 -26l15 3c30 0 53 -21 53 -53c0 -35 -25 -56 -54 -56
c-16 0 -30 5 -41 16c-16 14 -24 34 -24 61c0 55 38 94 87 94c16 0 29 -3 41 -11c8 -4 16 -12 24 -23c11 17 33 33 61 33c40 0 67 -30 67 -69l-2 -27c25 34 45 77 45 131zM-202 849c0 16 -8 25 -23 25c-16 0 -24 -9 -24 -25c0 -18 8 -26 24 -26c15 0 23 8 23 26z" />
    <glyph glyph-name="maichattawathai" unicode="&#xe4b;" 
d="M3 909v-36h-77v-73h-47v73h-79v36h79v74h47v-74h77z" />
    <glyph glyph-name="thanthakhatthai" unicode="&#xe4c;" 
d="M-51 1002h48c-7 -73 -83 -85 -99 -82c-8 0 -15 1 -20 1h-12c28 -7 48 -31 48 -61c0 -36 -29 -65 -66 -65c-39 0 -74 30 -74 74c0 46 31 82 80 87c24 2 45 5 63 8c16 5 32 22 32 38zM-122 859c0 20 -10 30 -30 30s-30 -10 -30 -30c0 -22 10 -32 30 -32s30 10 30 32z" />
    <glyph glyph-name="nikhahitthai" unicode="&#xe4d;" 
d="M-45 663c0 -49 -38 -87 -87 -87c-48 0 -86 38 -86 87s38 86 86 86c49 0 87 -37 87 -86zM-89 663c0 25 -18 42 -43 42s-42 -17 -42 -42s17 -43 42 -43s43 18 43 43z" />
    <glyph glyph-name="yamakkanthai" unicode="&#xe4e;" horiz-adv-x="524" 
d="M3 947c-4 1 -8 2 -10 2h-10h-17c-74 0 -143 -20 -143 -59c0 -26 30 -33 74 -33v-42c-41 0 -77 -6 -109 -17c-34 -9 -49 -25 -45 -46c2 -12 19 -17 38 -17c26 0 44 3 69 17l22 -37c-32 -15 -69 -24 -94 -24c-2 1 -5 1 -7 1h-8c-44 5 -71 30 -71 60s20 59 51 73
c10 5 35 14 50 17c-11 10 -22 29 -22 49c0 30 30 67 75 83c44 18 107 18 144 18h13v-45z" />
    <glyph glyph-name="fongmanthai" unicode="&#xe4f;" horiz-adv-x="657" 
d="M581 248c0 -71 -25 -131 -75 -181c-51 -49 -111 -74 -182 -74c-70 0 -130 25 -181 74c-50 50 -75 110 -75 181s25 131 75 181c51 50 111 75 181 75c71 0 131 -25 182 -75c50 -50 75 -110 75 -181zM544 248c0 60 -22 112 -66 154c-42 43 -93 64 -154 64
c-60 0 -111 -21 -155 -64c-42 -44 -63 -95 -63 -154c0 -60 21 -112 63 -155c44 -43 96 -64 155 -64c61 0 112 21 154 64c44 43 66 95 66 155zM481 248c0 -44 -15 -80 -47 -112c-30 -30 -66 -44 -110 -44c-43 0 -80 14 -111 44c-30 32 -45 68 -45 112c0 43 15 80 45 110
c31 31 68 46 111 46c44 0 80 -15 110 -46c31 -30 47 -66 47 -110z" />
    <glyph glyph-name="zerothai" unicode="&#xe50;" horiz-adv-x="501" 
d="M443 189c0 -55 -19 -100 -55 -137c-36 -36 -84 -54 -142 -54s-105 18 -142 54c-37 37 -54 81 -54 137c0 57 18 103 54 139c37 37 84 55 142 55s105 -19 142 -56c36 -37 55 -83 55 -138zM390 189c0 44 -14 79 -43 106c-28 28 -62 42 -101 42c-38 0 -72 -14 -101 -42
c-28 -26 -42 -62 -42 -106c0 -88 64 -149 143 -149s144 61 144 149z" />
    <glyph glyph-name="onethai" unicode="&#xe51;" horiz-adv-x="505" 
d="M453 183c0 -93 -50 -169 -127 -225l-45 25c70 44 119 115 119 195c0 94 -60 158 -150 158c-85 0 -149 -63 -149 -153c0 -84 43 -140 100 -140l13 1c-34 10 -55 39 -55 73c0 49 39 85 85 85c50 0 89 -33 89 -87c0 -69 -63 -115 -134 -115c-40 0 -75 14 -103 44
c-32 35 -48 81 -48 139s18 106 57 143c39 38 86 57 143 57c126 0 205 -80 205 -200zM284 117c0 24 -14 43 -39 43c-20 0 -39 -19 -39 -43c0 -23 18 -41 39 -41c25 0 39 17 39 41z" />
    <glyph glyph-name="twothai" unicode="&#xe52;" horiz-adv-x="663" 
d="M590 286v-286h-418c-69 0 -103 30 -103 89v329c0 46 -32 85 -86 100l41 32c66 -20 97 -69 97 -125v-312c0 -51 13 -64 69 -64h347v233c0 39 -25 58 -62 58c-35 0 -62 -24 -62 -58v-195h-53v195c0 31 -30 58 -69 58c-41 0 -69 -22 -69 -58v-48c10 5 20 6 32 6
c35 0 75 -32 75 -78c0 -47 -36 -79 -78 -79c-46 0 -81 35 -81 86v114c0 65 52 104 118 104c41 0 78 -14 99 -43c19 25 57 43 92 43c60 0 111 -36 111 -101zM284 162c0 25 -11 37 -33 37c-23 0 -34 -12 -34 -37c0 -21 15 -36 34 -36c20 0 33 14 33 36z" />
    <glyph glyph-name="threethai" unicode="&#xe53;" horiz-adv-x="580" 
d="M520 257v-257h-53v251c0 46 -26 84 -67 84c-51 0 -77 -44 -77 -85v-250h-53v251c0 46 -31 84 -83 84c-48 0 -80 -32 -80 -76v-117c12 7 24 9 36 9c44 0 81 -30 81 -79c0 -46 -38 -76 -84 -76c-53 0 -85 31 -85 85v178c0 64 55 122 131 122c51 0 89 -17 111 -53
c21 34 56 53 102 53c76 0 121 -50 121 -124zM180 72c0 24 -13 36 -38 36c-27 0 -39 -12 -39 -36c0 -23 14 -37 39 -37s38 12 38 37z" />
    <glyph glyph-name="fourthai" unicode="&#xe54;" horiz-adv-x="532" 
d="M445 542h53c0 -122 -85 -197 -224 -197c-122 0 -190 -44 -190 -154c0 -90 53 -145 130 -145c34 0 63 4 93 14c-16 14 -30 28 -40 47c-12 22 -18 45 -18 70c0 52 36 88 84 88c47 0 77 -31 77 -78c0 -38 -28 -74 -77 -74h-11c14 -19 41 -33 82 -44c40 -8 69 -20 86 -36
l-33 -33c-28 14 -53 25 -92 25c-5 0 -33 -6 -85 -18c-27 -4 -52 -7 -78 -7c-99 0 -171 72 -171 188c0 72 23 124 67 158c40 29 96 44 167 44c56 0 98 11 130 32c34 25 51 59 51 104c0 4 -1 7 -1 9v7zM366 187c0 25 -11 37 -34 37c-22 0 -33 -12 -33 -37c0 -19 12 -33 33 -33
c19 0 34 14 34 33z" />
    <glyph glyph-name="fivethai" unicode="&#xe55;" horiz-adv-x="535" 
d="M452 543h53c0 -122 -85 -197 -224 -197c-122 0 -190 -44 -190 -154c0 -90 53 -145 130 -145c34 0 63 4 93 14c-16 14 -30 28 -40 47c-12 22 -18 45 -18 70c0 52 36 88 84 88c47 0 77 -31 77 -78c0 -38 -28 -74 -77 -74h-11c14 -19 41 -33 82 -44c40 -8 69 -20 86 -36
l-33 -33c-28 14 -53 25 -92 25c-5 0 -33 -6 -85 -18c-27 -4 -52 -7 -78 -7c-99 0 -171 72 -171 188c0 113 54 173 145 193c-10 11 -20 31 -20 55c0 52 41 89 96 89c56 0 97 -37 97 -89c0 -14 -4 -27 -11 -39c72 19 107 67 107 145zM307 437c0 26 -22 45 -48 45
c-28 0 -47 -16 -47 -45s15 -44 47 -44c26 0 48 15 48 44zM373 188c0 25 -11 37 -34 37c-22 0 -33 -12 -33 -37c0 -19 12 -33 33 -33c19 0 34 14 34 33z" />
    <glyph glyph-name="sixthai" unicode="&#xe56;" horiz-adv-x="516" 
d="M479 197c0 -54 -19 -100 -57 -139c-36 -38 -83 -57 -142 -57c-100 0 -176 44 -176 119c0 44 36 77 81 77s81 -33 81 -77c0 -29 -13 -51 -39 -67c21 -7 36 -6 52 -6c39 0 74 13 103 42c29 28 45 64 45 107c0 40 -13 74 -38 100c-28 29 -64 44 -110 44
c-50 0 -106 -21 -131 -55l-44 4c0 33 -7 68 -22 105c-19 54 -50 94 -92 129l44 27c37 -30 66 -69 88 -115c14 -29 22 -59 26 -89c35 25 76 42 132 42c63 0 113 -20 149 -58c34 -35 50 -79 50 -133zM223 120c0 20 -17 36 -38 36c-20 0 -37 -15 -37 -36c0 -20 16 -36 37 -36
c20 0 38 14 38 36z" />
    <glyph glyph-name="seventhai" unicode="&#xe57;" horiz-adv-x="574" 
d="M638 341c0 -138 -41 -247 -137 -335h-47v255c0 48 -26 84 -67 84c-52 0 -78 -45 -78 -86v-253h-52v255c0 46 -33 84 -83 84s-80 -33 -80 -77v-117c14 5 25 7 35 7c45 0 81 -30 81 -79s-37 -78 -83 -78c-57 0 -86 28 -86 83v188c0 66 56 120 132 120c51 0 89 -17 110 -54
c21 34 56 54 103 54c75 0 120 -50 120 -125v-186c51 70 82 174 82 255c0 76 -10 141 -44 210h53c26 -52 41 -124 41 -205zM166 79c0 22 -14 38 -38 38c-26 0 -39 -13 -39 -38c0 -23 14 -37 39 -37c26 0 38 12 38 37z" />
    <glyph glyph-name="eightthai" unicode="&#xe58;" horiz-adv-x="532" 
d="M475 543h53c0 -122 -85 -197 -224 -197c-61 0 -108 -10 -138 -31c-35 -24 -52 -65 -52 -123c0 -86 32 -144 62 -144c15 0 38 19 68 57c13 15 25 33 38 53c13 -26 25 -49 38 -65c23 -31 48 -46 75 -46c16 0 31 11 40 30l-17 -1c-45 0 -76 37 -76 74c0 43 32 75 81 75
c46 0 81 -32 81 -86c0 -34 -9 -64 -28 -92c-20 -30 -47 -46 -78 -46c-28 0 -53 9 -77 26c-18 14 -33 31 -44 49c-20 -26 -39 -46 -58 -61c-16 -9 -31 -14 -44 -14c-61 0 -114 73 -114 188c0 74 23 128 67 160c39 28 94 42 167 42c56 0 98 11 130 32c34 25 51 59 51 104
c0 4 -1 7 -1 9v7zM454 151c0 20 -14 36 -34 36s-34 -16 -34 -36s14 -37 34 -37s34 17 34 37z" />
    <glyph glyph-name="ninethai" unicode="&#xe59;" horiz-adv-x="572" 
d="M581 543h53c0 -42 -10 -89 -29 -139c-21 -55 -44 -82 -67 -82c-21 0 -40 8 -56 25c-17 18 -31 26 -44 26c-29 0 -44 -25 -44 -75c0 -49 26 -128 57 -184c25 -42 52 -70 83 -82l-42 -31c-31 11 -60 43 -89 96c-19 34 -39 83 -60 147c-20 61 -64 96 -125 96
c-69 0 -122 -56 -122 -141c0 -96 50 -153 109 -153c21 0 35 7 46 21l-16 -1c-46 0 -76 37 -76 73c0 47 31 78 80 78c46 0 81 -36 81 -87c0 -77 -52 -129 -118 -129c-42 0 -77 14 -105 42c-37 37 -54 87 -54 156c0 116 74 191 175 191c59 0 98 -18 132 -62c5 49 37 95 87 95
c21 0 41 -8 58 -26c19 -17 31 -25 35 -25c11 0 23 18 34 55c12 36 17 74 17 116zM270 141c0 20 -13 36 -33 36c-21 0 -34 -16 -34 -36c0 -23 11 -34 34 -34c22 0 33 11 33 34z" />
    <glyph glyph-name="angkhankhuthai" unicode="&#xe5a;" horiz-adv-x="579" 
d="M410 468v-467h-53v401c-22 -22 -50 -42 -84 -58c-32 -14 -66 -21 -105 -21c-75 0 -130 43 -130 104c0 44 36 80 84 80c46 0 84 -34 84 -80c0 -20 -8 -39 -25 -58c37 0 74 13 109 38c36 26 57 57 65 94h22c20 0 33 -2 33 -33zM161 427c0 21 -15 38 -39 38
c-26 0 -39 -12 -39 -38c0 -23 13 -32 39 -37c26 0 39 12 39 37zM525 501v-500h-53v500h53z" />
    <glyph glyph-name="khomutthai" unicode="&#xe5b;" horiz-adv-x="927" 
d="M848 219c0 -9 -13 -12 -27 -14l-68 -7c-7 -16 -8 -22 -13 -30c-2 -4 -6 -6 -13 -6c-6 0 -12 6 -20 19l-19 37c-14 -57 -20 -71 -34 -71c-13 0 -33 45 -49 80c-5 -31 -9 -52 -13 -60c-6 -21 -14 -32 -24 -32c-7 0 -16 12 -25 36c-14 39 -23 59 -26 65
c-7 -59 -27 -118 -49 -118c-11 0 -18 9 -22 28c-8 37 -11 59 -24 91c-13 -73 -36 -129 -72 -168c-41 -45 -87 -68 -138 -68c-96 0 -161 81 -161 206c0 59 14 109 41 149c29 41 65 60 106 60c72 0 125 -64 125 -150c0 -67 -31 -114 -77 -114c-39 0 -69 34 -69 78
c0 39 31 77 68 77l23 -4c-11 45 -34 68 -68 68c-57 0 -102 -68 -102 -169c0 -96 50 -158 122 -158c80 0 148 88 166 227c5 34 11 45 27 45c20 0 47 -54 63 -120c4 25 7 48 11 72s11 36 21 36c17 0 44 -43 60 -98c5 40 14 75 25 75c19 0 39 -27 61 -83c7 28 11 42 11 43
c6 15 13 22 21 22c7 0 14 -5 21 -16c5 -7 9 -17 19 -34c5 19 14 28 28 28l68 -9c18 -1 26 -5 26 -13zM275 230c0 26 -10 39 -30 39c-16 0 -30 -18 -30 -39c0 -22 13 -39 30 -39c16 0 30 17 30 39z" />
    <glyph glyph-name="saraulowthai" unicode="&#xf718;" 
d="M-81 -337v-174h-53v106c-9 -4 -19 -6 -31 -6c-19 0 -35 6 -49 20c-17 16 -26 36 -26 61c0 49 36 82 78 82c46 0 81 -35 81 -89zM-129 -330c0 26 -11 38 -33 38s-33 -12 -33 -38s11 -39 33 -39s33 13 33 39z" />
    <glyph glyph-name="sarauulowthai" unicode="&#xf719;" 
d="M-73 -249v-172c0 -49 -26 -67 -73 -67h-92v82c-10 -4 -20 -6 -31 -6c-20 0 -36 7 -49 20c-18 16 -26 36 -26 61c0 49 36 82 77 82c47 0 82 -34 82 -89v-105h32c18 0 27 6 27 20v174h53zM-233 -331c0 26 -11 38 -34 38c-22 0 -33 -12 -33 -38s11 -39 33 -39
c23 0 34 13 34 39z" />
    <glyph glyph-name="phinthulowthai" unicode="&#xf71a;" 
d="M-81 -291c0 -29 -19 -46 -44 -46s-44 17 -44 46s19 47 44 47s44 -18 44 -47z" />
    <glyph glyph-name="lochula.short" unicode="&#xf71d;" horiz-adv-x="627" 
d="M542 556l47 -18c-15 -26 -31 -47 -48 -63c8 -12 11 -28 11 -50v-385c0 -27 -13 -40 -40 -40h-31l-136 308l-133 -308h-31c-27 0 -40 13 -40 40v309c-14 -7 -26 -9 -37 -9c-46 0 -85 34 -85 85c0 49 41 85 87 85c54 0 87 -35 87 -91v-253c0 -44 -1 -80 -6 -99l36 81
l98 227h48l101 -227l33 -81c0 7 -1 15 -1 25c0 11 0 22 -1 33c-1 13 -1 22 -1 29v12v258l-1 15c-25 -15 -65 -34 -109 -34c-64 0 -112 30 -112 76s58 82 119 82c47 0 88 -15 116 -45c11 9 20 22 29 38zM476 481c-18 23 -45 34 -81 34c-37 0 -67 -14 -67 -34s26 -29 63 -29
s61 13 85 29zM145 425c0 27 -14 40 -40 40c-27 0 -40 -13 -40 -40c0 -26 13 -40 40 -40c26 0 40 14 40 40z" />
    <glyph glyph-name="saraamleft" horiz-adv-x="350" 
d="M348 359v-360h-52v356c0 71 -44 106 -115 106c-64 0 -111 -30 -126 -101h-52c10 90 79 149 178 149c100 0 167 -59 167 -150zM-125 666c0 -49 -37 -86 -86 -86s-86 37 -86 86s37 86 86 86s86 -37 86 -86zM-169 666c0 25 -17 42 -42 42s-42 -17 -42 -42s17 -42 42 -42
s42 17 42 42z" />
    <glyph glyph-name="yamakkanleftthai" horiz-adv-x="524" 
 />
    <glyph glyph-name="Typomancer" horiz-adv-x="607" 
 />
    <glyph glyph-name="exclamdown" unicode="&#xa1;" horiz-adv-x="191" 
d="M129 163v-152c0 -18 -15 -33 -33 -33s-33 15 -33 33v152l19 258c0 8 6 13 15 13c7 0 12 -6 13 -14zM133 542c0 -21 -17 -37 -37 -37c-21 0 -38 16 -38 37s17 37 38 37c20 0 37 -16 37 -37z" />
    <glyph glyph-name="cent" unicode="&#xa2;" horiz-adv-x="387" 
d="M217 -1v-54c0 -11 -8 -18 -18 -18s-18 7 -18 18v55c-116 15 -136 116 -136 219c0 99 20 214 136 230v57c0 11 8 18 18 18s18 -7 18 -18v-56c71 -7 114 -60 122 -117c-1 -13 -9 -26 -21 -28c-15 -2 -28 7 -29 21c-4 38 -23 73 -72 82v-364c54 11 70 52 75 96
c0 14 14 23 28 22c12 -2 21 -17 22 -29c-8 -58 -46 -126 -125 -134zM103 220v-14c0 -53 6 -140 78 -161v361c-75 -27 -78 -124 -78 -186z" />
    <glyph glyph-name="sterling" unicode="&#xa3;" horiz-adv-x="404" 
d="M41 49c47 38 80 83 80 148c0 27 -9 53 -20 80h-71c-16 0 -15 23 0 23h60c-29 49 -49 95 -49 143c0 101 73 155 175 155c94 0 155 -57 163 -143c-1 -15 -11 -30 -26 -32c-16 -1 -31 11 -32 27c-4 59 -43 99 -110 99c-75 0 -109 -48 -109 -114c0 -46 24 -94 47 -135h127
c15 0 13 -23 0 -23h-117c10 -22 18 -45 18 -65c0 -65 -45 -122 -95 -160l6 -10c28 17 60 26 91 26c11 0 22 -1 59 -10v0c21 -5 43 -11 67 -11c16 0 33 3 50 11c13 7 26 1 33 -10v0c6 -14 0 -26 -11 -34c-21 -13 -43 -17 -73 -17c-26 0 -54 7 -81 15c-26 7 -50 15 -75 15
c-31 0 -53 -8 -77 -20c-12 -10 -29 -6 -37 6c-9 12 -2 28 7 36z" />
    <glyph glyph-name="Euro" unicode="&#x20ac;" horiz-adv-x="506" 
d="M91 245h-51c-9 0 -17 7 -17 16s8 16 17 16h50c0 9 -1 25 -1 34c0 13 0 31 1 44h-50c-9 0 -17 7 -17 16s8 16 17 16h53c11 115 52 226 195 226c99 0 163 -72 174 -154c-1 -14 -10 -31 -25 -33v1c-15 -1 -27 10 -31 24c-9 60 -44 113 -123 113c-89 0 -119 -93 -128 -177
h143c8 0 15 -7 15 -16s-7 -16 -15 -16h-146c-1 -16 -1 -36 -1 -50v-28h147c8 0 15 -7 15 -16s-7 -16 -15 -16h-146c5 -92 27 -195 131 -195c86 0 119 73 123 150c2 15 14 28 29 27c17 -1 28 -15 28 -31c-7 -101 -60 -196 -175 -196c-159 0 -191 122 -197 245z" />
    <glyph glyph-name="yen" unicode="&#xa5;" horiz-adv-x="462" 
d="M433 564l-174 -333h111c7 0 14 -7 14 -15s-7 -14 -14 -14h-109v-69h109c7 0 14 -6 14 -14s-7 -15 -14 -15h-109v-74c0 -18 -13 -29 -29 -29s-29 11 -29 29v74h-108c-8 0 -14 7 -14 15s6 14 14 14h108v69h-108c-8 0 -14 6 -14 14s6 15 14 15h111l-174 333
c-7 15 0 30 13 37c15 7 30 1 37 -12l150 -302l52 104l99 198c8 14 24 18 37 12c15 -8 19 -24 13 -37z" />
    <glyph glyph-name="section" unicode="&#xa7;" horiz-adv-x="423" 
d="M387 347c0 -89 -57 -136 -163 -136c92 -14 141 -55 141 -124c0 -111 -82 -144 -178 -144c-56 0 -115 10 -164 23l6 47c43 -13 102 -28 159 -28c70 0 132 23 132 102c0 124 -287 70 -287 247c0 86 68 117 179 117c-89 18 -157 61 -157 143c0 92 78 123 163 123
c56 0 115 -12 156 -25l-6 -39c-35 10 -87 22 -144 22c-64 0 -124 -21 -124 -81c0 -142 287 -77 287 -247zM342 347c0 56 -61 68 -132 68c-85 0 -132 -27 -132 -81c0 -69 63 -89 132 -89c70 0 132 23 132 102z" />
    <glyph glyph-name="ordfeminine" unicode="&#xaa;" horiz-adv-x="288" 
d="M217 400l-3 40c-25 -25 -57 -44 -97 -44c-54 0 -90 38 -90 86c0 52 36 94 109 99l78 5v24c0 54 -31 69 -68 69c-33 0 -71 -14 -98 -29l-3 41c29 15 67 26 102 26c56 0 107 -27 107 -106v-211h-37zM214 551l-68 -5c-62 -5 -77 -29 -77 -63c0 -31 15 -49 50 -49
c42 0 75 24 95 45v72z" />
    <glyph glyph-name="guillemotleft" unicode="&#xab;" horiz-adv-x="335" 
d="M285 178v-55l-110 103v51l110 103v-55l-78 -74zM151 178v-55l-109 103v51l109 103v-55l-78 -74z" />
    <glyph glyph-name="guillemotright" unicode="&#xbb;" horiz-adv-x="338" 
d="M57 93l78 73l-78 74v55l110 -103v-51l-110 -103v55zM191 93l78 73l-78 74v55l109 -103v-51l-109 -103v55z" />
    <glyph glyph-name="logicalnot" unicode="&#xac;" horiz-adv-x="499" 
d="M455 328v-163h-50v108h-369v55h419z" />
    <glyph glyph-name="uni00AD" unicode="&#xad;" horiz-adv-x="449" 
d="M415 271v-44h-387v44h387z" />
    <glyph glyph-name="degree" unicode="&#xb0;" horiz-adv-x="325" 
d="M157 717c70 0 125 -55 125 -123c0 -69 -55 -124 -125 -124c-66 0 -122 54 -122 124c0 66 54 123 122 123zM157 682c-51 0 -89 -38 -89 -88c0 -49 40 -91 89 -91c25 0 46 9 64 27c18 19 27 40 27 64c0 49 -41 88 -91 88z" />
    <glyph glyph-name="macron" unicode="&#xaf;" horiz-adv-x="335" 
d="M30 627h274v-42h-274v42z" />
    <glyph glyph-name="plusminus" unicode="&#xb1;" horiz-adv-x="410" 
d="M228 225v-116c0 -13 -10 -24 -23 -24s-24 11 -24 24v116h-129c-13 0 -22 10 -22 22c0 13 9 22 22 22h129v116c0 12 10 24 24 24c13 0 23 -11 23 -24v-116h129c12 0 22 -10 22 -22c0 -13 -10 -22 -22 -22h-129zM52 44h305c12 0 22 -10 22 -22c0 -13 -10 -22 -22 -22h-305
c-13 0 -22 10 -22 22c0 13 9 22 22 22z" />
    <glyph glyph-name="twosuperior" unicode="&#xb2;" horiz-adv-x="269" 
d="M82 578h151v-38h-200v44c90 73 145 120 145 184c0 40 -26 51 -57 51c-27 0 -57 -11 -80 -24l-2 40c25 14 56 22 85 22c50 0 94 -28 94 -89c0 -63 -53 -123 -136 -190z" />
    <glyph glyph-name="threesuperior" unicode="&#xb3;" horiz-adv-x="269" 
d="M34 559l4 39c29 -16 60 -25 89 -25c47 0 68 21 68 53c0 33 -22 56 -75 56h-44v38h44c45 0 68 19 68 54c0 27 -17 45 -58 45c-29 0 -60 -10 -80 -19l-3 39c23 9 52 18 84 18c65 0 97 -33 97 -78c0 -33 -12 -60 -52 -78c43 -17 59 -43 59 -77c0 -52 -40 -89 -109 -89
c-38 0 -64 8 -92 24z" />
    <glyph glyph-name="mu" unicode="&#xb5;" horiz-adv-x="469" 
d="M59 -200v700h45v-375c0 -60 27 -90 80 -90c67 0 139 53 181 106v359h45v-500h-40l-5 90c-43 -53 -113 -97 -177 -97c-37 0 -59 10 -84 33v-226h-45z" />
    <glyph glyph-name="paragraph" unicode="&#xb6;" horiz-adv-x="456" 
d="M387 687v-828h-38v828h-88v-828h-34v491c-68 0 -122 13 -160 38c-42 30 -64 78 -64 144c0 62 19 108 58 139c36 27 87 41 151 41h238v-25h-63z" />
    <glyph glyph-name="periodcentered" unicode="&#xb7;" horiz-adv-x="196" 
d="M54 300c0 24 20 44 44 44s44 -20 44 -44s-20 -44 -44 -44s-44 20 -44 44z" />
    <glyph glyph-name="onesuperior" unicode="&#xb9;" horiz-adv-x="242" 
d="M129 284v348l-79 -69v48l80 70h35v-397h-36z" />
    <glyph glyph-name="ordmasculine" unicode="&#xba;" horiz-adv-x="318" 
d="M159 434c69 0 89 49 89 109v27c0 60 -20 109 -89 109s-89 -49 -89 -109v-27c0 -60 20 -109 89 -109zM159 396c-95 0 -129 70 -129 145v31c0 75 34 145 129 145s129 -70 129 -145v-31c0 -75 -34 -145 -129 -145z" />
    <glyph glyph-name="OE" unicode="&#x152;" horiz-adv-x="904" 
d="M458 42v626c-43 0 -103 7 -142 7c-151 0 -233 -128 -233 -288v-64c0 -160 82 -288 233 -288c39 0 99 7 142 7zM863 0h-405c-43 0 -103 -7 -142 -7c-173 0 -278 131 -278 333v58c0 202 105 333 278 333c39 0 99 -7 142 -7h391v-42h-346v-291h303v-42h-303v-293h360v-42z
" />
    <glyph glyph-name="oe" unicode="&#x153;" horiz-adv-x="735" 
d="M691 219h-325c5 -118 62 -184 171 -184c38 0 76 12 123 33l6 -43c-45 -22 -89 -32 -129 -32c-61 0 -109 17 -144 48c-33 -30 -80 -48 -143 -48c-160 0 -211 113 -211 238v38c0 125 51 238 211 238c66 0 114 -20 147 -52c36 35 81 52 129 52c90 0 175 -70 175 -208
c0 -25 -3 -52 -10 -80zM250 35c49 0 86 15 113 40c-28 41 -42 96 -42 161c0 78 18 139 47 183c-26 29 -65 46 -118 46c-120 0 -166 -85 -166 -200v-30c0 -115 46 -200 166 -200zM525 465c-80 0 -151 -69 -159 -204h287c2 13 3 26 3 38c0 109 -63 166 -131 166z" />
    <glyph glyph-name="questiondown" unicode="&#xbf;" horiz-adv-x="433" 
d="M217 405h45v-16c0 -202 -168 -238 -168 -380c0 -93 60 -121 131 -121c50 0 106 14 150 28l9 -41c-49 -17 -107 -29 -159 -29c-96 0 -176 41 -176 163c0 162 168 191 168 375v21zM283 525c0 -25 -20 -45 -45 -45s-45 20 -45 45s20 45 45 45s45 -20 45 -45z" />
    <glyph glyph-name="AE" unicode="&#xc6;" horiz-adv-x="848" 
d="M793 668h-335l11 -291h281v-42h-280l11 -293h326v-42h-371l-8 241h-277l-90 -241h-42l267 710h507v-42zM312 668l-145 -385h259l-13 385h-101z" />
    <glyph glyph-name="Thorn" unicode="&#xde;" horiz-adv-x="509" 
d="M64 0v710h45v-136c36 7 71 11 103 11c162 0 264 -78 264 -214c0 -115 -74 -207 -229 -207h-138v-164h-45zM109 529v-323h138c116 0 184 63 184 165c0 133 -113 172 -220 172c-36 0 -72 -5 -102 -14z" />
    <glyph glyph-name="Oslash" unicode="&#xd8;" horiz-adv-x="636" 
d="M316 -7c-38 0 -72 6 -103 17l-39 -110h-41l45 127c-90 51 -142 158 -142 299v58c0 202 107 333 280 333c38 0 73 -6 104 -18l40 111h41l-46 -128c89 -52 141 -158 141 -298v-58c0 -202 -107 -333 -280 -333zM316 675c-151 0 -235 -128 -235 -288v-64
c0 -110 39 -205 113 -253l211 587c-27 11 -56 18 -89 18zM551 387c0 109 -39 203 -112 252l-211 -587c26 -11 55 -17 88 -17c151 0 235 128 235 288v64z" />
    <glyph glyph-name="germandbls" unicode="&#xdf;" horiz-adv-x="464" 
d="M374 692l-123 -302c105 -61 179 -110 179 -241c0 -103 -50 -156 -134 -156c-37 0 -78 9 -113 23l6 47c32 -17 69 -28 102 -28c56 0 94 34 94 114c0 104 -56 138 -175 215v40l109 268c-37 16 -75 26 -109 26c-60 0 -106 -32 -106 -118v-580h-45v585c0 109 66 155 151 155
c51 0 110 -17 164 -48z" />
    <glyph glyph-name="ae" unicode="&#xe6;" horiz-adv-x="734" 
d="M690 219h-325c5 -118 62 -184 171 -184c38 0 76 12 123 33l6 -43c-45 -22 -89 -32 -129 -32c-78 0 -135 28 -171 77c-57 -46 -125 -77 -193 -77c-81 0 -138 40 -138 137c0 77 50 145 167 153l122 8c5 35 13 65 25 92c-20 60 -77 82 -139 82c-48 0 -100 -13 -140 -31
l-5 43c46 18 98 30 147 30c65 0 125 -22 164 -77c38 51 92 77 150 77c90 0 175 -70 175 -208c0 -25 -3 -52 -10 -80zM524 465c-80 0 -151 -69 -159 -204h287c2 13 3 26 3 38c0 109 -63 166 -131 166zM175 35c64 0 128 34 172 66c-18 37 -27 83 -27 135v13l-118 -8
c-87 -6 -123 -55 -123 -110c0 -70 38 -96 96 -96z" />
    <glyph glyph-name="eth" unicode="&#xf0;" horiz-adv-x="455" 
d="M375 737l-61 -68c62 -52 82 -139 82 -252v-365c-63 -38 -127 -59 -186 -59c-104 0 -167 62 -167 218v75c0 144 63 221 160 221c57 0 107 -24 148 -80c0 94 -16 164 -67 208l-45 -50h-56l66 74c-23 11 -50 20 -82 26l31 32c31 -5 58 -14 80 -25l41 45h56zM351 75v297
c-41 56 -95 93 -146 93c-76 0 -117 -57 -117 -180v-74c0 -128 40 -176 122 -176c43 0 90 14 141 40z" />
    <glyph glyph-name="oslash" unicode="&#xf8;" horiz-adv-x="500" 
d="M250 -7c-26 0 -48 3 -69 8l-36 -101h-41l41 114c-80 39 -108 125 -108 217v38c0 125 53 238 213 238c25 0 48 -3 68 -9l38 104h41l-42 -117c79 -38 108 -124 108 -216v-38c0 -125 -53 -238 -213 -238zM82 235c0 -80 23 -146 78 -178l144 401c-16 4 -34 7 -54 7
c-120 0 -168 -85 -168 -200v-30zM250 35c120 0 168 85 168 200v30c0 80 -24 145 -78 178l-144 -401c16 -5 34 -7 54 -7z" />
    <glyph glyph-name="thorn" unicode="&#xfe;" horiz-adv-x="477" 
d="M59 -200v933h45v-306c45 56 100 80 152 80c93 0 177 -77 177 -221v-71c0 -161 -85 -222 -195 -222c-43 0 -88 9 -134 26v-219h-45zM104 374v-309c47 -19 93 -30 134 -30c91 0 150 51 150 180v70c0 123 -62 180 -134 180c-51 0 -108 -30 -150 -91z" />
    <glyph glyph-name="brokenbar" unicode="&#xa6;" horiz-adv-x="175" 
d="M110 760v-383h-45v383h45zM110 283v-383h-45v383h45z" />
    <glyph glyph-name="dieresis" unicode="&#xa8;" horiz-adv-x="324" 
d="M29 642c0 23 18 41 41 41s41 -18 41 -41s-18 -41 -41 -41s-41 18 -41 41zM213 642c0 23 18 41 41 41s41 -18 41 -41s-18 -41 -41 -41s-41 18 -41 41z" />
    <glyph glyph-name="acute" unicode="&#xb4;" horiz-adv-x="156" 
d="M147 710l-93 -125h-46l79 125h60z" />
    <glyph glyph-name="cedilla" unicode="&#xb8;" horiz-adv-x="170" 
d="M51 -80l16 80h40l-8 -40c38 -1 57 -24 57 -62c0 -41 -23 -75 -78 -75c-21 0 -46 5 -65 12l9 42c21 -8 39 -12 56 -12c28 0 38 13 38 32c0 14 -8 23 -25 23h-40z" />
    <glyph glyph-name="onequarter" unicode="&#xbc;" horiz-adv-x="601" 
d="M510 84h33c18 0 18 -30 0 -30h-33v-40c0 -8 -7 -15 -15 -15s-14 7 -14 15v40h-128c-12 0 -18 12 -14 21l124 255c3 8 12 11 19 7c8 -3 11 -12 7 -20l-113 -233h105v104c0 8 6 15 14 15s15 -7 15 -15v-104zM453 541c0 -1 -1 -3 -327 -529c-14 -21 -42 -4 -29 18l327 527
c17 17 38 0 29 -16zM142 550v-306c0 -8 -7 -15 -15 -15s-15 7 -15 15v273l-52 -45c-7 -6 -16 -5 -21 1c-6 6 -5 15 1 21l77 67c10 8 25 1 25 -11z" />
    <glyph glyph-name="onehalf" unicode="&#xbd;" horiz-adv-x="578" 
d="M442 558c8 -5 11 -17 5 -23l-325 -524c-15 -24 -42 -4 -28 18l325 524c6 8 18 10 23 5zM385 29h133c8 0 14 -5 14 -14c0 -8 -6 -15 -14 -15h-165c-5 0 -11 3 -13 9c-2 5 -1 11 2 15c1 2 104 125 129 154c16 21 29 46 29 62c0 35 -24 64 -61 64c-34 0 -62 -27 -62 -61
c0 -8 -6 -14 -14 -14s-15 6 -15 14c0 50 41 90 91 90c49 0 90 -40 90 -90c0 -30 -19 -63 -36 -83c-18 -22 -77 -93 -108 -131zM139 549v-306c0 -8 -7 -14 -15 -14s-15 6 -15 14v274l-52 -46c-7 -5 -16 -5 -21 1c-6 6 -5 15 1 21l77 67c9 9 25 0 25 -11z" />
    <glyph glyph-name="threequarters" unicode="&#xbe;" horiz-adv-x="590" 
d="M519 84h32c8 0 15 -7 15 -15s-7 -15 -15 -15h-32v-39c0 -9 -7 -15 -15 -15c-9 0 -15 6 -15 15v39h-128c-11 0 -19 13 -13 21l123 256c3 7 12 10 20 7c7 -4 10 -13 6 -20l-113 -234h105v105c0 8 6 14 15 14c8 0 15 -6 15 -14v-105zM462 541c-1 -1 -1 -3 -328 -528
c-14 -25 -44 -8 -29 17l327 527c11 15 39 3 30 -16zM176 410c27 -17 45 -46 45 -80c0 -52 -42 -94 -94 -94c-51 0 -94 42 -94 94c0 7 6 14 14 14s15 -7 15 -14c0 -36 29 -66 65 -66c37 0 66 30 66 66s-29 65 -66 65c-7 0 -14 6 -14 15c0 7 7 13 14 13c32 0 58 26 58 58
s-26 57 -58 57c-31 0 -57 -25 -57 -57c0 -8 -6 -14 -15 -14c-7 0 -13 6 -13 14c0 48 38 86 85 86c48 0 86 -38 86 -86c0 -29 -15 -55 -37 -71z" />
    <glyph glyph-name="circumflex" unicode="&#x2c6;" horiz-adv-x="233" 
d="M116 667l-64 -82h-52l97 125h38l97 -125h-52z" />
    <glyph glyph-name="caron" unicode="&#x2c7;" horiz-adv-x="232" 
d="M52 710l64 -82l64 82h52l-97 -125h-38l-97 125h52z" />
    <glyph glyph-name="breve" unicode="&#x2d8;" horiz-adv-x="241" 
d="M23 658v52h42v-49c0 -25 23 -36 52 -36c20 0 38 5 54 12v73h42v-95c-34 -20 -63 -30 -97 -30c-49 0 -93 23 -93 73z" />
    <glyph glyph-name="dotaccent" unicode="&#x2d9;" horiz-adv-x="140" 
d="M29 642c0 23 18 41 41 41s41 -18 41 -41s-18 -41 -41 -41s-41 18 -41 41z" />
    <glyph glyph-name="ring" unicode="&#x2da;" horiz-adv-x="193" 
d="M28 648c0 41 28 69 68 69c41 0 69 -28 69 -69c0 -40 -28 -68 -69 -68c-40 0 -68 28 -68 68zM64 648c0 -21 11 -32 32 -32c22 0 33 11 33 32c0 22 -11 33 -33 33c-21 0 -32 -11 -32 -33z" />
    <glyph glyph-name="ogonek" unicode="&#x2db;" horiz-adv-x="158" 
d="M89 0h40c-41 -29 -71 -58 -71 -97c0 -25 14 -40 40 -40c11 0 24 3 38 9l6 -39c-17 -7 -30 -10 -46 -10c-44 0 -79 27 -79 76c0 48 33 78 72 101z" />
    <glyph glyph-name="tilde" unicode="&#x2dc;" horiz-adv-x="295" 
d="M204 639c15 0 30 14 34 45l43 -11c-9 -46 -40 -76 -78 -76c-47 0 -80 49 -111 49c-16 0 -31 -14 -35 -45l-43 11c9 46 40 76 78 76c46 0 76 -49 112 -49z" />
    <glyph glyph-name="hungarumlaut" unicode="&#x2dd;" horiz-adv-x="258" 
d="M147 710l-93 -125h-46l79 125h60zM251 710l-93 -125h-46l79 125h60z" />
    <glyph glyph-name="pi" unicode="&#x3c0;" horiz-adv-x="544" 
d="M158 0h-45v458h-80v42h474v-42h-80v-364c0 -42 17 -59 43 -59c16 0 34 6 54 17l3 -41c-20 -12 -41 -18 -60 -18c-49 0 -85 36 -85 100v365h-224v-458z" />
    <glyph glyph-name="quotesinglbase" unicode="&#x201a;" horiz-adv-x="143" 
d="M118 41c0 -49 -20 -91 -59 -119l-28 18c24 17 45 44 45 62l-5 -2c-26 0 -47 17 -47 49c0 26 21 48 47 48s47 -20 47 -56z" />
    <glyph glyph-name="quotedblbase" unicode="&#x201e;" horiz-adv-x="263" 
d="M119 41c0 -49 -20 -91 -59 -119l-28 18c24 17 45 44 45 62l-5 -2c-26 0 -47 17 -47 49c0 26 21 48 47 48s47 -20 47 -56zM234 41c0 -49 -20 -91 -59 -119l-28 18c24 17 45 44 45 62l-5 -2c-26 0 -47 17 -47 49c0 26 21 48 47 48s47 -20 47 -56z" />
    <glyph glyph-name="dagger" unicode="&#x2020;" horiz-adv-x="310" 
d="M21 500h111v210h45v-210h111v-42h-111v-558h-45v558h-111v42z" />
    <glyph glyph-name="daggerdbl" unicode="&#x2021;" horiz-adv-x="310" 
d="M21 152h111v306h-111v42h111v210h45v-210h111v-42h-111v-306h111v-42h-111v-210h-45v210h-111v42z" />
    <glyph glyph-name="guilsinglleft" unicode="&#x2039;" horiz-adv-x="400" 
d="M44 221l307 161h-1c27 13 43 -22 19 -34l-290 -155c148 -80 226 -120 290 -155c26 -11 9 -49 -18 -35c-101 53 -207 109 -308 162c-9 6 -16 16 -16 28s7 22 17 28z" />
    <glyph glyph-name="guilsinglright" unicode="&#x203a;" horiz-adv-x="411" 
d="M62 381l307 -161c10 -6 17 -16 17 -28s-7 -22 -16 -28l-308 -162c-27 -14 -44 24 -18 35c64 35 142 75 290 155l-290 155c-24 12 -8 47 19 34h-1z" />
    <glyph glyph-name="perthousand" unicode="&#x2030;" horiz-adv-x="1025" 
d="M668 710l-563 -710h-53l563 710h53zM60 583c0 74 60 134 134 134s134 -60 134 -134s-60 -134 -134 -134s-134 60 -134 134zM106 583c0 -49 39 -88 88 -88s88 39 88 88s-39 88 -88 88s-88 -39 -88 -88zM394 127c0 74 60 134 134 134s134 -60 134 -134s-60 -134 -134 -134
s-134 60 -134 134zM440 127c0 -49 39 -88 88 -88s88 39 88 88s-39 88 -88 88s-88 -39 -88 -88zM716 127c0 74 60 134 134 134s134 -60 134 -134s-60 -134 -134 -134s-134 60 -134 134zM762 127c0 -49 39 -88 88 -88s88 39 88 88s-39 88 -88 88s-88 -39 -88 -88z" />
    <glyph glyph-name="Omega" unicode="&#x2126;" horiz-adv-x="602" 
d="M301 675c-146 0 -218 -101 -218 -245s71 -221 158 -238v-192h-162v43h117v116c-102 35 -158 128 -158 271c0 186 96 287 263 287s263 -101 263 -287c0 -143 -56 -236 -158 -271v-116h117v-43h-162v192c87 17 158 94 158 238s-72 245 -218 245z" />
    <glyph glyph-name="Delta" unicode="&#x2206;" horiz-adv-x="600" 
d="M581 0h-562l281 772zM523 42l-223 616l-224 -616h447z" />
    <glyph glyph-name="product" unicode="&#x220f;" horiz-adv-x="545" 
d="M107 668h-78v42h487v-42h-78v-668h-45v668h-241v-668h-45v668z" />
    <glyph glyph-name="summation" unicode="&#x2211;" horiz-adv-x="466" 
d="M300 355l-265 313v42h391v-42h-329l248 -292v-42l-248 -292h329v-42h-391v42z" />
    <glyph glyph-name="minus" unicode="&#x2212;" horiz-adv-x="419" 
d="M382 228h-345v42h345v-42z" />
    <glyph glyph-name="uni2215" unicode="&#x2215;" horiz-adv-x="703" 
d="M615 710h47l-571 -710h-47z" />
    <glyph glyph-name="radical" unicode="&#x221a;" horiz-adv-x="482" 
d="M21 257v43h105l96 -228l197 661h49l-219 -733h-46l-108 257h-74z" />
    <glyph glyph-name="infinity" unicode="&#x221e;" horiz-adv-x="607" 
d="M148 287c-83 0 -117 59 -117 119c0 59 34 119 117 119c50 0 111 -17 163 -74c39 40 83 74 149 74c83 0 117 -59 117 -119c0 -59 -34 -119 -117 -119c-51 0 -114 17 -168 78c-39 -42 -82 -78 -144 -78zM459 483c-57 0 -97 -41 -137 -86c50 -59 94 -68 137 -68
c53 0 73 39 73 77c0 39 -20 77 -73 77zM149 483c-53 0 -73 -39 -73 -77c0 -39 20 -77 73 -77c54 0 92 44 133 90c-49 55 -91 64 -133 64z" />
    <glyph glyph-name="integral" unicode="&#x222b;" horiz-adv-x="365" 
d="M219 606l-82 -694c-8 -69 -44 -119 -109 -119c-21 0 -44 5 -67 15l6 43c21 -10 38 -16 58 -16c39 0 60 25 67 82l84 705c8 66 45 118 118 118c19 0 39 -3 61 -11l-6 -41c-20 7 -36 10 -54 10c-46 0 -68 -24 -76 -92z" />
    <glyph glyph-name="approxequal" unicode="&#x2248;" horiz-adv-x="419" 
d="M298 307c24 0 37 17 37 50v6h44v-7c0 -57 -25 -91 -81 -91c-69 0 -127 60 -178 60c-24 0 -37 -17 -37 -50v-6h-44v7c0 57 25 91 81 91c70 0 128 -60 178 -60zM298 173c24 0 37 17 37 50v6h44v-7c0 -57 -25 -91 -81 -91c-69 0 -127 60 -178 60c-24 0 -37 -17 -37 -50v-6
h-44v7c0 57 25 91 81 91c70 0 128 -60 178 -60z" />
    <glyph glyph-name="notequal" unicode="&#x2260;" horiz-adv-x="419" 
d="M37 212h134l32 74h-166v42h183l48 112h44l-48 -112h118v-42h-135l-32 -74h167v-42h-185l-46 -110h-44l46 110h-116v42z" />
    <glyph glyph-name="lessequal" unicode="&#x2264;" horiz-adv-x="419" 
d="M50 340l307 162c24 9 42 -24 18 -35l-289 -154c93 -52 195 -105 289 -156c23 -13 5 -45 -18 -35l-307 162c-9 6 -16 16 -16 27c0 12 6 23 16 29zM364 1h-307c-13 0 -23 10 -23 24c0 13 10 24 23 24h307c13 0 23 -11 23 -24c0 -14 -10 -24 -23 -24z" />
    <glyph glyph-name="greaterequal" unicode="&#x2265;" horiz-adv-x="419" 
d="M66 502l307 -162c10 -6 16 -17 16 -29c0 -11 -7 -21 -16 -27l-307 -162c-23 -10 -41 22 -18 35c94 51 196 104 289 156l-289 154c-24 11 -6 44 18 35zM366 1h-307c-13 0 -23 10 -23 24c0 13 10 24 23 24h307c13 0 23 -11 23 -24c0 -14 -10 -24 -23 -24z" />
    <glyph glyph-name="lozenge" unicode="&#x25ca;" horiz-adv-x="362" 
d="M181 -32l-171 402l171 402l171 -402zM181 65l129 305l-129 306l-130 -306z" />
    <glyph glyph-name="florin" unicode="&#x192;" horiz-adv-x="300" 
d="M28 380h97l10 227c4 82 49 133 122 133c19 0 39 -3 61 -11l-6 -41c-20 7 -36 10 -54 10c-46 0 -75 -24 -78 -92l-10 -226h99v-42h-101l-17 -407c-4 -89 -47 -138 -112 -138c-21 0 -44 5 -67 15l6 43c21 -10 38 -16 58 -16c39 0 67 24 70 99l17 404h-95v42z" />
    <glyph glyph-name="Scaron" unicode="&#x160;" horiz-adv-x="524" 
d="M478 167c0 -129 -100 -174 -210 -174c-76 0 -160 21 -228 51l8 45c42 -23 136 -54 220 -54s165 31 165 132c0 192 -376 160 -376 372c0 135 109 178 224 178c69 0 138 -15 191 -36l-8 -40c-43 17 -114 34 -182 34c-93 0 -180 -31 -180 -134c0 -174 376 -147 376 -374z
M198 920l64 -82l64 82h52l-97 -125h-38l-97 125h52z" />
    <glyph glyph-name="scaron" unicode="&#x161;" horiz-adv-x="398" 
d="M352 482l-6 -39c-35 10 -87 22 -144 22c-64 0 -124 -21 -124 -81c0 -142 287 -77 287 -247c0 -111 -82 -144 -178 -144c-56 0 -115 10 -164 23l6 47c43 -13 102 -28 159 -28c70 0 132 23 132 102c0 124 -287 70 -287 247c0 92 78 123 163 123c56 0 115 -12 156 -25z
M135 710l64 -82l64 82h52l-97 -125h-38l-97 125h52z" />
    <glyph glyph-name="Zcaron" unicode="&#x17d;" horiz-adv-x="538" 
d="M508 0h-478v42l398 626h-370v42h421v-42l-399 -626h428v-42zM205 920l64 -82l64 82h52l-97 -125h-38l-97 125h52z" />
    <glyph glyph-name="zcaron" unicode="&#x17e;" horiz-adv-x="434" 
d="M400 0h-370v42l305 416h-294v42h345v-42l-306 -416h320v-42zM153 710l64 -82l64 82h52l-97 -125h-38l-97 125h52z" />
    <glyph glyph-name="Ydieresis" unicode="&#x178;" horiz-adv-x="561" 
d="M280 331l220 379h49l-246 -424v-286h-45v286l-246 424h49zM147 852c0 23 18 41 41 41s41 -18 41 -41s-18 -41 -41 -41s-41 18 -41 41zM331 852c0 23 18 41 41 41s41 -18 41 -41s-18 -41 -41 -41s-41 18 -41 41z" />
    <glyph glyph-name="Acircumflex" unicode="&#xc2;" horiz-adv-x="600" 
d="M61 0h-42l258 710h46l258 -710h-42l-88 241h-303zM436 283l-136 375l-136 -375h272zM300 877l-64 -82h-52l97 125h38l97 -125h-52z" />
    <glyph glyph-name="Atilde" unicode="&#xc3;" horiz-adv-x="600" 
d="M61 0h-42l258 710h46l258 -710h-42l-88 241h-303zM436 283l-136 375l-136 -375h272zM356 849c15 0 30 14 34 45l43 -11c-9 -46 -40 -76 -78 -76c-47 0 -80 49 -111 49c-16 0 -31 -14 -35 -45l-43 11c9 46 40 76 78 76c46 0 76 -49 112 -49z" />
    <glyph glyph-name="Adieresis" unicode="&#xc4;" horiz-adv-x="600" 
d="M61 0h-42l258 710h46l258 -710h-42l-88 241h-303zM436 283l-136 375l-136 -375h272zM167 852c0 23 18 41 41 41s41 -18 41 -41s-18 -41 -41 -41s-41 18 -41 41zM351 852c0 23 18 41 41 41s41 -18 41 -41s-18 -41 -41 -41s-41 18 -41 41z" />
    <glyph glyph-name="Aring" unicode="&#xc5;" horiz-adv-x="600" 
d="M61 0h-42l258 710h46l258 -710h-42l-88 241h-303zM436 283l-136 375l-136 -375h272zM231 858c0 41 28 69 68 69c41 0 69 -28 69 -69c0 -40 -28 -68 -69 -68c-40 0 -68 28 -68 68zM267 858c0 -21 11 -32 32 -32c22 0 33 11 33 32c0 22 -11 33 -33 33
c-21 0 -32 -11 -32 -33z" />
    <glyph glyph-name="Ccedilla" unicode="&#xc7;" horiz-adv-x="530" 
d="M264 -80l15 75c-132 13 -234 98 -234 297v95c0 215 112 330 273 330c52 0 108 -11 166 -42l-9 -39c-54 26 -109 39 -158 39c-125 0 -227 -87 -227 -285v-100c0 -180 104 -255 227 -255c55 0 119 18 172 56l10 -40c-63 -43 -124 -57 -181 -58l-6 -33c38 -1 57 -24 57 -62
c0 -41 -23 -75 -78 -75c-21 0 -46 5 -65 12l9 42c21 -8 39 -12 56 -12c28 0 38 13 38 32c0 14 -8 23 -25 23h-40z" />
    <glyph glyph-name="Ecircumflex" unicode="&#xca;" horiz-adv-x="510" 
d="M469 0h-405v710h391v-42h-346v-291h303v-42h-303v-293h360v-42zM266 877l-64 -82h-52l97 125h38l97 -125h-52z" />
    <glyph glyph-name="Edieresis" unicode="&#xcb;" horiz-adv-x="510" 
d="M469 0h-405v710h391v-42h-346v-291h303v-42h-303v-293h360v-42zM133 852c0 23 18 41 41 41s41 -18 41 -41s-18 -41 -41 -41s-41 18 -41 41zM317 852c0 23 18 41 41 41s41 -18 41 -41s-18 -41 -41 -41s-41 18 -41 41z" />
    <glyph glyph-name="Icircumflex" unicode="&#xce;" horiz-adv-x="185" 
d="M115 710v-710h-45v710h45zM93 877l-64 -82h-52l97 125h38l97 -125h-52z" />
    <glyph glyph-name="Idieresis" unicode="&#xcf;" horiz-adv-x="185" 
d="M115 710v-710h-45v710h45zM-40 852c0 23 18 41 41 41s41 -18 41 -41s-18 -41 -41 -41s-41 18 -41 41zM144 852c0 23 18 41 41 41s41 -18 41 -41s-18 -41 -41 -41s-41 18 -41 41z" />
    <glyph glyph-name="Eth" unicode="&#xd0;" horiz-adv-x="590" 
d="M0 365h64v337c60 10 115 15 161 15c230 0 317 -169 317 -374c0 -190 -89 -343 -290 -343h-188v323h-64v42zM109 664v-299h186v-42h-186v-281h143c165 0 245 121 245 301c0 205 -85 332 -272 332c-35 0 -73 -3 -116 -11z" />
    <glyph glyph-name="Ntilde" unicode="&#xd1;" horiz-adv-x="580" 
d="M457 0l-348 634v-634h-45v710h54l353 -643v643h45v-710h-59zM356 849c15 0 30 14 34 45l43 -11c-9 -46 -40 -76 -78 -76c-47 0 -80 49 -111 49c-16 0 -31 -14 -35 -45l-43 11c9 46 40 76 78 76c46 0 76 -49 112 -49z" />
    <glyph glyph-name="Ocircumflex" unicode="&#xd4;" horiz-adv-x="636" 
d="M318 877l-64 -82h-52l97 125h38l97 -125h-52zM316 675c-151 0 -235 -128 -235 -288v-64c0 -160 84 -288 235 -288s235 128 235 288v64c0 160 -84 288 -235 288zM316 -7c-173 0 -280 131 -280 333v58c0 202 107 333 280 333s280 -131 280 -333v-58
c0 -202 -107 -333 -280 -333z" />
    <glyph glyph-name="Otilde" unicode="&#xd5;" horiz-adv-x="636" 
d="M374 849c15 0 30 14 34 45l43 -11c-9 -46 -40 -76 -78 -76c-47 0 -80 49 -111 49c-16 0 -31 -14 -35 -45l-43 11c9 46 40 76 78 76c46 0 76 -49 112 -49zM316 675c-151 0 -235 -128 -235 -288v-64c0 -160 84 -288 235 -288s235 128 235 288v64c0 160 -84 288 -235 288z
M316 -7c-173 0 -280 131 -280 333v58c0 202 107 333 280 333s280 -131 280 -333v-58c0 -202 -107 -333 -280 -333z" />
    <glyph glyph-name="Odieresis" unicode="&#xd6;" horiz-adv-x="636" 
d="M185 852c0 23 18 41 41 41s41 -18 41 -41s-18 -41 -41 -41s-41 18 -41 41zM369 852c0 23 18 41 41 41s41 -18 41 -41s-18 -41 -41 -41s-41 18 -41 41zM316 675c-151 0 -235 -128 -235 -288v-64c0 -160 84 -288 235 -288s235 128 235 288v64c0 160 -84 288 -235 288z
M316 -7c-173 0 -280 131 -280 333v58c0 202 107 333 280 333s280 -131 280 -333v-58c0 -202 -107 -333 -280 -333z" />
    <glyph glyph-name="Ucircumflex" unicode="&#xdb;" horiz-adv-x="633" 
d="M316 877l-64 -82h-52l97 125h38l97 -125h-52zM572 710v-469c0 -174 -130 -248 -256 -248s-255 74 -255 248v469h45v-469c0 -147 106 -206 210 -206s211 59 211 206v469h45z" />
    <glyph glyph-name="Udieresis" unicode="&#xdc;" horiz-adv-x="633" 
d="M183 852c0 23 18 41 41 41s41 -18 41 -41s-18 -41 -41 -41s-41 18 -41 41zM367 852c0 23 18 41 41 41s41 -18 41 -41s-18 -41 -41 -41s-41 18 -41 41zM572 710v-469c0 -174 -130 -248 -256 -248s-255 74 -255 248v469h45v-469c0 -147 106 -206 210 -206s211 59 211 206
v469h45z" />
    <glyph glyph-name="acircumflex" unicode="&#xe2;" horiz-adv-x="443" 
d="M344 0l-5 64c-40 -40 -106 -71 -169 -71c-94 0 -136 67 -136 137c0 77 50 145 167 153l138 9v58c0 88 -64 115 -130 115c-48 0 -98 -15 -140 -31l-5 43c48 20 100 30 147 30c91 0 173 -44 173 -154v-353h-40zM339 251l-137 -10c-87 -6 -123 -55 -123 -110
c0 -50 25 -96 91 -96c63 0 129 34 169 72v144zM221 667l-64 -82h-52l97 125h38l97 -125h-52z" />
    <glyph glyph-name="atilde" unicode="&#xe3;" horiz-adv-x="443" 
d="M344 0l-5 64c-40 -40 -106 -71 -169 -71c-94 0 -136 67 -136 137c0 77 50 145 167 153l138 9v58c0 88 -64 115 -130 115c-48 0 -98 -15 -140 -31l-5 43c48 20 100 30 147 30c91 0 173 -44 173 -154v-353h-40zM339 251l-137 -10c-87 -6 -123 -55 -123 -110
c0 -50 25 -96 91 -96c63 0 129 34 169 72v144zM278 639c15 0 30 14 34 45l43 -11c-9 -46 -40 -76 -78 -76c-47 0 -80 49 -111 49c-16 0 -31 -14 -35 -45l-43 11c9 46 40 76 78 76c46 0 76 -49 112 -49z" />
    <glyph glyph-name="adieresis" unicode="&#xe4;" horiz-adv-x="443" 
d="M344 0l-5 64c-40 -40 -106 -71 -169 -71c-94 0 -136 67 -136 137c0 77 50 145 167 153l138 9v58c0 88 -64 115 -130 115c-48 0 -98 -15 -140 -31l-5 43c48 20 100 30 147 30c91 0 173 -44 173 -154v-353h-40zM339 251l-137 -10c-87 -6 -123 -55 -123 -110
c0 -50 25 -96 91 -96c63 0 129 34 169 72v144zM88 642c0 23 18 41 41 41s41 -18 41 -41s-18 -41 -41 -41s-41 18 -41 41zM272 642c0 23 18 41 41 41s41 -18 41 -41s-18 -41 -41 -41s-41 18 -41 41z" />
    <glyph glyph-name="aring" unicode="&#xe5;" horiz-adv-x="443" 
d="M344 0l-5 64c-40 -40 -106 -71 -169 -71c-94 0 -136 67 -136 137c0 77 50 145 167 153l138 9v58c0 88 -64 115 -130 115c-48 0 -98 -15 -140 -31l-5 43c48 20 100 30 147 30c91 0 173 -44 173 -154v-353h-40zM339 251l-137 -10c-87 -6 -123 -55 -123 -110
c0 -50 25 -96 91 -96c63 0 129 34 169 72v144zM153 648c0 41 28 69 68 69c41 0 69 -28 69 -69c0 -40 -28 -68 -69 -68c-40 0 -68 28 -68 68zM189 648c0 -21 11 -32 32 -32c22 0 33 11 33 32c0 22 -11 33 -33 33c-21 0 -32 -11 -32 -33z" />
    <glyph glyph-name="ccedilla" unicode="&#xe7;" horiz-adv-x="425" 
d="M202 -80l15 76c-107 15 -179 97 -179 232v29c0 157 88 250 218 250c38 0 80 -8 124 -25l-5 -43c-43 17 -79 26 -116 26c-104 0 -176 -66 -176 -208v-29c0 -126 74 -193 172 -193c44 0 81 12 130 38l5 -43c-47 -25 -88 -36 -134 -37l-6 -33c38 -1 57 -24 57 -62
c0 -41 -23 -75 -78 -75c-21 0 -46 5 -65 12l9 42c21 -8 39 -12 56 -12c28 0 38 13 38 32c0 14 -8 23 -25 23h-40z" />
    <glyph glyph-name="ecircumflex" unicode="&#xea;" horiz-adv-x="454" 
d="M410 219h-325c5 -118 62 -184 171 -184c38 0 76 12 123 33l6 -43c-45 -22 -89 -32 -129 -32c-145 0 -216 97 -216 243c0 180 97 271 205 271c90 0 175 -70 175 -208c0 -25 -3 -52 -10 -80zM244 465c-80 0 -151 -69 -159 -204h287c2 13 3 26 3 38c0 109 -63 166 -131 166z
M229 667l-64 -82h-52l97 125h38l97 -125h-52z" />
    <glyph glyph-name="edieresis" unicode="&#xeb;" horiz-adv-x="454" 
d="M410 219h-325c5 -118 62 -184 171 -184c38 0 76 12 123 33l6 -43c-45 -22 -89 -32 -129 -32c-145 0 -216 97 -216 243c0 180 97 271 205 271c90 0 175 -70 175 -208c0 -25 -3 -52 -10 -80zM244 465c-80 0 -151 -69 -159 -204h287c2 13 3 26 3 38c0 109 -63 166 -131 166z
M99 642c0 23 18 41 41 41s41 -18 41 -41s-18 -41 -41 -41s-41 18 -41 41zM283 642c0 23 18 41 41 41s41 -18 41 -41s-18 -41 -41 -41s-41 18 -41 41z" />
    <glyph glyph-name="icircumflex" unicode="&#xee;" horiz-adv-x="198" 
d="M89 0v430c0 20 -7 28 -27 28h-32v42h34c50 0 70 -19 70 -69v-431h-45zM99 667l-64 -82h-52l97 125h38l97 -125h-52z" />
    <glyph glyph-name="idieresis" unicode="&#xef;" horiz-adv-x="198" 
d="M89 0v430c0 20 -7 28 -27 28h-32v42h34c50 0 70 -19 70 -69v-431h-45zM-34 642c0 23 18 41 41 41s41 -18 41 -41s-18 -41 -41 -41s-41 18 -41 41zM150 642c0 23 18 41 41 41s41 -18 41 -41s-18 -41 -41 -41s-41 18 -41 41z" />
    <glyph glyph-name="ntilde" unicode="&#xf1;" horiz-adv-x="469" 
d="M104 350v-350h-45v500h40l5 -99c41 51 107 106 181 106c68 0 125 -37 125 -129v-378h-45v378c0 60 -27 87 -80 87c-67 0 -139 -62 -181 -115zM297 639c15 0 30 14 34 45l43 -11c-9 -46 -40 -76 -78 -76c-47 0 -80 49 -111 49c-16 0 -31 -14 -35 -45l-43 11
c9 46 40 76 78 76c46 0 76 -49 112 -49z" />
    <glyph glyph-name="ocircumflex" unicode="&#xf4;" horiz-adv-x="500" 
d="M250 667l-64 -82h-52l97 125h38l97 -125h-52zM250 -7c-160 0 -213 113 -213 238v38c0 125 53 238 213 238s213 -113 213 -238v-38c0 -125 -53 -238 -213 -238zM250 35c120 0 168 85 168 200v30c0 115 -48 200 -168 200s-168 -85 -168 -200v-30c0 -115 48 -200 168 -200z
" />
    <glyph glyph-name="otilde" unicode="&#xf5;" horiz-adv-x="500" 
d="M306 639c15 0 30 14 34 45l43 -11c-9 -46 -40 -76 -78 -76c-47 0 -80 49 -111 49c-16 0 -31 -14 -35 -45l-43 11c9 46 40 76 78 76c46 0 76 -49 112 -49zM250 -7c-160 0 -213 113 -213 238v38c0 125 53 238 213 238s213 -113 213 -238v-38c0 -125 -53 -238 -213 -238z
M250 35c120 0 168 85 168 200v30c0 115 -48 200 -168 200s-168 -85 -168 -200v-30c0 -115 48 -200 168 -200z" />
    <glyph glyph-name="odieresis" unicode="&#xf6;" horiz-adv-x="500" 
d="M117 642c0 23 18 41 41 41s41 -18 41 -41s-18 -41 -41 -41s-41 18 -41 41zM301 642c0 23 18 41 41 41s41 -18 41 -41s-18 -41 -41 -41s-41 18 -41 41zM250 -7c-160 0 -213 113 -213 238v38c0 125 53 238 213 238s213 -113 213 -238v-38c0 -125 -53 -238 -213 -238z
M250 35c120 0 168 85 168 200v30c0 115 -48 200 -168 200s-168 -85 -168 -200v-30c0 -115 48 -200 168 -200z" />
    <glyph glyph-name="ucircumflex" unicode="&#xfb;" horiz-adv-x="469" 
d="M365 141v359h45v-500h-40l-5 90c-41 -51 -107 -97 -181 -97c-68 0 -125 40 -125 132v375h45v-375c0 -60 27 -90 80 -90c67 0 139 53 181 106zM237 667l-64 -82h-52l97 125h38l97 -125h-52z" />
    <glyph glyph-name="udieresis" unicode="&#xfc;" horiz-adv-x="469" 
d="M365 141v359h45v-500h-40l-5 90c-41 -51 -107 -97 -181 -97c-68 0 -125 40 -125 132v375h45v-375c0 -60 27 -90 80 -90c67 0 139 53 181 106zM103 642c0 23 18 41 41 41s41 -18 41 -41s-18 -41 -41 -41s-41 18 -41 41zM287 642c0 23 18 41 41 41s41 -18 41 -41
s-18 -41 -41 -41s-41 18 -41 41z" />
    <glyph glyph-name="ydieresis" unicode="&#xff;" horiz-adv-x="478" 
d="M240 57l169 443h49l-244 -622c-23 -60 -63 -85 -111 -85c-28 0 -58 10 -89 28l5 43c28 -19 55 -29 84 -29c33 0 58 16 73 56l42 109l-198 500h49zM106 642c0 23 18 41 41 41s41 -18 41 -41s-18 -41 -41 -41s-41 18 -41 41zM290 642c0 23 18 41 41 41s41 -18 41 -41
s-18 -41 -41 -41s-41 18 -41 41z" />
    <glyph glyph-name="Amacron" unicode="&#x100;" horiz-adv-x="600" 
d="M61 0h-42l258 710h46l258 -710h-42l-88 241h-303zM436 283l-136 375l-136 -375h272zM163 837h274v-42h-274v42z" />
    <glyph glyph-name="amacron" unicode="&#x101;" horiz-adv-x="443" 
d="M344 0l-5 64c-40 -40 -106 -71 -169 -71c-94 0 -136 67 -136 137c0 77 50 145 167 153l138 9v58c0 88 -64 115 -130 115c-48 0 -98 -15 -140 -31l-5 43c48 20 100 30 147 30c91 0 173 -44 173 -154v-353h-40zM339 251l-137 -10c-87 -6 -123 -55 -123 -110
c0 -50 25 -96 91 -96c63 0 129 34 169 72v144zM84 627h274v-42h-274v42z" />
    <glyph glyph-name="Abreve" unicode="&#x102;" horiz-adv-x="600" 
d="M61 0h-42l258 710h46l258 -710h-42l-88 241h-303zM436 283l-136 375l-136 -375h272zM205 868v52h42v-49c0 -25 23 -36 52 -36c20 0 38 5 54 12v73h42v-95c-34 -20 -63 -30 -97 -30c-49 0 -93 23 -93 73z" />
    <glyph glyph-name="abreve" unicode="&#x103;" horiz-adv-x="443" 
d="M344 0l-5 64c-40 -40 -106 -71 -169 -71c-94 0 -136 67 -136 137c0 77 50 145 167 153l138 9v58c0 88 -64 115 -130 115c-48 0 -98 -15 -140 -31l-5 43c48 20 100 30 147 30c91 0 173 -44 173 -154v-353h-40zM339 251l-137 -10c-87 -6 -123 -55 -123 -110
c0 -50 25 -96 91 -96c63 0 129 34 169 72v144zM126 658v52h42v-49c0 -25 23 -36 52 -36c20 0 38 5 54 12v73h42v-95c-34 -20 -63 -30 -97 -30c-49 0 -93 23 -93 73z" />
    <glyph glyph-name="Aogonek" unicode="&#x104;" horiz-adv-x="600" 
d="M539 0l-88 241h-303l-87 -241h-42l258 710h46l258 -710c-41 -29 -71 -58 -71 -97c0 -25 14 -40 40 -40c11 0 24 3 38 9l6 -39c-17 -7 -30 -10 -46 -10c-44 0 -79 27 -79 76c0 48 31 78 70 101zM436 283l-136 375l-136 -375h272z" />
    <glyph glyph-name="aogonek" unicode="&#x105;" horiz-adv-x="443" 
d="M344 0l-5 64c-40 -40 -106 -71 -169 -71c-94 0 -136 67 -136 137c0 77 50 145 167 153l138 9v58c0 88 -64 115 -130 115c-48 0 -98 -15 -140 -31l-5 43c48 20 100 30 147 30c91 0 173 -44 173 -154v-353c-41 -29 -71 -58 -71 -97c0 -25 14 -40 40 -40c11 0 24 3 38 9
l6 -39c-17 -7 -30 -10 -46 -10c-44 0 -79 27 -79 76c0 48 33 78 72 101zM339 251l-137 -10c-87 -6 -123 -55 -123 -110c0 -50 25 -96 91 -96c63 0 129 34 169 72v144z" />
    <glyph glyph-name="Ccircumflex" unicode="&#x108;" horiz-adv-x="530" 
d="M489 91l10 -40c-63 -43 -125 -58 -182 -58c-149 0 -272 81 -272 299v95c0 215 112 330 273 330c52 0 108 -11 166 -42l-9 -39c-54 26 -109 39 -158 39c-125 0 -227 -87 -227 -285v-100c0 -180 104 -255 227 -255c55 0 119 18 172 56zM305 877l-64 -82h-52l97 125h38
l97 -125h-52z" />
    <glyph glyph-name="ccircumflex" unicode="&#x109;" horiz-adv-x="425" 
d="M385 73l5 -43c-47 -25 -89 -37 -135 -37c-127 0 -217 85 -217 235v29c0 157 88 250 218 250c38 0 80 -8 124 -25l-5 -43c-43 17 -79 26 -116 26c-104 0 -176 -66 -176 -208v-29c0 -126 74 -193 172 -193c44 0 81 12 130 38zM246 667l-64 -82h-52l97 125h38l97 -125h-52z
" />
    <glyph glyph-name="Cdotaccent" unicode="&#x10a;" horiz-adv-x="530" 
d="M489 91l10 -40c-63 -43 -125 -58 -182 -58c-149 0 -272 81 -272 299v95c0 215 112 330 273 330c52 0 108 -11 166 -42l-9 -39c-54 26 -109 39 -158 39c-125 0 -227 -87 -227 -285v-100c0 -180 104 -255 227 -255c55 0 119 18 172 56zM264 852c0 23 18 41 41 41
s41 -18 41 -41s-18 -41 -41 -41s-41 18 -41 41z" />
    <glyph glyph-name="cdotaccent" unicode="&#x10b;" horiz-adv-x="425" 
d="M385 73l5 -43c-47 -25 -89 -37 -135 -37c-127 0 -217 85 -217 235v29c0 157 88 250 218 250c38 0 80 -8 124 -25l-5 -43c-43 17 -79 26 -116 26c-104 0 -176 -66 -176 -208v-29c0 -126 74 -193 172 -193c44 0 81 12 130 38zM205 642c0 23 18 41 41 41s41 -18 41 -41
s-18 -41 -41 -41s-41 18 -41 41z" />
    <glyph glyph-name="ccaron" unicode="&#x10d;" horiz-adv-x="425" 
d="M385 73l5 -43c-47 -25 -89 -37 -135 -37c-127 0 -217 85 -217 235v29c0 157 88 250 218 250c38 0 80 -8 124 -25l-5 -43c-43 17 -79 26 -116 26c-104 0 -176 -66 -176 -208v-29c0 -126 74 -193 172 -193c44 0 81 12 130 38zM177 710l64 -82l64 82h52l-97 -125h-38
l-97 125h52z" />
    <glyph glyph-name="Ccaron" unicode="&#x10c;" horiz-adv-x="530" 
d="M489 91l10 -40c-63 -43 -125 -58 -182 -58c-149 0 -272 81 -272 299v95c0 215 112 330 273 330c52 0 108 -11 166 -42l-9 -39c-54 26 -109 39 -158 39c-125 0 -227 -87 -227 -285v-100c0 -180 104 -255 227 -255c55 0 119 18 172 56zM241 920l64 -82l64 82h52l-97 -125
h-38l-97 125h52z" />
    <glyph glyph-name="Dcaron" unicode="&#x10e;" horiz-adv-x="590" 
d="M109 664v-622h143c165 0 245 121 245 301c0 205 -85 332 -272 332c-35 0 -73 -3 -116 -11zM252 0h-188v702c60 10 115 15 161 15c230 0 317 -169 317 -374c0 -190 -89 -343 -290 -343zM162 920l64 -82l64 82h52l-97 -125h-38l-97 125h52z" />
    <glyph glyph-name="dcaron" unicode="&#x10f;" horiz-adv-x="617" 
d="M372 427v306h45v-733h-40l-5 86c-44 -64 -97 -93 -151 -93c-102 0 -178 78 -178 222v71c0 144 83 221 180 221c52 0 104 -24 149 -80zM372 138v236c-42 61 -96 91 -147 91c-76 0 -137 -57 -137 -180v-70c0 -120 58 -180 134 -180c53 0 108 34 150 103zM593 710l-86 -230
h-45l61 230h70z" />
    <glyph glyph-name="dcroat" unicode="&#x111;" horiz-adv-x="476" 
d="M250 647h122v86h45v-86h59v-42h-59v-605h-40l-5 86c-44 -64 -97 -93 -151 -93c-102 0 -178 78 -178 222v71c0 144 83 221 180 221c52 0 104 -24 149 -80v178h-122v42zM372 138v236c-42 61 -96 91 -147 91c-76 0 -137 -57 -137 -180v-70c0 -120 58 -180 134 -180
c53 0 108 34 150 103z" />
    <glyph glyph-name="Emacron" unicode="&#x112;" horiz-adv-x="510" 
d="M469 0h-405v710h391v-42h-346v-291h303v-42h-303v-293h360v-42zM130 837h274v-42h-274v42z" />
    <glyph glyph-name="emacron" unicode="&#x113;" horiz-adv-x="454" 
d="M410 219h-325c5 -118 62 -184 171 -184c38 0 76 12 123 33l6 -43c-45 -22 -89 -32 -129 -32c-145 0 -216 97 -216 243c0 180 97 271 205 271c90 0 175 -70 175 -208c0 -25 -3 -52 -10 -80zM244 465c-80 0 -151 -69 -159 -204h287c2 13 3 26 3 38c0 109 -63 166 -131 166z
M100 627h274v-42h-274v42z" />
    <glyph glyph-name="Ebreve" unicode="&#x114;" horiz-adv-x="510" 
d="M469 0h-405v710h391v-42h-346v-291h303v-42h-303v-293h360v-42zM171 868v52h42v-49c0 -25 23 -36 52 -36c20 0 38 5 54 12v73h42v-95c-34 -20 -63 -30 -97 -30c-49 0 -93 23 -93 73z" />
    <glyph glyph-name="ebreve" unicode="&#x115;" horiz-adv-x="454" 
d="M410 219h-325c5 -118 62 -184 171 -184c38 0 76 12 123 33l6 -43c-45 -22 -89 -32 -129 -32c-145 0 -216 97 -216 243c0 180 97 271 205 271c90 0 175 -70 175 -208c0 -25 -3 -52 -10 -80zM244 465c-80 0 -151 -69 -159 -204h287c2 13 3 26 3 38c0 109 -63 166 -131 166z
M144 658v52h42v-49c0 -25 23 -36 52 -36c20 0 38 5 54 12v73h42v-95c-34 -20 -63 -30 -97 -30c-49 0 -93 23 -93 73z" />
    <glyph glyph-name="Edotaccent" unicode="&#x116;" horiz-adv-x="510" 
d="M469 0h-405v710h391v-42h-346v-291h303v-42h-303v-293h360v-42zM225 852c0 23 18 41 41 41s41 -18 41 -41s-18 -41 -41 -41s-41 18 -41 41z" />
    <glyph glyph-name="edotaccent" unicode="&#x117;" horiz-adv-x="454" 
d="M410 219h-325c5 -118 62 -184 171 -184c38 0 76 12 123 33l6 -43c-45 -22 -89 -32 -129 -32c-145 0 -216 97 -216 243c0 180 97 271 205 271c90 0 175 -70 175 -208c0 -25 -3 -52 -10 -80zM244 465c-80 0 -151 -69 -159 -204h287c2 13 3 26 3 38c0 109 -63 166 -131 166z
M202 642c0 23 18 41 41 41s41 -18 41 -41s-18 -41 -41 -41s-41 18 -41 41z" />
    <glyph glyph-name="Eogonek" unicode="&#x118;" horiz-adv-x="510" 
d="M429 0h-365v710h391v-42h-346v-291h303v-42h-303v-293h360v-42c-41 -29 -71 -58 -71 -97c0 -25 14 -40 40 -40c11 0 24 3 38 9l6 -39c-17 -7 -30 -10 -46 -10c-44 0 -79 27 -79 76c0 48 33 78 72 101z" />
    <glyph glyph-name="eogonek" unicode="&#x119;" horiz-adv-x="454" 
d="M244 465c-80 0 -151 -69 -159 -204h287c2 13 3 26 3 38c0 109 -63 166 -131 166zM321 3c-22 -7 -39 -10 -65 -10c-145 0 -216 97 -216 243c0 180 97 271 205 271c90 0 175 -70 175 -208c0 -25 -3 -52 -10 -80h-325c5 -118 62 -184 171 -184c38 0 76 12 123 33l6 -42
c-45 -36 -96 -84 -96 -123c0 -25 14 -40 40 -40c11 0 24 3 38 9l6 -39c-17 -7 -30 -10 -46 -10c-44 0 -79 27 -79 76c0 48 33 80 73 104z" />
    <glyph glyph-name="Ecaron" unicode="&#x11a;" horiz-adv-x="510" 
d="M469 0h-405v710h391v-42h-346v-291h303v-42h-303v-293h360v-42zM202 920l64 -82l64 82h52l-97 -125h-38l-97 125h52z" />
    <glyph glyph-name="ecaron" unicode="&#x11b;" horiz-adv-x="454" 
d="M410 219h-325c5 -118 62 -184 171 -184c38 0 76 12 123 33l6 -43c-45 -22 -89 -32 -129 -32c-145 0 -216 97 -216 243c0 180 97 271 205 271c90 0 175 -70 175 -208c0 -25 -3 -52 -10 -80zM244 465c-80 0 -151 -69 -159 -204h287c2 13 3 26 3 38c0 109 -63 166 -131 166z
M179 710l64 -82l64 82h52l-97 -125h-38l-97 125h52z" />
    <glyph glyph-name="Gcircumflex" unicode="&#x11c;" horiz-adv-x="588" 
d="M527 283v-248c-57 -26 -127 -42 -194 -42c-145 0 -283 76 -283 299v95c0 236 130 330 282 330c58 0 120 -15 181 -43l-10 -40c-60 28 -118 41 -170 41c-140 0 -238 -90 -238 -285v-100c0 -189 116 -255 238 -255c51 0 105 10 149 27v221c0 29 -12 38 -39 38h-112v42h112
c57 0 84 -23 84 -80zM323 877l-64 -82h-52l97 125h38l97 -125h-52z" />
    <glyph glyph-name="gcircumflex" unicode="&#x11d;" horiz-adv-x="440" 
d="M42 337c0 96 64 170 168 170c51 0 93 -19 122 -48c6 9 9 19 12 29l10 42h45l-11 -47c-6 -26 -14 -42 -33 -55c15 -26 24 -57 24 -91c0 -97 -65 -167 -169 -167c-19 0 -36 2 -52 6c-33 -15 -46 -36 -46 -64v-10c0 -31 17 -46 58 -46h98c90 0 144 -50 144 -120v-15
c0 -88 -85 -128 -191 -128c-108 0 -187 45 -187 137v25h45v-25c0 -64 55 -95 142 -95c84 0 146 28 146 88v10c0 48 -24 81 -99 81h-98c-65 0 -103 35 -103 89v7c0 36 19 66 52 82c-49 28 -77 81 -77 145zM87 337c0 -72 45 -125 123 -125s124 53 124 125s-46 128 -124 128
s-123 -56 -123 -128zM210 667l-64 -82h-52l97 125h38l97 -125h-52z" />
    <glyph glyph-name="Gbreve" unicode="&#x11e;" horiz-adv-x="588" 
d="M527 283v-248c-57 -26 -127 -42 -194 -42c-145 0 -283 76 -283 299v95c0 236 130 330 282 330c58 0 120 -15 181 -43l-10 -40c-60 28 -118 41 -170 41c-140 0 -238 -90 -238 -285v-100c0 -189 116 -255 238 -255c51 0 105 10 149 27v221c0 29 -12 38 -39 38h-112v42h112
c57 0 84 -23 84 -80zM226 868v52h42v-49c0 -25 23 -36 52 -36c20 0 38 5 54 12v73h42v-95c-34 -20 -63 -30 -97 -30c-49 0 -93 23 -93 73z" />
    <glyph glyph-name="gbreve" unicode="&#x11f;" horiz-adv-x="440" 
d="M42 337c0 96 64 170 168 170c51 0 93 -19 122 -48c6 9 9 19 12 29l10 42h45l-11 -47c-6 -26 -14 -42 -33 -55c15 -26 24 -57 24 -91c0 -97 -65 -167 -169 -167c-19 0 -36 2 -52 6c-33 -15 -46 -36 -46 -64v-10c0 -31 17 -46 58 -46h98c90 0 144 -50 144 -120v-15
c0 -88 -85 -128 -191 -128c-108 0 -187 45 -187 137v25h45v-25c0 -64 55 -95 142 -95c84 0 146 28 146 88v10c0 48 -24 81 -99 81h-98c-65 0 -103 35 -103 89v7c0 36 19 66 52 82c-49 28 -77 81 -77 145zM87 337c0 -72 45 -125 123 -125s124 53 124 125s-46 128 -124 128
s-123 -56 -123 -128zM115 658v52h42v-49c0 -25 23 -36 52 -36c20 0 38 5 54 12v73h42v-95c-34 -20 -63 -30 -97 -30c-49 0 -93 23 -93 73z" />
    <glyph glyph-name="Gdotaccent" unicode="&#x120;" horiz-adv-x="588" 
d="M527 283v-248c-57 -26 -127 -42 -194 -42c-145 0 -283 76 -283 299v95c0 236 130 330 282 330c58 0 120 -15 181 -43l-10 -40c-60 28 -118 41 -170 41c-140 0 -238 -90 -238 -285v-100c0 -189 116 -255 238 -255c51 0 105 10 149 27v221c0 29 -12 38 -39 38h-112v42h112
c57 0 84 -23 84 -80zM285 852c0 23 18 41 41 41s41 -18 41 -41s-18 -41 -41 -41s-41 18 -41 41z" />
    <glyph glyph-name="gdotaccent" unicode="&#x121;" horiz-adv-x="440" 
d="M42 337c0 96 64 170 168 170c51 0 93 -19 122 -48c6 9 9 19 12 29l10 42h45l-11 -47c-6 -26 -14 -42 -33 -55c15 -26 24 -57 24 -91c0 -97 -65 -167 -169 -167c-19 0 -36 2 -52 6c-33 -15 -46 -36 -46 -64v-10c0 -31 17 -46 58 -46h98c90 0 144 -50 144 -120v-15
c0 -88 -85 -128 -191 -128c-108 0 -187 45 -187 137v25h45v-25c0 -64 55 -95 142 -95c84 0 146 28 146 88v10c0 48 -24 81 -99 81h-98c-65 0 -103 35 -103 89v7c0 36 19 66 52 82c-49 28 -77 81 -77 145zM87 337c0 -72 45 -125 123 -125s124 53 124 125s-46 128 -124 128
s-123 -56 -123 -128zM169 642c0 23 18 41 41 41s41 -18 41 -41s-18 -41 -41 -41s-41 18 -41 41z" />
    <glyph glyph-name="Gcommaaccent" unicode="&#x122;" horiz-adv-x="588" 
d="M527 283v-248c-57 -26 -127 -42 -194 -42c-145 0 -283 76 -283 299v95c0 236 130 330 282 330c58 0 120 -15 181 -43l-10 -40c-60 28 -118 41 -170 41c-140 0 -238 -90 -238 -285v-100c0 -189 116 -255 238 -255c51 0 105 10 149 27v221c0 29 -12 38 -39 38h-112v42h112
c57 0 84 -23 84 -80zM360 -65l-68 -135h-40l53 135h55z" />
    <glyph glyph-name="gcommaaccent" unicode="&#x123;" horiz-adv-x="440" 
d="M42 337c0 96 64 170 168 170c51 0 93 -19 122 -48c6 9 9 19 12 29l10 42h45l-11 -47c-6 -26 -14 -42 -33 -55c15 -26 24 -57 24 -91c0 -97 -65 -167 -169 -167c-19 0 -36 2 -52 6c-33 -15 -46 -36 -46 -64v-10c0 -31 17 -46 58 -46h98c90 0 144 -50 144 -120v-15
c0 -88 -85 -128 -191 -128c-108 0 -187 45 -187 137v25h45v-25c0 -64 55 -95 142 -95c84 0 146 28 146 88v10c0 48 -24 81 -99 81h-98c-65 0 -103 35 -103 89v7c0 36 19 66 52 82c-49 28 -77 81 -77 145zM87 337c0 -72 45 -125 123 -125s124 53 124 125s-46 128 -124 128
s-123 -56 -123 -128zM190 570l70 140h40l-55 -140h-55z" />
    <glyph glyph-name="Hcircumflex" unicode="&#x124;" horiz-adv-x="593" 
d="M109 710v-350h375v350h45v-710h-45v318h-375v-318h-45v710h45zM296 877l-64 -82h-52l97 125h38l97 -125h-52z" />
    <glyph glyph-name="hcircumflex" unicode="&#x125;" horiz-adv-x="469" 
d="M104 350v-350h-45v733h45v-332c41 51 107 106 181 106c68 0 125 -37 125 -129v-378h-45v378c0 60 -27 87 -80 87c-67 0 -139 -62 -181 -115zM88 877l-64 -82h-52l97 125h38l97 -125h-52z" />
    <glyph glyph-name="Hbar" unicode="&#x126;" horiz-adv-x="593" 
d="M0 588h64v122h45v-122h375v122h45v-122h64v-42h-64v-546h-45v318h-375v-318h-45v546h-64v42zM109 360h375v186h-375v-186z" />
    <glyph glyph-name="hbar" unicode="&#x127;" horiz-adv-x="469" 
d="M0 647h59v86h45v-86h122v-42h-122v-204c41 51 107 106 181 106c68 0 125 -37 125 -129v-378h-45v378c0 60 -27 87 -80 87c-67 0 -139 -62 -181 -115v-350h-45v605h-59v42z" />
    <glyph glyph-name="Itilde" unicode="&#x128;" horiz-adv-x="185" 
d="M115 710v-710h-45v710h45zM149 849c15 0 30 14 34 45l43 -11c-9 -46 -40 -76 -78 -76c-47 0 -80 49 -111 49c-16 0 -31 -14 -35 -45l-43 11c9 46 40 76 78 76c46 0 76 -49 112 -49z" />
    <glyph glyph-name="itilde" unicode="&#x129;" horiz-adv-x="198" 
d="M89 0v430c0 20 -7 28 -27 28h-32v42h34c50 0 70 -19 70 -69v-431h-45zM156 639c15 0 30 14 34 45l43 -11c-9 -46 -40 -76 -78 -76c-47 0 -80 49 -111 49c-16 0 -31 -14 -35 -45l-43 11c9 46 40 76 78 76c46 0 76 -49 112 -49z" />
    <glyph glyph-name="Imacron" unicode="&#x12a;" horiz-adv-x="185" 
d="M115 710v-710h-45v710h45zM-44 837h274v-42h-274v42z" />
    <glyph glyph-name="imacron" unicode="&#x12b;" horiz-adv-x="198" 
d="M89 0v430c0 20 -7 28 -27 28h-32v42h34c50 0 70 -19 70 -69v-431h-45zM-38 627h274v-42h-274v42z" />
    <glyph glyph-name="Iogonek" unicode="&#x12e;" horiz-adv-x="185" 
d="M70 0v710h45v-710c-41 -29 -71 -58 -71 -97c0 -25 14 -40 40 -40c11 0 24 3 38 9l6 -39c-17 -7 -30 -10 -46 -10c-44 0 -79 27 -79 76c0 48 28 78 67 101z" />
    <glyph glyph-name="iogonek" unicode="&#x12f;" horiz-adv-x="198" 
d="M89 0v430c0 20 -7 28 -27 28h-32v42h34c50 0 70 -19 70 -69v-431c-41 -29 -71 -58 -71 -97c0 -25 14 -40 40 -40c11 0 24 3 38 9l6 -39c-17 -7 -30 -10 -46 -10c-44 0 -79 27 -79 76c0 48 28 78 67 101zM46 642c0 25 20 45 45 45s45 -20 45 -45s-20 -45 -45 -45
s-45 20 -45 45z" />
    <glyph glyph-name="Idotaccent" unicode="&#x130;" horiz-adv-x="185" 
d="M115 710v-710h-45v710h45zM51 852c0 23 18 41 41 41s41 -18 41 -41s-18 -41 -41 -41s-41 18 -41 41z" />
    <glyph glyph-name="dotlessi" unicode="&#x131;" horiz-adv-x="198" 
d="M89 0v430c0 20 -7 28 -27 28h-32v42h34c50 0 70 -19 70 -69v-431h-45z" />
    <glyph glyph-name="Jcircumflex" unicode="&#x134;" horiz-adv-x="281" 
d="M217 710v-565c0 -98 -54 -152 -126 -152c-24 0 -50 7 -75 21l4 44c24 -15 48 -23 70 -23c48 0 82 35 82 113v562h45zM189 877l-64 -82h-52l97 125h38l97 -125h-52z" />
    <glyph glyph-name="jcircumflex" unicode="&#x135;" horiz-adv-x="202" 
d="M98 -66v496c0 20 -7 28 -27 28h-36v42h38c50 0 70 -19 70 -69v-500c0 -89 -47 -138 -112 -138c-21 0 -44 5 -67 15l6 43c21 -10 38 -16 58 -16c39 0 70 24 70 99zM101 667l-64 -82h-52l97 125h38l97 -125h-52z" />
    <glyph glyph-name="Kcommaaccent" unicode="&#x136;" horiz-adv-x="553" 
d="M296 -65l-68 -135h-40l53 135h55zM512 710l-210 -350c50 -10 84 -40 109 -100l109 -260h-45l-104 248c-24 58 -51 74 -114 74h-148v-322h-45v710h45v-346h146l208 346h49z" />
    <glyph glyph-name="kcommaaccent" unicode="&#x137;" horiz-adv-x="416" 
d="M337 181l55 -181h-44l-52 171c-14 45 -39 63 -88 63h-104v-234h-45v733h45v-457h106l116 224h48l-119 -230c42 -12 68 -43 82 -89zM240 -65l-68 -135h-40l53 135h55z" />
    <glyph glyph-name="Lacute" unicode="&#x139;" horiz-adv-x="472" 
d="M109 710v-668h333v-42h-378v710h45zM211 920l-93 -130h-46l79 130h60z" />
    <glyph glyph-name="lacute" unicode="&#x13a;" horiz-adv-x="203" 
d="M104 733v-643c0 -39 16 -55 41 -55c12 0 22 3 38 10l5 -41c-15 -7 -31 -11 -46 -11c-52 0 -83 32 -83 96v644h45zM200 920l-93 -130h-46l79 130h60z" />
    <glyph glyph-name="Lcommaaccent" unicode="&#x13b;" horiz-adv-x="472" 
d="M109 710v-668h333v-42h-378v710h45zM269 -65l-68 -135h-40l53 135h55z" />
    <glyph glyph-name="lcommaaccent" unicode="&#x13c;" horiz-adv-x="203" 
d="M104 733v-643c0 -39 16 -55 41 -55c12 0 22 3 38 10l5 -41c-15 -7 -31 -11 -46 -11c-52 0 -83 32 -83 96v644h45zM138 -65l-68 -135h-40l53 135h55z" />
    <glyph glyph-name="Lcaron" unicode="&#x13d;" horiz-adv-x="472" 
d="M109 710v-668h333v-42h-378v710h45zM327 710l-86 -230h-45l61 230h70z" />
    <glyph glyph-name="lcaron" unicode="&#x13e;" horiz-adv-x="203" 
d="M104 733v-643c0 -39 16 -55 41 -55c12 0 22 3 38 10l5 -41c-15 -7 -31 -11 -46 -11c-52 0 -83 32 -83 96v644h45zM290 710l-86 -230h-45l61 230h70z" />
    <glyph glyph-name="Ldot" unicode="&#x13f;" horiz-adv-x="472" 
d="M109 710v-668h333v-42h-378v710h45zM223 300c0 24 20 44 44 44s44 -20 44 -44s-20 -44 -44 -44s-44 20 -44 44z" />
    <glyph glyph-name="ldot" unicode="&#x140;" horiz-adv-x="270" 
d="M150 300c0 24 20 44 44 44s44 -20 44 -44s-20 -44 -44 -44s-44 20 -44 44zM104 733v-643c0 -39 16 -55 41 -55c12 0 22 3 38 10l5 -41c-15 -7 -31 -11 -46 -11c-52 0 -83 32 -83 96v644h45z" />
    <glyph glyph-name="Lslash" unicode="&#x141;" horiz-adv-x="472" 
d="M0 259l64 30v421h45v-400l126 59v-47l-126 -59v-221h333v-42h-378v242l-64 -30v47z" />
    <glyph glyph-name="lslash" unicode="&#x142;" horiz-adv-x="203" 
d="M104 733v-426l99 47v-47l-99 -47v-170c0 -39 16 -55 41 -55c12 0 22 3 38 10l5 -41c-15 -7 -31 -11 -46 -11c-52 0 -83 32 -83 96v150l-59 -27v47l59 27v447h45z" />
    <glyph glyph-name="Ncommaaccent" unicode="&#x145;" horiz-adv-x="580" 
d="M457 0l-348 634v-634h-45v710h54l353 -643v643h45v-710h-59zM311 -65l-68 -135h-40l53 135h55z" />
    <glyph glyph-name="ncommaaccent" unicode="&#x146;" horiz-adv-x="469" 
d="M104 350v-350h-45v500h40l5 -99c41 51 107 106 181 106c68 0 125 -37 125 -129v-378h-45v378c0 60 -27 87 -80 87c-67 0 -139 -62 -181 -115zM273 -65l-68 -135h-40l53 135h55z" />
    <glyph glyph-name="Ncaron" unicode="&#x147;" horiz-adv-x="580" 
d="M457 0l-348 634v-634h-45v710h54l353 -643v643h45v-710h-59zM239 920l64 -82l64 82h52l-97 -125h-38l-97 125h52z" />
    <glyph glyph-name="ncaron" unicode="&#x148;" horiz-adv-x="469" 
d="M104 350v-350h-45v500h40l5 -99c41 51 107 106 181 106c68 0 125 -37 125 -129v-378h-45v378c0 60 -27 87 -80 87c-67 0 -139 -62 -181 -115zM179 710l64 -82l64 82h52l-97 -125h-38l-97 125h52z" />
    <glyph glyph-name="napostrophe" unicode="&#x149;" horiz-adv-x="548" 
d="M157 710l-86 -230h-45l61 230h70zM183 350v-350h-45v500h40l5 -99c41 51 107 106 181 106c68 0 125 -37 125 -129v-378h-45v378c0 60 -27 87 -80 87c-67 0 -139 -62 -181 -115z" />
    <glyph glyph-name="Omacron" unicode="&#x14c;" horiz-adv-x="636" 
d="M181 837h274v-42h-274v42zM316 675c-151 0 -235 -128 -235 -288v-64c0 -160 84 -288 235 -288s235 128 235 288v64c0 160 -84 288 -235 288zM316 -7c-173 0 -280 131 -280 333v58c0 202 107 333 280 333s280 -131 280 -333v-58c0 -202 -107 -333 -280 -333z" />
    <glyph glyph-name="omacron" unicode="&#x14d;" horiz-adv-x="500" 
d="M113 627h274v-42h-274v42zM250 -7c-160 0 -213 113 -213 238v38c0 125 53 238 213 238s213 -113 213 -238v-38c0 -125 -53 -238 -213 -238zM250 35c120 0 168 85 168 200v30c0 115 -48 200 -168 200s-168 -85 -168 -200v-30c0 -115 48 -200 168 -200z" />
    <glyph glyph-name="Obreve" unicode="&#x14e;" horiz-adv-x="636" 
d="M223 868v52h42v-49c0 -25 23 -36 52 -36c20 0 38 5 54 12v73h42v-95c-34 -20 -63 -30 -97 -30c-49 0 -93 23 -93 73zM316 675c-151 0 -235 -128 -235 -288v-64c0 -160 84 -288 235 -288s235 128 235 288v64c0 160 -84 288 -235 288zM316 -7c-173 0 -280 131 -280 333v58
c0 202 107 333 280 333s280 -131 280 -333v-58c0 -202 -107 -333 -280 -333z" />
    <glyph glyph-name="obreve" unicode="&#x14f;" horiz-adv-x="500" 
d="M155 658v52h42v-49c0 -25 23 -36 52 -36c20 0 38 5 54 12v73h42v-95c-34 -20 -63 -30 -97 -30c-49 0 -93 23 -93 73zM250 -7c-160 0 -213 113 -213 238v38c0 125 53 238 213 238s213 -113 213 -238v-38c0 -125 -53 -238 -213 -238zM250 35c120 0 168 85 168 200v30
c0 115 -48 200 -168 200s-168 -85 -168 -200v-30c0 -115 48 -200 168 -200z" />
    <glyph glyph-name="Rcommaaccent" unicode="&#x156;" horiz-adv-x="544" 
d="M291 -65l-68 -135h-40l53 135h55zM64 0v695c64 15 127 22 175 22c172 0 250 -103 250 -206c0 -78 -43 -155 -134 -184c19 -15 34 -37 47 -67l109 -260h-47l-104 247c-24 56 -47 68 -102 68h-149v-315h-45zM109 661v-304h154c131 0 181 80 181 154c0 81 -62 164 -206 164
c-35 0 -84 -4 -129 -14z" />
    <glyph glyph-name="rcommaaccent" unicode="&#x157;" horiz-adv-x="306" 
d="M287 500l-5 -42c-15 5 -26 7 -40 7c-67 0 -110 -47 -138 -98v-367h-45v500h40l5 -80c25 46 74 87 135 87c15 0 31 -2 48 -7zM107 -65l-68 -135h-40l53 135h55z" />
    <glyph glyph-name="Rcaron" unicode="&#x158;" horiz-adv-x="544" 
d="M173 920l64 -82l64 82h52l-97 -125h-38l-97 125h52zM64 0v695c64 15 127 22 175 22c172 0 250 -103 250 -206c0 -78 -43 -155 -134 -184c19 -15 34 -37 47 -67l109 -260h-47l-104 247c-24 56 -47 68 -102 68h-149v-315h-45zM109 661v-304h154c131 0 181 80 181 154
c0 81 -62 164 -206 164c-35 0 -84 -4 -129 -14z" />
    <glyph glyph-name="rcaron" unicode="&#x159;" horiz-adv-x="306" 
d="M287 500l-5 -42c-15 5 -26 7 -40 7c-67 0 -110 -47 -138 -98v-367h-45v500h40l5 -80c25 46 74 87 135 87c15 0 31 -2 48 -7zM81 710l64 -82l64 82h52l-97 -125h-38l-97 125h52z" />
    <glyph glyph-name="Scircumflex" unicode="&#x15c;" horiz-adv-x="524" 
d="M478 167c0 -129 -100 -174 -210 -174c-76 0 -160 21 -228 51l8 45c42 -23 136 -54 220 -54s165 31 165 132c0 192 -376 160 -376 372c0 135 109 178 224 178c69 0 138 -15 191 -36l-8 -40c-43 17 -114 34 -182 34c-93 0 -180 -31 -180 -134c0 -174 376 -147 376 -374z
M274 877l-64 -82h-52l97 125h38l97 -125h-52z" />
    <glyph glyph-name="scircumflex" unicode="&#x15d;" horiz-adv-x="398" 
d="M352 482l-6 -39c-35 10 -87 22 -144 22c-64 0 -124 -21 -124 -81c0 -142 287 -77 287 -247c0 -111 -82 -144 -178 -144c-56 0 -115 10 -164 23l6 47c43 -13 102 -28 159 -28c70 0 132 23 132 102c0 124 -287 70 -287 247c0 92 78 123 163 123c56 0 115 -12 156 -25z
M199 667l-64 -82h-52l97 125h38l97 -125h-52z" />
    <glyph glyph-name="Scedilla" unicode="&#x15e;" horiz-adv-x="524" 
d="M220 -80l15 75c-67 5 -137 23 -195 49l8 45c42 -23 136 -54 220 -54s165 31 165 132c0 192 -376 160 -376 372c0 135 109 178 224 178c69 0 138 -15 191 -36l-8 -40c-43 17 -114 34 -182 34c-93 0 -180 -31 -180 -134c0 -174 376 -147 376 -374
c0 -127 -96 -172 -204 -174l-6 -33c38 -1 57 -24 57 -62c0 -41 -23 -75 -78 -75c-21 0 -46 5 -65 12l9 42c21 -8 39 -12 56 -12c28 0 38 13 38 32c0 14 -8 23 -25 23h-40z" />
    <glyph glyph-name="scedilla" unicode="&#x15f;" horiz-adv-x="398" 
d="M144 -80l14 74c-47 2 -94 11 -135 22l6 47c43 -13 102 -28 159 -28c70 0 132 23 132 102c0 124 -287 70 -287 247c0 92 78 123 163 123c56 0 115 -12 156 -25l-6 -39c-35 10 -87 22 -144 22c-64 0 -124 -21 -124 -81c0 -142 287 -77 287 -247c0 -107 -76 -141 -167 -144
l-6 -33c38 -1 57 -24 57 -62c0 -41 -23 -75 -78 -75c-21 0 -46 5 -65 12l9 42c21 -8 39 -12 56 -12c28 0 38 13 38 32c0 14 -8 23 -25 23h-40z" />
    <glyph glyph-name="Tcommaaccent" unicode="&#x162;" horiz-adv-x="583" 
d="M248 668h-240v42h525v-42h-240v-668h-45v668zM295 -65l-68 -135h-40l53 135h55z" />
    <glyph glyph-name="tcommaaccent" unicode="&#x163;" horiz-adv-x="276" 
d="M144 -65l-68 -135h-40l53 135h55zM81 99v359h-67v42h67v141l45 9v-150h115v-42h-115v-358c0 -45 22 -65 53 -65c17 0 37 6 57 18l3 -41c-19 -12 -43 -19 -64 -19c-49 0 -94 34 -94 106z" />
    <glyph glyph-name="Tcaron" unicode="&#x164;" horiz-adv-x="583" 
d="M269 668h-240v42h525v-42h-240v-668h-45v668zM227 920l64 -82l64 82h52l-97 -125h-38l-97 125h52z" />
    <glyph glyph-name="tcaron" unicode="&#x165;" horiz-adv-x="276" 
d="M321 710l-60 -150h-45l35 150h70zM81 99v359h-67v42h67v141l45 9v-150h115v-42h-115v-358c0 -45 22 -65 53 -65c17 0 37 6 57 18l3 -41c-19 -12 -43 -19 -64 -19c-49 0 -94 34 -94 106z" />
    <glyph glyph-name="Tbar" unicode="&#x166;" horiz-adv-x="583" 
d="M104 416h165v252h-240v42h525v-42h-240v-252h164v-42h-164v-374h-45v374h-165v42z" />
    <glyph glyph-name="tbar" unicode="&#x167;" horiz-adv-x="276" 
d="M14 300h67v158h-67v42h67v141l45 9v-150h115v-42h-115v-158h115v-42h-115v-158c0 -45 22 -65 53 -65c17 0 37 6 57 18l3 -41c-19 -12 -43 -19 -64 -19c-49 0 -94 34 -94 106v159h-67v42z" />
    <glyph glyph-name="Utilde" unicode="&#x168;" horiz-adv-x="633" 
d="M373 849c15 0 30 14 34 45l43 -11c-9 -46 -40 -76 -78 -76c-47 0 -80 49 -111 49c-16 0 -31 -14 -35 -45l-43 11c9 46 40 76 78 76c46 0 76 -49 112 -49zM572 710v-469c0 -174 -130 -248 -256 -248s-255 74 -255 248v469h45v-469c0 -147 106 -206 210 -206
s211 59 211 206v469h45z" />
    <glyph glyph-name="utilde" unicode="&#x169;" horiz-adv-x="469" 
d="M365 141v359h45v-500h-40l-5 90c-41 -51 -107 -97 -181 -97c-68 0 -125 40 -125 132v375h45v-375c0 -60 27 -90 80 -90c67 0 139 53 181 106zM291 639c15 0 30 14 34 45l43 -11c-9 -46 -40 -76 -78 -76c-47 0 -80 49 -111 49c-16 0 -31 -14 -35 -45l-43 11
c9 46 40 76 78 76c46 0 76 -49 112 -49z" />
    <glyph glyph-name="Umacron" unicode="&#x16a;" horiz-adv-x="633" 
d="M179 837h274v-42h-274v42zM572 710v-469c0 -174 -130 -248 -256 -248s-255 74 -255 248v469h45v-469c0 -147 106 -206 210 -206s211 59 211 206v469h45z" />
    <glyph glyph-name="umacron" unicode="&#x16b;" horiz-adv-x="469" 
d="M365 141v359h45v-500h-40l-5 90c-41 -51 -107 -97 -181 -97c-68 0 -125 40 -125 132v375h45v-375c0 -60 27 -90 80 -90c67 0 139 53 181 106zM97 627h274v-42h-274v42z" />
    <glyph glyph-name="Ubreve" unicode="&#x16c;" horiz-adv-x="633" 
d="M221 868v52h42v-49c0 -25 23 -36 52 -36c20 0 38 5 54 12v73h42v-95c-34 -20 -63 -30 -97 -30c-49 0 -93 23 -93 73zM572 710v-469c0 -174 -130 -248 -256 -248s-255 74 -255 248v469h45v-469c0 -147 106 -206 210 -206s211 59 211 206v469h45z" />
    <glyph glyph-name="ubreve" unicode="&#x16d;" horiz-adv-x="469" 
d="M365 141v359h45v-500h-40l-5 90c-41 -51 -107 -97 -181 -97c-68 0 -125 40 -125 132v375h45v-375c0 -60 27 -90 80 -90c67 0 139 53 181 106zM139 658v52h42v-49c0 -25 23 -36 52 -36c20 0 38 5 54 12v73h42v-95c-34 -20 -63 -30 -97 -30c-49 0 -93 23 -93 73z" />
    <glyph glyph-name="Uring" unicode="&#x16e;" horiz-adv-x="633" 
d="M248 858c0 41 28 69 68 69c41 0 69 -28 69 -69c0 -40 -28 -68 -69 -68c-40 0 -68 28 -68 68zM284 858c0 -21 11 -32 32 -32c22 0 33 11 33 32c0 22 -11 33 -33 33c-21 0 -32 -11 -32 -33zM572 710v-469c0 -174 -130 -248 -256 -248s-255 74 -255 248v469h45v-469
c0 -147 106 -206 210 -206s211 59 211 206v469h45z" />
    <glyph glyph-name="uring" unicode="&#x16f;" horiz-adv-x="469" 
d="M365 141v359h45v-500h-40l-5 90c-41 -51 -107 -97 -181 -97c-68 0 -125 40 -125 132v375h45v-375c0 -60 27 -90 80 -90c67 0 139 53 181 106zM166 648c0 41 28 69 68 69c41 0 69 -28 69 -69c0 -40 -28 -68 -69 -68c-40 0 -68 28 -68 68zM202 648c0 -21 11 -32 32 -32
c22 0 33 11 33 32c0 22 -11 33 -33 33c-21 0 -32 -11 -32 -33z" />
    <glyph glyph-name="Uogonek" unicode="&#x172;" horiz-adv-x="633" 
d="M374 0c-21 -5 -42 -7 -58 -7c-126 0 -255 74 -255 248v469h45v-469c0 -147 106 -206 210 -206s211 59 211 206v469h45v-469c0 -113 -56 -183 -128 -219c-54 -42 -101 -80 -101 -119c0 -25 14 -40 40 -40c11 0 24 3 38 9l6 -39c-17 -7 -30 -10 -46 -10
c-44 0 -79 27 -79 76c0 48 33 78 72 101z" />
    <glyph glyph-name="uogonek" unicode="&#x173;" horiz-adv-x="469" 
d="M370 0l-5 90c-41 -51 -107 -97 -181 -97c-68 0 -125 40 -125 132v375h45v-375c0 -60 27 -90 80 -90c67 0 139 53 181 106v359h45v-500c-41 -29 -71 -58 -71 -97c0 -25 14 -40 40 -40c11 0 24 3 38 9l6 -39c-17 -7 -30 -10 -46 -10c-44 0 -79 27 -79 76c0 48 33 78 72 101
z" />
    <glyph glyph-name="Wcircumflex" unicode="&#x174;" horiz-adv-x="828" 
d="M278 0h-46l-217 710h45l195 -646l195 646h45l-59 -192l137 -454l195 646h45l-217 -710h-46l-136 445zM414 877l-64 -82h-52l97 125h38l97 -125h-52z" />
    <glyph glyph-name="wcircumflex" unicode="&#x175;" horiz-adv-x="583" 
d="M375 28l-84 297l-83 -297c-6 -21 -14 -28 -38 -28h-16l-141 500h46l118 -440l118 440h46l-27 -96l92 -344l118 440h46l-141 -500h-16c-24 0 -32 7 -38 28zM291 667l-64 -82h-52l97 125h38l97 -125h-52z" />
    <glyph glyph-name="Ycircumflex" unicode="&#x176;" horiz-adv-x="561" 
d="M280 331l220 379h49l-246 -424v-286h-45v286l-246 424h49zM280 877l-64 -82h-52l97 125h38l97 -125h-52z" />
    <glyph glyph-name="ycircumflex" unicode="&#x177;" horiz-adv-x="478" 
d="M240 57l169 443h49l-244 -622c-23 -60 -63 -85 -111 -85c-28 0 -58 10 -89 28l5 43c28 -19 55 -29 84 -29c33 0 58 16 73 56l42 109l-198 500h49zM239 667l-64 -82h-52l97 125h38l97 -125h-52z" />
    <glyph glyph-name="Zdotaccent" unicode="&#x17b;" horiz-adv-x="538" 
d="M508 0h-478v42l398 626h-370v42h421v-42l-399 -626h428v-42zM228 852c0 23 18 41 41 41s41 -18 41 -41s-18 -41 -41 -41s-41 18 -41 41z" />
    <glyph glyph-name="zdotaccent" unicode="&#x17c;" horiz-adv-x="434" 
d="M400 0h-370v42l305 416h-294v42h345v-42l-306 -416h320v-42zM176 642c0 23 18 41 41 41s41 -18 41 -41s-18 -41 -41 -41s-41 18 -41 41z" />
    <glyph glyph-name="Cacute" unicode="&#x106;" horiz-adv-x="530" 
d="M489 91l10 -40c-63 -43 -125 -58 -182 -58c-149 0 -272 81 -272 299v95c0 215 112 330 273 330c52 0 108 -11 166 -42l-9 -39c-54 26 -109 39 -158 39c-125 0 -227 -87 -227 -285v-100c0 -180 104 -255 227 -255c55 0 119 18 172 56zM418 920l-93 -125h-46l79 125h60z
" />
    <glyph glyph-name="cacute" unicode="&#x107;" horiz-adv-x="425" 
d="M385 73l5 -43c-47 -25 -89 -37 -135 -37c-127 0 -217 85 -217 235v29c0 157 88 250 218 250c38 0 80 -8 124 -25l-5 -43c-43 17 -79 26 -116 26c-104 0 -176 -66 -176 -208v-29c0 -126 74 -193 172 -193c44 0 81 12 130 38zM358 710l-93 -125h-46l79 125h60z" />
    <glyph glyph-name="Nacute" unicode="&#x143;" horiz-adv-x="580" 
d="M457 0l-348 634v-634h-45v710h54l353 -643v643h45v-710h-59zM415 920l-93 -125h-46l79 125h60z" />
    <glyph glyph-name="nacute" unicode="&#x144;" horiz-adv-x="469" 
d="M104 350v-350h-45v500h40l5 -99c41 51 107 106 181 106c68 0 125 -37 125 -129v-378h-45v378c0 60 -27 87 -80 87c-67 0 -139 -62 -181 -115zM358 710l-93 -125h-46l79 125h60z" />
    <glyph glyph-name="Racute" unicode="&#x154;" horiz-adv-x="544" 
d="M64 0v695c64 15 127 22 175 22c172 0 250 -103 250 -206c0 -78 -43 -155 -134 -184c19 -15 34 -37 47 -67l109 -260h-47l-104 247c-24 56 -47 68 -102 68h-149v-315h-45zM109 661v-304h154c131 0 181 80 181 154c0 81 -62 164 -206 164c-35 0 -84 -4 -129 -14zM341 920
l-93 -125h-46l79 125h60z" />
    <glyph glyph-name="racute" unicode="&#x155;" horiz-adv-x="306" 
d="M287 500l-5 -42c-15 5 -26 7 -40 7c-67 0 -110 -47 -138 -98v-367h-45v500h40l5 -80c25 46 74 87 135 87c15 0 31 -2 48 -7zM253 710l-93 -125h-46l79 125h60z" />
    <glyph glyph-name="Sacute" unicode="&#x15a;" horiz-adv-x="524" 
d="M478 167c0 -129 -100 -174 -210 -174c-76 0 -160 21 -228 51l8 45c42 -23 136 -54 220 -54s165 31 165 132c0 192 -376 160 -376 372c0 135 109 178 224 178c69 0 138 -15 191 -36l-8 -40c-43 17 -114 34 -182 34c-93 0 -180 -31 -180 -134c0 -174 376 -147 376 -374z
M375 920l-93 -125h-46l79 125h60z" />
    <glyph glyph-name="sacute" unicode="&#x15b;" horiz-adv-x="398" 
d="M352 482l-6 -39c-35 10 -87 22 -144 22c-64 0 -124 -21 -124 -81c0 -142 287 -77 287 -247c0 -111 -82 -144 -178 -144c-56 0 -115 10 -164 23l6 47c43 -13 102 -28 159 -28c70 0 132 23 132 102c0 124 -287 70 -287 247c0 92 78 123 163 123c56 0 115 -12 156 -25z
M315 710l-93 -125h-46l79 125h60z" />
    <glyph glyph-name="Uhungarumlaut" unicode="&#x170;" horiz-adv-x="633" 
d="M572 710v-469c0 -174 -130 -248 -256 -248s-255 74 -255 248v469h45v-469c0 -147 106 -206 210 -206s211 59 211 206v469h45zM380 920l-93 -125h-46l79 125h60zM484 920l-93 -125h-46l79 125h60z" />
    <glyph glyph-name="uhungarumlaut" unicode="&#x171;" horiz-adv-x="469" 
d="M365 141v359h45v-500h-40l-5 90c-41 -51 -107 -97 -181 -97c-68 0 -125 40 -125 132v375h45v-375c0 -60 27 -90 80 -90c67 0 139 53 181 106zM297 710l-93 -125h-46l79 125h60zM401 710l-93 -125h-46l79 125h60z" />
    <glyph glyph-name="Ohungarumlaut" unicode="&#x150;" horiz-adv-x="636" 
d="M316 675c-151 0 -235 -128 -235 -288v-64c0 -160 84 -288 235 -288s235 128 235 288v64c0 160 -84 288 -235 288zM316 -7c-173 0 -280 131 -280 333v58c0 202 107 333 280 333s280 -131 280 -333v-58c0 -202 -107 -333 -280 -333zM375 920l-93 -125h-46l79 125h60z
M479 920l-93 -125h-46l79 125h60z" />
    <glyph glyph-name="ohungarumlaut" unicode="&#x151;" horiz-adv-x="500" 
d="M250 -7c-160 0 -213 113 -213 238v38c0 125 53 238 213 238s213 -113 213 -238v-38c0 -125 -53 -238 -213 -238zM250 35c120 0 168 85 168 200v30c0 115 -48 200 -168 200s-168 -85 -168 -200v-30c0 -115 48 -200 168 -200zM312 710l-93 -125h-46l79 125h60zM416 710
l-93 -125h-46l79 125h60z" />
    <glyph glyph-name="Zacute" unicode="&#x179;" horiz-adv-x="538" 
d="M508 0h-478v42l398 626h-370v42h421v-42l-399 -626h428v-42zM381 920l-93 -125h-46l79 125h60z" />
    <glyph glyph-name="zacute" unicode="&#x17a;" horiz-adv-x="434" 
d="M400 0h-370v42l305 416h-294v42h345v-42l-306 -416h320v-42zM332 710l-93 -125h-46l79 125h60z" />
    <glyph glyph-name="Agrave" unicode="&#xc0;" horiz-adv-x="600" 
d="M61 0h-42l258 710h46l258 -710h-42l-88 241h-303zM436 283l-136 375l-136 -375h272zM278 795l-93 125h60l79 -125h-46z" />
    <glyph glyph-name="Aacute" unicode="&#xc1;" horiz-adv-x="600" 
d="M61 0h-42l258 710h46l258 -710h-42l-88 241h-303zM436 283l-136 375l-136 -375h272zM414 920l-93 -125h-46l79 125h60z" />
    <glyph glyph-name="Egrave" unicode="&#xc8;" horiz-adv-x="510" 
d="M469 0h-405v710h391v-42h-346v-291h303v-42h-303v-293h360v-42zM246 795l-93 125h60l79 -125h-46z" />
    <glyph glyph-name="Eacute" unicode="&#xc9;" horiz-adv-x="510" 
d="M469 0h-405v710h391v-42h-346v-291h303v-42h-303v-293h360v-42zM379 920l-93 -125h-46l79 125h60z" />
    <glyph glyph-name="Igrave" unicode="&#xcc;" horiz-adv-x="185" 
d="M115 710v-710h-45v710h45zM73 795l-93 125h60l79 -125h-46z" />
    <glyph glyph-name="Iacute" unicode="&#xcd;" horiz-adv-x="185" 
d="M115 710v-710h-45v710h45zM208 920l-93 -125h-46l79 125h60z" />
    <glyph glyph-name="Oacute" unicode="&#xd3;" horiz-adv-x="636" 
d="M316 675c-151 0 -235 -128 -235 -288v-64c0 -160 84 -288 235 -288s235 128 235 288v64c0 160 -84 288 -235 288zM316 -7c-173 0 -280 131 -280 333v58c0 202 107 333 280 333s280 -131 280 -333v-58c0 -202 -107 -333 -280 -333zM431 920l-93 -125h-46l79 125h60z" />
    <glyph glyph-name="Ograve" unicode="&#xd2;" horiz-adv-x="636" 
d="M316 675c-151 0 -235 -128 -235 -288v-64c0 -160 84 -288 235 -288s235 128 235 288v64c0 160 -84 288 -235 288zM316 -7c-173 0 -280 131 -280 333v58c0 202 107 333 280 333s280 -131 280 -333v-58c0 -202 -107 -333 -280 -333zM295 795l-93 125h60l79 -125h-46z" />
    <glyph glyph-name="Ugrave" unicode="&#xd9;" horiz-adv-x="633" 
d="M572 710v-469c0 -174 -130 -248 -256 -248s-255 74 -255 248v469h45v-469c0 -147 106 -206 210 -206s211 59 211 206v469h45zM294 795l-93 125h60l79 -125h-46z" />
    <glyph glyph-name="Uacute" unicode="&#xda;" horiz-adv-x="633" 
d="M572 710v-469c0 -174 -130 -248 -256 -248s-255 74 -255 248v469h45v-469c0 -147 106 -206 210 -206s211 59 211 206v469h45zM430 920l-93 -125h-46l79 125h60z" />
    <glyph glyph-name="Yacute" unicode="&#xdd;" horiz-adv-x="561" 
d="M280 331l220 379h49l-246 -424v-286h-45v286l-246 424h49zM394 920l-93 -125h-46l79 125h60z" />
    <glyph glyph-name="agrave" unicode="&#xe0;" horiz-adv-x="443" 
d="M344 0l-5 64c-40 -40 -106 -71 -169 -71c-94 0 -136 67 -136 137c0 77 50 145 167 153l138 9v58c0 88 -64 115 -130 115c-48 0 -98 -15 -140 -31l-5 43c48 20 100 30 147 30c91 0 173 -44 173 -154v-353h-40zM339 251l-137 -10c-87 -6 -123 -55 -123 -110
c0 -50 25 -96 91 -96c63 0 129 34 169 72v144zM201 585l-93 125h60l79 -125h-46z" />
    <glyph glyph-name="aacute" unicode="&#xe1;" horiz-adv-x="443" 
d="M344 0l-5 64c-40 -40 -106 -71 -169 -71c-94 0 -136 67 -136 137c0 77 50 145 167 153l138 9v58c0 88 -64 115 -130 115c-48 0 -98 -15 -140 -31l-5 43c48 20 100 30 147 30c91 0 173 -44 173 -154v-353h-40zM339 251l-137 -10c-87 -6 -123 -55 -123 -110
c0 -50 25 -96 91 -96c63 0 129 34 169 72v144zM336 710l-93 -125h-46l79 125h60z" />
    <glyph glyph-name="egrave" unicode="&#xe8;" horiz-adv-x="454" 
d="M410 219h-325c5 -118 62 -184 171 -184c38 0 76 12 123 33l6 -43c-45 -22 -89 -32 -129 -32c-145 0 -216 97 -216 243c0 180 97 271 205 271c90 0 175 -70 175 -208c0 -25 -3 -52 -10 -80zM244 465c-80 0 -151 -69 -159 -204h287c2 13 3 26 3 38c0 109 -63 166 -131 166z
M209 585l-93 125h60l79 -125h-46z" />
    <glyph glyph-name="eacute" unicode="&#xe9;" horiz-adv-x="454" 
d="M410 219h-325c5 -118 62 -184 171 -184c38 0 76 12 123 33l6 -43c-45 -22 -89 -32 -129 -32c-145 0 -216 97 -216 243c0 180 97 271 205 271c90 0 175 -70 175 -208c0 -25 -3 -52 -10 -80zM244 465c-80 0 -151 -69 -159 -204h287c2 13 3 26 3 38c0 109 -63 166 -131 166z
M342 710l-93 -125h-46l79 125h60z" />
    <glyph glyph-name="igrave" unicode="&#xec;" horiz-adv-x="198" 
d="M89 0v430c0 20 -7 28 -27 28h-32v42h34c50 0 70 -19 70 -69v-431h-45zM76 585l-93 125h60l79 -125h-46z" />
    <glyph glyph-name="iacute" unicode="&#xed;" horiz-adv-x="198" 
d="M89 0v430c0 20 -7 28 -27 28h-32v42h34c50 0 70 -19 70 -69v-431h-45zM212 710l-93 -125h-46l79 125h60z" />
    <glyph glyph-name="ograve" unicode="&#xf2;" horiz-adv-x="500" 
d="M250 -7c-160 0 -213 113 -213 238v38c0 125 53 238 213 238s213 -113 213 -238v-38c0 -125 -53 -238 -213 -238zM250 35c120 0 168 85 168 200v30c0 115 -48 200 -168 200s-168 -85 -168 -200v-30c0 -115 48 -200 168 -200zM229 585l-93 125h60l79 -125h-46z" />
    <glyph glyph-name="oacute" unicode="&#xf3;" horiz-adv-x="500" 
d="M250 -7c-160 0 -213 113 -213 238v38c0 125 53 238 213 238s213 -113 213 -238v-38c0 -125 -53 -238 -213 -238zM250 35c120 0 168 85 168 200v30c0 115 -48 200 -168 200s-168 -85 -168 -200v-30c0 -115 48 -200 168 -200zM364 710l-93 -125h-46l79 125h60z" />
    <glyph glyph-name="ugrave" unicode="&#xf9;" horiz-adv-x="469" 
d="M365 141v359h45v-500h-40l-5 90c-41 -51 -107 -97 -181 -97c-68 0 -125 40 -125 132v375h45v-375c0 -60 27 -90 80 -90c67 0 139 53 181 106zM215 585l-93 125h60l79 -125h-46z" />
    <glyph glyph-name="uacute" unicode="&#xfa;" horiz-adv-x="469" 
d="M365 141v359h45v-500h-40l-5 90c-41 -51 -107 -97 -181 -97c-68 0 -125 40 -125 132v375h45v-375c0 -60 27 -90 80 -90c67 0 139 53 181 106zM352 710l-93 -125h-46l79 125h60z" />
    <glyph glyph-name="yacute" unicode="&#xfd;" horiz-adv-x="478" 
d="M240 57l169 443h49l-244 -622c-23 -60 -63 -85 -111 -85c-28 0 -58 10 -89 28l5 43c28 -19 55 -29 84 -29c33 0 58 16 73 56l42 109l-198 500h49zM358 710l-93 -125h-46l79 125h60z" />
    <glyph glyph-name="zero.pnum" horiz-adv-x="483" 
d="M443 289c0 -83 -12 -150 -37 -199c-34 -65 -89 -97 -165 -97s-130 32 -164 95c-25 50 -38 117 -38 201c0 83 13 149 38 199c34 65 89 98 164 98s130 -33 163 -97c27 -50 39 -116 39 -200zM391 289c0 68 -9 122 -25 163c-25 61 -67 90 -125 90c-45 0 -80 -17 -105 -53
c-29 -44 -44 -111 -44 -200c0 -69 8 -123 25 -164c24 -60 65 -90 124 -90s101 30 125 89c16 39 25 93 25 165z" />
    <glyph glyph-name="one.pnum" horiz-adv-x="305" 
d="M245 577v-577h-53v428h-152v38c54 0 90 5 109 15c28 15 46 47 53 96h43z" />
    <glyph glyph-name="two.pnum" horiz-adv-x="443" 
d="M411 48v-48h-381c0 69 34 130 102 183c58 44 117 85 176 129c31 34 48 64 48 109c0 72 -55 118 -129 118c-90 0 -130 -68 -130 -161h-53c0 125 61 205 185 205c105 0 179 -58 179 -163c0 -43 -15 -83 -44 -119c-21 -27 -55 -56 -101 -86c-34 -24 -68 -46 -103 -68
c-41 -33 -64 -66 -71 -99h322z" />
    <glyph glyph-name="three.pnum" horiz-adv-x="445" 
d="M423 168c0 -110 -85 -174 -199 -174c-122 0 -198 70 -198 194h52c0 -91 53 -152 145 -152c81 0 147 47 147 127s-58 123 -139 123h-43v43h43c30 0 57 9 79 25c26 19 39 47 39 81c0 71 -53 108 -126 108c-86 0 -131 -58 -131 -146h-53c0 110 71 190 183 190
c51 0 91 -11 123 -35c37 -26 55 -64 55 -112c0 -64 -35 -113 -96 -128c76 -14 119 -68 119 -144z" />
    <glyph glyph-name="four.pnum" horiz-adv-x="472" 
d="M436 187v-43h-87v-144h-48v144h-266v49l267 384h47v-390h87zM81 187h220v314z" />
    <glyph glyph-name="five.pnum" horiz-adv-x="457" 
d="M424 189c0 -56 -19 -103 -58 -139s-86 -55 -142 -55c-110 0 -190 67 -190 175h52c0 -78 62 -133 143 -133c85 0 143 71 143 157c0 85 -62 150 -148 150c-51 0 -99 -22 -128 -69h-44l55 301h289v-48h-252l-37 -191c30 31 78 51 124 51c118 0 193 -80 193 -199z" />
    <glyph glyph-name="six.pnum" horiz-adv-x="465" 
d="M432 188c0 -57 -19 -104 -57 -140c-36 -36 -83 -54 -140 -54c-140 0 -202 82 -202 305c0 66 10 122 31 169c35 79 94 119 175 119c106 0 166 -50 178 -151h-51c-10 66 -55 107 -122 107c-59 0 -102 -29 -129 -90c-20 -45 -30 -101 -30 -168c30 58 91 95 155 95
c116 0 192 -78 192 -192zM380 185c0 86 -55 152 -141 152c-88 0 -142 -64 -142 -152c0 -89 48 -149 143 -149c81 0 140 66 140 149z" />
    <glyph glyph-name="seven.pnum" horiz-adv-x="469" 
d="M423 570v-47c-61 -61 -107 -125 -144 -189c-60 -106 -90 -217 -90 -334h-56c0 94 20 183 59 267c36 76 95 161 179 256h-319v47h371z" />
    <glyph glyph-name="eight.pnum" horiz-adv-x="471" 
d="M432 165c0 -111 -85 -172 -200 -172c-58 0 -105 14 -141 40c-39 32 -58 76 -58 132c0 77 44 133 118 147c-63 22 -94 64 -94 129c0 47 18 83 55 110c32 24 71 35 120 35c46 0 86 -11 118 -35c38 -26 57 -63 57 -110c0 -62 -35 -109 -94 -127v-2c74 -14 119 -69 119 -147z
M356 441c0 64 -50 101 -124 101c-69 0 -124 -37 -124 -101c0 -37 13 -64 39 -82c21 -16 49 -24 85 -24c70 0 124 35 124 106zM379 165c0 81 -62 126 -147 126c-84 0 -147 -45 -147 -126c0 -84 61 -130 147 -130c43 0 78 10 104 31c28 24 43 57 43 99z" />
    <glyph glyph-name="nine.pnum" horiz-adv-x="469" 
d="M431 277c0 -66 -10 -120 -31 -169c-35 -78 -94 -117 -176 -117c-105 0 -164 50 -177 149h52c8 -65 55 -107 121 -107c59 0 102 30 128 90c20 44 30 100 30 168c-29 -58 -89 -96 -155 -96c-115 0 -191 79 -191 194c0 56 18 102 55 139s85 56 142 56
c141 0 202 -84 202 -307zM367 392c0 43 -11 78 -33 104c-26 30 -63 44 -111 44c-80 0 -138 -65 -138 -148c0 -87 53 -153 139 -153c90 0 143 64 143 153z" />
    <glyph glyph-name="ellipsis" unicode="&#x2026;" horiz-adv-x="588" 
d="M54 37c0 24 20 44 44 44s44 -20 44 -44s-20 -44 -44 -44s-44 20 -44 44zM250 37c0 24 20 44 44 44s44 -20 44 -44s-20 -44 -44 -44s-44 20 -44 44zM446 37c0 24 20 44 44 44s44 -20 44 -44s-20 -44 -44 -44s-44 20 -44 44z" />
    <glyph glyph-name="uni0000" horiz-adv-x="833" 
 />
    <glyph glyph-name="uni0000" horiz-adv-x="833" 
 />
    <glyph glyph-name="quotedbl" unicode="&#x22;" horiz-adv-x="243" 
d="M204 722v-201h-53v201h53zM94 722v-201h-53v201h53z" />
    <glyph glyph-name="exclam" unicode="!" horiz-adv-x="191" 
d="M124 589v-175l-13 -268h-31l-12 268v175h56zM140 44c0 -25 -17 -46 -44 -46c-29 0 -43 15 -43 46c0 32 14 47 43 47c30 0 44 -15 44 -47z" />
    </font>
</defs>
</svg>
