<?xml version="1.0" standalone="no"?>
<!DOCTYPE svg PUBLIC "-//W3C//DTD SVG 1.1//EN" "http://www.w3.org/Graphics/SVG/1.1/DTD/svg11.dtd" >
<svg>
<metadata>
Created by FontForge 20120731 at Mon Feb 26 08:21:20 2018
 By www-data
Copyright (c) 2017 by trueplookpanya. All rights reserved.
</metadata>
<defs>
<font id="TrueTextBOnline-Bold" horiz-adv-x="0" >
  <font-face
    font-family="TrueTextBOnline"
    font-weight="700"
    font-stretch="normal"
    units-per-em="1000"
    panose-1="2 0 0 0 0 0 0 0 0 0"
    ascent="750"
    descent="-250"
    x-height="429"
    cap-height="592"
    bbox="-588 -497 974 1022"
    underline-thickness="35"
    underline-position="-74"
    stemh="42"
    stemv="45"
    unicode-range="U+0020-F882"
  />
<missing-glyph horiz-adv-x="524"
 />
    <glyph glyph-name="quotedblleft" unicode="&#x2018;&#x2018;" horiz-adv-x="327"
d="M285 472c0 -37 -26 -63 -60 -63c-35 0 -59 29 -59 70c0 59 23 107 72 142l48 -33c-26 -17 -46 -38 -53 -55c30 -3 52 -25 52 -61zM149 472c0 -37 -27 -63 -59 -63c-35 0 -61 29 -61 70c0 59 25 107 71 142l51 -33c-27 -18 -48 -38 -54 -55c29 -3 52 -25 52 -61z" />
    <glyph glyph-name="quotedblright" unicode="&#x2019;&#x2019;" horiz-adv-x="329"
d="M30 556c0 37 27 63 61 63s59 -29 59 -70c0 -60 -24 -106 -71 -141l-51 32c27 17 47 38 54 54c-30 5 -52 28 -52 62zM167 556c0 37 27 63 59 63c35 0 60 -29 60 -70c0 -60 -24 -106 -71 -141l-50 32c25 17 45 39 52 54c-29 5 -50 28 -50 62z" />
    <glyph glyph-name="rulakkhangyao" unicode="&#xe24;&#xe32;" horiz-adv-x="912"
d="M434 362v-538h-70v539c0 61 -57 91 -129 91c-56 0 -93 -13 -118 -41c23 -9 55 -24 88 -44c-21 -14 -38 -28 -48 -40c-15 -18 -21 -32 -21 -46v-108c9 3 19 4 26 4c50 0 93 -37 93 -92c0 -54 -45 -91 -95 -91c-58 0 -94 36 -94 96v192c0 28 15 56 35 74
c-24 10 -50 17 -84 26c39 83 117 135 217 135c120 0 200 -52 200 -157zM191 87c0 18 -10 29 -30 29c-19 0 -29 -11 -29 -29c0 -20 10 -30 29 -30c20 0 30 10 30 30zM814 361v-540h-71v537c0 61 -38 93 -101 93c-58 0 -100 -29 -116 -99h-68c11 99 82 164 184 164
s172 -61 172 -155z" />
    <glyph glyph-name="lulakkhangyao" unicode="&#xe26;&#xe32;" horiz-adv-x="976"
d="M495 359v-538h-70v539c0 61 -56 91 -128 91c-56 0 -93 -14 -120 -41c24 -9 56 -23 90 -44c-22 -13 -40 -29 -50 -40c-12 -17 -19 -31 -19 -46v-191c0 -60 -36 -96 -92 -96c-49 0 -88 36 -88 91s38 92 86 92c9 0 16 0 23 -2v107c0 28 14 56 35 73c-24 9 -52 19 -83 27
c38 84 116 135 217 135c120 0 199 -52 199 -157zM133 84c0 17 -13 29 -28 29c-17 0 -27 -11 -27 -29s10 -30 27 -30c15 0 28 12 28 30zM862 361v-540h-71v537c0 61 -38 93 -101 93c-58 0 -100 -29 -116 -99h-68c11 99 82 164 184 164s172 -61 172 -155z" />
    <glyph glyph-name="copyright2" unicode="&#x3b;&#x3b;For&#x20;Education&#x20;Used&#x20;Only&#x3b;&#x3b;" horiz-adv-x="702"
d="M657 306c0 -87 -30 -159 -89 -219c-58 -59 -132 -87 -219 -87c-88 0 -161 28 -220 87c-60 60 -89 132 -89 219c0 89 30 160 89 219c60 60 133 89 220 89s160 -29 219 -89c59 -59 89 -130 89 -219zM591 306c0 68 -23 127 -69 174c-45 48 -103 71 -173 71
c-69 0 -127 -23 -173 -71c-47 -45 -69 -105 -69 -174c0 -68 22 -127 69 -176c45 -46 103 -71 173 -71c68 0 128 27 173 71c43 48 69 110 69 176zM455 253h61c-13 -90 -77 -141 -160 -141c-113 0 -184 81 -184 194c0 115 70 194 184 194c83 0 147 -52 160 -141h-61
c-10 49 -44 85 -98 85c-77 0 -123 -56 -123 -138c0 -81 43 -139 123 -139c52 0 88 36 98 86z" />
    <glyph glyph-name="registered2" unicode="&#x3b;&#x3b;Registered&#x3b;&#x3b;" horiz-adv-x="702"
d="M651 305c0 -87 -31 -159 -90 -219c-58 -59 -132 -87 -219 -87c-88 0 -161 28 -220 87c-60 60 -89 132 -89 219c0 89 30 160 89 219c60 60 133 89 220 89s160 -29 219 -89c59 -59 90 -130 90 -219zM584 305c0 68 -23 127 -69 174c-45 48 -103 71 -173 71
c-69 0 -127 -23 -173 -71c-47 -45 -69 -105 -69 -174c0 -68 22 -127 69 -176c45 -46 103 -71 173 -71c68 0 128 27 173 71c43 48 69 110 69 176zM512 124l-104 155c48 13 80 46 80 103c0 70 -41 105 -121 105h-143v-363h62v152h57l96 -152h73zM426 382c0 37 -28 50 -72 50
h-68v-101h46c35 0 56 2 68 7c17 7 26 23 26 44z" />
    <glyph glyph-name="trademark2" unicode="&#x3b;&#x3b;Trademark&#x3b;&#x3b;" horiz-adv-x="591"
d="M43 627h211c12 0 22 -10 22 -22c0 -14 -10 -23 -22 -23h-83v-268c0 -12 -9 -22 -23 -22c-13 0 -21 10 -21 22v268h-84c-14 0 -22 9 -22 23c0 12 8 22 22 22zM536 632l2 -1c8 -3 15 -10 15 -21v-295c0 -12 -11 -22 -23 -22s-22 10 -22 22v217l-65 -103l1 1
c-4 -8 -11 -12 -20 -12c-6 0 -12 2 -14 5l-70 109v-217c0 -12 -11 -22 -23 -22c-13 0 -23 10 -23 22v295c0 10 9 18 18 22c10 2 20 -2 25 -11h-1l87 -138c29 47 59 92 88 138c5 9 14 13 25 11z" />
    <glyph glyph-name="multiply2" unicode="&#x3b;&#x3b;Multiply&#x3b;&#x3b;" horiz-adv-x="474"
d="M279 255l153 -153l-44 -45l-152 154l-152 -152l-45 44l153 152l-153 152l45 43l152 -152l152 152l44 -42z" />
    <glyph glyph-name="divide2" unicode="&#x3b;&#x3b;Divide&#x3b;&#x3b;" horiz-adv-x="474"
d="M282 424c0 -35 -15 -52 -48 -52c-32 0 -49 17 -49 52s17 53 49 53c33 0 48 -18 48 -53zM439 290v-62h-409v62h409zM282 92c0 -34 -15 -50 -48 -50c-32 0 -49 16 -49 50c0 35 17 53 49 53c33 0 48 -18 48 -53z" />
    <glyph glyph-name=".notdef" horiz-adv-x="524"
 />
    <glyph glyph-name="NULL"
 />
    <glyph glyph-name="CR" horiz-adv-x="249"
 />
    <glyph glyph-name="space" unicode=" " horiz-adv-x="249"
 />
    <glyph glyph-name="numbersign" unicode="#" horiz-adv-x="483"
d="M442 397v-57h-90c-4 -36 -10 -68 -15 -106h84v-55h-91c-8 -56 -18 -125 -25 -179h-61l27 179h-94c-7 -56 -18 -125 -25 -179h-60l26 179h-88v55h95c5 35 11 69 14 106h-86v57h94c9 56 17 121 26 177h60l-26 -177h93c8 55 18 122 25 177h61l-27 -177h83zM278 234l15 106
h-94c-5 -35 -11 -69 -15 -106h94z" />
    <glyph glyph-name="dollar" unicode="$" horiz-adv-x="472"
d="M441 167c0 -52 -20 -94 -61 -127c-34 -24 -78 -39 -126 -41v-68h-49v70c-129 15 -183 78 -183 210h70c0 -89 37 -138 113 -150v217c-67 16 -113 41 -138 66c-20 24 -32 60 -32 103c0 98 72 163 170 167v63h49v-63c47 -2 86 -20 118 -52c36 -34 53 -82 53 -142h-70
c0 79 -36 130 -101 131v-213c73 -16 123 -38 150 -68c25 -27 37 -61 37 -103zM205 350v201c-56 -4 -98 -42 -98 -108c0 -26 6 -44 19 -59c13 -13 40 -25 79 -34zM371 166c0 31 -15 55 -41 72c-17 12 -41 23 -76 30v-209c29 2 58 12 78 25c24 19 39 47 39 82z" />
    <glyph glyph-name="percent" unicode="%" horiz-adv-x="720"
d="M667 156c0 -49 -10 -88 -31 -115c-23 -29 -60 -46 -106 -46c-92 0 -137 61 -137 161c0 98 43 161 137 161s137 -65 137 -161zM505 606h61l-373 -625h-64zM315 430c0 -50 -10 -87 -31 -115c-24 -30 -60 -48 -106 -48c-93 0 -136 64 -136 163c0 98 43 161 136 161
s137 -64 137 -161zM605 154c0 28 -5 51 -16 71c-12 24 -33 36 -59 36c-52 0 -75 -50 -75 -107c0 -29 5 -51 16 -71c12 -23 34 -33 59 -33c26 0 47 9 59 32c11 18 16 42 16 72zM253 430c0 27 -6 51 -16 71c-13 23 -33 35 -59 35c-55 0 -75 -48 -75 -106c0 -33 4 -56 15 -72
c12 -22 32 -34 60 -34c26 0 46 12 59 33c9 19 16 46 16 73z" />
    <glyph glyph-name="ampersand" unicode="&#x26;" horiz-adv-x="508"
d="M420 127l105 -127h-88l-57 68c-43 -44 -105 -78 -169 -78c-107 0 -182 62 -182 169c0 39 16 74 48 108c21 22 51 45 86 65c-23 30 -38 51 -40 55c-16 25 -25 54 -25 80c0 74 58 125 136 125s138 -51 138 -125c0 -34 -13 -65 -37 -94c-15 -16 -38 -36 -71 -58
c36 -44 72 -84 108 -129c9 22 9 45 9 87h71c0 -51 -8 -98 -32 -146zM301 467c0 40 -27 63 -67 63c-39 0 -65 -22 -65 -63c0 -17 6 -34 20 -56c5 -7 16 -24 37 -48c23 14 38 28 49 40h-1c19 21 27 41 27 64zM336 121l-131 163c-31 -18 -54 -34 -71 -52
c-23 -25 -36 -51 -36 -78c0 -60 53 -104 116 -104c47 0 89 29 122 71z" />
    <glyph glyph-name="quotesingle" unicode="'" horiz-adv-x="154"
d="M111 722v-215h-71v215h71z" />
    <glyph glyph-name="parenleft" unicode="(" horiz-adv-x="213"
d="M225 -46h-64c-79 133 -116 237 -116 375c0 137 40 260 117 381h62c-73 -115 -110 -261 -110 -400c0 -116 42 -239 111 -356z" />
    <glyph glyph-name="parenright" unicode=")" horiz-adv-x="202"
d="M-14 710h64c79 -132 116 -236 116 -374s-39 -261 -117 -382h-62c73 115 110 261 110 400c0 117 -41 239 -111 356z" />
    <glyph glyph-name="asterisk" unicode="*" horiz-adv-x="310"
d="M270 647l17 -47l-91 -31c17 -24 41 -54 56 -77l-43 -29l-54 78l-58 -78l-40 30l56 76l-89 31l16 48l90 -33v95h51v-95c28 9 62 23 89 32z" />
    <glyph glyph-name="plus" unicode="+" horiz-adv-x="453"
d="M419 262v-63h-167v-167h-62v167h-167v63h167v166h62v-166h167z" />
    <glyph glyph-name="comma" unicode="," horiz-adv-x="150"
d="M125 50c0 -51 -22 -96 -67 -128l-44 29c20 16 39 35 47 50c-27 3 -46 21 -46 56c0 31 24 57 55 57s55 -24 55 -64z" />
    <glyph glyph-name="hyphen" unicode="-" horiz-adv-x="460"
d="M425 284v-62h-396v62h396z" />
    <glyph glyph-name="period" unicode="." horiz-adv-x="196"
d="M148 51c0 -34 -21 -55 -51 -55c-31 0 -53 19 -53 55c0 33 22 55 53 55c30 0 51 -21 51 -55z" />
    <glyph glyph-name="slash" unicode="/" horiz-adv-x="302"
d="M245 610h61l-251 -614h-65z" />
    <glyph glyph-name="zero" unicode="0" horiz-adv-x="483"
d="M444 291c0 -84 -12 -150 -37 -199c-34 -66 -91 -99 -169 -99s-134 33 -169 97c-25 50 -37 117 -37 201c0 82 12 148 37 197c35 67 92 101 169 101s133 -34 167 -99c27 -49 39 -116 39 -199zM374 291c0 60 -11 117 -23 154c-23 52 -63 82 -113 82c-39 0 -72 -17 -95 -48
c-26 -40 -40 -106 -40 -188c0 -66 7 -117 23 -156c22 -54 59 -82 112 -82c52 0 90 28 113 81c14 36 23 88 23 157z" />
    <glyph glyph-name="one" unicode="1" horiz-adv-x="310"
d="M250 581v-581h-71v416h-148v57c57 0 93 5 111 13c23 14 41 45 48 95h60z" />
    <glyph glyph-name="two" unicode="2" horiz-adv-x="449"
d="M412 66v-66h-390c0 76 35 142 104 195l94 70c25 18 51 37 77 56c27 30 43 57 43 98c0 64 -50 105 -116 105c-81 0 -117 -66 -117 -156h-71c0 133 62 218 190 218c108 0 184 -60 184 -168c0 -43 -18 -86 -45 -121c-21 -26 -56 -57 -101 -86h1c-33 -23 -67 -45 -102 -66h1
c-35 -27 -53 -52 -62 -79h310z" />
    <glyph glyph-name="three" unicode="3" horiz-adv-x="448"
d="M424 173c0 -113 -86 -179 -203 -179c-125 0 -202 75 -202 208h70c0 -88 47 -148 131 -148c73 0 133 42 133 114c0 71 -52 110 -125 110h-52v61h52c25 0 50 9 71 23c21 16 34 42 34 71c0 62 -48 95 -113 95c-77 0 -118 -56 -118 -142h-71c0 119 73 204 188 204
c52 0 93 -12 125 -36c36 -26 58 -68 58 -116c0 -57 -25 -101 -71 -124c60 -21 93 -72 93 -141z" />
    <glyph glyph-name="four" unicode="4" horiz-adv-x="470"
d="M437 201v-61h-85v-140h-66v140h-258v60l264 381h60v-380h85zM100 201h186v266z" />
    <glyph glyph-name="five" unicode="5" horiz-adv-x="462"
d="M430 194c0 -58 -19 -105 -59 -142s-88 -57 -145 -57c-113 0 -195 73 -195 190h70c0 -76 57 -130 130 -130c77 0 129 65 129 143c0 77 -56 137 -134 137c-46 0 -91 -22 -119 -68h-60l56 313h300v-66h-246l-30 -151c30 22 68 34 106 34c120 0 197 -82 197 -203z" />
    <glyph glyph-name="six" unicode="6" horiz-adv-x="467"
d="M433 193c0 -59 -19 -106 -58 -143c-37 -37 -85 -56 -143 -56c-143 0 -206 83 -206 307c0 65 9 120 31 168c35 81 95 121 179 121c109 0 171 -55 183 -166h-69c-9 64 -50 104 -110 104c-49 0 -92 -34 -116 -82c-14 -34 -25 -76 -27 -124c34 43 84 67 140 67
c118 0 196 -80 196 -196zM363 190c0 77 -50 138 -127 138c-80 0 -129 -59 -129 -138c0 -81 44 -136 130 -136c73 0 126 61 126 136z" />
    <glyph glyph-name="seven" unicode="7" horiz-adv-x="471"
d="M424 574v-59c-58 -59 -106 -125 -141 -185c-54 -100 -86 -214 -86 -330h-74c0 99 19 191 58 273c33 71 85 148 161 236h-298v65h380z" />
    <glyph glyph-name="eight" unicode="8" horiz-adv-x="471"
d="M433 170c0 -114 -86 -177 -204 -177c-59 0 -106 15 -143 41c-41 33 -60 79 -60 136c0 69 37 123 95 145c-50 24 -72 64 -72 124c0 47 20 86 57 114c32 24 73 36 123 36c47 0 88 -12 120 -36c38 -27 60 -67 60 -114c0 -53 -29 -99 -72 -124c60 -21 96 -74 96 -145z
M340 439c0 56 -45 88 -111 88c-61 0 -111 -32 -111 -88c0 -33 12 -57 34 -72c19 -15 45 -22 77 -22c62 0 111 31 111 94zM362 170c0 73 -56 113 -133 113c-76 0 -133 -40 -133 -113c0 -76 55 -117 133 -117c39 0 71 9 95 29h-1c25 21 39 50 39 88z" />
    <glyph glyph-name="nine" unicode="9" horiz-adv-x="471"
d="M432 279c0 -65 -10 -119 -31 -168c-36 -80 -95 -120 -180 -120c-108 0 -168 56 -183 165h70c8 -64 50 -104 109 -104c54 0 93 27 116 81c15 35 24 75 27 126c-33 -42 -85 -69 -140 -69c-118 0 -195 80 -195 198c0 57 18 104 56 142s87 57 145 57c144 0 206 -84 206 -308z
M350 391c0 39 -9 71 -30 95v-1c-24 28 -57 40 -100 40c-72 0 -124 -59 -124 -134c0 -79 47 -139 125 -139c82 0 129 58 129 139z" />
    <glyph glyph-name="colon" unicode=":" horiz-adv-x="168"
d="M134 379c0 -34 -21 -55 -51 -55s-53 20 -53 55c0 34 23 57 53 57s51 -21 51 -57zM134 55c0 -34 -21 -54 -51 -54s-53 18 -53 54c0 34 23 57 53 57s51 -22 51 -57z" />
    <glyph glyph-name="semicolon" unicode=";" horiz-adv-x="168"
d="M136 379c0 -34 -21 -55 -51 -55s-53 20 -53 55c0 34 23 56 53 56s51 -19 51 -56zM140 50c0 -51 -22 -96 -67 -128l-45 30c22 15 41 35 49 50c-27 3 -48 22 -48 55c0 31 25 58 56 58s55 -25 55 -65z" />
    <glyph glyph-name="less" unicode="&#x3c;" horiz-adv-x="458"
d="M422 52v-63l-396 195v55l396 197v-64l-314 -160z" />
    <glyph glyph-name="equal" unicode="=" horiz-adv-x="452"
d="M418 339v-62h-395v62h395zM418 205v-61h-395v61h395z" />
    <glyph glyph-name="greater" unicode="&#x3e;" horiz-adv-x="465"
d="M32 372v62l396 -195v-55l-396 -197v65l315 159z" />
    <glyph glyph-name="question" unicode="?" horiz-adv-x="448"
d="M408 447c0 -32 -8 -62 -26 -87v1c-9 -15 -26 -34 -51 -59c-25 -23 -42 -39 -50 -51h1c-15 -27 -24 -64 -24 -111h-69c0 77 11 129 76 193c23 21 42 39 51 52c14 20 23 42 23 62c0 60 -47 91 -109 91c-82 0 -128 -61 -128 -155h-69c0 138 72 223 199 223
c103 0 176 -55 176 -159zM276 56c0 -29 -20 -56 -52 -56c-35 0 -52 18 -52 56s17 56 52 56s52 -18 52 -56z" />
    <glyph glyph-name="at" unicode="@" horiz-adv-x="691"
d="M636 345c0 -64 -19 -120 -60 -170c-40 -49 -86 -73 -136 -73c-29 0 -54 17 -62 44c-29 -26 -59 -43 -96 -43c-70 0 -116 55 -116 127c0 61 20 116 56 166c40 51 88 76 146 76c36 0 64 -14 83 -53l14 37h62l-81 -244c-6 -17 -7 -30 -7 -41c0 -9 2 -13 8 -13
c32 0 60 19 86 60c27 41 41 84 41 129c0 62 -22 110 -63 147l1 -1c-42 37 -95 56 -156 56c-72 0 -131 -25 -176 -74c-46 -47 -68 -108 -68 -182c0 -70 23 -130 70 -178c47 -47 106 -71 175 -71c79 0 157 41 202 107h63c-54 -99 -160 -161 -265 -161c-90 0 -164 28 -220 87
c-58 60 -88 133 -88 222c0 88 30 158 89 217c58 59 130 88 216 88c81 0 149 -25 201 -73c51 -48 81 -112 81 -186zM417 344c0 35 -25 65 -53 65c-35 0 -66 -18 -90 -56h1c-24 -40 -38 -79 -38 -120c0 -43 23 -68 58 -68c30 0 58 20 82 60c27 42 40 82 40 119z" />
    <glyph glyph-name="A" unicode="A" horiz-adv-x="550"
d="M316 592l231 -592h-79l-69 179h-248l-68 -179h-79l236 592h76zM174 244h199c-35 93 -61 164 -97 257c-35 -89 -67 -166 -102 -257z" />
    <glyph glyph-name="B" unicode="B" horiz-adv-x="561"
d="M523 172c0 -44 -11 -79 -35 -108c-36 -43 -96 -64 -181 -64h-251v592h251c57 0 101 -10 134 -32v1c41 -24 60 -65 60 -118c0 -56 -28 -104 -75 -128c58 -22 97 -76 97 -143zM427 429c0 65 -40 97 -120 97h-178v-185h178c78 0 120 34 120 88zM448 173
c0 68 -48 102 -141 102h-178v-209h178c44 0 78 7 102 23c27 16 39 44 39 84z" />
    <glyph glyph-name="C" unicode="C" horiz-adv-x="579"
d="M477 243h74c-18 -154 -109 -248 -250 -248c-90 0 -160 30 -209 92c-47 58 -71 129 -71 215c0 84 26 158 70 212c51 62 121 95 210 95c58 0 111 -18 159 -52c47 -34 74 -84 83 -152h-73c-20 88 -88 139 -169 139c-67 0 -119 -26 -157 -76c-33 -46 -49 -101 -49 -166
c0 -67 16 -123 49 -169c38 -49 90 -75 157 -75c97 0 165 77 176 185z" />
    <glyph glyph-name="D" unicode="D" horiz-adv-x="579"
d="M539 297c0 -198 -91 -297 -272 -297h-207v592h207c183 0 272 -98 272 -295zM465 297c0 163 -67 229 -225 229h-107v-460h107c157 0 225 67 225 231z" />
    <glyph glyph-name="E" unicode="E" horiz-adv-x="500"
d="M477 66v-66h-419v592h415v-66h-342v-187h320v-67h-320v-206h346z" />
    <glyph glyph-name="F" unicode="F" horiz-adv-x="463"
d="M439 592v-66h-309v-187h275v-67h-275v-272h-73v592h382z" />
    <glyph glyph-name="G" unicode="G" horiz-adv-x="601"
d="M559 311v-311h-58l-5 81c-44 -61 -116 -91 -193 -91c-90 0 -160 30 -209 92c-47 58 -71 129 -71 215c0 84 26 158 70 212c51 62 121 95 210 95c130 0 230 -75 251 -208h-75c-3 36 -23 71 -52 98c-32 26 -77 45 -124 45c-67 0 -119 -25 -157 -76
c-33 -46 -49 -101 -49 -166c0 -66 16 -123 49 -169c38 -49 90 -75 157 -75c113 0 182 82 189 191h-195v67h262z" />
    <glyph glyph-name="H" unicode="H" horiz-adv-x="565"
d="M515 592v-592h-74v277h-321v-277h-73v592h73v-248h321v248h74z" />
    <glyph glyph-name="I" unicode="I" horiz-adv-x="172"
d="M127 592v-592h-75v592h75z" />
    <glyph glyph-name="J" unicode="J" horiz-adv-x="403"
d="M356 593v-423c0 -124 -48 -179 -177 -179c-64 0 -110 19 -138 62h1c-21 34 -32 84 -32 151h74c0 -47 4 -80 11 -98c15 -34 46 -52 88 -52c76 0 99 35 99 140v399h74z" />
    <glyph glyph-name="K" unicode="K" horiz-adv-x="543"
d="M286 345l277 -345h-97l-234 295l-100 -92v-203h-73v592h73v-295l320 295h102z" />
    <glyph glyph-name="L" unicode="L" horiz-adv-x="449"
d="M453 66v-66h-394v592h73v-526h321z" />
    <glyph glyph-name="M" unicode="M" horiz-adv-x="694"
d="M641 592v-592h-74v455c-61 -153 -121 -303 -182 -455h-65l-180 453c0 -148 -2 -307 -2 -453h-74v592h97l191 -485l192 485h97z" />
    <glyph glyph-name="N" unicode="N" horiz-adv-x="592"
d="M536 592v-592h-75l-320 464c0 -148 -1 -318 -1 -464h-74v592h75l320 -462c0 152 1 312 1 462h74z" />
    <glyph glyph-name="O" unicode="O" horiz-adv-x="611"
d="M581 302c0 -87 -22 -159 -68 -214c-53 -63 -123 -93 -211 -93c-89 0 -160 30 -210 92c-47 57 -71 128 -71 215c0 85 24 156 69 212c52 64 123 95 212 95c87 0 156 -30 210 -94c46 -56 69 -127 69 -213zM507 302c0 67 -16 122 -49 166c-37 50 -88 76 -156 76
c-67 0 -120 -26 -158 -76c-33 -46 -48 -101 -48 -166c0 -67 15 -123 48 -169c38 -49 91 -75 158 -75c68 0 119 26 156 75c34 46 49 100 49 169z" />
    <glyph glyph-name="P" unicode="P" horiz-adv-x="543"
d="M512 419c0 -109 -68 -173 -181 -173h-191v-246h-73v592h264c108 0 181 -65 181 -173zM437 419c0 70 -45 107 -118 107h-179v-215h179c72 0 118 37 118 108z" />
    <glyph glyph-name="Q" unicode="Q" horiz-adv-x="630"
d="M590 299c0 -92 -26 -170 -82 -226c25 -20 57 -42 82 -60l-40 -49l-91 67c-42 -26 -92 -39 -148 -39c-89 0 -160 30 -210 92c-47 57 -71 129 -71 215s24 157 69 213c52 64 123 95 212 95c87 0 157 -31 210 -93c45 -57 69 -129 69 -215zM516 299c0 68 -16 123 -49 167
c-37 49 -88 75 -156 75c-67 0 -120 -26 -158 -75c-33 -46 -49 -101 -49 -167s16 -122 49 -168c38 -50 91 -76 158 -76c32 0 60 6 87 20c-23 17 -49 39 -71 54l40 51l85 -63c43 43 64 111 64 182z" />
    <glyph glyph-name="R" unicode="R" horiz-adv-x="565"
d="M546 0h-85c-17 25 -20 58 -20 99c0 123 -37 155 -104 155h-200v-254h-71v592h271c52 0 96 -13 127 -38c36 -28 58 -70 58 -121c0 -66 -29 -121 -86 -145c56 -19 73 -61 73 -131c0 -66 6 -117 37 -157zM447 422c0 69 -39 104 -115 104h-195v-206h195c66 0 115 39 115 102z
" />
    <glyph glyph-name="S" unicode="S" horiz-adv-x="533"
d="M495 166c0 -39 -13 -74 -35 -103c-37 -44 -104 -68 -195 -68c-75 0 -131 16 -170 47c-46 36 -68 93 -68 171h74c0 -58 19 -100 49 -124c31 -20 74 -31 128 -31c34 0 65 9 93 26v-1c33 20 49 46 49 82c0 27 -12 47 -35 65c-17 12 -43 21 -75 29l-128 32
c-42 11 -74 25 -95 43c-27 25 -42 60 -42 104c0 43 14 79 41 109h-1c37 41 93 62 168 62c60 0 113 -18 156 -50c41 -32 65 -81 65 -147h-74c0 84 -65 132 -146 132c-41 0 -72 -8 -95 -23h1c-26 -17 -41 -43 -41 -82c0 -23 8 -39 23 -52c12 -11 32 -19 57 -26h-1
c47 -11 94 -24 140 -34c51 -15 87 -31 109 -50c31 -26 48 -63 48 -111z" />
    <glyph glyph-name="T" unicode="T" horiz-adv-x="476"
d="M474 592v-66h-199v-526h-75v526h-198v66h472z" />
    <glyph glyph-name="U" unicode="U" horiz-adv-x="558"
d="M513 597v-375c0 -66 -18 -119 -54 -161c-41 -43 -100 -66 -179 -66c-77 0 -138 23 -177 65c-35 41 -54 96 -54 162v375h74v-364c0 -122 53 -175 157 -175c105 0 159 51 159 175v364h74z" />
    <glyph glyph-name="V" unicode="V" horiz-adv-x="530"
d="M444 592h77l-221 -592h-74l-219 592h78l178 -495z" />
    <glyph glyph-name="W" unicode="W" horiz-adv-x="761"
d="M680 592h77l-164 -592h-74l-138 485c-46 -160 -92 -325 -137 -485h-75l-166 592h80l123 -470c44 156 89 315 133 470h84l133 -470z" />
    <glyph glyph-name="X" unicode="X" horiz-adv-x="472"
d="M275 304l214 -304h-89l-170 246c-57 -80 -115 -166 -170 -246h-84l212 305l-202 287h88l157 -232l163 232h84z" />
    <glyph glyph-name="Y" unicode="Y" horiz-adv-x="510"
d="M432 592h90l-235 -350v-242h-74v242l-233 350h87l184 -284z" />
    <glyph glyph-name="Z" unicode="Z" horiz-adv-x="480"
d="M464 66v-66h-466v61l367 465h-341v66h432v-60l-367 -466h375z" />
    <glyph glyph-name="bracketleft" unicode="[" horiz-adv-x="271"
d="M209 -33v-62h-149v755h149v-62h-78v-631h78z" />
    <glyph glyph-name="backslash" unicode="\" horiz-adv-x="304"
d="M52 609l254 -614h-64l-252 614h62z" />
    <glyph glyph-name="bracketright" unicode="]" horiz-adv-x="204"
d="M146 660v-755h-149v62h78v631h-78v62h149z" />
    <glyph glyph-name="asciicircum" unicode="^" horiz-adv-x="482"
d="M264 686l196 -383h-69l-154 300c-50 -99 -102 -201 -152 -300h-69l195 383h53z" />
    <glyph glyph-name="underscore" unicode="_" horiz-adv-x="463"
d="M463 -160h-470v63h470v-63z" />
    <glyph glyph-name="grave" unicode="`" horiz-adv-x="155"
d="M45 619l100 -133h-65l-122 133h87z" />
    <glyph glyph-name="a" unicode="a" horiz-adv-x="435"
d="M421 67v-62l-42 -4c-45 0 -62 18 -67 54c-15 -18 -33 -35 -46 -43c-25 -15 -57 -22 -98 -22c-42 0 -75 11 -101 30c-31 23 -45 56 -45 98c0 55 27 94 74 113c25 10 81 20 154 29c21 2 35 6 43 9c7 7 12 20 12 37c0 55 -36 73 -97 73c-63 0 -100 -28 -100 -94h-68
c0 103 68 155 175 155c46 0 82 -8 108 -26h-1c36 -24 53 -61 53 -114v-217c0 -14 5 -21 18 -21zM305 169v45c-8 -2 -18 -4 -26 -6c-2 -1 -4 -2 -5 -2c-24 -5 -52 -10 -76 -14l-51 -8h1c-38 -13 -57 -33 -57 -63c0 -42 37 -71 83 -71c74 0 131 46 131 119z" />
    <glyph glyph-name="b" unicode="b" horiz-adv-x="478"
d="M451 214c0 -64 -18 -118 -47 -157c-34 -43 -86 -67 -146 -67c-59 0 -108 18 -138 61c0 -17 -1 -36 -1 -51h-65v586h68v-208c30 36 84 62 136 62c61 0 110 -23 145 -68c30 -40 48 -95 48 -158zM381 214c0 48 -9 85 -28 114c-22 34 -53 51 -95 51c-47 0 -82 -17 -105 -52
c-21 -30 -31 -67 -31 -113c0 -47 10 -84 30 -113c23 -35 59 -52 106 -52c40 0 72 16 94 51h-1c19 32 30 70 30 114z" />
    <glyph glyph-name="c" unicode="c" horiz-adv-x="432"
d="M334 169h69c-15 -112 -83 -176 -180 -176c-63 0 -113 21 -150 64c-35 41 -53 96 -53 160s18 118 52 160c37 44 88 66 151 66c97 0 164 -53 176 -158h-67c-13 61 -50 97 -109 97c-42 0 -75 -16 -98 -47c-24 -33 -35 -72 -35 -118c0 -45 11 -83 35 -116
c23 -32 56 -48 98 -48c58 0 104 48 111 116z" />
    <glyph glyph-name="d" unicode="d" horiz-adv-x="470"
d="M418 586v-586h-66v54c-30 -40 -84 -64 -137 -64c-63 0 -111 22 -145 65c-32 44 -49 96 -49 159c0 64 17 118 47 157c33 44 84 69 147 69c56 0 103 -20 132 -61c0 73 2 135 2 207h69zM349 214c0 48 -10 85 -29 113c-23 35 -58 52 -105 52c-42 0 -73 -17 -95 -51h1
c-20 -32 -30 -69 -30 -114s10 -85 28 -114c22 -32 55 -51 96 -51c46 0 81 17 104 52c20 29 30 66 30 113z" />
    <glyph glyph-name="e" unicode="e" horiz-adv-x="445"
d="M410 197h-315c1 -37 10 -67 28 -94v1c24 -33 55 -49 97 -49c65 0 104 38 121 105h70c-25 -109 -85 -165 -191 -165c-131 0 -196 93 -196 224c0 63 17 115 46 155c34 48 84 71 150 71c62 0 113 -27 147 -74c28 -43 43 -101 43 -174zM96 258h244c-4 70 -48 126 -120 126
c-35 0 -66 -16 -88 -41c-16 -22 -31 -53 -36 -85z" />
    <glyph glyph-name="f" unicode="f" horiz-adv-x="215"
d="M230 584v-65l-48 5c-21 0 -33 -5 -37 -15c-5 -8 -7 -26 -7 -54v-26h81v-61h-81v-368h-69v368h-71v61h71v28c0 39 7 71 21 91c17 24 48 38 88 38z" />
    <glyph glyph-name="g" unicode="g" horiz-adv-x="455"
d="M403 432v-387c0 -63 -14 -113 -41 -147c-32 -38 -83 -57 -150 -57c-47 0 -87 10 -120 31c-39 24 -59 62 -59 112h69c9 -58 52 -82 110 -82c85 0 123 49 123 143v21c-29 -40 -71 -59 -123 -59c-64 0 -116 24 -149 66c-28 39 -45 92 -45 155c0 124 73 214 194 214
c48 0 93 -24 121 -58l2 48h68zM335 221c0 44 -9 82 -28 111c-21 32 -53 49 -95 49c-81 0 -125 -72 -125 -160c0 -41 10 -78 31 -106c23 -28 54 -47 94 -47c77 0 123 69 123 153z" />
    <glyph glyph-name="h" unicode="h" horiz-adv-x="454"
d="M403 273v-273h-68v265c0 37 -7 64 -20 83c-14 19 -39 31 -75 31c-72 0 -117 -54 -117 -130v-249h-70v586h70v-201c28 30 77 55 122 55c56 0 98 -15 124 -46c23 -27 34 -66 34 -121z" />
    <glyph glyph-name="i" unicode="i" horiz-adv-x="176"
d="M124 586v-99h-70v99h70zM124 429v-429h-70v429h70z" />
    <glyph glyph-name="j" unicode="j" horiz-adv-x="144"
d="M105 611v-99h-69v99h69zM105 454v-456c0 -36 -5 -65 -17 -85c-15 -25 -42 -38 -80 -38l-42 1v63c16 -2 29 -4 33 -2c28 0 37 16 37 49v468h69z" />
    <glyph glyph-name="k" unicode="k" horiz-adv-x="410"
d="M231 265l194 -265h-87l-159 217l-70 -57v-160h-68v586h68v-344c73 64 141 124 214 187h96z" />
    <glyph glyph-name="l" unicode="l" horiz-adv-x="187"
d="M129 586v-586h-70v586h70z" />
    <glyph glyph-name="m" unicode="m" horiz-adv-x="697"
d="M639 287v-287h-69v285c0 64 -24 93 -87 93c-36 0 -64 -12 -80 -40c-14 -24 -21 -55 -21 -97v-241h-70v287c0 27 -5 49 -17 65c-11 17 -31 26 -58 26c-75 0 -114 -55 -114 -141v-237h-68v429h64v-46c31 36 73 56 126 56c54 0 99 -20 120 -64c28 48 74 64 128 64
c97 0 146 -50 146 -152z" />
    <glyph glyph-name="n" unicode="n" horiz-adv-x="454"
d="M404 273v-273h-68v265c0 36 -7 64 -20 82c-14 20 -40 31 -75 31c-72 0 -117 -54 -117 -129v-249h-70v429h70v-45c28 30 77 55 122 55c55 0 98 -16 124 -46c23 -28 34 -68 34 -120z" />
    <glyph glyph-name="o" unicode="o" horiz-adv-x="449"
d="M424 217c0 -63 -18 -116 -51 -157c-39 -45 -90 -67 -153 -67c-64 0 -114 21 -150 64c-36 41 -54 96 -54 160c0 65 18 119 53 160c36 44 87 66 151 66c61 0 113 -22 152 -67c34 -40 52 -93 52 -159zM354 217c0 45 -11 84 -34 115c-24 33 -58 50 -100 50
c-43 0 -75 -16 -98 -47c-24 -33 -36 -72 -36 -118c0 -45 12 -83 36 -116c23 -32 55 -48 98 -48c41 0 76 18 100 50c22 32 34 71 34 114z" />
    <glyph glyph-name="p" unicode="p" horiz-adv-x="488"
d="M452 216c0 -63 -18 -118 -47 -157c-34 -43 -86 -67 -146 -67c-54 0 -104 20 -134 60c0 -71 -2 -129 -2 -199h-68v578h65v-53c31 40 81 64 139 64c62 0 110 -22 145 -67c32 -42 48 -95 48 -159zM382 216c0 46 -11 86 -28 115c-22 31 -55 50 -95 50c-48 0 -84 -17 -106 -48
c-20 -28 -30 -67 -30 -117c0 -46 10 -84 30 -113c23 -35 59 -51 106 -51c40 0 72 16 94 50h-1c19 33 30 71 30 114z" />
    <glyph glyph-name="q" unicode="q" horiz-adv-x="465"
d="M414 429v-578h-69v201c-31 -39 -81 -62 -134 -62c-63 0 -111 22 -145 65c-32 44 -49 96 -49 159s17 118 47 157c33 44 84 69 147 69c54 0 106 -26 136 -64c0 18 1 36 1 53h66zM345 214c0 47 -11 86 -29 114c-23 33 -59 51 -105 51c-42 0 -73 -17 -95 -50h1
c-20 -33 -30 -71 -30 -115c0 -45 10 -85 28 -114c22 -31 56 -50 96 -50c46 0 81 17 104 51c20 29 30 66 30 113z" />
    <glyph glyph-name="r" unicode="r" horiz-adv-x="262"
d="M265 434v-69c-91 0 -152 -57 -152 -138v-227h-70v429h66v-68c32 50 82 73 156 73z" />
    <glyph glyph-name="s" unicode="s" horiz-adv-x="395"
d="M366 124c0 -46 -19 -81 -57 -104c-31 -19 -70 -27 -116 -27c-107 0 -169 48 -180 162h71c0 -64 49 -102 111 -102c26 0 49 6 68 16c23 12 34 30 34 52c0 17 -9 32 -24 43c-13 10 -32 17 -57 23l-66 14c-38 10 -66 22 -86 36c-23 21 -34 47 -34 82c0 84 76 124 163 124
c93 0 160 -50 160 -150h-69c0 58 -42 89 -99 89c-48 0 -86 -18 -86 -60c0 -17 10 -31 28 -43c4 -3 27 -10 51 -17l65 -14h-1c35 -5 64 -16 85 -35h-1c28 -22 40 -51 40 -89z" />
    <glyph glyph-name="t" unicode="t" horiz-adv-x="231"
d="M221 61v-63l-53 -1c-76 0 -100 22 -100 101v270h-71v61h71v123h71v-123h82v-61h-82v-267c0 -32 4 -44 29 -44z" />
    <glyph glyph-name="u" unicode="u" horiz-adv-x="456"
d="M404 429v-429h-65v50c-32 -38 -81 -61 -133 -61c-105 0 -152 59 -152 164v276h70v-276c0 -72 28 -104 99 -104c74 0 113 69 113 155v225h68z" />
    <glyph glyph-name="v" unicode="v" horiz-adv-x="393"
d="M319 429h72l-160 -429h-65l-166 429h77l120 -342z" />
    <glyph glyph-name="w" unicode="w" horiz-adv-x="606"
d="M529 429h74l-138 -429h-70l-93 318l-94 -318h-69l-139 429h74l98 -325l94 325h72l93 -326c33 107 65 220 98 326z" />
    <glyph glyph-name="x" unicode="x" horiz-adv-x="399"
d="M236 223l168 -223h-88l-124 165c-40 -53 -82 -112 -122 -165h-84l166 222c-47 65 -107 143 -154 207h87l111 -149l109 149h87z" />
    <glyph glyph-name="y" unicode="y" horiz-adv-x="381"
d="M313 429h69l-184 -484v1c-15 -40 -29 -65 -43 -77c-15 -11 -39 -18 -73 -18c-17 0 -34 2 -47 5v60l44 -4c14 1 29 7 38 15c6 8 14 22 25 43v-2c5 15 11 27 15 42c-53 134 -115 284 -168 419h75l128 -332c40 110 82 223 121 332z" />
    <glyph glyph-name="z" unicode="z" horiz-adv-x="374"
d="M364 62v-62h-360v55l256 313h-238v61h332v-49l-260 -318h270z" />
    <glyph glyph-name="braceleft" unicode="{" horiz-adv-x="246"
d="M227 -88v-62h-49c-52 0 -81 40 -81 110v117c0 36 -4 65 -12 84c-7 24 -23 35 -45 35v62c44 0 57 45 57 117v121c0 68 29 110 81 110h49v-62h-25c-24 0 -35 -29 -35 -73v-113c0 -56 -19 -104 -49 -130c32 -29 49 -74 49 -132v-111c0 -43 9 -73 35 -73h25z" />
    <glyph glyph-name="bar" unicode="|" horiz-adv-x="175"
d="M117 608v-614h-61v614h61z" />
    <glyph glyph-name="braceright" unicode="}" horiz-adv-x="285"
d="M225 -88v-62h-50c-52 0 -81 40 -81 110v117c0 36 -4 65 -11 84c-8 24 -24 35 -46 35v62c44 0 57 45 57 117v121c0 68 29 110 81 110h50v-62h-26c-24 0 -35 -29 -35 -73v-113c0 -56 -19 -104 -49 -130c32 -29 49 -74 49 -132v-111c0 -43 9 -73 35 -73h26z" />
    <glyph glyph-name="asciitilde" unicode="~" horiz-adv-x="456"
d="M379 369l41 -44c-45 -65 -74 -80 -112 -80c-26 0 -51 9 -80 21c-4 1 -11 5 -14 6c-36 20 -60 26 -81 26c-12 0 -25 -5 -36 -15c-7 -8 -16 -22 -29 -47l-44 43c15 26 28 44 42 57c19 15 43 24 71 24c20 0 41 -4 61 -13l3 -2c0 -1 0 1 1 0c9 -4 21 -7 32 -12l11 -6
c16 -7 25 -11 28 -11c16 -7 27 -9 35 -9c12 0 23 4 34 14c7 8 19 21 37 48z" />
    <glyph glyph-name="thothannobasethai" unicode="&#xf700;" horiz-adv-x="495"
d="M396 515l54 -43c-30 -34 -57 -52 -102 -52c-25 0 -53 5 -85 15c-32 9 -56 14 -70 14c-41 0 -70 -10 -90 -29c43 -1 89 -5 144 -12c108 -17 160 -49 160 -120c0 -20 -17 -74 -54 -164c-16 -40 -24 -81 -24 -124h-83l-51 178c-14 -8 -30 -13 -48 -13c-48 0 -90 35 -90 90
c0 53 42 91 90 91c56 0 86 -32 100 -85l37 -137l34 93c12 29 18 50 18 66c0 25 -27 45 -78 56c-21 6 -56 11 -102 16c-49 4 -111 7 -159 7c22 96 88 153 190 153c25 0 56 -5 91 -16h-1l12 -3c25 -6 48 -12 51 -12c20 0 39 14 56 31zM175 255c0 20 -9 31 -28 31
c-17 0 -27 -11 -27 -31c0 -19 10 -28 27 -28c16 0 28 12 28 28z" />
    <glyph glyph-name="saraileftthai" unicode="&#xf701;"
d="M-370 747c124 0 213 -67 233 -178c-100 14 -186 18 -290 18h-60c-22 0 -56 -1 -79 -1c17 100 94 161 196 161zM-399 649c51 0 107 -4 168 -12c-31 33 -84 50 -137 50c-42 0 -82 -12 -110 -40c25 2 48 2 79 2z" />
    <glyph glyph-name="saraiileftthai" unicode="&#xf702;"
d="M-211 783h71v-215c-91 15 -181 20 -284 20c-81 0 -116 -1 -139 -1c18 100 94 161 197 161c62 0 115 -15 155 -45v80zM-396 650c52 0 107 -4 167 -12c-30 33 -83 50 -135 50c-43 0 -81 -12 -110 -40c22 1 52 2 78 2z" />
    <glyph glyph-name="saraueleftthai" unicode="&#xf703;"
d="M-136 710c0 -34 -15 -57 -44 -72c8 -16 13 -40 18 -69c-92 16 -182 21 -287 21h-59c-22 0 -57 -1 -80 -1c18 100 95 161 196 161c33 0 62 -4 91 -14c11 32 43 56 80 56c48 0 85 -36 85 -82zM-421 652c52 0 107 -4 168 -12c-31 32 -83 49 -137 49c-40 0 -80 -14 -109 -39
c22 1 52 2 78 2zM-219 692c13 0 21 7 21 20s-8 20 -21 20c-12 0 -20 -7 -20 -20s8 -20 20 -20z" />
    <glyph glyph-name="saraueeleftthai" unicode="&#xf704;"
d="M-227 782h71v-215c-91 15 -181 20 -284 20h-60c-21 0 -56 -1 -79 -1c18 100 94 161 197 161c24 0 47 -2 68 -7v42h70v-70c4 -3 5 -3 10 -6c0 0 5 -4 7 -5v81zM-412 649c51 0 107 -4 167 -12c-30 33 -83 50 -135 50c-43 0 -81 -12 -110 -40c22 1 52 2 78 2z" />
    <glyph glyph-name="maieklowleftthai" unicode="&#xf705;"
d="M-142 722v-153h-71v153h71z" />
    <glyph glyph-name="maitholowleftthai" unicode="&#xf706;"
d="M-153 761l61 -14c-13 -55 -44 -97 -89 -126c-56 -34 -124 -50 -211 -50v47c21 4 37 8 46 16c-30 8 -48 33 -48 68c0 40 34 70 74 70c43 0 76 -24 76 -71c0 -20 -6 -42 -17 -58c53 20 101 63 108 118zM-300 701c0 13 -7 20 -20 20c-14 0 -21 -7 -21 -20
c0 -12 7 -19 21 -19c13 0 20 7 20 19z" />
    <glyph glyph-name="maitrilowleftthai" unicode="&#xf707;"
d="M-151 776h58c0 -53 -11 -99 -33 -137c-20 -32 -43 -58 -70 -79l-51 17c12 35 17 49 17 75c0 22 -8 34 -24 34c-10 0 -17 -3 -21 -11c-2 -2 -5 -10 -6 -22h-52c-5 22 -17 33 -37 33c-4 0 -9 -2 -13 -4c31 -4 53 -27 53 -61c0 -39 -29 -64 -62 -64c-18 0 -34 6 -47 19
c-17 14 -26 37 -26 66c0 59 41 101 94 101c18 0 33 -4 46 -13l-2 1c7 -3 13 -8 20 -15c13 14 35 26 59 26c42 0 71 -28 75 -67c14 27 22 60 22 101zM-379 621c0 9 -5 14 -13 14c-9 0 -14 -5 -14 -14c0 -11 5 -16 14 -16c8 0 13 5 13 16z" />
    <glyph glyph-name="maichattawalowleftthai" unicode="&#xf708;"
d="M-96 672v-54h-75v-71h-65v71h-77v54h77v72h65v-72h75z" />
    <glyph glyph-name="thanthakhatlowleftthai" unicode="&#xf709;"
d="M-151 813h67c-7 -77 -72 -98 -100 -100c12 -13 19 -29 19 -48c0 -41 -32 -73 -74 -73c-43 0 -82 33 -82 82c0 50 33 89 87 94c21 2 42 5 60 8h-1c12 4 24 21 24 37zM-220 664c0 13 -7 20 -19 20c-13 0 -20 -7 -20 -20c0 -14 7 -21 20 -21c12 0 19 7 19 21z" />
    <glyph glyph-name="maieklowrightthai" unicode="&#xf70a;"
d="M-67 721v-153h-71v153h71z" />
    <glyph glyph-name="maitholowrightthai" unicode="&#xf70b;"
d="M-59 761l62 -14c-14 -55 -44 -97 -90 -126c-55 -34 -123 -50 -211 -50v47c22 4 37 8 47 16c-30 8 -49 33 -49 68c0 40 34 70 74 70c44 0 77 -24 77 -71c0 -20 -7 -42 -18 -58c54 20 102 63 108 118zM-205 701c0 13 -7 20 -21 20s-20 -7 -20 -20c0 -12 6 -19 20 -19
s21 7 21 19z" />
    <glyph glyph-name="maitrilowrightthai" unicode="&#xf70c;"
d="M-82 776h58c0 -53 -11 -99 -33 -137c-20 -32 -43 -58 -70 -79l-51 17c12 35 17 49 17 75c0 22 -8 34 -24 34c-10 0 -17 -3 -21 -11c-2 -2 -5 -10 -6 -22h-52c-5 22 -17 33 -37 33c-4 0 -9 -2 -13 -4c31 -4 53 -27 53 -61c0 -39 -29 -64 -62 -64c-18 0 -34 6 -47 19v-1
c-17 15 -26 38 -26 67c0 59 41 101 94 101c18 0 33 -4 46 -13l-2 1c7 -3 13 -8 20 -15c13 14 35 26 59 26c42 0 71 -28 75 -67c14 27 22 60 22 101zM-310 621c0 9 -5 14 -13 14c-9 0 -14 -5 -14 -14c0 -11 5 -16 14 -16c8 0 13 5 13 16z" />
    <glyph glyph-name="maichattawalowrightthai" unicode="&#xf70d;"
d="M-22 693v-54h-75v-71h-65v71h-77v54h77v72h65v-72h75z" />
    <glyph glyph-name="thanthakhatlowrightthai" unicode="&#xf70e;"
d="M-83 805h68c-8 -77 -73 -98 -101 -100c12 -13 19 -29 19 -48c0 -41 -32 -73 -74 -73c-43 0 -82 33 -82 82c0 50 33 89 87 94c21 2 42 5 60 8h-1c12 4 24 21 24 37zM-152 656c0 13 -6 20 -19 20s-20 -7 -20 -20c0 -14 7 -21 20 -21s19 7 19 21z" />
    <glyph glyph-name="yoyingnobasethai" unicode="&#xf70f;" horiz-adv-x="727"
d="M665 506v-408c0 -38 -10 -64 -34 -79h1c-17 -12 -48 -19 -88 -19h-234v67h61v292c0 61 -55 91 -127 91c-55 0 -93 -14 -120 -42c26 -9 57 -23 88 -42c-19 -13 -37 -29 -48 -41c-12 -18 -20 -32 -20 -47v-107c9 3 18 4 27 4c49 0 92 -37 92 -92c0 -54 -44 -91 -95 -91
c-58 0 -94 36 -94 97v191c0 28 14 57 35 74c-22 10 -42 15 -61 20l-21 7c38 83 116 134 215 134c121 0 200 -52 200 -157v-291h118c8 0 13 0 19 2c10 2 16 16 16 43v394h70zM199 83c0 18 -10 29 -30 29c-18 0 -28 -11 -28 -29c0 -20 10 -30 28 -30c20 0 30 10 30 30z" />
    <glyph glyph-name="quoteleft" unicode="&#x2018;" horiz-adv-x="159"
d="M137 474c0 -37 -26 -63 -60 -63s-59 29 -59 69c0 60 24 107 71 142l50 -32c-27 -18 -47 -39 -54 -55c30 -3 52 -26 52 -61z" />
    <glyph glyph-name="quoteright" unicode="&#x2019;" horiz-adv-x="154"
d="M134 551c0 -59 -24 -106 -71 -141l-50 33c26 17 46 37 53 54c-29 5 -51 27 -51 62c0 37 27 62 59 62c35 0 60 -28 60 -70z" />
    <glyph glyph-name="bullet" unicode="&#x2022;" horiz-adv-x="196"
d="M97 218c-46 0 -80 34 -80 80c0 45 34 79 80 79c45 0 79 -34 79 -79c0 -46 -34 -80 -79 -80z" />
    <glyph glyph-name="endash" unicode="&#x2013;" horiz-adv-x="460"
d="M420 284v-62h-396v62h396z" />
    <glyph glyph-name="emdash" unicode="&#x2014;" horiz-adv-x="965"
d="M890 285v-62h-848v62h848z" />
    <glyph glyph-name="maihanakatleftthai" unicode="&#xf710;"
d="M-129 766h66c0 -63 -24 -114 -71 -150c-38 -30 -87 -47 -138 -47c-46 0 -81 8 -110 25c-34 21 -53 49 -53 87c0 48 34 82 85 82c45 0 84 -34 84 -82c0 -21 -3 -36 -14 -50h5c38 0 72 12 101 33c27 24 45 60 45 102zM-324 679c0 14 -11 27 -26 27c-14 0 -27 -13 -27 -27
c0 -15 13 -26 27 -26c15 0 26 11 26 26z" />
    <glyph glyph-name="nikhahitleftthai" unicode="&#xf711;"
d="M-145 658c0 -52 -40 -93 -94 -93c-53 0 -93 41 -93 93c0 54 40 94 93 94c54 0 94 -40 94 -94zM-207 658c0 19 -13 32 -32 32c-18 0 -32 -13 -32 -32c0 -18 14 -31 32 -31c19 0 32 13 32 31z" />
    <glyph glyph-name="maitaikhuleftthai" unicode="&#xf712;"
d="M-224 831h68c-11 -77 -60 -120 -134 -120l-82 3c-32 -2 -58 -18 -58 -45c0 -20 11 -29 25 -33c17 20 41 44 58 62c16 -16 14 -15 39 -41c10 29 38 55 70 55c44 0 74 -29 74 -73c0 -42 -39 -75 -83 -75c-39 0 -71 14 -101 46l-37 -39h-19c-48 0 -93 36 -93 96
c0 62 44 110 124 110l82 -4c37 0 60 20 67 58zM-219 639c0 13 -6 19 -19 19s-19 -6 -19 -19s6 -19 19 -19s19 6 19 19z" />
    <glyph glyph-name="maiekupperleftthai" unicode="&#xf713;"
d="M-141 957v-153h-71v153h71z" />
    <glyph glyph-name="maithoupperleftthai" unicode="&#xf714;"
d="M-145 988l61 -14c-13 -54 -43 -97 -89 -125c-56 -34 -124 -51 -211 -51v47c21 5 37 9 46 17c-30 7 -48 33 -48 68c0 40 34 70 74 70c43 0 77 -25 77 -71c0 -21 -7 -42 -18 -59c54 21 101 64 108 118zM-292 929c0 12 -7 19 -20 19c-14 0 -21 -7 -21 -19
c0 -13 7 -20 21 -20c13 0 20 7 20 20z" />
    <glyph glyph-name="maitriupperleftthai" unicode="&#xf715;"
d="M-153 1013h57c0 -53 -10 -99 -33 -137c-19 -32 -43 -58 -70 -79l-50 17c11 35 16 49 16 75c0 22 -8 34 -23 34c-10 0 -18 -3 -22 -11c-2 -2 -4 -10 -5 -22h-52c-6 22 -18 33 -37 33c-5 0 -10 -2 -14 -4c32 -4 54 -27 54 -61c0 -39 -29 -64 -62 -64c-19 0 -34 6 -47 19
c-18 14 -26 37 -26 66c0 59 41 101 94 101c18 0 32 -4 46 -13c5 -3 10 -7 17 -14c14 14 35 26 60 26c41 0 71 -28 75 -67c12 27 22 60 22 101zM-382 857c0 10 -5 15 -12 15c-9 0 -14 -5 -14 -15s5 -15 14 -15c7 0 12 5 12 15z" />
    <glyph glyph-name="maichattawaupperleftthai" unicode="&#xf716;"
d="M-99 931v-55h-75v-71h-65v71h-77v55h77v72h65v-72h75z" />
    <glyph glyph-name="thanthakhatupperleftthai" unicode="&#xf717;"
d="M-177 1016h67c-8 -77 -73 -98 -100 -100c12 -13 19 -29 19 -48c0 -41 -33 -73 -74 -73c-43 0 -82 33 -82 82c0 50 33 88 86 94c22 2 42 5 61 8h-1c11 4 24 20 24 37zM-246 867c0 13 -7 20 -19 20c-13 0 -20 -7 -20 -20c0 -14 7 -21 20 -21c12 0 19 7 19 21z" />
    <glyph glyph-name="kokaithai" unicode="&#xe01;" horiz-adv-x="499"
d="M430 358v-358h-70v359c0 61 -56 91 -128 91c-52 0 -95 -18 -120 -42c25 -9 57 -24 89 -42c-20 -14 -37 -28 -48 -41c-15 -18 -21 -33 -21 -47v-278h-71v280c0 28 15 56 35 73c-23 9 -53 18 -82 26c39 84 116 136 217 136c119 0 199 -52 199 -157z" />
    <glyph glyph-name="khokhaithai" unicode="&#xe02;" horiz-adv-x="466"
d="M404 506v-409c0 -76 -38 -97 -122 -97h-204v66h61v188c0 27 16 55 47 83c27 23 41 42 41 57c0 35 -27 61 -69 61c-13 0 -22 -1 -32 -4c33 -9 56 -36 56 -73c0 -48 -36 -83 -84 -83s-90 34 -90 94c0 31 11 58 37 84c31 29 68 43 114 43c83 0 137 -48 137 -123
c0 -31 -16 -60 -47 -91c-26 -26 -39 -48 -39 -66v-170h54c32 0 49 1 52 3c12 5 18 20 18 43v394h70zM123 378c0 13 -11 24 -25 24c-13 0 -26 -11 -26 -24c0 -12 13 -23 26 -23c14 0 25 11 25 23z" />
    <glyph glyph-name="khokhuatthai" unicode="&#xe03;" horiz-adv-x="497"
d="M426 506v-409c0 -76 -38 -97 -120 -97h-206v66h62v189c0 26 14 53 45 84c27 27 41 47 41 63c0 20 -13 44 -18 44s-34 -27 -48 -42c-23 18 -52 40 -61 44c-8 -5 -14 -12 -20 -20h1c45 0 83 -31 83 -77s-41 -82 -84 -82c-51 0 -90 35 -90 99c0 66 50 127 111 148
c17 -7 38 -21 55 -35c20 16 49 34 58 34c14 0 31 -10 49 -33v1c21 -23 32 -51 32 -83c0 -26 -10 -49 -27 -69c-39 -45 -57 -73 -57 -89v-176h89c5 0 9 1 12 1h4c12 4 19 20 19 45v394h70zM125 351c0 13 -11 22 -24 22c-14 0 -25 -9 -25 -22c0 -14 11 -24 25 -24
c11 0 24 10 24 24z" />
    <glyph glyph-name="khokhwaithai" unicode="&#xe04;" horiz-adv-x="508"
d="M435 340v-340h-70v333c0 34 -11 62 -31 82c-24 24 -58 35 -100 35c-82 0 -144 -48 -144 -114c0 -38 7 -81 18 -129c14 50 27 84 43 125c17 41 48 65 89 65c57 0 93 -34 93 -88c0 -50 -43 -86 -93 -86c-19 0 -36 5 -50 13c-11 -30 -21 -65 -32 -109
c-13 -45 -23 -89 -27 -127h-77v83c0 33 -8 84 -23 156c-7 40 -11 73 -11 97c0 50 19 94 60 128h-1c39 34 89 52 155 52c121 0 201 -72 201 -176zM270 309c0 19 -10 28 -30 28c-18 0 -29 -10 -29 -28c0 -14 14 -28 29 -28c18 0 30 13 30 28z" />
    <glyph glyph-name="khokhonthai" unicode="&#xe05;" horiz-adv-x="511"
d="M434 375v-375h-70v367c0 43 -16 66 -48 77l-80 -51l-86 54c-36 -10 -61 -50 -61 -94c0 -31 5 -63 9 -96c3 -19 6 -37 8 -56l2 7c12 40 27 89 36 107v-1c19 51 53 71 93 71c55 0 92 -34 92 -87c0 -50 -45 -86 -92 -86c-21 0 -35 3 -52 14c-11 -30 -19 -63 -30 -101
c-14 -48 -23 -89 -29 -125h-77v82c0 37 -5 81 -16 138c-9 57 -14 99 -14 128c0 93 64 158 145 167l68 -44l74 46c38 -8 65 -22 84 -38c30 -27 44 -60 44 -104zM265 298c0 19 -10 28 -28 28c-19 0 -30 -11 -30 -28c0 -14 13 -28 30 -28s28 13 28 28z" />
    <glyph glyph-name="khorakhangthai" unicode="&#xe06;" horiz-adv-x="542"
d="M473 506v-443c0 -43 -18 -63 -58 -63h-26c-14 33 -39 62 -72 89c-30 22 -65 38 -102 47v-53c0 -45 -34 -86 -87 -86c-24 0 -45 8 -64 22c-23 19 -33 45 -33 77c0 62 44 107 114 109v44c0 27 18 56 52 88c29 27 47 50 47 64c0 21 -14 45 -19 45s-35 -27 -49 -41
c-26 19 -54 39 -61 42c-7 -4 -12 -10 -18 -19h1c44 0 82 -32 82 -77c0 -47 -40 -82 -83 -82c-52 0 -91 35 -91 98c0 67 51 128 112 148c17 -5 36 -20 55 -35c18 17 48 35 57 35c15 0 30 -11 49 -32c22 -24 33 -52 33 -83c0 -25 -11 -49 -32 -72c-43 -45 -65 -76 -65 -91v-38
c33 -5 67 -18 98 -34c30 -16 66 -43 90 -69v410h70zM121 351c0 13 -11 22 -24 22c-14 0 -26 -9 -26 -22c0 -14 12 -24 26 -24c10 0 24 10 24 24zM145 88v56c-29 -3 -50 -23 -50 -48c0 -26 10 -40 30 -40c14 0 20 11 20 32z" />
    <glyph glyph-name="ngonguthai" unicode="&#xe07;" horiz-adv-x="472"
d="M393 417v-317c0 -74 -33 -100 -108 -100h-89c-17 75 -45 151 -82 231v0c-41 81 -80 147 -126 198l64 29c43 -48 83 -113 122 -193v1c40 -77 63 -142 77 -200h26c35 0 46 7 46 43v226c-10 -3 -19 -4 -27 -4c-49 0 -91 37 -91 92c0 54 44 93 93 93c59 0 95 -38 95 -99z
M327 423c0 20 -11 29 -30 29s-29 -9 -29 -29c0 -19 10 -29 29 -29s30 10 30 29z" />
    <glyph glyph-name="chochanthai" unicode="&#xe08;" horiz-adv-x="470"
d="M402 354c0 -45 -13 -101 -39 -168c-31 -73 -48 -135 -53 -186h-82l-44 196c-14 -6 -30 -10 -44 -10c-49 0 -92 36 -92 89s42 91 92 91c52 0 86 -33 99 -86l31 -149c9 28 23 66 42 119c11 35 19 75 19 103c0 60 -55 97 -128 97c-68 0 -125 -37 -137 -98h-71
c0 48 18 88 57 118s90 46 151 46c65 0 114 -16 150 -48c33 -30 49 -67 49 -114zM168 275c0 19 -13 30 -28 30c-19 0 -28 -10 -28 -30c0 -18 9 -28 28 -28c15 0 28 13 28 28z" />
    <glyph glyph-name="chochingthai" unicode="&#xe09;" horiz-adv-x="547"
d="M506 88c0 -54 -39 -90 -94 -90c-53 0 -95 38 -95 90c0 5 1 11 3 17c-22 -8 -44 -19 -66 -37c-32 -23 -53 -46 -68 -68h-61v166c-9 -2 -16 -2 -24 -2c-51 0 -90 33 -90 88c0 49 43 85 91 85c55 0 93 -37 93 -93v-139c52 43 120 73 190 76v176c0 61 -49 93 -124 93
c-69 0 -128 -30 -142 -98h-68c10 97 94 163 210 163c117 0 194 -61 194 -155v-189c35 -17 51 -47 51 -83zM442 88c0 20 -10 31 -30 31c-16 0 -31 -13 -31 -31s14 -31 31 -31s30 13 30 31zM129 252c0 14 -13 27 -27 27c-16 0 -28 -13 -28 -27c0 -16 12 -29 28 -29
c14 0 27 13 27 29z" />
    <glyph glyph-name="chochangthai" unicode="&#xe0a;" horiz-adv-x="511"
d="M441 478c0 -42 -21 -84 -52 -105c29 -17 48 -51 48 -84v-192c0 -76 -38 -97 -122 -97h-228v66h61v188c0 27 15 55 46 83c27 23 42 42 42 57c0 35 -28 61 -68 61c-14 0 -23 -1 -33 -4c32 -10 56 -38 56 -73c0 -48 -36 -83 -85 -83c-48 0 -90 34 -90 94c0 31 12 58 38 84
c29 29 66 43 115 43c78 0 131 -44 135 -114c0 -9 1 -16 -1 -28c-5 -24 -21 -47 -45 -72c-26 -26 -40 -48 -40 -66v-170h79c32 0 50 2 57 5c8 4 12 18 12 41v177c0 27 -12 47 -54 47v42v25c36 1 59 33 59 74c0 4 0 9 -5 29h69c3 -6 6 -14 6 -18v-10zM106 355
c14 0 26 11 26 23c0 13 -12 24 -26 24c-13 0 -25 -11 -25 -24c0 -12 12 -23 25 -23z" />
    <glyph glyph-name="sosothai" unicode="&#xe0b;" horiz-adv-x="529"
d="M384 506h69c3 -6 5 -14 5 -18v-10c0 -43 -19 -85 -50 -106c29 -17 47 -50 47 -83v-192c0 -76 -38 -97 -122 -97h-229v66h61v189c0 26 15 53 45 84c28 26 41 47 41 63c0 20 -12 44 -17 44c-6 0 -35 -27 -49 -42c-26 19 -53 40 -60 43c-8 -5 -15 -11 -20 -19
c45 0 84 -31 84 -77s-41 -82 -85 -82c-50 0 -90 35 -90 99c0 66 52 127 112 148c16 -7 39 -22 55 -35c20 16 49 34 58 34c13 0 31 -12 48 -33c22 -24 32 -50 32 -82c0 -26 -9 -48 -27 -68c-38 -45 -56 -74 -56 -90v-176h79c32 0 50 2 57 5c8 4 12 18 12 41v177
c0 27 -16 47 -59 47v66c37 0 63 33 63 75c0 4 0 9 -4 29zM129 351c0 13 -11 22 -25 22c-13 0 -24 -9 -24 -22c0 -14 11 -24 24 -24c12 0 25 10 25 24z" />
    <glyph glyph-name="chochoethai" unicode="&#xe0c;" horiz-adv-x="744"
d="M661 506v-453c0 -41 -7 -53 -49 -53h-20c-14 20 -33 40 -55 56c-21 17 -42 30 -62 38v-11c0 -51 -40 -87 -92 -87c-50 0 -91 36 -91 87c0 41 31 78 76 89v187c0 61 -56 91 -128 91c-55 0 -93 -14 -120 -41c26 -9 57 -25 89 -44c-21 -14 -38 -28 -49 -40
c-13 -16 -20 -31 -20 -46v-108c10 3 18 4 27 4c49 0 92 -37 92 -92c0 -53 -44 -91 -95 -91c-58 0 -94 36 -94 97v191c0 26 16 56 36 74c-23 10 -51 16 -84 26c37 83 115 136 216 136c121 0 201 -53 201 -158v-189c50 -7 108 -37 152 -74v411h70zM413 83c0 18 -9 28 -30 28
c-16 0 -30 -11 -30 -28c0 -16 14 -29 30 -29c17 0 30 13 30 29zM195 83c0 19 -10 29 -30 29c-18 0 -28 -10 -28 -29c0 -20 10 -30 28 -30c20 0 30 10 30 30z" />
    <glyph glyph-name="yoyingthai" unicode="&#xe0d;" horiz-adv-x="753"
d="M665 506v-408c0 -38 -10 -64 -34 -79h1c-17 -12 -48 -19 -88 -19h-234v67h61v292c0 61 -55 91 -127 91c-55 0 -93 -14 -120 -42c26 -9 57 -23 88 -42c-19 -13 -37 -29 -48 -41c-12 -18 -20 -32 -20 -47v-107c9 3 18 4 27 4c49 0 92 -37 92 -92c0 -54 -44 -91 -95 -91
c-58 0 -94 36 -94 97v191c0 28 14 57 35 74c-22 10 -42 15 -61 20l-21 7c38 83 116 134 215 134c121 0 200 -52 200 -157v-291h118c8 0 13 0 19 2c10 2 16 16 16 43v394h70zM595 -24h70c0 -57 -21 -100 -64 -132c-39 -27 -86 -41 -138 -41c-85 0 -143 38 -143 104
c0 42 38 78 82 78c48 0 81 -32 81 -78c0 -16 -5 -30 -10 -40c32 2 56 10 78 25c30 19 44 47 44 84zM424 -93c0 11 -10 20 -22 20c-13 0 -22 -9 -22 -20c0 -13 9 -22 22 -22c12 0 22 9 22 22zM199 83c0 18 -10 29 -30 29c-18 0 -28 -11 -28 -29c0 -20 10 -30 28 -30
c20 0 30 10 30 30z" />
    <glyph glyph-name="dochadathai" unicode="&#xe0e;" horiz-adv-x="581"
d="M493 356v-517c0 -55 -27 -82 -83 -82h-32c-16 31 -35 57 -58 79c-30 -47 -77 -75 -134 -75c-58 0 -100 32 -100 85c0 56 53 100 124 100c17 0 35 -2 52 -6l19 -6v6c0 4 0 9 -4 29h69l1 -34c0 -13 0 -22 -3 -33c27 -21 54 -50 72 -78c2 1 3 2 4 4c2 2 3 9 3 20v509
c0 62 -57 91 -129 91c-55 0 -93 -13 -119 -40c25 -10 57 -25 88 -43c-19 -13 -36 -28 -48 -42v1c-14 -17 -20 -32 -20 -47v-189c0 -61 -36 -97 -91 -97c-50 0 -89 35 -89 91c0 55 38 91 87 91c9 0 15 0 22 -2v107c0 28 15 57 35 74c-23 9 -51 18 -83 26
c37 83 115 137 217 137c120 0 200 -53 200 -159zM130 82c0 16 -13 28 -27 28c-18 0 -28 -10 -28 -28s10 -30 28 -30c14 0 27 12 27 30zM186 -174c-18 0 -34 7 -34 20c0 22 26 33 58 33c19 0 36 -2 51 -7c-17 -29 -44 -46 -75 -46z" />
    <glyph glyph-name="topatakthai" unicode="&#xe0f;" horiz-adv-x="577"
d="M491 356v-517c0 -56 -28 -82 -84 -82h-27l-45 54c-13 -17 -28 -38 -42 -54h-40l-26 37c-23 -24 -53 -38 -88 -38c-53 0 -95 34 -95 83s43 87 99 87c19 0 40 -6 60 -15c0 1 1 4 1 6v33h70c0 -52 0 -69 -11 -96l13 -14c41 49 28 31 59 63c21 -16 37 -33 56 -55l13 -15
c1 -2 6 -6 7 -8c6 3 10 12 10 28v504c0 61 -57 91 -129 91c-55 0 -93 -14 -119 -40c23 -10 55 -24 89 -45c-21 -13 -40 -28 -49 -40c-13 -17 -20 -31 -20 -46v-190c0 -61 -36 -97 -91 -97c-50 0 -89 36 -89 91s38 92 87 92c9 0 15 0 22 -2v107c0 28 15 56 35 73
c-23 9 -51 19 -83 27c38 84 116 136 217 136c120 0 200 -53 200 -158zM128 81c0 17 -13 29 -27 29c-18 0 -27 -11 -27 -29s9 -29 27 -29c14 0 27 11 27 29zM139 -183c-15 0 -29 9 -29 22s15 24 33 24c17 0 32 -6 42 -21c-9 -13 -27 -25 -46 -25z" />
    <glyph glyph-name="thothanthai" unicode="&#xe10;" horiz-adv-x="493"
d="M396 515l54 -43c-30 -34 -57 -52 -102 -52c-25 0 -53 5 -85 15c-32 9 -56 14 -70 14c-41 0 -70 -10 -90 -29c43 -1 89 -5 144 -12c108 -17 160 -49 160 -120c0 -20 -17 -74 -54 -164c-16 -40 -24 -81 -24 -124h-83l-51 178c-14 -8 -30 -13 -48 -13c-48 0 -90 35 -90 90
c0 53 42 91 90 91c56 0 86 -32 100 -85l37 -137l34 93c12 29 18 50 18 66c0 25 -27 45 -78 56c-21 6 -56 11 -102 16c-49 4 -111 7 -159 7c22 96 88 153 190 153c25 0 56 -5 91 -16h-1l12 -3c25 -6 48 -12 51 -12c20 0 39 14 56 31zM413 -88v-83c0 -54 -26 -80 -78 -80h-39
l-34 32l-33 -32h-51l-18 32c-5 -5 -11 -9 -16 -12c-17 -10 -38 -16 -63 -16c-51 0 -85 33 -85 78c0 49 43 81 91 81c22 0 38 -3 53 -12l4 38h66c0 -37 -4 -71 -11 -96l14 -19c16 14 43 36 50 41l32 -27c19 -15 19 -17 23 -21h11c8 0 13 5 13 15v6c-2 0 -4 -1 -6 -1
c-47 0 -81 32 -81 76c0 40 36 75 79 75c45 0 79 -31 79 -75zM175 255c0 20 -9 31 -28 31c-17 0 -27 -11 -27 -31c0 -19 10 -28 27 -28c16 0 28 12 28 28zM354 -88c0 13 -8 21 -20 21c-13 0 -21 -8 -21 -21c0 -12 8 -21 21 -21c12 0 20 9 20 21zM83 -184c-14 0 -22 5 -22 15
c0 9 12 18 26 18s25 -4 34 -13c-14 -14 -22 -20 -38 -20z" />
    <glyph glyph-name="thonangmonthothai" unicode="&#xe11;" horiz-adv-x="618"
d="M542 405v-405h-71v398c0 34 -10 53 -29 53c-8 0 -16 -6 -23 -15c-7 -8 -14 -24 -21 -40l-167 -396h-75v255c0 26 16 53 46 84c27 26 41 47 41 63c0 20 -13 44 -17 44c-6 0 -35 -27 -49 -42c-26 19 -54 40 -60 43c-8 -5 -15 -11 -20 -19c45 0 84 -31 84 -77
s-41 -82 -85 -82c-50 0 -90 35 -90 99c0 66 51 127 112 148c16 -7 38 -22 55 -35c19 16 49 34 57 34c14 0 32 -12 49 -33c21 -24 32 -50 32 -82c0 -26 -10 -48 -27 -68c-38 -45 -57 -74 -57 -90v-82l112 266c13 26 25 47 38 60c22 20 45 29 69 29c64 0 96 -36 96 -110z
M121 351c0 13 -11 22 -25 22c-13 0 -24 -9 -24 -22c0 -14 11 -24 24 -24c12 0 25 10 25 24z" />
    <glyph glyph-name="thophuthaothai" unicode="&#xe12;" horiz-adv-x="737"
d="M243 396h-10l-78 51c-36 -10 -62 -50 -62 -94c0 -24 3 -52 8 -86c0 -1 4 -26 13 -72c5 -23 6 -46 7 -72c10 15 21 33 35 50l9 12h-1l19 21l10 12c0 -1 1 1 3 4c-31 13 -55 45 -55 80c0 51 42 89 91 89h7h2c46 -4 84 -40 84 -86c0 -31 -21 -62 -40 -81l-35 -39l-6 -7h1
c-16 -18 -26 -31 -34 -43c-30 -41 -63 -94 -84 -135h-74v82c0 37 -4 81 -15 138c-10 57 -15 99 -15 128c0 92 64 157 144 167l69 -44l74 46c37 -8 65 -21 86 -39v1c29 -26 43 -60 43 -104v-206c51 -7 108 -38 153 -75v412h70v-454c0 -37 -9 -52 -45 -52h-24
c-24 33 -69 73 -118 93l1 -8c0 -52 -42 -89 -92 -89c-51 0 -92 36 -92 88c0 40 31 77 77 88v193c0 45 -16 68 -48 79zM262 303c0 19 -11 28 -30 28c-18 0 -29 -10 -29 -28c0 -14 13 -28 29 -28c17 0 30 13 30 28zM414 84c0 17 -10 27 -30 27c-17 0 -30 -11 -30 -27
c0 -17 13 -30 30 -30c16 0 30 13 30 30z" />
    <glyph glyph-name="nonenthai" unicode="&#xe13;" horiz-adv-x="790"
d="M735 89c0 -54 -40 -90 -95 -90c-54 0 -95 38 -95 90c0 9 -3 1 0 10c-38 -19 -81 -58 -103 -98h-64v359c0 61 -57 91 -129 91c-55 0 -93 -14 -119 -41c25 -9 56 -24 89 -44c-23 -13 -39 -27 -49 -40c-14 -17 -20 -32 -20 -46v-108c10 3 18 4 26 4c50 0 92 -37 92 -92
c0 -53 -44 -91 -94 -91c-58 0 -95 36 -95 96v192c0 27 16 56 36 74c-23 9 -53 18 -83 26c37 83 114 136 216 136c120 0 200 -53 200 -158v-250c47 40 108 71 165 73v325h70v-335c33 -17 52 -47 52 -83zM670 89c0 18 -10 28 -30 28c-17 0 -31 -11 -31 -28
c0 -15 14 -28 31 -28c16 0 30 13 30 28zM205 84c0 19 -10 29 -29 29c-20 0 -30 -10 -30 -29c0 -20 10 -30 30 -30c19 0 29 10 29 30z" />
    <glyph glyph-name="dodekthai" unicode="&#xe14;" horiz-adv-x="512"
d="M450 354v-354h-70v345c0 66 -53 105 -135 105c-78 0 -140 -42 -140 -106c-1 -4 -1 -7 -1 -9v-9c0 -20 3 -47 9 -77c11 -51 19 -92 22 -123c9 16 21 33 36 50l40 51c-34 12 -55 39 -55 79c0 49 38 90 91 90c54 0 93 -37 93 -86c0 -30 -21 -61 -39 -80l-34 -39
c-7 -9 -13 -14 -13 -14l-7 -9c-16 -21 -34 -44 -65 -96l-9 -17c-15 -24 -25 -41 -31 -55h-73v77c0 27 -8 81 -23 159c-8 44 -12 79 -12 103c0 100 85 177 212 177c122 0 204 -68 204 -162zM277 308c0 18 -11 28 -30 28s-29 -10 -29 -28c0 -14 13 -28 29 -28
c17 0 30 13 30 28z" />
    <glyph glyph-name="totaothai" unicode="&#xe15;" horiz-adv-x="510"
d="M246 394h-4l-84 53c-36 -10 -61 -50 -61 -94c0 -24 3 -52 7 -86c0 -1 4 -25 13 -72c5 -23 7 -45 8 -72c10 14 22 34 34 49l26 33l12 13c0 -1 1 1 3 4c-33 13 -56 44 -56 80c0 51 42 89 92 89h7h1c46 -4 84 -40 84 -86c0 -30 -20 -61 -39 -80l-13 -17
c-7 -8 -16 -15 -23 -24c-14 -18 -28 -32 -39 -49c-30 -41 -63 -94 -83 -135h-74v82c0 37 -5 81 -16 138c-10 57 -14 99 -14 128c0 93 64 158 145 167l68 -44l74 46c37 -8 65 -22 84 -38c30 -27 44 -60 44 -104v-375h-70v365c0 45 -16 68 -48 79zM265 303c0 18 -10 28 -29 28
s-29 -10 -29 -28c0 -14 12 -28 29 -28c16 0 29 13 29 28z" />
    <glyph glyph-name="thothungthai" unicode="&#xe16;" horiz-adv-x="518"
d="M431 358v-358h-70v359c0 61 -56 91 -128 91c-57 0 -94 -13 -119 -41c25 -9 56 -25 88 -44c-21 -14 -38 -28 -49 -41c-14 -15 -20 -30 -20 -45v-108c10 3 18 4 27 4c49 0 92 -37 92 -92c0 -53 -45 -91 -94 -91c-59 0 -95 36 -95 97v191c0 26 17 56 36 74
c-23 9 -53 18 -84 26c39 83 116 136 217 136c119 0 199 -53 199 -158zM188 83c0 19 -10 29 -29 29c-20 0 -29 -10 -29 -29c0 -20 9 -30 29 -30c19 0 29 10 29 30z" />
    <glyph glyph-name="thothahanthai" unicode="&#xe17;" horiz-adv-x="579"
d="M491 405v-405h-70v398c0 35 -10 53 -28 53s-33 -20 -44 -54l-143 -397h-75v335c-9 -3 -19 -4 -26 -4c-50 0 -92 37 -92 92c0 54 44 93 94 93c58 0 94 -38 94 -99v-200v-30l84 239c22 56 55 90 109 90c65 0 97 -37 97 -111zM135 423c0 20 -11 29 -29 29
c-20 0 -30 -9 -30 -29c0 -19 10 -29 30 -29c18 0 29 10 29 29z" />
    <glyph glyph-name="thothongthai" unicode="&#xe18;" horiz-adv-x="482"
d="M395 517l52 -45c-29 -32 -61 -52 -103 -52c-21 0 -48 5 -81 14c-34 11 -58 16 -75 16c-35 0 -57 -7 -74 -27c57 -1 112 -6 161 -15c83 -22 124 -52 124 -115v-196c0 -76 -38 -97 -122 -97h-241v66h49v254h71v-254h103c32 0 51 2 57 5c9 4 13 18 13 41v183
c0 11 -7 22 -22 31c-24 12 -62 22 -113 28c-21 0 -52 1 -94 3c-41 2 -79 3 -89 3c22 101 87 156 182 156c23 0 54 -6 86 -16c30 -9 53 -15 58 -15c21 0 24 -1 58 32z" />
    <glyph glyph-name="nonuthai" unicode="&#xe19;" horiz-adv-x="560"
d="M523 88c0 -54 -41 -90 -95 -90s-95 38 -95 90c0 9 0 16 3 24c-22 -7 -49 -22 -74 -39c-27 -21 -52 -47 -70 -73h-63v335c-9 -3 -18 -4 -27 -4c-49 0 -91 37 -91 92c0 54 43 92 94 92c58 0 94 -37 94 -98v-314c56 47 129 76 202 79v324h71v-335c33 -17 51 -47 51 -83z
M132 423c0 20 -10 29 -28 29c-20 0 -30 -9 -30 -29c0 -19 10 -29 30 -29c18 0 28 10 28 29zM458 88c0 20 -10 31 -30 31s-30 -11 -30 -31s10 -31 30 -31s30 11 30 31z" />
    <glyph glyph-name="bobaimaithai" unicode="&#xe1a;" horiz-adv-x="556"
d="M481 506v-409c0 -37 -11 -63 -34 -78h1c-18 -12 -48 -19 -89 -19h-288v66h60v269c-10 -3 -18 -4 -26 -4c-50 0 -92 37 -92 92c0 54 44 93 94 93c58 0 95 -38 95 -99v-351h139c56 0 70 3 70 46v394h70zM135 423c0 20 -11 29 -29 29c-20 0 -30 -9 -30 -29
c0 -19 10 -29 30 -29c18 0 29 10 29 29z" />
    <glyph glyph-name="poplathai" unicode="&#xe1b;" horiz-adv-x="569"
d="M480 713v-616c0 -37 -11 -63 -34 -78h1c-18 -12 -48 -19 -89 -19h-288v66h60v269c-10 -3 -18 -4 -26 -4c-50 0 -92 37 -92 92c0 54 44 93 94 93c58 0 95 -38 95 -99v-351h139c56 0 70 3 70 46v601h70zM134 423c0 20 -11 29 -29 29c-20 0 -30 -9 -30 -29
c0 -19 10 -29 30 -29c18 0 29 10 29 29z" />
    <glyph glyph-name="phophungthai" unicode="&#xe1c;" horiz-adv-x="520"
d="M453 506v-459c0 -31 -15 -47 -46 -47h-18l-138 196c-45 -63 -94 -133 -138 -196h-18c-31 0 -46 16 -46 47v370c0 61 37 99 95 99c50 0 94 -37 94 -93c0 -55 -42 -92 -92 -92c-8 0 -17 1 -27 4v-211c35 49 72 100 106 148h51l106 -148v382h71zM175 423c0 20 -11 29 -30 29
s-29 -9 -29 -29c0 -19 10 -29 29 -29s30 10 30 29z" />
    <glyph glyph-name="fofathai" unicode="&#xe1d;" horiz-adv-x="527"
d="M456 713v-666c0 -31 -15 -47 -46 -47h-18l-139 196c-44 -63 -93 -133 -137 -196h-18c-31 0 -46 16 -46 47v370c0 61 37 99 94 99c51 0 95 -37 95 -93c0 -55 -42 -92 -92 -92c-8 0 -17 1 -27 4v-211c35 49 72 100 106 148h51l106 -148v589h71zM178 423c0 20 -11 29 -31 29
c-18 0 -28 -9 -28 -29c0 -19 10 -29 28 -29c20 0 31 10 31 29z" />
    <glyph glyph-name="phophanthai" unicode="&#xe1e;" horiz-adv-x="620"
d="M548 50c0 -33 -18 -50 -49 -50h-39l-124 377l-121 -377h-38c-33 0 -50 17 -50 50v285c-9 -3 -17 -4 -26 -4c-49 0 -91 37 -91 92c0 54 43 93 94 93c57 0 94 -38 94 -99v-245l107 334h61l111 -337v2v335h71v-456zM131 423c0 20 -9 29 -29 29c-19 0 -29 -9 -29 -29
c0 -19 10 -29 29 -29c20 0 29 10 29 29z" />
    <glyph glyph-name="fofanthai" unicode="&#xe1f;" horiz-adv-x="641"
d="M550 713v-663c0 -33 -18 -50 -49 -50h-39l-125 377l-120 -377h-38c-33 0 -50 17 -50 50v285c-9 -3 -17 -4 -26 -4c-50 0 -91 37 -91 92c0 54 43 93 94 93c57 0 94 -38 94 -99v-245l107 334h61l111 -337v2v542h71zM133 423c0 20 -9 29 -29 29c-19 0 -29 -9 -29 -29
c0 -19 10 -29 29 -29c20 0 29 10 29 29z" />
    <glyph glyph-name="phosamphaothai" unicode="&#xe20;" horiz-adv-x="571"
d="M489 358v-358h-70v359c0 61 -57 91 -129 91c-55 0 -93 -14 -119 -41c25 -9 56 -24 89 -44c-23 -13 -39 -27 -49 -40c-14 -17 -20 -32 -20 -46v-190c0 -61 -36 -97 -91 -97c-50 0 -89 36 -89 91c0 56 38 92 87 92c9 0 15 0 22 -2v107c0 27 16 57 36 74
c-23 9 -51 17 -83 26c36 83 114 136 216 136c120 0 200 -53 200 -158zM126 83c0 17 -13 29 -27 29c-18 0 -27 -10 -27 -29c0 -17 9 -30 27 -30c14 0 27 13 27 30z" />
    <glyph glyph-name="momathai" unicode="&#xe21;" horiz-adv-x="532"
d="M458 506v-446c0 -47 -18 -60 -61 -60h-19c-17 32 -41 61 -75 87c-34 27 -65 41 -103 49v-53c0 -46 -34 -86 -88 -86c-23 0 -46 9 -63 22c-20 19 -33 46 -33 76c0 63 44 108 114 110v130c-10 -3 -18 -4 -27 -4c-49 0 -91 37 -91 92c0 53 44 92 93 92c59 0 95 -37 95 -98
v-218c34 -5 68 -17 97 -33h-1c36 -17 66 -40 91 -67v407h71zM134 423c0 20 -10 29 -30 29c-19 0 -29 -9 -29 -29c0 -19 10 -29 29 -29c20 0 30 10 30 29zM130 88v53c-29 -3 -49 -20 -49 -46c0 -23 10 -36 28 -36c14 0 21 10 21 29z" />
    <glyph glyph-name="yoyakthai" unicode="&#xe22;" horiz-adv-x="519"
d="M437 506v-407c0 -66 -20 -99 -125 -99h-243v166c0 40 19 74 46 93c-39 18 -58 50 -58 91v67c0 61 37 99 94 99c51 0 95 -37 95 -93c0 -55 -42 -92 -92 -92c-9 0 -16 0 -24 2c9 -25 37 -36 73 -36h63v-66h-62c-43 0 -64 -28 -64 -67v-98h156c22 0 41 1 49 2
c14 3 22 18 22 42v396h70zM181 423c0 20 -9 29 -28 29s-30 -9 -30 -29c0 -19 11 -29 30 -29s28 10 28 29z" />
    <glyph glyph-name="roruathai" unicode="&#xe23;" horiz-adv-x="446"
d="M362 519l51 -40c-28 -35 -64 -54 -103 -54c-22 0 -48 5 -78 15c-29 9 -50 14 -65 14c-36 0 -63 -11 -82 -30c98 -1 170 -15 213 -38c37 -21 60 -53 60 -93v-201c0 -60 -38 -96 -96 -96c-50 0 -93 35 -93 91s40 92 91 92c7 0 18 -2 27 -4v114c0 29 -25 49 -71 62h1
c-34 9 -86 12 -157 12h-68c16 101 81 157 175 157c21 0 48 -5 80 -16c3 -1 10 -3 16 -4c21 -6 35 -10 40 -10c25 0 37 10 59 29zM291 87c0 19 -11 29 -30 29s-29 -10 -29 -29c0 -20 10 -30 29 -30s30 10 30 30z" />
    <glyph glyph-name="ruthai" unicode="&#xe24;" horiz-adv-x="508"
d="M431 362v-538h-70v539c0 61 -56 91 -128 91c-57 0 -94 -13 -119 -41c23 -9 55 -24 88 -44c-21 -14 -37 -28 -48 -40c-15 -18 -21 -32 -21 -46v-108c9 3 19 4 27 4c49 0 92 -37 92 -92c0 -54 -45 -91 -94 -91c-59 0 -95 36 -95 96v192c0 28 15 56 35 74
c-24 10 -50 17 -83 26c39 83 116 135 217 135c119 0 199 -52 199 -157zM188 87c0 18 -10 29 -29 29c-20 0 -29 -11 -29 -29c0 -20 9 -30 29 -30c19 0 29 10 29 30z" />
    <glyph glyph-name="lolingthai" unicode="&#xe25;" horiz-adv-x="534"
d="M448 360v-360h-67l-132 257c-18 31 -34 47 -67 47c-27 0 -44 -18 -44 -46v-87c9 3 18 4 27 4c48 0 91 -37 91 -92c0 -53 -44 -91 -94 -91c-58 0 -94 36 -94 97v177c0 61 52 103 113 103c60 0 102 -26 128 -75l68 -132v195c0 60 -56 93 -128 93c-70 0 -126 -28 -138 -85
h-68c9 89 94 151 208 151s197 -62 197 -156zM193 83c0 19 -11 29 -30 29s-28 -10 -28 -29c0 -20 9 -30 28 -30s30 10 30 30z" />
    <glyph glyph-name="luthai" unicode="&#xe26;" horiz-adv-x="582"
d="M493 359v-538h-70v539c0 61 -57 91 -129 91c-55 0 -93 -14 -119 -41c23 -9 55 -23 89 -44c-21 -13 -40 -29 -49 -40c-13 -17 -20 -31 -20 -46v-191c0 -60 -36 -96 -91 -96c-50 0 -89 36 -89 91s38 92 87 92c9 0 15 0 22 -2v107c0 28 15 56 35 73c-23 9 -51 19 -83 27
c38 84 116 135 217 135c120 0 200 -52 200 -157zM130 84c0 17 -13 29 -27 29c-18 0 -28 -11 -28 -29s10 -30 28 -30c14 0 27 12 27 30z" />
    <glyph glyph-name="wowaenthai" unicode="&#xe27;" horiz-adv-x="464"
d="M374 362v-272c0 -60 -37 -96 -95 -96c-50 0 -94 35 -94 91s42 92 92 92c9 0 16 -1 26 -4v186c0 60 -50 93 -114 93c-60 0 -113 -31 -127 -98h-67c9 97 86 164 194 164c107 0 185 -62 185 -156zM307 85c0 19 -10 29 -29 29c-20 0 -29 -10 -29 -29c0 -20 9 -30 29 -30
c19 0 29 10 29 30z" />
    <glyph glyph-name="sosalathai" unicode="&#xe28;" horiz-adv-x="521"
d="M391 560h76c0 -47 -24 -85 -64 -103c29 -31 44 -70 44 -117v-340h-71v333c0 34 -10 62 -31 82c-24 24 -58 35 -100 35c-82 0 -144 -48 -144 -113c0 -38 6 -78 17 -125c1 -4 1 -6 2 -5v-3l1 4c9 36 22 68 33 100c3 7 5 16 8 24c17 41 49 65 90 65c56 0 93 -34 93 -88
c0 -50 -44 -86 -93 -86c-17 0 -37 6 -50 12c-10 -27 -20 -61 -32 -108c-14 -46 -23 -89 -28 -127h-77v84c0 31 -9 87 -22 155c-8 39 -12 73 -12 98c0 48 21 93 60 127c40 35 89 52 154 52c10 0 23 -1 31 -1c3 0 7 -1 9 -1l27 -4c15 -2 30 -4 26 -4c30 0 53 21 53 54z
M281 309c0 19 -10 28 -29 28c-18 0 -29 -10 -29 -28c0 -13 13 -28 29 -28c18 0 29 13 29 28z" />
    <glyph glyph-name="sorusithai" unicode="&#xe29;" horiz-adv-x="564"
d="M504 337l47 -47c-29 -29 -52 -49 -76 -63v-130c0 -37 -11 -63 -34 -78h1c-18 -12 -47 -19 -89 -19h-290v66h61v269c-8 -3 -18 -4 -27 -4c-48 0 -91 37 -91 92c0 54 44 93 94 93c59 0 94 -38 94 -99v-351h141c56 0 69 3 69 46v83c-28 -9 -54 -14 -80 -14
c-61 0 -103 36 -103 86c0 46 37 82 85 82c50 0 87 -35 87 -83l-1 -8c6 2 7 3 12 7v241h71v-196c9 8 19 18 29 27zM332 268c0 14 -10 25 -26 25c-13 0 -25 -11 -25 -25c0 -12 12 -22 25 -22c14 0 26 9 26 22zM127 423c0 20 -9 29 -28 29s-30 -9 -30 -29c0 -19 11 -29 30 -29
s28 10 28 29z" />
    <glyph glyph-name="sosuathai" unicode="&#xe2a;" horiz-adv-x="543"
d="M401 560h77c0 -52 -19 -83 -64 -103c26 -26 37 -58 37 -96v-361h-66l-133 257c-18 31 -33 47 -66 47c-27 0 -44 -18 -44 -45v-88c9 3 17 4 26 4c50 0 91 -37 91 -92c0 -53 -43 -91 -94 -91c-57 0 -94 36 -94 97v177c0 61 52 103 114 103c58 0 101 -27 127 -75
c24 -46 43 -83 69 -134v197c0 60 -55 93 -129 93c-69 0 -125 -28 -136 -85h-70c9 89 93 149 209 149c16 0 36 -1 58 -5h-1c22 -3 34 -4 37 -4c28 0 52 25 52 55zM196 83c0 19 -10 29 -29 29s-29 -10 -29 -29c0 -20 10 -30 29 -30s29 10 29 30z" />
    <glyph glyph-name="hohipthai" unicode="&#xe2b;" horiz-adv-x="563"
d="M502 427c0 -30 -13 -55 -36 -72c12 -16 20 -37 20 -59v-296h-71v296c0 16 -6 29 -17 38c-42 -31 -84 -78 -124 -140c-41 -66 -67 -130 -81 -194h-68v335c-10 -3 -17 -4 -26 -4c-50 0 -92 37 -92 92c0 54 44 93 95 93c57 0 94 -38 94 -99v-197v-31c3 7 7 14 12 22
c19 29 41 59 63 87c24 29 47 52 69 71c-15 15 -22 37 -22 58c0 51 42 89 92 89s92 -38 92 -89zM441 429c0 15 -13 27 -31 27c-16 0 -30 -12 -30 -27c0 -18 12 -30 30 -30c16 0 31 12 31 30zM129 423c0 20 -10 29 -29 29c-20 0 -29 -9 -29 -29c0 -19 9 -29 29 -29
c19 0 29 10 29 29z" />
    <glyph glyph-name="lochulathai" unicode="&#xe2c;" horiz-adv-x="638"
d="M526 562l65 -24c-18 -32 -33 -53 -49 -68c7 -13 9 -26 9 -47v-374c0 -33 -16 -49 -49 -49h-36l-126 284l-124 -284h-36c-33 0 -48 16 -48 49v286c-9 -3 -19 -4 -27 -4c-49 0 -92 37 -92 92c0 54 45 92 94 92c59 0 95 -37 95 -98v-246v-39c4 8 6 18 10 26l99 226h58
l101 -226l12 -30v2c-1 13 -1 23 -1 30v260c-26 -13 -60 -26 -97 -26c-69 0 -119 33 -119 84c0 50 61 89 125 89c45 0 85 -14 113 -40c8 8 15 20 23 35zM384 459c29 0 49 9 69 20c-16 14 -37 22 -65 22c-30 0 -55 -10 -55 -23s21 -19 51 -19zM135 423c0 -19 -10 -29 -29 -29
s-29 10 -29 29c0 20 10 29 29 29s29 -9 29 -29z" />
    <glyph glyph-name="oangthai" unicode="&#xe2d;" horiz-adv-x="546"
d="M453 360v-261c0 -66 -21 -99 -126 -99h-254v256c0 60 36 98 94 98c49 0 94 -37 94 -92c0 -56 -42 -93 -91 -93c-11 0 -15 -1 -27 4v-107h169c21 0 41 1 48 2c15 3 22 17 22 42v247c0 60 -56 93 -126 93c-64 0 -126 -30 -139 -98h-69c11 97 95 164 208 164
c114 0 197 -62 197 -156zM198 262c0 18 -11 29 -30 29s-28 -11 -28 -29c0 -20 9 -30 28 -30s30 10 30 30z" />
    <glyph glyph-name="honokhukthai" unicode="&#xe2e;" horiz-adv-x="538"
d="M426 528l59 -35c-9 -18 -19 -33 -26 -42c-4 -5 -13 -14 -20 -21c7 -15 13 -33 13 -57v-274c0 -66 -20 -99 -124 -99h-256v239c0 61 37 99 94 99c51 0 95 -36 95 -93c0 -55 -42 -91 -92 -91c-11 0 -14 -2 -26 3v-91h203c8 0 13 0 19 2c11 3 17 16 17 42v270c0 1 -1 3 -1 4
v1c-20 -12 -39 -21 -55 -28c-26 -10 -61 -16 -88 -17c-5 -1 -5 -1 -7 -1h-20c-38 0 -70 6 -94 16c-30 13 -48 35 -48 63c0 32 18 58 54 76v0c33 19 72 27 117 27c61 0 114 -14 152 -41l7 8c3 3 5 7 7 10c5 7 -23 -54 20 30zM350 429l1 15l-13 -7zM235 405c48 5 74 14 103 32
c-26 14 -62 21 -101 21c-52 0 -97 -14 -97 -36c0 -13 26 -18 66 -18h23c2 0 4 1 6 1zM197 245c0 20 -9 30 -29 30c-19 0 -29 -10 -29 -30c0 -18 10 -28 29 -28c20 0 29 10 29 28z" />
    <glyph glyph-name="paiyannoithai" unicode="&#xe2f;" horiz-adv-x="511"
d="M422 464v-464h-70v377c-45 -40 -105 -64 -174 -64c-78 0 -136 46 -136 111c0 49 38 88 92 88c53 0 90 -36 90 -88c0 -17 -3 -30 -14 -46c31 3 54 15 81 35c32 24 52 55 60 93h30c25 0 41 0 41 -42zM161 424c0 16 -10 27 -27 27c-19 0 -29 -8 -29 -27c0 -17 10 -26 29 -26
c17 0 27 9 27 26z" />
    <glyph glyph-name="saraathai" unicode="&#xe30;" horiz-adv-x="440"
d="M317 506h70c0 -66 -20 -118 -61 -155c-38 -31 -81 -49 -135 -49c-94 0 -157 45 -157 117c0 51 40 88 90 88c47 0 89 -38 89 -89c0 -17 -5 -34 -13 -46c29 3 55 13 75 30c28 22 42 57 42 104zM317 202h70c0 -66 -20 -117 -60 -153c-37 -32 -80 -49 -136 -49
c-94 0 -157 44 -157 117c0 50 40 87 90 87c47 0 89 -38 89 -88c0 -18 -5 -34 -13 -47c29 4 55 14 75 30c28 23 42 58 42 103zM152 418c0 16 -13 28 -28 28s-28 -12 -28 -28c0 -15 13 -28 28 -28s28 13 28 28zM152 116c0 15 -13 28 -28 28s-28 -13 -28 -28
c0 -16 13 -28 28 -28s28 12 28 28z" />
    <glyph glyph-name="maihanakatthai" unicode="&#xe31;"
d="M14 767h66c0 -63 -24 -114 -71 -150c-38 -30 -86 -47 -138 -47c-46 0 -81 8 -110 25c-34 21 -52 49 -52 87c0 48 33 82 84 82c45 0 84 -34 84 -82c0 -21 -3 -36 -14 -50h5c38 0 72 12 101 33c28 24 45 60 45 102zM-180 680c0 14 -12 27 -27 27c-14 0 -27 -13 -27 -27
c0 -15 13 -26 27 -26c15 0 27 11 27 26z" />
    <glyph glyph-name="saraaathai" unicode="&#xe32;" horiz-adv-x="437"
d="M349 360v-360h-71v357c0 62 -38 93 -102 93c-57 0 -100 -29 -115 -98h-68c10 98 81 164 183 164c103 0 173 -62 173 -156z" />
    <glyph glyph-name="saraamthai" unicode="&#xe33;" horiz-adv-x="433"
d="M-55 658c0 -52 -40 -93 -93 -93c-54 0 -94 41 -94 93c0 54 40 94 94 94c53 0 93 -40 93 -94zM353 360v-360h-70v356c0 62 -38 93 -102 93c-57 0 -100 -29 -115 -98h-68c10 99 81 164 183 164c103 0 172 -61 172 -155zM-116 658c0 19 -14 32 -32 32c-19 0 -32 -13 -32 -32
c0 -18 13 -31 32 -31c18 0 32 13 32 31z" />
    <glyph glyph-name="saraithai" unicode="&#xe34;"
d="M-288 747c124 0 216 -67 233 -181l-16 3c-84 14 -170 18 -274 18h-60c-22 0 -56 -1 -79 -1c17 100 94 161 196 161zM-317 649c51 0 107 -4 168 -12c-31 33 -84 50 -137 50c-42 0 -82 -12 -110 -40c25 2 48 2 79 2z" />
    <glyph glyph-name="saraiithai" unicode="&#xe35;"
d="M-129 783h71v-215c-91 15 -181 20 -284 20c-81 0 -116 -1 -139 -1c18 100 94 161 197 161c62 0 115 -15 155 -45v80zM-314 650c52 0 107 -4 167 -12c-30 33 -83 50 -135 50c-43 0 -81 -12 -110 -40c22 1 52 2 78 2z" />
    <glyph glyph-name="sarauethai" unicode="&#xe36;"
d="M-27 710c0 -34 -15 -57 -44 -72c8 -16 13 -40 18 -69c-92 16 -182 21 -287 21h-59c-22 0 -57 -1 -80 -1c18 100 95 161 196 161c33 0 62 -4 91 -14c11 32 43 56 80 56c48 0 85 -36 85 -82zM-312 652c52 0 107 -4 168 -12c-31 32 -83 49 -137 49c-40 0 -80 -14 -109 -39
c22 1 52 2 78 2zM-110 692c13 0 21 7 21 20s-8 20 -21 20c-12 0 -20 -7 -20 -20s8 -20 20 -20z" />
    <glyph glyph-name="saraueethai" unicode="&#xe37;"
d="M-123 782h71v-215c-91 15 -181 20 -284 20h-60c-21 0 -56 -1 -79 -1c18 100 94 161 197 161c24 0 47 -2 68 -7v42h70v-70c4 -3 5 -3 10 -6c0 0 5 -4 7 -5v81zM-308 649c51 0 107 -4 167 -12c-30 33 -83 50 -135 50c-43 0 -81 -12 -110 -40c22 1 52 2 78 2z" />
    <glyph glyph-name="sarauthai" unicode="&#xe38;"
d="M-71 -135v-179h-71v99c-6 -1 -15 -2 -21 -2c-21 0 -39 7 -54 22c-19 18 -28 39 -28 67c0 53 40 89 85 89c51 0 89 -38 89 -96zM-137 -128c0 18 -8 27 -23 27c-14 0 -22 -9 -22 -27c0 -19 8 -29 22 -29c15 0 23 10 23 29z" />
    <glyph glyph-name="sarauuthai" unicode="&#xe39;"
d="M-64 -39v-177c0 -54 -29 -75 -81 -75h-99v76c-7 -2 -14 -2 -20 -2c-23 0 -40 8 -55 22c-19 18 -28 39 -28 67c0 53 40 89 84 89c52 0 90 -37 90 -96v-93h21c11 0 17 3 17 10v179h71zM-239 -128c0 18 -8 27 -24 27c-14 0 -22 -9 -22 -27c0 -19 8 -29 22 -29
c16 0 24 10 24 29z" />
    <glyph glyph-name="phinthuthai" unicode="&#xe3a;"
d="M-71 -97c0 -34 -22 -55 -52 -55s-53 21 -53 55s23 55 53 55s52 -21 52 -55z" />
    <glyph glyph-name="bahtthai" unicode="&#xe3f;" horiz-adv-x="587"
d="M529 173c0 -44 -12 -81 -35 -108c-36 -40 -99 -65 -181 -65h-9v-78h-50v78h-193v592h193v76h50v-76h9c57 0 101 -10 134 -31v1c40 -25 60 -65 60 -119c0 -58 -27 -104 -76 -127c60 -21 98 -73 98 -143zM433 430c0 64 -40 97 -120 97h-9v-185h9c78 0 120 34 120 88z
M134 342h120v185h-120v-185zM454 174c0 67 -48 101 -141 101h-9v-209h9c43 0 77 9 102 23v0c27 16 39 45 39 85zM134 66h120v209h-120v-209z" />
    <glyph glyph-name="saraethai" unicode="&#xe40;" horiz-adv-x="291"
d="M266 80c0 -52 -44 -87 -91 -87c-59 0 -98 31 -98 93v420h71v-341c9 3 19 4 28 4c48 0 90 -34 90 -89zM204 80c0 18 -10 27 -29 27c-18 0 -32 -10 -32 -27c0 -16 14 -28 32 -28c15 0 29 12 29 28z" />
    <glyph glyph-name="saraaethai" unicode="&#xe41;" horiz-adv-x="536"
d="M499 81c0 -52 -44 -87 -92 -87c-59 0 -97 31 -97 93v420h70v-341c9 3 19 4 28 4c48 0 91 -34 91 -89zM269 81c0 -52 -44 -87 -93 -87c-57 0 -96 31 -96 93v420h71v-340c9 3 16 3 27 3c49 0 91 -34 91 -89zM437 81c0 18 -11 27 -30 27c-18 0 -31 -10 -31 -27
c0 -16 13 -28 31 -28c15 0 30 12 30 28zM206 81c0 18 -9 27 -30 27c-16 0 -30 -10 -30 -27c0 -16 14 -28 30 -28c17 0 30 12 30 28z" />
    <glyph glyph-name="saraothai" unicode="&#xe42;" horiz-adv-x="347"
d="M295 836l46 -44c-35 -29 -70 -52 -106 -52c-21 0 -51 7 -91 19c-19 6 -35 8 -47 8c-24 0 -43 -4 -53 -13c92 -6 157 -57 157 -124v-465c11 5 16 5 28 5c50 0 90 -35 90 -91c0 -54 -44 -88 -93 -88c-59 0 -96 32 -96 94v537c0 30 -17 51 -53 65v-1c-33 10 -78 17 -140 17
c23 80 85 130 153 130c23 0 50 -4 81 -13c33 -9 53 -14 60 -14c15 0 27 3 38 10c5 3 11 6 26 20zM257 79c0 17 -13 30 -30 30s-31 -13 -31 -30c0 -16 14 -28 31 -28c16 0 30 12 30 28z" />
    <glyph glyph-name="saraaimaimuanthai" unicode="&#xe43;" horiz-adv-x="336"
d="M324 80c0 -55 -44 -89 -93 -89c-59 0 -96 34 -96 95v503c0 24 10 50 28 78c17 25 25 47 25 65c0 35 -25 61 -72 61c-11 0 -21 -1 -28 -3c35 -10 58 -40 58 -79c0 -45 -36 -83 -85 -83c-44 0 -90 39 -90 100c0 74 60 130 145 130c83 0 142 -49 142 -123
c0 -29 -10 -60 -28 -88c-16 -25 -24 -47 -24 -66v-415c8 2 18 4 27 4c49 0 91 -35 91 -90zM86 711c0 13 -11 22 -25 22c-12 0 -21 -9 -21 -22c0 -16 8 -24 21 -24c16 0 25 8 25 24zM262 80c0 17 -13 30 -30 30c-18 0 -31 -13 -31 -30c0 -16 13 -28 31 -28c15 0 30 12 30 28z
" />
    <glyph glyph-name="saraaimaimalaithai" unicode="&#xe44;" horiz-adv-x="338"
d="M321 80c0 -54 -43 -88 -93 -88c-58 0 -95 32 -95 94v543c0 24 7 46 19 65l-1 -1c7 15 19 27 34 37c-4 7 -16 14 -27 15l-89 -69c-21 18 -37 33 -46 38v-1c-37 22 -80 39 -136 50l71 56c29 -8 58 -20 80 -33c11 -7 25 -17 32 -24l69 49c60 0 121 -44 121 -99
c-17 -12 -31 -22 -38 -31c-12 -16 -18 -32 -18 -50v-465c8 3 17 5 26 5c52 0 91 -35 91 -91zM259 80c0 17 -12 30 -30 30c-17 0 -30 -13 -30 -30c0 -16 13 -28 30 -28s30 12 30 28z" />
    <glyph glyph-name="lakkhangyaothai" unicode="&#xe45;" horiz-adv-x="432"
d="M353 361v-540h-71v537c0 61 -38 93 -102 93c-57 0 -100 -29 -115 -99h-68c10 99 81 164 183 164c103 0 173 -61 173 -155z" />
    <glyph glyph-name="maiyamokthai" unicode="&#xe46;" horiz-adv-x="497"
d="M416 379v-553h-71v544c0 40 -12 67 -35 77l-74 -60l-82 63c-14 -6 -26 -17 -34 -28c4 1 6 0 10 0c44 0 84 -30 84 -81c0 -50 -40 -79 -84 -79c-26 0 -46 7 -63 25c-22 20 -33 48 -33 82c0 76 56 142 137 153l63 -50l66 49c36 -7 61 -20 80 -39c24 -25 36 -59 36 -103z
M151 341c0 13 -10 24 -22 24c-14 0 -25 -11 -25 -24c0 -10 11 -21 25 -21c12 0 22 8 22 21z" />
    <glyph glyph-name="maitaikhuthai" unicode="&#xe47;"
d="M-126 831h68c-10 -77 -59 -120 -133 -120l-83 3c-32 -2 -57 -18 -57 -45c0 -20 11 -29 24 -33c18 20 41 44 59 62c15 -16 13 -15 39 -41c9 29 38 55 70 55c43 0 74 -29 74 -73c0 -42 -39 -75 -83 -75c-39 0 -71 14 -101 46l-37 -39h-20c-47 0 -92 36 -92 96
c0 62 44 110 123 110l82 -4c38 0 60 20 67 58zM-120 639c0 13 -7 19 -19 19c-13 0 -20 -6 -20 -19s7 -19 20 -19c12 0 19 6 19 19z" />
    <glyph glyph-name="maiekthai" unicode="&#xe48;"
d="M-58 971v-153h-71v153h71z" />
    <glyph glyph-name="maithothai" unicode="&#xe49;"
d="M-26 993l61 -14c-13 -54 -43 -97 -89 -125c-56 -34 -124 -51 -211 -51v47c21 5 37 9 46 17c-30 7 -48 33 -48 68c0 40 34 70 74 70c43 0 77 -25 77 -71c0 -21 -7 -42 -18 -59c54 21 101 64 108 118zM-173 934c0 12 -7 19 -20 19c-14 0 -21 -7 -21 -19c0 -13 7 -20 21 -20
c13 0 20 7 20 20z" />
    <glyph glyph-name="maitrithai" unicode="&#xe4a;"
d="M4 1022h57c0 -53 -10 -99 -33 -137c-19 -32 -43 -58 -70 -79l-50 17c11 35 16 49 16 75c0 22 -8 34 -23 34c-10 0 -18 -3 -22 -11c-2 -2 -4 -10 -5 -22h-52c-6 22 -18 33 -37 33c-5 0 -10 -2 -14 -4c32 -4 54 -27 54 -61c0 -39 -29 -64 -62 -64c-19 0 -34 6 -47 19v-1
c-18 15 -26 38 -26 67c0 59 41 101 94 101c18 0 32 -4 46 -13l-2 1c7 -4 12 -8 19 -15c14 14 35 26 60 26c41 0 71 -28 75 -67c12 27 22 60 22 101zM-225 866c0 10 -5 15 -12 15c-9 0 -14 -5 -14 -15s5 -15 14 -15c7 0 12 5 12 15z" />
    <glyph glyph-name="maichattawathai" unicode="&#xe4b;"
d="M14 938v-55h-75v-71h-65v71h-77v55h77v72h65v-72h75z" />
    <glyph glyph-name="thanthakhatthai" unicode="&#xe4c;"
d="M-61 1016h67c-8 -77 -73 -98 -100 -100c12 -13 19 -29 19 -48c0 -41 -33 -73 -74 -73c-43 0 -82 33 -82 82c0 50 33 88 86 94c22 2 42 5 61 8h-1c11 4 24 20 24 37zM-130 867c0 13 -7 20 -19 20c-13 0 -20 -7 -20 -20c0 -14 7 -21 20 -21c12 0 19 7 19 21z" />
    <glyph glyph-name="nikhahitthai" unicode="&#xe4d;"
d="M-36 655c0 -54 -41 -95 -94 -95s-94 41 -94 95c0 53 41 93 94 93s94 -40 94 -93zM-98 655c0 18 -14 31 -32 31c-19 0 -31 -13 -31 -31c0 -19 12 -33 31 -33c18 0 32 14 32 33z" />
    <glyph glyph-name="yamakkanthai" unicode="&#xe4e;" horiz-adv-x="524"
d="M11 931l-12 -10l-8 2h-26c-67 0 -130 -17 -130 -48c0 -17 30 -22 72 -22v-60c-44 0 -81 -6 -112 -17c-28 -7 -40 -18 -37 -33c1 -6 12 -9 27 -9c22 0 40 4 71 21l31 -54c-39 -18 -81 -29 -107 -29c-2 1 -4 1 -5 1h-9c-48 6 -77 34 -77 68c0 33 22 64 55 80
c8 4 20 10 34 13c-8 12 -13 28 -13 42c0 33 33 73 80 90h-1c45 18 107 18 144 18h23v-53z" />
    <glyph glyph-name="fongmanthai" unicode="&#xe4f;" horiz-adv-x="657"
d="M579 251c0 -72 -25 -132 -76 -183c-51 -50 -111 -75 -183 -75c-71 0 -132 25 -183 75c-51 51 -76 111 -76 183s25 132 76 183c52 50 113 76 183 76c72 0 132 -26 183 -76c51 -51 76 -111 76 -183zM524 251c0 55 -21 104 -61 143c-39 40 -87 59 -143 59s-104 -19 -144 -59
c-39 -41 -59 -89 -59 -143c0 -56 20 -104 59 -144c40 -40 89 -59 144 -59c56 0 104 19 143 59c40 40 61 88 61 144zM482 251c0 -46 -16 -83 -49 -116c-31 -31 -68 -46 -113 -46c-44 0 -82 15 -115 46c-31 33 -47 70 -47 116c0 45 16 83 47 114c32 32 70 47 115 47
s82 -15 113 -47c32 -31 49 -68 49 -114z" />
    <glyph glyph-name="zerothai" unicode="&#xe50;" horiz-adv-x="501"
d="M444 194c0 -57 -19 -103 -56 -141c-37 -36 -86 -55 -145 -55c-60 0 -107 19 -145 55c-38 38 -56 83 -56 141s19 105 56 142c38 37 85 56 145 56c59 0 107 -19 145 -57c37 -38 56 -85 56 -141zM373 194c0 39 -13 72 -39 96c-25 25 -56 38 -91 38c-34 0 -66 -13 -92 -38
c-25 -24 -38 -57 -38 -96c0 -80 59 -136 130 -136c72 0 130 56 130 136z" />
    <glyph glyph-name="onethai" unicode="&#xe51;" horiz-adv-x="505"
d="M454 188c0 -94 -52 -172 -133 -231l-64 35c74 47 126 116 126 191c0 85 -55 144 -136 144c-77 0 -136 -58 -136 -139c0 -61 24 -104 58 -120c-13 15 -21 34 -21 56c0 53 43 92 93 92c54 0 96 -36 96 -94c0 -73 -66 -122 -140 -122c-42 0 -78 15 -107 46
c-33 37 -50 83 -50 142s19 108 59 146c41 39 88 58 146 58c128 0 209 -82 209 -204zM270 124c0 17 -10 32 -28 32c-15 0 -28 -15 -28 -32s12 -31 28 -31c18 0 28 13 28 31z" />
    <glyph glyph-name="twothai" unicode="&#xe52;" horiz-adv-x="663"
d="M587 288v-288h-416c-74 0 -110 32 -110 96v320c0 40 -35 76 -95 93l59 46c72 -21 106 -74 106 -132v-303c0 -42 11 -53 58 -53h327v217c0 31 -20 47 -50 47c-28 0 -51 -20 -51 -47v-199h-71v199c0 25 -25 47 -57 47c-34 0 -58 -18 -58 -47v-33c7 1 15 2 22 2
c39 0 83 -35 83 -86s-40 -86 -86 -86c-51 0 -89 38 -89 93v111c0 69 55 111 125 111c39 0 73 -12 96 -37c22 21 58 37 90 37c63 0 117 -39 117 -108zM270 167c0 18 -7 27 -22 27c-16 0 -23 -9 -23 -27c0 -14 10 -25 23 -25c14 0 22 10 22 25z" />
    <glyph glyph-name="threethai" unicode="&#xe53;" horiz-adv-x="580"
d="M519 260v-260h-71v254c0 40 -21 72 -55 72c-43 0 -65 -38 -65 -73v-253h-71v254c0 40 -26 72 -71 72c-41 0 -68 -27 -68 -64v-99c8 2 17 3 25 3c48 0 89 -33 89 -86c0 -51 -42 -84 -92 -84c-57 0 -92 34 -92 93v173c0 67 57 128 137 128c47 0 83 -15 108 -44
c22 29 56 44 99 44c80 0 127 -53 127 -130zM169 80c0 16 -9 25 -27 25c-19 0 -28 -9 -28 -25c0 -17 10 -27 28 -27s27 9 27 27z" />
    <glyph glyph-name="fourthai" unicode="&#xe54;" horiz-adv-x="532"
d="M427 547h71c0 -131 -87 -211 -228 -211c-113 0 -175 -40 -175 -141c0 -81 48 -131 117 -131c25 0 48 3 70 8c-12 12 -19 20 -27 37c-13 22 -19 47 -19 73c0 56 39 95 91 95s85 -34 85 -85c0 -38 -26 -75 -71 -82c14 -9 33 -17 58 -23h-1c40 -8 72 -23 96 -45l-44 -44
c-29 15 -55 26 -91 26c-4 0 -32 -6 -82 -17c-26 -4 -51 -7 -77 -7c-102 0 -176 74 -176 193c0 73 23 126 69 161c40 29 96 45 168 45c54 0 93 9 122 29h-1c30 22 46 53 46 93c0 2 -1 4 -1 9v17zM350 192c0 17 -8 26 -23 26s-23 -9 -23 -26c0 -13 8 -23 23 -23
c12 0 23 10 23 23z" />
    <glyph glyph-name="fivethai" unicode="&#xe55;" horiz-adv-x="535"
d="M434 548h71c0 -131 -87 -211 -228 -211c-113 0 -175 -40 -175 -141c0 -81 48 -131 117 -131c25 0 48 3 70 8c-12 12 -19 20 -28 37c-12 22 -18 47 -18 73c0 56 39 95 91 95s85 -34 85 -85c0 -38 -26 -75 -71 -82c14 -9 33 -17 58 -23h-1c40 -8 72 -23 96 -45l-44 -44
c-29 15 -55 26 -91 26c-4 0 -32 -6 -82 -17c-26 -4 -51 -7 -77 -7c-102 0 -176 74 -176 193c0 108 51 170 134 194c-8 13 -12 28 -12 47c0 56 43 96 103 96s104 -40 104 -96c0 -8 0 -14 -2 -22c50 22 76 66 76 135zM293 435c0 19 -17 34 -37 34c-22 0 -36 -12 -36 -34
s11 -33 36 -33c20 0 37 11 37 33zM357 193c0 17 -8 26 -24 26c-14 0 -22 -9 -22 -26c0 -13 8 -23 22 -23c13 0 24 10 24 23z" />
    <glyph glyph-name="sixthai" unicode="&#xe56;" horiz-adv-x="516"
d="M479 201c0 -54 -20 -101 -59 -142c-37 -39 -84 -58 -145 -58c-103 0 -180 47 -180 125c0 49 38 85 88 85s89 -36 89 -85c0 -24 -8 -44 -25 -60c7 -1 16 -1 23 -1h5c35 0 67 12 93 38s41 58 41 97c0 37 -12 67 -34 91c-27 26 -59 40 -100 40c-46 0 -99 -21 -123 -54l-57 5
c0 37 -7 72 -21 107c-18 52 -51 92 -96 130l59 37c41 -33 71 -73 94 -119c11 -25 19 -49 24 -73c32 19 72 33 120 33c65 0 115 -21 152 -60c35 -36 52 -81 52 -136zM210 126c0 14 -12 26 -27 26c-14 0 -26 -11 -26 -26c0 -13 12 -25 26 -25c15 0 27 10 27 25z" />
    <glyph glyph-name="seventhai" unicode="&#xe57;" horiz-adv-x="599"
d="M635 341c0 -137 -42 -246 -139 -335h-60v258c0 40 -21 72 -55 72c-44 0 -66 -39 -66 -74v-256h-70v258c0 39 -28 72 -71 72s-68 -29 -68 -66v-100c10 3 16 3 24 3c50 0 89 -33 89 -86c0 -54 -40 -86 -91 -86c-62 0 -93 30 -93 90v183c0 69 58 127 138 127
c48 0 84 -15 107 -44c22 27 57 44 100 44c79 0 127 -53 127 -132v-148c35 63 60 151 60 216c0 72 -11 138 -49 213h73c28 -55 44 -129 44 -209zM156 87c0 15 -9 27 -27 27s-28 -10 -28 -27s10 -27 28 -27c19 0 27 9 27 27z" />
    <glyph glyph-name="eightthai" unicode="&#xe58;" horiz-adv-x="532"
d="M456 548h71c0 -131 -86 -211 -227 -211c-58 0 -101 -9 -129 -29c-31 -21 -46 -58 -46 -112c0 -77 26 -130 50 -130c12 0 31 18 59 52c14 17 29 40 45 64c16 -31 30 -59 44 -76c20 -27 42 -41 65 -41c7 0 14 3 20 9c-48 1 -81 41 -81 82c0 47 35 82 88 82
c51 0 89 -35 89 -93c0 -35 -10 -66 -29 -95c-21 -32 -50 -49 -84 -49c-29 0 -55 10 -81 27c-13 11 -27 25 -38 39c-16 -20 -34 -40 -51 -52c-16 -9 -31 -14 -47 -14c-64 0 -120 75 -120 193c0 74 23 130 69 163c40 28 95 43 168 43c53 0 92 9 122 29h-1c30 22 45 53 45 93
c0 2 -1 4 -1 9v17zM436 157c0 13 -10 25 -23 25c-14 0 -24 -12 -24 -25c0 -15 10 -27 24 -27c13 0 23 12 23 27z" />
    <glyph glyph-name="ninethai" unicode="&#xe59;" horiz-adv-x="572"
d="M560 548h71c0 -48 -10 -99 -29 -149c-23 -58 -48 -86 -74 -86c-23 0 -44 9 -61 27c-15 16 -27 23 -36 23c-22 0 -33 -22 -33 -63c0 -44 26 -122 54 -175c22 -35 54 -67 92 -81l-59 -44c-37 13 -68 48 -97 99c-19 34 -40 84 -59 145c-18 56 -58 87 -112 87
c-62 0 -109 -51 -109 -128c0 -87 43 -139 96 -139c5 0 10 0 14 1c-42 8 -68 44 -68 80c0 51 34 86 87 86c51 0 89 -39 89 -95c0 -81 -55 -135 -125 -135c-44 0 -80 15 -109 44c-38 38 -55 88 -55 158c0 119 76 196 180 196c53 0 90 -14 122 -49c13 42 45 81 91 81
c22 0 44 -10 63 -28c14 -13 25 -22 27 -22c6 0 15 16 23 47c12 35 17 74 17 120zM258 147c0 13 -9 25 -23 25s-23 -12 -23 -25c0 -16 8 -23 23 -23s23 7 23 23z" />
    <glyph glyph-name="angkhankhuthai" unicode="&#xe5a;" horiz-adv-x="579"
d="M412 465v-464h-71v377c-19 -15 -41 -30 -68 -42c-32 -15 -67 -22 -106 -22c-79 0 -136 46 -136 111c0 49 39 88 92 88c49 0 91 -37 91 -88c0 -13 -8 -34 -14 -46c28 4 54 16 80 34c32 25 53 55 61 94h30c25 0 41 -3 41 -42zM151 425c0 15 -11 27 -28 27
c-19 0 -29 -8 -29 -27c0 -15 14 -22 30 -26c18 0 27 9 27 26zM524 507v-506h-71v506h71z" />
    <glyph glyph-name="khomutthai" unicode="&#xe5b;" horiz-adv-x="927"
d="M841 223c0 -17 -17 -21 -35 -24l-62 -6c-2 -4 -1 -6 -3 -9v1c-2 -10 -4 -14 -6 -17v1c-4 -8 -11 -11 -22 -11c-10 0 -17 5 -25 19l-9 18c-11 -39 -20 -52 -37 -52c-14 0 -30 27 -43 54c-2 -13 -5 -23 -8 -29l1 1c-7 -25 -19 -38 -33 -38c-11 0 -23 14 -33 41v1
c-14 38 -10 28 -13 34c-11 -50 -29 -92 -52 -92c-16 0 -26 10 -31 34c-2 7 -3 14 -4 20c-4 23 2 10 -7 34c-14 -54 -36 -100 -66 -133c-40 -44 -89 -69 -141 -69c-99 0 -166 83 -166 210c0 59 15 110 42 151c30 43 68 62 111 62c76 0 131 -66 131 -156
c0 -71 -34 -120 -85 -120c-43 0 -76 37 -76 85c0 43 35 85 76 85l8 -1c-11 30 -28 44 -52 44c-50 0 -90 -62 -90 -155c0 -87 45 -144 109 -144c73 0 135 82 152 212c6 40 13 53 36 53c18 0 41 -34 58 -82l4 27c5 29 15 43 30 43s39 -30 56 -65c6 27 15 43 27 43
c19 0 38 -20 57 -61c0 2 0 3 1 5c2 6 2 8 2 8c8 21 18 30 30 30c10 0 20 -6 29 -20v1c2 -4 4 -9 8 -16c3 -5 -4 8 1 0c7 9 17 14 29 14l67 -9c21 -2 34 -10 34 -22zM264 233c0 19 -7 29 -20 29c-10 0 -19 -13 -19 -29c0 -15 9 -28 19 -28c11 0 20 13 20 28z" />
    <glyph glyph-name="saraulowthai" unicode="&#xf718;"
d="M-71 -318v-179h-71v99c-6 -1 -15 -2 -21 -2c-21 0 -39 7 -54 23c-19 17 -28 39 -28 66c0 53 40 89 85 89c51 0 89 -38 89 -96zM-137 -311c0 18 -8 27 -23 27c-14 0 -22 -9 -22 -27c0 -19 8 -28 22 -28c15 0 23 9 23 28z" />
    <glyph glyph-name="sarauulowthai" unicode="&#xf719;"
d="M-64 -223v-177c0 -54 -29 -75 -81 -75h-99v76c-7 -2 -14 -2 -20 -2c-23 0 -40 8 -55 23c-19 17 -28 39 -28 66c0 53 40 89 84 89c52 0 90 -37 90 -96v-92h21c11 0 17 3 17 9v179h71zM-239 -312c0 18 -8 27 -24 27c-14 0 -22 -9 -22 -27c0 -19 8 -28 22 -28
c16 0 24 9 24 28z" />
    <glyph glyph-name="phinthulowthai" unicode="&#xf71a;"
d="M-71 -273c0 -34 -22 -55 -52 -55s-53 21 -53 55s23 55 53 55s52 -21 52 -55z" />
    <glyph glyph-name="lochula.short" unicode="&#xf71d;" horiz-adv-x="627"
d="M526 562l65 -24c-18 -32 -33 -53 -49 -68c7 -13 9 -26 9 -47v-374c0 -33 -16 -49 -49 -49h-36l-126 284l-124 -284h-36c-33 0 -48 16 -48 49v286c-9 -3 -19 -4 -27 -4c-49 0 -92 37 -92 92c0 54 45 92 94 92c59 0 95 -37 95 -98v-246v-39c4 8 6 18 10 26l99 226h58
l101 -226l12 -30v2c-1 13 -1 23 -1 30v260c-26 -13 -60 -26 -97 -26c-69 0 -119 33 -119 84c0 50 61 89 125 89c45 0 85 -14 113 -40c8 8 15 20 23 35zM384 459c29 0 49 9 69 20c-16 14 -37 22 -65 22c-30 0 -55 -10 -55 -23s21 -19 51 -19zM135 423c0 -19 -10 -29 -29 -29
s-29 10 -29 29c0 20 10 29 29 29s29 -9 29 -29z" />
    <glyph glyph-name="saraamleft" horiz-adv-x="350"
d="M350 355v-356h-70v352c0 61 -38 92 -100 92c-57 0 -100 -29 -114 -97h-68c10 98 81 163 182 163s170 -61 170 -154zM-110 650c0 -53 -40 -92 -92 -92c-53 0 -93 39 -93 92s40 92 93 92c52 0 92 -39 92 -92zM-172 650c0 18 -12 31 -30 31c-19 0 -31 -13 -31 -31
s12 -31 31 -31c18 0 30 13 30 31z" />
    <glyph glyph-name="yamakkanleftthai" horiz-adv-x="524"
 />
    <glyph glyph-name="Typomancer" horiz-adv-x="607"
 />
    <glyph glyph-name="exclamdown" unicode="&#xa1;" horiz-adv-x="191"
d="M136 168v-148c0 -22 -19 -41 -41 -41c-23 0 -42 19 -42 41v148l18 252c0 13 10 22 25 22c12 0 20 -10 22 -23zM140 537c0 -26 -21 -46 -45 -46c-27 0 -47 20 -47 46s20 46 47 46c24 0 45 -20 45 -46z" />
    <glyph glyph-name="cent" unicode="&#xa2;" horiz-adv-x="387"
d="M223 0v-44c0 -16 -11 -27 -27 -27c-15 0 -27 11 -27 27v45c-109 21 -132 121 -132 222c0 99 15 214 132 232v47c0 16 12 27 27 27c16 0 27 -11 27 -27v-46c69 -11 110 -65 119 -122c-2 -17 -13 -34 -29 -37c-21 -3 -38 9 -39 29c-4 29 -19 56 -51 68v-328
c34 14 50 47 54 81v-1c0 19 19 32 40 31c15 -2 27 -22 28 -38c-8 -59 -42 -128 -122 -139zM113 224v-14c0 -46 3 -118 56 -142v322c-55 -30 -56 -113 -56 -166z" />
    <glyph glyph-name="sterling" unicode="&#xa3;" horiz-adv-x="404"
d="M36 64l1 1c44 35 74 76 74 136c0 24 -7 45 -16 68h-63c-16 0 -15 42 0 42h41c-24 43 -40 85 -40 130c0 105 75 160 180 160c97 0 160 -59 168 -149c-2 -19 -14 -38 -34 -41c-21 -2 -41 14 -42 35c-4 53 -38 88 -97 88c-66 0 -96 -43 -96 -101c0 -41 21 -84 42 -122h117
c15 0 13 -42 0 -42h-99c8 -18 13 -36 13 -53c0 -56 -37 -108 -82 -146c22 11 48 16 74 16c12 0 26 -2 59 -10c2 -1 7 -2 8 -2c19 -5 37 -9 56 -9c14 0 30 3 44 10h-1c18 10 36 0 47 -17c8 -17 0 -32 -16 -43c-21 -14 -44 -18 -75 -18c-29 0 -56 7 -82 15h1l-13 3
c-20 5 -41 11 -58 11c-27 0 -48 -7 -69 -17c-16 -11 -40 -6 -50 8c-11 16 -4 36 8 47z" />
    <glyph glyph-name="Euro" unicode="&#x20ac;" horiz-adv-x="506"
d="M83 238h-41c-13 0 -26 11 -26 26c0 14 13 25 26 25h38v23c0 13 -1 21 0 33h-38c-13 0 -26 11 -26 26c0 14 13 25 26 25h43c12 115 54 220 198 220c103 0 168 -75 179 -160c-1 -18 -13 -40 -33 -41c-19 -1 -35 12 -40 29c-7 55 -39 105 -110 105c-78 0 -104 -77 -114 -153
h128c13 0 24 -11 24 -25c0 -15 -11 -26 -24 -26h-133v-56h133c13 0 24 -11 24 -25c0 -15 -11 -26 -24 -26h-132c6 -82 28 -170 118 -170c76 0 106 67 109 137c3 20 19 36 39 35c22 -1 36 -19 36 -41c-6 -103 -61 -199 -180 -199c-157 0 -192 119 -200 238z" />
    <glyph glyph-name="yen" unicode="&#xa5;" horiz-adv-x="462"
d="M433 553l-161 -309h91c12 0 23 -12 23 -24c0 -14 -11 -24 -23 -24h-96v-47h96c12 0 23 -10 23 -24c0 -12 -11 -24 -23 -24h-96v-62c0 -23 -17 -38 -38 -38c-22 0 -38 15 -38 38v62h-95c-14 0 -24 12 -24 24c0 14 10 24 24 24h95v47h-95c-14 0 -24 10 -24 24
c0 12 10 24 24 24h91l-161 309c-10 21 -1 40 16 50c21 10 40 1 50 -17l137 -276l138 276c11 20 32 25 49 17c20 -11 25 -32 17 -50z" />
    <glyph glyph-name="section" unicode="&#xa7;" horiz-adv-x="423"
d="M389 347c0 -75 -39 -120 -111 -136c58 -21 90 -60 90 -117c0 -115 -85 -149 -183 -149c-58 0 -119 10 -171 24l9 66c47 -14 109 -30 163 -30c63 0 118 20 118 89c0 46 -55 66 -113 85c-75 24 -166 60 -166 156c0 73 45 109 125 120c-62 24 -103 65 -103 132
c0 97 80 130 168 130c55 0 118 -13 162 -27l-9 -58c-38 11 -95 25 -147 25c-58 0 -111 -18 -111 -70c0 -57 62 -76 123 -97c70 -22 156 -55 156 -143zM326 347c0 47 -55 57 -119 57c-77 0 -119 -24 -119 -69c0 -60 57 -77 119 -77c63 0 119 20 119 89z" />
    <glyph glyph-name="ordfeminine" unicode="&#xaa;" horiz-adv-x="288"
d="M204 389l-2 28c-23 -18 -53 -32 -86 -32c-59 0 -98 41 -98 94c0 55 38 101 115 106l67 4v14c0 45 -25 57 -56 57c-29 0 -71 -16 -104 -35l-5 63c33 16 74 29 110 29c59 0 114 -29 114 -113v-215h-55zM200 536l-56 -5h1c-54 -4 -66 -23 -66 -52c0 -24 11 -37 39 -37
c36 0 64 18 82 37v57z" />
    <glyph glyph-name="guillemotleft" unicode="&#xab;" horiz-adv-x="335"
d="M289 187v-80l-126 119v57l126 119v-80l-71 -68zM159 187v-80l-126 119v57l126 119v-80l-71 -68z" />
    <glyph glyph-name="guillemotright" unicode="&#xbb;" horiz-adv-x="338"
d="M48 104l71 67c-23 23 -48 47 -71 68v80l127 -119v-57l-127 -119v80zM178 104l71 67c-23 23 -47 47 -71 68v80l126 -119v-57l-126 -119v80z" />
    <glyph glyph-name="logicalnot" unicode="&#xac;" horiz-adv-x="499"
d="M456 338v-178h-68v106h-359v72h427z" />
    <glyph glyph-name="uni00AD" unicode="&#xad;" horiz-adv-x="449"
d="M416 283v-62h-395v62h395z" />
    <glyph glyph-name="degree" unicode="&#xb0;" horiz-adv-x="325"
d="M155 717c74 0 131 -58 131 -130s-57 -130 -131 -130c-69 0 -129 57 -129 130c0 70 57 130 129 130zM155 663c-44 0 -77 -33 -77 -76c0 -42 35 -78 77 -78c21 0 40 7 55 23c16 17 24 35 24 55c0 42 -35 76 -79 76z" />
    <glyph glyph-name="macron" unicode="&#xaf;" horiz-adv-x="335"
d="M22 629h286v-60h-286v60z" />
    <glyph glyph-name="plusminus" unicode="&#xb1;" horiz-adv-x="410"
d="M234 219v-103c0 -18 -13 -33 -32 -33c-17 0 -33 15 -33 33v103h-116c-18 0 -31 14 -31 31c0 18 13 31 31 31h116v103c0 17 14 33 33 33s32 -15 32 -33v-103h116c17 0 31 -15 31 -31c0 -19 -14 -31 -31 -31h-116zM53 62h297c17 0 31 -14 31 -31c0 -18 -14 -31 -31 -31
h-297c-18 0 -31 15 -31 31c0 19 13 31 31 31z" />
    <glyph glyph-name="twosuperior" unicode="&#xb2;" horiz-adv-x="269"
d="M109 582h129v-57h-214v58c88 71 141 116 141 174c0 31 -20 40 -45 40s-59 -14 -88 -31l-2 62c28 16 62 25 92 25c54 0 102 -30 102 -96c0 -60 -45 -116 -115 -175z" />
    <glyph glyph-name="threesuperior" unicode="&#xb3;" horiz-adv-x="269"
d="M24 548l6 60c36 -21 70 -31 95 -31c39 0 57 16 57 42s-19 44 -63 44h-53v57h53c37 0 56 14 56 43c0 20 -14 34 -47 34c-26 0 -62 -13 -86 -24l-5 59c27 10 60 21 92 21c70 0 104 -36 104 -86c0 -30 -9 -57 -39 -75c35 -19 46 -42 46 -75c0 -57 -43 -97 -116 -97
c-39 0 -68 9 -100 28z" />
    <glyph glyph-name="mu" unicode="&#xb5;" horiz-adv-x="469"
d="M52 -192v692h62v-370c0 -51 23 -77 67 -77c61 0 125 47 165 95v352h62v-500h-57l-4 72c-43 -45 -105 -79 -162 -79c-31 0 -51 6 -71 21v-206h-62z" />
    <glyph glyph-name="paragraph" unicode="&#xb6;" horiz-adv-x="456"
d="M389 668v-805h-56v805h-66v-805h-53v477c-66 1 -114 15 -152 39c-43 31 -66 81 -66 148c0 63 20 111 61 143c36 27 87 42 152 42h241v-44h-61z" />
    <glyph glyph-name="periodcentered" unicode="&#xb7;" horiz-adv-x="196"
d="M44 302c0 28 24 52 53 52c28 0 52 -24 52 -52c0 -29 -24 -53 -52 -53c-29 0 -53 24 -53 53z" />
    <glyph glyph-name="onesuperior" unicode="&#xb9;" horiz-adv-x="242"
d="M117 276v327l-77 -67v72l84 74h48v-406h-55z" />
    <glyph glyph-name="ordmasculine" unicode="&#xba;" horiz-adv-x="318"
d="M157 442c59 0 77 43 77 96v26c0 53 -18 96 -77 96c-60 0 -77 -43 -77 -96v-26c0 -53 17 -96 77 -96zM157 385c-99 0 -135 73 -135 151v30c0 78 36 151 135 151s135 -73 135 -151v-30c0 -78 -36 -151 -135 -151z" />
    <glyph glyph-name="OE" unicode="&#x152;" horiz-adv-x="904"
d="M442 60v590c-21 0 -40 2 -63 4c-25 2 -47 3 -65 3c-142 0 -217 -121 -217 -271v-62c0 -150 75 -271 217 -271c17 0 41 1 65 3c22 2 43 4 63 4zM855 0h-403c-22 0 -46 -2 -71 -4s-49 -3 -67 -3c-175 0 -281 131 -281 334v56c0 203 106 334 281 334c17 0 43 -1 67 -3
c25 -2 49 -4 71 -4h390v-60h-337v-264h295v-60h-295v-266h350v-60z" />
    <glyph glyph-name="oe" unicode="&#x153;" horiz-adv-x="735"
d="M679 211h-310c6 -102 58 -158 154 -158c36 0 75 12 126 35l9 -60c-49 -24 -95 -35 -135 -35c-54 0 -102 17 -138 44c-33 -27 -78 -44 -138 -44c-161 0 -212 114 -212 239v36c0 125 51 239 212 239c63 0 108 -18 142 -46c36 32 78 46 124 46c91 0 178 -70 178 -210
c0 -25 -4 -54 -12 -86zM247 53c41 0 74 11 97 31c-26 40 -38 91 -38 153c0 73 16 131 42 175c-24 22 -57 35 -101 35c-108 0 -150 -78 -150 -183v-28c0 -105 42 -183 150 -183zM512 447c-67 0 -129 -67 -142 -177h256c1 10 2 18 2 27c0 98 -56 150 -116 150z" />
    <glyph glyph-name="questiondown" unicode="&#xbf;" horiz-adv-x="433"
d="M204 413h64v-25c0 -110 -50 -171 -95 -226c-36 -43 -69 -84 -69 -144c0 -82 54 -107 118 -107c46 0 105 14 153 30l13 -59c-53 -18 -115 -32 -166 -32c-98 0 -181 43 -181 168c0 78 40 128 80 176c39 47 83 106 83 189v30zM288 520c0 -30 -23 -53 -54 -53
c-30 0 -53 23 -53 53s23 54 53 54c31 0 54 -24 54 -54z" />
    <glyph glyph-name="AE" unicode="&#xc6;" horiz-adv-x="848"
d="M787 650h-326c3 -91 8 -172 11 -264h273v-60h-273c3 -91 8 -174 11 -266h317v-60h-380l-8 234h-254c-28 -74 -58 -159 -86 -234h-62l267 710h510v-60zM316 650l-134 -355h228l-12 355h-82z" />
    <glyph glyph-name="Thorn" unicode="&#xde;" horiz-adv-x="509"
d="M56 0v710h63v-130c33 6 62 8 91 8c163 0 266 -79 266 -217c0 -118 -75 -211 -232 -211h-125v-160h-63zM119 516v-296h125c107 0 169 57 169 151c0 121 -105 157 -204 157c-30 0 -62 -4 -90 -12z" />
    <glyph glyph-name="Oslash" unicode="&#xd8;" horiz-adv-x="636"
d="M312 -7c-32 0 -67 6 -96 15l-37 -105h-59l46 128c-89 53 -136 157 -136 296v56c0 203 108 334 282 334c34 0 67 -5 95 -15c12 34 26 72 38 105h60l-46 -129c87 -54 135 -157 135 -295v-56c0 -203 -108 -334 -282 -334zM312 657c-141 0 -219 -121 -219 -271v-62
c0 -101 29 -186 95 -232c66 185 132 365 199 551c-23 8 -48 14 -75 14zM531 386c0 95 -36 182 -95 230l-198 -550c22 -8 46 -13 74 -13c141 0 219 121 219 271v62z" />
    <glyph glyph-name="germandbls" unicode="&#xdf;" horiz-adv-x="464"
d="M377 680l-118 -291c101 -59 169 -106 169 -236c0 -106 -52 -160 -139 -160c-36 0 -80 10 -119 26l9 67c37 -21 76 -33 105 -33c49 0 81 30 81 100c0 95 -54 128 -168 202v44l102 251c-33 12 -63 21 -92 21c-52 0 -93 -28 -93 -104v-567h-62v572c0 112 67 159 155 159
c52 0 113 -19 170 -51z" />
    <glyph glyph-name="ae" unicode="&#xe6;" horiz-adv-x="734"
d="M678 211h-310c6 -102 58 -158 154 -158c36 0 75 12 126 35l9 -60c-49 -24 -95 -35 -135 -35c-74 0 -129 25 -166 70c-56 -43 -118 -70 -184 -70c-83 0 -142 42 -142 142c0 78 51 149 169 156l110 8c5 29 12 58 23 81c-20 46 -72 67 -124 67c-45 0 -99 -14 -143 -35l-7 62
c50 19 104 33 152 33c62 0 118 -19 158 -68c38 48 87 68 144 68c91 0 178 -70 178 -210c0 -25 -4 -54 -12 -86zM511 447c-67 0 -129 -67 -142 -177h256c1 10 2 18 2 27c0 98 -56 150 -116 150zM175 53c58 0 112 28 153 57c-15 35 -23 80 -23 127v2c-34 -2 -69 -5 -103 -7
c-74 -8 -109 -49 -109 -96c0 -61 32 -83 82 -83z" />
    <glyph glyph-name="eth" unicode="&#xf0;" horiz-adv-x="455"
d="M386 728l-66 -75c57 -53 75 -135 75 -242v-357c-65 -40 -129 -61 -189 -61c-106 0 -170 63 -170 219v73c0 145 64 222 163 222c49 0 96 -20 133 -59c-3 71 -16 123 -55 159l-39 -45h-80l69 78c-19 8 -44 14 -82 22l47 48c29 -5 55 -13 77 -23c10 12 28 29 37 41h80z
M332 87v277c-37 51 -85 83 -131 83c-67 0 -103 -52 -103 -163v-72c0 -116 36 -159 108 -159c37 0 80 12 126 34z" />
    <glyph glyph-name="oslash" unicode="&#xf8;" horiz-adv-x="500"
d="M245 -7c-22 0 -44 2 -61 6c-12 -31 -23 -65 -34 -95h-59l42 114c-75 42 -102 125 -102 214v36c0 125 53 239 214 239c22 0 43 -2 61 -6c11 31 24 67 34 97h59l-41 -117c74 -41 102 -124 102 -213v-36c0 -125 -53 -239 -215 -239zM93 236c0 -69 19 -126 62 -157
c44 124 84 240 130 364c-13 3 -26 4 -40 4c-108 0 -152 -78 -152 -183v-28zM245 53c109 0 152 78 152 183v28c0 69 -20 125 -61 157c-45 -124 -85 -240 -130 -364c12 -3 25 -4 39 -4z" />
    <glyph glyph-name="thorn" unicode="&#xfe;" horiz-adv-x="477"
d="M52 -192v916h62v-278c41 38 94 61 137 61c94 0 180 -77 180 -222v-69c0 -161 -86 -223 -197 -223c-39 0 -77 7 -120 21v-206h-62zM114 366v-288c44 -16 82 -25 120 -25c81 0 134 46 134 163v68c0 111 -55 163 -119 163c-46 0 -96 -26 -135 -81z" />
    <glyph glyph-name="brokenbar" unicode="&#xa6;" horiz-adv-x="175"
d="M118 759v-392h-63v392h63zM118 295v-392h-63v392h63z" />
    <glyph glyph-name="dieresis" unicode="&#xa8;" horiz-adv-x="324"
d="M21 634c0 28 21 50 49 50c29 0 50 -22 50 -50s-21 -49 -50 -49c-28 0 -49 21 -49 49zM200 634c0 28 21 50 49 50s50 -22 50 -50s-22 -49 -50 -49s-49 21 -49 49z" />
    <glyph glyph-name="acute" unicode="&#xb4;" horiz-adv-x="156"
d="M163 710l-105 -141h-67l90 141h82z" />
    <glyph glyph-name="cedilla" unicode="&#xb8;" horiz-adv-x="170"
d="M39 -78l20 97h57l-7 -39c37 -4 54 -30 54 -69c0 -45 -26 -83 -86 -83c-21 0 -51 7 -75 15l13 60c25 -10 45 -15 62 -15c20 0 27 9 27 22c0 7 -5 12 -14 12h-51z" />
    <glyph glyph-name="onequarter" unicode="&#xbc;" horiz-adv-x="601"
d="M510 101h22c18 0 18 -48 0 -48h-22v-30c0 -12 -12 -24 -25 -24s-23 12 -23 24v30h-115c-19 0 -29 19 -22 34l121 248c5 11 21 18 32 11h-1c12 -5 16 -20 11 -32l-103 -213h77v92c0 12 10 24 23 24s25 -12 25 -24v-92zM453 531v2c-4 -10 -40 -67 -319 -517
c-13 -21 -57 6 -44 28l321 515c26 27 57 -3 42 -28zM152 545v-298c0 -13 -12 -24 -24 -24c-13 0 -25 11 -25 24v244l-34 -30c-12 -10 -26 -7 -35 3c-8 10 -7 24 2 33l75 66c17 14 41 2 41 -18z" />
    <glyph glyph-name="onehalf" unicode="&#xbd;" horiz-adv-x="578"
d="M441 559h-1c11 -8 14 -27 5 -36l1 2l-316 -509c-14 -23 -53 5 -42 27l319 515c7 10 25 10 34 1zM399 48h109c13 0 23 -9 23 -24c0 -12 -10 -24 -23 -24h-161c-9 0 -18 5 -21 16v-1c-3 8 -2 18 3 24l-1 -2c1 3 102 124 126 153v-1c15 18 26 41 26 54c0 29 -19 53 -49 53
c-28 0 -51 -23 -51 -50c0 -14 -9 -23 -23 -23c-13 0 -24 9 -24 23c0 55 44 97 98 97c52 0 97 -42 97 -97c0 -30 -19 -66 -37 -86l-36 -44zM149 544v-298c0 -14 -12 -23 -25 -23c-12 0 -24 9 -24 23v245l-36 -32c-10 -7 -24 -6 -33 4c-8 10 -7 24 2 33l75 66v-1
c15 15 41 0 41 -17z" />
    <glyph glyph-name="threequarters" unicode="&#xbe;" horiz-adv-x="590"
d="M519 101h21c13 0 24 -12 24 -24c0 -13 -11 -24 -24 -24h-21v-29c0 -14 -12 -24 -25 -24c-14 0 -24 10 -24 24v29h-115c-17 0 -29 22 -20 36c40 81 79 165 118 247c5 11 21 15 35 10c11 -6 15 -20 8 -32v1c-36 -76 -68 -138 -104 -214h78v93c0 13 10 23 24 23
c13 0 25 -10 25 -23v-93zM416 556c17 23 59 5 46 -23c0 -2 -2 -5 -6 -11l1 1l-314 -505c-14 -23 -60 1 -46 26zM221 478c0 -28 -13 -52 -30 -70c23 -18 38 -46 38 -77c0 -57 -45 -101 -101 -101c-55 0 -102 44 -102 101c0 11 10 23 24 23c12 0 24 -12 24 -23
c0 -30 24 -55 54 -55s54 25 54 55c0 29 -24 53 -54 53c-12 0 -24 10 -24 24c0 12 12 23 24 23c25 0 46 21 46 47c0 25 -21 45 -46 45c-26 0 -46 -20 -46 -45c0 -14 -10 -24 -24 -24c-12 0 -23 10 -23 24c0 52 41 93 93 93s93 -41 93 -93z" />
    <glyph glyph-name="circumflex" unicode="&#x2c6;" horiz-adv-x="233"
d="M114 643l-57 -74h-75l109 141h47l109 -141h-75z" />
    <glyph glyph-name="caron" unicode="&#x2c7;" horiz-adv-x="232"
d="M57 710l57 -73c19 24 39 50 58 73h75l-109 -141h-47l-109 141h75z" />
    <glyph glyph-name="breve" unicode="&#x2d8;" horiz-adv-x="241"
d="M14 650v60h61v-57c0 -18 18 -26 40 -26c18 0 30 2 43 8v75h61v-108c-38 -22 -70 -33 -105 -33c-52 0 -100 25 -100 81z" />
    <glyph glyph-name="dotaccent" unicode="&#x2d9;" horiz-adv-x="140"
d="M19 634c0 28 22 50 50 50s50 -22 50 -50s-22 -49 -50 -49s-50 21 -50 49z" />
    <glyph glyph-name="ring" unicode="&#x2da;" horiz-adv-x="193"
d="M19 640c0 46 31 77 76 77s77 -31 77 -77c0 -45 -32 -76 -77 -76s-76 31 -76 76zM73 640c0 -14 8 -21 22 -21s22 7 22 21c0 15 -8 22 -22 22s-22 -7 -22 -22z" />
    <glyph glyph-name="ogonek" unicode="&#x2db;" horiz-adv-x="158"
d="M85 19h72c-52 -37 -90 -70 -90 -104c0 -18 10 -29 29 -29c10 0 26 4 45 13l9 -58c-23 -9 -39 -13 -55 -13c-49 0 -87 30 -87 83c0 51 35 83 77 108z" />
    <glyph glyph-name="tilde" unicode="&#x2dc;" horiz-adv-x="295"
d="M200 641c10 0 21 15 25 46l62 -15c-11 -55 -46 -91 -88 -91c-28 0 -51 15 -71 29c-14 10 -26 18 -37 18c-10 0 -21 -14 -25 -45l-62 14c11 56 46 92 87 92c27 0 48 -15 68 -29h-1c14 -9 28 -19 42 -19z" />
    <glyph glyph-name="hungarumlaut" unicode="&#x2dd;" horiz-adv-x="258"
d="M164 710l-105 -141h-67l90 141h82zM265 710l-105 -141h-67l90 141h82z" />
    <glyph glyph-name="pi" unicode="&#x3c0;" horiz-adv-x="544"
d="M167 0h-63v440h-77v60h475v-60h-76v-340c0 -34 12 -47 31 -47c13 0 34 9 61 23l5 -62c-24 -14 -47 -21 -69 -21c-52 0 -91 39 -91 106v341h-196v-440z" />
    <glyph glyph-name="quotesinglbase" unicode="&#x201a;" horiz-adv-x="143"
d="M125 50c0 -51 -22 -96 -67 -128l-44 29c20 16 39 35 47 50c-27 3 -46 21 -46 56c0 31 24 57 55 57s55 -24 55 -64z" />
    <glyph glyph-name="quotedblbase" unicode="&#x201e;" horiz-adv-x="263"
d="M127 50c0 -51 -22 -96 -67 -128l-45 29c21 16 40 35 48 50c-27 3 -47 21 -47 56c0 31 25 57 56 57s55 -24 55 -64zM239 50c0 -51 -22 -96 -67 -128l-45 29c21 16 40 35 48 50c-27 3 -47 21 -47 56c0 31 25 57 56 57s55 -24 55 -64z" />
    <glyph glyph-name="dagger" unicode="&#x2020;" horiz-adv-x="310"
d="M13 506h108v204h63v-204h108v-61h-108v-542h-63v542h-108v61z" />
    <glyph glyph-name="daggerdbl" unicode="&#x2021;" horiz-adv-x="310"
d="M13 167h108v278h-108v61h108v204h63v-204h108v-61h-108v-278h108v-60h-108v-204h-63v204h-108v60z" />
    <glyph glyph-name="guilsinglleft" unicode="&#x2039;" horiz-adv-x="400"
d="M41 233l297 157c27 13 51 -39 28 -51v0l-265 -142l167 -89l98 -53v0c25 -10 0 -65 -27 -51c-49 25 -99 52 -150 79l-146 77c-13 9 -24 22 -24 37c0 16 9 29 22 36z" />
    <glyph glyph-name="guilsinglright" unicode="&#x203a;" horiz-adv-x="411"
d="M67 389l300 -157c12 -7 21 -20 21 -36c0 -15 -10 -29 -22 -36l-298 -157c-26 -14 -51 41 -26 51h-1l98 53c47 25 89 47 167 89c-88 47 -177 96 -265 142h1c-24 12 0 64 25 51z" />
    <glyph glyph-name="perthousand" unicode="&#x2030;" horiz-adv-x="1025"
d="M677 710l-563 -710h-77l563 710h77zM56 577c0 78 62 140 140 140s140 -62 140 -140s-62 -140 -140 -140s-140 62 -140 140zM120 577c0 -42 34 -76 76 -76s76 34 76 76s-34 76 -76 76s-76 -34 -76 -76zM380 133c0 78 63 140 141 140c77 0 140 -62 140 -140
s-63 -140 -140 -140c-78 0 -141 62 -141 140zM445 133c0 -42 34 -76 76 -76c41 0 75 34 75 76s-34 76 -75 76c-42 0 -76 -34 -76 -76zM694 133c0 78 62 140 140 140s140 -62 140 -140s-62 -140 -140 -140s-140 62 -140 140zM758 133c0 -42 34 -76 76 -76s76 34 76 76
s-34 76 -76 76s-76 -34 -76 -76z" />
    <glyph glyph-name="Omega" unicode="&#x2126;" horiz-adv-x="602"
d="M297 657c-135 0 -202 -95 -202 -229s69 -207 153 -224v-204h-177v61h114v98c-101 36 -154 128 -154 269c0 187 98 289 266 289s265 -102 265 -289c0 -141 -52 -233 -153 -269v-98h114v-61h-177v204c84 17 153 90 153 224s-67 229 -202 229z" />
    <glyph glyph-name="Delta" unicode="&#x2206;" horiz-adv-x="600"
d="M583 0h-574l287 788zM499 60l-203 562c-69 -190 -135 -370 -204 -562h407z" />
    <glyph glyph-name="product" unicode="&#x220f;" horiz-adv-x="545"
d="M98 650h-76v60h493v-60h-76v-650h-63v650h-215v-650h-63v650z" />
    <glyph glyph-name="summation" unicode="&#x2211;" horiz-adv-x="466"
d="M282 355l-255 301v54h400v-60h-309c73 -87 157 -184 230 -271v-48l-230 -271h309v-60h-400v54z" />
    <glyph glyph-name="minus" unicode="&#x2212;" horiz-adv-x="419"
d="M384 222h-355v60h355v-60z" />
    <glyph glyph-name="uni2215" unicode="&#x2215;" horiz-adv-x="703"
d="M598 710h71l-571 -710h-71z" />
    <glyph glyph-name="radical" unicode="&#x221a;" horiz-adv-x="482"
d="M14 250v61h118l85 -202c62 206 126 418 186 623h69l-219 -732h-58l-105 250h-76z" />
    <glyph glyph-name="infinity" unicode="&#x221e;" horiz-adv-x="607"
d="M148 279c-87 0 -123 62 -123 126c0 62 36 125 123 125c50 0 108 -16 159 -68c38 37 82 68 145 68c87 0 123 -62 123 -125s-36 -126 -123 -126c-50 0 -110 16 -164 71c-36 -37 -83 -71 -140 -71zM451 470c-50 0 -84 -32 -121 -74c45 -51 82 -57 121 -57c44 0 61 34 61 66
c0 33 -17 65 -61 65zM149 470c-45 0 -61 -33 -61 -65c0 -33 16 -66 61 -66c47 0 79 35 117 78c-43 46 -80 53 -117 53z" />
    <glyph glyph-name="integral" unicode="&#x222b;" horiz-adv-x="365"
d="M225 598l-80 -675c-10 -71 -48 -124 -116 -124c-21 0 -46 6 -75 18l8 62c27 -12 47 -20 64 -20c33 0 50 22 56 71l82 686c7 69 47 123 124 123c19 0 41 -4 70 -14l-9 -59c-25 9 -42 13 -60 13c-39 0 -57 -22 -64 -81z" />
    <glyph glyph-name="approxequal" unicode="&#x2248;" horiz-adv-x="419"
d="M293 318c17 0 26 14 26 39v16h62v-17c0 -61 -27 -98 -88 -98c-39 0 -73 17 -104 33c-26 12 -49 25 -69 25c-18 0 -27 -14 -27 -39v-15h-62v16c0 61 27 98 89 98c38 0 73 -18 105 -34c25 -12 47 -24 68 -24zM293 188c17 0 26 13 26 39v15h62v-16c0 -62 -27 -99 -88 -99
c-39 0 -73 18 -104 33c-26 13 -49 26 -69 26c-18 0 -27 -14 -27 -39v-16h-62v17c0 61 27 98 89 98c38 0 73 -18 105 -34c25 -13 47 -24 68 -24z" />
    <glyph glyph-name="notequal" unicode="&#x2260;" horiz-adv-x="419"
d="M29 226h133l24 52h-157v60h182c16 35 32 75 47 109h63l-46 -109h109v-60h-134l-23 -52h157v-61h-183l-45 -107h-64l46 107h-109v61z" />
    <glyph glyph-name="lessequal" unicode="&#x2264;" horiz-adv-x="419"
d="M47 349l296 157c24 9 52 -40 28 -51h1l-264 -142c52 -29 105 -55 159 -85l105 -57c35 -19 7 -66 -27 -51l-296 156c-13 8 -23 22 -23 36c0 16 8 29 21 37zM357 1h-299c-18 0 -32 14 -32 33c0 18 14 33 32 33h299c18 0 32 -15 32 -33c0 -19 -14 -33 -32 -33z" />
    <glyph glyph-name="greaterequal" unicode="&#x2265;" horiz-adv-x="419"
d="M74 506l297 -157c12 -8 20 -21 20 -37c0 -14 -10 -28 -22 -36l-298 -156c-34 -15 -60 32 -26 51l105 57c57 31 104 55 159 86l-264 141h1c-24 11 5 60 28 51zM359 1h-299c-18 0 -32 14 -32 33c0 18 14 33 32 33h299c18 0 32 -15 32 -33c0 -19 -14 -33 -32 -33z" />
    <glyph glyph-name="lozenge" unicode="&#x25ca;" horiz-adv-x="362"
d="M179 -46l-177 416l177 415l177 -415zM179 97l114 273l-114 272c-39 -92 -78 -180 -117 -272z" />
    <glyph glyph-name="florin" unicode="&#x192;" horiz-adv-x="300"
d="M20 385h93l10 208c4 85 51 138 127 138c18 0 40 -4 69 -15l-9 -57c-25 8 -42 12 -59 12c-39 0 -63 -20 -66 -79l-9 -207h95v-60h-97l-16 -382c-5 -91 -49 -142 -118 -142c-21 0 -46 6 -75 18l9 62c26 -13 46 -20 63 -20c32 0 55 21 58 85c5 129 12 250 16 379h-91v60z
" />
    <glyph glyph-name="Scaron" unicode="&#x160;" horiz-adv-x="524"
d="M478 172c0 -132 -102 -179 -214 -179c-75 0 -161 23 -232 54l10 65c46 -24 142 -59 222 -59c77 0 151 29 151 119c0 86 -84 123 -170 162c-97 42 -196 88 -196 200c0 139 111 183 228 183c68 0 139 -17 196 -39l-10 -58c-47 18 -120 37 -185 37c-86 0 -166 -29 -166 -121
c0 -73 77 -108 159 -146c100 -46 207 -94 207 -218zM201 914l57 -73c19 25 39 50 58 73h75l-109 -141h-47l-109 141h75z" />
    <glyph glyph-name="scaron" unicode="&#x161;" horiz-adv-x="398"
d="M353 480l-9 -57c-38 11 -94 24 -146 24c-57 0 -110 -17 -110 -68c0 -57 62 -76 122 -96c70 -22 154 -55 154 -142c0 -114 -83 -148 -180 -148c-57 0 -118 11 -169 24l9 66c46 -14 108 -30 160 -30c63 0 118 20 118 88c0 46 -55 65 -113 84c-74 24 -163 60 -163 154
c0 95 80 128 166 128c55 0 117 -13 161 -27zM138 702l57 -72c18 24 39 49 57 72h74l-108 -140h-46l-108 140h74z" />
    <glyph glyph-name="Zcaron" unicode="&#x17d;" horiz-adv-x="538"
d="M507 0h-484v53l380 597h-353v60h429v-53l-380 -597h408v-60zM208 914l57 -73c19 25 39 50 58 73h75l-109 -141h-47l-109 141h75z" />
    <glyph glyph-name="zcaron" unicode="&#x17e;" horiz-adv-x="434"
d="M398 0h-375v53l285 387h-274v60h351v-53l-285 -387h298v-60zM156 702l57 -72c18 24 38 49 57 72h74l-108 -140h-46l-108 140h74z" />
    <glyph glyph-name="Ydieresis" unicode="&#x178;" horiz-adv-x="561"
d="M276 352l208 358h71l-247 -425v-285h-63v285l-247 425h71zM137 838c0 29 21 50 50 50c28 0 49 -21 49 -50c0 -28 -21 -49 -49 -49c-29 0 -50 21 -50 49zM316 838c0 29 21 50 50 50c28 0 49 -21 49 -50c0 -28 -21 -49 -49 -49c-29 0 -50 21 -50 49z" />
    <glyph glyph-name="Acircumflex" unicode="&#xc2;" horiz-adv-x="600"
d="M69 0h-60l259 710h56l259 -710h-60l-87 234h-281zM416 295l-120 326c-41 -111 -79 -213 -120 -326h240zM296 847l-57 -74h-75l109 141h46l109 -141h-75z" />
    <glyph glyph-name="Atilde" unicode="&#xc3;" horiz-adv-x="600"
d="M69 0h-60l259 710h56l259 -710h-60l-87 234h-281zM416 295l-120 326c-41 -111 -79 -213 -120 -326h240zM350 845c10 0 21 15 25 46l62 -15c-11 -55 -46 -91 -88 -91c-28 0 -51 15 -71 29c-14 10 -26 19 -37 19c-10 0 -21 -15 -25 -46l-62 14c11 56 46 92 87 92
c27 0 48 -15 68 -28h-1c14 -10 28 -20 42 -20z" />
    <glyph glyph-name="Adieresis" unicode="&#xc4;" horiz-adv-x="600"
d="M69 0h-60l259 710h56l259 -710h-60l-87 234h-281zM416 295l-120 326c-41 -111 -79 -213 -120 -326h240zM157 838c0 29 21 50 49 50c29 0 50 -21 50 -50c0 -28 -21 -49 -50 -49c-28 0 -49 21 -49 49zM336 838c0 29 21 50 49 50c29 0 50 -21 50 -50c0 -28 -21 -49 -50 -49
c-28 0 -49 21 -49 49z" />
    <glyph glyph-name="Aring" unicode="&#xc5;" horiz-adv-x="600"
d="M69 0h-60l259 710h56l259 -710h-60l-87 234h-281zM416 295l-120 326c-41 -111 -79 -213 -120 -326h240zM219 844c0 46 31 77 76 77c46 0 77 -31 77 -77c0 -45 -31 -76 -77 -76c-45 0 -76 31 -76 76zM274 844c0 -13 7 -21 21 -21c15 0 22 8 22 21c0 15 -7 23 -22 23
c-14 0 -21 -8 -21 -23z" />
    <glyph glyph-name="Ccedilla" unicode="&#xc7;" horiz-adv-x="530"
d="M249 -78l14 74c-123 20 -225 107 -225 298v92c0 216 113 331 275 331c53 0 110 -12 173 -46l-13 -56c-58 28 -114 42 -161 42c-116 0 -211 -82 -211 -268v-97c0 -168 96 -239 211 -239c52 0 116 20 174 62l14 -60c-64 -44 -123 -60 -178 -62l-3 -13c37 -4 53 -30 53 -69
c0 -45 -25 -83 -85 -83c-22 0 -51 7 -75 15l13 60c25 -10 45 -15 62 -15c20 0 27 9 27 22c0 7 -5 12 -15 12h-50z" />
    <glyph glyph-name="Ecircumflex" unicode="&#xca;" horiz-adv-x="510"
d="M470 0h-414v710h400v-60h-337v-264h295v-60h-295v-266h351v-60zM262 847l-57 -74h-75l109 141h47l109 -141h-75z" />
    <glyph glyph-name="Edieresis" unicode="&#xcb;" horiz-adv-x="510"
d="M470 0h-414v710h400v-60h-337v-264h295v-60h-295v-266h351v-60zM123 838c0 29 22 50 50 50s49 -21 49 -50c0 -28 -21 -49 -49 -49s-50 21 -50 49zM302 838c0 29 22 50 50 50s49 -21 49 -50c0 -28 -21 -49 -49 -49s-50 21 -50 49z" />
    <glyph glyph-name="Icircumflex" unicode="&#xce;" horiz-adv-x="185"
d="M123 710v-710h-63v710h63zM92 847l-58 -74h-75l109 141h47l109 -141h-75z" />
    <glyph glyph-name="Idieresis" unicode="&#xcf;" horiz-adv-x="185"
d="M123 710v-710h-63v710h63zM-47 838c0 29 21 50 49 50s50 -21 50 -50c0 -28 -22 -49 -50 -49s-49 21 -49 49zM132 838c0 29 21 50 49 50s50 -21 50 -50c0 -28 -22 -49 -50 -49s-49 21 -49 49z" />
    <glyph glyph-name="Eth" unicode="&#xd0;" horiz-adv-x="590"
d="M-6 374h62v327c62 11 119 16 167 16c230 0 318 -169 318 -374c0 -190 -90 -343 -292 -343h-193v314h-62v60zM119 648v-274h181v-60h-181v-254h130c153 0 228 114 228 283c0 194 -79 314 -254 314c-32 0 -66 -2 -104 -9z" />
    <glyph glyph-name="Ntilde" unicode="&#xd1;" horiz-adv-x="580"
d="M443 0l-323 588v-588h-64v710h69l327 -596v596h64v-710h-73zM350 845c10 0 21 15 25 46l62 -15c-11 -55 -46 -91 -88 -91c-28 0 -51 15 -71 29c-14 10 -26 19 -37 19c-10 0 -21 -15 -25 -46l-62 14c10 56 45 92 87 92c27 0 48 -15 67 -28h-1c15 -10 29 -20 43 -20z" />
    <glyph glyph-name="Ocircumflex" unicode="&#xd4;" horiz-adv-x="636"
d="M314 847l-58 -74h-75l109 141h47l109 -141h-75zM312 657c-141 0 -219 -121 -219 -271v-62c0 -150 78 -271 219 -271s219 121 219 271v62c0 150 -78 271 -219 271zM312 -7c-174 0 -282 131 -282 334v56c0 203 108 334 282 334s282 -131 282 -334v-56
c0 -203 -108 -334 -282 -334z" />
    <glyph glyph-name="Otilde" unicode="&#xd5;" horiz-adv-x="636"
d="M368 845c10 0 21 15 24 46l63 -15c-11 -55 -46 -91 -88 -91c-28 0 -51 15 -71 29c-14 10 -26 19 -37 19s-21 -15 -25 -46l-62 14c10 56 45 92 87 92c26 0 48 -15 67 -28h-1c15 -10 28 -20 43 -20zM312 657c-141 0 -219 -121 -219 -271v-62c0 -150 78 -271 219 -271
s219 121 219 271v62c0 150 -78 271 -219 271zM312 -7c-174 0 -282 131 -282 334v56c0 203 108 334 282 334s282 -131 282 -334v-56c0 -203 -108 -334 -282 -334z" />
    <glyph glyph-name="Odieresis" unicode="&#xd6;" horiz-adv-x="636"
d="M175 838c0 29 21 50 49 50s50 -21 50 -50c0 -28 -22 -49 -50 -49s-49 21 -49 49zM353 838c0 29 22 50 50 50s50 -21 50 -50c0 -28 -22 -49 -50 -49s-50 21 -50 49zM312 657c-141 0 -219 -121 -219 -271v-62c0 -150 78 -271 219 -271s219 121 219 271v62
c0 150 -78 271 -219 271zM312 -7c-174 0 -282 131 -282 334v56c0 203 108 334 282 334s282 -131 282 -334v-56c0 -203 -108 -334 -282 -334z" />
    <glyph glyph-name="Ucircumflex" unicode="&#xdb;" horiz-adv-x="633"
d="M312 847l-58 -74h-75l109 141h47l109 -141h-75zM570 710v-466c0 -176 -131 -251 -258 -251c-128 0 -258 75 -258 251v466h63v-466c0 -136 98 -191 195 -191c96 0 195 55 195 191v466h63z" />
    <glyph glyph-name="Udieresis" unicode="&#xdc;" horiz-adv-x="633"
d="M173 838c0 29 21 50 49 50s50 -21 50 -50c0 -28 -22 -49 -50 -49s-49 21 -49 49zM352 838c0 29 21 50 49 50s50 -21 50 -50c0 -28 -22 -49 -50 -49s-49 21 -49 49zM570 710v-466c0 -176 -131 -251 -258 -251c-128 0 -258 75 -258 251v466h63v-466
c0 -136 98 -191 195 -191c96 0 195 55 195 191v466h63z" />
    <glyph glyph-name="acircumflex" unicode="&#xe2;" horiz-adv-x="443"
d="M326 0l-5 51c-40 -34 -97 -58 -154 -58c-97 0 -140 69 -140 142c0 76 61 145 169 156l124 8v47c0 77 -56 101 -115 101c-44 0 -97 -16 -143 -34l-7 61c53 22 106 33 152 33c92 0 176 -45 176 -158v-349h-57zM320 241l-121 -9c-74 -8 -109 -49 -109 -96
c0 -44 21 -83 77 -83c57 0 117 30 153 63v125zM217 636l-57 -74h-74l107 140h47l107 -140h-74z" />
    <glyph glyph-name="atilde" unicode="&#xe3;" horiz-adv-x="443"
d="M326 0l-5 51c-40 -34 -97 -58 -154 -58c-97 0 -140 69 -140 142c0 76 61 145 169 156l124 8v47c0 77 -56 101 -115 101c-44 0 -97 -16 -143 -34l-7 61c53 22 106 33 152 33c92 0 176 -45 176 -158v-349h-57zM320 241l-121 -9c-74 -8 -109 -49 -109 -96
c0 -44 21 -83 77 -83c57 0 117 30 153 63v125zM271 634c10 0 21 14 24 45l62 -15c-11 -54 -45 -90 -87 -90c-28 0 -51 15 -70 29c-14 9 -26 18 -36 18c-11 0 -22 -14 -25 -45l-62 14c11 55 45 91 87 91c26 0 47 -15 66 -28h-1c14 -10 28 -19 42 -19z" />
    <glyph glyph-name="adieresis" unicode="&#xe4;" horiz-adv-x="443"
d="M326 0l-5 51c-40 -34 -97 -58 -154 -58c-97 0 -140 69 -140 142c0 76 61 145 169 156l124 8v47c0 77 -56 101 -115 101c-44 0 -97 -16 -143 -34l-7 61c53 22 106 33 152 33c92 0 176 -45 176 -158v-349h-57zM320 241l-121 -9c-74 -8 -109 -49 -109 -96
c0 -44 21 -83 77 -83c57 0 117 30 153 63v125zM79 627c0 28 21 49 49 49s49 -21 49 -49s-21 -49 -49 -49s-49 21 -49 49zM256 627c0 28 21 49 49 49s49 -21 49 -49s-21 -49 -49 -49s-49 21 -49 49z" />
    <glyph glyph-name="aring" unicode="&#xe5;" horiz-adv-x="443"
d="M326 0l-5 51c-40 -34 -97 -58 -154 -58c-97 0 -140 69 -140 142c0 76 61 145 169 156l124 8v47c0 77 -56 101 -115 101c-44 0 -97 -16 -143 -34l-7 61c53 22 106 33 152 33c92 0 176 -45 176 -158v-349h-57zM320 241l-121 -9c-74 -8 -109 -49 -109 -96
c0 -44 21 -83 77 -83c57 0 117 30 153 63v125zM142 633c0 45 30 76 75 76s75 -31 75 -76s-30 -75 -75 -75s-75 30 -75 75zM195 633c0 -14 8 -21 22 -21s22 7 22 21s-8 22 -22 22s-22 -8 -22 -22z" />
    <glyph glyph-name="ccedilla" unicode="&#xe7;" horiz-adv-x="425"
d="M187 -77l14 75c-102 19 -170 99 -170 231v28c0 156 88 250 219 250c38 0 81 -9 130 -28l-7 -61c-48 19 -85 29 -120 29c-94 0 -159 -60 -159 -190v-28c0 -115 67 -176 155 -176c41 0 79 13 134 42l7 -62c-47 -24 -89 -38 -131 -40l-3 -13c37 -4 53 -29 53 -68
c0 -45 -25 -82 -85 -82c-21 0 -50 7 -74 15l13 59c25 -10 45 -15 61 -15c20 0 27 9 27 22c0 7 -5 12 -14 12h-50z" />
    <glyph glyph-name="ecircumflex" unicode="&#xea;" horiz-adv-x="454"
d="M406 211h-310c6 -102 58 -158 155 -158c35 0 75 12 126 35l8 -60c-49 -24 -95 -35 -134 -35c-147 0 -218 97 -218 244c0 179 98 270 207 270c91 0 178 -70 178 -210c0 -25 -4 -54 -12 -86zM239 447c-67 0 -129 -67 -142 -177h256c1 10 2 18 2 27c0 98 -55 150 -116 150z
M225 636l-57 -74h-74l108 140h46l107 -140h-74z" />
    <glyph glyph-name="edieresis" unicode="&#xeb;" horiz-adv-x="454"
d="M406 211h-310c6 -102 58 -158 155 -158c35 0 75 12 126 35l8 -60c-49 -24 -95 -35 -134 -35c-147 0 -218 97 -218 244c0 179 98 270 207 270c91 0 178 -70 178 -210c0 -25 -4 -54 -12 -86zM239 447c-67 0 -129 -67 -142 -177h256c1 10 2 18 2 27c0 98 -55 150 -116 150z
M90 627c0 28 21 49 49 49s49 -21 49 -49s-21 -49 -49 -49s-49 21 -49 49zM267 627c0 28 21 49 49 49s49 -21 49 -49s-21 -49 -49 -49s-49 21 -49 49z" />
    <glyph glyph-name="icircumflex" unicode="&#xee;" horiz-adv-x="198"
d="M78 0v423c0 13 -4 17 -16 17h-41v60h42c55 0 77 -21 77 -76v-424h-62zM97 636l-57 -74h-74l108 140h46l108 -140h-74z" />
    <glyph glyph-name="idieresis" unicode="&#xef;" horiz-adv-x="198"
d="M78 0v423c0 13 -4 17 -16 17h-41v60h42c55 0 77 -21 77 -76v-424h-62zM-40 627c0 28 21 49 49 49s49 -21 49 -49s-21 -49 -49 -49s-49 21 -49 49zM137 627c0 28 21 49 49 49c27 0 49 -21 49 -49s-22 -49 -49 -49c-28 0 -49 21 -49 49z" />
    <glyph glyph-name="ntilde" unicode="&#xf1;" horiz-adv-x="469"
d="M114 343v-343h-62v500h57l4 -79c41 45 100 86 166 86c70 0 129 -39 129 -134v-373h-62v373c0 51 -23 74 -67 74c-60 0 -125 -55 -165 -104zM290 634c10 0 20 14 24 45l62 -15c-11 -54 -46 -90 -87 -90c-28 0 -51 15 -70 29c-15 9 -26 18 -37 18c-10 0 -21 -14 -25 -45
l-61 14c10 55 45 91 86 91c26 0 47 -15 67 -28h-1c14 -10 28 -19 42 -19z" />
    <glyph glyph-name="ocircumflex" unicode="&#xf4;" horiz-adv-x="500"
d="M245 636l-57 -74h-74l108 140h46l108 -140h-74zM245 -7c-161 0 -214 114 -214 239v36c0 125 53 239 214 239c162 0 215 -114 215 -239v-36c0 -125 -53 -239 -215 -239zM245 53c109 0 152 78 152 183v28c0 105 -43 183 -152 183c-108 0 -152 -78 -152 -183v-28
c0 -105 44 -183 152 -183z" />
    <glyph glyph-name="otilde" unicode="&#xf5;" horiz-adv-x="500"
d="M299 634c10 0 20 14 24 45l62 -15c-11 -54 -46 -90 -87 -90c-28 0 -51 15 -70 29c-15 9 -26 18 -37 18c-10 0 -21 -14 -25 -45l-61 14c10 55 45 91 86 91c26 0 47 -15 67 -28h-1c14 -10 28 -19 42 -19zM245 -7c-161 0 -214 114 -214 239v36c0 125 53 239 214 239
c162 0 215 -114 215 -239v-36c0 -125 -53 -239 -215 -239zM245 53c109 0 152 78 152 183v28c0 105 -43 183 -152 183c-108 0 -152 -78 -152 -183v-28c0 -105 44 -183 152 -183z" />
    <glyph glyph-name="odieresis" unicode="&#xf6;" horiz-adv-x="500"
d="M108 627c0 28 21 49 49 49s49 -21 49 -49s-21 -49 -49 -49s-49 21 -49 49zM285 627c0 28 21 49 49 49s49 -21 49 -49s-21 -49 -49 -49s-49 21 -49 49zM245 -7c-161 0 -214 114 -214 239v36c0 125 53 239 214 239c162 0 215 -114 215 -239v-36c0 -125 -53 -239 -215 -239z
M245 53c109 0 152 78 152 183v28c0 105 -43 183 -152 183c-108 0 -152 -78 -152 -183v-28c0 -105 44 -183 152 -183z" />
    <glyph glyph-name="ucircumflex" unicode="&#xfb;" horiz-adv-x="469"
d="M346 148v352h62v-500h-57l-4 71c-41 -39 -104 -78 -166 -78c-70 0 -129 42 -129 137v370h62v-370c0 -51 23 -77 67 -77c61 0 125 47 165 95zM232 636l-56 -74h-74l107 140h46l108 -140h-74z" />
    <glyph glyph-name="udieresis" unicode="&#xfc;" horiz-adv-x="469"
d="M346 148v352h62v-500h-57l-4 71c-41 -39 -104 -78 -166 -78c-70 0 -129 42 -129 137v370h62v-370c0 -51 23 -77 67 -77c61 0 125 47 165 95zM94 627c0 28 21 49 49 49s49 -21 49 -49s-21 -49 -49 -49s-49 21 -49 49zM271 627c0 28 21 49 49 49s49 -21 49 -49
s-21 -49 -49 -49s-49 21 -49 49z" />
    <glyph glyph-name="ydieresis" unicode="&#xff;" horiz-adv-x="478"
d="M234 90l157 410h67l-239 -612c-24 -59 -66 -87 -115 -87c-29 0 -62 11 -96 31l6 64c35 -23 64 -35 90 -35c27 0 48 13 61 48l39 101l-195 490h69zM97 627c0 28 21 49 49 49s49 -21 49 -49s-21 -49 -49 -49s-49 21 -49 49zM274 627c0 28 21 49 49 49s49 -21 49 -49
s-21 -49 -49 -49s-49 21 -49 49z" />
    <glyph glyph-name="Amacron" unicode="&#x100;" horiz-adv-x="600"
d="M69 0h-60l259 710h56l259 -710h-60l-87 234h-281zM416 295l-120 326c-41 -111 -79 -213 -120 -326h240zM153 834h286v-61h-286v61z" />
    <glyph glyph-name="amacron" unicode="&#x101;" horiz-adv-x="443"
d="M326 0l-5 51c-40 -34 -97 -58 -154 -58c-97 0 -140 69 -140 142c0 76 61 145 169 156l124 8v47c0 77 -56 101 -115 101c-44 0 -97 -16 -143 -34l-7 61c53 22 106 33 152 33c92 0 176 -45 176 -158v-349h-57zM320 241l-121 -9c-74 -8 -109 -49 -109 -96
c0 -44 21 -83 77 -83c57 0 117 30 153 63v125zM75 622h283v-60h-283v60z" />
    <glyph glyph-name="Abreve" unicode="&#x102;" horiz-adv-x="600"
d="M69 0h-60l259 710h56l259 -710h-60l-87 234h-281zM416 295l-120 326c-41 -111 -79 -213 -120 -326h240zM194 854v60h60v-57c0 -18 19 -25 41 -25c17 0 29 2 43 7v75h60v-108c-38 -22 -69 -33 -104 -33c-53 0 -100 26 -100 81z" />
    <glyph glyph-name="abreve" unicode="&#x103;" horiz-adv-x="443"
d="M326 0l-5 51c-40 -34 -97 -58 -154 -58c-97 0 -140 69 -140 142c0 76 61 145 169 156l124 8v47c0 77 -56 101 -115 101c-44 0 -97 -16 -143 -34l-7 61c53 22 106 33 152 33c92 0 176 -45 176 -158v-349h-57zM320 241l-121 -9c-74 -8 -109 -49 -109 -96
c0 -44 21 -83 77 -83c57 0 117 30 153 63v125zM116 642v60h59v-57c0 -17 18 -25 41 -25c17 0 28 2 42 8v74h59v-107c-37 -22 -68 -33 -102 -33c-52 0 -99 25 -99 80z" />
    <glyph glyph-name="Aogonek" unicode="&#x104;" horiz-adv-x="600"
d="M517 15l-81 219h-281l-86 -234h-60l259 710h56l257 -704c-41 -29 -71 -58 -71 -91c0 -18 10 -29 29 -29c10 0 25 4 45 13l9 -58c-24 -9 -39 -13 -56 -13c-48 0 -86 30 -86 83c0 51 27 79 66 104zM416 295l-120 326c-41 -111 -79 -213 -120 -326h240z" />
    <glyph glyph-name="aogonek" unicode="&#x105;" horiz-adv-x="443"
d="M324 15l-3 36c-40 -34 -97 -58 -153 -58c-98 0 -141 69 -141 142c0 76 61 145 169 156l124 8v47c0 77 -56 101 -115 101c-44 0 -97 -16 -143 -34l-7 61c53 22 106 33 152 33c92 0 176 -45 176 -158v-344c-39 -28 -68 -55 -68 -89c0 -18 9 -29 29 -29c9 0 25 4 44 13
l8 -57c-23 -9 -38 -13 -54 -13c-48 0 -86 30 -86 82c0 50 29 80 68 103zM320 241l-121 -9c-74 -8 -109 -49 -109 -96c0 -44 21 -83 78 -83c56 0 116 30 152 63v125z" />
    <glyph glyph-name="Ccircumflex" unicode="&#x108;" horiz-adv-x="530"
d="M485 115l15 -60c-68 -45 -132 -62 -188 -62c-150 0 -274 82 -274 301v92c0 216 113 331 275 331c53 0 110 -12 173 -46l-13 -56c-58 28 -114 42 -161 42c-116 0 -211 -82 -211 -268v-97c0 -168 96 -239 211 -239c52 0 115 20 173 62zM300 847l-57 -74h-75l109 141h47
l109 -141h-75z" />
    <glyph glyph-name="ccircumflex" unicode="&#x109;" horiz-adv-x="425"
d="M382 95l8 -62c-50 -27 -94 -40 -141 -40c-128 0 -218 86 -218 236v28c0 156 88 250 219 250c38 0 81 -9 130 -28l-7 -61c-48 19 -85 29 -120 29c-94 0 -159 -60 -159 -190v-28c0 -115 67 -176 155 -176c41 0 78 13 133 42zM241 636l-57 -74h-74l108 140h46l107 -140h-74z
" />
    <glyph glyph-name="Cdotaccent" unicode="&#x10a;" horiz-adv-x="530"
d="M485 115l15 -60c-68 -45 -132 -62 -188 -62c-150 0 -274 82 -274 301v92c0 216 113 331 275 331c53 0 110 -12 173 -46l-13 -56c-58 28 -114 42 -161 42c-116 0 -211 -82 -211 -268v-97c0 -168 96 -239 211 -239c52 0 115 20 173 62zM251 838c0 29 21 50 49 50
c29 0 50 -21 50 -50c0 -28 -21 -49 -50 -49c-28 0 -49 21 -49 49z" />
    <glyph glyph-name="cdotaccent" unicode="&#x10b;" horiz-adv-x="425"
d="M382 95l8 -62c-50 -27 -94 -40 -141 -40c-128 0 -218 86 -218 236v28c0 156 88 250 219 250c38 0 81 -9 130 -28l-7 -61c-48 19 -85 29 -120 29c-94 0 -159 -60 -159 -190v-28c0 -115 67 -176 155 -176c41 0 78 13 133 42zM192 627c0 28 21 49 49 49s49 -21 49 -49
s-21 -49 -49 -49s-49 21 -49 49z" />
    <glyph glyph-name="ccaron" unicode="&#x10d;" horiz-adv-x="425"
d="M382 95l8 -62c-50 -27 -94 -40 -141 -40c-128 0 -218 86 -218 236v28c0 156 88 250 219 250c38 0 81 -9 130 -28l-7 -61c-48 19 -85 29 -120 29c-94 0 -159 -60 -159 -190v-28c0 -115 67 -176 155 -176c41 0 78 13 133 42zM179 702l57 -72c18 24 38 49 57 72h74
l-108 -140h-46l-108 140h74z" />
    <glyph glyph-name="Ccaron" unicode="&#x10c;" horiz-adv-x="530"
d="M485 115l15 -60c-68 -45 -132 -62 -188 -62c-150 0 -274 82 -274 301v92c0 216 113 331 275 331c53 0 110 -12 173 -46l-13 -56c-58 28 -114 42 -161 42c-116 0 -211 -82 -211 -268v-97c0 -168 96 -239 211 -239c52 0 115 20 173 62zM243 914l57 -73c19 25 39 50 58 73
h75l-109 -141h-47l-109 141h75z" />
    <glyph glyph-name="Dcaron" unicode="&#x10e;" horiz-adv-x="590"
d="M120 648v-588h129c154 0 229 114 229 283c0 194 -80 314 -255 314c-31 0 -65 -2 -103 -9zM249 0h-192v701c62 11 118 16 166 16c230 0 318 -169 318 -374c0 -190 -89 -343 -292 -343zM167 914l57 -73c18 25 39 50 57 73h75l-109 -141h-46l-109 141h75z" />
    <glyph glyph-name="dcaron" unicode="&#x10f;" horiz-adv-x="617"
d="M354 446v278h63v-724h-57l-5 64c-41 -50 -87 -71 -136 -71c-104 0 -181 79 -181 223v69c0 145 84 222 183 222c47 0 90 -15 133 -61zM354 145v221c-38 55 -85 81 -132 81c-67 0 -122 -52 -122 -163v-68c0 -108 52 -163 120 -163c47 0 96 30 134 92zM590 702l-91 -240h-61
l63 240h89z" />
    <glyph glyph-name="dcroat" unicode="&#x111;" horiz-adv-x="476"
d="M236 641h117v83h63v-83h56v-59h-56v-582h-57l-5 64c-41 -50 -87 -71 -137 -71c-103 0 -180 79 -180 223v69c0 145 84 222 182 222c48 0 91 -15 134 -61v136h-117v59zM353 145v221c-38 55 -86 81 -132 81c-67 0 -122 -52 -122 -163v-68c0 -108 52 -163 119 -163
c48 0 97 30 135 92z" />
    <glyph glyph-name="Emacron" unicode="&#x112;" horiz-adv-x="510"
d="M470 0h-414v710h400v-60h-337v-264h295v-60h-295v-266h351v-60zM120 834h286v-61h-286v61z" />
    <glyph glyph-name="emacron" unicode="&#x113;" horiz-adv-x="454"
d="M406 211h-310c6 -102 58 -158 155 -158c35 0 75 12 126 35l8 -60c-49 -24 -95 -35 -134 -35c-147 0 -218 97 -218 244c0 179 98 270 207 270c91 0 178 -70 178 -210c0 -25 -4 -54 -12 -86zM239 447c-67 0 -129 -67 -142 -177h256c1 10 2 18 2 27c0 98 -55 150 -116 150z
M91 622h283v-60h-283v60z" />
    <glyph glyph-name="Ebreve" unicode="&#x114;" horiz-adv-x="510"
d="M470 0h-414v710h400v-60h-337v-264h295v-60h-295v-266h351v-60zM160 854v60h61v-57c0 -18 18 -25 40 -25c18 0 30 2 43 7v75h60v-108c-37 -22 -69 -33 -104 -33c-52 0 -100 26 -100 81z" />
    <glyph glyph-name="ebreve" unicode="&#x115;" horiz-adv-x="454"
d="M406 211h-310c6 -102 58 -158 155 -158c35 0 75 12 126 35l8 -60c-49 -24 -95 -35 -134 -35c-147 0 -218 97 -218 244c0 179 98 270 207 270c91 0 178 -70 178 -210c0 -25 -4 -54 -12 -86zM239 447c-67 0 -129 -67 -142 -177h256c1 10 2 18 2 27c0 98 -55 150 -116 150z
M133 642v60h60v-57c0 -17 18 -25 40 -25c18 0 29 2 43 8v74h59v-107c-37 -22 -68 -33 -103 -33c-52 0 -99 25 -99 80z" />
    <glyph glyph-name="Edotaccent" unicode="&#x116;" horiz-adv-x="510"
d="M470 0h-414v710h400v-60h-337v-264h295v-60h-295v-266h351v-60zM213 838c0 29 21 50 49 50c29 0 50 -21 50 -50c0 -28 -21 -49 -50 -49c-28 0 -49 21 -49 49z" />
    <glyph glyph-name="edotaccent" unicode="&#x117;" horiz-adv-x="454"
d="M406 211h-310c6 -102 58 -158 155 -158c35 0 75 12 126 35l8 -60c-49 -24 -95 -35 -134 -35c-147 0 -218 97 -218 244c0 179 98 270 207 270c91 0 178 -70 178 -210c0 -25 -4 -54 -12 -86zM239 447c-67 0 -129 -67 -142 -177h256c1 10 2 18 2 27c0 98 -55 150 -116 150z
M189 627c0 28 21 49 49 49s49 -21 49 -49s-21 -49 -49 -49s-49 21 -49 49z" />
    <glyph glyph-name="Eogonek" unicode="&#x118;" horiz-adv-x="510"
d="M388 0h-332v710h400v-60h-337v-264h295v-60h-295v-266h351v-55c-40 -28 -69 -56 -69 -90c0 -18 9 -29 29 -29c9 0 25 4 44 13l9 -58c-23 -9 -39 -13 -55 -13c-49 0 -87 30 -87 83c0 41 18 68 47 89z" />
    <glyph glyph-name="eogonek" unicode="&#x119;" horiz-adv-x="454"
d="M239 447c-67 0 -129 -67 -142 -177h256c1 10 2 18 2 27c0 98 -55 150 -116 150zM233 -88c0 35 15 61 38 82c-7 -1 -14 -1 -20 -1c-147 0 -218 97 -218 244c0 179 98 270 207 270c91 0 178 -70 178 -210c0 -25 -4 -54 -12 -86h-310c6 -102 58 -158 155 -158
c35 0 75 12 126 35l8 -57c-43 -36 -93 -81 -93 -115c0 -18 10 -29 29 -29c9 0 25 4 44 13l9 -57c-23 -9 -39 -13 -55 -13c-48 0 -86 30 -86 82z" />
    <glyph glyph-name="Ecaron" unicode="&#x11a;" horiz-adv-x="510"
d="M470 0h-414v710h400v-60h-337v-264h295v-60h-295v-266h351v-60zM205 914l57 -73c19 25 39 50 58 73h75l-109 -141h-47l-109 141h75z" />
    <glyph glyph-name="ecaron" unicode="&#x11b;" horiz-adv-x="454"
d="M406 211h-310c6 -102 58 -158 155 -158c35 0 75 12 126 35l8 -60c-49 -24 -95 -35 -134 -35c-147 0 -218 97 -218 244c0 179 98 270 207 270c91 0 178 -70 178 -210c0 -25 -4 -54 -12 -86zM239 447c-67 0 -129 -67 -142 -177h256c1 10 2 18 2 27c0 98 -55 150 -116 150z
M181 702l57 -72c18 24 39 49 57 72h74l-108 -140h-46l-108 140h74z" />
    <glyph glyph-name="Gcircumflex" unicode="&#x11c;" horiz-adv-x="588"
d="M526 285v-247c-61 -27 -132 -45 -198 -45c-146 0 -285 77 -285 301v92c0 236 131 331 284 331c57 0 121 -17 188 -47l-15 -57c-63 30 -123 44 -172 44c-131 0 -222 -85 -222 -268v-97c0 -177 108 -239 222 -239c47 0 95 9 135 24v208c0 20 -9 27 -28 27h-119v61h119
c62 0 91 -26 91 -88zM318 847l-57 -74h-75l109 141h46l109 -141h-75z" />
    <glyph glyph-name="gcircumflex" unicode="&#x11d;" horiz-adv-x="440"
d="M35 334c0 98 65 173 171 173c46 0 86 -17 115 -41l4 16l12 47h62l-12 -57c-6 -25 -12 -39 -28 -53c15 -25 19 -52 19 -85c0 -99 -66 -171 -172 -171c-18 0 -34 1 -50 5c-25 -12 -34 -29 -34 -51v-9c0 -23 13 -35 46 -35h94c92 0 148 -52 148 -125v-14
c0 -92 -86 -133 -193 -133c-110 0 -190 46 -190 141v34h63v-34c0 -55 49 -81 127 -81c75 0 131 24 131 75v9c0 41 -22 68 -86 68h-94c-69 0 -109 38 -109 96v6c0 33 15 61 41 79c-42 30 -65 80 -65 140zM98 334c0 -64 39 -111 108 -111s110 47 110 111
c0 63 -41 113 -110 113s-108 -50 -108 -113zM206 636l-57 -74h-74l108 140h46l108 -140h-74z" />
    <glyph glyph-name="Gbreve" unicode="&#x11e;" horiz-adv-x="588"
d="M526 285v-247c-61 -27 -132 -45 -198 -45c-146 0 -285 77 -285 301v92c0 236 131 331 284 331c57 0 121 -17 188 -47l-15 -57c-63 30 -123 44 -172 44c-131 0 -222 -85 -222 -268v-97c0 -177 108 -239 222 -239c47 0 95 9 135 24v208c0 20 -9 27 -28 27h-119v61h119
c62 0 91 -26 91 -88zM214 854v60h60v-57c0 -18 19 -25 41 -25c18 0 29 2 43 7v75h60v-108c-38 -22 -69 -33 -104 -33c-52 0 -100 26 -100 81z" />
    <glyph glyph-name="gbreve" unicode="&#x11f;" horiz-adv-x="440"
d="M35 334c0 98 65 173 171 173c46 0 86 -17 115 -41l4 16l12 47h62l-12 -57c-6 -25 -12 -39 -28 -53c15 -25 19 -52 19 -85c0 -99 -66 -171 -172 -171c-18 0 -34 1 -50 5c-25 -12 -34 -29 -34 -51v-9c0 -23 13 -35 46 -35h94c92 0 148 -52 148 -125v-14
c0 -92 -86 -133 -193 -133c-110 0 -190 46 -190 141v34h63v-34c0 -55 49 -81 127 -81c75 0 131 24 131 75v9c0 41 -22 68 -86 68h-94c-69 0 -109 38 -109 96v6c0 33 15 61 41 79c-42 30 -65 80 -65 140zM98 334c0 -64 39 -111 108 -111s110 47 110 111
c0 63 -41 113 -110 113s-108 -50 -108 -113zM105 642v60h60v-57c0 -17 18 -25 40 -25c18 0 29 2 43 8v74h59v-107c-37 -22 -68 -33 -103 -33c-52 0 -99 25 -99 80z" />
    <glyph glyph-name="Gdotaccent" unicode="&#x120;" horiz-adv-x="588"
d="M526 285v-247c-61 -27 -132 -45 -198 -45c-146 0 -285 77 -285 301v92c0 236 131 331 284 331c57 0 121 -17 188 -47l-15 -57c-63 30 -123 44 -172 44c-131 0 -222 -85 -222 -268v-97c0 -177 108 -239 222 -239c47 0 95 9 135 24v208c0 20 -9 27 -28 27h-119v61h119
c62 0 91 -26 91 -88zM271 838c0 29 22 50 50 50s50 -21 50 -50c0 -28 -22 -49 -50 -49s-50 21 -50 49z" />
    <glyph glyph-name="gdotaccent" unicode="&#x121;" horiz-adv-x="440"
d="M35 334c0 98 65 173 171 173c46 0 86 -17 115 -41l4 16l12 47h62l-12 -57c-6 -25 -12 -39 -28 -53c15 -25 19 -52 19 -85c0 -99 -66 -171 -172 -171c-18 0 -34 1 -50 5c-25 -12 -34 -29 -34 -51v-9c0 -23 13 -35 46 -35h94c92 0 148 -52 148 -125v-14
c0 -92 -86 -133 -193 -133c-110 0 -190 46 -190 141v34h63v-34c0 -55 49 -81 127 -81c75 0 131 24 131 75v9c0 41 -22 68 -86 68h-94c-69 0 -109 38 -109 96v6c0 33 15 61 41 79c-42 30 -65 80 -65 140zM98 334c0 -64 39 -111 108 -111s110 47 110 111
c0 63 -41 113 -110 113s-108 -50 -108 -113zM157 627c0 28 21 49 49 49s49 -21 49 -49s-21 -49 -49 -49s-49 21 -49 49z" />
    <glyph glyph-name="Gcommaaccent" unicode="&#x122;" horiz-adv-x="588"
d="M526 285v-247c-61 -27 -132 -45 -198 -45c-146 0 -285 77 -285 301v92c0 236 131 331 284 331c57 0 121 -17 188 -47l-15 -57c-63 30 -123 44 -172 44c-131 0 -222 -85 -222 -268v-97c0 -177 108 -239 222 -239c47 0 95 9 135 24v208c0 20 -9 27 -28 27h-119v61h119
c62 0 91 -26 91 -88zM370 -44l-76 -151h-59l59 151h76z" />
    <glyph glyph-name="gcommaaccent" unicode="&#x123;" horiz-adv-x="440"
d="M35 334c0 98 65 173 171 173c46 0 86 -17 115 -41l4 16l12 47h62l-12 -57c-6 -25 -12 -39 -28 -53c15 -25 19 -52 19 -85c0 -99 -66 -171 -172 -171c-18 0 -34 1 -50 5c-25 -12 -34 -29 -34 -51v-9c0 -23 13 -35 46 -35h94c92 0 148 -52 148 -125v-14
c0 -92 -86 -133 -193 -133c-110 0 -190 46 -190 141v34h63v-34c0 -55 49 -81 127 -81c75 0 131 24 131 75v9c0 41 -22 68 -86 68h-94c-69 0 -109 38 -109 96v6c0 33 15 61 41 79c-42 30 -65 80 -65 140zM98 334c0 -64 39 -111 108 -111s110 47 110 111
c0 63 -41 113 -110 113s-108 -50 -108 -113zM172 548l77 154h57l-59 -154h-75z" />
    <glyph glyph-name="Hcircumflex" unicode="&#x124;" horiz-adv-x="593"
d="M120 710v-340h345v340h63v-710h-63v309h-345v-309h-63v710h63zM292 847l-57 -74h-75l109 141h46l109 -141h-75z" />
    <glyph glyph-name="hcircumflex" unicode="&#x125;" horiz-adv-x="469"
d="M113 343v-343h-62v724h62v-303c41 45 98 86 165 86c70 0 129 -39 129 -134v-373h-62v373c0 51 -23 74 -67 74c-60 0 -125 -55 -165 -104zM88 837l-57 -73h-74l108 140h46l108 -140h-74z" />
    <glyph glyph-name="Hbar" unicode="&#x126;" horiz-adv-x="593"
d="M-6 591h63v119h63v-119h345v119h63v-119h63v-60h-63v-531h-63v309h-345v-309h-63v531h-63v60zM120 370h345v161h-345v-161z" />
    <glyph glyph-name="hbar" unicode="&#x127;" horiz-adv-x="469"
d="M-6 641h57v83h63v-83h117v-59h-117v-161c40 45 98 86 164 86c70 0 130 -39 130 -134v-373h-63v373c0 51 -23 74 -67 74c-60 0 -125 -55 -164 -104v-343h-63v582h-57v59z" />
    <glyph glyph-name="Itilde" unicode="&#x128;" horiz-adv-x="185"
d="M123 710v-710h-63v710h63zM146 845c10 0 21 15 24 46l63 -15c-11 -55 -46 -91 -88 -91c-28 0 -51 15 -71 29c-14 10 -26 19 -37 19c-10 0 -21 -15 -25 -46l-62 14c10 56 45 92 87 92c27 0 48 -15 67 -28h-1c15 -10 29 -20 43 -20z" />
    <glyph glyph-name="itilde" unicode="&#x129;" horiz-adv-x="198"
d="M78 0v423c0 13 -4 17 -16 17h-41v60h42c55 0 77 -21 77 -76v-424h-62zM152 634c10 0 20 14 24 45l61 -15c-10 -54 -45 -90 -86 -90c-28 0 -51 15 -70 29c-15 9 -26 18 -37 18c-10 0 -21 -14 -25 -45l-61 14c10 55 45 91 86 91c26 0 47 -15 67 -28h-1
c14 -10 27 -19 42 -19z" />
    <glyph glyph-name="Imacron" unicode="&#x12a;" horiz-adv-x="185"
d="M123 710v-710h-63v710h63zM-51 834h286v-61h-286v61z" />
    <glyph glyph-name="imacron" unicode="&#x12b;" horiz-adv-x="198"
d="M78 0v423c0 13 -4 17 -16 17h-41v60h42c55 0 77 -21 77 -76v-424h-62zM-44 622h282v-60h-282v60z" />
    <glyph glyph-name="Iogonek" unicode="&#x12e;" horiz-adv-x="185"
d="M59 16v694h63v-705c-39 -28 -69 -56 -69 -90c0 -18 10 -29 30 -29c9 0 25 4 44 13l9 -58c-23 -9 -39 -13 -55 -13c-49 0 -87 30 -87 83c0 52 26 81 65 105z" />
    <glyph glyph-name="iogonek" unicode="&#x12f;" horiz-adv-x="198"
d="M78 15v408c0 13 -4 17 -17 17h-40v60h42c55 0 77 -21 77 -76v-419c-39 -28 -68 -55 -68 -89c0 -18 9 -29 29 -29c9 0 25 4 44 13l9 -57c-24 -9 -39 -13 -55 -13c-48 0 -86 30 -86 82c0 51 26 80 65 103zM36 627c0 30 23 53 53 53s53 -23 53 -53s-23 -53 -53 -53
s-53 23 -53 53z" />
    <glyph glyph-name="Idotaccent" unicode="&#x130;" horiz-adv-x="185"
d="M123 710v-710h-63v710h63zM41 838c0 29 22 50 50 50s49 -21 49 -50c0 -28 -21 -49 -49 -49s-50 21 -50 49z" />
    <glyph glyph-name="dotlessi" unicode="&#x131;" horiz-adv-x="198"
d="M78 0v423c0 13 -4 17 -17 17h-40v60h42c55 0 77 -21 77 -76v-424h-62z" />
    <glyph glyph-name="Jcircumflex" unicode="&#x134;" horiz-adv-x="281"
d="M223 710v-559c0 -101 -56 -158 -132 -158c-25 0 -54 8 -83 25l5 65c30 -19 56 -30 77 -30c41 0 70 32 70 101v556h63zM186 847l-57 -74h-75l109 141h46l109 -141h-75z" />
    <glyph glyph-name="jcircumflex" unicode="&#x135;" horiz-adv-x="202"
d="M86 -54v477c0 13 -3 17 -16 17h-44v60h46c55 0 77 -21 77 -76v-481c0 -91 -49 -142 -117 -142c-22 0 -47 6 -75 18l8 62c26 -13 46 -20 64 -20c31 0 57 21 57 85zM99 636l-57 -74h-74l108 140h46l108 -140h-74z" />
    <glyph glyph-name="Kcommaaccent" unicode="&#x136;" horiz-adv-x="553"
d="M307 -44l-75 -151h-59l59 151h75zM520 710l-207 -344c43 -14 76 -46 100 -100c34 -82 77 -184 111 -266h-65l-103 247c-21 52 -46 66 -102 66h-134v-313h-63v710h63v-337h126l203 337h71z" />
    <glyph glyph-name="kcommaaccent" unicode="&#x137;" horiz-adv-x="416"
d="M338 187l57 -187h-64l-52 171c-11 36 -34 54 -75 54h-90v-225h-63v724h63v-439h86c35 70 76 145 112 215h68l-116 -225c37 -14 61 -45 74 -88zM251 -43l-75 -149h-58l58 149h75z" />
    <glyph glyph-name="Lacute" unicode="&#x139;" horiz-adv-x="472"
d="M119 710v-650h324v-60h-387v710h63zM227 914l-104 -146h-67l88 146h83z" />
    <glyph glyph-name="lacute" unicode="&#x13a;" horiz-adv-x="203"
d="M112 724v-628c0 -31 12 -43 30 -43c10 0 22 5 45 14l7 -59c-19 -9 -39 -15 -55 -15c-56 0 -89 34 -89 102v629h62zM213 904l-103 -144h-66l87 144h82z" />
    <glyph glyph-name="Lcommaaccent" unicode="&#x13b;" horiz-adv-x="472"
d="M119 710v-650h324v-60h-387v710h63zM281 -44l-76 -151h-59l59 151h76z" />
    <glyph glyph-name="lcommaaccent" unicode="&#x13c;" horiz-adv-x="203"
d="M112 724v-628c0 -31 11 -43 29 -43c10 0 23 5 46 14l6 -59c-19 -9 -38 -15 -54 -15c-56 0 -90 34 -90 102v629h63zM150 -43l-75 -149h-58l58 149h75z" />
    <glyph glyph-name="Lcaron" unicode="&#x13d;" horiz-adv-x="472"
d="M119 710v-650h324v-60h-387v710h63zM335 710l-91 -243h-63l65 243h89z" />
    <glyph glyph-name="lcaron" unicode="&#x13e;" horiz-adv-x="203"
d="M113 724v-628c0 -31 12 -43 30 -43c9 0 22 5 45 14l7 -59c-20 -9 -39 -15 -55 -15c-56 0 -90 34 -90 102v629h63zM296 702l-91 -240h-61l63 240h89z" />
    <glyph glyph-name="Ldot" unicode="&#x13f;" horiz-adv-x="472"
d="M119 710v-650h324v-60h-387v710h63zM211 302c0 28 24 52 52 52s53 -24 53 -52c0 -29 -25 -53 -53 -53s-52 24 -52 53z" />
    <glyph glyph-name="ldot" unicode="&#x140;" horiz-adv-x="270"
d="M137 298c0 28 24 52 52 52s52 -24 52 -52s-24 -52 -52 -52s-52 24 -52 52zM112 724v-628c0 -31 12 -43 30 -43c10 0 22 5 45 14l7 -59c-19 -9 -38 -15 -55 -15c-55 0 -89 34 -89 102v629h62z" />
    <glyph glyph-name="Lslash" unicode="&#x141;" horiz-adv-x="472"
d="M-7 267l63 30v413h63v-384c39 17 86 41 122 57v-66l-122 -58v-199h324v-60h-387v230l-63 -30v67z" />
    <glyph glyph-name="lslash" unicode="&#x142;" horiz-adv-x="203"
d="M112 724v-405c30 15 67 33 95 45v-65l-95 -46v-157c0 -31 11 -43 29 -43c10 0 22 5 46 14l6 -59c-19 -9 -38 -15 -55 -15c-55 0 -89 34 -89 102v129c-19 -9 -41 -18 -57 -26v66l57 26v434h63z" />
    <glyph glyph-name="Ncommaaccent" unicode="&#x145;" horiz-adv-x="580"
d="M443 0l-323 588v-588h-64v710h69l327 -596v596h64v-710h-73zM322 -44l-76 -151h-58l58 151h76z" />
    <glyph glyph-name="ncommaaccent" unicode="&#x146;" horiz-adv-x="469"
d="M114 343v-343h-62v500h57l4 -79c41 45 100 86 166 86c70 0 129 -39 129 -134v-373h-62v373c0 51 -23 74 -67 74c-60 0 -125 -55 -165 -104zM282 -43l-75 -149h-57l57 149h75z" />
    <glyph glyph-name="Ncaron" unicode="&#x147;" horiz-adv-x="580"
d="M443 0l-323 588v-588h-64v710h69l327 -596v596h64v-710h-73zM241 914l58 -73c18 25 39 50 57 73h75l-109 -141h-47l-109 141h75z" />
    <glyph glyph-name="ncaron" unicode="&#x148;" horiz-adv-x="469"
d="M114 343v-343h-62v500h57l4 -79c41 45 100 86 166 86c70 0 129 -39 129 -134v-373h-62v373c0 51 -23 74 -67 74c-60 0 -125 -55 -165 -104zM181 702l57 -72c18 24 39 49 57 72h74l-108 -140h-46l-108 140h74z" />
    <glyph glyph-name="napostrophe" unicode="&#x149;" horiz-adv-x="548"
d="M169 702l-90 -240h-62l64 240h88zM190 343v-343h-62v500h58l4 -79c40 45 100 86 165 86c70 0 130 -39 130 -134v-373h-63v373c0 51 -23 74 -67 74c-60 0 -125 -55 -165 -104z" />
    <glyph glyph-name="Omacron" unicode="&#x14c;" horiz-adv-x="636"
d="M171 834h286v-61h-286v61zM312 657c-141 0 -219 -121 -219 -271v-62c0 -150 78 -271 219 -271s219 121 219 271v62c0 150 -78 271 -219 271zM312 -7c-174 0 -282 131 -282 334v56c0 203 108 334 282 334s282 -131 282 -334v-56c0 -203 -108 -334 -282 -334z" />
    <glyph glyph-name="omacron" unicode="&#x14d;" horiz-adv-x="500"
d="M104 622h283v-60h-283v60zM245 -7c-161 0 -214 114 -214 239v36c0 125 53 239 214 239c162 0 215 -114 215 -239v-36c0 -125 -53 -239 -215 -239zM245 53c109 0 152 78 152 183v28c0 105 -43 183 -152 183c-108 0 -152 -78 -152 -183v-28c0 -105 44 -183 152 -183z" />
    <glyph glyph-name="Obreve" unicode="&#x14e;" horiz-adv-x="636"
d="M211 854v60h61v-57c0 -18 18 -25 41 -25c17 0 29 2 42 7v75h61v-108c-38 -22 -69 -33 -104 -33c-53 0 -101 26 -101 81zM312 657c-141 0 -219 -121 -219 -271v-62c0 -150 78 -271 219 -271s219 121 219 271v62c0 150 -78 271 -219 271zM312 -7c-174 0 -282 131 -282 334
v56c0 203 108 334 282 334s282 -131 282 -334v-56c0 -203 -108 -334 -282 -334z" />
    <glyph glyph-name="obreve" unicode="&#x14f;" horiz-adv-x="500"
d="M144 642v60h60v-57c0 -17 18 -25 40 -25c18 0 29 2 43 8v74h59v-107c-37 -22 -68 -33 -103 -33c-52 0 -99 25 -99 80zM245 -7c-161 0 -214 114 -214 239v36c0 125 53 239 214 239c162 0 215 -114 215 -239v-36c0 -125 -53 -239 -215 -239zM245 53c109 0 152 78 152 183
v28c0 105 -43 183 -152 183c-108 0 -152 -78 -152 -183v-28c0 -105 44 -183 152 -183z" />
    <glyph glyph-name="Rcommaaccent" unicode="&#x156;" horiz-adv-x="544"
d="M303 -44l-76 -151h-59l59 151h76zM56 0v693c68 16 133 24 180 24c175 0 253 -105 253 -210c0 -75 -39 -150 -121 -183c14 -15 25 -32 36 -58l112 -266h-68l-103 246c-20 47 -42 60 -90 60h-135v-306h-64zM120 645v-278h140c120 0 166 73 166 140c0 74 -57 150 -191 150
c-32 0 -73 -3 -115 -12z" />
    <glyph glyph-name="rcommaaccent" unicode="&#x157;" horiz-adv-x="306"
d="M289 498l-6 -61c-21 7 -34 10 -48 10c-58 0 -97 -42 -123 -87v-360h-62v500h57l3 -55c28 35 73 62 123 62c16 0 35 -3 56 -9zM121 -43l-75 -149h-58l58 149h75z" />
    <glyph glyph-name="Rcaron" unicode="&#x158;" horiz-adv-x="544"
d="M177 914l57 -73c19 25 39 50 58 73h75l-109 -141h-47l-109 141h75zM56 0v693c68 16 133 24 180 24c175 0 253 -105 253 -210c0 -75 -39 -150 -121 -183c14 -15 25 -32 36 -58l112 -266h-68l-103 246c-20 47 -42 60 -90 60h-135v-306h-64zM120 645v-278h140
c120 0 166 73 166 140c0 74 -57 150 -191 150c-32 0 -73 -3 -115 -12z" />
    <glyph glyph-name="rcaron" unicode="&#x159;" horiz-adv-x="306"
d="M289 498l-6 -61c-20 7 -34 10 -47 10c-59 0 -97 -42 -123 -87v-360h-63v500h57l4 -55c28 35 72 62 122 62c16 0 35 -3 56 -9zM86 702l56 -72c19 24 39 49 57 72h74l-108 -140h-46l-107 140h74z" />
    <glyph glyph-name="Scircumflex" unicode="&#x15c;" horiz-adv-x="524"
d="M478 172c0 -132 -102 -179 -214 -179c-75 0 -161 23 -232 54l10 65c46 -24 142 -59 222 -59c77 0 151 29 151 119c0 86 -84 123 -170 162c-97 42 -196 88 -196 200c0 139 111 183 228 183c68 0 139 -17 196 -39l-10 -58c-47 18 -120 37 -185 37c-86 0 -166 -29 -166 -121
c0 -73 77 -108 159 -146c100 -46 207 -94 207 -218zM270 847l-57 -74h-75l109 141h46l109 -141h-75z" />
    <glyph glyph-name="scircumflex" unicode="&#x15d;" horiz-adv-x="398"
d="M353 480l-9 -57c-38 11 -94 24 -146 24c-57 0 -110 -17 -110 -68c0 -57 62 -76 122 -96c70 -22 154 -55 154 -142c0 -114 -83 -148 -180 -148c-57 0 -118 11 -169 24l9 66c46 -14 108 -30 160 -30c63 0 118 20 118 88c0 46 -55 65 -113 84c-74 24 -163 60 -163 154
c0 95 80 128 166 128c55 0 117 -13 161 -27zM195 636l-57 -74h-74l108 140h46l108 -140h-74z" />
    <glyph glyph-name="Scedilla" unicode="&#x15e;" horiz-adv-x="524"
d="M206 -78l14 74c-62 6 -130 25 -188 51l10 65c46 -24 142 -59 222 -59c77 0 151 29 151 119c0 86 -84 123 -170 162c-97 42 -196 88 -196 200c0 139 111 183 228 183c68 0 139 -17 196 -39l-10 -58c-47 18 -120 37 -185 37c-86 0 -166 -29 -166 -121
c0 -73 77 -108 159 -146c100 -46 207 -94 207 -218c0 -123 -96 -173 -199 -179c-1 -5 -2 -6 -3 -13c37 -4 53 -30 53 -69c0 -45 -25 -83 -85 -83c-22 0 -51 7 -75 15l13 60c25 -10 45 -15 62 -15c20 0 27 9 27 22c0 7 -5 12 -15 12h-50z" />
    <glyph glyph-name="scedilla" unicode="&#x15f;" horiz-adv-x="398"
d="M131 -77l13 71c-44 3 -89 13 -129 23l9 66c46 -14 108 -30 160 -30c63 0 118 20 118 88c0 46 -55 65 -113 84c-74 24 -163 60 -163 154c0 95 80 128 166 128c55 0 117 -13 161 -27l-9 -57c-38 11 -94 24 -146 24c-57 0 -110 -17 -110 -68c0 -57 62 -76 122 -96
c70 -22 154 -55 154 -142c0 -106 -73 -143 -161 -148c-1 -5 -2 -6 -3 -13c36 -4 53 -29 53 -68c0 -45 -25 -82 -85 -82c-21 0 -50 7 -74 15l13 59c25 -10 45 -15 61 -15c20 0 27 9 27 22c0 7 -5 12 -14 12h-50z" />
    <glyph glyph-name="Tcommaaccent" unicode="&#x162;" horiz-adv-x="583"
d="M235 650h-233v60h530v-60h-234v-650h-63v650zM306 -44l-76 -151h-58l58 151h76z" />
    <glyph glyph-name="tcommaaccent" unicode="&#x163;" horiz-adv-x="276"
d="M156 -43l-75 -149h-57l57 149h75zM71 105v335h-65v60h65v134l62 12v-146h111v-60h-111v-334c0 -37 18 -53 42 -53c14 0 36 8 63 24l4 -61c-23 -14 -50 -23 -71 -23c-52 0 -100 36 -100 112z" />
    <glyph glyph-name="Tcaron" unicode="&#x164;" horiz-adv-x="583"
d="M256 650h-234v60h531v-60h-234v-650h-63v650zM230 914l57 -73c18 25 39 50 57 73h75l-109 -141h-46l-109 141h75z" />
    <glyph glyph-name="tcaron" unicode="&#x165;" horiz-adv-x="276"
d="M326 702l-65 -164h-63l39 164h89zM72 105v335h-65v60h65v134l62 12v-146h111v-60h-111v-334c0 -37 17 -53 41 -53c15 0 37 8 64 24l4 -61c-23 -14 -50 -23 -71 -23c-52 0 -100 36 -100 112z" />
    <glyph glyph-name="Tbar" unicode="&#x166;" horiz-adv-x="583"
d="M95 424h161v226h-234v60h531v-60h-234v-226h160v-60h-160v-364h-63v364h-161v60z" />
    <glyph glyph-name="tbar" unicode="&#x167;" horiz-adv-x="276"
d="M6 308h65v132h-65v60h65v134l62 12v-146h111v-60h-111v-132h111v-60h-111v-142c0 -37 18 -53 42 -53c14 0 36 8 63 24l4 -61c-23 -14 -50 -23 -71 -23c-52 0 -100 36 -100 112v143h-65v60z" />
    <glyph glyph-name="Utilde" unicode="&#x168;" horiz-adv-x="633"
d="M367 845c10 0 21 15 24 46l63 -15c-11 -55 -46 -91 -88 -91c-28 0 -51 15 -71 29c-14 10 -26 19 -37 19s-21 -15 -25 -46l-62 14c10 56 45 92 87 92c26 0 48 -15 67 -28h-1c15 -10 29 -20 43 -20zM570 710v-466c0 -176 -131 -251 -258 -251c-128 0 -258 75 -258 251v466
h63v-466c0 -136 98 -191 195 -191c96 0 195 55 195 191v466h63z" />
    <glyph glyph-name="utilde" unicode="&#x169;" horiz-adv-x="469"
d="M346 148v352h62v-500h-57l-4 71c-41 -39 -104 -78 -166 -78c-70 0 -129 42 -129 137v370h62v-370c0 -51 23 -77 67 -77c61 0 125 47 165 95zM284 634c10 0 20 14 24 45l62 -15c-11 -54 -45 -90 -87 -90c-28 0 -51 15 -70 29c-14 9 -26 18 -36 18c-11 0 -22 -14 -25 -45
l-62 14c11 55 45 91 87 91c26 0 47 -15 66 -28h-1c14 -10 28 -19 42 -19z" />
    <glyph glyph-name="Umacron" unicode="&#x16a;" horiz-adv-x="633"
d="M169 834h286v-61h-286v61zM570 710v-466c0 -176 -131 -251 -258 -251c-128 0 -258 75 -258 251v466h63v-466c0 -136 98 -191 195 -191c96 0 195 55 195 191v466h63z" />
    <glyph glyph-name="umacron" unicode="&#x16b;" horiz-adv-x="469"
d="M346 148v352h62v-500h-57l-4 71c-41 -39 -104 -78 -166 -78c-70 0 -129 42 -129 137v370h62v-370c0 -51 23 -77 67 -77c61 0 125 47 165 95zM88 622h283v-60h-283v60z" />
    <glyph glyph-name="Ubreve" unicode="&#x16c;" horiz-adv-x="633"
d="M210 854v60h60v-57c0 -18 18 -25 41 -25c17 0 29 2 42 7v75h61v-108c-38 -22 -69 -33 -104 -33c-53 0 -100 26 -100 81zM570 710v-466c0 -176 -131 -251 -258 -251c-128 0 -258 75 -258 251v466h63v-466c0 -136 98 -191 195 -191c96 0 195 55 195 191v466h63z" />
    <glyph glyph-name="ubreve" unicode="&#x16d;" horiz-adv-x="469"
d="M346 148v352h62v-500h-57l-4 71c-41 -39 -104 -78 -166 -78c-70 0 -129 42 -129 137v370h62v-370c0 -51 23 -77 67 -77c61 0 125 47 165 95zM129 642v60h59v-57c0 -17 18 -25 41 -25c17 0 28 2 42 8v74h59v-107c-37 -22 -68 -33 -102 -33c-52 0 -99 25 -99 80z" />
    <glyph glyph-name="Uring" unicode="&#x16e;" horiz-adv-x="633"
d="M236 844c0 46 31 77 76 77s77 -31 77 -77c0 -45 -32 -76 -77 -76s-76 31 -76 76zM290 844c0 -13 8 -21 22 -21s22 8 22 21c0 15 -8 23 -22 23s-22 -8 -22 -23zM570 710v-466c0 -176 -131 -251 -258 -251c-128 0 -258 75 -258 251v466h63v-466c0 -136 98 -191 195 -191
c96 0 195 55 195 191v466h63z" />
    <glyph glyph-name="uring" unicode="&#x16f;" horiz-adv-x="469"
d="M346 148v352h62v-500h-57l-4 71c-41 -39 -104 -78 -166 -78c-70 0 -129 42 -129 137v370h62v-370c0 -51 23 -77 67 -77c61 0 125 47 165 95zM154 633c0 45 31 76 75 76c46 0 76 -31 76 -76s-30 -75 -76 -75c-44 0 -75 30 -75 75zM208 633c0 -14 8 -21 21 -21
c15 0 23 7 23 21s-8 22 -23 22c-13 0 -21 -8 -21 -22z" />
    <glyph glyph-name="Uogonek" unicode="&#x172;" horiz-adv-x="633"
d="M288 -89c0 36 16 63 39 83c-6 -1 -10 -1 -15 -1c-128 0 -258 75 -258 251v466h63v-466c0 -136 98 -191 195 -191c96 0 195 55 195 191v466h63v-466c0 -113 -56 -184 -128 -221c-48 -37 -94 -75 -94 -108c0 -18 9 -29 29 -29c10 0 25 4 45 13l8 -58
c-23 -9 -39 -13 -55 -13c-49 0 -87 30 -87 83z" />
    <glyph glyph-name="uogonek" unicode="&#x173;" horiz-adv-x="469"
d="M351 15l-4 56c-40 -39 -104 -78 -165 -78c-71 0 -130 42 -130 137v370h62v-370c0 -51 23 -77 68 -77c60 0 125 47 164 95v352h62v-495c-39 -28 -68 -55 -68 -89c0 -18 10 -29 29 -29c10 0 25 4 44 13l9 -57c-23 -9 -39 -13 -55 -13c-48 0 -85 30 -85 82
c0 50 29 80 69 103z" />
    <glyph glyph-name="Wcircumflex" unicode="&#x174;" horiz-adv-x="828"
d="M284 0h-60l-217 710h65l182 -604l182 604h65l-61 -196l123 -407l182 603h65l-217 -710h-60l-125 408c-39 -130 -85 -281 -124 -408zM408 847l-57 -74h-75l109 141h47l109 -141h-75z" />
    <glyph glyph-name="wcircumflex" unicode="&#x175;" horiz-adv-x="583"
d="M357 34l-72 251c-23 -85 -47 -167 -70 -251c-7 -25 -17 -34 -46 -34h-23l-141 500h65l106 -393l106 393h65l-29 -103l78 -290l106 393h65l-141 -500h-23c-29 0 -40 9 -46 34zM285 636l-56 -74h-74l107 140h46l108 -140h-74z" />
    <glyph glyph-name="Ycircumflex" unicode="&#x176;" horiz-adv-x="561"
d="M276 352l208 358h71l-247 -425v-285h-63v285l-247 425h71zM276 847l-57 -74h-75l109 141h47l108 -141h-74z" />
    <glyph glyph-name="ycircumflex" unicode="&#x177;" horiz-adv-x="478"
d="M235 90l156 410h67l-239 -612c-24 -59 -66 -87 -115 -87c-29 0 -62 11 -96 31l6 64c35 -23 64 -35 90 -35c27 0 48 13 61 48l39 101l-195 490h69zM234 636l-56 -74h-74l107 140h46l108 -140h-74z" />
    <glyph glyph-name="Zdotaccent" unicode="&#x17b;" horiz-adv-x="538"
d="M507 0h-484v53l380 597h-353v60h429v-53l-380 -597h408v-60zM216 838c0 29 21 50 49 50c29 0 50 -21 50 -50c0 -28 -21 -49 -50 -49c-28 0 -49 21 -49 49z" />
    <glyph glyph-name="zdotaccent" unicode="&#x17c;" horiz-adv-x="434"
d="M398 0h-375v53l285 387h-274v60h351v-53l-285 -387h298v-60zM164 627c0 28 21 49 49 49s49 -21 49 -49s-21 -49 -49 -49s-49 21 -49 49z" />
    <glyph glyph-name="Cacute" unicode="&#x106;" horiz-adv-x="530"
d="M485 115l15 -60c-68 -45 -132 -62 -188 -62c-150 0 -274 82 -274 301v92c0 216 113 331 275 331c53 0 110 -12 173 -46l-13 -56c-58 28 -114 42 -161 42c-116 0 -211 -82 -211 -268v-97c0 -168 96 -239 211 -239c52 0 115 20 173 62zM430 914l-105 -141h-67l89 141h83z
" />
    <glyph glyph-name="cacute" unicode="&#x107;" horiz-adv-x="425"
d="M382 95l8 -62c-50 -27 -94 -40 -141 -40c-128 0 -218 86 -218 236v28c0 156 88 250 219 250c38 0 81 -9 130 -28l-7 -61c-48 19 -85 29 -120 29c-94 0 -159 -60 -159 -190v-28c0 -115 67 -176 155 -176c41 0 78 13 133 42zM368 702l-104 -140h-67l89 140h82z" />
    <glyph glyph-name="Nacute" unicode="&#x143;" horiz-adv-x="580"
d="M443 0l-323 588v-588h-64v710h69l327 -596v596h64v-710h-73zM427 914l-105 -141h-67l89 141h83z" />
    <glyph glyph-name="nacute" unicode="&#x144;" horiz-adv-x="469"
d="M114 343v-343h-62v500h57l4 -79c41 45 100 86 166 86c70 0 129 -39 129 -134v-373h-62v373c0 51 -23 74 -67 74c-60 0 -125 -55 -165 -104zM368 702l-104 -140h-66l88 140h82z" />
    <glyph glyph-name="Racute" unicode="&#x154;" horiz-adv-x="544"
d="M56 0v693c68 16 133 24 180 24c175 0 253 -105 253 -210c0 -75 -39 -150 -121 -183c14 -15 25 -32 36 -58l112 -266h-68l-103 246c-20 47 -42 60 -90 60h-135v-306h-64zM120 645v-278h140c120 0 166 73 166 140c0 74 -57 150 -191 150c-32 0 -73 -3 -115 -12zM355 914
l-105 -141h-67l89 141h83z" />
    <glyph glyph-name="racute" unicode="&#x155;" horiz-adv-x="306"
d="M290 498l-7 -61c-20 7 -34 10 -47 10c-59 0 -97 -42 -123 -87v-360h-63v500h57l4 -55c28 35 72 62 122 62c16 0 36 -3 57 -9zM266 702l-104 -140h-66l88 140h82z" />
    <glyph glyph-name="Sacute" unicode="&#x15a;" horiz-adv-x="524"
d="M478 172c0 -132 -102 -179 -214 -179c-75 0 -161 23 -232 54l10 65c46 -24 142 -59 222 -59c77 0 151 29 151 119c0 86 -84 123 -170 162c-97 42 -196 88 -196 200c0 139 111 183 228 183c68 0 139 -17 196 -39l-10 -58c-47 18 -120 37 -185 37c-86 0 -166 -29 -166 -121
c0 -73 77 -108 159 -146c100 -46 207 -94 207 -218zM388 914l-105 -141h-67l89 141h83z" />
    <glyph glyph-name="sacute" unicode="&#x15b;" horiz-adv-x="398"
d="M353 480l-9 -57c-38 11 -94 24 -146 24c-57 0 -110 -17 -110 -68c0 -57 62 -76 122 -96c70 -22 154 -55 154 -142c0 -114 -83 -148 -180 -148c-57 0 -118 11 -169 24l9 66c46 -14 108 -30 160 -30c63 0 118 20 118 88c0 46 -55 65 -113 84c-74 24 -163 60 -163 154
c0 95 80 128 166 128c55 0 117 -13 161 -27zM326 702l-104 -140h-66l88 140h82z" />
    <glyph glyph-name="Uhungarumlaut" unicode="&#x170;" horiz-adv-x="633"
d="M570 710v-466c0 -176 -131 -251 -258 -251c-128 0 -258 75 -258 251v466h63v-466c0 -136 98 -191 195 -191c96 0 195 55 195 191v466h63zM393 914l-105 -141h-67l90 141h82zM495 914l-106 -141h-67l90 141h83z" />
    <glyph glyph-name="uhungarumlaut" unicode="&#x171;" horiz-adv-x="469"
d="M346 148v352h62v-500h-57l-4 71c-41 -39 -104 -78 -166 -78c-70 0 -129 42 -129 137v370h62v-370c0 -51 23 -77 67 -77c61 0 125 47 165 95zM309 702l-104 -140h-66l89 140h81zM409 702l-104 -140h-66l89 140h81z" />
    <glyph glyph-name="Ohungarumlaut" unicode="&#x150;" horiz-adv-x="636"
d="M312 657c-141 0 -219 -121 -219 -271v-62c0 -150 78 -271 219 -271s219 121 219 271v62c0 150 -78 271 -219 271zM312 -7c-174 0 -282 131 -282 334v56c0 203 108 334 282 334s282 -131 282 -334v-56c0 -203 -108 -334 -282 -334zM389 914l-106 -141h-67l90 141h83z
M490 914l-105 -141h-67l89 141h83z" />
    <glyph glyph-name="ohungarumlaut" unicode="&#x151;" horiz-adv-x="500"
d="M245 -7c-161 0 -214 114 -214 239v36c0 125 53 239 214 239c162 0 215 -114 215 -239v-36c0 -125 -53 -239 -215 -239zM245 53c109 0 152 78 152 183v28c0 105 -43 183 -152 183c-108 0 -152 -78 -152 -183v-28c0 -105 44 -183 152 -183zM324 702l-104 -140h-66l88 140
h82zM424 702l-104 -140h-66l88 140h82z" />
    <glyph glyph-name="Zacute" unicode="&#x179;" horiz-adv-x="538"
d="M507 0h-484v53l380 597h-353v60h429v-53l-380 -597h408v-60zM394 914l-105 -141h-67l89 141h83z" />
    <glyph glyph-name="zacute" unicode="&#x17a;" horiz-adv-x="434"
d="M398 0h-375v53l285 387h-274v60h351v-53l-285 -387h298v-60zM343 702l-104 -140h-67l89 140h82z" />
    <glyph glyph-name="Agrave" unicode="&#xc0;" horiz-adv-x="600"
d="M69 0h-60l259 710h56l259 -710h-60l-87 234h-281zM416 295l-120 326c-41 -111 -79 -213 -120 -326h240zM270 773l-105 141h82l90 -141h-67z" />
    <glyph glyph-name="Aacute" unicode="&#xc1;" horiz-adv-x="600"
d="M69 0h-60l259 710h56l259 -710h-60l-87 234h-281zM416 295l-120 326c-41 -111 -79 -213 -120 -326h240zM426 914l-105 -141h-67l90 141h82z" />
    <glyph glyph-name="Egrave" unicode="&#xc8;" horiz-adv-x="510"
d="M470 0h-414v710h400v-60h-337v-264h295v-60h-295v-266h351v-60zM238 773l-105 141h83l89 -141h-67z" />
    <glyph glyph-name="Eacute" unicode="&#xc9;" horiz-adv-x="510"
d="M470 0h-414v710h400v-60h-337v-264h295v-60h-295v-266h351v-60zM392 914l-105 -141h-67l89 141h83z" />
    <glyph glyph-name="Igrave" unicode="&#xcc;" horiz-adv-x="185"
d="M122 710v-710h-63v710h63zM67 773l-105 141h82l90 -141h-67z" />
    <glyph glyph-name="Iacute" unicode="&#xcd;" horiz-adv-x="185"
d="M123 710v-710h-63v710h63zM224 914l-105 -141h-67l89 141h83z" />
    <glyph glyph-name="Oacute" unicode="&#xd3;" horiz-adv-x="636"
d="M312 657c-141 0 -219 -121 -219 -271v-62c0 -150 78 -271 219 -271s219 121 219 271v62c0 150 -78 271 -219 271zM312 -7c-174 0 -282 131 -282 334v56c0 203 108 334 282 334s282 -131 282 -334v-56c0 -203 -108 -334 -282 -334zM443 914l-105 -141h-67l89 141h83z" />
    <glyph glyph-name="Ograve" unicode="&#xd2;" horiz-adv-x="636"
d="M312 657c-141 0 -219 -121 -219 -271v-62c0 -150 78 -271 219 -271s219 121 219 271v62c0 150 -78 271 -219 271zM312 -7c-174 0 -282 131 -282 334v56c0 203 108 334 282 334s282 -131 282 -334v-56c0 -203 -108 -334 -282 -334zM286 773l-105 141h83l89 -141h-67z" />
    <glyph glyph-name="Ugrave" unicode="&#xd9;" horiz-adv-x="633"
d="M570 710v-466c0 -176 -131 -251 -258 -251c-128 0 -258 75 -258 251v466h63v-466c0 -136 98 -191 195 -191c96 0 195 55 195 191v466h63zM285 773l-105 141h83l90 -141h-68z" />
    <glyph glyph-name="Uacute" unicode="&#xda;" horiz-adv-x="633"
d="M570 710v-466c0 -176 -131 -251 -258 -251c-128 0 -258 75 -258 251v466h63v-466c0 -136 98 -191 195 -191c96 0 195 55 195 191v466h63zM442 914l-105 -141h-67l89 141h83z" />
    <glyph glyph-name="Yacute" unicode="&#xdd;" horiz-adv-x="561"
d="M276 352l208 358h71l-247 -425v-285h-63v285l-247 425h71zM406 914l-105 -141h-67l90 141h82z" />
    <glyph glyph-name="agrave" unicode="&#xe0;" horiz-adv-x="443"
d="M326 0l-5 51c-40 -34 -97 -58 -154 -58c-97 0 -140 69 -140 142c0 76 61 145 169 156l124 8v47c0 77 -56 101 -115 101c-44 0 -97 -16 -143 -34l-7 61c53 22 106 33 152 33c92 0 176 -45 176 -158v-349h-57zM320 241l-121 -9c-74 -8 -109 -49 -109 -96
c0 -44 21 -83 77 -83c57 0 117 30 153 63v125zM192 562l-103 140h81l89 -140h-67z" />
    <glyph glyph-name="aacute" unicode="&#xe1;" horiz-adv-x="443"
d="M326 0l-5 51c-40 -34 -97 -58 -154 -58c-97 0 -140 69 -140 142c0 76 61 145 169 156l124 8v47c0 77 -56 101 -115 101c-44 0 -97 -16 -143 -34l-7 61c53 22 106 33 152 33c92 0 176 -45 176 -158v-349h-57zM320 241l-121 -9c-74 -8 -109 -49 -109 -96
c0 -44 21 -83 77 -83c57 0 117 30 153 63v125zM346 702l-104 -140h-66l89 140h81z" />
    <glyph glyph-name="egrave" unicode="&#xe8;" horiz-adv-x="454"
d="M406 211h-310c6 -102 58 -158 155 -158c35 0 75 12 126 35l8 -60c-49 -24 -95 -35 -134 -35c-147 0 -218 97 -218 244c0 179 98 270 207 270c91 0 178 -70 178 -210c0 -25 -4 -54 -12 -86zM239 447c-67 0 -129 -67 -142 -177h256c1 10 2 18 2 27c0 98 -55 150 -116 150z
M201 562l-104 140h81l89 -140h-66z" />
    <glyph glyph-name="eacute" unicode="&#xe9;" horiz-adv-x="454"
d="M406 211h-310c6 -102 58 -158 155 -158c35 0 75 12 126 35l8 -60c-49 -24 -95 -35 -134 -35c-147 0 -218 97 -218 244c0 179 98 270 207 270c91 0 178 -70 178 -210c0 -25 -4 -54 -12 -86zM239 447c-67 0 -129 -67 -142 -177h256c1 10 2 18 2 27c0 98 -55 150 -116 150z
M352 702l-103 -140h-67l89 140h81z" />
    <glyph glyph-name="igrave" unicode="&#xec;" horiz-adv-x="198"
d="M77 0v423c0 13 -4 17 -16 17h-41v60h43c54 0 76 -21 76 -76v-424h-62zM69 562l-104 140h82l89 -140h-67z" />
    <glyph glyph-name="iacute" unicode="&#xed;" horiz-adv-x="198"
d="M78 0v423c0 13 -3 17 -16 17h-40v60h42c55 0 77 -21 77 -76v-424h-63zM225 702l-103 -140h-67l89 140h81z" />
    <glyph glyph-name="ograve" unicode="&#xf2;" horiz-adv-x="500"
d="M245 -7c-161 0 -214 114 -214 239v36c0 125 53 239 214 239c162 0 215 -114 215 -239v-36c0 -125 -53 -239 -215 -239zM245 53c109 0 152 78 152 183v28c0 105 -43 183 -152 183c-108 0 -152 -78 -152 -183v-28c0 -105 44 -183 152 -183zM220 562l-104 140h82l89 -140
h-67z" />
    <glyph glyph-name="oacute" unicode="&#xf3;" horiz-adv-x="500"
d="M245 -7c-161 0 -214 114 -214 239v36c0 125 53 239 214 239c162 0 215 -114 215 -239v-36c0 -125 -53 -239 -215 -239zM245 53c109 0 152 78 152 183v28c0 105 -43 183 -152 183c-108 0 -152 -78 -152 -183v-28c0 -105 44 -183 152 -183zM374 702l-104 -140h-66l88 140
h82z" />
    <glyph glyph-name="ugrave" unicode="&#xf9;" horiz-adv-x="469"
d="M346 148v352h62v-500h-57l-4 71c-41 -39 -104 -78 -166 -78c-70 0 -129 42 -129 137v370h62v-370c0 -51 23 -77 67 -77c61 0 125 47 165 95zM206 562l-103 140h81l89 -140h-67z" />
    <glyph glyph-name="uacute" unicode="&#xfa;" horiz-adv-x="469"
d="M346 148v352h62v-500h-57l-4 71c-41 -39 -104 -78 -166 -78c-70 0 -129 42 -129 137v370h62v-370c0 -51 23 -77 67 -77c61 0 125 47 165 95zM362 702l-104 -140h-66l88 140h82z" />
    <glyph glyph-name="yacute" unicode="&#xfd;" horiz-adv-x="478"
d="M234 90l157 410h67l-239 -612c-24 -59 -66 -87 -115 -87c-29 0 -62 11 -96 31l6 64c35 -23 64 -35 90 -35c27 0 48 13 61 48l39 101l-195 490h69zM368 702l-104 -140h-66l88 140h82z" />
    <glyph glyph-name="zero.pnum" horiz-adv-x="483"
d="M440 287c0 -82 -11 -148 -36 -196c-34 -65 -90 -98 -168 -98c-77 0 -131 33 -166 96c-25 49 -37 116 -37 198c0 81 12 147 37 196c35 66 90 100 166 100s132 -34 166 -98c27 -49 38 -115 38 -198zM371 287c0 60 -11 117 -23 153c-22 51 -62 81 -112 81
c-38 0 -71 -17 -93 -47c-26 -40 -40 -105 -40 -187c0 -65 7 -115 23 -153c22 -54 58 -81 110 -81s90 27 112 80c14 35 23 86 23 154z" />
    <glyph glyph-name="one.pnum" horiz-adv-x="305"
d="M248 574v-574h-70v412h-146v55c55 0 92 5 109 14c23 13 41 44 47 93h60z" />
    <glyph glyph-name="two.pnum" horiz-adv-x="443"
d="M409 65v-65h-386c0 75 34 140 102 193l94 69c25 18 51 36 76 55c27 30 42 57 42 97c0 64 -49 104 -115 104c-79 0 -115 -65 -115 -155h-70c0 132 61 217 187 217c107 0 182 -60 182 -167c0 -42 -17 -85 -44 -120c-20 -25 -55 -56 -100 -84h1c-33 -23 -66 -45 -100 -66h1
c-35 -27 -53 -51 -62 -78h307z" />
    <glyph glyph-name="three.pnum" horiz-adv-x="445"
d="M421 171c0 -111 -86 -177 -201 -177c-123 0 -200 74 -200 206h69c0 -88 47 -146 130 -146c72 0 131 41 131 112s-51 109 -124 109h-51v61h51c25 0 50 8 71 22c21 16 33 41 33 70c0 61 -47 94 -111 94c-76 0 -117 -56 -117 -140h-70c0 117 72 202 186 202
c51 0 92 -13 124 -36c35 -26 57 -67 57 -115c0 -56 -25 -100 -71 -122c60 -22 93 -72 93 -140z" />
    <glyph glyph-name="four.pnum" horiz-adv-x="472"
d="M433 199v-61h-83v-138h-66v138h-255v60l261 376h60v-375h83zM101 199h183v263z" />
    <glyph glyph-name="five.pnum" horiz-adv-x="457"
d="M422 191c0 -56 -20 -104 -59 -140c-39 -37 -86 -56 -143 -56c-112 0 -193 72 -193 188h70c0 -75 55 -128 128 -128c76 0 127 63 127 141c0 76 -55 135 -132 135c-45 0 -90 -21 -118 -67h-59l56 309h296v-65h-243l-30 -149c30 22 67 33 105 33c119 0 195 -80 195 -201z
" />
    <glyph glyph-name="six.pnum" horiz-adv-x="465"
d="M429 190c0 -57 -19 -104 -57 -141c-37 -37 -84 -55 -142 -55c-141 0 -203 82 -203 303c0 65 9 119 30 166c35 80 95 121 177 121c108 0 169 -55 182 -165h-68c-10 64 -50 103 -109 103c-49 0 -91 -34 -115 -81c-14 -33 -24 -76 -27 -123c33 43 83 67 138 67
c118 0 194 -79 194 -195zM360 187c0 77 -49 137 -126 137c-79 0 -127 -58 -127 -137s44 -133 128 -133c72 0 125 59 125 133z" />
    <glyph glyph-name="seven.pnum" horiz-adv-x="469"
d="M421 567v-58c-58 -58 -105 -123 -140 -183c-53 -99 -85 -212 -85 -326h-73c0 98 19 188 58 270c32 70 83 146 158 233h-294v64h376z" />
    <glyph glyph-name="eight.pnum" horiz-adv-x="471"
d="M429 168c0 -112 -85 -175 -201 -175c-58 0 -105 15 -142 41c-40 32 -59 78 -59 134c0 69 36 121 94 144c-49 24 -71 63 -71 122c0 47 20 85 56 113c32 23 72 36 122 36c46 0 87 -13 119 -36c37 -27 58 -66 58 -113c0 -52 -28 -97 -71 -122c60 -22 95 -74 95 -144z
M337 434c0 55 -44 87 -109 87c-61 0 -110 -32 -110 -87c0 -33 11 -56 34 -72c19 -14 44 -21 76 -21c61 0 109 31 109 93zM359 168c0 72 -56 112 -131 112s-132 -40 -132 -112c0 -75 55 -115 132 -115c38 0 70 9 94 28h-1c25 21 38 50 38 87z" />
    <glyph glyph-name="nine.pnum" horiz-adv-x="469"
d="M428 276c0 -64 -9 -117 -30 -166c-36 -79 -95 -119 -178 -119c-107 0 -167 55 -181 163h69c8 -63 49 -103 108 -103c53 0 91 27 114 81c16 34 24 74 27 124c-32 -42 -83 -69 -138 -69c-116 0 -193 80 -193 197c0 56 18 103 55 140c38 38 86 57 144 57
c142 0 203 -84 203 -305zM348 387c0 38 -10 70 -30 94v-1c-24 27 -57 39 -99 39c-71 0 -123 -58 -123 -132c0 -78 47 -138 124 -138c81 0 128 58 128 138z" />
    <glyph glyph-name="ellipsis" unicode="&#x2026;" horiz-adv-x="588"
d="M47 46c0 28 24 52 52 52c29 0 53 -24 53 -52s-24 -53 -53 -53c-28 0 -52 25 -52 53zM237 46c0 28 25 52 53 52s52 -24 52 -52s-24 -53 -52 -53s-53 25 -53 53zM428 46c0 28 24 52 53 52c28 0 52 -24 52 -52s-24 -53 -52 -53c-29 0 -53 25 -53 53z" />
    <glyph glyph-name="uni0000" horiz-adv-x="833"
 />
    <glyph glyph-name="uni0000" horiz-adv-x="833"
 />
    <glyph glyph-name="quotedbl" unicode="&#x22;" horiz-adv-x="243"
d="M210 722v-215h-71v215h71zM103 722v-215h-71v215h71z" />
    <glyph glyph-name="exclam" unicode="!" horiz-adv-x="191"
d="M132 592v-180l-13 -270h-50l-11 270v180h74zM147 53c0 -30 -20 -55 -52 -55c-35 0 -52 18 -52 55s17 55 52 55c36 0 52 -18 52 -55z" />
    </font>
</defs>
</svg>
