<?xml version="1.0" standalone="no"?>
<!DOCTYPE svg PUBLIC "-//W3C//DTD SVG 1.1//EN" "http://www.w3.org/Graphics/SVG/1.1/DTD/svg11.dtd" >
<svg>
<metadata>
Created by FontForge 20120731 at Thu Dec 21 14:41:51 2017
 By www-data
Copyright (c) True Corporation Public Company Limited, 2005-2007. All rights reserved.
</metadata>
<defs>
<font id="TrueTextBBold" horiz-adv-x="0" >
  <font-face 
    font-family="TrueTextB"
    font-weight="700"
    font-stretch="normal"
    units-per-em="2048"
    panose-1="2 0 5 6 5 0 0 2 0 4"
    ascent="1638"
    descent="-410"
    x-height="698"
    cap-height="965"
    bbox="-1092 -889 1499 1692"
    underline-thickness="72"
    underline-position="-123"
    unicode-range="U+0020-F880"
  />
<missing-glyph horiz-adv-x="1599" 
d="M100 0v1599h1399v-1599h-1399zM1401 100v1399h-1200v-1399h1200z" />
    <glyph glyph-name="saraueesp1" unicode="&#xe37;&#xe48;" 
d="M-98 922q-117 20 -246 27t-277 7h-208q13 64 42.5 114t73 85t99 53.5t120.5 18.5l68 -4v71h106v-98q34 -12 62 -31v129h160v-372zM-254 1028q-31 48 -93.5 75t-137.5 27q-63 0 -113.5 -19t-81.5 -64q58 6 80 6q5 1 11 1.5t14 0.5h38q60 0 129 -6.5t154 -20.5zM-185 1356
h-160v225h160v-225z" />
    <glyph glyph-name=".notdef" horiz-adv-x="1599" 
d="M100 0v1599h1399v-1599h-1399zM1401 100v1399h-1200v-1399h1200z" />
    <glyph glyph-name=".null" 
 />
    <glyph glyph-name="nonmarkingreturn" horiz-adv-x="492" 
 />
    <glyph glyph-name="space" unicode=" " horiz-adv-x="492" 
 />
    <glyph glyph-name="space" unicode="&#xa0;" horiz-adv-x="492" 
 />
    <glyph glyph-name="quotesingle" unicode="'" horiz-adv-x="375" 
d="M256 584h-137v381h137v-381z" />
    <glyph glyph-name="parenleft" unicode="(" horiz-adv-x="375" 
d="M387 -254h-127q-46 75 -80 143t-57 131q-29 82 -43 168t-14 177q0 162 50 320t144 302h127q-166 -292 -166 -622q0 -87 9.5 -167t29.5 -156t51.5 -149.5t75.5 -146.5z" />
    <glyph glyph-name="parenright" unicode=")" horiz-adv-x="375" 
d="M309 365q0 -163 -50 -317t-144 -302h-121q78 147 120 298.5t42 320.5q0 172 -41.5 325.5t-120.5 296.5h121q45 -72 79.5 -140.5t57.5 -137.5q29 -85 43 -169.5t14 -174.5z" />
    <glyph glyph-name="asterisk" unicode="*" horiz-adv-x="500" 
d="M475 774l-153 -53l94 -127l-72 -51l-96 131l-90 -131l-76 51l94 127l-149 53l28 86l150 -57v162h92v-162l145 57z" />
    <glyph glyph-name="plus" unicode="+" horiz-adv-x="758" 
d="M696 274h-252v-251h-133v251h-250v134h250v249h133v-249h252v-134z" />
    <glyph glyph-name="comma" unicode="," horiz-adv-x="348" 
d="M287 80q0 -75 -39.5 -140t-108.5 -110l-76 45q42 23 72 64q11 14 19 28.5t14 30.5q-45 3 -76 28.5t-31 73.5q0 45 32 73t77 28q51 0 84 -30.5t33 -90.5z" />
    <glyph glyph-name="hyphen" unicode="-" horiz-adv-x="526" 
d="M459 295h-393v145h393v-145z" />
    <glyph glyph-name="period" unicode="." horiz-adv-x="348" 
d="M276 98q0 -45 -30.5 -72.5t-73.5 -27.5t-73.5 27.5t-30.5 72.5q0 22 8 41t22.5 33t33.5 22.5t40 8.5t40 -8.5t33.5 -22.5t22.5 -33t8 -41z" />
    <glyph glyph-name="slash" unicode="/" horiz-adv-x="475" 
d="M506 987l-389 -1005h-144l385 1005h148z" />
    <glyph glyph-name="zero" unicode="0" horiz-adv-x="758" 
d="M705 473q0 -200 -62 -326q-83 -161 -266 -161q-182 0 -264 159q-62 126 -62 328q0 197 62 326q82 166 264 166t266 -164q62 -126 62 -328zM551 473q0 85 -9 148t-26 108q-43 109 -139 109q-95 0 -137 -109q-17 -45 -26 -108t-9 -148q0 -165 35 -256q42 -108 137 -108
q93 0 137 108q37 90 37 256z" />
    <glyph glyph-name="one" unicode="1" horiz-adv-x="758" 
d="M475 0h-170v668h-231v120q106 0 178 35q80 41 98 123h125v-946z" />
    <glyph glyph-name="two" unicode="2" horiz-adv-x="758" 
d="M702 674q0 -105 -63 -187q-47 -62 -147 -131q-40 -25 -81.5 -52.5t-77 -55.5t-61 -56t-32.5 -55h460v-137h-645q0 114 53 202t150 154q51 34 98 67.5t95 68.5q98 83 98 178q0 65 -31 108q-41 60 -129 60q-86 0 -124 -63.5t-38 -174.5h-155q0 80 22 147t64 115.5t102 75.5
t137 27q157 0 240 -99q65 -80 65 -192z" />
    <glyph glyph-name="three" unicode="3" horiz-adv-x="758" 
d="M711 270q0 -127 -97 -209q-95 -75 -237 -75q-162 0 -248 85t-86 240h156q0 -91 45 -146.5t133 -55.5q81 0 130.5 44t49.5 126q0 79 -45 114q-51 45 -203 45v117q48 0 84 7.5t62 21.5q65 36 65 118q0 63 -40.5 99.5t-106.5 36.5q-38 0 -67.5 -15t-49.5 -41.5t-30.5 -62
t-10.5 -76.5h-154q0 70 22.5 129.5t63.5 102t99 66.5t129 24q63 0 113 -15.5t92 -46.5q94 -70 94 -190q0 -73 -32 -125.5t-101 -77.5q39 -9 70.5 -30.5t53.5 -52.5t34 -71t12 -86z" />
    <glyph glyph-name="four" unicode="4" horiz-adv-x="758" 
d="M709 225h-123v-225h-146v225h-405v152l405 569h146v-600h123v-121zM440 346v416l-286 -416h286z" />
    <glyph glyph-name="five" unicode="5" horiz-adv-x="758" 
d="M709 319q0 -131 -76 -225q-89 -108 -252 -108q-146 0 -234 67q-98 77 -98 215h154q8 -75 53.5 -117t120.5 -42q91 0 137 61q39 51 39 147q0 86 -43 138q-50 59 -137 59q-56 0 -94.5 -18t-57.5 -68h-153l100 518h489v-137h-374l-47 -242q70 70 176 70q70 0 125 -23t93 -65
t58.5 -100.5t20.5 -129.5z" />
    <glyph glyph-name="six" unicode="6" horiz-adv-x="758" 
d="M709 303q0 -71 -23 -129t-64.5 -100t-100 -65t-128.5 -23q-194 0 -276 139q-70 118 -70 350q0 100 20 182t58 148q94 160 281 160q115 0 198 -74q86 -71 86 -184h-153q-7 60 -45 95.5t-95 35.5q-84 0 -133 -70q-61 -88 -61 -256q31 51 87.5 81t119.5 30q68 0 123.5 -23.5
t94.5 -65.5t60 -101t21 -130zM553 307q0 40 -11 75t-32 61.5t-52 41.5t-71 15t-71.5 -15t-53.5 -41t-33.5 -61.5t-11.5 -75.5q0 -41 11.5 -77t33.5 -63t53.5 -42.5t71.5 -15.5t71 15t52 42t32 63t11 78z" />
    <glyph glyph-name="seven" unicode="7" horiz-adv-x="758" 
d="M696 817q-85 -97 -146.5 -186t-103.5 -176q-51 -109 -76.5 -221.5t-25.5 -233.5h-170q0 210 111 434q48 97 111 190.5t145 184.5h-492v137h647v-129z" />
    <glyph glyph-name="eight" unicode="8" horiz-adv-x="758" 
d="M711 279q0 -69 -24.5 -123t-69 -92t-106 -58t-134.5 -20q-74 0 -135.5 20t-105.5 57.5t-68.5 92t-24.5 123.5q0 43 12.5 80.5t35 68t54.5 51.5t72 31q-133 52 -133 197q0 124 74.5 191t218.5 67q143 0 219 -68.5t76 -189.5q0 -145 -133 -197q81 -20 126.5 -80t45.5 -151z
M526 698q0 70 -41.5 108t-107.5 38q-32 0 -59 -9.5t-46.5 -28.5t-31 -46t-11.5 -62q0 -66 41 -102.5t107 -36.5t107.5 38t41.5 101zM557 279q0 39 -13 69.5t-37 52t-57 32.5t-73 11q-39 0 -72 -11t-56.5 -32.5t-36.5 -52t-13 -69.5q0 -41 13 -73.5t36 -55.5t56 -35.5
t73 -12.5t73 12t57 34.5t37 55.5t13 75z" />
    <glyph glyph-name="nine" unicode="9" horiz-adv-x="758" 
d="M709 471q0 -100 -20 -182t-58 -148q-95 -155 -281 -155q-115 0 -200 69q-84 71 -84 185h153q6 -60 44 -95.5t95 -35.5q86 0 134 69q30 45 45.5 108t15.5 148q-68 -110 -207 -110q-68 0 -123 22t-94 63.5t-60.5 100t-21.5 131.5q0 70 22.5 129.5t64.5 103t102.5 67.5
t136.5 24q185 0 268 -144q68 -122 68 -350zM539 643q0 41 -11.5 76.5t-34 62t-54.5 41.5t-72 15t-70.5 -15t-51.5 -41.5t-31.5 -62t-10.5 -76.5q0 -42 10.5 -78.5t31.5 -63.5t51.5 -42t70.5 -15t72 15t54.5 42t34 63.5t11.5 78.5z" />
    <glyph glyph-name="colon" unicode=":" horiz-adv-x="348" 
d="M276 592q0 -21 -8 -40.5t-22.5 -33.5t-33.5 -22.5t-40 -8.5t-40 8.5t-33.5 22.5t-22.5 33.5t-8 40.5t8 40t22.5 33.5t33.5 22.5t40 8t40 -8t33.5 -22.5t22.5 -33.5t8 -40zM276 98q0 -45 -30.5 -72.5t-73.5 -27.5t-73.5 27.5t-30.5 72.5q0 22 8 41t22.5 33t33.5 22.5
t40 8.5t40 -8.5t33.5 -22.5t22.5 -33t8 -41z" />
    <glyph glyph-name="semicolon" unicode=";" horiz-adv-x="348" 
d="M276 592q0 -21 -8 -40.5t-22.5 -33.5t-33.5 -22.5t-40 -8.5t-40 8.5t-33.5 22.5t-22.5 33.5t-8 40.5t8 40t22.5 33.5t33.5 22.5t40 8t40 -8t33.5 -22.5t22.5 -33.5t8 -40zM287 80q0 -75 -39.5 -140t-108.5 -110l-76 45q42 23 72 64q11 14 19 28.5t14 30.5q-45 3 -76 28.5
t-31 73.5q0 45 32 73t77 28q51 0 84 -30.5t33 -90.5z" />
    <glyph glyph-name="less" unicode="&#x3c;" horiz-adv-x="758" 
d="M696 -6l-635 299v98l635 303v-137l-452 -215l452 -215v-133z" />
    <glyph glyph-name="equal" unicode="=" horiz-adv-x="758" 
d="M696 418h-635v133h635v-133zM696 131h-635v133h635v-133z" />
    <glyph glyph-name="greater" unicode="&#x3e;" horiz-adv-x="758" 
d="M696 293l-635 -299v133l453 215l-453 215v137l635 -303v-98z" />
    <glyph glyph-name="question" unicode="?" horiz-adv-x="795" 
d="M723 731q0 -75 -43 -133q-21 -27 -96 -96q-52 -40 -74 -74q-20 -29 -29.5 -63t-9.5 -74h-158q0 98 39 172q31 58 94 115q61 47 76 65q35 41 35 88q0 62 -46 90.5t-118 28.5q-194 0 -194 -195v-21q0 -5 0.5 -8.5t1.5 -7.5h-150q0 14 -1 31.5t-1 22.5q0 74 25 132.5t71 99
t109.5 62t140.5 21.5q72 0 132 -17t103.5 -49.5t68 -80.5t24.5 -109zM498 98q0 -45 -30.5 -72.5t-74.5 -27.5q-43 0 -73.5 27.5t-30.5 72.5q0 22 8 41t22.5 33t33.5 22.5t40 8.5q22 0 41 -8.5t33 -22.5t22.5 -33t8.5 -41z" />
    <glyph glyph-name="at" unicode="@" horiz-adv-x="1081" 
d="M1016 592q0 -184 -119 -303q-101 -101 -201 -101q-35 0 -57.5 21t-22.5 59q-15 -15 -34 -29.5t-39 -25t-40.5 -17t-39.5 -6.5q-42 0 -78.5 16.5t-63.5 45t-42 67.5t-15 84q0 69 21 128.5t63 113.5q82 109 213 109q102 0 152 -99l24 78h94l-98 -356q-12 -41 -12 -60
q0 -32 27 -32q62 0 118 86q58 85 58 204q0 147 -105 236q-105 90 -256 90q-172 0 -280 -117q-109 -113 -109 -288q0 -193 113 -312q111 -118 286 -118q188 0 306 133h94q-32 -52 -76 -92.5t-96.5 -68t-111.5 -42t-120 -14.5q-212 0 -358 143q-145 148 -145 375
q0 202 145 344q146 143 352 143q189 0 320 -113q133 -109 133 -282zM674 532q0 25 -8.5 46.5t-22.5 37.5t-34 25.5t-42 9.5q-81 0 -135 -76q-53 -77 -53 -159q0 -57 29.5 -90t78.5 -33q77 0 131 78q56 80 56 161z" />
    <glyph glyph-name="A" unicode="A" horiz-adv-x="901" 
d="M911 0h-180l-90 256h-385l-90 -256h-172l366 965h181zM596 383l-145 416h-5l-145 -416h295z" />
    <glyph glyph-name="B" unicode="B" horiz-adv-x="952" 
d="M901 268q0 -120 -82 -190q-93 -78 -272 -78h-445v965h469q139 0 213 -58.5t74 -181.5q0 -143 -137 -205q180 -47 180 -252zM690 694q0 69 -35.5 101t-107.5 32h-275v-266h275q143 0 143 133zM733 291q0 147 -162 147h-299v-301h299q79 0 120.5 39.5t41.5 114.5z" />
    <glyph glyph-name="C" unicode="C" horiz-adv-x="977" 
d="M924 369q0 -173 -117 -281q-113 -106 -293 -106q-208 0 -340 145q-123 141 -123 356q0 214 125 359q127 145 338 145q84 0 155.5 -22.5t126 -65.5t88 -104t40.5 -138h-170q-22 93 -78 140q-62 53 -162 53q-72 0 -128.5 -28t-94.5 -85q-70 -100 -70 -254q0 -153 68 -254
q78 -114 225 -114q54 0 97 18.5t74 52t50 80.5t25 103h164z" />
    <glyph glyph-name="D" unicode="D" horiz-adv-x="977" 
d="M928 483q0 -214 -101 -342q-110 -141 -323 -141h-402v965h402q213 0 323 -140q101 -125 101 -342zM760 483q0 161 -62 244q-75 100 -260 100h-166v-690h166q183 0 260 101q62 80 62 245z" />
    <glyph glyph-name="E" unicode="E" horiz-adv-x="852" 
d="M807 0h-705v965h695v-146h-525v-252h486v-139h-486v-283h535v-145z" />
    <glyph glyph-name="F" unicode="F" horiz-adv-x="801" 
d="M770 819h-498v-252h437v-139h-437v-428h-170v965h668v-146z" />
    <glyph glyph-name="G" unicode="G" horiz-adv-x="1026" 
d="M944 0h-106l-27 113q-33 -38 -65.5 -63.5t-67 -40.5t-73.5 -21t-85 -6q-208 0 -340 145q-123 141 -123 356q0 214 125 359q127 145 338 145q82 0 154 -21.5t126.5 -63.5t89.5 -103.5t44 -141.5h-164q-6 45 -28 81t-56 61t-76.5 38t-89.5 13q-72 0 -128.5 -28t-94.5 -85
q-70 -100 -70 -254q0 -153 68 -254q78 -114 225 -114q131 0 201 69.5t70 194.5h-256v129h409v-508z" />
    <glyph glyph-name="H" unicode="H" horiz-adv-x="977" 
d="M877 0h-170v436h-439v-436h-170v965h170v-383h439v383h170v-965z" />
    <glyph glyph-name="I" unicode="I" horiz-adv-x="375" 
d="M272 0h-170v965h170v-965z" />
    <glyph glyph-name="J" unicode="J" horiz-adv-x="725" 
d="M623 311q0 -78 -14 -135t-40 -94q-76 -100 -264 -100q-73 0 -127 21t-89.5 60.5t-53 96t-17.5 127.5v51h168v-49q0 -91 29 -132.5t104 -41.5q39 0 65.5 10.5t42 33t22 57.5t6.5 85v664h168v-654z" />
    <glyph glyph-name="K" unicode="K" horiz-adv-x="926" 
d="M936 0h-211l-315 461l-138 -137v-324h-170v965h170v-439l430 439h207l-385 -385z" />
    <glyph glyph-name="L" unicode="L" horiz-adv-x="776" 
d="M762 0h-660v965h170v-820h490v-145z" />
    <glyph glyph-name="M" unicode="M" horiz-adv-x="1202" 
d="M1102 0h-162v745l-270 -745h-140l-266 745l-4 -745h-160v965h238l266 -756l262 756h236v-965z" />
    <glyph glyph-name="N" unicode="N" horiz-adv-x="977" 
d="M879 0h-179l-440 709l-4 -709h-160v965h178l441 -711l2 711h162v-965z" />
    <glyph glyph-name="O" unicode="O" horiz-adv-x="1028" 
d="M977 483q0 -214 -127 -357q-128 -144 -336 -144t-340 145q-123 141 -123 356q0 214 125 359q127 145 338 145t340 -147q123 -143 123 -357zM807 483q0 154 -68 252q-76 115 -225 115q-72 0 -128.5 -28t-94.5 -85q-70 -100 -70 -254q0 -153 68 -254q78 -114 225 -114
q142 0 223 114q70 100 70 254z" />
    <glyph glyph-name="P" unicode="P" horiz-adv-x="901" 
d="M856 666q0 -117 -59 -191q-84 -104 -269 -104h-256v-371h-170v965h426q183 0 267 -105q61 -76 61 -194zM688 668q0 87 -45 123t-121 36h-250v-319h246q34 0 62 8t51 25q57 40 57 127z" />
    <glyph glyph-name="Q" unicode="Q" horiz-adv-x="1028" 
d="M977 483q0 -112 -32.5 -206.5t-104.5 -163.5l125 -109l-84 -88l-140 119q-49 -29 -109.5 -41t-117.5 -12q-208 0 -340 145q-123 141 -123 356q0 214 125 359q127 145 338 145t340 -147q123 -143 123 -357zM807 483q0 154 -68 252q-76 115 -225 115q-72 0 -128.5 -28
t-94.5 -85q-70 -100 -70 -254q0 -153 68 -254q78 -114 225 -114q31 0 55.5 4t53.5 18l-99 86l82 92l117 -102q45 54 64.5 121.5t19.5 148.5z" />
    <glyph glyph-name="R" unicode="R" horiz-adv-x="952" 
d="M920 0h-183q-9 15 -14 34t-7 38.5t-2.5 37.5t-0.5 31q0 142 -37 195q-43 61 -156 61h-248v-397h-170v965h461q160 0 240 -65.5t80 -194.5q0 -94 -42.5 -156.5t-117.5 -87.5q55 -9 92 -49q51 -54 51 -158q0 -91 14 -158t40 -96zM713 680q0 42 -12 70.5t-33.5 45.5
t-52.5 24t-68 7h-275v-301h277q164 0 164 154z" />
    <glyph glyph-name="S" unicode="S" horiz-adv-x="877" 
d="M831 281q0 -156 -118 -234q-101 -65 -267 -65q-175 0 -282 77q-119 89 -119 263h168q0 -106 72 -160q65 -47 174 -47q51 0 89.5 11t63.5 30.5t37.5 46t12.5 57.5q0 51 -21 79t-63 42q-20 8 -53.5 17t-84.5 22q-48 14 -84 23.5t-61 15.5q-114 30 -168 102q-23 29 -34 65.5
t-11 78.5q0 135 111 213q49 35 109 52t132 17q79 0 144.5 -20t119.5 -62q107 -80 107 -225h-170q0 88 -56.5 129t-150.5 41q-73 0 -119 -25q-59 -33 -59 -100q0 -51 30.5 -81t84.5 -44l278 -74q45 -13 80 -38t59 -58t36.5 -71.5t12.5 -77.5z" />
    <glyph glyph-name="T" unicode="T" horiz-adv-x="801" 
d="M793 819h-308v-819h-170v819h-305v146h783v-146z" />
    <glyph glyph-name="U" unicode="U" horiz-adv-x="977" 
d="M885 348q0 -92 -27.5 -161t-79 -114.5t-125.5 -68t-166 -22.5q-91 0 -164 22.5t-124.5 68t-79 114.5t-27.5 161v617h168v-562q0 -130 31 -188q50 -92 196 -92q145 0 195 90q17 29 25 76.5t8 113.5v562h170v-617z" />
    <glyph glyph-name="V" unicode="V" horiz-adv-x="825" 
d="M834 965l-330 -965h-189l-317 965h170l244 -764l250 764h172z" />
    <glyph glyph-name="W" unicode="W" horiz-adv-x="1276" 
d="M1268 965l-267 -965h-172l-192 737l-201 -737h-174l-254 965h172l174 -738l197 738h174l188 -738l183 738h172z" />
    <glyph glyph-name="X" unicode="X" horiz-adv-x="877" 
d="M881 0h-207l-240 369l-246 -369h-188l338 500l-320 465h203l217 -340l230 340h188l-317 -465z" />
    <glyph glyph-name="Y" unicode="Y" horiz-adv-x="877" 
d="M885 965l-363 -586v-379h-168v379l-358 586h192l254 -433l252 433h191z" />
    <glyph glyph-name="Z" unicode="Z" horiz-adv-x="852" 
d="M821 0h-790v137l563 682h-520v146h735v-127l-563 -693h575v-145z" />
    <glyph glyph-name="bracketleft" unicode="[" horiz-adv-x="399" 
d="M399 -254h-301v1241h301v-121h-155v-999h155v-121z" />
    <glyph glyph-name="backslash" unicode="\" horiz-adv-x="475" 
d="M506 -18h-148l-385 1005h144z" />
    <glyph glyph-name="bracketright" unicode="]" horiz-adv-x="399" 
d="M303 -254h-301v121h156v999h-156v121h301v-1241z" />
    <glyph glyph-name="asciicircum" unicode="^" horiz-adv-x="811" 
d="M698 453h-139l-153 333l-154 -333h-139l243 493h99z" />
    <glyph glyph-name="underscore" unicode="_" horiz-adv-x="758" 
d="M758 -231h-758v112h758v-112z" />
    <glyph glyph-name="grave" unicode="`" horiz-adv-x="326" 
d="M264 795h-110l-189 192h176z" />
    <glyph glyph-name="a" unicode="a" horiz-adv-x="752" 
d="M741 0q-24 -6 -48.5 -10t-49.5 -4q-51 0 -81 16t-38 64q-21 -21 -49 -36t-59.5 -25t-65.5 -14.5t-67 -4.5q-102 0 -166 45q-74 56 -74 153q0 60 21.5 102t64.5 68q28 17 66.5 28t89.5 17l174 27q63 15 63 76q0 27 -12 45t-32 29t-46.5 15.5t-54.5 4.5q-68 0 -111 -27.5
t-43 -83.5h-153q0 126 100 183q83 49 217 49q116 0 191 -45q88 -52 88 -158v-358q0 -54 36 -54l39 2v-104zM512 236v114q-20 -15 -51.5 -22t-67.5 -11.5t-72.5 -10.5t-65 -18.5t-45 -34.5t-13.5 -60q0 -50 51 -72q39 -19 92 -19q64 0 111 29q61 37 61 105z" />
    <glyph glyph-name="b" unicode="b" horiz-adv-x="825" 
d="M776 346q0 -151 -71 -252q-83 -108 -230 -108q-41 0 -77.5 5t-68 17t-56 33.5t-40.5 54.5l-2 -96h-145v965h154v-357q16 25 39.5 45.5t51.5 34.5t58.5 21.5t61.5 7.5q155 0 243 -109q82 -100 82 -262zM623 348q0 54 -12.5 96t-35.5 76q-51 76 -145 76q-97 0 -147 -65
t-50 -183q0 -53 14 -98t39.5 -78t62 -51.5t81.5 -18.5q51 0 87.5 20t62.5 58q43 65 43 168z" />
    <glyph glyph-name="c" unicode="c" horiz-adv-x="752" 
d="M707 262q-20 -137 -101.5 -206.5t-218.5 -69.5q-80 0 -143 25.5t-107 72t-67 112t-23 146.5q0 82 22.5 151t66.5 118.5t108 77.5t147 28q67 0 124.5 -16.5t100 -48t67 -79t24.5 -108.5h-154q-18 131 -160 131q-75 0 -125 -47q-67 -64 -67 -207q0 -51 10.5 -91.5
t30.5 -72.5q48 -76 145 -76q69 0 112 42.5t54 117.5h154z" />
    <glyph glyph-name="d" unicode="d" horiz-adv-x="825" 
d="M739 0h-145v94q-31 -57 -89 -82.5t-130 -25.5q-80 0 -141 26t-102.5 74t-63 116t-21.5 152q0 178 94 275q84 88 209 88q74 0 137 -27t95 -82l4 357h153v-965zM590 350q0 117 -51 181.5t-142 64.5q-50 0 -87 -20t-61 -54.5t-36 -81t-12 -98.5q0 -51 12 -95t36 -76.5
t60.5 -50.5t85.5 -18q94 0 148 78q23 35 35 77t12 93z" />
    <glyph glyph-name="e" unicode="e" horiz-adv-x="752" 
d="M715 309h-514q0 -44 12 -81.5t36 -65.5t59 -44t81 -16q129 0 170 117h148q-13 -56 -41.5 -99.5t-70 -73t-93.5 -45t-113 -15.5q-81 0 -144.5 25.5t-107.5 72.5t-67 114t-23 150q0 153 92 260q97 109 246 109t244 -107q90 -102 90 -248v-26q-4 -16 -4 -27zM561 412
q0 37 -13.5 70.5t-37 59t-56 40t-69.5 14.5q-39 0 -72.5 -14t-58.5 -39t-39 -58.5t-14 -72.5h360z" />
    <glyph glyph-name="f" unicode="f" horiz-adv-x="426" 
d="M428 836q-14 5 -31.5 6.5t-40.5 1.5q-35 0 -55 -16t-20 -58v-72h131v-114h-131v-584h-154v584h-115v114h115v60q0 120 59 170q23 18 55.5 27.5t77.5 9.5q31 0 55.5 -0.5t53.5 -8.5v-120z" />
    <glyph glyph-name="g" unicode="g" horiz-adv-x="801" 
d="M727 37q0 -309 -344 -309q-117 0 -203 47q-49 29 -76 71t-32 99h153q12 -60 62 -84q34 -19 106 -19q94 0 137 43.5t43 130.5v107q-74 -123 -213 -123q-157 0 -239 109q-74 95 -74 260q0 144 86 245q45 51 102 77t130 26q69 0 122 -27.5t84 -87.5l2 96h154v-661zM573 365
q0 100 -43 161q-48 70 -145 70q-94 0 -143 -78q-41 -65 -41 -166q0 -47 11.5 -89t34.5 -73.5t57.5 -50t80.5 -18.5q99 0 145 76q43 64 43 168z" />
    <glyph glyph-name="h" unicode="h" horiz-adv-x="776" 
d="M694 0h-153v438q0 158 -138 158q-38 0 -68.5 -14t-52.5 -38.5t-34 -58t-12 -73.5v-412h-154v965h154v-359q32 51 86.5 81t123.5 30q117 0 182.5 -60t65.5 -178v-479z" />
    <glyph glyph-name="i" unicode="i" horiz-adv-x="326" 
d="M240 819h-154v146h154v-146zM240 0h-154v698h154v-698z" />
    <glyph glyph-name="j" unicode="j" horiz-adv-x="326" 
d="M240 819h-154v146h154v-146zM240 -55q0 -108 -47.5 -162.5t-153.5 -54.5l-66 4v123l50 -7q21 0 33 5.5t19 17.5t9 31.5t2 48.5v747h154v-753z" />
    <glyph glyph-name="k" unicode="k" horiz-adv-x="725" 
d="M733 0h-188l-213 340l-92 -90v-250h-154v965h154v-549l278 282h189l-269 -256z" />
    <glyph glyph-name="l" unicode="l" horiz-adv-x="326" 
d="M240 0h-154v965h154v-965z" />
    <glyph glyph-name="m" unicode="m" horiz-adv-x="1176" 
d="M1096 0h-156v408q0 99 -16 135q-29 53 -111 53q-75 0 -111 -47.5t-36 -138.5v-410h-156v449q0 78 -27 112.5t-96 34.5q-32 0 -59.5 -12.5t-47.5 -35.5t-32 -56.5t-12 -75.5v-416h-154v698h145v-96q38 53 86 82q28 17 61.5 25t71.5 8q69 0 120.5 -27.5t74.5 -87.5
q43 57 94 86t125 29q116 0 176 -54.5t60 -179.5v-483z" />
    <glyph glyph-name="n" unicode="n" horiz-adv-x="776" 
d="M694 0h-153v438q0 158 -138 158q-38 0 -68.5 -14t-52.5 -38.5t-34 -58t-12 -73.5v-412h-154v698h145v-102q37 57 93.5 89t125.5 32q117 0 182.5 -60t65.5 -178v-479z" />
    <glyph glyph-name="o" unicode="o" horiz-adv-x="801" 
d="M754 350q0 -84 -23.5 -151t-69 -114.5t-111 -73t-149.5 -25.5q-83 0 -148.5 25.5t-110.5 73t-69 114.5t-24 151q0 82 24 149.5t69 116t110.5 75t148.5 26.5t148.5 -26.5t111 -75t69.5 -116t24 -149.5zM600 350q0 100 -47 168q-57 78 -152 78q-47 0 -83.5 -20t-62 -54
t-39 -78.5t-13.5 -93.5q0 -51 12.5 -96.5t37.5 -79t62 -53t86 -19.5q48 0 85.5 20.5t62.5 54.5t38 79t13 94z" />
    <glyph glyph-name="p" unicode="p" horiz-adv-x="825" 
d="M776 346q0 -151 -71 -252q-83 -108 -230 -108q-75 0 -135.5 23.5t-97.5 80.5l-2 -344h-154v952h145v-94q32 57 89.5 85t130.5 28q155 0 243 -109q82 -100 82 -262zM623 348q0 54 -12.5 96t-35.5 76q-51 76 -145 76q-97 0 -147 -65t-50 -183q0 -53 14 -98t39.5 -78
t62 -51.5t81.5 -18.5q51 0 87.5 20t62.5 58q43 65 43 168z" />
    <glyph glyph-name="q" unicode="q" horiz-adv-x="825" 
d="M739 -254h-153v344q-18 -27 -44.5 -46.5t-58 -32.5t-66.5 -19t-69 -6q-145 0 -227 106q-74 104 -74 254q0 164 80 262q88 109 248 109q75 0 129 -26.5t86 -86.5l4 94h145v-952zM590 348q0 117 -50.5 182.5t-144.5 65.5q-46 0 -82 -19.5t-61 -53t-38 -79t-13 -96.5
q0 -104 43 -168q26 -38 63 -58t88 -20q99 0 147 65.5t48 180.5z" />
    <glyph glyph-name="r" unicode="r" horiz-adv-x="475" 
d="M492 565l-68 6q-41 0 -75.5 -16.5t-59.5 -47t-39 -75t-14 -100.5v-332h-154v698h143v-135q9 28 29.5 56t48.5 49.5t61.5 35t67.5 13.5l60 -4v-148z" />
    <glyph glyph-name="s" unicode="s" horiz-adv-x="702" 
d="M666 209q0 -115 -103 -176q-86 -47 -211 -47q-70 0 -127 14.5t-97.5 44t-62.5 74.5t-22 106h154q6 -63 48 -93t111 -30q32 0 57 3.5t42 11.5q55 21 55 78q0 48 -72 77q-8 3 -47 12.5t-108 26.5q-106 22 -156 58q-70 51 -70 149q0 103 99 156q80 43 194 43q119 0 193 -47
q83 -56 98 -166h-160q-11 49 -47.5 70.5t-93.5 21.5q-66 0 -96.5 -20t-30.5 -52q0 -49 70 -73q8 -4 47 -13t108 -26q106 -22 156 -58q35 -26 53.5 -61.5t18.5 -83.5z" />
    <glyph glyph-name="t" unicode="t" horiz-adv-x="451" 
d="M420 2q-25 -2 -47.5 -3t-53.5 -1q-56 0 -93 9.5t-59 30t-31 53.5t-9 81v412h-117v114h117v211h154v-211h139v-114h-139v-373q0 -28 2.5 -46.5t10.5 -29.5t23 -15.5t39 -4.5q43 0 64 6v-119z" />
    <glyph glyph-name="u" unicode="u" horiz-adv-x="776" 
d="M694 0h-151v98q-30 -55 -84 -83.5t-117 -28.5q-260 0 -260 270v442h154v-428q0 -88 33.5 -128t99.5 -40q90 0 131 51.5t41 139.5v405h153v-698z" />
    <glyph glyph-name="v" unicode="v" horiz-adv-x="702" 
d="M690 698l-252 -698h-172l-254 698h168l176 -536l174 536h160z" />
    <glyph glyph-name="w" unicode="w" horiz-adv-x="1051" 
d="M1034 698l-219 -698h-158l-131 518l-131 -518h-162l-215 698h162l137 -522l134 522h155l127 -522l144 522h157z" />
    <glyph glyph-name="x" unicode="x" horiz-adv-x="725" 
d="M721 0h-186l-177 258l-172 -258h-180l262 369l-241 329h186l147 -215l152 215h178l-237 -323z" />
    <glyph glyph-name="y" unicode="y" horiz-adv-x="702" 
d="M696 698l-272 -731q-31 -78 -59 -128t-54 -70q-50 -41 -135 -41h-65q-14 3 -24.5 4.5t-16.5 3.5v129q24 -5 42.5 -7.5t30.5 -2.5q25 0 42 5.5t29 17.5t20.5 30.5t17.5 44.5l16 49l-264 696h168l184 -522l179 522h161z" />
    <glyph glyph-name="z" unicode="z" horiz-adv-x="676" 
d="M645 0h-614v109l385 469h-359v120h568v-108l-400 -469h420v-121z" />
    <glyph glyph-name="braceleft" unicode="{" horiz-adv-x="399" 
d="M418 -254h-123q-57 0 -109 43q-65 56 -65 141v265q0 28 -12.5 48.5t-31.5 33.5t-40 19.5t-39 6.5v123q39 0 74 18q49 28 49 80v279q0 88 63 139q51 45 111 45h123v-121h-74q-24 0 -38.5 -7t-23 -19.5t-11.5 -29.5t-3 -38v-264q0 -71 -53 -109q-39 -27 -88 -32
q29 -5 50.5 -11.5t35.5 -17.5q55 -40 55 -125v-250q0 -43 11 -63q16 -33 65 -33h74v-121z" />
    <glyph glyph-name="bar" unicode="|" horiz-adv-x="301" 
d="M219 -18h-137v1005h137v-1005z" />
    <glyph glyph-name="braceright" unicode="}" horiz-adv-x="399" 
d="M406 303q-57 0 -92 -28t-35 -70v-275q0 -87 -64 -139q-51 -45 -111 -45h-118v121h71q35 0 55.5 20t20.5 76v258q0 69 53 111q17 12 38.5 20t47.5 13q-29 5 -50.5 11t-35.5 17q-53 39 -53 123v256q0 39 -12 62q-17 32 -64 32h-71v121h118q57 0 109 -43q66 -57 66 -141
v-268q0 -59 49 -86q38 -23 78 -23v-123z" />
    <glyph glyph-name="asciitilde" unicode="~" horiz-adv-x="811" 
d="M717 344q-25 -36 -46 -59t-40.5 -35.5t-39.5 -17.5t-42 -5q-32 -4 -66 11.5t-70.5 34.5t-75.5 34t-81 12q-38 0 -72 -30q-19 -18 -43 -62l-47 113q14 26 28.5 46t31.5 34q46 37 108 37q40 0 90 -19q11 -3 25.5 -9t34.5 -15q31 -14 49 -22t26 -11q42 -16 64 -16
q42 0 82 43q14 17 23 29t14 20z" />
    <glyph glyph-name="quotedbl" unicode="&#x22;" horiz-adv-x="600" 
d="M487 584h-137v381h137v-381zM250 584h-137v381h137v-381z" />
    <glyph glyph-name="exclam" unicode="!" horiz-adv-x="375" 
d="M272 686l-43 -418h-79l-46 418v279h168v-279zM293 84q0 -21 -8.5 -39.5t-22.5 -32t-33 -21t-41 -7.5q-21 0 -40 7.5t-33.5 21t-22.5 32t-8 39.5t8 40t22.5 33.5t33.5 22.5t40 8q22 0 41 -8t33 -22.5t22.5 -33.5t8.5 -40z" />
    <glyph glyph-name="guillemotleft" unicode="&#xab;" horiz-adv-x="627" 
d="M545 125l-209 168v149l209 168v-139l-129 -102l129 -105v-139zM276 125l-208 168v149l208 168v-139l-126 -102l126 -105v-139z" />
    <glyph glyph-name="logicalnot" unicode="&#xac;" horiz-adv-x="758" 
d="M721 119h-82v178h-604v90h686v-268z" />
    <glyph glyph-name="registered" unicode="&#xae;" horiz-adv-x="1081" 
d="M1049 485q0 -216 -150 -360q-149 -143 -356 -143q-211 0 -361 141q-149 143 -149 362q0 211 147 357q76 72 165.5 108.5t197.5 36.5q208 0 356 -145q150 -146 150 -357zM956 485q0 91 -29 167t-89 139q-120 122 -295 122q-180 0 -299 -125q-119 -121 -119 -303
q0 -186 119 -311q120 -123 299 -123q175 0 295 123q60 63 89 140t29 171zM793 188h-99l-159 254h-99v-254h-92v590h229q207 0 207 -168q0 -75 -41.5 -114t-113.5 -47zM688 614q0 51 -36 71t-93 20h-123v-189h96q49 0 79.5 6t47.5 18.5t23 31t6 42.5z" />
    <glyph glyph-name="degree" unicode="&#xb0;" horiz-adv-x="541" 
d="M266 915q43 0 80.5 -16t65 -43t43.5 -64t16 -79t-16 -79t-43.5 -64.5t-65 -43.5t-80.5 -16q-41 0 -77 15.5t-63.5 43t-43.5 64.5t-16 80q0 40 15.5 77t42.5 64.5t63.5 44t78.5 16.5zM266 858q-31 0 -57.5 -11t-46 -30.5t-30.5 -46t-11 -57.5q0 -30 11.5 -57t31 -47
t46 -32t56.5 -12q61 0 105 43q45 46 45 105q0 30 -12 56.5t-32.5 46t-47.5 31t-58 11.5z" />
    <glyph glyph-name="paragraph" unicode="&#xb6;" horiz-adv-x="727" 
d="M629 -244h-62v1356h-145v-1356h-55v805q-168 0 -263 62q-104 74 -104 235q0 153 94 229q90 66 248 66h389v-41h-102v-1356z" />
    <glyph glyph-name="periodcentered" unicode="&#xb7;" horiz-adv-x="338" 
d="M170 520q31 0 51.5 -21.5t20.5 -49.5q0 -31 -21.5 -52.5t-50.5 -21.5q-33 0 -53.5 20.5t-20.5 53.5q0 30 20.5 50.5t53.5 20.5z" />
    <glyph glyph-name="periodcentered" unicode="&#x2219;" horiz-adv-x="338" 
d="M170 520q31 0 51.5 -21.5t20.5 -49.5q0 -31 -21.5 -52.5t-50.5 -21.5q-33 0 -53.5 20.5t-20.5 53.5q0 30 20.5 50.5t53.5 20.5z" />
    <glyph glyph-name="guillemotright" unicode="&#xbb;" horiz-adv-x="627" 
d="M559 293l-211 -168v139l129 105l-129 102v139l211 -168v-149zM291 293l-209 -168v139l127 105l-127 102v139l209 -168v-149z" />
    <glyph glyph-name="multiply" unicode="&#xd7;" horiz-adv-x="758" 
d="M692 121l-94 -94l-221 221l-219 -221l-95 94l220 221l-220 219l95 94l219 -219l221 221l94 -94l-221 -221z" />
    <glyph glyph-name="divide" unicode="&#xf7;" horiz-adv-x="758" 
d="M467 600q0 -37 -25 -59.5t-63 -22.5q-37 0 -62.5 23.5t-25.5 58.5q0 37 25 59.5t63 22.5q37 0 62.5 -23.5t25.5 -58.5zM707 274h-656v134h656v-134zM467 82q0 -37 -25 -59.5t-63 -22.5q-37 0 -62.5 23.5t-25.5 58.5q0 37 25 59.5t63 22.5q37 0 62.5 -23.5t25.5 -58.5z
" />
    <glyph glyph-name="uni0E00" unicode="&#xe00;" horiz-adv-x="205" 
 />
    <glyph glyph-name="uni0E01" unicode="&#xe01;" horiz-adv-x="866" 
d="M764 0h-160v561q0 36 -14.5 63.5t-40 46.5t-61 28.5t-78.5 9.5q-70 0 -117 -23t-66 -55q17 -5 38.5 -12t45.5 -15q8 -3 21 -7.5t30 -12.5v-52q-18 -4 -36 -16t-32.5 -28.5t-23 -37t-8.5 -42.5v-408h-160v414q0 19 7.5 38t20.5 36t30 30.5t37 22.5q-83 33 -166 51
q18 55 52.5 100t82.5 77t109 49.5t133 17.5q80 0 145.5 -17t112.5 -50.5t72.5 -83t25.5 -114.5v-571z" />
    <glyph glyph-name="uni0E02" unicode="&#xe02;" horiz-adv-x="831" 
d="M729 170q0 -94 -55 -132t-170 -38h-385v127h102v242q0 51 43 104q48 60 71 96.5t23 53.5q0 42 -29.5 69t-78.5 27h-15q-6 0 -12 -2q70 -34 70 -113q0 -30 -11 -55t-30 -43.5t-44.5 -28.5t-55.5 -10q-65 0 -105 37q-47 42 -47 119t63 137q39 35 87.5 53t111.5 18
q55 0 99 -15t75.5 -42t48.5 -65t17 -84q0 -60 -37 -113q-84 -122 -84 -158v-227h92q54 0 75 14t21 58v620h160v-649zM207 602q0 23 -16 39t-39 16t-39.5 -16t-16.5 -39t16.5 -39t39.5 -16t39 16t16 39z" />
    <glyph glyph-name="uni0E03" unicode="&#xe03;" horiz-adv-x="872" 
d="M770 170q0 -94 -55 -132t-170 -38h-385v127h102v246q0 57 45 108q101 119 101 152q0 40 -27 67q-5 5 -14 11l-68 -52l-94 58q-11 -5 -23 -18.5t-20 -24.5q60 0 95.5 -35.5t35.5 -89.5q0 -28 -11.5 -52.5t-31 -43t-45 -29t-53.5 -10.5q-67 0 -109.5 43t-42.5 118
q0 42 15 82.5t41.5 74.5t61.5 60t75 39q64 -33 104 -65q15 12 30.5 23t29.5 19.5t24.5 13.5t15.5 5q36 0 84 -49q62 -62 62 -139q0 -68 -82 -180q-20 -28 -29.5 -54t-9.5 -49v-229h92q54 0 75 14t21 58v620h160v-649zM207 547q0 23 -16 39t-39 16t-39.5 -16t-16.5 -39
t16.5 -39t39.5 -16t39 16t16 39z" />
    <glyph glyph-name="uni0E04" unicode="&#xe04;" horiz-adv-x="895" 
d="M793 0h-160v547q0 72 -52.5 116t-158.5 44q-47 0 -86 -11t-66.5 -32t-43 -50.5t-15.5 -66.5q0 -26 1 -64t3 -86q6 -95 6 -164l12 105q4 26 8.5 51.5t12.5 48.5q6 24 22 64q49 112 160 112q31 0 58.5 -11t48 -30t32 -46t11.5 -58t-11.5 -57t-31.5 -45t-47 -30t-58 -11
q-39 0 -80 22q-11 -26 -24 -67.5t-29 -98.5q-15 -57 -26 -102t-17 -80h-153v145q0 39 -9.5 100t-27.5 146q-11 48 -16 84t-5 64q0 122 96 206q106 91 277 91q83 0 151 -21t116.5 -59t75 -90.5t26.5 -116.5v-549zM500 469q0 59 -62 59q-61 0 -61 -59q0 -25 17.5 -42t43.5 -17
q25 0 43.5 18t18.5 41z" />
    <glyph glyph-name="uni0E05" unicode="&#xe05;" horiz-adv-x="895" 
d="M793 0h-160v590q0 24 -8 42t-21 30.5t-30.5 19t-36.5 6.5l-101 -61l-112 65q-24 -4 -44.5 -15.5t-36 -28t-24 -38t-8.5 -45.5q-2 -24 1 -65t7 -89.5t6.5 -100.5t1.5 -97l13 104q3 26 7.5 52t12.5 49q3 12 9 27.5t14 35.5q48 113 159 113q31 0 58.5 -11t48 -30.5t32 -46
t11.5 -57.5t-11.5 -57t-31.5 -45.5t-47 -30.5t-58 -11q-38 0 -79 23q-11 -23 -23.5 -62.5t-28.5 -93.5q-14 -54 -24 -97t-17 -75h-170v143q0 45 -6 98t-20 119q-25 128 -25 195q0 56 21 104t57.5 84t85 59t104.5 29l117 -71l117 71q106 -18 164 -67q76 -64 76 -170v-594z
M506 449q0 59 -62 59q-61 0 -61 -59q0 -25 17.5 -42.5t43.5 -17.5q25 0 43.5 18.5t18.5 41.5z" />
    <glyph glyph-name="uni0E06" unicode="&#xe06;" horiz-adv-x="958" 
d="M856 88q0 -88 -100 -88h-58q-18 37 -46.5 72.5t-64.5 66t-78 54.5t-87 38v-86q0 -32 -12.5 -59t-35.5 -47t-55 -31.5t-71 -11.5q-35 0 -67 8.5t-58 28.5q-66 51 -66 135q0 43 15 78.5t42 60.5t65 39t83 14v15q0 51 45 102q101 119 101 156q0 40 -27 67q-5 5 -14 11
l-68 -52l-94 58q-11 -5 -23 -18.5t-20 -24.5q60 0 95.5 -35.5t35.5 -89.5q0 -28 -11.5 -52.5t-31 -43t-45 -29t-53.5 -10.5q-67 0 -109.5 43t-42.5 118q0 42 15 82.5t41.5 74.5t61.5 60t75 39q64 -33 104 -65q15 10 31 21.5t30 21t24.5 16t14.5 6.5q37 0 84 -51
q62 -65 62 -141q0 -63 -37 -119q-42 -63 -63 -100t-21 -51v-19q69 -14 141.5 -49t132.5 -92v610h160v-731zM207 547q0 23 -16 39t-39 16t-39.5 -16t-16.5 -39t16.5 -39t39.5 -16t39 16t16 39zM262 143v109q-38 0 -64 -21.5t-26 -52.5q0 -78 53 -78q37 0 37 43z" />
    <glyph glyph-name="uni0E07" unicode="&#xe07;" horiz-adv-x="819" 
d="M717 137q0 -137 -152 -137h-284q-19 103 -48 200.5t-71 194.5q-90 206 -178 295l145 62q54 -63 101 -142t85 -176q29 -75 51.5 -152t36.5 -155h97q57 0 57 51v328l-16 -2q-34 0 -64.5 11.5t-53.5 32.5t-36.5 51.5t-13.5 68.5q0 36 13.5 66t37 51.5t54 33.5t65.5 12
q81 0 127.5 -46.5t46.5 -125.5v-522zM608 668q0 65 -65 65q-66 0 -66 -65q0 -66 66 -66q65 0 65 66z" />
    <glyph glyph-name="uni0E08" unicode="&#xe08;" horiz-adv-x="784" 
d="M723 565q0 -88 -92 -323q-26 -66 -43 -127t-23 -115h-174l-61 291q-36 -17 -68 -17q-34 0 -63.5 11.5t-51.5 31.5t-34.5 48t-12.5 61t12.5 61t34.5 48t51.5 31.5t63.5 11.5q72 0 118.5 -38.5t57.5 -107.5l19 -123q3 -18 5 -37t3 -37t1.5 -33.5t0.5 -25.5q4 15 4 27
q5 29 10.5 55t10.5 49q0 4 36 115q25 74 25 133q0 69 -50.5 110.5t-144.5 41.5q-153 0 -204 -123h-160q20 108 106 174q103 78 267 78q172 0 270 -80q86 -74 86 -191zM328 426q0 66 -66 66q-65 0 -65 -66t65 -66q66 0 66 66z" />
    <glyph glyph-name="uni0E09" unicode="&#xe09;" horiz-adv-x="883" 
d="M842 154q0 -34 -13.5 -62.5t-37.5 -49.5t-56 -32.5t-69 -11.5q-38 0 -70 11.5t-56 32.5t-37.5 49.5t-13.5 62.5v10q-21 -9 -46.5 -26.5t-51.5 -39.5t-50 -47.5t-42 -50.5h-137v256q-34 0 -63.5 10t-51.5 28.5t-34.5 45t-12.5 59.5q0 30 13 56t34.5 45t50 30t60.5 11
q37 0 67 -11.5t51.5 -32t33.5 -48.5t12 -62v-192q24 24 56.5 46t69.5 38.5t76 26t76 9.5v258q0 31 -14.5 56t-40 42.5t-61 26.5t-78.5 9q-82 0 -137.5 -28t-78.5 -97h-157q31 118 128 186t251 68q79 0 143.5 -19t110 -53t70 -82.5t24.5 -106.5v-280q82 -46 82 -141zM729 154
q0 26 -17 43.5t-46 17.5q-64 0 -64 -61q0 -29 16.5 -45.5t47.5 -16.5q63 0 63 62zM215 399q0 58 -59 58q-19 0 -33 -8q-27 -17 -27 -50q0 -24 17 -40.5t43 -16.5q18 0 32 8q27 13 27 49z" />
    <glyph glyph-name="uni0E0A" unicode="&#xe0a;" horiz-adv-x="872" 
d="M770 170q0 -94 -55 -132t-170 -38h-426v127h102v242q0 51 43 104q48 60 71 96.5t23 53.5q0 42 -29.5 69t-78.5 27h-15q-6 0 -12 -2q70 -34 70 -113q0 -30 -11 -55t-30 -43.5t-44.5 -28.5t-55.5 -10q-65 0 -105 37q-47 42 -47 119t63 137q39 35 87.5 53t111.5 18
q100 0 163 -47.5t75 -128.5q51 0 82.5 35.5t31.5 89.5q0 28 -4 39h160q2 -6 2 -13v-18q0 -31 -9 -60t-25 -53t-39.5 -42t-51.5 -27q28 -5 50.5 -19t38.5 -33.5t25 -42t9 -44.5v-297zM610 199v233q0 45 -28 76q-34 37 -99 37q-5 -8 -20 -30.5t-43 -59.5q-39 -51 -39 -101
v-227h133q54 0 75 14t21 58zM207 602q0 23 -16 39t-39 16t-39.5 -16t-16.5 -39t16.5 -39t39.5 -16t39 16t16 39z" />
    <glyph glyph-name="uni0E0B" unicode="&#xe0b;" horiz-adv-x="913" 
d="M811 170q0 -94 -55 -132t-170 -38h-426v127h102v246q0 57 45 108q101 119 101 152q0 40 -27 67q-5 5 -14 11l-68 -52l-94 58q-11 -5 -23 -18.5t-20 -24.5q60 0 95.5 -35.5t35.5 -89.5q0 -28 -11.5 -52.5t-31 -43t-45 -29t-53.5 -10.5q-67 0 -109.5 43t-42.5 118
q0 42 15 82.5t41.5 74.5t61.5 60t75 39q64 -33 104 -65q15 12 30.5 23t29.5 19.5t24.5 13.5t15.5 5q32 0 80 -45q60 -57 66 -127q27 0 48 10t35.5 27.5t22.5 40t8 47.5q0 21 -6 39h160q2 -6 2 -13v-18q0 -31 -9 -60t-25 -53t-39.5 -42t-51.5 -27q28 -5 50.5 -19t38.5 -33.5
t25 -42t9 -44.5v-297zM651 199v233q0 44 -30 76q-38 37 -101 37q-8 -14 -18.5 -32t-26.5 -38q-53 -71 -53 -119v-229h133q54 0 75 14t21 58zM207 547q0 23 -16 39t-39 16t-39.5 -16t-16.5 -39t16.5 -39t39.5 -16t39 16t16 39z" />
    <glyph glyph-name="uni0E0C" unicode="&#xe0c;" horiz-adv-x="1243" 
d="M1141 84q0 -84 -84 -84h-66q-15 22 -35.5 45.5t-42.5 44.5t-44.5 37t-41.5 23q0 -34 -13.5 -62.5t-37.5 -49.5t-56 -32.5t-69 -11.5t-69 11.5t-56 32.5t-37.5 50t-13.5 64q0 27 8.5 52.5t25 46.5t40.5 36t55 22v252q0 36 -14.5 63.5t-40 46.5t-61 28.5t-78.5 9.5
q-70 0 -117 -23t-66 -55q17 -5 38.5 -12t45.5 -15q8 -3 21 -7.5t30 -12.5v-52q-18 -4 -36 -16t-32.5 -28.5t-23 -37t-8.5 -42.5v-93l17 2q34 0 64 -11.5t53 -32.5t36.5 -51.5t13.5 -67.5t-13.5 -66.5t-36.5 -50.5t-54 -32t-66 -11q-81 0 -127.5 44.5t-46.5 123.5v252
q0 19 7.5 38t20.5 36t30 30.5t37 22.5q-83 33 -166 51q18 55 52.5 100t82.5 77t109 49.5t133 17.5q80 0 145.5 -17t112.5 -50.5t72.5 -83t25.5 -114.5v-264q60 -14 113 -41t104 -69v622h160v-735zM719 150q0 63 -68 63q-29 0 -48 -17t-19 -46q0 -26 19 -45t48 -19
q26 0 47 19t21 45zM342 154q0 65 -66 65q-65 0 -65 -65q0 -66 65 -66q66 0 66 66z" />
    <glyph glyph-name="uni0E0D" unicode="&#xe0d;" horiz-adv-x="1243" 
d="M1141 174q0 -48 -10.5 -81.5t-34.5 -54t-62.5 -29.5t-93.5 -9h-438v127h102v434q0 36 -14.5 63.5t-40 46.5t-61 28.5t-78.5 9.5q-70 0 -117 -23t-66 -55q17 -5 38.5 -12t45.5 -15q8 -3 21 -7.5t30 -12.5v-52q-18 -4 -36 -16t-32.5 -28.5t-23 -37t-8.5 -42.5v-93l17 2
q34 0 64 -11.5t53 -32.5t36.5 -51.5t13.5 -67.5t-13.5 -66.5t-36.5 -50.5t-54 -32t-66 -11q-81 0 -127.5 44.5t-46.5 123.5v252q0 19 7.5 38t20.5 36t30 30.5t37 22.5q-83 33 -166 51q18 55 52.5 100t82.5 77t109 49.5t133 17.5q80 0 145.5 -17t112.5 -50.5t72.5 -83
t25.5 -114.5v-444h121q53 0 74.5 11t21.5 52v629h160v-645zM1137 -57q0 -135 -115 -217q-54 -39 -117.5 -57.5t-138.5 -18.5q-129 0 -194.5 48t-65.5 130q0 28 12.5 53t34 44t49.5 29.5t60 10.5q34 0 62 -10t48 -28.5t31.5 -43.5t11.5 -55q0 -26 -10 -49q39 0 72.5 11.5
t58.5 32.5t39 51.5t14 68.5h148zM723 -172q0 20 -18.5 36.5t-42.5 16.5q-26 0 -44 -15t-18 -38t18.5 -39t43.5 -16q24 0 42.5 16t18.5 39zM342 154q0 65 -66 65q-65 0 -65 -65q0 -66 65 -66q66 0 66 66z" />
    <glyph glyph-name="uni0E0E" unicode="&#xe0e;" horiz-adv-x="942" 
d="M840 -277q0 -129 -150 -129h-69q-40 75 -93 119q-75 -112 -223 -112q-38 0 -70.5 10t-56.5 29t-37.5 44.5t-13.5 57.5q0 34 16.5 63.5t46 52t69 35.5t85.5 13q28 0 54.5 -3.5t52.5 -11.5v27q0 6 0.5 12t1.5 13h143q0 -39 -1.5 -63.5t-12.5 -49.5q58 -37 98 -90v821
q0 36 -14.5 63.5t-40 46.5t-61.5 28.5t-79 9.5q-69 0 -116 -23t-66 -55l84 -27q8 -3 21 -7.5t30 -12.5v-52q-18 -4 -36 -16t-32.5 -28.5t-23 -37t-8.5 -42.5v-246q0 -79 -45.5 -123.5t-120.5 -44.5q-33 0 -62.5 11t-51.5 32t-35 50.5t-13 66.5t12.5 67t34.5 51.5t51 33
t62 11.5h8v97q0 19 7.5 38t20.5 35.5t30 30.5t36 23q-78 33 -166 51q19 55 53.5 100t82.5 77t109 49.5t132 17.5q79 0 145 -17t113 -50.5t73 -83t26 -114.5v-848zM233 154q0 29 -16 47t-45 18q-61 0 -61 -65q0 -29 16 -47.5t45 -18.5q61 0 61 66zM420 -213q-19 8 -36 12
t-40 4q-35 0 -61.5 -15t-26.5 -44q0 -20 17 -31.5t40 -11.5q35 0 64.5 24.5t42.5 61.5z" />
    <glyph glyph-name="uni0E0F" unicode="&#xe0f;" horiz-adv-x="942" 
d="M840 -279q0 -127 -150 -127h-45l-74 78l-73 -78h-82l-39 54q-26 -25 -65.5 -40.5t-84.5 -15.5q-36 0 -67 10t-53.5 28t-35 43t-12.5 55t13 56.5t36.5 45.5t55 30t69.5 11q25 0 51.5 -5t45.5 -16q0 3 0.5 10t1.5 15.5t1 17.5t-1 15h135q0 -51 -5 -88.5t-16 -65.5l19 -22
l102 96l113 -96v829q0 36 -14.5 63.5t-40 46.5t-61.5 28.5t-79 9.5q-69 0 -116 -23t-66 -55l84 -27q8 -3 21 -7.5t30 -12.5v-52q-18 -4 -36 -16t-32.5 -28.5t-23 -37t-8.5 -42.5v-246q0 -79 -45.5 -123.5t-120.5 -44.5q-33 0 -62.5 11t-51.5 32t-35 50.5t-13 66.5t12.5 67
t34.5 51.5t51 33t62 11.5h8v97q0 19 7.5 38t20.5 35.5t30 30.5t36 23q-78 33 -166 51q19 55 53.5 100t82.5 77t109 49.5t132 17.5q79 0 145 -17t113 -50.5t73 -83t26 -114.5v-850zM233 154q0 29 -16 47t-45 18q-61 0 -61 -65q0 -29 16 -47.5t45 -18.5q61 0 61 66zM299 -262
q-28 37 -72 37q-20 0 -38.5 -12.5t-18.5 -32.5q0 -17 16.5 -27t34.5 -10q25 0 42 11t36 34z" />
    <glyph glyph-name="uni0E10" unicode="&#xe10;" horiz-adv-x="805" 
d="M795 750q-29 -38 -71.5 -56t-96.5 -18q-67 0 -181 31q-63 16 -106 16q-51 0 -83.5 -18.5t-43.5 -38.5h43q16 0 33.5 -0.5t38 -1.5t45 -4t55.5 -7q78 -11 132.5 -24.5t88.5 -32.5q84 -47 84 -135q0 -55 -104 -277q-26 -54 -38.5 -100t-12.5 -84h-170l-76 236
q-37 -17 -68 -17q-34 0 -63.5 11.5t-51.5 31.5t-34.5 48t-12.5 61t12.5 60.5t34.5 48t51.5 31.5t63.5 11q72 0 114 -36.5t62 -108.5l29 -92q8 -26 12 -54t6 -53q5 19 10 41.5t19 61.5q11 26 19.5 44.5t13.5 32.5q11 26 15.5 50.5t4.5 44.5q0 25 -23 44t-63.5 31.5
t-95.5 18.5t-119 6q-23 0 -59.5 1t-87.5 3t-81.5 3t-39.5 1q31 144 117.5 211.5t224.5 67.5q67 0 156 -19q89 -16 106 -16q65 0 98 35zM756 -297q0 -129 -131 -129h-66l-57 49l-58 -49h-75l-35 55q-29 -26 -60.5 -39.5t-76.5 -13.5q-31 0 -57.5 10t-46 27.5t-31 41.5
t-11.5 52q0 31 13 56.5t34.5 43.5t49.5 27.5t59 9.5q26 0 46.5 -5t45.5 -17q2 18 3 34.5t-1 30.5h115q0 -28 -0.5 -50t-2 -40.5t-5 -34t-9.5 -30.5l27 -41l78 65l82 -73h20q31 0 31 32v27h-12q-25 0 -46.5 8.5t-37.5 24t-25.5 36.5t-9.5 46q0 24 9.5 45.5t26 37t39.5 24.5
t50 9q57 0 91 -32t34 -86v-152zM330 371q0 65 -66 65q-65 0 -65 -65q0 -66 65 -66q66 0 66 66zM672 -141q0 41 -45 41q-41 0 -41 -41t41 -41q45 0 45 41zM268 -283q-30 31 -67 31q-20 0 -35.5 -11t-15.5 -28q0 -14 13 -23.5t32 -9.5q53 0 73 41z" />
    <glyph glyph-name="uni0E11" unicode="&#xe11;" horiz-adv-x="1053" 
d="M950 0h-159v647q0 47 -17 47q-4 0 -9.5 -6.5t-12 -17t-13 -23t-12.5 -24.5l-287 -623h-178v375q0 51 45 102q101 119 101 156q0 40 -27 67q-5 5 -14 11l-68 -52l-94 58q-11 -5 -23 -18.5t-20 -24.5q60 0 95.5 -35.5t35.5 -89.5q0 -28 -11.5 -52.5t-31 -43t-45 -29
t-53.5 -10.5q-67 0 -109.5 43t-42.5 118q0 42 15 82.5t41.5 74.5t61.5 60t75 39q64 -33 104 -65q15 10 31 21.5t30 21t24.5 16t14.5 6.5q37 0 84 -51q62 -65 62 -141q0 -63 -37 -119q-42 -63 -63 -100t-21 -51v-115l192 422q38 82 68 112q40 43 113 43q79 0 117 -38t38 -125
v-668zM207 547q0 23 -16 39t-39 16t-39.5 -16t-16.5 -39t16.5 -39t39.5 -16t39 16t16 39z" />
    <glyph glyph-name="uni0E12" unicode="&#xe12;" horiz-adv-x="1272" 
d="M1169 84q0 -84 -84 -84h-65q-15 22 -35.5 45.5t-43 44.5t-45 37t-40.5 23q0 -34 -13.5 -62.5t-37.5 -49.5t-56 -32.5t-69 -11.5t-69 11.5t-56 32.5t-37.5 50t-13.5 64q0 27 8.5 52.5t25 46.5t40.5 36t55 22v271q0 42 -22 70t-54 40l-117 -76l-135 78q-19 -6 -36 -19
t-30 -31t-20.5 -41t-7.5 -48q0 -56 12 -123q2 -5 7 -31t16 -75q5 -20 6.5 -40.5t1.5 -41.5q0 -14 -2 -32t-2 -26q6 13 22 33t27 33l55 59q-38 20 -63 55.5t-25 77.5q0 31 12.5 58.5t34.5 48.5t51 33t62 12q34 0 64 -11.5t51.5 -31t34 -46t12.5 -56.5q0 -40 -25 -80
q-8 -14 -18.5 -29t-24.5 -29q-18 -20 -33 -35.5t-26 -27.5q-20 -20 -37 -39.5t-31 -38.5q-32 -38 -53.5 -65.5t-32.5 -43.5q-15 -20 -25.5 -35t-15.5 -26h-164v145q0 45 -6 98t-20 119q-25 128 -25 195q0 108 84 191q77 71 184 83l113 -69l119 69q106 -21 166 -75
q76 -64 76 -174v-275q115 -27 217 -110v622h159v-735zM489 449q0 59 -61 59t-61 -59q0 -25 17.5 -42.5t43.5 -17.5q25 0 43 18.5t18 41.5zM748 150q0 63 -68 63q-29 0 -48.5 -17t-19.5 -46q0 -26 19.5 -45t48.5 -19q26 0 47 19t21 45z" />
    <glyph glyph-name="uni0E13" unicode="&#xe13;" horiz-adv-x="1286" 
d="M1247 154q0 -34 -14.5 -62.5t-39 -49.5t-57 -32.5t-69.5 -11.5q-36 0 -68.5 11t-57.5 30.5t-39.5 46t-14.5 57.5q-12 -6 -28.5 -20t-34.5 -33.5t-35.5 -42.5t-32.5 -47h-152v561q0 36 -14.5 63.5t-40 46.5t-61 28.5t-78.5 9.5q-70 0 -117 -23t-66 -55q17 -5 38.5 -12
t45.5 -15q8 -3 21 -7.5t30 -12.5v-52q-18 -4 -36 -16t-32.5 -28.5t-23 -37t-8.5 -42.5v-93l17 2q34 0 64 -11.5t53 -32.5t36.5 -51.5t13.5 -67.5t-13.5 -66.5t-36.5 -50.5t-54 -32t-66 -11q-81 0 -127.5 44.5t-46.5 123.5v252q0 19 7.5 38t20.5 36t30 30.5t37 22.5
q-83 33 -166 51q18 55 52.5 100t82.5 77t109 49.5t133 17.5q80 0 145.5 -17t112.5 -50.5t72.5 -83t25.5 -114.5v-372q21 21 49 40t60 34.5t65 26t63 13.5v506h160v-524q86 -53 86 -141zM1135 154q0 26 -19.5 44.5t-48.5 18.5q-27 0 -47.5 -18.5t-20.5 -44.5t19.5 -45
t48.5 -19q26 0 47 19t21 45zM342 154q0 65 -66 65q-65 0 -65 -65q0 -66 65 -66q66 0 66 66z" />
    <glyph glyph-name="uni0E14" unicode="&#xe14;" horiz-adv-x="895" 
d="M793 0h-160v559q0 69 -56.5 108.5t-156.5 39.5q-47 0 -85.5 -12t-66 -34.5t-42.5 -55.5t-15 -75q0 -66 18 -174q11 -54 16 -97t5 -75q20 35 49.5 74.5t60.5 71.5q-45 17 -69.5 52.5t-24.5 80.5q0 31 12.5 58.5t34.5 48t51 32.5t62 12q34 0 64 -11t51.5 -30.5t34 -46
t12.5 -57.5q0 -37 -25 -80q-17 -29 -44 -59.5t-58 -67.5q-23 -28 -40 -49t-28 -35q-51 -66 -80.5 -110.5t-42.5 -67.5h-161v139q0 68 -17 150q-41 202 -41 254q0 122 103 207q104 86 274 86q83 0 150.5 -19.5t115 -55t73.5 -85.5t26 -111v-565zM489 469q0 59 -61 59t-61 -59
q0 -25 17.5 -42t43.5 -17q25 0 43 18t18 41z" />
    <glyph glyph-name="uni0E15" unicode="&#xe15;" horiz-adv-x="895" 
d="M793 0h-160v580q0 42 -22 70t-54 40l-117 -76l-135 78q-19 -6 -36 -19t-30 -31t-20.5 -41t-7.5 -48q0 -56 12 -123q2 -5 7 -31t16 -75q5 -20 6.5 -40.5t1.5 -41.5q0 -14 -2 -32t-2 -26q6 13 22 33t27 33l55 59q-38 20 -63 55.5t-25 77.5q0 31 12.5 58.5t34.5 48.5t51 33
t62 12q34 0 64 -11.5t51.5 -31t34 -46t12.5 -56.5q0 -40 -25 -80q-8 -14 -18.5 -29t-24.5 -29q-18 -20 -33 -35.5t-26 -27.5q-20 -20 -37 -39.5t-31 -38.5q-32 -38 -53.5 -65.5t-32.5 -43.5q-15 -20 -25.5 -35t-15.5 -26h-164v145q0 45 -6 98t-20 119q-25 128 -25 195
q0 108 84 191q77 71 184 83l113 -69l119 69q106 -21 166 -75q76 -64 76 -174v-582zM489 449q0 59 -61 59t-61 -59q0 -25 17.5 -42.5t43.5 -17.5q25 0 43 18.5t18 41.5z" />
    <glyph glyph-name="uni0E16" unicode="&#xe16;" horiz-adv-x="866" 
d="M764 0h-160v561q0 36 -14.5 63.5t-40 46.5t-61 28.5t-78.5 9.5q-70 0 -117 -23t-66 -55q17 -5 38.5 -12t45.5 -15q8 -3 21 -7.5t30 -12.5v-52q-18 -4 -36 -16t-32.5 -28.5t-23 -37t-8.5 -42.5v-93l17 2q34 0 64 -11.5t53 -32.5t36.5 -51.5t13.5 -67.5t-13.5 -66.5
t-36.5 -50.5t-54 -32t-66 -11q-81 0 -127.5 44.5t-46.5 123.5v252q0 19 7.5 38t20.5 36t30 30.5t37 22.5q-83 33 -166 51q18 55 52.5 100t82.5 77t109 49.5t133 17.5q80 0 145.5 -17t112.5 -50.5t72.5 -83t25.5 -114.5v-571zM342 154q0 65 -66 65q-65 0 -65 -65
q0 -66 65 -66q66 0 66 66z" />
    <glyph glyph-name="uni0E17" unicode="&#xe17;" horiz-adv-x="934" 
d="M831 0h-159v635v27q0 10 -2 16q-3 18 -25 18q-17 0 -29 -17t-24 -52l-246 -627h-162v506l-16 -2q-34 0 -64.5 11.5t-53.5 32.5t-36.5 51.5t-13.5 68.5q0 36 13.5 66t37 51.5t54 33.5t65.5 12q81 0 127.5 -46.5t46.5 -125.5v-163q0 -57 -5 -120t-13 -126q6 23 10.5 42.5
t9.5 33.5q12 43 23 76.5t20 58.5l86 227q28 73 60 105q46 43 122 43q174 0 174 -193v-643zM236 668q0 65 -66 65t-66 -65q0 -66 66 -66t66 66z" />
    <glyph glyph-name="uni0E18" unicode="&#xe18;" horiz-adv-x="817" 
d="M776 737q-29 -35 -72 -58.5t-100 -23.5q-20 0 -58 7.5t-95 21.5q-29 8 -54 11t-47 3q-49 0 -83 -20t-48 -49q51 0 106.5 -3.5t118.5 -11.5q71 -9 120.5 -25t81 -40t45.5 -55.5t14 -71.5v-246q0 -97 -49 -136.5t-154 -39.5h-449v127h82v332h160v-332h154q53 0 74.5 12
t21.5 54v210q0 22 -19 41t-52 33t-78.5 21.5t-98.5 7.5h-55q-12 0 -22.5 0.5t-18.5 1.5q-88 5 -137.5 7.5t-63.5 2.5q31 151 116 232t216 81q29 0 64 -5.5t73 -16.5q79 -21 102 -21q62 0 97 39z" />
    <glyph glyph-name="uni0E19" unicode="&#xe19;" horiz-adv-x="926" 
d="M889 154q0 -36 -13.5 -64.5t-37.5 -49t-57 -31.5t-72 -11t-72.5 11t-57.5 31.5t-37.5 49t-13.5 64.5v16q-27 -9 -56 -27.5t-56.5 -41.5t-51.5 -49.5t-40 -51.5h-140v506l-16 -2q-34 0 -64.5 11.5t-53.5 32.5t-36.5 51.5t-13.5 68.5q0 36 13.5 66t37 51.5t54 33.5t65.5 12
q81 0 127.5 -46.5t46.5 -125.5v-458q28 24 63.5 45.5t74.5 37t80 24.5t81 9v502h160v-524q86 -50 86 -141zM772 154q0 26 -17 43.5t-46 17.5q-64 0 -64 -61q0 -29 16.5 -45.5t47.5 -16.5q63 0 63 62zM236 668q0 65 -66 65t-66 -65q0 -66 66 -66t66 66z" />
    <glyph glyph-name="uni0E1A" unicode="&#xe1a;" horiz-adv-x="918" 
d="M815 182q0 -97 -47 -139.5t-158 -42.5h-528v127h102v379l-16 -2q-34 0 -64.5 11.5t-53.5 32.5t-36.5 51.5t-13.5 68.5q0 36 13.5 66t37 51.5t54 33.5t65.5 12q81 0 127.5 -46.5t46.5 -125.5v-532h215q96 0 96 72v620h160v-637zM236 668q0 65 -66 65t-66 -65q0 -66 66 -66
t66 66z" />
    <glyph glyph-name="uni0E1B" unicode="&#xe1b;" horiz-adv-x="918" 
d="M815 182q0 -97 -47 -139.5t-158 -42.5h-528v127h102v379l-16 -2q-34 0 -64.5 11.5t-53.5 32.5t-36.5 51.5t-13.5 68.5q0 36 13.5 66t37 51.5t54 33.5t65.5 12q81 0 127.5 -46.5t46.5 -125.5v-532h215q96 0 96 72v927h160v-944zM236 668q0 65 -66 65t-66 -65q0 -66 66 -66
t66 66z" />
    <glyph glyph-name="uni0E1C" unicode="&#xe1c;" horiz-adv-x="926" 
d="M823 86q0 -50 -22 -68t-76 -18h-53l-209 326l-209 -326h-53q-54 0 -76.5 17.5t-22.5 68.5v573q0 79 46.5 125.5t127.5 46.5q35 0 66 -12t54 -33.5t36.5 -51.5t13.5 -66q0 -38 -13 -68t-36 -51.5t-53.5 -33t-64.5 -11.5l-17 2v-273l146 228h110l146 -228v586h159v-733z
M342 668q0 65 -66 65q-65 0 -65 -65q0 -66 65 -66q66 0 66 66z" />
    <glyph glyph-name="uni0E1D" unicode="&#xe1d;" horiz-adv-x="926" 
d="M823 86q0 -50 -22 -68t-76 -18h-53l-209 326l-209 -326h-53q-54 0 -76.5 17.5t-22.5 68.5v573q0 79 46.5 125.5t127.5 46.5q35 0 66 -12t54 -33.5t36.5 -51.5t13.5 -66q0 -38 -13 -68t-36 -51.5t-53.5 -33t-64.5 -11.5l-17 2v-273l146 228h110l146 -228v893h159v-1040z
M342 668q0 65 -66 65q-65 0 -65 -65q0 -66 65 -66q66 0 66 66z" />
    <glyph glyph-name="uni0E1E" unicode="&#xe1e;" horiz-adv-x="1055" 
d="M952 78q0 -45 -22.5 -61.5t-67.5 -16.5h-92l-205 614l-198 -614h-93q-45 0 -67.5 15t-22.5 63v428l-16 -2q-34 0 -64.5 11.5t-53.5 32.5t-36.5 51.5t-13.5 68.5q0 36 13.5 66t37 51.5t54 33.5t65.5 12q81 0 127.5 -46.5t46.5 -125.5v-165q0 -18 -1.5 -47t-3.5 -63.5
t-5 -72t-6 -71.5l18 79q21 87 33 123l119 377h133l127 -377q5 -14 13 -52t22 -101q2 -10 3.5 -22t6.5 -27q-1 10 -1.5 18.5t-0.5 16.5v28q-5 88 -6.5 134.5t-1.5 56.5v325h159v-741zM236 668q0 65 -66 65t-66 -65q0 -66 66 -66t66 66z" />
    <glyph glyph-name="uni0E1F" unicode="&#xe1f;" horiz-adv-x="1055" 
d="M952 78q0 -45 -22.5 -61.5t-67.5 -16.5h-92l-205 614l-198 -614h-93q-45 0 -67.5 15t-22.5 63v428l-16 -2q-34 0 -64.5 11.5t-53.5 32.5t-36.5 51.5t-13.5 68.5q0 36 13.5 66t37 51.5t54 33.5t65.5 12q81 0 127.5 -46.5t46.5 -125.5v-165q0 -18 -1.5 -47t-3.5 -63.5
t-5 -72t-6 -71.5l18 79q21 87 33 123l119 377h133l127 -377q5 -14 13 -52t22 -101q2 -10 3.5 -22t6.5 -27q-1 10 -1.5 18.5t-0.5 16.5v28q-5 88 -6.5 134.5t-1.5 56.5v632h159v-1048zM236 668q0 65 -66 65t-66 -65q0 -66 66 -66t66 66z" />
    <glyph glyph-name="uni0E20" unicode="&#xe20;" horiz-adv-x="942" 
d="M840 0h-160v561q0 36 -14.5 63.5t-40 46.5t-61.5 28.5t-79 9.5q-69 0 -116 -23t-66 -55l84 -27q8 -3 21 -7.5t30 -12.5v-52q-18 -4 -36 -16t-32.5 -28.5t-23 -37t-8.5 -42.5v-246q0 -79 -45.5 -123.5t-120.5 -44.5q-33 0 -62.5 11t-51.5 32t-35 50.5t-13 66.5t12.5 67
t34.5 51.5t51 33t62 11.5h8v97q0 19 7.5 38t20.5 35.5t30 30.5t36 23q-78 33 -166 51q19 55 53.5 100t82.5 77t109 49.5t132 17.5q79 0 145 -17t113 -50.5t73 -83t26 -114.5v-571zM233 154q0 29 -16 47t-45 18q-61 0 -61 -65q0 -29 16 -47.5t45 -18.5q61 0 61 66z" />
    <glyph glyph-name="uni0E21" unicode="&#xe21;" horiz-adv-x="911" 
d="M809 88q0 -88 -100 -88h-58q-18 37 -46.5 72.5t-64.5 66t-78 54.5t-87 38v-86q0 -32 -12.5 -59t-35.5 -47t-55 -31.5t-71 -11.5q-35 0 -67 8.5t-58 28.5q-66 51 -66 135q0 43 15 78.5t42 60.5t65 39t83 14v146l-16 -2q-34 0 -64.5 11.5t-53.5 32.5t-36.5 51.5t-13.5 68.5
q0 36 13.5 66t37 51.5t54 33.5t65.5 12q81 0 127.5 -46.5t46.5 -125.5v-309q69 -14 141.5 -49t132.5 -92v610h160v-731zM266 668q0 65 -65 65q-66 0 -66 -65q0 -66 66 -66q65 0 65 66zM215 143v109q-38 0 -64 -21.5t-26 -52.5q0 -78 53 -78q37 0 37 43z" />
    <glyph glyph-name="uni0E22" unicode="&#xe22;" horiz-adv-x="866" 
d="M764 172q0 -49 -11.5 -82t-37.5 -53t-68.5 -28.5t-103.5 -8.5h-441v276q0 54 31.5 91.5t79.5 50.5q-55 6 -88 39q-43 39 -43 108v105q0 36 12.5 65.5t35 51t54.5 33t72 11.5q34 0 64.5 -12t53.5 -32t36.5 -47t13.5 -58q0 -34 -13.5 -61.5t-36 -47t-52.5 -30.5t-64 -11
q0 -47 82 -47h111v-127h-99q-43 0 -66.5 -26t-23.5 -64v-141h254q51 0 69.5 10t18.5 45v637h160v-647zM322 682q0 23 -18.5 41t-47.5 18q-26 0 -46 -17t-20 -42q0 -23 18.5 -41t47.5 -18q26 0 46 17t20 42z" />
    <glyph glyph-name="uni0E23" unicode="&#xe23;" horiz-adv-x="739" 
d="M717 748q-29 -38 -74 -59t-96 -21q-23 0 -54 4.5t-71 15.5q-80 21 -123 21q-48 0 -74 -17.5t-37 -42.5q191 0 301 -49q138 -59 138 -184v-256q0 -79 -46.5 -123.5t-127.5 -44.5q-35 0 -66 11t-54 32t-36.5 50.5t-13.5 66.5t13 67t36 51.5t53.5 33t65.5 11.5l16 -2v90
q0 89 -156 119q-51 11 -128 16t-183 5q7 67 31 120t62.5 90.5t90 57.5t113.5 20q31 0 55.5 -1.5t44.5 -6.5q120 -24 121 -24q31 0 51.5 9t38.5 28zM518 152q0 65 -65 65q-66 0 -66 -65q0 -66 66 -66q65 0 65 66z" />
    <glyph glyph-name="uni0E24" unicode="&#xe24;" horiz-adv-x="866" 
d="M764 -303h-160v864q0 36 -14.5 63.5t-40 46.5t-61 28.5t-78.5 9.5q-70 0 -117 -23t-66 -55q17 -5 38.5 -12t45.5 -15q8 -3 21 -7.5t30 -12.5v-52q-18 -4 -36 -16t-32.5 -28.5t-23 -37t-8.5 -42.5v-93l17 2q34 0 64 -11.5t53 -32.5t36.5 -51.5t13.5 -67.5t-13.5 -66.5
t-36.5 -50.5t-54 -32t-66 -11q-81 0 -127.5 44.5t-46.5 123.5v252q0 19 7.5 38t20.5 36t30 30.5t37 22.5q-83 33 -166 51q18 55 52.5 100t82.5 77t109 49.5t133 17.5q80 0 145.5 -17t112.5 -50.5t72.5 -83t25.5 -114.5v-874zM342 154q0 65 -66 65q-65 0 -65 -65
q0 -66 65 -66q66 0 66 66z" />
    <glyph glyph-name="uni0E25" unicode="&#xe25;" horiz-adv-x="887" 
d="M784 0h-174l-200 373q-20 35 -31 45q-21 18 -60 18q-57 0 -57 -49v-74l17 2q34 0 64 -11.5t53 -32.5t36.5 -51.5t13.5 -67.5t-13.5 -66.5t-36.5 -50.5t-54 -32t-66 -11q-81 0 -127.5 44.5t-46.5 123.5v239q0 38 17 70t46.5 55t68 36t81.5 13q44 0 77.5 -6t59.5 -21
t46.5 -40t38.5 -62l45 -98q5 -9 14 -36t25 -72q3 -16 12 -35q-2 24 -3.5 51t-2.5 53t-1.5 50t-0.5 42v166q0 33 -15.5 59.5t-42 44.5t-62.5 28t-77 10q-81 0 -136.5 -27.5t-80.5 -93.5h-154q10 57 41 103.5t79.5 79t113 50t141.5 17.5t141.5 -19t111.5 -53t73 -82.5
t26 -106.5v-575zM342 152q0 65 -66 65q-65 0 -65 -65q0 -66 65 -66q66 0 66 66z" />
    <glyph glyph-name="uni0E26" unicode="&#xe26;" horiz-adv-x="932" 
d="M829 -303h-159v864q0 36 -14.5 63.5t-40 46.5t-61.5 28.5t-79 9.5q-69 0 -116.5 -23t-65.5 -55l84 -27q8 -3 21 -7.5t30 -12.5v-52q-18 -4 -36 -16t-32.5 -28.5t-23 -37t-8.5 -42.5v-246q0 -79 -45.5 -123.5t-120.5 -44.5q-33 0 -62.5 11t-51.5 32t-35 50.5t-13 66.5
t12.5 67t34.5 51.5t51 33t62 11.5h8v97q0 19 7.5 38t20.5 35.5t30 30.5t36 23q-78 33 -166 51q18 55 52.5 100t83 77t109.5 49.5t132 17.5q80 0 145.5 -17t112.5 -50.5t72.5 -83t25.5 -114.5v-874zM225 154q0 29 -16 47t-45 18q-62 0 -62 -65q0 -29 16.5 -47.5t45.5 -18.5
q61 0 61 66z" />
    <glyph glyph-name="uni0E27" unicode="&#xe27;" horiz-adv-x="745" 
d="M643 160q0 -79 -46.5 -123.5t-127.5 -44.5q-35 0 -65.5 11t-54 32t-37 50.5t-13.5 66.5t13.5 67t36 51.5t53 33t65.5 11.5l16 -2v254q0 140 -164 140q-156 0 -184 -144h-151q8 64 35.5 114.5t71 85.5t102 54t129.5 19t130 -18.5t101.5 -52.5t66 -82.5t23.5 -107.5v-415z
M535 152q0 65 -66 65t-66 -65q0 -66 66 -66t66 66z" />
    <glyph glyph-name="uni0E28" unicode="&#xe28;" horiz-adv-x="895" 
d="M834 901q0 -60 -32.5 -101.5t-86.5 -64.5q38 -37 58 -83t20 -103v-549h-160v547q0 72 -52.5 116t-158.5 44q-47 0 -86 -11t-66.5 -32t-43 -50.5t-15.5 -66.5q0 -26 1 -64t3 -86q6 -95 6 -164l12 105q4 26 8.5 51.5t12.5 48.5q6 24 22 64q49 112 160 112q31 0 58.5 -11
t48 -30t32 -46t11.5 -58t-11.5 -57t-31.5 -45t-47 -30t-58 -11q-39 0 -80 22q-11 -26 -24 -67.5t-29 -98.5q-15 -57 -26 -102t-17 -80h-153v145q0 39 -9.5 100t-27.5 146q-11 48 -16 84t-5 64q0 122 96 206q106 91 277 91q48 0 90.5 -6.5t71.5 -6.5q31 0 54.5 23.5
t23.5 54.5h170zM500 469q0 59 -62 59q-61 0 -61 -59q0 -25 17.5 -42t43.5 -17q25 0 43.5 18t18.5 41z" />
    <glyph glyph-name="uni0E29" unicode="&#xe29;" horiz-adv-x="938" 
d="M926 496q-11 -13 -20 -22l-17 -17q-19 -17 -37 -32t-37 -26v-217q0 -97 -47 -139.5t-158 -42.5h-528v127h102v379l-16 -2q-34 0 -64.5 11.5t-53.5 32.5t-36.5 51.5t-13.5 68.5q0 36 13.5 66t37 51.5t54 33.5t65.5 12q81 0 127.5 -46.5t46.5 -125.5v-532h215q96 0 96 72
v129q-65 -17 -110 -17q-36 0 -66.5 10.5t-52.5 29t-34.5 44.5t-12.5 58q0 27 11 50.5t29.5 41.5t43.5 28.5t53 10.5q30 0 55.5 -10t44 -28t29 -42.5t10.5 -52.5v368h160v-284l35 32zM571 455q0 20 -16 36.5t-39 16.5t-38 -15t-15 -38q0 -54 53 -54q23 0 39 14.5t16 39.5z
M236 668q0 65 -66 65t-66 -65q0 -66 66 -66t66 66z" />
    <glyph glyph-name="uni0E2A" unicode="&#xe2a;" horiz-adv-x="887" 
d="M838 901q0 -60 -32.5 -101.5t-86.5 -64.5q65 -71 65 -160v-575h-174l-200 373q-20 35 -31 45q-21 18 -60 18q-57 0 -57 -49v-74l17 2q34 0 64 -11.5t53 -32.5t36.5 -51.5t13.5 -67.5t-13.5 -66.5t-36.5 -50.5t-54 -32t-66 -11q-81 0 -127.5 44.5t-46.5 123.5v239
q0 38 17 70t46.5 55t68 36t81.5 13q44 0 77.5 -6t59.5 -21t46.5 -40t38.5 -62l45 -98q5 -9 14 -36t25 -72q3 -16 12 -35q-2 24 -3.5 51t-2.5 53t-1.5 50t-0.5 42v166q0 33 -15.5 59.5t-42 44.5t-62.5 28t-77 10q-81 0 -136.5 -27.5t-80.5 -93.5h-154q10 57 41 103.5t79.5 79
t113 50t141.5 17.5q19 0 40.5 -2t43 -4.5t40.5 -4.5t34 -2q31 0 54.5 23.5t23.5 54.5h170zM342 152q0 65 -66 65q-65 0 -65 -65q0 -66 65 -66q66 0 66 66z" />
    <glyph glyph-name="uni0E2B" unicode="&#xe2b;" horiz-adv-x="934" 
d="M860 672q0 -85 -65 -127q18 -14 27 -34t9 -34v-477h-159v467q0 15 -8 25l-9 8q-89 -52 -192 -232q-45 -78 -74 -144.5t-45 -123.5h-160v506l-16 -2q-34 0 -64.5 11.5t-53.5 32.5t-36.5 51.5t-13.5 68.5q0 36 13.5 66t37 51.5t54 33.5t65.5 12q81 0 127.5 -46.5
t46.5 -125.5v-208q0 -51 -5 -106.5t-13 -106.5q9 45 29 90t51 96q32 49 67.5 85.5t75.5 59.5q-19 19 -30 43.5t-11 59.5q0 31 13.5 60t37 51t55.5 35t70 13q37 0 69.5 -12t56 -33.5t37 -50.5t13.5 -63zM752 672q0 26 -19.5 44.5t-48.5 18.5q-26 0 -47 -18.5t-21 -44.5
t19.5 -45t48.5 -19q26 0 47 19t21 45zM236 668q0 65 -66 65t-66 -65q0 -66 66 -66t66 66z" />
    <glyph glyph-name="uni0E2C" unicode="&#xe2c;" horiz-adv-x="1065" 
d="M1028 874q-18 -33 -43 -61q-15 -18 -49 -49q8 -17 12 -39.5t4 -36.5v-610q0 -45 -22.5 -61.5t-67.5 -16.5h-92l-205 446l-198 -446h-93q-45 0 -67.5 15t-22.5 63v428l-16 -2q-34 0 -64.5 11.5t-53.5 32.5t-36.5 51.5t-13.5 68.5q0 36 13.5 66t37 51.5t54 33.5t65.5 12
q81 0 127.5 -46.5t46.5 -125.5v-284q0 -45 -4 -93t-10 -96q6 17 10.5 31t7.5 25q11 32 20 56.5t17 41.5l113 254h133l121 -254q8 -17 16.5 -41t17.5 -55q4 -11 7 -25t8 -33q-2 22 -3.5 47.5t-2.5 51t-1.5 49t-0.5 41.5v293q-32 -13 -70.5 -20t-87.5 -7q-44 0 -82.5 9
t-67.5 26.5t-46 43t-17 58.5q0 31 16.5 57t46.5 45.5t71 30.5t91 11q68 0 118 -16t99 -48l45 57zM770 778q-46 49 -121 49q-45 0 -72.5 -15t-27.5 -34q0 -20 28.5 -31.5t65.5 -11.5q38 0 67 12.5t60 30.5zM236 668q0 65 -66 65t-66 -65q0 -66 66 -66t66 66z" />
    <glyph glyph-name="uni0E2D" unicode="&#xe2d;" horiz-adv-x="887" 
d="M784 174q0 -104 -65 -143q-52 -31 -166 -31h-451v389q0 79 46.5 125.5t127.5 46.5q35 0 66 -12t54 -33.5t36.5 -52t13.5 -66.5q0 -37 -13 -67t-36 -51.5t-53.5 -33.5t-64.5 -12l-17 3v-109h264q54 0 76.5 12.5t22.5 57.5v368q0 33 -15.5 59.5t-42 44.5t-62.5 28t-77 10
q-81 0 -136.5 -27.5t-80.5 -93.5h-154q10 57 41 103.5t79.5 79t113 50t141.5 17.5t141.5 -19t111.5 -53t73 -82.5t26 -106.5v-401zM342 397q0 66 -66 66q-65 0 -65 -66q0 -65 65 -65q66 0 66 65z" />
    <glyph glyph-name="uni0E2E" unicode="&#xe2e;" horiz-adv-x="887" 
d="M852 778q-25 -38 -48 -66t-40 -42q8 -14 14 -35t6 -47v-414q0 -104 -65 -143q-52 -31 -166 -31h-451v334q0 78 47 125t127 47q35 0 66 -12t54 -34t36.5 -52t13.5 -66q0 -37 -13 -67t-36 -51.5t-53.5 -33.5t-64.5 -12l-17 2v-53h264q54 0 76.5 12.5t22.5 57.5v378
q-19 -9 -44 -18t-53.5 -16.5t-59 -13.5t-60.5 -9q-122 0 -207 29q-105 36 -105 108q0 77 92 125q48 26 101.5 38.5t116.5 12.5q151 0 251 -55l60 74zM555 686q-29 17 -65 24t-84 7q-28 0 -54 -4t-46 -11.5t-32 -18.5t-12 -26q0 -17 21 -23.5t59 -6.5h31q13 2 31.5 3.5t42 7
t50.5 16.5t58 32zM342 342q0 66 -66 66q-65 0 -65 -66t65 -66q66 0 66 66z" />
    <glyph glyph-name="uni0E2F" unicode="&#xe2f;" horiz-adv-x="825" 
d="M723 0h-160v580q-48 -39 -120.5 -67t-163.5 -28q-52 0 -96 14t-76 39t-50 60.5t-18 77.5q0 31 13.5 59.5t37 50.5t55.5 35t70 13q39 0 71 -12t55 -33t35.5 -50t12.5 -63q0 -14 -1.5 -26.5t-6.5 -24.5q151 39 184 194h68q90 0 90 -78v-741zM279 676q0 26 -17.5 43.5
t-46.5 17.5q-63 0 -63 -61q0 -29 16 -45.5t47 -16.5q64 0 64 62z" />
    <glyph glyph-name="uni0E30" unicode="&#xe30;" horiz-adv-x="705" 
d="M653 819q0 -163 -102 -254q-48 -40 -104 -60t-125 -20q-62 0 -112.5 13t-85.5 37t-54 58.5t-19 78.5q0 30 12.5 56.5t34.5 46t51.5 31t63.5 11.5q33 0 62.5 -11t51.5 -31t35 -47t13 -58q0 -25 -10 -52q66 13 104.5 63t38.5 138h145zM653 334q0 -164 -102 -254
q-48 -40 -104 -60t-125 -20q-62 0 -112.5 12.5t-85.5 36.5t-54 58.5t-19 78.5q0 30 12.5 56.5t34.5 46.5t51.5 31.5t63.5 11.5q33 0 62.5 -11.5t51.5 -31t35 -47t13 -58.5q0 -24 -10 -51q66 13 104.5 63t38.5 138h145zM272 672q0 25 -16.5 41t-42.5 16q-25 0 -42 -17
t-17 -40q0 -25 16.5 -41.5t42.5 -16.5q25 0 42 17.5t17 40.5zM272 186q0 25 -16.5 41.5t-42.5 16.5q-25 0 -42 -17.5t-17 -40.5q0 -24 16.5 -40.5t42.5 -16.5q25 0 42 17t17 40z" />
    <glyph glyph-name="uni0E31" unicode="&#xe31;" 
d="M141 1255q0 -157 -121 -245q-99 -78 -251 -78q-59 0 -109.5 12t-87.5 35t-58.5 57t-21.5 78q0 30 11.5 55.5t32.5 44t49 29t61 10.5q34 0 62 -11t48 -30t31.5 -45t11.5 -57q0 -35 -16 -63q95 0 158 51q67 57 67 157h133zM-299 1112q0 23 -16 39t-39 16t-39.5 -16
t-16.5 -39t16.5 -39t39.5 -16t39 16t16 39z" />
    <glyph glyph-name="uni0E32" unicode="&#xe32;" horiz-adv-x="727" 
d="M625 0h-160v573q0 63 -41 98.5t-117 35.5q-31 0 -59 -9t-50.5 -25t-38.5 -39t-22 -50h-153q8 58 34 104.5t68 79.5t99.5 50.5t127.5 17.5q71 0 128.5 -17.5t98.5 -51t63 -82t22 -110.5v-575z" />
    <glyph glyph-name="uni0E33" unicode="&#xe33;" horiz-adv-x="727" 
d="M-4 1114q0 -36 -13.5 -67.5t-36.5 -54.5t-54.5 -36.5t-67.5 -13.5t-67.5 13.5t-54.5 36.5t-36.5 54.5t-13.5 67.5t13.5 67.5t36.5 54.5t54.5 36.5t67.5 13.5t67.5 -13.5t54.5 -36.5t36.5 -54.5t13.5 -67.5zM625 0h-160v573q0 63 -41 98.5t-117 35.5q-31 0 -59 -9
t-50.5 -25t-38.5 -39t-22 -50h-153q8 58 34 104.5t68 79.5t99.5 50.5t127.5 17.5q71 0 128.5 -17.5t98.5 -51t63 -82t22 -110.5v-575zM-104 1114q0 31 -20.5 51.5t-51.5 20.5t-51.5 -20.5t-20.5 -51.5t20.5 -51.5t51.5 -20.5t51.5 20.5t20.5 51.5z" />
    <glyph glyph-name="uni0E34" unicode="&#xe34;" 
d="M-92 922q-117 20 -246 27t-276 7h-209q13 64 42.5 114t73 85t99.5 53.5t121 18.5q162 0 263 -77.5t132 -227.5zM-248 1028q-31 48 -93.5 75t-137.5 27q-63 0 -113.5 -19t-81.5 -64q58 6 80 6q5 1 11 1.5t14 0.5h39q58 0 128 -6.5t154 -20.5z" />
    <glyph glyph-name="uni0E35" unicode="&#xe35;" 
d="M-98 922q-117 20 -246 27t-277 7h-208q13 64 42.5 114t73 85t99 53.5t120.5 18.5q138 0 236 -62v129h160v-372zM-254 1028q-31 48 -93.5 75t-137.5 27q-63 0 -113.5 -19t-81.5 -64q58 6 80 6q5 1 11 1.5t14 0.5h38q60 0 129 -6.5t154 -20.5z" />
    <glyph glyph-name="uni0E36" unicode="&#xe36;" 
d="M-29 1157q0 -22 -8 -44t-22 -40.5t-33 -31.5t-41 -17q3 -6 7.5 -16.5t9.5 -24.5t10 -30t8 -31q-117 20 -246 27t-277 7h-208q13 64 42.5 114t73 85t99 53.5t120.5 18.5q48 0 90 -7.5t80 -21.5q31 102 146 102q31 0 58.5 -11t47.5 -30t31.5 -45t11.5 -57zM-123 1157
q0 20 -16 36.5t-39 16.5t-39.5 -14t-16.5 -39q0 -20 16.5 -36.5t39.5 -16.5t39 14t16 39zM-254 1028q-31 48 -93.5 75t-137.5 27q-63 0 -113.5 -19t-81.5 -64q58 6 80 6q5 1 11 1.5t14 0.5h38q60 0 129 -6.5t154 -20.5z" />
    <glyph glyph-name="uni0E37" unicode="&#xe37;" 
d="M-98 922q-117 20 -246 27t-277 7h-208q13 64 42.5 114t73 85t99 53.5t120.5 18.5l68 -4v71h106v-98q34 -12 62 -31v129h160v-372zM-254 1028q-31 48 -93.5 75t-137.5 27q-63 0 -113.5 -19t-81.5 -64q58 6 80 6q5 1 11 1.5t14 0.5h38q60 0 129 -6.5t154 -20.5z" />
    <glyph glyph-name="uni0E38" unicode="&#xe38;" 
d="M-98 -479h-160v125q-31 0 -59 9.5t-49 27.5t-33.5 44t-12.5 60q0 31 12 58t33 46t49 30t60 11q34 0 63.5 -11.5t51 -31.5t33.5 -49t12 -63v-256zM-199 -213q0 25 -17 42t-42 17t-42 -17t-17 -42t17 -42t42 -17t42 17t17 42z" />
    <glyph glyph-name="uni0E39" unicode="&#xe39;" 
d="M-98 -354q0 -63 -36.5 -90t-99.5 -27h-225v129l-35 -4q-25 0 -50 9.5t-44.5 27.5t-32 43t-12.5 57q0 31 12 56.5t32 44.5t46 29.5t53 10.5q31 0 58.5 -10.5t48 -30.5t32 -48t11.5 -62v-154h53q29 0 29 29v276h160v-286zM-430 -207q0 25 -17.5 42t-42.5 17
q-24 0 -41.5 -17t-17.5 -42t17.5 -42t41.5 -17q25 0 42.5 17t17.5 42z" />
    <glyph glyph-name="uni0E3A" unicode="&#xe3a;" 
d="M-70 -176q0 -23 -8.5 -42.5t-23.5 -34.5t-34.5 -23.5t-41.5 -8.5q-23 0 -42.5 8.5t-34.5 23.5t-23.5 34.5t-8.5 42.5q0 22 8.5 41.5t23.5 34.5t34.5 23.5t42.5 8.5q22 0 41.5 -8.5t34.5 -23.5t23.5 -34.5t8.5 -41.5z" />
    <glyph glyph-name="uni0E3F" unicode="&#xe3f;" horiz-adv-x="952" 
d="M901 268q0 -120 -82 -190q-93 -78 -272 -78h-41v-125h-57v125h-347v965h347v129h57v-129h65q139 0 213 -58.5t74 -181.5q0 -143 -137 -205q180 -47 180 -252zM690 694q0 69 -35.5 101t-107.5 32h-41v-266h41q143 0 143 133zM449 561v266h-177v-266h177zM733 291
q0 147 -162 147h-65v-301h65q79 0 120.5 39.5t41.5 114.5zM449 137v301h-177v-301h177z" />
    <glyph glyph-name="uni0E40" unicode="&#xe40;" horiz-adv-x="487" 
d="M467 154q0 -37 -13.5 -66.5t-37 -50.5t-54.5 -32t-65 -11q-81 0 -127.5 44.5t-46.5 123.5v657h160v-504l16 2q34 0 64.5 -11.5t53.5 -32.5t36.5 -51.5t13.5 -67.5zM362 154q0 65 -65 65q-66 0 -66 -65q0 -66 66 -66q65 0 65 66z" />
    <glyph glyph-name="uni0E41" unicode="&#xe41;" horiz-adv-x="893" 
d="M872 154q0 -37 -13.5 -66.5t-36.5 -50.5t-54 -32t-66 -11q-81 0 -127.5 44.5t-46.5 123.5v657h160v-504l17 2q34 0 64 -11.5t53 -32.5t36.5 -51.5t13.5 -67.5zM467 154q0 -37 -13.5 -66.5t-37 -50.5t-54.5 -32t-65 -11q-81 0 -127.5 44.5t-46.5 123.5v657h160v-504l16 2
q34 0 64.5 -11.5t53.5 -32.5t36.5 -51.5t13.5 -67.5zM768 154q0 65 -66 65q-65 0 -65 -65q0 -66 65 -66q66 0 66 66zM362 154q0 65 -65 65q-66 0 -66 -65q0 -66 66 -66q65 0 65 66z" />
    <glyph glyph-name="uni0E42" unicode="&#xe42;" horiz-adv-x="528" 
d="M571 1257q-15 -17 -29 -28t-26 -19q-46 -26 -102 -26q-49 0 -121 22q-77 23 -115 23q-35 0 -60.5 -11.5t-33.5 -25.5q68 -9 114 -25t74 -41.5t40 -61t12 -83.5v-666l16 2q34 0 64.5 -11.5t53.5 -32.5t36.5 -51.5t13.5 -67.5t-13.5 -66.5t-37 -50.5t-54.5 -32t-65 -11
q-81 0 -127.5 44.5t-46.5 123.5v813q0 69 -98 102q-71 25 -193 25q26 120 101.5 185t189.5 65q50 0 125 -23q72 -22 102 -22q37 0 59.5 11t34.5 28zM403 154q0 65 -65 65q-66 0 -66 -65q0 -66 66 -66q65 0 65 66z" />
    <glyph glyph-name="uni0E43" unicode="&#xe43;" horiz-adv-x="528" 
d="M508 154q0 -37 -13.5 -66.5t-37 -50.5t-54.5 -32t-65 -11q-81 0 -127.5 44.5t-46.5 123.5v758q0 54 55 124t55 117q0 22 -10 41.5t-27.5 34t-42.5 23t-55 8.5q-15 0 -30.5 -1.5t-30.5 -6.5q24 -7 42 -21t30.5 -32.5t19 -40t6.5 -42.5q0 -30 -12 -56t-32 -45.5t-48 -30.5
t-59 -11q-65 0 -111 43q-53 50 -53 129q0 97 80 168q76 72 204 72q64 0 116.5 -17t90.5 -47t59 -72t21 -92q0 -67 -55 -143q-53 -77 -53 -143v-564l16 2q34 0 64.5 -11.5t53.5 -32.5t36.5 -51.5t13.5 -67.5zM84 1128q0 25 -16.5 41.5t-42.5 16.5q-25 0 -39.5 -16.5
t-14.5 -41.5q0 -57 54 -57q18 0 32 8q27 16 27 49zM403 154q0 65 -65 65q-66 0 -66 -65q0 -66 66 -66q65 0 65 66z" />
    <glyph glyph-name="uni0E44" unicode="&#xe44;" horiz-adv-x="528" 
d="M508 154q0 -37 -13.5 -66.5t-37 -50.5t-54.5 -32t-65 -11q-81 0 -127.5 44.5t-46.5 123.5v848q0 50 37 96q14 17 31.5 32t37.5 29q-8 11 -28 25t-37 16l-137 -123q-37 42 -68 66q-91 71 -219 98l127 107q57 -19 100 -51.5t66 -63.5l112 94q89 0 160 -47q80 -56 80 -139
q-21 -9 -39.5 -24t-32.5 -34t-22 -40.5t-8 -42.5v-693l16 2q34 0 64.5 -11.5t53.5 -32.5t36.5 -51.5t13.5 -67.5zM403 154q0 65 -65 65q-66 0 -66 -65q0 -66 66 -66q65 0 65 66z" />
    <glyph glyph-name="uni0E45" unicode="&#xe45;" horiz-adv-x="727" 
d="M625 -303h-160v876q0 63 -41 98.5t-117 35.5q-31 0 -59 -9t-50.5 -25t-38.5 -39t-22 -50h-153q8 58 34 104.5t68 79.5t99.5 50.5t127.5 17.5q71 0 128.5 -17.5t98.5 -51t63 -82t22 -110.5v-878z" />
    <glyph glyph-name="uni0E46" unicode="&#xe46;" horiz-adv-x="827" 
d="M725 -303h-160v905q0 72 -57 90l-107 -74l-122 80q-23 -5 -42.5 -21.5t-25.5 -35.5q31 0 59 -10t49 -28t33.5 -44t12.5 -57q0 -32 -12.5 -57.5t-33.5 -44t-49 -28.5t-59 -10q-67 0 -113 46q-57 52 -57 155q0 51 18.5 97t51.5 82t79.5 60.5t102.5 33.5l104 -72l111 70
q97 -23 149 -72q34 -32 51 -75.5t17 -100.5v-889zM266 508q0 23 -16 39t-39 16t-39 -16t-16 -39q0 -20 16 -36.5t39 -16.5t39 14t16 39z" />
    <glyph glyph-name="uni0E47" unicode="&#xe47;" 
d="M-96 1356q0 -44 -17.5 -76.5t-47.5 -54.5t-71 -32.5t-88 -10.5l-190 8q-38 0 -64 -24t-26 -56q0 -31 19.5 -50.5t43.5 -19.5l113 101q19 -23 36.5 -38t37.5 -26q22 82 114 82q25 0 46.5 -8.5t37.5 -24t25.5 -36.5t9.5 -46q0 -27 -10 -49t-27 -38.5t-41.5 -25.5t-52.5 -9
q-49 0 -94.5 20.5t-83.5 65.5l-82 -78h-53q-28 0 -55 13t-48 36t-34 54.5t-13 68.5q0 84 50 136t153 52l184 -6q51 0 72 10q35 17 35 62h121zM-193 1042q0 41 -43 41t-43 -41q0 -43 43 -43t43 43z" />
    <glyph glyph-name="uni0E48" unicode="&#xe48;" 
d="M-98 1356h-160v225h160v-225z" />
    <glyph glyph-name="uni0E49" unicode="&#xe49;" 
d="M90 1618q-27 -125 -139 -195q-134 -77 -363 -77v71q72 15 97 43q-36 8 -60 39t-24 70q0 24 9 45t25.5 37t39.5 25.5t51 9.5q27 0 50.5 -8.5t41 -24t27.5 -38t10 -50.5q0 -12 -3 -26.5t-8.5 -28t-12 -25.5t-13.5 -21q31 7 58 26.5t48 46t34.5 56.5t16.5 58zM-225 1569
q0 47 -49 47q-52 0 -52 -47q0 -19 16 -32t36 -13q49 0 49 45z" />
    <glyph glyph-name="uni0E4A" unicode="&#xe4a;" 
d="M147 1679q0 -119 -61 -213q-52 -78 -121 -123l-90 27q37 70 37 127q0 20 -9 37.5t-28 17.5q-14 0 -29 -10.5t-20 -36.5h-49q-5 20 -26.5 35.5t-47.5 15.5q-36 0 -49 -22q43 0 71.5 -26.5t28.5 -69.5q0 -23 -9 -41.5t-23 -31.5t-32.5 -20.5t-37.5 -7.5q-42 0 -74 29
q-43 40 -43 115q0 39 12.5 71t34 55t51 35.5t64.5 12.5t59.5 -11t42.5 -34q13 17 37.5 30t56.5 13q60 0 88.5 -34.5t28.5 -94.5q6 10 12.5 29t12 42.5t9 48.5t3.5 48zM-307 1438q0 39 -39 39t-39 -39t39 -39t39 39z" />
    <glyph glyph-name="uni0E4B" unicode="&#xe4b;" 
d="M8 1466h-115v-110h-143v110h-119v97h119v110h143v-110h115v-97z" />
    <glyph glyph-name="uni0E4C" unicode="&#xe4c;" 
d="M-16 1583q-11 -43 -43.5 -70.5t-81.5 -35.5l-33 -4q31 -32 31 -78q0 -25 -10 -46.5t-26.5 -37t-38.5 -24.5t-46 -9q-27 0 -51 9t-42.5 26.5t-29 41.5t-10.5 54q0 28 10 52.5t29 43.5t44.5 31.5t57.5 15.5q32 5 51 8.5t27 6.5q40 16 51 51zM-215 1393q0 49 -49 49t-49 -49
q0 -50 49 -50t49 50z" />
    <glyph glyph-name="uni0E4D" unicode="&#xe4d;" 
d="M-6 1114q0 -36 -13.5 -67.5t-36.5 -54.5t-54.5 -36.5t-67.5 -13.5t-67.5 13.5t-54.5 36.5t-36.5 54.5t-13.5 67.5t13.5 67.5t36.5 54.5t54.5 36.5t67.5 13.5t67.5 -13.5t54.5 -36.5t36.5 -54.5t13.5 -67.5zM-107 1114q0 31 -20 51.5t-51 20.5t-51.5 -20.5t-20.5 -51.5
t20.5 -51.5t51.5 -20.5t51 20.5t20 51.5z" />
    <glyph glyph-name="uni0E4E" unicode="&#xe4e;" 
d="M40 1344q-23 2 -55.5 0.5t-66 -6.5t-66.5 -12t-57.5 -16t-38 -19t-9.5 -21q0 -23 28 -31t70 -8h19h4v-94h-12h-17h-8q-2 0 -8 2q-21 0 -37.5 -0.5t-31 -3t-29.5 -6t-33 -9.5q-37 -11 -59.5 -29t-16.5 -38q6 -17 41 -17q13 0 29.5 2.5t33 8t32.5 12.5t28 16l53 -90
q-17 -8 -30.5 -13.5t-24.5 -10.5q-34 -14 -65 -20.5t-60 -6.5q-6 2 -9 2h-7h-11q-63 8 -99 38t-36 75q0 33 16 59.5t40 46t51.5 31.5t50.5 16q-29 26 -29 68q0 19 10.5 40.5t28.5 41.5t41.5 36.5t50.5 26.5q25 10 57.5 17t68 11t71 5.5t67.5 1.5h23h2v-106v0z" />
    <glyph glyph-name="uni0E4F" unicode="&#xe4f;" horiz-adv-x="1004" 
d="M922 410q0 -174 -123 -297q-125 -119 -297 -119t-297 119q-123 123 -123 297t123 297q125 122 297 122t297 -122q123 -123 123 -297zM860 410q0 147 -106 252q-105 106 -252 106q-148 0 -254 -106q-105 -105 -105 -252q0 -148 105 -254q106 -105 254 -105q147 0 252 105
q106 106 106 254zM758 410q0 -107 -76 -183q-73 -73 -180 -73t-183 73q-73 76 -73 183t73 180q76 76 183 76t180 -76q76 -73 76 -180z" />
    <glyph glyph-name="uni0E50" unicode="&#xe50;" horiz-adv-x="811" 
d="M760 307q0 -136 -98 -225q-97 -88 -256 -88q-158 0 -256 88q-99 88 -99 225q0 68 25 126.5t71.5 101t112 66.5t146.5 24q155 0 256 -90q98 -90 98 -228zM608 307q0 42 -16 77t-43 60t-64 38.5t-79 13.5t-79 -13.5t-64.5 -38.5t-43.5 -60t-16 -77t16 -77t43.5 -60
t64.5 -39t79 -14t79 13.5t64 38.5t43 60t16 78z" />
    <glyph glyph-name="uni0E51" unicode="&#xe51;" horiz-adv-x="879" 
d="M827 307q0 -123 -64.5 -214.5t-182.5 -166.5l-127 60q52 26 93 62t69 77.5t42.5 85.5t14.5 86q0 47 -17 86t-47.5 66.5t-73 43t-94.5 15.5q-48 0 -90.5 -15.5t-74 -43t-50 -65t-18.5 -81.5q0 -57 22 -100q8 -17 18.5 -28t22.5 -19l-2 30q0 28 11 53.5t30.5 44t46 29.5
t56.5 11q31 0 58.5 -10.5t47.5 -29t31.5 -45t11.5 -57.5q0 -37 -16.5 -70t-45.5 -58t-69 -39.5t-86 -14.5q-108 0 -192 72q-101 89 -101 231q0 149 113 244q112 94 276 94q89 0 160.5 -24.5t122 -68.5t77.5 -105.5t27 -135.5zM471 182q0 23 -16.5 39.5t-40.5 16.5
q-25 0 -41.5 -16.5t-16.5 -39.5q0 -57 58 -57q24 0 40.5 16.5t16.5 40.5z" />
    <glyph glyph-name="uni0E52" unicode="&#xe52;" horiz-adv-x="1186" 
d="M1114 0h-844q-198 0 -198 166v485q0 126 -144 158l99 92q105 -24 155 -96q41 -59 41 -139v-478q0 -38 17.5 -51.5t62.5 -13.5h660v319q0 74 -76 74q-38 0 -61 -25t-23 -57v-250h-152v246q0 37 -26 61.5t-80 24.5q-38 0 -66 -19.5t-28 -50.5q52 -6 92 -38q49 -40 49 -103
q0 -30 -12 -55.5t-32 -44t-46 -29t-53 -10.5q-67 0 -108.5 39.5t-41.5 111.5v125q0 45 18.5 81t50 61t74 38t90.5 13q73 0 119.5 -25t75.5 -63q26 35 72.5 59.5t109.5 24.5q93 0 149 -50.5t56 -140.5v-440zM500 307q0 23 -14 37t-37 14t-37.5 -14t-14.5 -37t14.5 -37
t37.5 -14t37 14t14 37z" />
    <glyph glyph-name="uni0E53" unicode="&#xe53;" horiz-adv-x="1020" 
d="M948 0h-160v399q0 90 -90 90q-21 0 -38 -7.5t-29.5 -19.5t-19.5 -27.5t-7 -31.5v-403h-160v397q0 42 -29.5 67t-78.5 25q-25 0 -44.5 -7.5t-33 -20t-20.5 -28.5t-7 -32v-114h11q33 0 62 -10.5t50.5 -30t34 -46.5t12.5 -61t-13 -61t-35 -45.5t-51.5 -28.5t-63.5 -10
q-79 0 -122.5 41.5t-43.5 116.5v260q0 45 16.5 84t48 68.5t77.5 46t105 16.5q79 0 129 -27t76 -72q13 20 30 36t40 30q55 33 119 33q118 0 176.5 -58.5t58.5 -158.5v-410zM295 139q0 25 -16.5 41.5t-40.5 16.5q-25 0 -41.5 -16.5t-16.5 -41.5t16.5 -41t41.5 -16
q24 0 40.5 16t16.5 41z" />
    <glyph glyph-name="uni0E54" unicode="&#xe54;" horiz-adv-x="936" 
d="M893 92l-78 -98q-97 47 -180 47q-12 0 -139 -29q-62 -12 -127 -12q-131 0 -226 86q-92 89 -92 233q0 176 121 261q107 71 299 71q60 0 105 11t77 32q74 50 74 154v19q0 8 -2 14h162q0 -173 -104.5 -265t-297.5 -92q-129 0 -201.5 -49t-72.5 -153q0 -43 13 -79t37 -61.5
t56.5 -40t71.5 -14.5q29 0 60 7t57 13q-17 11 -31 25.5t-26 34.5q-31 46 -31 94q0 34 12.5 63t34.5 49.5t51.5 32t63.5 11.5t62.5 -10t49 -28t32 -44.5t11.5 -59.5q0 -38 -23 -74t-71 -53q11 -12 46.5 -24t98.5 -23q32 -6 59.5 -18t47.5 -31zM639 313q0 25 -16.5 41.5
t-40.5 16.5q-25 0 -41.5 -16.5t-16.5 -41.5q0 -24 16.5 -40.5t41.5 -16.5q24 0 40.5 16.5t16.5 40.5z" />
    <glyph glyph-name="uni0E55" unicode="&#xe55;" horiz-adv-x="936" 
d="M893 92l-78 -98q-97 47 -180 47q-12 0 -139 -29q-62 -12 -127 -12q-131 0 -226 86q-92 89 -92 233q0 133 68 216q63 72 178 100q-19 17 -29 36t-10 54q0 33 13.5 61t37.5 48t56 31.5t69 11.5q38 0 70 -11.5t55 -31.5t36 -48t13 -61q0 -32 -18 -59q69 20 103 63.5
t34 118.5v19q0 8 -2 14h162q0 -174 -104.5 -263.5t-297.5 -89.5q-129 0 -201.5 -51t-72.5 -155q0 -43 13 -79t37 -61.5t56.5 -40t71.5 -14.5q29 0 60 7t57 13q-17 11 -31 25.5t-26 34.5q-31 46 -31 94q0 34 12.5 63t34.5 49.5t51.5 32t63.5 11.5t62.5 -10t49 -28t32 -44.5
t11.5 -59.5q0 -38 -23 -74t-71 -53q11 -12 46.5 -24t98.5 -23q32 -6 59.5 -18t47.5 -31zM496 713q0 26 -18 43.5t-44 17.5q-59 0 -59 -61q0 -25 17 -42.5t42 -17.5t43.5 17t18.5 43zM639 313q0 25 -16.5 41.5t-40.5 16.5q-25 0 -41.5 -16.5t-16.5 -41.5q0 -24 16.5 -40.5
t41.5 -16.5q24 0 40.5 16.5t16.5 40.5z" />
    <glyph glyph-name="uni0E56" unicode="&#xe56;" horiz-adv-x="831" 
d="M780 322q0 -70 -24.5 -129t-75.5 -107q-101 -92 -262 -92q-73 0 -131.5 14.5t-99.5 41.5t-63 65t-22 86q0 31 12.5 57.5t34 46t51 30.5t64.5 11q34 0 63.5 -11.5t51.5 -31t34.5 -46t12.5 -56.5q0 -40 -25 -74h15q40 0 77 15t65.5 41t45.5 61t17 75q0 39 -14 73t-40 59
t-64.5 39t-86.5 14q-55 0 -108 -24t-89 -62l-127 10q0 94 -37 174q-56 126 -178 209l135 82q48 -32 85.5 -72t66.5 -88q46 -73 61 -149q46 24 86 37q58 18 117 18q170 0 266 -96q86 -86 86 -221zM319 201q0 24 -16 40.5t-41 16.5t-41 -16.5t-16 -40.5q0 -25 16 -41.5
t41 -16.5t41 16.5t16 41.5z" />
    <glyph glyph-name="uni0E57" unicode="&#xe57;" horiz-adv-x="1231" 
d="M1198 535q0 -79 -17.5 -156.5t-50 -147t-78.5 -129t-104 -102.5h-160v399q0 90 -90 90q-21 0 -38 -7.5t-29.5 -19.5t-19.5 -27.5t-7 -31.5v-403h-160v397q0 42 -29.5 67t-78.5 25q-25 0 -44.5 -7.5t-33 -20t-20.5 -28.5t-7 -32v-114h11q33 0 62 -10.5t50.5 -30t34 -46.5
t12.5 -61t-13 -61t-35 -45.5t-51.5 -28.5t-63.5 -10q-79 0 -122.5 41.5t-43.5 116.5v260q0 45 16.5 84t48 68.5t77.5 46t105 16.5q79 0 129 -27t76 -72q13 20 30 36t40 30q55 33 119 33q118 0 176.5 -58.5t58.5 -158.5v-215q19 18 34.5 44.5t29.5 61.5q35 93 35 211
q0 57 -8 110.5t-23 104.5q-16 54 -31.5 91.5t-32.5 60.5h166q15 -26 29 -62.5t25.5 -81t18.5 -95.5t7 -105zM295 139q0 25 -16.5 41.5t-40.5 16.5q-25 0 -41.5 -16.5t-16.5 -41.5t16.5 -41t41.5 -16q24 0 40.5 16t16.5 41z" />
    <glyph glyph-name="uni0E58" unicode="&#xe58;" horiz-adv-x="926" 
d="M909 881q0 -86 -29.5 -152t-84 -112t-133 -69.5t-177.5 -23.5q-135 0 -204.5 -48.5t-69.5 -160.5q0 -41 5.5 -74.5t15 -57.5t21 -37t23.5 -13q30 0 78 53q26 28 46.5 56t37.5 57q17 -32 37 -60t43 -51q65 -65 133 -65l11 4q-21 0 -40.5 12.5t-34 32.5t-23.5 45t-9 49
q0 30 11.5 56t32.5 45.5t50.5 31t65.5 11.5q34 0 63 -12t50.5 -34t33.5 -53.5t12 -70.5q0 -53 -17.5 -98t-48 -78t-71.5 -51.5t-88 -18.5q-63 0 -117.5 25t-91.5 63q-32 -42 -73.5 -65t-92.5 -23q-88 0 -151 80q-72 93 -72 237q0 186 119 269q104 71 301 71q63 0 111 11
t84 32q82 52 82 158q-2 9 -2.5 16.5t-0.5 12.5h164zM768 268q0 25 -16.5 41.5t-40.5 16.5q-25 0 -41.5 -16.5t-16.5 -41.5q0 -24 16.5 -40.5t41.5 -16.5q24 0 40.5 16.5t16.5 40.5z" />
    <glyph glyph-name="uni0E59" unicode="&#xe59;" horiz-adv-x="1024" 
d="M1104 881q0 -70 -13.5 -135t-39.5 -128q-59 -141 -142 -141q-53 0 -92 39q-39 41 -72 41q-38 0 -38 -65q0 -27 7 -62.5t19.5 -72.5t30 -72.5t39.5 -63.5q68 -92 174 -133l-133 -94q-51 13 -94.5 53t-85.5 103q-62 94 -109 237q-41 119 -176 119q-36 0 -67 -12
t-53.5 -35.5t-35 -57.5t-12.5 -77q0 -69 28 -119.5t76 -63.5q-30 31 -30 78q0 28 10.5 52.5t29.5 43t45 29t58 10.5q31 0 58 -11t47 -30.5t31 -47t11 -60.5q0 -45 -17.5 -82.5t-48 -65.5t-72 -43.5t-89.5 -15.5q-106 0 -188 70q-109 94 -109 266q0 71 24.5 129t68 99.5
t103.5 64t132 22.5q63 0 121 -21t96 -63q4 25 16.5 49.5t31.5 43.5t44 30.5t55 11.5q22 0 42 -7.5t39 -18.5t37 -24.5t36 -26.5q12 0 20.5 20t14.5 54.5t9 81.5t3 102h160zM477 219q0 20 -15.5 35.5t-35.5 15.5q-23 0 -37 -14t-14 -37t14 -37t37 -14q20 0 35.5 15.5
t15.5 35.5z" />
    <glyph glyph-name="uni0E5A" unicode="&#xe5a;" horiz-adv-x="1087" 
d="M723 0h-160v580q-49 -43 -121 -68q-80 -27 -163 -27q-53 0 -97 14t-75.5 39t-49.5 60.5t-18 77.5q0 30 13 58.5t36 50.5t55.5 35.5t71.5 13.5t71 -12t55 -33t35.5 -50t12.5 -63q0 -14 -1.5 -26.5t-6.5 -24.5q151 39 184 194h68q90 0 90 -78v-741zM279 676q0 25 -17.5 43
t-46.5 18q-63 0 -63 -61q0 -29 15.5 -43t47.5 -19q64 0 64 62zM825 819h160v-819h-160v819z" />
    <glyph glyph-name="uni0E5B" unicode="&#xe5b;" horiz-adv-x="1516" 
d="M1473 434q0 -37 -64 -43l-147 -18q-8 -20 -23.5 -38t-32.5 -18q-8 0 -16 6t-15.5 15t-13.5 19.5t-10 19.5q-8 -37 -25.5 -60.5t-40.5 -23.5q-12 0 -22.5 10t-19 23.5t-15 27t-10.5 19.5q-8 -45 -28 -74t-46 -29q-13 0 -23 11.5t-17.5 29t-14 37t-12.5 35.5
q-20 -75 -43 -106t-58 -31q-43 0 -55 61l-19 74q-33 -126 -106 -209q-114 -123 -246 -123q-65 0 -118 26.5t-91 74.5t-59 115.5t-21 150.5q0 78 19 143.5t57 116.5q75 106 191 106q49 0 91 -20.5t72.5 -56.5t48 -85.5t17.5 -107.5q0 -47 -11 -85.5t-31.5 -66.5t-48 -43.5
t-60.5 -15.5q-28 0 -52.5 11.5t-42.5 32t-28.5 47.5t-10.5 59q0 30 10.5 57t28.5 47.5t41.5 32.5t50.5 12l15 -2q-23 72 -88 72q-31 0 -57.5 -20t-46 -55t-31 -83t-11.5 -104q0 -59 12.5 -105.5t36 -79t56 -50t73.5 -17.5q47 0 88.5 26t74.5 73.5t57 115t36 151.5
q8 55 23 74.5t45 19.5q66 0 102 -135l5 54q0 61 51 61q26 0 49.5 -24.5t46.5 -73.5q6 31 14 46t31 15q26 0 48 -21.5t46 -66.5q11 29 21 43t30 14q32 0 70 -57q16 33 51 27l158 -19q64 -6 64 -45zM453 453q0 57 -50 57q-45 0 -45 -57q0 -58 45 -58q50 0 50 58z" />
    <glyph glyph-name="endash" unicode="&#x2013;" horiz-adv-x="758" 
d="M696 274h-635v134h635v-134z" />
    <glyph glyph-name="emdash" unicode="&#x2014;" horiz-adv-x="1516" 
d="M1454 274h-1393v134h1393v-134z" />
    <glyph glyph-name="quoteleft" unicode="&#x2018;" horiz-adv-x="371" 
d="M309 743q0 -24 -9.5 -44.5t-25.5 -35t-37.5 -22.5t-46.5 -8q-51 0 -86.5 33.5t-42.5 99.5q0 85 43.5 157t118.5 121l84 -49q-23 -12 -42 -29t-36 -40q-21 -29 -36 -66q49 -6 82.5 -36t33.5 -81z" />
    <glyph glyph-name="quoteright" unicode="&#x2019;" horiz-adv-x="371" 
d="M309 911q0 -85 -43.5 -157t-118.5 -121l-84 49q44 22 78 70q11 14 20 30.5t17 34.5q-49 6 -83 36t-34 81q0 24 9.5 44.5t25.5 35t38 22.5t46 8q51 0 87 -33.5t42 -99.5z" />
    <glyph glyph-name="quotedblleft" unicode="&#x201c;" horiz-adv-x="680" 
d="M618 743q0 -24 -9.5 -44.5t-25.5 -35t-37.5 -22.5t-45.5 -8q-51 0 -87 33.5t-42 99.5q0 85 43 157t118 121l84 -49q-42 -22 -77 -69q-20 -26 -37 -66q49 -6 82.5 -36t33.5 -81zM309 743q0 -24 -9.5 -44.5t-25.5 -35t-37.5 -22.5t-46.5 -8q-51 0 -86.5 33.5t-42.5 99.5
q0 85 43.5 157t118.5 121l84 -49q-23 -12 -42 -29t-36 -40q-21 -29 -36 -66q49 -6 82.5 -36t33.5 -81z" />
    <glyph glyph-name="quotedblright" unicode="&#x201d;" horiz-adv-x="680" 
d="M618 911q0 -85 -43 -157t-118 -121l-84 49q42 22 78 70q11 14 19.5 30.5t16.5 34.5q-49 6 -82.5 36t-33.5 81q0 24 9.5 44.5t25.5 35t37.5 22.5t45.5 8q51 0 87 -33.5t42 -99.5zM309 911q0 -85 -43.5 -157t-118.5 -121l-84 49q44 22 78 70q11 14 20 30.5t17 34.5
q-49 6 -83 36t-34 81q0 24 9.5 44.5t25.5 35t38 22.5t46 8q51 0 87 -33.5t42 -99.5z" />
    <glyph glyph-name="bullet" unicode="&#x2022;" horiz-adv-x="778" 
d="M696 410q0 -127 -90 -217q-88 -91 -217 -91t-217 91q-90 90 -90 217q0 125 90 217q90 90 217 90t217 -90t90 -217z" />
    <glyph glyph-name="ellipsis" unicode="&#x2026;" horiz-adv-x="1352" 
d="M1219 0h-187v182h187v-182zM770 0h-188v182h188v-182zM319 0h-188v182h188v-182z" />
    <glyph glyph-name="thothannobasethai" unicode="&#xf700;" horiz-adv-x="825" 
d="M815 750q-59 -74 -168 -74q-66 0 -180 31q-63 16 -107 16q-51 0 -83.5 -18.5t-43.5 -38.5h43q17 0 34.5 -0.5t38 -1.5t45 -4t55.5 -7q78 -11 132.5 -24.5t88.5 -32.5q84 -47 84 -135q0 -58 -105 -277q-26 -54 -38.5 -100t-12.5 -84h-170l-76 236q-36 -17 -67 -17
q-34 0 -63.5 11.5t-51.5 31.5t-34.5 48t-12.5 61t12.5 60.5t34.5 48t51.5 31.5t63.5 11q72 0 114 -36.5t62 -108.5l28 -92q8 -26 12.5 -54t6.5 -53q5 19 10 41.5t19 61.5q11 26 19 44.5t13 32.5q11 26 16 50.5t5 44.5q0 25 -23 44t-63.5 31.5t-95.5 18.5t-119 6q-23 0 -60 1
t-88 3t-81 3t-40 1q31 144 117.5 211.5t224.5 67.5q70 0 156 -19q92 -16 107 -16q63 0 98 35zM350 371q0 65 -65 65q-66 0 -66 -65q0 -66 66 -66q65 0 65 66z" />
    <glyph glyph-name="saraileftthai" unicode="&#xf701;" 
d="M-360 922q-117 20 -246 27t-277 7h-209q13 64 43 114t73.5 85t99 53.5t120.5 18.5q162 0 263.5 -77.5t132.5 -227.5zM-516 1028q-15 24 -39.5 43t-55 32t-65.5 20t-72 7q-63 0 -113 -19t-81 -64q58 6 80 6q5 1 11 1.5t14 0.5h38q60 0 129 -6.5t154 -20.5z" />
    <glyph glyph-name="saraiileftthai" unicode="&#xf702;" 
d="M-360 922q-117 20 -246 27t-277 7h-209q13 64 43 114t73.5 85t99 53.5t120.5 18.5q138 0 236 -62v129h160v-372zM-516 1028q-15 24 -39.5 43t-55 32t-65.5 20t-72 7q-63 0 -113 -19t-81 -64q58 6 80 6q5 1 11 1.5t14 0.5h38q60 0 129 -6.5t154 -20.5z" />
    <glyph glyph-name="saraueleftthai" unicode="&#xf703;" 
d="M-291 1157q0 -22 -8 -44t-22 -40.5t-33 -31.5t-41 -17q3 -6 7.5 -16.5t9.5 -24.5t10 -30t8 -31q-117 20 -246 27t-277 7h-209q13 64 43 114t73.5 85t99 53.5t120.5 18.5q48 0 90 -7.5t80 -21.5q31 102 146 102q31 0 58.5 -11t47.5 -30t31.5 -45t11.5 -57zM-385 1157
q0 20 -16 36.5t-39 16.5t-39.5 -14t-16.5 -39q0 -20 16.5 -36.5t39.5 -16.5t39 14t16 39zM-516 1028q-15 24 -39.5 43t-55 32t-65.5 20t-72 7q-63 0 -113 -19t-81 -64q58 6 80 6q5 1 11 1.5t14 0.5h38q60 0 129 -6.5t154 -20.5z" />
    <glyph glyph-name="saraueeleftthai" unicode="&#xf704;" 
d="M-360 922q-117 20 -246 27t-277 7h-209q13 64 43 114t73.5 85t99 53.5t120.5 18.5l68 -4v71h106v-98q34 -12 62 -31v129h160v-372zM-516 1028q-15 24 -39.5 43t-55 32t-65.5 20t-72 7q-63 0 -113 -19t-81 -64q58 6 80 6q5 1 11 1.5t14 0.5h38q60 0 129 -6.5t154 -20.5z
" />
    <glyph glyph-name="maieklowleftthai" unicode="&#xf705;" 
d="M-352 932h-160v266h160v-266z" />
    <glyph glyph-name="maitholowleftthai" unicode="&#xf706;" 
d="M-135 1235q-32 -141 -158 -217q-72 -43 -171.5 -64.5t-231.5 -21.5v80q44 10 67 19.5t39 27.5q-42 11 -68 43.5t-26 77.5q0 27 10.5 51t29 42t44 28t55.5 10q31 0 57 -8.5t45.5 -26t30.5 -42.5t11 -58q0 -31 -11.5 -59.5t-29.5 -51.5q34 8 63 29t55 53q52 64 58 125z
M-490 1182q0 23 -16 37t-39 14q-55 0 -55 -51q0 -23 16 -37.5t39 -14.5q55 0 55 52z" />
    <glyph glyph-name="maitrilowleftthai" unicode="&#xf707;" 
d="M-166 1294q0 -66 -17 -124.5t-53 -112.5q-56 -89 -137 -135l-100 30q41 79 41 140q0 24 -10.5 43.5t-30.5 19.5q-23 0 -36 -15t-19 -38h-54q-6 23 -29.5 40t-52.5 17q-43 0 -55 -26q48 0 79.5 -29.5t31.5 -77.5q0 -26 -9.5 -46.5t-25 -34.5t-36 -22t-42.5 -8
q-48 0 -82 33q-47 44 -47 127q0 42 14 77.5t38 61t56.5 40t69.5 14.5q38 0 67 -13t48 -36q14 20 40.5 33.5t63.5 13.5q66 0 101 -39t35 -105q17 29 28.5 80t11.5 107zM-676 1026q0 43 -43 43t-43 -43t43 -43t43 43z" />
    <glyph glyph-name="maichattawalowleftthai" unicode="&#xf708;" 
d="M-320 1051h-129v-119h-159v119h-129v108h129v119h159v-119h129v-108z" />
    <glyph glyph-name="thanthakhatlowleftthai" unicode="&#xf709;" 
d="M-207 1270q-6 -23 -19.5 -42.5t-32 -34.5t-41 -25.5t-46.5 -14.5l-37 -4q35 -41 35 -88q0 -28 -10.5 -51.5t-29 -41t-43 -27t-52.5 -9.5q-30 0 -57 10.5t-47 29t-32 45.5t-12 60q0 31 11.5 58.5t32 48.5t48.5 35t62 18q34 5 56.5 8t33.5 8q48 16 57 56zM-428 1059
q0 23 -16 39t-39 16t-39.5 -16t-16.5 -39t16.5 -39t39.5 -16t39 16t16 39z" />
    <glyph glyph-name="maieklowrightthai" unicode="&#xf70a;" 
d="M-98 932h-160v266h160v-266z" />
    <glyph glyph-name="maitholowrightthai" unicode="&#xf70b;" 
d="M45 1235q-30 -141 -154 -217q-72 -43 -171.5 -64.5t-231.5 -21.5v80q44 10 67 19.5t39 27.5q-42 11 -68 43.5t-26 77.5q0 27 10.5 51t29.5 42t44.5 28t55.5 10t56.5 -8.5t45.5 -26t30 -42.5t11 -58q0 -31 -11.5 -59.5t-29.5 -51.5q33 6 64 28.5t55.5 53t39.5 64t17 61.5z
M-305 1182q0 23 -16 37t-39 14q-56 0 -56 -51q0 -23 16.5 -37.5t39.5 -14.5q55 0 55 52z" />
    <glyph glyph-name="maitrilowrightthai" unicode="&#xf70c;" 
d="M-10 1294q0 -131 -70 -237q-55 -88 -137 -135l-100 30q40 79 40 140q0 24 -10 43.5t-30 19.5q-23 0 -36.5 -15t-19.5 -38h-53q-6 23 -29.5 40t-52.5 17q-43 0 -55 -26q48 0 79 -29.5t31 -77.5q0 -26 -9 -46.5t-24.5 -34.5t-36 -22t-42.5 -8q-49 0 -82 33q-47 44 -47 127
q0 42 14 77.5t38 61t56.5 40t69.5 14.5q38 0 67 -13t48 -36q14 20 40.5 33.5t63.5 13.5q66 0 100.5 -39t34.5 -105q18 30 29.5 80.5t11.5 106.5zM-520 1026q0 43 -43 43t-43 -43t43 -43t43 43z" />
    <glyph glyph-name="maichattawalowrightthai" unicode="&#xf70d;" 
d="M-113 1051h-129v-119h-159v119h-129v108h129v119h159v-119h129v-108z" />
    <glyph glyph-name="thanthakhatlowrightthai" unicode="&#xf70e;" 
d="M-23 1270q-12 -46 -50 -77.5t-89 -39.5l-37 -4q35 -41 35 -88q0 -28 -10.5 -51.5t-28.5 -41t-43 -27t-53 -9.5q-30 0 -57 10.5t-47 29t-32 45.5t-12 60q0 31 11.5 58.5t32 48.5t48.5 35t62 18q34 5 56.5 8t33.5 8q47 16 58 56zM-244 1059q0 23 -16 39t-39 16t-39 -16
t-16 -39t16 -39t39 -16t39 16t16 39z" />
    <glyph glyph-name="yoyingnobasethai" unicode="&#xf70f;" horiz-adv-x="1243" 
d="M1141 174q0 -48 -10.5 -81.5t-34.5 -54t-62.5 -29.5t-93.5 -9h-438v127h102v438q0 34 -14 61t-39 45.5t-60 28t-77 9.5q-69 0 -118 -23t-69 -55q25 -6 61 -19.5t66 -25.5v-47q-16 -3 -32.5 -13.5t-29.5 -25.5t-21.5 -33.5t-8.5 -36.5v-115l17 2q34 0 64 -11.5t53 -32.5
t36.5 -51.5t13.5 -67.5t-13.5 -66.5t-36.5 -50.5t-54 -32t-66 -11q-81 0 -127.5 44.5t-46.5 123.5v266q0 18 6.5 35.5t17 32.5t24 27t28.5 18q-6 3 -23 9t-44 15q-28 10 -48 16t-32 11q18 55 52.5 100t82.5 77t109 49.5t133 17.5q80 0 145.5 -17t112.5 -50.5t72.5 -83
t25.5 -114.5v-444h121q53 0 74.5 11t21.5 52v629h160v-645zM342 154q0 65 -66 65q-65 0 -65 -65q0 -66 65 -66q66 0 66 66z" />
    <glyph glyph-name="maihanakatleftthai" unicode="&#xf710;" 
d="M-129 1255q0 -157 -121 -245q-105 -78 -256 -78q-59 0 -109 12t-87.5 35t-58.5 57t-21 78q0 30 11.5 55.5t32 44t48.5 29t61 10.5q34 0 62 -11t48.5 -30t32 -45t11.5 -57q0 -34 -17 -63q95 0 158 51q35 29 53.5 67.5t18.5 89.5h133zM-573 1112q0 23 -16.5 39t-39.5 16
t-39 -16t-16 -39t16 -39t39 -16t39.5 16t16.5 39z" />
    <glyph glyph-name="nikhahitleftthai" unicode="&#xf711;" 
d="M-289 1114q0 -36 -13.5 -67.5t-36.5 -54.5t-54.5 -36.5t-67.5 -13.5t-67.5 13.5t-54.5 36.5t-36.5 54.5t-13.5 67.5t13.5 67.5t36.5 54.5t54.5 36.5t67.5 13.5t67.5 -13.5t54.5 -36.5t36.5 -54.5t13.5 -67.5zM-389 1114q0 31 -20.5 51.5t-51.5 20.5t-51.5 -20.5
t-20.5 -51.5t20.5 -51.5t51.5 -20.5t51.5 20.5t20.5 51.5z" />
    <glyph glyph-name="maitaikhuleftthai" unicode="&#xf712;" 
d="M-299 1356q0 -44 -17.5 -76.5t-47.5 -54.5t-71 -32.5t-87 -10.5l-191 8q-38 0 -64 -24t-26 -56q0 -31 19.5 -50.5t44.5 -19.5l112 101q19 -23 36.5 -38t37.5 -26q22 82 115 82q24 0 45.5 -8.5t37.5 -24t25.5 -36.5t9.5 -46q0 -27 -10 -49t-27 -38.5t-41.5 -25.5t-52.5 -9
q-49 0 -94.5 20.5t-83.5 65.5l-82 -78h-53q-28 0 -54.5 13t-47.5 36t-34 54.5t-13 68.5q0 84 49.5 136t152.5 52l185 -6q50 0 71 10q35 17 35 62h121zM-395 1042q0 41 -43 41t-43 -41q0 -43 43 -43t43 43z" />
    <glyph glyph-name="maiekupperleftthai" unicode="&#xf713;" 
d="M-360 1356h-160v225h160v-225z" />
    <glyph glyph-name="maithoupperleftthai" unicode="&#xf714;" 
d="M-188 1618q-14 -63 -50.5 -111.5t-93.5 -83.5q-134 -77 -362 -77v71q71 15 96 43q-18 4 -33 14t-26.5 25t-18 33t-6.5 37q0 24 9 45t25.5 37t39.5 25.5t51 9.5q27 0 50.5 -8.5t41 -24t27.5 -38t10 -50.5q0 -12 -3 -26.5t-8.5 -28t-12 -25.5t-13.5 -21q31 7 58.5 27
t48.5 46t34.5 56t16.5 58zM-508 1569q0 47 -49 47q-51 0 -51 -47q0 -19 15.5 -32t35.5 -13q49 0 49 45z" />
    <glyph glyph-name="maitriupperleftthai" unicode="&#xf715;" 
d="M-111 1679q0 -119 -61 -213q-52 -79 -125 -123l-90 27q37 71 37 127q0 20 -9.5 37.5t-27.5 17.5q-14 0 -29 -10.5t-20 -36.5h-49q-5 20 -26.5 35.5t-47.5 15.5q-36 0 -49 -22q43 0 71.5 -26.5t28.5 -69.5q0 -23 -9 -41.5t-23 -31.5t-32.5 -20.5t-37.5 -7.5q-43 0 -74 29
q-43 40 -43 115q0 39 12.5 71t34 55t51 35.5t64.5 12.5t59.5 -11t42.5 -34q12 17 37 30t57 13q60 0 90.5 -34.5t30.5 -94.5q5 10 11.5 29t12 42.5t9.5 48.5t4 48zM-569 1438q0 39 -39 39t-39 -39t39 -39t39 39z" />
    <glyph glyph-name="maichattawaupperleftthai" unicode="&#xf716;" 
d="M-250 1466h-119v-110h-143v110h-119v97h119v110h143v-110h119v-97z" />
    <glyph glyph-name="thanthakhatupperleftthai" unicode="&#xf717;" 
d="M-279 1583q-11 -43 -42.5 -70.5t-82.5 -35.5l-32 -4q30 -32 30 -78q0 -25 -9.5 -46.5t-26 -37t-38.5 -24.5t-46 -9q-27 0 -51.5 9t-42.5 26.5t-29 41.5t-11 54q0 28 10.5 52.5t29 43.5t44.5 31.5t58 15.5q32 5 51 8.5t27 6.5q40 16 51 51zM-477 1393q0 49 -49 49
q-50 0 -50 -49q0 -50 50 -50q49 0 49 50z" />
    <glyph glyph-name="saraulowthai" unicode="&#xf718;" 
d="M-98 -889h-160v146q-31 0 -59 9.5t-49 27.5t-33.5 44t-12.5 60q0 31 12 58t33 46t49 30t60 11q34 0 63.5 -11.5t51 -31.5t33.5 -49t12 -63v-277zM-199 -602q0 25 -17 42t-42 17t-42 -17t-17 -42t17 -42.5t42 -17.5t42 17.5t17 42.5z" />
    <glyph glyph-name="sarauulowthai" unicode="&#xf719;" 
d="M-98 -733q0 -63 -36.5 -90t-99.5 -27h-225v119l-35 -4q-25 0 -50 9.5t-44.5 27.5t-32 43t-12.5 57q0 31 12 56.5t32 44.5t46 29.5t53 10.5q31 0 58.5 -10.5t48 -30.5t32 -48t11.5 -62v-144h53q29 0 29 29v266h160v-276zM-430 -596q0 25 -17.5 42t-42.5 17
q-24 0 -41.5 -17t-17.5 -42t17.5 -42t41.5 -17q25 0 42.5 17t17.5 42z" />
    <glyph glyph-name="phinthulowthai" unicode="&#xf71a;" 
d="M-98 -565q0 -23 -8.5 -42.5t-23.5 -34.5t-35 -23.5t-42 -8.5t-41.5 8.5t-34.5 23.5t-23.5 34.5t-8.5 42.5q0 22 8.5 41.5t23.5 34.5t34.5 23.5t41.5 8.5t42 -8.5t35 -23.5t23.5 -34.5t8.5 -41.5z" />
    <glyph glyph-name="minus" unicode="&#xad;" horiz-adv-x="758" 
d="M696 274h-635v134h635v-134z" />
    <glyph glyph-name="uni0E33_1" horiz-adv-x="727" 
d="M625 0h-160v573q0 63 -41 98.5t-117 35.5q-31 0 -59 -9t-50.5 -25t-38.5 -39t-22 -50h-153q8 58 34 104.5t68 79.5t99.5 50.5t127.5 17.5q71 0 128.5 -17.5t98.5 -51t63 -82t22 -110.5v-575zM-289 1114q0 -36 -13.5 -67.5t-36.5 -54.5t-54.5 -36.5t-67.5 -13.5
t-67.5 13.5t-54.5 36.5t-36.5 54.5t-13.5 67.5t13.5 67.5t36.5 54.5t54.5 36.5t67.5 13.5t67.5 -13.5t54.5 -36.5t36.5 -54.5t13.5 -67.5zM-389 1114q0 31 -20.5 51.5t-51.5 20.5t-51.5 -20.5t-20.5 -51.5t20.5 -51.5t51.5 -20.5t51.5 20.5t20.5 51.5z" />
    <glyph glyph-name="uni0E4E_1" 
d="M-142 1344q-24 2 -56 0.5t-65.5 -6.5t-66.5 -12t-57.5 -16t-38 -19t-9.5 -21q0 -23 28 -31t70 -8h19h4v-94h-12h-17h-8q-2 0 -8 2q-21 0 -37.5 -0.5t-31 -3t-29.5 -6t-33 -9.5q-37 -11 -59.5 -29t-16.5 -38q6 -17 41 -17q13 0 29.5 2.5t33 8t32.5 12.5t28 16l53 -90
q-17 -8 -30.5 -13.5t-24.5 -10.5q-34 -14 -65 -20.5t-60 -6.5q-6 2 -9 2h-7h-11q-63 8 -99 38t-36 75q0 33 16 59.5t40 46t51.5 31.5t50.5 16q-29 26 -29 68q0 19 10.5 40.5t28.5 41.5t41.5 36.5t50.5 26.5q25 10 57.5 17t68 11t71 5.5t67.5 1.5h23h2v-106v0z" />
    <glyph glyph-name="currency" unicode="&#xa4;" horiz-adv-x="840" 
d="M422 729q-96 0 -160 -67q-65 -73 -65 -160q0 -94 63 -164q65 -68 162 -68q92 0 158 68q63 63 63 164q0 46 -16.5 87t-45.5 72t-70 49.5t-89 18.5zM8 164l148 145q-62 83 -62 193q0 114 62 188l-148 150l76 71l145 -145q79 59 193 59q55 0 105.5 -16t82.5 -43l150 145
l71 -71l-145 -150q59 -79 59 -188q0 -114 -59 -193l145 -145l-71 -76l-150 148q-15 -13 -36 -23.5t-47 -20.5q-53 -18 -105 -18q-110 0 -193 62l-145 -148z" />
    <glyph glyph-name="FL00A9h" unicode="&#xa9;" horiz-adv-x="1081" 
d="M1049 485q0 -216 -150 -360q-149 -143 -356 -143q-211 0 -361 141q-149 143 -149 362q0 211 147 357q76 72 165.5 108.5t197.5 36.5q208 0 356 -145q150 -146 150 -357zM956 485q0 180 -120 303q-119 125 -293 125q-180 0 -299 -125q-119 -121 -119 -303q0 -186 119 -311
q120 -123 299 -123q175 0 295 123q60 63 89 140t29 171zM809 385q-12 -49 -35 -88.5t-55 -67t-72.5 -42.5t-87.5 -15q-68 0 -123.5 23.5t-95 64.5t-61 98t-21.5 125q0 69 20 125.5t58.5 97t93.5 63t125 22.5q49 0 92.5 -13.5t77 -40t55.5 -64.5t29 -87h-86q-11 57 -55.5 94
t-112.5 37q-47 0 -85 -17.5t-64.5 -48.5t-41 -73.5t-14.5 -92.5q0 -49 15 -92t42.5 -75.5t66 -51t85.5 -18.5q66 0 109.5 37t54.5 100h86z" />
    <glyph glyph-name="fongmanfunnuthai" unicode="&#xf880;" 
 />
    <glyph glyph-name="lochula.short" unicode="&#xf71d;" 
 />
    <glyph glyph-name="percent" unicode="%" horiz-adv-x="1352" 
d="M1241 250q0 -119 -51 -189q-59 -75 -174 -75q-58 0 -100.5 19t-71 53.5t-42.5 83t-14 108.5q0 58 14 107.5t42.5 85t71 55.5t100.5 20q113 0 172 -80q53 -71 53 -188zM979 979l-522 -1008h-105l525 1008h102zM563 696q0 -60 -12.5 -106.5t-38.5 -81.5q-59 -80 -176 -80
q-59 0 -101 19t-70 54.5t-41 85t-13 109.5q0 58 14 107.5t42 85.5t70.5 56t98.5 20q115 0 174 -80q53 -71 53 -189zM1118 250q0 40 -5 73.5t-17 57.5t-32 37.5t-50 13.5q-29 0 -48.5 -14t-31.5 -38t-17.5 -57.5t-5.5 -72.5q0 -82 24.5 -131t78.5 -49t79 49t25 131zM440 696
q0 78 -20 123q-28 58 -84 58q-29 0 -48.5 -13.5t-31.5 -37.5t-17.5 -57.5t-5.5 -72.5q0 -85 24.5 -133.5t78.5 -48.5t79 50.5t25 131.5z" />
    <glyph glyph-name="zerowidthnonjoiner" unicode="&#x200c;" 
 />
    <glyph glyph-name="zerowidthjoiner" unicode="&#x200d;" 
 />
    <glyph glyph-name="saraueesp2" 
d="M-360 922q-117 20 -246 27t-277 7h-209q13 64 43 114t73.5 85t99 53.5t120.5 18.5l68 -4v71h106v-98q34 -12 62 -31v129h160v-372zM-516 1028q-15 24 -39.5 43t-55 32t-65.5 20t-72 7q-63 0 -113 -19t-81 -64q58 6 80 6q5 1 11 1.5t14 0.5h38q60 0 129 -6.5t154 -20.5z
M-445 1356h-160v225h160v-225z" />
    <glyph glyph-name="saraisp" 
d="M-112 996q-117 20 -246 27t-276 7h-209q13 64 42.5 114t73 85t99.5 53.5t121 18.5q162 0 263 -77.5t132 -227.5zM-268 1102q-31 48 -93.5 75t-137.5 27q-63 0 -113.5 -19t-81.5 -64q58 6 80 6q5 1 11 1.5t14 0.5h39q58 0 128 -6.5t154 -20.5z" />
    <glyph glyph-name="saraiisp" 
d="M-113 996q-117 20 -246 27t-277 7h-208q13 64 42.5 114t73 85t99 53.5t120.5 18.5q138 0 236 -62v129h160v-372zM-269 1102q-31 48 -93.5 75t-137.5 27q-63 0 -113.5 -19t-81.5 -64q58 6 80 6q5 1 11 1.5t14 0.5h38q60 0 129 -6.5t154 -20.5z" />
    <glyph glyph-name="maieknonu" 
d="M-122 932h-160v266h160v-266z" />
    <glyph glyph-name="F71b_" unicode="&#xf71b;" 
 />
    <glyph glyph-name="F71c_" unicode="&#xf71c;" 
 />
    <glyph glyph-name="numbersign" unicode="#" horiz-adv-x="752" 
d="M709 561h-131l-23 -176h115v-100h-129l-41 -285h-109l41 285h-149l-41 -285h-109l39 285h-127v100h143l25 176h-127v101h139l39 284h111l-41 -284h149l39 284h111l-41 -284h117v-101zM471 561h-152l-22 -176h149z" />
    <glyph glyph-name="dollar" unicode="$" horiz-adv-x="752" 
d="M729 281q0 -74 -23.5 -130t-66 -93.5t-101.5 -56.5t-130 -19v-107h-58v107q-74 0 -134.5 20.5t-103.5 60t-66 97.5t-23 133h153q0 -94 43 -144.5t131 -50.5v328q-91 26 -152.5 56t-93.5 65q-61 70 -61 176q0 61 24 110t65 83.5t97 52.5t121 18v107h58v-107
q64 0 118.5 -17t94.5 -50t62 -82t22 -113h-154q0 141 -143 141v-284q150 -40 221 -93q100 -76 100 -208zM350 596v270q-78 0 -115.5 -30.5t-37.5 -102.5q0 -48 26 -76q37 -40 127 -61zM573 260q0 68 -51 107q-34 25 -114 47v-316q75 0 120 40.5t45 121.5z" />
    <glyph glyph-name="ampersand" unicode="&#x26;" horiz-adv-x="877" 
d="M895 0h-188l-89 109q-101 -123 -270 -123q-68 0 -124.5 18.5t-96.5 54.5t-62 88.5t-22 120.5q0 91 68 168q27 31 65.5 58.5t87.5 52.5q-23 29 -38.5 53t-26.5 43q-31 58 -31 115q0 51 18 93.5t49.5 72.5t74.5 46.5t93 16.5q52 0 96 -15t76.5 -44t51 -72t18.5 -98
q0 -81 -48 -142t-126 -104l150 -180q4 12 8.5 28.5t8.5 34t7 34.5t4 32h135q-6 -74 -23 -129.5t-52 -106.5zM506 762q0 49 -26.5 79.5t-71.5 30.5t-74 -29t-29 -77q0 -49 43 -104l45 -56q28 19 47.5 34.5t30.5 29.5q35 41 35 92zM535 211l-189 235q-46 -29 -70 -43t-26 -16
q-53 -47 -53 -123q0 -75 43 -118.5t112 -43.5q73 0 123 39q9 8 24.5 26t35.5 44z" />
    </font>
</defs>
</svg>
