<?xml version="1.0" standalone="no"?>
<!DOCTYPE svg PUBLIC "-//W3C//DTD SVG 1.1//EN" "http://www.w3.org/Graphics/SVG/1.1/DTD/svg11.dtd" >
<svg>
<metadata>
Created by FontForge 20120731 at Thu Dec 21 14:42:10 2017
 By www-data
Copyright (c) True Corporation Public Company Limited, 2005-2007. All rights reserved.
</metadata>
<defs>
<font id="TrueTextC" horiz-adv-x="0" >
  <font-face 
    font-family="TrueTextC"
    font-weight="400"
    font-stretch="normal"
    units-per-em="2048"
    panose-1="2 0 5 6 5 0 0 2 0 4"
    ascent="1638"
    descent="-410"
    x-height="698"
    cap-height="965"
    bbox="-1015 -880 1499 1665"
    underline-thickness="72"
    underline-position="-123"
    unicode-range="U+0020-F880"
  />
<missing-glyph horiz-adv-x="1599" 
d="M100 0v1599h1399v-1599h-1399zM1401 100v1399h-1200v-1399h1200z" />
    <glyph glyph-name="saraueesp1" unicode="&#xe37;&#xe48;" 
d="M-110 922q-60 11 -115.5 17t-109.5 9q-54 5 -113 6.5t-129 1.5q-51 0 -105.5 -1t-111.5 -1q25 125 108 191.5t208 66.5q16 0 28 -0.5t23 -1.5t23 -3t28 -5v76h86v-107q14 -8 22 -12t11 -6q6 -5 13.5 -10t15.5 -13v148h118v-356zM-232 1016q-15 27 -40 47.5t-57 35t-69 22
t-76 7.5q-63 0 -116 -23t-85 -71q32 5 70 6.5t80 1.5q63 0 135.5 -6t157.5 -20zM-186 1339h-118v226h118v-226z" />
    <glyph glyph-name=".notdef" horiz-adv-x="1599" 
d="M100 0v1599h1399v-1599h-1399zM1401 100v1399h-1200v-1399h1200z" />
    <glyph glyph-name=".null" 
 />
    <glyph glyph-name="nonmarkingreturn" horiz-adv-x="471" 
 />
    <glyph glyph-name="space" unicode=" " horiz-adv-x="471" 
 />
    <glyph glyph-name="space" unicode="&#xa0;" horiz-adv-x="471" 
 />
    <glyph glyph-name="quotesingle" unicode="'" horiz-adv-x="375" 
d="M233 616h-92v349h92v-349z" />
    <glyph glyph-name="parenleft" unicode="(" horiz-adv-x="350" 
d="M365 -265h-89q-54 81 -92 156t-63 144q-58 159 -58 330q0 166 53.5 325t159.5 297h89q-94 -144 -137.5 -299t-43.5 -323q0 -88 10.5 -168t32 -156.5t56 -152t82.5 -153.5z" />
    <glyph glyph-name="parenright" unicode=")" horiz-adv-x="350" 
d="M287 356q0 -163 -54 -323.5t-159 -297.5h-85q91 147 134 300t43 321q0 87 -10.5 167.5t-32 157.5t-55 152.5t-79.5 153.5h85q52 -83 92 -160t67 -153.5t40.5 -155t13.5 -162.5z" />
    <glyph glyph-name="asterisk" unicode="*" horiz-adv-x="475" 
d="M442 801l-145 -51l88 -123l-55 -41l-94 129l-86 -129l-62 41l88 123l-143 51l24 65l144 -53v152h71v-152l144 53z" />
    <glyph glyph-name="plus" unicode="+" horiz-adv-x="758" 
d="M696 295h-272v-272h-92v272h-271v92h271v270h92v-270h272v-92z" />
    <glyph glyph-name="comma" unicode="," horiz-adv-x="330" 
d="M258 72q0 -69 -33 -129.5t-90 -99.5l-61 41q18 9 32.5 23.5t25.5 30.5t18 31.5t10 27.5q-38 4 -63 27t-25 66q0 42 26 67t64 25t67 -28t29 -82z" />
    <glyph glyph-name="hyphen" unicode="-" horiz-adv-x="526" 
d="M459 322h-391v108h391v-108z" />
    <glyph glyph-name="period" unicode="." horiz-adv-x="330" 
d="M252 86q0 -42 -26.5 -64.5t-63.5 -22.5t-63.5 22.5t-26.5 64.5t26.5 66t63.5 24t63.5 -24t26.5 -66z" />
    <glyph glyph-name="slash" unicode="/" horiz-adv-x="451" 
d="M475 987l-401 -1006h-96l397 1006h100z" />
    <glyph glyph-name="zero" unicode="0" horiz-adv-x="758" 
d="M696 471q0 -109 -11 -189.5t-34 -131.5q-73 -163 -274 -163q-199 0 -271 160q-47 109 -47 324q0 220 45 322q75 165 273 165q202 0 272 -163q47 -111 47 -324zM575 471q0 169 -24 246q-46 139 -174 139q-126 0 -170 -137q-14 -42 -20.5 -104t-6.5 -144q0 -172 25 -246
q42 -139 172 -139q125 0 172 137q14 42 20 102.5t6 145.5z" />
    <glyph glyph-name="one" unicode="1" horiz-adv-x="758" 
d="M483 0h-114v686h-250v92q113 0 178 35q83 44 98 145h88v-958z" />
    <glyph glyph-name="two" unicode="2" horiz-adv-x="758" 
d="M670 682q0 -45 -10.5 -84t-30.5 -74q-50 -81 -197 -172q-145 -91 -166 -106q-83 -65 -98 -146h491v-100h-624q0 156 82 250q45 52 186 141q54 32 91 58t57 43q98 83 98 192q0 39 -14 70.5t-39 54t-59.5 35t-74.5 12.5q-91 0 -143 -76q-43 -64 -43 -162h-115
q0 76 20.5 138.5t60 107.5t97 69.5t132.5 24.5q64 0 118.5 -19t94.5 -54.5t63 -87t23 -115.5z" />
    <glyph glyph-name="three" unicode="3" horiz-adv-x="758" 
d="M692 276q0 -138 -98 -219q-88 -70 -232 -70q-74 0 -133 20.5t-100 59.5t-63.5 97t-22.5 133h115q0 -47 13.5 -86t40 -66.5t64.5 -43t86 -15.5q44 0 82 12.5t65.5 36.5t43.5 58t16 77t-15.5 77.5t-42.5 58.5t-64 36.5t-80 12.5l-70 -4v96h49q39 0 72.5 10t58 30t38 48.5
t13.5 66.5q0 75 -45.5 114.5t-124.5 39.5q-45 0 -79 -15.5t-56.5 -43t-33.5 -65.5t-11 -83h-115q0 70 19.5 127t57.5 97.5t92.5 62.5t125.5 22q65 0 119 -16t92.5 -48t60 -80t21.5 -112q0 -30 -10 -58.5t-28 -54t-42.5 -46t-52.5 -33.5q85 -19 129.5 -81t44.5 -153z" />
    <glyph glyph-name="four" unicode="4" horiz-adv-x="758" 
d="M698 225h-129v-225h-108v225h-422v111l438 622h92v-632h129v-101zM461 326v469l-322 -469h322z" />
    <glyph glyph-name="five" unicode="5" horiz-adv-x="758" 
d="M690 303q0 -133 -84 -221q-92 -95 -252 -95q-65 0 -121 18t-97 53t-64 85t-23 115h115q0 -37 15.5 -68.5t42.5 -54.5t64 -36t81 -13q43 0 80 15t64 43.5t42.5 70.5t15.5 96q0 48 -15.5 88.5t-44 69.5t-68.5 45t-89 16q-55 0 -98 -23.5t-80 -68.5l-98 6l88 498h473v-100
h-387l-51 -277q32 32 80 49t102 17q68 0 125 -21t98 -62.5t63.5 -102.5t22.5 -142z" />
    <glyph glyph-name="six" unicode="6" horiz-adv-x="758" 
d="M705 305q0 -125 -70 -213q-84 -105 -252 -105q-191 0 -270 150q-29 57 -44.5 133.5t-15.5 173.5q0 223 74 357q88 157 279 157q61 0 111 -17t85 -48.5t54.5 -77t19.5 -102.5h-115q-8 69 -49.5 106t-110.5 37q-131 0 -190 -125q-22 -46 -32.5 -105.5t-10.5 -131.5
q83 122 242 122q68 0 122.5 -23t93 -64.5t59 -98.5t20.5 -125zM582 297q0 46 -12.5 86t-37 69t-60.5 45.5t-83 16.5t-84 -16t-62.5 -44.5t-39 -68t-13.5 -86.5q0 -46 13.5 -85t39 -67.5t62.5 -44.5t84 -16q44 0 79.5 16.5t61 45t39 67t13.5 82.5z" />
    <glyph glyph-name="seven" unicode="7" horiz-adv-x="758" 
d="M690 844q-153 -155 -256 -381q-57 -125 -84.5 -239.5t-27.5 -223.5h-127q0 117 27.5 229.5t84.5 229.5q48 100 114.5 192t151.5 183h-503v108h620v-98z" />
    <glyph glyph-name="eight" unicode="8" horiz-adv-x="758" 
d="M700 276q0 -69 -23.5 -122.5t-66 -90.5t-101 -56.5t-128.5 -19.5q-72 0 -130 16.5t-101 51.5q-95 77 -95 221q0 88 43.5 148.5t124.5 89.5q-60 25 -96.5 79t-36.5 120q0 57 21.5 102.5t59.5 77t89.5 48.5t110.5 17q72 0 128.5 -18.5t94.5 -56.5q68 -68 68 -170
q0 -63 -37 -116t-97 -83q172 -52 172 -238zM541 709q0 72 -43.5 109.5t-118.5 37.5q-37 0 -67.5 -9.5t-53 -28t-35 -46t-12.5 -63.5q0 -38 13 -66.5t35.5 -48t53.5 -29.5t68 -10q34 0 63.5 10.5t51 30t33.5 48.5t12 65zM578 272q0 38 -15.5 71.5t-42.5 58t-63 39t-76 14.5
q-44 0 -81 -13t-64 -37t-42.5 -58.5t-15.5 -76.5q0 -87 54.5 -135.5t148.5 -48.5q43 0 79 14t62.5 39t41 59t14.5 74z" />
    <glyph glyph-name="nine" unicode="9" horiz-adv-x="758" 
d="M692 500q0 -258 -80 -385.5t-254 -127.5q-123 0 -200.5 61t-89.5 183h114q6 -69 53.5 -107t122.5 -38q217 0 217 369q-37 -63 -95 -96t-130 -33q-73 0 -129.5 22.5t-95 64t-58.5 100.5t-20 132q0 70 23 127.5t64 98.5t99 64t129 23q152 0 232 -92q98 -113 98 -366z
M555 639q0 94 -49 152q-56 65 -148 65q-48 0 -83.5 -16.5t-59 -46.5t-34.5 -71.5t-11 -90.5q0 -42 13.5 -79t38.5 -64.5t59.5 -43.5t76.5 -16q43 0 79.5 16t62.5 44t40.5 67t14.5 84z" />
    <glyph glyph-name="colon" unicode=":" horiz-adv-x="330" 
d="M252 606q0 -42 -26.5 -66t-63.5 -24t-63.5 24t-26.5 66t26.5 66t63.5 24t63.5 -24t26.5 -66zM252 86q0 -42 -26.5 -64.5t-63.5 -22.5t-63.5 22.5t-26.5 64.5t26.5 66t63.5 24t63.5 -24t26.5 -66z" />
    <glyph glyph-name="semicolon" unicode=";" horiz-adv-x="330" 
d="M252 606q0 -42 -26.5 -66t-63.5 -24t-63.5 24t-26.5 66t26.5 66t63.5 24t63.5 -24t26.5 -66zM258 72q0 -69 -33 -129.5t-90 -99.5l-61 41q18 9 32.5 23.5t25.5 30.5t18 31.5t10 27.5q-38 4 -63 27t-25 66q0 42 26 67t64 25t67 -28t29 -82z" />
    <glyph glyph-name="less" unicode="&#x3c;" horiz-adv-x="758" 
d="M694 -7l-633 308v82l633 311v-92l-520 -260l520 -260v-89z" />
    <glyph glyph-name="equal" unicode="=" horiz-adv-x="758" 
d="M696 418h-635v92h635v-92zM696 172h-635v92h635v-92z" />
    <glyph glyph-name="greater" unicode="&#x3e;" horiz-adv-x="758" 
d="M694 301l-633 -308v89l521 260l-521 260v92l633 -311v-82z" />
    <glyph glyph-name="question" unicode="?" horiz-adv-x="735" 
d="M672 729q0 -80 -41 -139q-10 -14 -32.5 -38.5t-57.5 -59.5q-62 -52 -80 -82q-41 -62 -41 -142h-117q0 90 37 160q27 55 90 115q62 50 84 80q41 53 41 106q0 37 -14 64.5t-39 46t-58.5 28t-72.5 9.5q-100 0 -156.5 -67t-56.5 -185h-117q0 85 22 152.5t65 114t105 71
t142 24.5q64 0 118.5 -17t94.5 -50t62 -81t22 -110zM451 92q0 -37 -23.5 -64.5t-65.5 -27.5t-65 25t-23 67q0 90 88 90q45 0 67 -24t22 -66z" />
    <glyph glyph-name="at" unicode="@" horiz-adv-x="1081" 
d="M1018 571q0 -163 -109 -284q-98 -107 -207 -107q-38 0 -63 21.5t-25 66.5q-37 -38 -79 -65t-93 -27q-43 0 -78 16.5t-60.5 45t-39.5 68t-14 85.5q0 151 88 266q89 117 229 117q51 0 90 -25t62 -85l31 86h86l-115 -385q-6 -25 -10 -41t-4 -27q0 -43 32 -43q61 0 123 102
q64 100 64 209q0 158 -109 252q-108 96 -258 96q-170 0 -291 -127q-118 -124 -118 -307q0 -178 122 -303t295 -125q47 0 94.5 12t91 33.5t81.5 51.5t67 67h86q-32 -55 -78 -98.5t-101 -73.5t-117.5 -46t-127.5 -16q-212 0 -360 144q-146 144 -146 362q0 210 148 355t354 145
q193 0 324 -119q135 -116 135 -297zM678 557q0 25 -9 47.5t-24.5 39.5t-35.5 27.5t-42 10.5q-88 0 -153 -92q-62 -95 -62 -191q0 -57 30.5 -94t84.5 -37q82 0 147 99q64 97 64 190z" />
    <glyph glyph-name="A" unicode="A" horiz-adv-x="877" 
d="M887 0h-142l-106 291h-408l-108 -291h-130l376 965h141zM598 399l-160 449l-166 -449h326z" />
    <glyph glyph-name="B" unicode="B" horiz-adv-x="926" 
d="M864 276q0 -114 -73 -190q-42 -43 -96 -64.5t-124 -21.5h-467v965h351q90 0 153.5 -5t108.5 -34q48 -26 78 -77t30 -120q0 -75 -38.5 -131.5t-104.5 -85.5q88 -20 135 -81t47 -155zM696 705q0 91 -59 124q-23 14 -59.5 20.5t-85.5 6.5h-259v-305h259q204 0 204 154z
M737 281q0 45 -15.5 76t-43 49.5t-66.5 27t-86 8.5h-293v-333h322q85 0 133.5 46.5t48.5 125.5z" />
    <glyph glyph-name="C" unicode="C" horiz-adv-x="977" 
d="M922 365q-9 -92 -41.5 -163.5t-85.5 -120.5t-126.5 -74.5t-164.5 -25.5q-218 0 -336 142q-111 135 -111 356q0 219 117 359q125 149 340 149q80 0 148.5 -20.5t120 -60t85 -98t43.5 -134.5h-127q-20 100 -92 153.5t-178 53.5q-164 0 -250 -119q-38 -54 -58 -121t-20 -152
q0 -90 20 -160t58 -124q86 -119 250 -119q64 0 115.5 20.5t88 57.5t56 88t19.5 113h129z" />
    <glyph glyph-name="D" unicode="D" horiz-adv-x="952" 
d="M901 506q0 -251 -112.5 -378.5t-352.5 -127.5h-332v965h332q227 0 346 -113.5t119 -345.5zM772 487q0 181 -72 271q-77 98 -249 98h-218v-747h213q162 0 244 99.5t82 278.5z" />
    <glyph glyph-name="E" unicode="E" horiz-adv-x="825" 
d="M776 0h-672v965h668v-109h-539v-305h502v-109h-502v-333h543v-109z" />
    <glyph glyph-name="F" unicode="F" horiz-adv-x="776" 
d="M739 856h-506v-305h445v-109h-445v-442h-129v965h635v-109z" />
    <glyph glyph-name="G" unicode="G" horiz-adv-x="1026" 
d="M942 0h-82l-33 121q-54 -74 -134.5 -107t-174.5 -33q-210 0 -336 140q-125 143 -125 342q0 223 115 368q124 156 346 156q169 0 273 -74q116 -83 141 -245h-127q-9 52 -34 92t-62.5 67t-86 40.5t-104.5 13.5q-163 0 -254 -127q-78 -113 -78 -283q0 -82 21 -148t63 -120
q93 -117 248 -117q73 0 130.5 23.5t97 65t60.5 99t21 125.5h-309v109h424v-508z" />
    <glyph glyph-name="H" unicode="H" horiz-adv-x="977" 
d="M870 0h-129v442h-508v-442h-129v965h129v-414h508v414h129v-965z" />
    <glyph glyph-name="I" unicode="I" horiz-adv-x="350" 
d="M240 0h-129v965h129v-965z" />
    <glyph glyph-name="J" unicode="J" horiz-adv-x="702" 
d="M596 240q0 -113 -61 -181q-75 -78 -224 -78q-137 0 -208.5 70t-71.5 207v59h127v-41q0 -92 34 -141t121 -49q85 0 119.5 43t34.5 131v705h129v-725z" />
    <glyph glyph-name="K" unicode="K" horiz-adv-x="901" 
d="M905 0h-162l-348 487l-162 -149v-338h-129v965h129v-482l490 482h166l-406 -390z" />
    <glyph glyph-name="L" unicode="L" horiz-adv-x="752" 
d="M745 0h-641v965h129v-856h512v-109z" />
    <glyph glyph-name="M" unicode="M" horiz-adv-x="1178" 
d="M1069 0h-121v803l-305 -803h-108l-302 803l-4 -803h-120v965h176l303 -811l305 811h176v-965z" />
    <glyph glyph-name="N" unicode="N" horiz-adv-x="977" 
d="M872 0h-139l-504 774l-4 -774h-121v965h136l510 -783l2 783h120v-965z" />
    <glyph glyph-name="O" unicode="O" horiz-adv-x="1028" 
d="M977 483q0 -211 -115 -350q-126 -152 -348 -152q-219 0 -346 150q-117 141 -117 352q0 108 29 194.5t86 156.5q126 153 348 153q220 0 346 -153q117 -143 117 -351zM848 483q0 163 -78 273q-89 125 -256 125q-81 0 -145 -31t-109 -94q-80 -113 -80 -273q0 -163 78 -272
q89 -125 256 -125q165 0 254 125q80 113 80 272z" />
    <glyph glyph-name="P" unicode="P" horiz-adv-x="877" 
d="M825 680q0 -137 -76 -211t-221 -74h-295v-395h-129v965h424q145 0 221 -74t76 -211zM696 680q0 88 -50 132t-161 44h-252v-352h252q211 0 211 176z" />
    <glyph glyph-name="Q" unicode="Q" horiz-adv-x="1028" 
d="M977 483q0 -56 -9.5 -110t-28 -103.5t-46.5 -93.5t-64 -78l127 -98l-63 -81l-148 116q-98 -54 -231 -54q-219 0 -346 150q-117 141 -117 352q0 108 29 194.5t86 156.5q126 153 348 153q220 0 346 -153q117 -143 117 -351zM848 483q0 163 -78 273q-89 125 -256 125
q-81 0 -145 -31t-109 -94q-80 -113 -80 -273q0 -163 78 -272q89 -125 256 -125q37 0 70.5 6.5t62.5 20.5l-106 84l67 79l129 -104q57 57 84 137t27 174z" />
    <glyph glyph-name="R" unicode="R" horiz-adv-x="926" 
d="M887 0h-144q-22 22 -26 115q-2 46 -3.5 76.5t-4.5 46.5q-9 54 -22.5 88t-33 53t-46 26t-60.5 7h-314v-412h-129v965h455q68 0 122.5 -17.5t92.5 -50.5t58 -79.5t20 -104.5q0 -94 -40.5 -157.5t-125.5 -88.5q76 -15 111 -74q25 -42 34 -170q7 -63 10 -95.5t5 -37.5
q12 -52 41 -90zM725 692q0 78 -39 117q-47 47 -133 47h-320v-336h269q52 0 91.5 8t65.5 25q66 40 66 139z" />
    <glyph glyph-name="S" unicode="S" horiz-adv-x="877" 
d="M825 264q0 -143 -120 -219q-107 -64 -256 -64q-174 0 -281 76q-119 89 -119 260h123q0 -114 86 -176q76 -55 195 -55q100 0 165 35q80 44 80 139q0 103 -143 150q-17 5 -60.5 15t-115.5 26q-72 17 -122 34t-81 37q-96 61 -96 185q0 69 27 121.5t81 91.5q48 34 109 50.5
t133 16.5q157 0 250 -72q104 -80 104 -233h-120q-11 103 -72.5 151t-167.5 48q-92 0 -148 -35q-67 -43 -67 -131q0 -94 141 -133l166 -39q75 -17 128 -37t85 -43q96 -71 96 -199z" />
    <glyph glyph-name="T" unicode="T" horiz-adv-x="776" 
d="M774 856h-321v-856h-129v856h-322v109h772v-109z" />
    <glyph glyph-name="U" unicode="U" horiz-adv-x="977" 
d="M877 348q0 -185 -97.5 -276t-283.5 -91q-192 0 -294 88t-102 279v617h129v-617q0 -129 69 -195.5t198 -66.5q252 0 252 262v617h129v-617z" />
    <glyph glyph-name="V" unicode="V" horiz-adv-x="825" 
d="M829 965l-344 -965h-145l-340 965h137l277 -836l280 836h135z" />
    <glyph glyph-name="W" unicode="W" horiz-adv-x="1251" 
d="M1235 965l-258 -965h-133l-221 811l-226 -811h-133l-248 965h131l189 -803l219 803h139l215 -803l199 803h127z" />
    <glyph glyph-name="X" unicode="X" horiz-adv-x="825" 
d="M827 0h-157l-258 399l-269 -399h-143l336 496l-318 469h154l240 -377l252 377h143l-320 -469z" />
    <glyph glyph-name="Y" unicode="Y" horiz-adv-x="877" 
d="M872 965l-368 -570v-395h-129v395l-373 570h154l288 -459l283 459h145z" />
    <glyph glyph-name="Z" unicode="Z" horiz-adv-x="825" 
d="M797 0h-766v109l600 747h-555v109h704v-109l-598 -747h615v-109z" />
    <glyph glyph-name="bracketleft" unicode="[" horiz-adv-x="350" 
d="M350 -265h-252v1252h252v-90h-145v-1070h145v-92z" />
    <glyph glyph-name="backslash" unicode="\" horiz-adv-x="451" 
d="M475 -19h-100l-397 1006h96z" />
    <glyph glyph-name="bracketright" unicode="]" horiz-adv-x="350" 
d="M252 -265h-252v92h145v1070h-145v90h252v-1252z" />
    <glyph glyph-name="asciicircum" unicode="^" horiz-adv-x="811" 
d="M743 356h-94l-246 488l-239 -488h-96l294 586h87z" />
    <glyph glyph-name="underscore" unicode="_" horiz-adv-x="758" 
d="M758 -212h-758v92h758v-92z" />
    <glyph glyph-name="grave" unicode="`" horiz-adv-x="301" 
d="M233 795h-88l-173 192h145z" />
    <glyph glyph-name="a" unicode="a" horiz-adv-x="725" 
d="M707 2q-35 -15 -84 -15q-97 0 -97 105q-93 -105 -245 -105q-106 0 -164 42q-68 51 -68 151q0 54 18.5 93t53.5 65q47 33 164 57q42 8 83 14.5t83 14.5q69 18 69 74q0 68 -49 96q-37 20 -106 20q-82 0 -128.5 -29.5t-46.5 -103.5h-114q0 119 90 181q80 53 205 53
q60 0 104 -9t76 -26q84 -47 84 -158v-358q0 -48 5.5 -63t29.5 -15q20 0 37 6v-90zM518 244v116q-13 -10 -36 -16.5t-51.5 -12t-60.5 -10t-63 -10.5q-63 -8 -100 -35.5t-37 -87.5q0 -54 37.5 -78t97.5 -24q103 0 164 55q49 46 49 103z" />
    <glyph glyph-name="b" unicode="b" horiz-adv-x="801" 
d="M754 348q0 -78 -20 -141.5t-60 -114.5q-86 -105 -240 -105q-32 0 -62.5 4.5t-56.5 14.5q-71 29 -106 88l-4 -94h-115v965h115v-361q29 57 89 84t138 27q149 0 240 -109q82 -100 82 -258zM631 356q0 107 -51 179q-58 79 -164 79q-109 0 -166 -82q-49 -70 -49 -182
q0 -56 13.5 -104t41 -83.5t69 -56t97.5 -20.5q106 0 162 84q47 71 47 186z" />
    <glyph glyph-name="c" unicode="c" horiz-adv-x="725" 
d="M684 256q-20 -131 -98.5 -200t-210.5 -69q-77 0 -137.5 25t-102.5 71.5t-64 111.5t-22 145q0 82 21.5 151t63.5 118.5t103.5 77.5t141.5 28q61 0 113.5 -15.5t92.5 -45.5t64.5 -75t30.5 -104h-119q-29 139 -174 139q-59 0 -100 -20t-67 -56t-38 -86.5t-12 -111.5
q0 -103 47 -174q56 -80 158 -80q81 0 130.5 44t61.5 126h117z" />
    <glyph glyph-name="d" unicode="d" horiz-adv-x="801" 
d="M711 0h-115v94q-31 -57 -90.5 -82t-134.5 -25q-78 0 -138 27t-101 75.5t-62 115.5t-21 147q0 155 78 254q85 109 242 109q31 0 63 -6.5t62 -19.5t56 -34t44 -49l2 359h115v-965zM600 348q0 114 -49 184q-57 82 -172 82q-107 0 -162 -84q-47 -71 -47 -186
q0 -54 12.5 -98.5t38.5 -79.5q59 -80 166 -80q106 0 164 82q49 70 49 180z" />
    <glyph glyph-name="e" unicode="e" horiz-adv-x="725" 
d="M694 315h-524q0 -49 13.5 -91t40.5 -72.5t68 -48t95 -17.5q152 0 182 135h113q-23 -115 -99.5 -174.5t-199.5 -59.5q-81 0 -143 25.5t-104.5 73t-64.5 115t-22 151.5q0 159 92 260q94 103 236 103q168 0 252 -135q65 -110 65 -265zM571 416q0 42 -15 78t-42 63t-63.5 42
t-79.5 15q-44 0 -81 -16t-63.5 -43t-41.5 -63t-15 -76h401z" />
    <glyph glyph-name="f" unicode="f" horiz-adv-x="399" 
d="M401 864q-7 3 -17.5 5t-21 3t-18 1.5t-8.5 0.5q-45 0 -66.5 -17t-21.5 -60v-99h135v-100h-135v-598h-115v598h-117v100h117v105q0 174 195 174q40 0 73 -12v-101z" />
    <glyph glyph-name="g" unicode="g" horiz-adv-x="776" 
d="M690 59q0 -341 -325 -341q-57 0 -106 11t-87 34q-96 55 -96 162h114q0 -29 16 -50t41.5 -35.5t58 -21.5t65.5 -7q109 0 160 70.5t51 192.5v45q-31 -63 -90 -93.5t-132 -30.5q-74 0 -132 26t-98 72.5t-60.5 111t-20.5 141.5q0 146 70 246q85 123 252 123q147 0 209 -117h2
v100h108v-639zM575 365q0 106 -43 170q-52 79 -155 79q-52 0 -91 -19t-64.5 -53t-38.5 -80.5t-13 -101.5q0 -112 41 -180q26 -43 65 -64.5t93 -21.5q105 0 159 86q47 74 47 185z" />
    <glyph glyph-name="h" unicode="h" horiz-adv-x="752" 
d="M666 0h-115v473q0 63 -38.5 102t-104.5 39q-104 0 -155.5 -59.5t-51.5 -159.5v-395h-115v965h115v-369q15 30 39 52.5t53.5 37t63 22t67.5 7.5q132 0 190 -70q52 -61 52 -186v-459z" />
    <glyph glyph-name="i" unicode="i" horiz-adv-x="301" 
d="M209 825h-115v140h115v-140zM209 0h-115v698h115v-698z" />
    <glyph glyph-name="j" unicode="j" horiz-adv-x="301" 
d="M209 825h-115v140h115v-140zM209 -87q0 -91 -43.5 -134.5t-124.5 -43.5l-56 6v98l44 -2q37 0 51 20.5t14 75.5v765h115v-785z" />
    <glyph glyph-name="k" unicode="k" horiz-adv-x="702" 
d="M702 0h-147l-240 365l-106 -101v-264h-115v965h115v-572l317 305h156l-279 -254z" />
    <glyph glyph-name="l" unicode="l" horiz-adv-x="301" 
d="M209 0h-115v965h115v-965z" />
    <glyph glyph-name="m" unicode="m" horiz-adv-x="1153" 
d="M1067 0h-115v459q0 77 -24 110q-30 45 -111 45q-41 0 -74.5 -12.5t-57.5 -35.5t-37 -56t-13 -74v-436h-117v459q0 77 -24 110q-30 45 -107 45q-92 0 -143 -69q-43 -55 -43 -109v-436h-115v698h109v-102q83 119 229 119q69 0 119.5 -28t70.5 -91q18 27 42.5 49t53.5 37.5
t60.5 24t63.5 8.5q112 0 172.5 -48.5t60.5 -154.5v-512z" />
    <glyph glyph-name="n" unicode="n" horiz-adv-x="752" 
d="M666 0h-115v473q0 63 -38.5 102t-104.5 39q-104 0 -155.5 -59.5t-51.5 -159.5v-395h-115v698h109v-110q76 127 229 127q132 0 190 -70q52 -61 52 -186v-459z" />
    <glyph glyph-name="o" unicode="o" horiz-adv-x="776" 
d="M727 348q0 -80 -23 -146t-66.5 -114t-106.5 -74.5t-144 -26.5q-80 0 -142.5 26.5t-106 74.5t-66.5 114t-23 146t23 147.5t66.5 116t106 76t142.5 27.5q82 0 145.5 -26.5t106.5 -75t65.5 -116t22.5 -149.5zM606 348q0 61 -16.5 110.5t-46 84t-69.5 53t-87 18.5
q-46 0 -85.5 -18.5t-69 -53t-46 -84t-16.5 -110.5q0 -62 16.5 -110.5t45.5 -82t68.5 -51.5t86.5 -18t87 17.5t69.5 51t46 82.5t16.5 111z" />
    <glyph glyph-name="p" unicode="p" horiz-adv-x="801" 
d="M754 348q0 -78 -20 -141.5t-60 -114.5q-86 -105 -240 -105q-32 0 -62.5 4.5t-56.5 14.5q-71 29 -106 88l-4 -359h-115v963h115v-94q29 57 89 84t138 27q149 0 240 -109q82 -100 82 -258zM631 356q0 107 -51 179q-58 79 -164 79q-109 0 -166 -82q-49 -70 -49 -182
q0 -56 13.5 -104t41 -83.5t69 -56t97.5 -20.5q106 0 162 84q47 71 47 186z" />
    <glyph glyph-name="q" unicode="q" horiz-adv-x="801" 
d="M711 -265h-115v359q-31 -57 -90.5 -82t-134.5 -25q-78 0 -138 27t-101 75.5t-62 115.5t-21 147q0 155 78 254q85 109 242 109q31 0 63 -6.5t62 -19.5t56 -34t44 -49l2 92h115v-963zM600 348q0 114 -49 184q-57 82 -172 82q-107 0 -162 -84q-47 -71 -47 -186
q0 -54 12.5 -98.5t38.5 -79.5q59 -80 166 -80q106 0 164 82q49 70 49 180z" />
    <glyph glyph-name="r" unicode="r" horiz-adv-x="451" 
d="M451 594q-136 0 -195 -71.5t-59 -211.5v-311h-115v698h108v-147q45 81 106 122.5t155 41.5v-121z" />
    <glyph glyph-name="s" unicode="s" horiz-adv-x="676" 
d="M635 205q0 -116 -94 -174q-39 -23 -89.5 -33.5t-113.5 -10.5q-66 0 -117.5 12t-89.5 38q-90 63 -90 184h117q0 -72 57 -106q47 -29 129 -29q69 0 111 16q59 26 59 86q0 66 -104 101q-11 3 -43 10t-84 18q-102 26 -154 60q-72 51 -72 139q0 98 78 148q79 51 182 51
q130 0 201 -45q86 -56 86 -174h-115q-3 31 -17 53t-35.5 36.5t-49.5 21.5t-59 7t-58 -5t-47.5 -15.5t-32.5 -27.5t-12 -42q0 -53 74 -82q9 -5 47.5 -14t108.5 -25q54 -12 93 -26t62 -31q72 -51 72 -141z" />
    <glyph glyph-name="t" unicode="t" horiz-adv-x="426" 
d="M385 0h-88q-94 0 -127 27q-39 31 -39 127v444h-119v100h119v211h115v-211h139v-100h-139v-434q0 -21 3 -33.5t12 -19t26 -9t45 -2.5h53v-100z" />
    <glyph glyph-name="u" unicode="u" horiz-adv-x="752" 
d="M666 0h-109v111q-76 -124 -229 -124q-134 0 -191 68q-51 60 -51 185v458h115v-473q0 -63 38.5 -101t104.5 -38q50 0 88.5 15.5t65 44t40 68.5t13.5 89v395h115v-698z" />
    <glyph glyph-name="v" unicode="v" horiz-adv-x="676" 
d="M657 698l-256 -698h-122l-261 698h129l197 -581l193 581h120z" />
    <glyph glyph-name="w" unicode="w" horiz-adv-x="1024" 
d="M1001 698l-223 -698h-121l-143 555l-143 -555h-123l-225 698h127l157 -571l144 571h127l145 -571l160 571h118z" />
    <glyph glyph-name="x" unicode="x" horiz-adv-x="700" 
d="M688 0h-147l-195 289l-194 -289h-140l262 369l-243 329h147l168 -243l174 243h137l-239 -321z" />
    <glyph glyph-name="y" unicode="y" horiz-adv-x="676" 
d="M666 698l-306 -789q-21 -53 -41 -88.5t-43 -57.5t-51.5 -31.5t-66.5 -9.5q-20 0 -40 3.5t-40 9.5v106q23 -8 38 -12t29 -4q36 0 57 15.5t38 47.5l49 116l-279 694h131l203 -571l199 571h123z" />
    <glyph glyph-name="z" unicode="z" horiz-adv-x="649" 
d="M618 0h-587v88l420 510h-394v100h543v-77l-428 -521h446v-100z" />
    <glyph glyph-name="braceleft" unicode="{" horiz-adv-x="451" 
d="M418 -265h-94q-57 0 -99 45q-24 26 -36.5 58.5t-12.5 74.5v243q0 34 -9 63t-24.5 50t-35.5 32.5t-41 11.5v93q21 0 41 12t35.5 33t24.5 50t9 64v246q0 41 12.5 73.5t33 55.5t47 35t55.5 12h94v-80h-68q-43 0 -55 -43q-10 -39 -10 -73v-248q0 -68 -27 -111
q-17 -28 -39.5 -45t-50.5 -25q42 -9 70 -43q23 -26 35 -60.5t12 -82.5v-243q0 -51 14 -83.5t51 -32.5h68v-82z" />
    <glyph glyph-name="bar" unicode="|" horiz-adv-x="301" 
d="M197 -19h-93v1006h93v-1006z" />
    <glyph glyph-name="braceright" unicode="}" horiz-adv-x="451" 
d="M385 313q-22 0 -42.5 -11.5t-36 -32.5t-25 -50t-9.5 -63v-243q0 -40 -12.5 -73t-32.5 -56t-46 -36t-54 -13h-94v82h67q41 0 58 53q5 15 6.5 30.5t1.5 32.5v243q0 34 6.5 61.5t20.5 49.5q17 29 39.5 46t50.5 25q-20 5 -38 15.5t-32 27.5q-47 53 -47 142v245q0 51 -14.5 85
t-51.5 34h-67v80h94q28 0 54 -12t46 -35t32.5 -55.5t12.5 -73.5v-246q0 -35 9.5 -64t25 -50t36 -33t42.5 -12v-93z" />
    <glyph glyph-name="asciitilde" unicode="~" horiz-adv-x="811" 
d="M717 365q-25 -36 -46 -59t-40.5 -36t-39.5 -17.5t-42 -4.5q-23 -2 -48.5 6t-52 21t-53.5 27t-53 24q-47 18 -86 18q-49 0 -84 -47q-6 -8 -13.5 -21.5t-17.5 -33.5l-47 67q14 26 28.5 46t31.5 34q43 37 108 37q20 0 42 -4.5t48 -13.5q11 -4 25.5 -10t34.5 -15
q14 -6 32 -15t41 -20q45 -20 66 -20q38 0 67 32q10 10 22.5 28t29.5 44z" />
    <glyph glyph-name="quotedbl" unicode="&#x22;" horiz-adv-x="575" 
d="M428 616h-92v349h92v-349zM240 616h-93v349h93v-349z" />
    <glyph glyph-name="exclam" unicode="!" horiz-adv-x="350" 
d="M240 668l-35 -414h-60l-34 414v297h129v-297zM262 78q0 -37 -23 -63t-65 -26t-65 23.5t-23 65.5q0 90 88 90q43 0 65.5 -24t22.5 -66z" />
    <glyph glyph-name="guillemotleft" unicode="&#xab;" horiz-adv-x="627" 
d="M539 154l-207 161v121l207 162v-117l-136 -106l136 -105v-116zM272 154l-204 161v121l204 162v-117l-135 -106l135 -105v-116z" />
    <glyph glyph-name="logicalnot" unicode="&#xac;" horiz-adv-x="758" 
d="M721 119h-82v178h-604v90h686v-268z" />
    <glyph glyph-name="registered" unicode="&#xae;" horiz-adv-x="1081" 
d="M1049 485q0 -216 -150 -360q-149 -144 -356 -144q-212 0 -361 142q-149 143 -149 362q0 211 147 357q76 72 165.5 108.5t197.5 36.5q208 0 356 -145q150 -146 150 -357zM956 485q0 91 -29 167t-89 139q-120 122 -295 122q-180 0 -299 -125q-119 -121 -119 -303
q0 -186 119 -311q120 -123 299 -123q175 0 295 123q60 63 89 140t29 171zM793 188h-99l-159 254h-99v-254h-92v590h229q207 0 207 -168q0 -75 -41.5 -114t-113.5 -47zM688 614q0 51 -36 71t-93 20h-123v-189h96q49 0 79.5 6t47.5 18.5t23 31t6 42.5z" />
    <glyph glyph-name="degree" unicode="&#xb0;" horiz-adv-x="541" 
d="M266 915q43 0 80.5 -16t65 -43t43.5 -64t16 -79t-16 -79t-43.5 -64.5t-65 -43.5t-80.5 -16q-41 0 -77 15.5t-63.5 43t-43.5 64.5t-16 80q0 40 15.5 77t42.5 64.5t63.5 44t78.5 16.5zM266 858q-31 0 -57.5 -11t-46 -30.5t-30.5 -46t-11 -57.5q0 -30 11.5 -57t31 -47
t46 -32t56.5 -12q61 0 105 43q45 46 45 105q0 30 -12 56.5t-32.5 46t-47.5 31t-58 11.5z" />
    <glyph glyph-name="paragraph" unicode="&#xb6;" horiz-adv-x="727" 
d="M629 -244h-62v1356h-145v-1356h-55v805q-168 0 -263 62q-104 74 -104 235q0 153 94 229q90 66 248 66h389v-41h-102v-1356z" />
    <glyph glyph-name="periodcentered" unicode="&#xb7;" horiz-adv-x="338" 
d="M170 520q31 0 51.5 -21.5t20.5 -49.5q0 -31 -21.5 -52.5t-50.5 -21.5q-33 0 -53.5 20.5t-20.5 53.5q0 30 20.5 50.5t53.5 20.5z" />
    <glyph glyph-name="periodcentered" unicode="&#x2219;" horiz-adv-x="338" 
d="M170 520q31 0 51.5 -21.5t20.5 -49.5q0 -31 -21.5 -52.5t-50.5 -21.5q-33 0 -53.5 20.5t-20.5 53.5q0 30 20.5 50.5t53.5 20.5z" />
    <glyph glyph-name="guillemotright" unicode="&#xbb;" horiz-adv-x="627" 
d="M559 315l-207 -161v116l135 105l-135 106v117l207 -162v-121zM293 315l-205 -161v116l135 105l-135 106v117l205 -162v-121z" />
    <glyph glyph-name="multiply" unicode="&#xd7;" horiz-adv-x="758" 
d="M692 90l-65 -63l-250 249l-250 -249l-64 65l248 250l-248 248l64 65l250 -247l250 249l65 -65l-250 -250z" />
    <glyph glyph-name="divide" unicode="&#xf7;" horiz-adv-x="758" 
d="M455 600q0 -37 -20.5 -59.5t-55.5 -22.5q-32 0 -54 23.5t-22 58.5q0 37 20.5 59.5t55.5 22.5q32 0 54 -23.5t22 -58.5zM707 295h-656v92h656v-92zM455 82q0 -37 -20.5 -59.5t-55.5 -22.5q-32 0 -54 23.5t-22 58.5q0 37 20.5 59.5t55.5 22.5q32 0 54 -23.5t22 -58.5z" />
    <glyph glyph-name="uni0E00" unicode="&#xe00;" horiz-adv-x="205" 
 />
    <glyph glyph-name="uni0E01" unicode="&#xe01;" horiz-adv-x="846" 
d="M733 0h-119v580q0 37 -17 66t-47 48t-70.5 29t-86.5 10q-72 0 -125 -19.5t-84 -51.5q32 -11 67.5 -25t80.5 -39q-48 -26 -74.5 -60.5t-26.5 -76.5v-461h-118v453q0 32 14.5 64t56.5 61q-32 17 -67.5 27.5t-77.5 21.5q21 48 56 87t81.5 66t102.5 41.5t118 14.5
q76 0 138 -15.5t106 -47t68 -78.5t24 -111v-584z" />
    <glyph glyph-name="uni0E02" unicode="&#xe02;" horiz-adv-x="791" 
d="M678 158q0 -46 -11.5 -76.5t-36.5 -48.5t-64 -25.5t-93 -7.5h-344v102h102v289q0 53 45 103q103 110 103 143q0 45 -32.5 73.5t-86.5 28.5q-43 0 -67 -12q38 -11 64 -41.5t26 -75.5q0 -27 -10 -51t-28 -42t-42 -28t-51 -10q-29 0 -54.5 9.5t-45 28.5t-31 47t-11.5 65
q0 74 62 133q72 69 190 69q52 0 93.5 -14t71 -40t45 -62t15.5 -80q0 -65 -92 -166q-45 -50 -45 -98v-269h92h29q27 0 44 2.5t27 10.5t13.5 23t3.5 40v641h119v-661zM207 610q0 23 -16 39.5t-39 16.5t-39.5 -16.5t-16.5 -39.5t16.5 -39t39.5 -16t39 16t16 39z" />
    <glyph glyph-name="uni0E03" unicode="&#xe03;" horiz-adv-x="813" 
d="M700 158q0 -46 -11.5 -76.5t-36 -48.5t-63.5 -25.5t-93 -7.5h-344v102h102v299q0 61 76 131q78 76 78 117q0 25 -19 53q-3 5 -7.5 10t-10.5 13q-3 0 -13.5 -6.5t-23.5 -16t-26 -20t-21 -18.5l-105 65q-8 -6 -21.5 -19.5t-21.5 -25.5q60 0 96.5 -32.5t36.5 -86.5
q0 -27 -10.5 -51t-28 -41t-41.5 -27t-51 -10q-30 0 -56 11t-44.5 31.5t-29.5 49.5t-11 66q0 39 13.5 77t37.5 70.5t55.5 56.5t67.5 36q5 -2 17 -9.5t32 -21.5t34 -23.5t22 -13.5q14 10 30 21.5t30 21t25 16t15 6.5q32 0 78 -49q57 -60 57 -135q0 -62 -94 -162
q-47 -53 -47 -96v-287h92h29q27 0 44 2.5t26.5 10.5t13.5 23t4 40v641h118v-661zM199 563q0 23 -16.5 39t-39.5 16t-39 -16t-16 -39t16 -39t39 -16t39.5 16t16.5 39z" />
    <glyph glyph-name="uni0E04" unicode="&#xe04;" horiz-adv-x="874" 
d="M762 0h-119v545q0 84 -55 133q-61 55 -176 55q-50 0 -92.5 -13.5t-73.5 -38t-48.5 -58.5t-17.5 -74q0 -14 4.5 -62t12.5 -133q5 -42 6.5 -84t1.5 -84q5 40 12.5 81.5t18.5 86.5q9 41 21 90t33.5 91.5t56.5 71t89 28.5q30 0 55.5 -11t44 -29.5t29 -43.5t10.5 -53
q0 -29 -10.5 -54t-29.5 -43.5t-44 -29.5t-53 -11q-49 0 -84 29q-14 -29 -29 -74t-32 -108t-28 -114t-17 -93h-129v133q0 81 -29 211q-29 128 -29 201q0 122 95 205q95 86 258 86q79 0 143.5 -20t110 -57t70 -88.5t24.5 -115.5v-555zM496 498q0 59 -62 59q-61 0 -61 -59
q0 -25 17.5 -42.5t43.5 -17.5q25 0 43.5 18.5t18.5 41.5z" />
    <glyph glyph-name="uni0E05" unicode="&#xe05;" horiz-adv-x="874" 
d="M762 0h-119v600q0 110 -98 125l-117 -78l-131 82q-29 -4 -50.5 -18t-36.5 -35t-22.5 -47.5t-7.5 -55.5q0 -23 4.5 -76t12.5 -141q5 -43 6.5 -85.5t1.5 -84.5q1 15 6 42t12.5 60t16.5 68.5t18 67.5q8 33 22 68t35.5 63t51 45t69.5 14q30 0 55.5 -10.5t44 -29.5t29 -44
t10.5 -53q0 -29 -10.5 -53.5t-29.5 -43.5t-44 -29.5t-53 -10.5q-49 0 -84 29q-23 -52 -57 -172q-16 -60 -26.5 -109.5t-16.5 -87.5h-141v131q0 92 -27 227q-12 70 -18.5 120.5t-6.5 84.5q0 55 18.5 102t51.5 81.5t77.5 56.5t96.5 28l117 -77l123 82q48 -10 84.5 -25.5
t62.5 -38.5q70 -58 70 -164v-608zM496 477q0 60 -62 60q-61 0 -61 -60q0 -25 17.5 -42t43.5 -17q25 0 43.5 18t18.5 41z" />
    <glyph glyph-name="uni0E06" unicode="&#xe06;" horiz-adv-x="930" 
d="M817 84q0 -84 -88 -84h-39q-33 70 -123 141q-45 35 -90.5 59.5t-93.5 35.5v-103q0 -28 -10.5 -53t-30 -44t-46.5 -30t-60 -11q-63 0 -109 36q-55 45 -55 125q0 73 50.5 121.5t141.5 56.5v67q0 61 76 131q78 76 78 117q0 28 -19 53q-3 5 -7.5 10t-10.5 13q-3 0 -13.5 -6.5
t-23.5 -16t-26 -20t-21 -18.5l-104 65q-8 -6 -21.5 -19.5t-21.5 -25.5q60 0 96.5 -32.5t36.5 -86.5q0 -27 -10.5 -51t-28.5 -41t-41.5 -27t-50.5 -10q-30 0 -56 11t-45 31.5t-30 49.5t-11 66q0 39 13.5 77t37.5 70.5t55.5 56.5t67.5 36q5 -2 17 -9.5t32 -21.5t34 -23t22 -14
q15 10 31 21.5t30 21t24.5 16t14.5 6.5q32 0 78 -49q57 -60 57 -135q0 -29 -23 -70t-71 -92q-47 -53 -47 -96v-61q81 -14 162 -55.5t153 -116.5v663h119v-735zM209 563q0 23 -16 39t-39 16t-39.5 -16t-16.5 -39t16.5 -39t39.5 -16t39 16t16 39zM264 141v101
q-21 0 -39.5 -6.5t-32.5 -18t-22 -26.5t-8 -33q0 -32 15 -51t44 -19q43 0 43 53z" />
    <glyph glyph-name="uni0E07" unicode="&#xe07;" horiz-adv-x="795" 
d="M682 162q0 -88 -42.5 -125t-139.5 -37h-152q-20 91 -55 184t-84 193q-101 202 -209 319l109 47q106 -119 204 -309q92 -180 131 -332h41q45 0 61.5 13.5t16.5 56.5v367q-9 -5 -20 -7t-25 -2q-32 0 -59.5 11t-48.5 30.5t-33 47.5t-12 63q0 33 12 60.5t33.5 47t50 30.5
t61.5 11q75 0 117.5 -42t42.5 -117v-510zM584 682q0 66 -66 66q-65 0 -65 -66t65 -66q66 0 66 66z" />
    <glyph glyph-name="uni0E08" unicode="&#xe08;" horiz-adv-x="758" 
d="M686 573q0 -92 -92 -333q-26 -66 -41.5 -126t-22.5 -114h-139l-72 315q-35 -20 -75 -20q-32 0 -59.5 10.5t-48 29.5t-32.5 45t-12 58q0 31 12 58t33 46.5t48.5 30.5t58.5 11q69 0 111 -37t55 -103l36 -182q2 -11 5 -34t6 -58v-12q0 -5 2 -15q5 38 8 72t14 66
q13 34 28 71.5t28 75t21.5 74.5t8.5 71q0 37 -16 67t-44.5 50.5t-68 31.5t-86.5 11q-43 0 -81 -9t-68.5 -26.5t-51.5 -44.5t-30 -63h-121q15 103 98 168q100 78 252 78q166 0 256 -78q80 -71 80 -185zM307 438q0 66 -65 66q-66 0 -66 -66q0 -65 66 -65q65 0 65 65z" />
    <glyph glyph-name="uni0E09" unicode="&#xe09;" horiz-adv-x="883" 
d="M836 141q0 -32 -12.5 -58t-34.5 -45.5t-51 -30t-62 -10.5t-62 10.5t-51 30t-34.5 45.5t-12.5 58l2 31q-33 -12 -65.5 -31t-61 -42t-52.5 -48.5t-40 -50.5h-106v274l-37 -6q-30 0 -56.5 10t-46.5 29t-31.5 45.5t-11.5 59.5q0 30 11.5 56t31.5 44.5t47 29.5t58 11
q69 0 111 -42t42 -112v-245q61 58 142 96q86 43 178 43v289q0 75 -59 113t-156 38q-85 0 -147 -34t-85 -109h-116q11 56 40 101.5t74.5 77.5t106 49.5t133.5 17.5q75 0 135.5 -18t103 -51t66 -79.5t23.5 -103.5v-308q86 -45 86 -135zM739 141q0 26 -17 44t-46 18
q-64 0 -64 -62q0 -61 64 -61q63 0 63 61zM219 412q0 26 -17 43.5t-46 17.5q-64 0 -64 -61q0 -29 16.5 -45.5t47.5 -16.5q63 0 63 62z" />
    <glyph glyph-name="uni0E0A" unicode="&#xe0a;" horiz-adv-x="852" 
d="M741 819q2 -6 2 -13v-18q0 -28 -8.5 -55t-23.5 -50t-36 -41t-46 -28q110 -30 110 -135v-321q0 -46 -11.5 -76.5t-36 -48.5t-63.5 -25.5t-93 -7.5h-406v102h102v289q0 53 45 103q103 110 103 143q0 45 -32.5 73.5t-86.5 28.5q-43 0 -67 -12q38 -11 64 -41.5t26 -75.5
q0 -27 -10 -51t-28 -42t-42 -28t-51 -10q-29 0 -54.5 9.5t-45 28.5t-31 47t-11.5 65q0 74 62 133q72 69 190 69q52 0 93.5 -14t71 -40t45 -62t15.5 -80q0 -65 -92 -166q-45 -50 -45 -98v-269h154h28q27 0 44.5 2.5t27 10.5t13.5 23t4 40v297q0 34 -23 57q-27 29 -84 29v98
q51 0 81 33t30 88q0 5 -1 15t-3 24h120zM207 610q0 23 -16 39.5t-39 16.5t-39.5 -16.5t-16.5 -39.5t16.5 -39t39.5 -16t39 16t16 39z" />
    <glyph glyph-name="uni0E0B" unicode="&#xe0b;" horiz-adv-x="874" 
d="M764 819q2 -6 2 -13v-18q0 -28 -8.5 -55t-23.5 -50t-36.5 -41t-46.5 -28q111 -30 111 -135v-321q0 -46 -11.5 -76.5t-36.5 -48.5t-64 -25.5t-93 -7.5h-405v102h102v299q0 61 76 131q78 76 78 117q0 25 -19 53q-3 5 -7.5 10t-10.5 13q-3 0 -13.5 -6.5t-23.5 -16t-26 -20
t-21 -18.5l-105 65q-8 -6 -21.5 -19.5t-21.5 -25.5q60 0 96.5 -32.5t36.5 -86.5q0 -27 -10.5 -51t-28 -41t-41.5 -27t-51 -10q-30 0 -56 11t-44.5 31.5t-29.5 49.5t-11 66q0 39 13.5 77t37.5 70.5t55.5 56.5t67.5 36q5 -2 17 -9.5t32 -21.5t34 -23.5t22 -13.5q14 10 30 21.5
t30 21t25 16t15 6.5q32 0 78 -49q57 -60 57 -135q0 -62 -94 -162q-47 -53 -47 -96v-287h153h29q27 0 44 2.5t27 10.5t13.5 23t3.5 40v297q0 35 -22 57q-29 29 -84 29v98q49 0 79.5 33t30.5 88q0 5 -1 15t-3 24h121zM199 563q0 23 -16.5 39t-39.5 16t-39 -16t-16 -39t16 -39
t39 -16t39.5 16t16.5 39z" />
    <glyph glyph-name="uni0E0C" unicode="&#xe0c;" horiz-adv-x="1223" 
d="M1110 68q0 -68 -63 -68h-56q-31 47 -80 90q-29 26 -58 46t-58 32l2 -29q0 -31 -12.5 -58t-34 -46.5t-50 -30.5t-59.5 -11t-59 11.5t-49.5 31t-34.5 46.5t-13 57q0 54 33 95.5t96 54.5v291q0 37 -17 66t-47 48t-70.5 29t-86.5 10q-72 0 -125 -19.5t-84 -51.5
q32 -11 67.5 -25t80.5 -39q-48 -26 -74.5 -60.5t-26.5 -76.5v-178q18 8 45 8q31 0 59 -11t49 -30.5t33.5 -48t12.5 -62.5q0 -33 -12.5 -60t-33.5 -46t-50 -29.5t-62 -10.5q-75 0 -117 41t-42 116v303q0 32 14.5 64t56.5 61q-32 17 -67.5 27.5t-77.5 21.5q21 48 56 87
t81.5 66t102.5 41.5t118 14.5q76 0 138 -15.5t106 -47t68 -78.5t24 -111v-299q34 -7 69.5 -20.5t69 -32.5t64 -42.5t55.5 -50.5v680h119v-751zM709 139q0 64 -68 64q-29 0 -48.5 -17.5t-19.5 -46.5q0 -26 19.5 -44.5t48.5 -18.5q26 0 47 18.5t21 44.5zM344 139q0 64 -68 64
q-29 0 -48 -17.5t-19 -46.5q0 -26 19 -44.5t48 -18.5q26 0 47 18.5t21 44.5z" />
    <glyph glyph-name="uni0E0D" unicode="&#xe0d;" horiz-adv-x="1223" 
d="M1110 168q0 -92 -51 -130t-154 -38h-393v102h102v478q0 37 -17 66t-47 48t-70.5 29t-86.5 10q-72 0 -125 -19.5t-84 -51.5q32 -11 67.5 -25t80.5 -39q-48 -26 -74.5 -60.5t-26.5 -76.5v-178q18 8 45 8q31 0 59 -11t49 -30.5t33.5 -48t12.5 -62.5q0 -33 -12.5 -60
t-33.5 -46t-50 -29.5t-62 -10.5q-75 0 -117 41t-42 116v303q0 32 14.5 64t56.5 61q-32 17 -67.5 27.5t-77.5 21.5q21 48 56 87t81.5 66t102.5 41.5t118 14.5q76 0 138 -15.5t106 -47t68 -78.5t24 -111v-482h141q63 0 90 17t27 67v633h119v-651zM1104 -48q0 -131 -107 -211
q-98 -74 -235 -74q-53 0 -97.5 12t-76.5 34.5t-50 54t-18 71.5q0 28 11.5 51t30.5 40t44.5 26.5t52.5 9.5q60 0 99 -35t39 -92q0 -40 -19 -65q43 0 81 12t66 34.5t44 56t16 75.5h119zM715 -161q0 20 -16.5 36.5t-39.5 16.5t-39 -14t-16 -39q0 -23 16 -39t39 -16t39.5 16
t16.5 39zM344 139q0 64 -68 64q-29 0 -48 -17.5t-19 -46.5q0 -26 19 -44.5t48 -18.5q26 0 47 18.5t21 44.5z" />
    <glyph glyph-name="uni0E0E" unicode="&#xe0e;" horiz-adv-x="936" 
d="M823 -282q0 -125 -135 -125h-61q-20 42 -45.5 76t-57.5 62q-35 -63 -92 -97t-129 -34q-35 0 -64.5 10t-52 28t-35 43.5t-12.5 57.5q0 34 15.5 63.5t43 52t64.5 35.5t80 13q29 0 60 -5t65 -16q2 6 2 13v20v15q0 6 -2 12h104q1 -4 1.5 -7t0.5 -7v-19q0 -29 -4 -49t-6 -31
q38 -26 68 -57.5t55 -73.5q19 3 19 45v837q0 37 -17.5 66t-47.5 48t-70.5 29t-86.5 10q-72 0 -125 -19.5t-84 -51.5q32 -11 67.5 -25t80.5 -39q-48 -26 -74 -60.5t-26 -76.5v-311q0 -75 -38.5 -116t-113.5 -41q-31 0 -58 10.5t-47.5 29.5t-32.5 46t-12 60q0 34 11.5 62.5
t31.5 48t46.5 30.5t56.5 11l37 -6v168q0 32 14.5 64t56.5 61q-32 17 -67.5 27.5t-77.5 21.5q21 48 56.5 87t82 66t102 41.5t117.5 14.5q76 0 138 -15.5t106 -47t68 -78.5t24 -111v-866zM229 139q0 26 -18.5 45t-44.5 19q-64 0 -64 -64q0 -26 19 -44.5t45 -18.5t44.5 18.5
t18.5 44.5zM438 -216q-45 18 -96 18q-42 0 -71 -17t-29 -46q0 -17 13 -28t48 -11q88 0 135 84z" />
    <glyph glyph-name="uni0E0F" unicode="&#xe0f;" horiz-adv-x="936" 
d="M823 -282q0 -125 -135 -125h-53l-80 95q-28 -34 -39 -49q-27 -33 -33 -46h-61l-47 66q-31 -32 -65 -50t-85 -18q-33 0 -61 10t-48.5 28t-32 42.5t-11.5 53.5q0 30 12 55.5t33 44.5t50 30t64 11q26 0 53 -7t56 -24v72h106q0 -30 -0.5 -51.5t-2.5 -38.5t-5.5 -32.5
t-9.5 -33.5l27 -35l102 107q19 -16 36 -32.5t34 -35.5q9 -11 21 -25t28 -32q29 0 29 41v841q0 37 -17.5 66t-47.5 48t-70.5 29t-86.5 10q-72 0 -125 -19.5t-84 -51.5q32 -11 67.5 -25t80.5 -39q-48 -26 -74 -60.5t-26 -76.5v-311q0 -75 -38.5 -116t-113.5 -41
q-31 0 -58 10.5t-47.5 29.5t-32.5 46t-12 60q0 34 11.5 62.5t31.5 48t46.5 30.5t56.5 11l37 -6v168q0 32 14.5 64t56.5 61q-32 17 -67.5 27.5t-77.5 21.5q21 48 56.5 87t82 66t102 41.5t117.5 14.5q76 0 138 -15.5t106 -47t68 -78.5t24 -111v-866zM229 139q0 26 -18.5 45
t-44.5 19q-64 0 -64 -64q0 -26 19 -44.5t45 -18.5t44.5 18.5t18.5 44.5zM311 -267q-35 41 -84 41q-26 0 -45.5 -13t-19.5 -36q0 -19 18 -31t41 -12q54 0 90 51z" />
    <glyph glyph-name="uni0E10" unicode="&#xe10;" horiz-adv-x="778" 
d="M764 766q-35 -45 -73.5 -66.5t-94.5 -21.5q-47 0 -170 37q-65 18 -111 18q-55 0 -95 -20t-54 -49h67q14 0 26 -0.5t20 -1.5q17 -2 55 -7t98 -14q121 -17 182 -51q80 -47 80 -129q0 -26 -20 -89.5t-62 -166.5q-21 -54 -33.5 -104t-17.5 -101h-137l-92 264q-37 -20 -76 -20
q-32 0 -59.5 10.5t-48 29.5t-32.5 45t-12 58q0 31 12 58t33 46t48.5 30t58.5 11q66 0 104.5 -35t61.5 -104l47 -153q6 -19 12 -68q0 -8 1 -17.5t3 -23.5q1 28 3.5 48t7.5 39.5t14.5 42.5t24.5 58q36 84 36 134q0 74 -133 98q-14 3 -43.5 6t-77.5 8q-45 5 -86 8.5t-79.5 6
t-75.5 3.5t-76 1q29 118 111 184t213 66q29 0 65.5 -6.5t81.5 -18.5t72.5 -18.5t38.5 -6.5q31 0 55.5 16t38.5 36zM707 -290q0 -125 -125 -125h-64l-59 54l-60 -54h-69l-39 60q-26 -25 -60 -40.5t-77 -15.5q-30 0 -55.5 9.5t-44.5 26.5t-29.5 39.5t-10.5 49.5q0 31 12 55
t32.5 41t47.5 26t58 9q25 0 50.5 -7t45.5 -19l4 69h103q0 -96 -21 -157l33 -45l80 71l82 -73h22q37 0 37 38v21l-18 -2q-24 0 -44.5 8t-36 22.5t-24 34t-8.5 43.5q0 22 9.5 42.5t25.5 35.5t37.5 24t46.5 9q54 0 86.5 -31t32.5 -82v-137zM319 387q0 66 -65 66q-66 0 -66 -66
q0 -65 66 -65q65 0 65 65zM627 -149q0 41 -43 41q-41 0 -41 -41q0 -40 41 -40q43 0 43 40zM229 -275q-31 34 -71 34q-20 0 -37 -12t-17 -31q0 -37 48 -37q53 0 77 46z" />
    <glyph glyph-name="uni0E11" unicode="&#xe11;" horiz-adv-x="1034" 
d="M922 0h-119v645q0 43 -9 64.5t-38 21.5q-24 0 -45 -31q-5 -8 -12.5 -22.5t-18.5 -34.5l-285 -643h-141v401q0 61 76 131q78 76 78 117q0 25 -19 53q-3 5 -7.5 10t-10.5 13q-3 0 -13.5 -6.5t-23.5 -16t-26 -20t-21 -18.5l-105 65q-8 -6 -21.5 -19.5t-21.5 -25.5
q60 0 96.5 -32.5t36.5 -86.5q0 -27 -10.5 -51t-28 -41t-41.5 -27t-51 -10q-30 0 -56 11t-44.5 31.5t-29.5 49.5t-11 66q0 39 13.5 77t37.5 70.5t55.5 56.5t67.5 36q5 -2 17 -9.5t32 -21.5t34 -23.5t22 -13.5q14 10 30 21.5t30 21t25 16t15 6.5q32 0 78 -49q57 -60 57 -135
q0 -62 -94 -162q-47 -53 -47 -96v-174l211 475q28 66 63 101q23 21 51.5 32t63.5 11q160 0 160 -181v-653zM199 563q0 23 -16.5 39t-39.5 16t-39 -16t-16 -39t16 -39t39 -16t39.5 16t16.5 39z" />
    <glyph glyph-name="uni0E12" unicode="&#xe12;" horiz-adv-x="1251" 
d="M1139 68q0 -68 -64 -68h-55q-17 25 -37 47.5t-43 42.5q-29 26 -58.5 46t-58.5 32l2 -29q0 -31 -12.5 -58t-33.5 -46.5t-49.5 -30.5t-59.5 -11t-59 11.5t-49.5 31t-34.5 46.5t-13 57q0 54 33 95.5t96 54.5v301q0 54 -28 88.5t-70 46.5l-117 -78l-131 82q-24 -5 -45.5 -21
t-37 -39t-25 -52t-9.5 -60q-1 -27 3.5 -63.5t11 -71.5t12.5 -64.5t8 -42.5q0 -3 6 -67q5 -32 6.5 -52.5t1.5 -31.5q8 18 25 42t37 50q23 29 38 46t33 36q-45 18 -70.5 51.5t-25.5 81.5q0 31 11.5 57t31.5 45t47 30t58 11t58.5 -10t47.5 -28.5t31.5 -43.5t11.5 -55
q4 -24 -6 -47.5t-28 -48.5t-41.5 -50t-47.5 -52q-20 -23 -36.5 -43.5t-30.5 -40.5l-68 -95q-22 -32 -37 -56.5t-24 -43.5h-131v131q0 92 -27 227q-12 70 -18.5 120.5t-6.5 84.5q0 107 72 182q73 77 172 86l117 -69l123 74q45 -10 81 -25.5t62 -38.5q74 -62 74 -164v-323
q69 -14 138 -53t120 -93v680h119v-751zM475 473q0 59 -61 59q-62 0 -62 -59q0 -25 18 -42t44 -17q24 0 42.5 18t18.5 41zM737 139q0 64 -67 64q-29 0 -48.5 -17.5t-19.5 -46.5q0 -26 19.5 -44.5t48.5 -18.5q26 0 46.5 18.5t20.5 44.5z" />
    <glyph glyph-name="uni0E13" unicode="&#xe13;" horiz-adv-x="1253" 
d="M1217 141q0 -32 -12.5 -58t-34.5 -45.5t-51 -30t-62 -10.5t-62 10.5t-51 30t-34.5 45.5t-12.5 58l2 23q-24 -13 -48 -32t-46 -41.5t-40.5 -46t-31.5 -44.5h-119v580q0 37 -17 66t-47 48t-70.5 29t-86.5 10q-72 0 -125 -19.5t-84 -51.5q32 -11 67.5 -25t80.5 -39
q-48 -26 -74.5 -60.5t-26.5 -76.5v-178q18 8 45 8q31 0 59 -11t49 -30.5t33.5 -48t12.5 -62.5q0 -33 -12.5 -60t-33.5 -46t-50 -29.5t-62 -10.5q-75 0 -117 41t-42 116v303q0 32 14.5 64t56.5 61q-32 17 -67.5 27.5t-77.5 21.5q21 48 56 87t81.5 66t102.5 41.5t118 14.5
q76 0 138 -15.5t106 -47t68 -78.5t24 -111v-432q52 58 123 96q80 43 156 43v528h118v-543q87 -45 87 -135zM1120 141q0 26 -17 44t-46 18q-64 0 -64 -62q0 -61 64 -61q63 0 63 61zM344 139q0 64 -68 64q-29 0 -48 -17.5t-19 -46.5q0 -26 19 -44.5t48 -18.5q26 0 47 18.5
t21 44.5z" />
    <glyph glyph-name="uni0E14" unicode="&#xe14;" horiz-adv-x="874" 
d="M762 0h-119v561q0 82 -62 127t-171 45q-52 0 -94.5 -12.5t-72.5 -36.5t-46.5 -59.5t-16.5 -81.5q0 -75 25 -191q14 -60 20 -106t6 -78q11 23 27 49t39 55l72 86q-45 19 -71 52.5t-26 81.5q0 30 11.5 56.5t31.5 45.5t47 30t58 11t58.5 -10t47.5 -28.5t31.5 -43.5t11.5 -55
q0 -35 -13 -63.5t-50 -69.5q-22 -25 -40.5 -47t-35.5 -42q-22 -26 -34 -42t-17 -21q-77 -102 -129 -213h-131v125q0 34 -9.5 98.5t-27.5 161.5q-21 108 -21 164q0 118 97 203q99 84 260 84q77 0 140.5 -19.5t108.5 -54.5t70 -83t25 -106v-573zM481 494q0 59 -61 59
q-62 0 -62 -59q0 -25 18 -42.5t44 -17.5q25 0 43 18.5t18 41.5z" />
    <glyph glyph-name="uni0E15" unicode="&#xe15;" horiz-adv-x="874" 
d="M762 0h-119v590q0 54 -28 88.5t-70 46.5l-117 -78l-131 82q-24 -5 -45.5 -21t-37 -39t-25 -52t-9.5 -60q-1 -27 3.5 -63.5t11 -71.5t12.5 -64.5t8 -42.5q0 -3 6 -67q5 -32 6.5 -52.5t1.5 -31.5q8 18 25 42t37 50q23 29 38 46t33 36q-45 18 -70.5 51.5t-25.5 81.5
q0 31 11.5 57t31.5 45t47 30t58 11t58.5 -10t47.5 -28.5t31.5 -43.5t11.5 -55q4 -24 -6 -47.5t-28 -48.5t-41.5 -50t-47.5 -52q-20 -23 -36.5 -43.5t-30.5 -40.5l-68 -95q-22 -32 -37 -56.5t-24 -43.5h-131v131q0 92 -27 227q-12 70 -18.5 120.5t-6.5 84.5q0 107 72 182
q73 77 172 86l117 -69l123 74q45 -10 81 -25.5t62 -38.5q74 -62 74 -164v-608zM475 473q0 59 -61 59q-62 0 -62 -59q0 -25 18 -42t44 -17q24 0 42.5 18t18.5 41z" />
    <glyph glyph-name="uni0E16" unicode="&#xe16;" horiz-adv-x="846" 
d="M733 0h-119v580q0 37 -17 66t-47 48t-70.5 29t-86.5 10q-72 0 -125 -19.5t-84 -51.5q32 -11 67.5 -25t80.5 -39q-48 -26 -74.5 -60.5t-26.5 -76.5v-178q18 8 45 8q31 0 59 -11t49 -30.5t33.5 -48t12.5 -62.5q0 -33 -12.5 -60t-33.5 -46t-50 -29.5t-62 -10.5
q-75 0 -117 41t-42 116v303q0 32 14.5 64t56.5 61q-32 17 -67.5 27.5t-77.5 21.5q21 48 56 87t81.5 66t102.5 41.5t118 14.5q76 0 138 -15.5t106 -47t68 -78.5t24 -111v-584zM344 139q0 64 -68 64q-29 0 -48 -17.5t-19 -46.5q0 -26 19 -44.5t48 -18.5q26 0 47 18.5t21 44.5z
" />
    <glyph glyph-name="uni0E17" unicode="&#xe17;" horiz-adv-x="918" 
d="M805 0h-119v645q0 86 -47 86q-23 0 -40.5 -25t-31.5 -63l-239 -643h-129v539q-10 -5 -20.5 -7t-24.5 -2q-32 0 -60 11t-49 30.5t-33 47.5t-12 63q0 33 12.5 60.5t33.5 47t50 30.5t62 11q75 0 117 -42t42 -117v-244q0 -63 -2.5 -117.5t-7.5 -85.5q5 20 8 34.5t7 25.5
q8 28 15.5 53.5t16.5 48.5l111 305q28 70 61 103q47 41 115 41q164 0 164 -183v-653zM219 682q0 66 -65 66q-66 0 -66 -66t66 -66q65 0 65 66z" />
    <glyph glyph-name="uni0E18" unicode="&#xe18;" horiz-adv-x="797" 
d="M750 766q-29 -32 -71.5 -55t-96.5 -23q-41 0 -93 12q-124 29 -159 29q-65 0 -105 -24q-15 -10 -27 -22t-20 -28h31h44q35 0 76 -2.5t103 -11.5q242 -35 242 -184v-299q0 -46 -11.5 -76.5t-36.5 -48.5t-64 -25.5t-93 -7.5h-406v102h82v396h119v-396h174h49q17 0 23 2
q45 10 45 72v281q0 53 -123 82q-56 12 -129 18h-75q-22 0 -46 0.5t-51 1.5q-54 2 -81.5 3t-29.5 1q25 129 104 197.5t202 68.5q29 0 63 -4.5t76 -15.5q82 -21 104 -21q37 0 59.5 12.5t45.5 35.5z" />
    <glyph glyph-name="uni0E19" unicode="&#xe19;" horiz-adv-x="899" 
d="M862 141q0 -32 -12.5 -58t-34 -45.5t-51 -30t-62.5 -10.5t-62 10.5t-50.5 30t-34 45.5t-12.5 58q0 27 8 41q-59 -11 -135 -69q-77 -58 -111 -113h-106v539q-10 -5 -20.5 -7t-24.5 -2q-32 0 -60 11t-49 30.5t-33 47.5t-12 63q0 33 12.5 60.5t33.5 47t50 30.5t62 11
q75 0 117 -42t42 -117v-518q68 62 157 101.5t183 39.5v524h119v-543q86 -44 86 -135zM766 141q0 26 -17.5 44t-46.5 18q-63 0 -63 -62q0 -29 16.5 -45t46.5 -16q64 0 64 61zM219 682q0 66 -65 66q-66 0 -66 -66t66 -66q65 0 65 66z" />
    <glyph glyph-name="uni0E1A" unicode="&#xe1a;" horiz-adv-x="901" 
d="M788 166q0 -88 -50.5 -127t-153.5 -39h-488v102h103v437q-10 -5 -20.5 -7t-24.5 -2q-32 0 -60 11t-49 30.5t-33 47.5t-12 63q0 33 12.5 60.5t33.5 47t50 30.5t62 11q75 0 117 -42t42 -117v-570h236q117 0 117 84v633h118v-653zM219 682q0 66 -65 66q-66 0 -66 -66t66 -66
q65 0 65 66z" />
    <glyph glyph-name="uni0E1B" unicode="&#xe1b;" horiz-adv-x="901" 
d="M788 166q0 -88 -50.5 -127t-153.5 -39h-488v102h103v437q-10 -5 -20.5 -7t-24.5 -2q-32 0 -60 11t-49 30.5t-33 47.5t-12 63q0 33 12.5 60.5t33.5 47t50 30.5t62 11q75 0 117 -42t42 -117v-570h236q117 0 117 84v981h118v-1001zM219 682q0 66 -65 66q-66 0 -66 -66
t66 -66q65 0 65 66z" />
    <glyph glyph-name="uni0E1C" unicode="&#xe1c;" horiz-adv-x="905" 
d="M793 70q0 -70 -78 -70h-33l-229 328l-230 -328h-33q-42 0 -59.5 14t-17.5 56v602q0 75 42 117t117 42q31 0 59.5 -11t50.5 -30.5t35 -47t13 -60.5q0 -35 -12.5 -63t-33.5 -47.5t-49 -30.5t-59 -11q-14 0 -24.5 2t-20.5 7v-342l177 245h90l176 -245v622h119v-749zM342 682
q0 66 -66 66q-65 0 -65 -66t65 -66q66 0 66 66z" />
    <glyph glyph-name="uni0E1D" unicode="&#xe1d;" horiz-adv-x="905" 
d="M793 70q0 -70 -78 -70h-33l-229 328l-230 -328h-33q-42 0 -59.5 14t-17.5 56v602q0 75 42 117t117 42q31 0 59.5 -11t50.5 -30.5t35 -47t13 -60.5q0 -35 -12.5 -63t-33.5 -47.5t-49 -30.5t-59 -11q-14 0 -24.5 2t-20.5 7v-342l177 245h90l176 -245v970h119v-1097z
M342 682q0 66 -66 66q-65 0 -65 -66t65 -66q66 0 66 66z" />
    <glyph glyph-name="uni0E1E" unicode="&#xe1e;" horiz-adv-x="1022" 
d="M905 78q0 -78 -82 -78h-63l-211 643l-205 -643h-63q-82 0 -82 78v461q-10 -5 -20.5 -7t-24.5 -2q-32 0 -60 11t-49 30.5t-33 47.5t-12 63q0 33 12.5 60.5t33.5 47t50 30.5t62 11q75 0 117 -42t42 -117v-264q0 -79 -3 -130.5t-9 -82.5q3 14 5.5 23.5t4.5 17.5l39 135
l144 448h102l150 -448q5 -13 12.5 -46t21.5 -87q2 -8 4 -18.5t7 -24.5q-5 49 -7 107t-2 106v411h119v-741zM219 682q0 66 -65 66q-66 0 -66 -66t66 -66q65 0 65 66z" />
    <glyph glyph-name="uni0E1F" unicode="&#xe1f;" horiz-adv-x="1018" 
d="M905 78q0 -78 -82 -78h-63l-211 643l-205 -643h-63q-82 0 -82 78v461q-10 -5 -20.5 -7t-24.5 -2q-32 0 -60 11t-49 30.5t-33 47.5t-12 63q0 33 12.5 60.5t33.5 47t50 30.5t62 11q75 0 117 -42t42 -117v-264q0 -79 -3 -130.5t-9 -82.5q3 14 5.5 23.5t4.5 17.5l39 135
l144 448h102l150 -448q5 -13 12.5 -46t21.5 -87q2 -8 4 -18.5t7 -24.5q-5 49 -7 107t-2 106v759h119v-1089zM219 682q0 66 -65 66q-66 0 -66 -66t66 -66q65 0 65 66z" />
    <glyph glyph-name="uni0E20" unicode="&#xe20;" horiz-adv-x="936" 
d="M823 0h-118v580q0 37 -17.5 66t-47.5 48t-70.5 29t-86.5 10q-72 0 -125 -19.5t-84 -51.5q32 -11 67.5 -25t80.5 -39q-48 -26 -74 -60.5t-26 -76.5v-311q0 -75 -38.5 -116t-113.5 -41q-31 0 -58 10.5t-47.5 29.5t-32.5 46t-12 60q0 34 11.5 62.5t31.5 48t46.5 30.5
t56.5 11l37 -6v168q0 32 14.5 64t56.5 61q-32 17 -67.5 27.5t-77.5 21.5q21 48 56.5 87t82 66t102 41.5t117.5 14.5q76 0 138 -15.5t106 -47t68 -78.5t24 -111v-584zM229 139q0 26 -18.5 45t-44.5 19q-64 0 -64 -64q0 -26 19 -44.5t45 -18.5t44.5 18.5t18.5 44.5z" />
    <glyph glyph-name="uni0E21" unicode="&#xe21;" horiz-adv-x="895" 
d="M782 84q0 -84 -88 -84h-39q-33 70 -123 141q-45 35 -90.5 59.5t-93.5 35.5v-103q0 -28 -10.5 -53t-30 -44t-46.5 -30t-60 -11q-63 0 -109 36q-55 45 -55 125q0 73 50.5 121.5t141.5 56.5v205q-9 -5 -20 -7t-25 -2q-32 0 -59.5 11t-48.5 30.5t-33 47.5t-12 63
q0 33 12 60.5t33.5 47t50 30.5t61.5 11q75 0 117.5 -42t42.5 -117v-344q81 -14 162 -55.5t154 -116.5v663h118v-735zM250 682q0 66 -66 66q-65 0 -65 -66t65 -66q66 0 66 66zM229 141v101q-21 0 -39.5 -6.5t-32.5 -18t-22 -26.5t-8 -33q0 -32 15 -51t44 -19q43 0 43 53z" />
    <glyph glyph-name="uni0E22" unicode="&#xe22;" horiz-adv-x="846" 
d="M733 160q0 -45 -11.5 -76t-36 -49.5t-62.5 -26.5t-91 -8h-419v287q0 53 28 91t66 50q-57 23 -82 53q-33 39 -33 103v100q0 66 42.5 105.5t111.5 39.5q30 0 56.5 -10t47 -27.5t32 -42.5t11.5 -55q0 -31 -11.5 -56t-31 -42.5t-46 -27t-56.5 -9.5l-23 4v-10q0 -31 24 -49.5
t81 -18.5h98v-102h-92q-57 0 -81 -32t-24 -83v-166h275q60 0 84 15.5t24 62.5v639h119v-659zM309 696q0 26 -17 42t-46 16q-64 0 -64 -58q0 -26 17.5 -41.5t46.5 -15.5q63 0 63 57z" />
    <glyph glyph-name="uni0E23" unicode="&#xe23;" horiz-adv-x="711" 
d="M682 768q-35 -42 -77.5 -63t-96.5 -21q-43 0 -148 29q-26 8 -46.5 11t-37.5 3q-54 0 -87 -23.5t-46 -54.5q100 0 176 -9.5t127 -29.5q142 -52 142 -182v-281q0 -75 -42.5 -115.5t-117.5 -40.5q-31 0 -59.5 10.5t-50.5 29.5t-35 46t-13 60q0 34 12 62.5t33 48t49 30.5
t60 11q27 0 45 -8v141q0 118 -236 139q-65 6 -233 6q9 58 32 106.5t58.5 83t83 53.5t105.5 19q29 0 66 -6t85 -20q43 -12 68 -12q29 0 53 13t43 32zM492 137q0 64 -68 64q-29 0 -48.5 -17.5t-19.5 -46.5q0 -26 19.5 -44.5t48.5 -18.5q26 0 47 18.5t21 44.5z" />
    <glyph glyph-name="uni0E24" unicode="&#xe24;" horiz-adv-x="846" 
d="M733 -304h-119v884q0 37 -17 66t-47 48t-70.5 29t-86.5 10q-72 0 -125 -19.5t-84 -51.5q32 -11 67.5 -25t80.5 -39q-48 -26 -74.5 -60.5t-26.5 -76.5v-178q18 8 45 8q31 0 59 -11t49 -30.5t33.5 -48t12.5 -62.5q0 -33 -12.5 -60t-33.5 -46t-50 -29.5t-62 -10.5
q-75 0 -117 41t-42 116v303q0 32 14.5 64t56.5 61q-32 17 -67.5 27.5t-77.5 21.5q21 48 56 87t81.5 66t102.5 41.5t118 14.5q76 0 138 -15.5t106 -47t68 -78.5t24 -111v-888zM344 139q0 64 -68 64q-29 0 -48 -17.5t-19 -46.5q0 -26 19 -44.5t48 -18.5q26 0 47 18.5t21 44.5z
" />
    <glyph glyph-name="uni0E25" unicode="&#xe25;" horiz-adv-x="866" 
d="M754 0h-113l-223 416q-20 38 -44.5 57t-66.5 19q-35 0 -55.5 -21t-20.5 -53v-135q18 8 45 8q31 0 59 -11t49 -30.5t33.5 -48t12.5 -62.5q0 -33 -12.5 -60t-33.5 -46t-50 -29.5t-62 -10.5q-75 0 -117 41t-42 116v282q0 36 16 66t42.5 52t61 34t72.5 12q149 0 213 -121
l72 -135q8 -16 18 -39t21 -55l18 -56q-4 55 -8 116.5t-4 107.5v166q0 37 -17 65.5t-46 48t-69 29.5t-85 10q-94 0 -150.5 -26.5t-79.5 -92.5h-116q8 50 36.5 91t74.5 70t106.5 45t132.5 16q73 0 134 -18t105 -51t68.5 -79.5t24.5 -103.5v-584zM344 139q0 64 -68 64
q-29 0 -48 -17.5t-19 -46.5q0 -26 19 -44.5t48 -18.5q26 0 47 18.5t21 44.5z" />
    <glyph glyph-name="uni0E26" unicode="&#xe26;" horiz-adv-x="936" 
d="M823 -304h-118v884q0 37 -17.5 66t-47.5 48t-70.5 29t-86.5 10q-72 0 -125 -19.5t-84 -51.5q32 -11 67.5 -25t80.5 -39q-48 -26 -74 -60.5t-26 -76.5v-311q0 -75 -38.5 -116t-113.5 -41q-31 0 -58 10.5t-47.5 29.5t-32.5 46t-12 60q0 34 11.5 62.5t31.5 48t46.5 30.5
t56.5 11l37 -6v168q0 32 14.5 64t56.5 61q-32 17 -67.5 27.5t-77.5 21.5q21 48 56.5 87t82 66t102 41.5t117.5 14.5q76 0 138 -15.5t106 -47t68 -78.5t24 -111v-888zM229 139q0 26 -18.5 45t-44.5 19q-64 0 -64 -64q0 -26 19 -44.5t45 -18.5t44.5 18.5t18.5 44.5z" />
    <glyph glyph-name="uni0E27" unicode="&#xe27;" horiz-adv-x="754" 
d="M641 147q0 -75 -42.5 -115.5t-117.5 -40.5q-31 0 -59.5 10.5t-50 29.5t-34.5 46t-13 60q0 34 12 62.5t33 48t48.5 30.5t59.5 11q27 0 45 -8v299q0 37 -15 65.5t-40.5 48t-61 29.5t-75.5 10q-85 0 -139 -38.5t-74 -125.5h-117q7 61 34 110.5t70.5 84.5t100.5 53.5
t125 18.5t125 -17.5t98.5 -50.5t64.5 -79.5t23 -104.5v-437zM545 137q0 64 -68 64q-29 0 -48 -17.5t-19 -46.5q0 -26 19 -44.5t48 -18.5q26 0 47 18.5t21 44.5z" />
    <glyph glyph-name="uni0E28" unicode="&#xe28;" horiz-adv-x="852" 
d="M793 911q0 -60 -33 -97t-88 -60q90 -80 90 -199v-555h-119v545q0 84 -55 133q-61 55 -176 55q-50 0 -92.5 -13.5t-73.5 -38t-48.5 -58.5t-17.5 -74q0 -14 4.5 -62t12.5 -133q5 -42 6.5 -84t1.5 -84q5 40 12.5 81.5t18.5 86.5q9 41 21 90t33.5 91.5t56.5 71t89 28.5
q30 0 55.5 -11t44 -29.5t29 -43.5t10.5 -53q0 -29 -10.5 -54t-29.5 -43.5t-44 -29.5t-53 -11q-49 0 -84 29q-14 -29 -29 -74t-32 -108t-28 -114t-17 -93h-129v133q0 81 -29 211q-29 128 -29 201q0 122 95 205q95 86 258 86q19 0 41.5 -2t44 -4.5t41.5 -4.5t34 -2
q39 0 64 21.5t25 66.5h129zM496 498q0 59 -62 59q-61 0 -61 -59q0 -25 17.5 -42.5t43.5 -17.5q25 0 43.5 18.5t18.5 41.5z" />
    <glyph glyph-name="uni0E29" unicode="&#xe29;" horiz-adv-x="922" 
d="M915 477q-28 -35 -60 -61t-67 -45v-205q0 -88 -50.5 -127t-153.5 -39h-488v102h103v437q-10 -5 -20.5 -7t-24.5 -2q-32 0 -60 11t-49 30.5t-33 47.5t-12 63q0 33 12.5 60.5t33.5 47t50 30.5t62 11q75 0 117 -42t42 -117v-570h236q117 0 117 84v131q-71 -24 -135 -24
q-36 0 -66.5 10t-52.5 29t-34.5 44.5t-12.5 57.5q0 27 11 51t29.5 41.5t43.5 28t53 10.5q30 0 55.5 -10t44 -28t29 -42.5t10.5 -52.5v-12l25 10v389h118v-317l52 47zM563 436q0 23 -16 39.5t-41 16.5q-23 0 -39 -16.5t-16 -39.5t16 -39t39 -16q57 0 57 55zM219 682
q0 66 -65 66q-66 0 -66 -66t66 -66q65 0 65 66z" />
    <glyph glyph-name="uni0E2A" unicode="&#xe2a;" horiz-adv-x="866" 
d="M793 911q0 -62 -32 -97t-89 -58q38 -32 60 -75t22 -97v-584h-113l-223 416q-20 38 -44.5 57t-66.5 19q-35 0 -55.5 -21t-20.5 -53v-135q18 8 45 8q31 0 59 -11t49 -30.5t33.5 -48t12.5 -62.5q0 -33 -12.5 -60t-33.5 -46t-50 -29.5t-62 -10.5q-75 0 -117 41t-42 116v282
q0 36 16 66t42.5 52t61 34t72.5 12q149 0 213 -121l72 -135q8 -16 18 -39t21 -55l18 -56q-4 55 -8 116.5t-4 107.5v166q0 37 -17 65.5t-46 48t-69 29.5t-85 10q-94 0 -150.5 -26.5t-79.5 -92.5h-116q8 50 36.5 91t74.5 70t106.5 45t132.5 16q19 0 41 -2t43 -4.5t39 -4.5
t30 -2q39 0 64 21.5t25 66.5h129zM344 139q0 64 -68 64q-29 0 -48 -17.5t-19 -46.5q0 -26 19 -44.5t48 -18.5q26 0 47 18.5t21 44.5z" />
    <glyph glyph-name="uni0E2B" unicode="&#xe2b;" horiz-adv-x="920" 
d="M834 684q0 -82 -64 -125q35 -41 35 -98v-461h-119v461q0 39 -29 63q-90 -27 -196 -202q-51 -81 -85 -160.5t-54 -161.5h-123v539q-10 -5 -20.5 -7t-24.5 -2q-32 0 -60 11t-49 30.5t-33 47.5t-12 63q0 33 12.5 60.5t33.5 47t50 30.5t62 11q75 0 117 -42t42 -117v-287v-82
q0 -16 -0.5 -27.5t-1.5 -19.5q0 -31 -4 -51q6 39 27 82q1 2 12 23t27.5 50t37.5 62t44 59q29 35 56.5 59t53.5 38q-47 41 -47 106q0 30 12.5 56.5t34 47t49.5 32t60 11.5q33 0 61.5 -11.5t49.5 -31.5t33 -46.5t12 -57.5zM743 682q0 66 -65 66q-66 0 -66 -66t66 -66
q65 0 65 66zM219 682q0 66 -65 66q-66 0 -66 -66t66 -66q65 0 65 66z" />
    <glyph glyph-name="uni0E2C" unicode="&#xe2c;" horiz-adv-x="1028" 
d="M975 874q-17 -32 -36 -56.5t-48 -53.5q14 -33 14 -76v-608q0 -80 -82 -80h-61l-213 451l-207 -451h-61q-82 0 -82 80v459q-10 -5 -20.5 -7t-24.5 -2q-32 0 -60 11t-49 30.5t-33 47.5t-12 63q0 33 12.5 60.5t33.5 47t50 30.5t62 11q75 0 117 -42t42 -117v-350
q0 -22 -1 -46.5t-2.5 -48t-3 -44.5t-3.5 -36q6 17 11 31t8 25q16 46 39 96l135 295h98l141 -295q13 -28 35 -96q3 -11 7.5 -25t11.5 -31q-1 22 -2 42.5t-1.5 40.5t-1.5 42.5t-2 49.5v358q-16 -9 -36.5 -16t-42.5 -12t-44 -8t-40 -3q-43 0 -79.5 10t-63 28t-41.5 43t-15 56
q0 60 63 101q65 43 148 43q57 0 102.5 -16.5t87.5 -47.5q6 5 12 13.5l12 17t10.5 16t6.5 10.5zM739 778q-39 49 -108 49q-37 0 -64.5 -13t-27.5 -36q0 -12 7.5 -20.5t19.5 -13.5t27.5 -7t31.5 -2q35 0 61.5 12.5t52.5 30.5zM219 682q0 66 -65 66q-66 0 -66 -66t66 -66
q65 0 65 66z" />
    <glyph glyph-name="uni0E2D" unicode="&#xe2d;" horiz-adv-x="866" 
d="M754 160q0 -102 -62 -135q-40 -25 -149 -25h-430v403q0 75 42 117.5t117 42.5q31 0 59.5 -11t50.5 -30.5t35 -47t13 -60.5q0 -35 -12.5 -63t-33.5 -47.5t-49 -30.5t-59 -11q-27 0 -45 8v-168h285h29q25 0 42.5 2.5t28 10t15 21.5t4.5 38v406q0 37 -16.5 65.5t-45.5 48
t-69 29.5t-86 10q-43 0 -81 -8.5t-68 -26t-51 -44.5t-30 -64h-116q10 57 38.5 103t73 77.5t104.5 48.5t134 17q71 0 132 -18.5t105.5 -51.5t69.5 -79.5t25 -102.5v-424zM342 414q0 65 -66 65q-65 0 -65 -65q0 -66 65 -66q66 0 66 66z" />
    <glyph glyph-name="uni0E2E" unicode="&#xe2e;" horiz-adv-x="877" 
d="M813 793q-20 -32 -42.5 -58t-41.5 -43q11 -17 18 -39t7 -51v-444q0 -100 -62 -133q-43 -25 -149 -25h-430v365q0 75 42 117t117 42q31 0 59.5 -11t50.5 -30.5t35 -47t13 -60.5q0 -35 -12.5 -63t-33.5 -47.5t-49 -30.5t-59 -11q-27 0 -45 8v-125h285h29q20 0 33.5 1.5
t21.5 3.5q35 9 35 65v420l-4 25q-51 -26 -109 -46t-127 -26q-121 0 -190 22q-99 34 -99 103q0 70 87 117q89 49 202 49q156 0 256 -64l60 74zM559 709q-31 18 -75.5 26t-92.5 8q-31 0 -60.5 -4.5t-52.5 -13.5t-37 -21.5t-14 -27.5q0 -19 26 -27t64 -8h35q23 4 35 4
q43 6 88.5 20.5t83.5 43.5zM342 375q0 65 -66 65q-65 0 -65 -65q0 -66 65 -66q66 0 66 66z" />
    <glyph glyph-name="uni0E2F" unicode="&#xe2f;" horiz-adv-x="815" 
d="M702 0h-118v616q-57 -51 -131 -80.5t-162 -29.5q-49 0 -91 13.5t-73 37.5t-48.5 57.5t-17.5 73.5q0 28 11.5 54t32.5 45t49 30.5t61 11.5q34 0 62 -10t48.5 -29t32 -45t11.5 -57q0 -39 -23 -74q44 6 83 23t70 43.5t52.5 61.5t30.5 77h51q35 0 52 -15t17 -52v-752z
M279 688q0 26 -17.5 44t-46.5 18q-63 0 -63 -62q0 -61 63 -61q64 0 64 61z" />
    <glyph glyph-name="uni0E30" unicode="&#xe30;" horiz-adv-x="735" 
d="M664 819q0 -161 -103 -252q-91 -82 -227 -82q-59 0 -108 13t-83.5 37.5t-53.5 59.5t-19 79q0 30 12 56t32 45.5t47.5 30.5t59.5 11q31 0 58 -11t47.5 -30.5t32.5 -46t12 -57.5q0 -48 -25 -82q43 0 80.5 16t65 45.5t43.5 72t16 95.5h113zM664 334q0 -164 -103 -252
q-91 -82 -227 -82q-59 0 -108 13t-83.5 37.5t-53.5 59t-19 78.5q0 30 12 56t32 45.5t47.5 31t59.5 11.5q31 0 58 -11.5t47.5 -31t32.5 -46t12 -57.5q0 -47 -25 -82q43 0 80.5 16t65 46t43.5 72.5t16 95.5h113zM285 672q0 26 -19 44.5t-45 18.5t-44.5 -18.5t-18.5 -44.5
t18.5 -45t44.5 -19t45 19t19 45zM285 186q0 26 -19 45t-45 19t-44.5 -19t-18.5 -45t18.5 -44.5t44.5 -18.5t45 18.5t19 44.5z" />
    <glyph glyph-name="uni0E31" unicode="&#xe31;" 
d="M135 1262q0 -158 -117 -246q-51 -38 -110.5 -58t-131.5 -20q-113 0 -183 45q-79 52 -79 139q0 28 10.5 52.5t29 42.5t44 28t55.5 10q28 0 53.5 -10t44.5 -28.5t30 -43.5t11 -55q0 -51 -27 -84q106 0 183 56q83 66 83 172h104zM-292 1118q0 23 -16 39.5t-39 16.5
t-39 -16.5t-16 -39.5t16 -39t39 -16t39 16t16 39z" />
    <glyph glyph-name="uni0E32" unicode="&#xe32;" horiz-adv-x="713" 
d="M600 0h-119v580q0 75 -48 114t-124 39q-72 0 -123 -35.5t-69 -107.5h-117q19 115 98 180.5t211 65.5q65 0 118.5 -17.5t92 -50.5t59.5 -79.5t21 -104.5v-584z" />
    <glyph glyph-name="uni0E33" unicode="&#xe33;" horiz-adv-x="713" 
d="M-13 1114q0 -33 -12 -61.5t-33 -49.5t-49.5 -33t-61.5 -12t-61.5 12t-49.5 33t-33 49.5t-12 61.5t12 61.5t33 49.5t49.5 33t61.5 12t61.5 -12t49.5 -33t33 -49.5t12 -61.5zM600 0h-119v580q0 75 -48 114t-124 39q-72 0 -123 -35.5t-69 -107.5h-117q19 115 98 180.5
t211 65.5q65 0 118.5 -17.5t92 -50.5t59.5 -79.5t21 -104.5v-584zM-97 1114q0 31 -20.5 51.5t-51.5 20.5t-51.5 -20.5t-20.5 -51.5t20.5 -51.5t51.5 -20.5t51.5 20.5t20.5 51.5z" />
    <glyph glyph-name="uni0E34" unicode="&#xe34;" 
d="M-93 922q-60 11 -116.5 17t-108.5 9q-54 5 -113.5 6.5t-128.5 1.5q-51 0 -105.5 -1t-111.5 -1q25 125 107.5 191.5t207.5 66.5q149 0 244 -74.5t125 -215.5zM-216 1016q-15 27 -40 47.5t-57 35t-69 22t-76 7.5q-63 0 -115.5 -23t-84.5 -71q32 5 69.5 6.5t79.5 1.5
q63 0 135.5 -6t157.5 -20z" />
    <glyph glyph-name="uni0E35" unicode="&#xe35;" 
d="M-110 922q-60 11 -115.5 17t-109.5 9q-54 5 -113 6.5t-129 1.5q-51 0 -105.5 -1t-111.5 -1q25 125 108 191.5t208 66.5q75 0 137 -20t113 -62v148h118v-356zM-232 1016q-15 27 -40 47.5t-57 35t-69 22t-76 7.5q-63 0 -116 -23t-85 -71q32 5 70 6.5t80 1.5q63 0 135.5 -6
t157.5 -20z" />
    <glyph glyph-name="uni0E36" unicode="&#xe36;" 
d="M-36 1151q0 -87 -84 -121q25 -46 37 -108q-60 11 -116.5 17t-108.5 9q-54 5 -113.5 6.5t-128.5 1.5q-51 0 -105.5 -1t-111.5 -1q25 125 108 191.5t207 66.5q82 0 150 -24q24 94 129 94q30 0 55 -10t43.5 -27t28.5 -41.5t10 -52.5zM-112 1155q0 20 -17 36.5t-40 16.5
t-40 -15t-17 -38q0 -20 17 -36.5t40 -16.5t40 15t17 38zM-206 1016q-15 27 -40 47.5t-57 35t-69 22t-76 7.5q-61 0 -114.5 -23t-85.5 -71q32 5 69.5 6.5t79.5 1.5q63 0 135.5 -6t157.5 -20z" />
    <glyph glyph-name="uni0E37" unicode="&#xe37;" 
d="M-110 922q-60 11 -115.5 17t-109.5 9q-54 5 -113 6.5t-129 1.5q-51 0 -105.5 -1t-111.5 -1q25 125 108 191.5t208 66.5q16 0 28 -0.5t23 -1.5t23 -3t28 -5v76h86v-107q14 -8 22 -12t11 -6q6 -5 13.5 -10t15.5 -13v148h118v-356zM-232 1016q-15 27 -40 47.5t-57 35t-69 22
t-76 7.5q-63 0 -116 -23t-85 -71q32 5 70 6.5t80 1.5q63 0 135.5 -6t157.5 -20z" />
    <glyph glyph-name="uni0E38" unicode="&#xe38;" 
d="M-103 -511h-119v156l-35 -4q-52 0 -92 34q-47 41 -47 105q0 31 12 56.5t32 44.5t45.5 29.5t53.5 10.5q33 0 60.5 -11t47.5 -31t31 -48.5t11 -62.5v-279zM-194 -218q0 25 -17 42t-42 17t-42 -17t-17 -42t17 -42.5t42 -17.5t42 17.5t17 42.5z" />
    <glyph glyph-name="uni0E39" unicode="&#xe39;" 
d="M-114 -355q0 -63 -36 -90t-99 -27h-184v119l-35 -4q-26 0 -50.5 9.5t-44.5 27.5t-32 43t-12 57q0 31 12 56.5t32 44.5t45.5 29.5t53.5 10.5q31 0 58.5 -10.5t48 -30.5t32 -48t11.5 -62v-144h53q29 0 29 29v266h118v-276zM-405 -218q0 25 -17 42t-42 17t-42 -17t-17 -42
t17 -42.5t42 -17.5t42 17.5t17 42.5z" />
    <glyph glyph-name="uni0E3A" unicode="&#xe3a;" 
d="M-81 -171q0 -42 -25.5 -67t-62.5 -25t-62.5 25t-25.5 67t25.5 67t62.5 25t62.5 -25t25.5 -67z" />
    <glyph glyph-name="uni0E3F" unicode="&#xe3f;" horiz-adv-x="926" 
d="M864 276q0 -114 -73 -190q-42 -43 -96 -64.5t-124 -21.5h-82v-130h-73v130h-312v965h312v112h73v-112q43 0 76.5 -1t60 -5t47 -10.5t38.5 -18.5q54 -31 84 -81.5t30 -119.5q0 -75 -38.5 -131.5t-104.5 -85.5q88 -20 135 -81t47 -155zM696 705q0 91 -59 124
q-23 14 -59.5 20.5t-85.5 6.5l-3 -305q207 0 207 154zM416 551v305h-183v-305h183zM737 281q0 45 -15.5 76t-43 49.5t-66.5 27t-86 8.5h-37v-333h66q85 0 133.5 46.5t48.5 125.5zM416 109v333h-183v-333h183z" />
    <glyph glyph-name="uni0E40" unicode="&#xe40;" horiz-adv-x="481" 
d="M451 139q0 -33 -12.5 -60t-33.5 -46t-50 -29.5t-62 -10.5q-75 0 -117.5 41t-42.5 116v669h119v-536q18 8 45 8q31 0 59 -11t49 -30.5t33.5 -48t12.5 -62.5zM365 139q0 64 -68 64q-29 0 -48.5 -17.5t-19.5 -46.5q0 -26 19.5 -44.5t48.5 -18.5q26 0 47 18.5t21 44.5z" />
    <glyph glyph-name="uni0E41" unicode="&#xe41;" horiz-adv-x="881" 
d="M850 139q0 -33 -12.5 -60t-33.5 -46t-50 -29.5t-62 -10.5q-75 0 -117.5 41t-42.5 116v669h119v-536q18 8 45 8q31 0 59 -11t49 -30.5t33.5 -48t12.5 -62.5zM451 139q0 -33 -12.5 -60t-33.5 -46t-50 -29.5t-62 -10.5q-75 0 -117.5 41t-42.5 116v669h119v-536q18 8 45 8
q31 0 59 -11t49 -30.5t33.5 -48t12.5 -62.5zM764 139q0 64 -68 64q-29 0 -48 -17.5t-19 -46.5q0 -26 19 -44.5t48 -18.5q26 0 47 18.5t21 44.5zM365 139q0 64 -68 64q-29 0 -48.5 -17.5t-19.5 -46.5q0 -26 19.5 -44.5t48.5 -18.5q26 0 47 18.5t21 44.5z" />
    <glyph glyph-name="uni0E42" unicode="&#xe42;" horiz-adv-x="522" 
d="M528 1296q-26 -32 -72 -57t-106 -25q-29 0 -62 6t-71 17q-78 23 -111 23q-38 0 -62.5 -11t-37.5 -28q287 -29 287 -199v-739q18 8 45 8q31 0 59 -11t49 -30.5t33.5 -48t12.5 -62.5q0 -33 -12.5 -60t-33.5 -46t-50 -29.5t-62 -10.5q-75 0 -117.5 41t-42.5 116v860
q0 79 -113 112q-42 14 -95 20.5t-119 6.5q15 49 41 88.5t60 66.5t74 41.5t84 14.5q23 0 63 -6.5t97 -20.5q52 -12 78 -12q35 0 62 14t47 37zM406 139q0 64 -68 64q-29 0 -48.5 -17.5t-19.5 -46.5q0 -26 19.5 -44.5t48.5 -18.5q26 0 47 18.5t21 44.5z" />
    <glyph glyph-name="uni0E43" unicode="&#xe43;" horiz-adv-x="522" 
d="M492 139q0 -33 -12.5 -60t-33.5 -46t-50 -29.5t-62 -10.5q-75 0 -117.5 41t-42.5 116v811q0 27 12.5 57.5t38.5 62.5t38.5 62.5t12.5 56.5q0 25 -10 46.5t-28.5 37.5t-43.5 24.5t-55 8.5q-44 0 -90 -25q31 0 57 -10.5t45.5 -28.5t30.5 -43t11 -53q0 -29 -11.5 -53.5
t-31 -43.5t-45.5 -29.5t-56 -10.5t-57.5 11.5t-48.5 33t-33.5 53t-12.5 70.5q0 48 18.5 89.5t51 71.5t77 47t97.5 17q52 0 98 -15t79.5 -42.5t53 -66t19.5 -85.5q0 -66 -49 -139t-49 -131v-651q18 8 45 8q31 0 59 -11t49 -30.5t33.5 -48t12.5 -62.5zM106 1157q0 23 -16 39
t-41 16q-23 0 -37.5 -16t-14.5 -39q0 -55 52 -55q57 0 57 55zM406 139q0 64 -68 64q-29 0 -48.5 -17.5t-19.5 -46.5q0 -26 19.5 -44.5t48.5 -18.5q26 0 47 18.5t21 44.5z" />
    <glyph glyph-name="uni0E44" unicode="&#xe44;" horiz-adv-x="522" 
d="M492 139q0 -33 -12.5 -60t-33.5 -46t-50 -29.5t-62 -10.5q-75 0 -117.5 41t-42.5 116v874q0 60 47 119q11 12 23 24.5t26 24.5q-2 6 -9 13.5t-16.5 14t-19.5 11t-18 4.5l-144 -119q-20 22 -38 38.5t-32 27.5q-51 35 -106.5 57t-118.5 33l110 84q63 -17 110 -45.5
t73 -59.5l121 90q42 0 78 -11t68 -34q67 -45 67 -116q-21 -12 -39.5 -30t-32.5 -39t-22 -44.5t-8 -46.5v-737q18 8 45 8q31 0 59 -11t49 -30.5t33.5 -48t12.5 -62.5zM406 139q0 64 -68 64q-29 0 -48.5 -17.5t-19.5 -46.5q0 -26 19.5 -44.5t48.5 -18.5q26 0 47 18.5t21 44.5z
" />
    <glyph glyph-name="uni0E45" unicode="&#xe45;" horiz-adv-x="713" 
d="M600 -304h-119v884q0 75 -48 114t-124 39q-72 0 -123 -35.5t-69 -107.5h-117q19 115 98 180.5t211 65.5q65 0 118.5 -17.5t92 -50.5t59.5 -79.5t21 -104.5v-888z" />
    <glyph glyph-name="uni0E46" unicode="&#xe46;" horiz-adv-x="817" 
d="M705 -304h-119v890q0 100 -68 129l-117 -84l-127 86q-13 0 -25.5 -7t-22 -17t-15.5 -21.5t-6 -20.5l16 2q30 0 56 -9t45.5 -26t31 -41t11.5 -55q0 -30 -12 -54t-31.5 -41.5t-46 -26.5t-54.5 -9q-58 0 -104 43q-56 53 -56 144q0 50 16 93t46 77t72.5 56.5t95.5 31.5
l106 -76l113 74q43 -10 76.5 -25.5t56.5 -38.5q62 -59 62 -170v-904zM276 522q0 23 -16 39.5t-39 16.5t-39 -16.5t-16 -39.5q0 -20 16 -36.5t39 -16.5t39 14t16 39z" />
    <glyph glyph-name="uni0E47" unicode="&#xe47;" 
d="M-120 1364q0 -43 -16.5 -77.5t-46 -58.5t-69.5 -37t-87 -13q-14 0 -38.5 1t-59.5 3q-37 2 -57 3t-25 1q-45 0 -74 -23t-29 -65q0 -16 8 -29t21 -22t28.5 -12t30.5 1l97 105l71 -74q7 43 37 69.5t78 26.5q51 0 84 -32.5t33 -83.5q0 -25 -10.5 -46.5t-28.5 -37.5
t-42.5 -25.5t-51.5 -9.5q-96 0 -170 80l-64 -70h-71q-59 0 -101 39q-49 46 -49 117q0 74 49 123q58 57 158 57q15 0 35.5 -1l41 -2t40 -2t33.5 -1h22q49 0 82.5 22.5t38.5 73.5h102zM-206 1047q0 45 -45 45t-45 -45q0 -46 45 -46t45 46z" />
    <glyph glyph-name="uni0E48" unicode="&#xe48;" 
d="M-110 1339h-118v226h118v-226z" />
    <glyph glyph-name="uni0E49" unicode="&#xe49;" 
d="M70 1599q-29 -116 -132 -186q-126 -84 -318 -84l-25 62q78 21 97 55q-90 21 -90 108q0 24 9 44.5t25 35t37.5 23t46.5 8.5q51 0 86 -29t35 -86q0 -32 -12 -61t-31 -47q69 18 114.5 67t59.5 111zM-230 1552q0 47 -50 47q-51 0 -51 -47q0 -18 15.5 -31.5t35.5 -13.5
q50 0 50 45z" />
    <glyph glyph-name="uni0E4A" unicode="&#xe4a;" 
d="M147 1647q0 -105 -61 -199q-50 -75 -114 -117l-75 23q12 29 22 59.5t10 61.5q0 65 -47 65q-25 0 -38 -13.5t-19 -33.5h-33q-18 49 -74 49q-23 0 -37.5 -9t-19.5 -22q43 0 70.5 -25t27.5 -67q0 -21 -8 -38.5t-21.5 -30t-31 -19t-35.5 -6.5q-43 0 -70 27q-41 38 -41 108
q0 36 12 66t32.5 52t48 34t59.5 12q37 0 62 -14t42 -37q13 20 35.5 34.5t57.5 14.5q54 0 81.5 -33t27.5 -90l-4 -31q12 15 22.5 37.5t19 48.5t13.5 53.5t5 51.5zM-296 1419q0 39 -39 39t-39 -39t39 -39t39 39z" />
    <glyph glyph-name="uni0E4B" unicode="&#xe4b;" 
d="M10 1452h-120v-113h-118v113h-123v88h123v113h118v-113h120v-88z" />
    <glyph glyph-name="uni0E4C" unicode="&#xe4c;" 
d="M-5 1593q-21 -79 -123 -94l-55 -6q45 -35 45 -90q0 -24 -9 -45t-25 -36.5t-37 -24.5t-46 -9q-26 0 -49.5 9.5t-41.5 26.5t-29 40.5t-11 52.5q0 57 38 96t101 46q31 5 52.5 8t33.5 8q48 15 58 49zM-206 1401q0 23 -14.5 37t-34.5 14q-23 0 -37 -14t-14 -37q0 -49 51 -49
q49 0 49 49z" />
    <glyph glyph-name="uni0E4D" unicode="&#xe4d;" 
d="M-13 1114q0 -33 -12 -61.5t-33 -49.5t-49.5 -33t-61.5 -12t-61.5 12t-49.5 33t-33 49.5t-12 61.5t12 61.5t33 49.5t49.5 33t61.5 12t61.5 -12t49.5 -33t33 -49.5t12 -61.5zM-97 1114q0 31 -20.5 51.5t-51.5 20.5t-51.5 -20.5t-20.5 -51.5t20.5 -51.5t51.5 -20.5
t51.5 20.5t20.5 51.5z" />
    <glyph glyph-name="uni0E4E" unicode="&#xe4e;" 
d="M35 1356q-26 2 -46 3t-34 1q-45 0 -84 -5t-68 -15.5t-45.5 -26.5t-16.5 -37q0 -29 29 -35t92 -6v-94q-20 2 -35.5 3t-28.5 1q-40 0 -74 -6t-59.5 -16.5t-40 -26t-14.5 -33.5q0 -29 49 -29q31 0 58.5 9.5t58.5 23.5l49 -82q-35 -19 -80 -33t-90 -14q-6 2 -9 2h-7h-11
q-57 6 -92 36t-35 75q0 42 24 75.5t66 53.5q34 21 82 24q-43 21 -43 74q0 21 9.5 42.5t26.5 41t40.5 35.5t50.5 26q54 23 117.5 28t135.5 5h25v-100v0z" />
    <glyph glyph-name="uni0E4F" unicode="&#xe4f;" horiz-adv-x="1024" 
d="M932 410q0 -174 -123 -297q-125 -120 -297 -120q-173 0 -297 120q-123 123 -123 297t123 297q125 122 297 122t297 -122q123 -123 123 -297zM870 410q0 149 -106 252q-105 106 -252 106q-148 0 -254 -106q-104 -104 -104 -252t104 -254q108 -105 254 -105q147 0 252 105
q106 105 106 254zM768 410q0 -107 -76 -183q-73 -73 -180 -73q-106 0 -182 73q-37 39 -55.5 84t-18.5 99q0 106 74 180q76 76 182 76q107 0 180 -76q76 -73 76 -180z" />
    <glyph glyph-name="uni0E50" unicode="&#xe50;" horiz-adv-x="799" 
d="M737 307q0 -69 -23 -124.5t-71 -100.5q-94 -89 -244 -89q-148 0 -245 89q-93 88 -93 225q0 68 24 126.5t68.5 101t106.5 66.5t139 24q73 2 135.5 -22.5t108.5 -67.5t71 -102t23 -126zM618 307q0 47 -17 86.5t-47 68t-70 44.5t-85 16q-46 0 -86 -15.5t-69.5 -43.5
t-46.5 -68t-17 -88t17.5 -88t47 -68.5t69.5 -44.5t85 -16q43 0 83 16.5t70 45.5t48 68.5t18 86.5z" />
    <glyph glyph-name="uni0E51" unicode="&#xe51;" horiz-adv-x="844" 
d="M782 301q0 -117 -59.5 -210t-165.5 -162l-100 49q47 27 85 63.5t65 78.5t42 87t15 88q0 51 -17.5 93t-49.5 72t-76 46t-97 16q-50 0 -94.5 -16.5t-77.5 -46.5t-52.5 -71.5t-19.5 -90.5q0 -66 26.5 -115.5t69.5 -72.5q-11 17 -15.5 35t-4.5 38q0 30 11 54.5t30 42t44 27
t54 9.5q31 0 57.5 -10t46 -28t31 -43t11.5 -56q0 -35 -16 -67t-44 -56.5t-67 -39.5t-84 -15q-54 0 -98 18.5t-82 53.5q-89 83 -89 225q0 146 107 235q108 93 256 93q84 0 150 -23t112.5 -65.5t71 -102.5t24.5 -133zM453 178q0 23 -16.5 39t-39.5 16t-39 -16t-16 -39t16 -39
t39 -16t39.5 16t16.5 39z" />
    <glyph glyph-name="uni0E52" unicode="&#xe52;" horiz-adv-x="1153" 
d="M1061 0h-787q-182 0 -182 156v514q0 53 -33 92q-37 49 -121 67l95 72q92 -26 135 -84.5t43 -130.5v-493q0 -48 20 -66t76 -18h635v344q0 38 -26.5 61t-69.5 23q-45 0 -70.5 -26.5t-25.5 -64.5v-272h-119v270q0 38 -28 65.5t-79 27.5q-48 0 -77 -23.5t-29 -60.5v-15l35 2
q27 0 52 -9.5t44.5 -26.5t31 -42.5t11.5 -56.5q0 -30 -12 -55.5t-32 -44t-46 -29t-53 -10.5q-67 0 -108.5 39.5t-41.5 111.5v144q0 42 17.5 75.5t46 56.5t66 35.5t77.5 12.5q66 0 109.5 -20t74.5 -58q26 35 69 56.5t97 21.5q43 0 80.5 -11.5t65 -34t43.5 -55.5t16 -75v-465z
M500 307q0 23 -14 37t-37 14t-37.5 -14t-14.5 -37t14.5 -37t37.5 -14t37 14t14 37z" />
    <glyph glyph-name="uni0E53" unicode="&#xe53;" horiz-adv-x="1020" 
d="M928 0h-119v410q0 57 -29 84.5t-80 27.5q-27 0 -48.5 -9t-36.5 -24.5t-23 -36t-8 -42.5v-410h-119v406q0 24 -9.5 45.5t-26.5 37t-41 24.5t-52 9q-57 0 -91 -30.5t-34 -73.5v-158l41 6q31 0 58 -9.5t47 -27.5t32 -43.5t12 -56.5q0 -30 -12.5 -55t-33.5 -43t-48.5 -28
t-58.5 -10q-75 0 -115.5 39.5t-40.5 108.5v277q0 42 17 79.5t48.5 66t75.5 45t97 16.5q72 0 120 -27t74 -66q25 39 72.5 66t110.5 27q49 0 90 -15.5t70 -43t45 -66t16 -84.5v-416zM307 129q0 25 -16 41t-41 16t-41 -16t-16 -41t16 -41t41 -16t41 16t16 41z" />
    <glyph glyph-name="uni0E54" unicode="&#xe54;" horiz-adv-x="887" 
d="M858 881q0 -80 -26 -143.5t-75.5 -107.5t-120.5 -67.5t-161 -23.5q-70 0 -125 -12.5t-92.5 -40t-57.5 -70.5t-20 -103q0 -50 14.5 -89t40.5 -66t62 -41.5t80 -14.5q29 0 59.5 3t61.5 10q-35 32 -57.5 79.5t-22.5 98.5q0 34 11.5 61.5t32 47.5t48.5 31t61 11q31 0 57 -9.5
t45.5 -27.5t30.5 -43.5t11 -56.5q0 -22 -9 -44t-25 -40.5t-39.5 -31t-51.5 -15.5q23 -32 119 -47q99 -15 145 -59l-74 -77q-24 11 -43.5 19.5t-37 14t-35 8t-39.5 2.5q-16 0 -43.5 -5t-65.5 -16q-79 -17 -158 -17q-124 0 -211 83q-86 86 -86 227q0 178 115 260
q51 35 121 53.5t164 18.5q129 0 203.5 51.5t74.5 157.5q-1 5 -1.5 9.5t-0.5 8.5v13h121zM629 307q0 25 -16.5 41.5t-41.5 16.5q-24 0 -40.5 -16.5t-16.5 -41.5t16.5 -41t40.5 -16q25 0 41.5 16t16.5 41z" />
    <glyph glyph-name="uni0E55" unicode="&#xe55;" horiz-adv-x="887" 
d="M858 881q0 -80 -25.5 -142.5t-74.5 -106t-120.5 -66.5t-162.5 -23q-68 0 -123 -13t-93 -41t-58.5 -71.5t-20.5 -104.5q0 -50 14.5 -89t40.5 -66t62 -41.5t80 -14.5q29 0 59.5 3t61.5 10q-35 32 -57.5 79.5t-22.5 98.5q0 34 11.5 61.5t32 47.5t48.5 31t61 11q31 0 57 -9.5
t45.5 -27.5t30.5 -43.5t11 -56.5q0 -22 -9 -44t-25 -40.5t-39.5 -31t-51.5 -15.5q23 -32 119 -47q99 -15 145 -59l-74 -77q-24 11 -43.5 19.5t-37 14t-35 8t-39.5 2.5q-16 0 -43.5 -5t-65.5 -16q-79 -17 -158 -17q-124 0 -211 83q-86 86 -86 227q0 135 63.5 212t178.5 106
q-18 23 -26.5 44t-8.5 46q0 33 12.5 60.5t34.5 48t52.5 31.5t66.5 11t66.5 -11t52.5 -31.5t34.5 -48t12.5 -60.5q0 -34 -18 -62q75 19 116 67.5t41 129.5q-1 5 -1.5 8.5t-0.5 7.5v13h121zM500 709q0 65 -66 65q-65 0 -65 -65q0 -66 65 -66q66 0 66 66zM629 307
q0 25 -16.5 41.5t-41.5 16.5q-24 0 -40.5 -16.5t-16.5 -41.5t16.5 -41t40.5 -16q25 0 41.5 16t16.5 41z" />
    <glyph glyph-name="uni0E56" unicode="&#xe56;" horiz-adv-x="791" 
d="M729 317q0 -69 -24 -126t-72 -105q-95 -93 -246 -93q-67 0 -123 14t-96.5 40.5t-63 64.5t-22.5 85q0 28 12 53t32 43.5t47.5 29.5t57.5 11q31 0 58 -11t47.5 -29.5t32.5 -43.5t12 -53q0 -59 -43 -99q8 -2 22 -4t25 -2q87 0 156 66t69 157q0 45 -14 83t-43 67
q-65 65 -168 65q-58 0 -114.5 -24t-92.5 -66l-96 9q0 84 -35 174q-49 126 -163 208l101 62q90 -66 142 -172q41 -84 51 -160q20 14 42.5 25t45.5 20q34 14 66.5 20.5t64.5 6.5q162 0 250 -94q82 -88 82 -222zM289 195q0 24 -16.5 40.5t-41.5 16.5q-24 0 -40.5 -16.5
t-16.5 -40.5q0 -25 16.5 -41.5t40.5 -16.5q25 0 41.5 16.5t16.5 41.5z" />
    <glyph glyph-name="uni0E57" unicode="&#xe57;" horiz-adv-x="1204" 
d="M1143 543q0 -160 -59 -298.5t-177 -244.5h-98v410q0 57 -29 84.5t-80 27.5q-27 0 -48.5 -9t-36.5 -24.5t-23 -36t-8 -42.5v-410h-119v406q0 24 -9.5 45.5t-26.5 37t-41 24.5t-52 9q-57 0 -91 -30.5t-34 -73.5v-158l41 6q31 0 58 -9.5t47 -27.5t32 -43.5t12 -56.5
q0 -30 -12.5 -55t-33.5 -43t-48.5 -28t-58.5 -10q-75 0 -115.5 39.5t-40.5 108.5v277q0 42 17 79.5t48.5 66t75.5 45t97 16.5q72 0 120 -27t74 -66q25 39 72.5 66t110.5 27q49 0 90 -15.5t70 -43t45 -66t16 -84.5v-234q24 39 43 83.5t31.5 90t19 91.5t6.5 88
q0 55 -5.5 101.5t-16 88t-26 80.5t-34.5 78h123q74 -154 74 -340zM307 129q0 25 -16 41t-41 16t-41 -16t-16 -41t16 -41t41 -16t41 16t16 41z" />
    <glyph glyph-name="uni0E58" unicode="&#xe58;" horiz-adv-x="903" 
d="M858 881q0 -80 -25.5 -143.5t-74.5 -108t-120.5 -68.5t-162.5 -24q-72 0 -125 -12.5t-88 -35.5q-82 -54 -82 -180q0 -47 7.5 -86t19.5 -66.5t27.5 -43t31.5 -15.5q28 0 74 52q33 39 86 116q22 -45 47.5 -77.5t54.5 -55.5q47 -37 97 -37q45 0 59 15q-32 0 -57.5 11
t-44.5 29.5t-29 42t-10 48.5q0 28 10.5 53t29.5 43.5t46 29.5t61 11q31 0 58.5 -12t48 -33.5t32 -51t11.5 -63.5q0 -90 -58 -160q-59 -66 -143 -66q-69 0 -123 30t-86 75q-33 -45 -65 -71q-46 -34 -101 -34q-81 0 -139 79q-64 88 -64 233q0 182 115 264q97 70 285 70
q129 0 203.5 51t74.5 160q-1 5 -1.5 9.5t-0.5 8.5v13h121zM743 244q0 24 -16 40.5t-41 16.5t-41 -16.5t-16 -40.5q0 -25 16 -41.5t41 -16.5t41 16.5t16 41.5z" />
    <glyph glyph-name="uni0E59" unicode="&#xe59;" horiz-adv-x="995" 
d="M1073 881q0 -63 -11 -123.5t-34 -120.5q-53 -137 -129 -137q-48 0 -104 53q-32 29 -60 29q-57 0 -57 -97q0 -29 6 -63.5t23 -79.5q14 -45 30.5 -80.5t34.5 -64.5q60 -96 154 -134l-99 -70q-67 21 -125 103q-71 99 -139 293q-42 139 -194 139q-40 0 -74.5 -15t-60 -43.5
t-40 -68.5t-14.5 -90q0 -46 13.5 -85.5t38 -69t60 -46t79.5 -16.5h16q6 0 12 2q-24 4 -42.5 15.5t-32 27.5t-20.5 35t-7 39q0 25 9 48.5t26.5 40.5t41.5 27.5t54 10.5q28 0 53 -10t43 -28.5t28.5 -44t10.5 -56.5q0 -44 -16.5 -82t-45.5 -65.5t-68.5 -43t-84.5 -15.5
q-106 0 -186 71q-101 92 -101 262q0 139 89 225t219 86q69 0 119 -17.5t94 -60.5q15 55 51 90q44 41 100 41q49 0 96 -41t58 -41q26 0 47 82q11 42 15.5 88.5t4.5 100.5h119zM477 217q0 20 -15.5 35.5t-35.5 15.5q-23 0 -37 -14t-14 -37t14 -37t37 -14q20 0 35.5 15.5
t15.5 35.5z" />
    <glyph glyph-name="uni0E5A" unicode="&#xe5a;" horiz-adv-x="1036" 
d="M702 0h-118v616q-26 -23 -59.5 -43.5t-71.5 -37.5q-81 -29 -162 -29q-49 0 -91 13t-73 37t-48.5 57.5t-17.5 74.5q0 28 11.5 53.5t32 45t48.5 31t62 11.5q69 0 111.5 -37.5t42.5 -103.5q0 -39 -23 -74q44 6 83 23t70 43.5t52.5 61.5t30.5 77h51q35 0 51 -16
q18 -12 18 -51v-752zM279 688q0 25 -17.5 43.5t-46.5 18.5q-63 0 -63 -62q0 -29 15.5 -42.5t47.5 -18.5q64 0 64 61zM924 0h-119v819h119v-819z" />
    <glyph glyph-name="uni0E5B" unicode="&#xe5b;" horiz-adv-x="1393" 
d="M1368 434q0 -12 -17.5 -23.5t-37.5 -13.5l-103 -10q-6 -20 -19 -38.5t-30 -18.5q-15 0 -31 22q-5 5 -11 17t-17 30q-11 -37 -27 -64.5t-33 -27.5q-14 0 -31 28.5t-40 76.5q-8 -29 -15 -50.5t-12 -33.5q-18 -41 -39 -41q-19 0 -47 63q-8 17 -14.5 35t-14.5 35
q-6 -28 -16 -56t-22 -50.5t-24 -37t-22 -14.5q-34 0 -45 35q-5 19 -6.5 31.5t-3.5 23.5q-3 22 -18 62q-17 -69 -45.5 -128t-65.5 -98q-100 -112 -227 -112q-62 0 -112 24.5t-86 68.5t-55.5 106.5t-19.5 138.5q0 149 70 243q35 51 80.5 75t99.5 24q43 0 82 -18.5t68 -52
t46 -79.5t17 -100q0 -44 -10 -79t-28.5 -60t-43.5 -38.5t-55 -13.5q-24 0 -46.5 10.5t-39.5 28.5t-27 42.5t-10 52.5q0 27 10 51t27 43t38.5 30t45.5 11l21 -2q-35 80 -93 80q-32 0 -59.5 -19t-47.5 -53t-32 -81t-12 -103t13.5 -100t37.5 -74.5t57.5 -47t73.5 -16.5
q47 0 88.5 24.5t74.5 69.5t57 109.5t36 144.5q8 50 19.5 66t37.5 16q10 0 22.5 -12t25.5 -32t26 -47t25 -58l12 73q15 58 41 58q19 0 45.5 -32.5t46.5 -86.5q16 82 45 82q23 0 46.5 -29.5t47.5 -77.5q13 38 24.5 58t31.5 20q14 0 30.5 -18.5t30.5 -44.5q16 33 47 28l111 -14
q18 0 35.5 -10t17.5 -21zM434 449q0 61 -49 61q-19 0 -34 -17.5t-15 -43.5t14.5 -43t34.5 -17q49 0 49 60z" />
    <glyph glyph-name="endash" unicode="&#x2013;" horiz-adv-x="758" 
d="M696 295h-635v92h635v-92z" />
    <glyph glyph-name="emdash" unicode="&#x2014;" horiz-adv-x="1516" 
d="M1454 295h-1393v92h1393v-92z" />
    <glyph glyph-name="quoteleft" unicode="&#x2018;" horiz-adv-x="350" 
d="M279 768q0 -48 -28 -76t-73 -28q-43 0 -74.5 32t-31.5 92q0 79 36 145t99 111l69 -45q-20 -11 -36 -26.5t-28.5 -32.5t-20.5 -34t-11 -32q19 0 37 -7.5t31.5 -21.5t22 -33.5t8.5 -43.5z" />
    <glyph glyph-name="quoteright" unicode="&#x2019;" horiz-adv-x="350" 
d="M279 920q0 -79 -36.5 -145t-99.5 -111l-69 45q38 21 67 63q25 37 29 62q-39 0 -68.5 29t-29.5 77t28.5 76t71.5 28q21 0 40.5 -8.5t34.5 -24t23.5 -38.5t8.5 -53z" />
    <glyph glyph-name="quotedblleft" unicode="&#x201c;" horiz-adv-x="618" 
d="M547 768q0 -48 -28 -76t-73 -28q-43 0 -74.5 32t-31.5 92q0 79 36 145t99 111l70 -45q-20 -11 -36 -26.5t-28.5 -32.5t-20.5 -34t-11 -32q39 0 68.5 -29t29.5 -77zM279 768q0 -48 -28 -76t-73 -28q-43 0 -74.5 32t-31.5 92q0 79 36 145t99 111l69 -45q-20 -11 -36 -26.5
t-28.5 -32.5t-20.5 -34t-11 -32q19 0 37 -7.5t31.5 -21.5t22 -33.5t8.5 -43.5z" />
    <glyph glyph-name="quotedblright" unicode="&#x201d;" horiz-adv-x="618" 
d="M547 920q0 -79 -36 -145t-99 -111l-70 45q39 22 68 63q22 34 28 62q-39 0 -68.5 29t-29.5 77t28.5 76t71.5 28q45 0 76 -32t31 -92zM279 920q0 -79 -36.5 -145t-99.5 -111l-69 45q38 21 67 63q25 37 29 62q-39 0 -68.5 29t-29.5 77t28.5 76t71.5 28q21 0 40.5 -8.5
t34.5 -24t23.5 -38.5t8.5 -53z" />
    <glyph glyph-name="bullet" unicode="&#x2022;" horiz-adv-x="799" 
d="M707 410q0 -129 -91 -217q-88 -91 -217 -91q-126 0 -217 91q-90 90 -90 217q0 125 90 217q91 90 217 90q127 0 217 -90q91 -91 91 -217z" />
    <glyph glyph-name="ellipsis" unicode="&#x2026;" horiz-adv-x="1352" 
d="M1200 0h-149v150h149v-150zM750 0h-150v150h150v-150zM301 0h-151v150h151v-150z" />
    <glyph glyph-name="thothannobasethai" unicode="&#xf700;" horiz-adv-x="778" 
d="M764 766q-35 -45 -73.5 -66.5t-94.5 -21.5q-47 0 -170 37q-65 18 -111 18q-55 0 -95 -20t-54 -49h67q14 0 26 -0.5t20 -1.5q17 -2 55 -7t98 -14q121 -17 182 -51q80 -47 80 -129q0 -26 -20 -89.5t-62 -166.5q-21 -54 -33.5 -104t-17.5 -101h-137l-92 264q-37 -20 -76 -20
q-32 0 -59.5 10.5t-48 29.5t-32.5 45t-12 58q0 31 12 58t33 46t48.5 30t58.5 11q69 0 107.5 -35t58.5 -104l65 -219q0 44 41 135q43 87 43 144q0 74 -133 98q-14 3 -43.5 6t-77.5 8q-45 5 -86 8.5t-79.5 6t-75.5 3.5t-76 1q29 118 111 184t213 66q29 0 65.5 -6.5t81.5 -18.5
t72.5 -18.5t38.5 -6.5q31 0 55.5 16t38.5 36zM319 387q0 66 -65 66q-66 0 -66 -66q0 -65 66 -65q65 0 65 65z" />
    <glyph glyph-name="saraileftthai" unicode="&#xf701;" 
d="M-329 922q-60 11 -115.5 17t-109.5 9q-54 5 -113.5 6.5t-128.5 1.5q-51 0 -105.5 -1t-111.5 -1q25 125 108 191.5t208 66.5q149 0 243.5 -74.5t124.5 -215.5zM-452 1016q-15 27 -40 47.5t-56.5 35t-68.5 22t-76 7.5q-63 0 -116 -23t-85 -71q32 5 70 6.5t80 1.5
q61 0 134 -6t158 -20z" />
    <glyph glyph-name="saraiileftthai" unicode="&#xf702;" 
d="M-331 922q-60 11 -115.5 17t-109.5 9q-54 5 -113.5 6.5t-128.5 1.5q-51 0 -105.5 -1t-111.5 -1q25 125 108 191.5t208 66.5q75 0 137.5 -20t111.5 -62v148h119v-356zM-454 1016q-15 27 -40 47.5t-56.5 35t-68.5 22t-76 7.5q-63 0 -116 -23t-85 -71q32 5 69.5 6.5
t79.5 1.5q63 0 135.5 -6t157.5 -20z" />
    <glyph glyph-name="saraueleftthai" unicode="&#xf703;" 
d="M-259 1151q0 -87 -84 -121q12 -25 21.5 -52t15.5 -56q-60 11 -116.5 17t-108.5 9q-54 5 -113.5 6.5t-128.5 1.5q-51 0 -105.5 -1t-111.5 -1q25 125 107.5 191.5t207.5 66.5q82 0 150 -24q24 94 129 94q30 0 55 -10t43.5 -27t28.5 -41.5t10 -52.5zM-335 1155
q0 20 -17 36.5t-40 16.5t-40.5 -15t-17.5 -38q0 -20 17.5 -36.5t40.5 -16.5t40 15t17 38zM-429 1016q-15 27 -40 47.5t-57 35t-69 22t-76 7.5q-63 0 -115.5 -23t-84.5 -71q32 5 69.5 6.5t79.5 1.5q63 0 135.5 -6t157.5 -20z" />
    <glyph glyph-name="saraueeleftthai" unicode="&#xf704;" 
d="M-331 922q-60 11 -115.5 17t-109.5 9q-54 5 -113.5 6.5t-128.5 1.5q-51 0 -105.5 -1t-111.5 -1q25 125 108 191.5t208 66.5q16 0 28 -0.5t23 -1.5t23 -3t28 -5v76h86v-107l33 -18q6 -5 13 -10t15 -13v148h119v-356zM-454 1016q-15 27 -40 47.5t-56.5 35t-68.5 22t-76 7.5
q-63 0 -116 -23t-85 -71q32 5 69.5 6.5t79.5 1.5q63 0 135.5 -6t157.5 -20z" />
    <glyph glyph-name="maieklowleftthai" unicode="&#xf705;" 
d="M-355 942h-119v266h119v-266z" />
    <glyph glyph-name="maitholowleftthai" unicode="&#xf706;" 
d="M-91 1231q-35 -131 -150 -209q-137 -92 -352 -92l-29 69q38 11 68 28t41 34q-45 11 -72.5 42t-27.5 79q0 25 10 47.5t27.5 39t41.5 26.5t52 10t52.5 -8t43 -24t29 -40t10.5 -55q0 -16 -4.5 -33.5t-11 -34t-15.5 -31t-18 -24.5q78 20 128 74t66 124zM-427 1180
q0 23 -16 37t-39 14q-56 0 -56 -51q0 -23 16.5 -37.5t39.5 -14.5q55 0 55 52z" />
    <glyph glyph-name="maitrilowleftthai" unicode="&#xf707;" 
d="M-167 1284q0 -117 -68 -221q-27 -42 -59 -75t-70 -56l-84 26q17 36 26 69t9 65t-11 52.5t-40 20.5q-26 0 -41.5 -15t-21.5 -38h-37q-22 55 -82 55q-23 0 -41 -11t-23 -23q51 0 80 -27.5t29 -75.5q0 -49 -31 -76.5t-76 -27.5q-44 0 -77 30q-23 20 -34 50.5t-11 68.5
q0 41 12.5 74.5t35 57.5t53 37t66.5 13q45 0 72 -15t45 -40q13 20 39 36.5t64 16.5q60 0 92.5 -36t32.5 -99l-5 -35q29 39 47.5 95t18.5 116zM-663 1030q0 43 -43 43t-43 -43t43 -43t43 43z" />
    <glyph glyph-name="maichattawalowleftthai" unicode="&#xf708;" 
d="M-310 1075h-144v-133h-118v133h-144v88h144v133h118v-133h144v-88z" />
    <glyph glyph-name="thanthakhatlowleftthai" unicode="&#xf709;" 
d="M-220 1270q-12 -38 -50 -67.5t-87 -37.5l-62 -6q51 -35 51 -100q0 -27 -10.5 -50t-28 -40.5t-41.5 -27t-51 -9.5q-28 0 -54 10.5t-46.5 29.5t-32.5 45t-12 58q0 31 11.5 58t32 48t48.5 34t61 16q32 5 56.5 9.5t40.5 10.5q54 19 63 54zM-443 1057q0 23 -16.5 39t-39.5 16
t-39 -16t-16 -39t16 -39.5t39 -16.5t39.5 16.5t16.5 39.5z" />
    <glyph glyph-name="maieklowrightthai" unicode="&#xf70a;" 
d="M-110 942h-118v266h118v-266z" />
    <glyph glyph-name="maitholowrightthai" unicode="&#xf70b;" 
d="M0 1231q-35 -132 -149 -209q-69 -46 -155 -69t-197 -23l-28 69q37 11 67 28t41 34q-45 11 -72.5 42t-27.5 79q0 25 10 47.5t27.5 39t41.5 26.5t52 10q57 0 96 -32t39 -95q0 -16 -4.5 -33.5t-11 -34t-15.5 -31t-18 -24.5q78 20 128 74t66 124zM-335 1180q0 23 -16 37
t-39 14q-55 0 -55 -51q0 -23 16 -37.5t39 -14.5q55 0 55 52z" />
    <glyph glyph-name="maitrilowrightthai" unicode="&#xf70c;" 
d="M-22 1284q0 -118 -67 -221q-56 -85 -129 -131l-84 26q17 36 26 69t9 65t-11 52.5t-40 20.5q-26 0 -42 -15t-22 -38h-37q-21 55 -82 55q-23 0 -40.5 -11t-22.5 -23q49 0 78.5 -27.5t29.5 -75.5q0 -49 -31.5 -76.5t-74.5 -27.5q-44 0 -78 30q-23 20 -34 50.5t-11 68.5
q0 41 12.5 74.5t35 57.5t53.5 37t67 13q43 0 70.5 -15t46.5 -40q12 20 38.5 36.5t63.5 16.5q60 0 92.5 -36t32.5 -99l-4 -35q29 39 47 95t18 116zM-517 1030q0 43 -43 43t-43 -43t43 -43t43 43z" />
    <glyph glyph-name="maichattawalowrightthai" unicode="&#xf70d;" 
d="M-110 1075h-143v-133h-119v133h-143v88h143v133h119v-133h143v-88z" />
    <glyph glyph-name="thanthakhatlowrightthai" unicode="&#xf70e;" 
d="M-24 1270q-11 -38 -49 -67.5t-88 -37.5l-61 -6q51 -35 51 -100q0 -27 -10.5 -50t-28 -40.5t-41.5 -27t-51 -9.5q-29 0 -55 10.5t-46.5 29.5t-32.5 45t-12 58q0 31 11.5 58t32.5 48t49 34t61 16q32 5 56.5 9.5t39.5 10.5q54 20 64 54zM-247 1057q0 23 -16 39t-39 16
t-39 -16t-16 -39t16 -39.5t39 -16.5t39 16.5t16 39.5z" />
    <glyph glyph-name="yoyingnobasethai" unicode="&#xf70f;" horiz-adv-x="1223" 
d="M1110 168q0 -92 -51 -130t-154 -38h-393v102h102v478q0 37 -17 66t-47 48t-70.5 29t-86.5 10q-72 0 -125 -19.5t-84 -51.5q32 -11 67.5 -25t80.5 -39q-48 -26 -74.5 -60.5t-26.5 -76.5v-178q18 8 45 8q31 0 59 -11t49 -30.5t33.5 -48t12.5 -62.5q0 -33 -12.5 -60
t-33.5 -46t-50 -29.5t-62 -10.5q-75 0 -117 41t-42 116v303q0 32 14.5 64t56.5 61q-32 17 -67.5 27.5t-77.5 21.5q21 48 56 87t81.5 66t102.5 41.5t118 14.5q76 0 138 -15.5t106 -47t68 -78.5t24 -111v-482h141q63 0 90 17t27 67v633h119v-651zM344 139q0 64 -68 64
q-29 0 -48 -17.5t-19 -46.5q0 -26 19 -44.5t48 -18.5q26 0 47 18.5t21 44.5z" />
    <glyph glyph-name="maihanakatleftthai" unicode="&#xf710;" 
d="M-108 1262q0 -157 -116 -246q-104 -78 -246 -78q-57 0 -102 11t-80 34q-80 53 -80 139q0 28 10.5 52.5t29 42.5t44 28t55.5 10q28 0 53.5 -10t44.5 -28.5t30 -43.5t11 -55q0 -50 -26 -84q105 0 182 56q86 65 86 172h104zM-538 1118q0 23 -16 39.5t-39 16.5t-39 -16.5
t-16 -39.5t16 -39t39 -16t39 16t16 39z" />
    <glyph glyph-name="nikhahitleftthai" unicode="&#xf711;" 
d="M-255 1114q0 -33 -12 -61.5t-33 -49.5t-49.5 -33t-61.5 -12t-61.5 12t-49 33t-32.5 49.5t-12 61.5t12 61.5t32.5 49.5t49 33t61.5 12t61.5 -12t49.5 -33t33 -49.5t12 -61.5zM-339 1114q0 31 -20.5 51.5t-51.5 20.5t-51 -20.5t-20 -51.5t20 -51.5t51 -20.5t51.5 20.5
t20.5 51.5z" />
    <glyph glyph-name="maitaikhuleftthai" unicode="&#xf712;" 
d="M-275 1368q0 -43 -17 -77.5t-46.5 -58.5t-70 -37t-86.5 -13q-14 0 -38.5 1t-59.5 3q-37 2 -57 3t-25 1q-45 0 -73.5 -23t-28.5 -65q0 -16 8 -29t20.5 -22t28.5 -12t31 1l96 105l72 -74q6 43 36 69.5t78 26.5q51 0 84 -32.5t33 -83.5q0 -25 -10.5 -46.5t-28.5 -37.5
t-42 -25.5t-52 -9.5q-96 0 -170 80l-63 -70h-72q-60 0 -100 39q-50 47 -50 117q0 73 50 123q55 57 157 57q15 0 35.5 -1t41.5 -2t40.5 -2t33.5 -1h21q51 0 83.5 23.5t37.5 72.5h103zM-361 1051q0 45 -46 45q-45 0 -45 -45t45 -45q46 0 46 45z" />
    <glyph glyph-name="maiekupperleftthai" unicode="&#xf713;" 
d="M-331 1339h-119v226h119v-226z" />
    <glyph glyph-name="maithoupperleftthai" unicode="&#xf714;" 
d="M-169 1599q-14 -57 -47.5 -104t-87.5 -82q-126 -84 -318 -84l-24 62q80 23 96 55q-90 21 -90 108q0 24 9 44.5t25 35t37.5 23t47.5 8.5q25 0 47 -7.5t38.5 -21.5t26 -36t9.5 -50q0 -32 -12.5 -61t-30.5 -47q69 18 114.5 66.5t59.5 111.5zM-472 1552q0 47 -49 47
q-51 0 -51 -47q0 -18 15.5 -31.5t35.5 -13.5q49 0 49 45z" />
    <glyph glyph-name="maitriupperleftthai" unicode="&#xf715;" 
d="M-108 1647q0 -105 -61 -199q-50 -77 -117 -117l-75 23q12 29 22 59.5t10 61.5q0 65 -47 65q-25 0 -38 -13.5t-19 -33.5h-33q-18 49 -74 49q-23 0 -37.5 -9t-19.5 -22q43 0 70.5 -25t27.5 -67q0 -21 -8 -38.5t-21.5 -30t-31 -19t-35.5 -6.5q-43 0 -70 27q-41 38 -41 108
q0 36 12 66t32.5 52t48 34t59.5 12q37 0 62 -14t42 -37q13 20 35 34.5t58 14.5q54 0 83 -33t29 -90l-4 -31q12 15 22.5 37.5t19 48.5t13.5 53.5t5 51.5zM-554 1419q0 39 -39 39t-39 -39t39 -39t39 39z" />
    <glyph glyph-name="maichattawaupperleftthai" unicode="&#xf716;" 
d="M-208 1452h-123v-113h-119v113h-122v88h122v113h119v-113h123v-88z" />
    <glyph glyph-name="thanthakhatupperleftthai" unicode="&#xf717;" 
d="M-271 1593q-22 -79 -123 -94l-56 -6q45 -33 45 -90q0 -24 -9 -45t-24.5 -36.5t-37 -24.5t-45.5 -9q-26 0 -49.5 9.5t-41.5 26.5t-29 40.5t-11 52.5q0 57 38 96t101 46q31 5 52.5 8t33.5 8q48 15 57 49zM-472 1401q0 23 -14.5 37t-34.5 14q-23 0 -37 -14t-14 -37
q0 -49 51 -49q49 0 49 49z" />
    <glyph glyph-name="saraulowthai" unicode="&#xf718;" 
d="M-103 -880h-119v156l-35 -4q-51 0 -92 35q-47 39 -47 104q0 31 12 56.5t32 44.5t45.5 29.5t53.5 10.5q33 0 60.5 -11t47.5 -31t31 -48.5t11 -62.5v-279zM-194 -587q0 25 -17 42.5t-42 17.5t-42 -17.5t-17 -42.5t17 -42t42 -17t42 17t17 42z" />
    <glyph glyph-name="sarauulowthai" unicode="&#xf719;" 
d="M-114 -724q0 -63 -36 -90t-99 -27h-184v119l-35 -4q-26 0 -50.5 9.5t-44.5 27.5t-32 43t-12 57q0 31 12 56.5t32 44.5t45.5 29.5t53.5 10.5q31 0 58.5 -10.5t48 -30.5t32 -48t11.5 -62v-143h53q29 0 29 28v266h118v-276zM-405 -587q0 25 -17 42.5t-42 17.5t-42 -17.5
t-17 -42.5t17 -42t42 -17t42 17t17 42z" />
    <glyph glyph-name="phinthulowthai" unicode="&#xf71a;" 
d="M-110 -540q0 -42 -25.5 -67t-62.5 -25t-62.5 25t-25.5 67t25.5 67t62.5 25t62.5 -25t25.5 -67z" />
    <glyph glyph-name="minus" unicode="&#xad;" horiz-adv-x="758" 
d="M61 315v52h635v-52h-635z" />
    <glyph glyph-name="uni0E33_1" horiz-adv-x="713" 
d="M600 0h-119v580q0 75 -48 114t-124 39q-72 0 -123 -35.5t-69 -107.5h-117q19 115 98 180.5t211 65.5q65 0 118.5 -17.5t92 -50.5t59.5 -79.5t21 -104.5v-584zM-255 1114q0 -33 -12 -61.5t-33 -49.5t-49.5 -33t-61.5 -12t-61.5 12t-49 33t-32.5 49.5t-12 61.5t12 61.5
t32.5 49.5t49 33t61.5 12t61.5 -12t49.5 -33t33 -49.5t12 -61.5zM-339 1114q0 31 -20.5 51.5t-51.5 20.5t-51 -20.5t-20 -51.5t20 -51.5t51 -20.5t51.5 20.5t20.5 51.5z" />
    <glyph glyph-name="uni0E4E_1" 
d="M-110 1356q-26 2 -46 3t-34 1q-45 0 -84 -5t-68 -15.5t-45.5 -26.5t-16.5 -37q0 -29 29 -35t92 -6v-94q-20 2 -35.5 3t-28.5 1q-40 0 -74 -6t-59.5 -16.5t-40 -26t-14.5 -33.5q0 -29 49 -29q31 0 58.5 9.5t58.5 23.5l49 -82q-35 -19 -80 -33t-90 -14q-6 2 -9 2h-7h-11
q-57 6 -92 36t-35 75q0 42 24 75.5t66 53.5q34 21 82 24q-43 21 -43 74q0 21 9.5 42.5t26.5 41t40.5 35.5t50.5 26q54 23 117.5 28t135.5 5h25v-100v0z" />
    <glyph glyph-name="currency" unicode="&#xa4;" horiz-adv-x="840" 
d="M422 729q-96 0 -160 -67q-65 -73 -65 -160q0 -94 63 -164q65 -68 162 -68q92 0 158 68q63 63 63 164q0 46 -16.5 87t-45.5 72t-70 49.5t-89 18.5zM8 164l148 145q-62 83 -62 193q0 114 62 188l-148 150l76 71l145 -145q79 59 193 59q55 0 105.5 -16t82.5 -43l150 145
l71 -71l-145 -150q59 -79 59 -188q0 -114 -59 -193l145 -145l-71 -76l-150 148q-15 -13 -36 -23.5t-47 -20.5q-53 -18 -105 -18q-110 0 -193 62l-145 -148z" />
    <glyph glyph-name="FL00A9h" unicode="&#xa9;" horiz-adv-x="1081" 
d="M1049 485q0 -216 -150 -360q-149 -144 -356 -144q-212 0 -361 142q-149 143 -149 362q0 211 147 357q76 72 165.5 108.5t197.5 36.5q208 0 356 -145q150 -146 150 -357zM956 485q0 180 -120 303q-119 125 -293 125q-180 0 -299 -125q-119 -121 -119 -303q0 -186 119 -311
q120 -123 299 -123q175 0 295 123q60 63 89 140t29 171zM809 385q-12 -49 -35 -88.5t-55 -67t-72.5 -42.5t-87.5 -15q-68 0 -123.5 23.5t-95 64.5t-61 98t-21.5 125q0 69 20 125.5t58.5 97t93.5 63t125 22.5q49 0 92.5 -13.5t77 -40t55.5 -64.5t29 -87h-86q-11 57 -55.5 94
t-112.5 37q-47 0 -85 -17.5t-64.5 -48.5t-41 -73.5t-14.5 -92.5q0 -49 15 -92t42.5 -75.5t66 -51t85.5 -18.5q66 0 109.5 37t54.5 100h86z" />
    <glyph glyph-name="fongmanfunnuthai" unicode="&#xf880;" 
 />
    <glyph glyph-name="lochula.short" unicode="&#xf71d;" 
 />
    <glyph glyph-name="percent" unicode="%" horiz-adv-x="1352" 
d="M1227 256q0 -114 -49 -188q-57 -81 -166 -81q-58 0 -99.5 18.5t-68 53t-39 83.5t-12.5 110q0 63 11 109.5t34 80.5q54 84 174 84q117 0 170 -80q45 -68 45 -190zM1096 977l-725 -1005h-117l727 1005h115zM559 688q0 -115 -49 -188q-59 -84 -166 -84q-111 0 -170 80
q-49 70 -49 188q0 125 45 193q54 81 174 81q118 0 170 -79q23 -34 34 -81t11 -110zM1126 256q0 80 -18 127q-27 68 -96 68q-34 0 -56.5 -16t-36.5 -43.5t-20 -63t-6 -74.5q0 -81 18 -127q28 -70 97 -70t98 68q11 23 15.5 56t4.5 75zM459 688q0 83 -19 127q-27 70 -96 70
q-34 0 -56.5 -16t-36.5 -43.5t-20 -63.5t-6 -76q0 -81 19 -125q25 -69 96 -69t98 65q11 23 16 56t5 75z" />
    <glyph glyph-name="zerowidthnonjoiner" unicode="&#x200c;" 
 />
    <glyph glyph-name="zerowidthjoiner" unicode="&#x200d;" 
 />
    <glyph glyph-name="saraueesp2" 
d="M-331 922q-60 11 -115.5 17t-109.5 9q-54 5 -113.5 6.5t-128.5 1.5q-51 0 -105.5 -1t-111.5 -1q25 125 108 191.5t208 66.5q16 0 28 -0.5t23 -1.5t23 -3t28 -5v76h86v-107l33 -18q6 -5 13 -10t15 -13v148h119v-356zM-454 1016q-15 27 -40 47.5t-56.5 35t-68.5 22t-76 7.5
q-63 0 -116 -23t-85 -71q32 5 69.5 6.5t79.5 1.5q63 0 135.5 -6t157.5 -20zM-402 1339h-118v226h118v-226z" />
    <glyph glyph-name="saraisp" 
d="M-127 982q-60 11 -116.5 17t-108.5 9q-54 5 -113.5 6.5t-128.5 1.5q-51 0 -105.5 -1t-111.5 -1q25 125 107.5 191.5t207.5 66.5q149 0 244 -74.5t125 -215.5zM-250 1076q-15 27 -40 47.5t-57 35t-69 22t-76 7.5q-63 0 -115.5 -23t-84.5 -71q32 5 69.5 6.5t79.5 1.5
q63 0 135.5 -6t157.5 -20z" />
    <glyph glyph-name="saraiisp" 
d="M-128 982q-60 11 -115.5 17t-109.5 9q-54 5 -113 6.5t-129 1.5q-51 0 -105.5 -1t-111.5 -1q25 125 108 191.5t208 66.5q75 0 137 -20t113 -62v148h118v-356zM-250 1076q-15 27 -40 47.5t-57 35t-69 22t-76 7.5q-63 0 -116 -23t-85 -71q32 5 70 6.5t80 1.5q63 0 135.5 -6
t157.5 -20z" />
    <glyph glyph-name="maieknonu" 
d="M-123 942h-118v266h118v-266z" />
    <glyph glyph-name="F71b_" unicode="&#xf71b;" 
 />
    <glyph glyph-name="F71c_" unicode="&#xf71c;" 
 />
    <glyph glyph-name="numbersign" unicode="#" horiz-adv-x="752" 
d="M707 573h-134l-28 -202h123v-92h-138l-38 -279h-93l39 279h-168l-39 -279h-94l39 279h-131v92h145l29 202h-137v93h149l39 276h95l-41 -276h168l38 276h95l-39 -276h121v-93zM479 573h-168l-26 -202h166z" />
    <glyph glyph-name="dollar" unicode="$" horiz-adv-x="752" 
d="M709 270q0 -65 -22 -118.5t-61 -91.5t-93.5 -58.5t-118.5 -20.5v-111h-74v111q-137 12 -216 91t-91 223h117q0 -88 51 -142.5t139 -66.5v356q-77 20 -129.5 42.5t-81.5 45.5q-68 59 -68 175q0 122 80 202t199 80v90h74v-90q214 -27 266 -268h-115q-27 133 -151 158v-334
l82 -21q76 -21 131 -69q82 -75 82 -183zM340 563v318q-69 -8 -112.5 -48.5t-43.5 -115.5q0 -66 43 -103q35 -29 113 -51zM588 258q0 71 -49 111q-19 14 -49.5 27.5t-75.5 27.5v-338q81 0 127.5 42t46.5 130z" />
    <glyph glyph-name="ampersand" unicode="&#x26;" horiz-adv-x="852" 
d="M872 0h-151l-103 121q-21 -33 -50.5 -58t-65 -42t-75 -25.5t-81.5 -8.5q-85 0 -147 24t-101 75q-53 71 -53 162q0 103 66 178q52 55 159 113l-73 106q-17 29 -25 59t-8 62q0 42 14.5 78.5t42.5 63.5t68.5 42t91.5 15q48 0 90.5 -13t74 -38.5t50 -62t18.5 -83.5
q0 -77 -55 -147q-23 -29 -54 -54.5t-71 -48.5l174 -213q16 38 23.5 76.5t7.5 73.5h111q-5 -42 -10 -73.5t-11 -51.5q-10 -38 -45 -113zM500 762q0 43 -30 72.5t-81 29.5q-22 0 -42 -6.5t-35 -19.5t-24 -32t-9 -44q0 -15 3 -29t13 -33t28 -44t48 -62q29 17 50.5 33.5
t35.5 31.5q43 47 43 103zM555 201l-221 266q-54 -31 -88 -58.5t-49 -50.5q-31 -43 -31 -110q0 -35 14.5 -64.5t40 -51t58.5 -34t71 -12.5q63 0 116.5 30.5t88.5 84.5z" />
    </font>
</defs>
</svg>
