<?xml version="1.0" encoding="utf-8"?>
<!-- Generator: Adobe Illustrator 25.0.0, SVG Export Plug-In . SVG Version: 6.00 Build 0)  -->
<svg version="1.1" id="Layer_2_1_" xmlns="http://www.w3.org/2000/svg" xmlns:xlink="http://www.w3.org/1999/xlink" x="0px" y="0px"
	 viewBox="0 0 50 50" style="enable-background:new 0 0 50 50;" xml:space="preserve">
<style type="text/css">
	.st0{fill:none;stroke:#888888;stroke-width:1.0202;stroke-linecap:round;stroke-linejoin:round;}
	.st1{fill:#FFFFFF;stroke:#888888;stroke-width:1.0202;stroke-linecap:round;stroke-linejoin:round;}
	.st2{fill:#888888;}
</style>
<path class="st0" d="M11.1,34.3h27.8l0,0v1.4c0,1.3-1,2.3-2.3,2.3H13.4c-1.3,0-2.3-1-2.3-2.3C11.1,35.6,11.1,34.3,11.1,34.3z"/>
<path class="st0" d="M13.9,17.5h22.2c0.8,0,1.4,0.6,1.4,1.4l0,0v15.3l0,0H12.5l0,0V18.9C12.5,18.1,13.1,17.5,13.9,17.5L13.9,17.5z"
	/>
<rect x="14.8" y="20.3" class="st0" width="20.4" height="13.9"/>
<path class="st1" d="M23.2,29.2h3.6c1.4,0,2.6,1.2,2.6,2.6v2.5l0,0h-8.8l0,0v-2.5C20.6,30.3,21.8,29.2,23.2,29.2
	C23.2,29.2,23.2,29.2,23.2,29.2z"/>
<ellipse class="st1" cx="25" cy="27" rx="2" ry="2.1"/>
<path class="st1" d="M38.8,13.8v6.1c0,1-0.8,1.8-1.8,1.8H32l-2.7,2.9v-2.9h-2.4c-1,0-1.8-0.8-1.8-1.8c0,0,0,0,0,0v-6.1
	c0-1,0.8-1.8,1.8-1.8h10.2C38,12,38.8,12.8,38.8,13.8z"/>
<path class="st2" d="M29.2,16.5L29.2,16.5c0.3,0,0.6,0.2,0.6,0.6v0c0,0.3-0.2,0.6-0.6,0.6l0,0c-0.3,0-0.6-0.2-0.6-0.6v0
	C28.6,16.8,28.9,16.5,29.2,16.5z"/>
<path class="st2" d="M32,16.5L32,16.5c0.3,0,0.6,0.2,0.6,0.6v0c0,0.3-0.2,0.6-0.6,0.6h0c-0.3,0-0.6-0.2-0.6-0.6v0
	C31.4,16.8,31.7,16.5,32,16.5z"/>
<path class="st2" d="M34.8,16.5L34.8,16.5c0.3,0,0.6,0.2,0.6,0.6v0c0,0.3-0.2,0.6-0.6,0.6l0,0c-0.3,0-0.6-0.2-0.6-0.6v0
	C34.3,16.8,34.5,16.5,34.8,16.5z"/>
</svg>
