<?xml version="1.0" encoding="utf-8"?>
<!-- Generator: Adobe Illustrator 25.0.0, SVG Export Plug-In . SVG Version: 6.00 Build 0)  -->
<svg version="1.1" id="Layer_2_1_" xmlns="http://www.w3.org/2000/svg" xmlns:xlink="http://www.w3.org/1999/xlink" x="0px" y="0px"
	 viewBox="0 0 50 50" style="enable-background:new 0 0 50 50;" xml:space="preserve">
<style type="text/css">
	.st0{fill:none;stroke:#888888;stroke-width:1.0162;stroke-linecap:round;stroke-linejoin:round;}
</style>
<line class="st0" x1="12.2" y1="31" x2="16.9" y2="31"/>
<line class="st0" x1="12.2" y1="34.2" x2="34.8" y2="34.2"/>
<line class="st0" x1="12.2" y1="37.3" x2="34.8" y2="37.3"/>
<line class="st0" x1="22.5" y1="24.8" x2="25" y2="27.4"/>
<path class="st0" d="M24.8,27.9L21,29.5c-0.2,0.1-0.4,0-0.5-0.2c0-0.1,0-0.2,0-0.3l1.6-3.8c0.2-0.4,0.4-0.7,0.7-1l11.7-11.8
	c0.8-0.8,2.2-0.8,3,0c0,0,0,0,0,0l0,0c0.8,0.8,0.8,2.2,0,3L25.7,27.2C25.4,27.5,25.1,27.7,24.8,27.9z"/>
</svg>
