<?xml version="1.0" encoding="utf-8"?>
<!-- Generator: Adobe Illustrator 24.3.0, SVG Export Plug-In . SVG Version: 6.00 Build 0)  -->
<svg version="1.1" id="Layer_2_1_" xmlns="http://www.w3.org/2000/svg" xmlns:xlink="http://www.w3.org/1999/xlink" x="0px" y="0px"
	 viewBox="0 0 33 44.3" style="enable-background:new 0 0 33 44.3;" xml:space="preserve">
<style type="text/css">
	.st0{fill:none;stroke:#888888;stroke-width:1.5;stroke-linecap:round;stroke-linejoin:round;}
</style>
<g>
	<polyline class="st0" points="13.2,38.2 1.1,38.2 1.1,8.2 7.9,1.4 27.5,1.4 27.5,23.2 	"/>
	<path class="st0" d="M8,1.3v4.1c0,1.6-1.3,3-3,3H1"/>
	<path class="st0" d="M5.5,13.2"/>
	<line class="st0" x1="23.3" y1="13.2" x2="5.5" y2="13.2"/>
	<line class="st0" x1="23.3" y1="17.8" x2="5.5" y2="17.8"/>
	<line class="st0" x1="23.3" y1="22.7" x2="5.5" y2="22.7"/>
	<line class="st0" x1="19.9" y1="27.1" x2="5.5" y2="27.1"/>
	<line class="st0" x1="5.7" y1="32" x2="14.3" y2="32"/>
	<path class="st0" d="M14.8,34.6l9.5-7.7c1.3-1.1,3.1-1.6,4.8-1.2c1.3,0.3,2.6,1.1,3,3.1c0.4,2-0.4,4.1-2,5.4L20.8,42
		c-0.9,0.8-2.1,1.2-3.3,1c-0.9-0.1-1.8-0.6-2.2-1.8c-0.5-1.5,0.1-3.1,1.3-4.1l8.9-7.2c0.6-0.5,1.4-0.8,2.2-0.6
		c0.6,0.1,1.3,0.5,1.4,1.4c0.1,0.8-0.3,1.5-0.9,2l-9,7"/>
</g>
</svg>
