<?xml version="1.0" encoding="utf-8"?>
<!-- Generator: Adobe Illustrator 25.0.0, SVG Export Plug-In . SVG Version: 6.00 Build 0)  -->
<svg version="1.1" id="Layer_2_1_" xmlns="http://www.w3.org/2000/svg" xmlns:xlink="http://www.w3.org/1999/xlink" x="0px" y="0px"
	 viewBox="0 0 50 50" style="enable-background:new 0 0 50 50;" xml:space="preserve">
<style type="text/css">
	.st0{fill:none;stroke:#888888;stroke-width:0.9663;stroke-linecap:round;stroke-linejoin:round;}
	.st1{fill:#888888;}
	.st2{fill:#FFFFFF;stroke:#888888;stroke-width:0.9663;stroke-linecap:round;stroke-linejoin:round;}
</style>
<path class="st0" d="M16.3,15.8h17.4c0.9,0,1.6,0.7,1.6,1.6v19.8c0,0.9-0.7,1.6-1.6,1.6H16.3c-0.9,0-1.6-0.7-1.6-1.6V17.4
	C14.7,16.5,15.4,15.8,16.3,15.8z"/>
<line class="st0" x1="21.9" y1="23.4" x2="31.4" y2="23.4"/>
<line class="st0" x1="21.9" y1="26.8" x2="31.4" y2="26.8"/>
<line class="st0" x1="21.9" y1="30.2" x2="31.4" y2="30.2"/>
<line class="st0" x1="21.9" y1="33.6" x2="31.4" y2="33.6"/>
<circle class="st1" cx="19" cy="33.6" r="0.5"/>
<circle class="st1" cx="19" cy="30.2" r="0.5"/>
<circle class="st1" cx="19" cy="26.8" r="0.5"/>
<circle class="st1" cx="19" cy="23.5" r="0.5"/>
<path class="st2" d="M31,17.2v1.4H19v-1.4c0-0.8,0.5-1.5,1.2-1.9c0.8-0.5,1.6-0.4,2.2-2c0.4-1.2,1.4-2,2.6-2c1.2,0.1,2.3,0.9,2.6,2
	c0.6,1.7,1.4,1.6,2.2,2C30.5,15.6,31,16.4,31,17.2z"/>
<circle class="st1" cx="25" cy="14" r="0.7"/>
</svg>
