<?xml version="1.0" encoding="utf-8"?>
<!-- Generator: Adobe Illustrator 25.0.0, SVG Export Plug-In . SVG Version: 6.00 Build 0)  -->
<svg version="1.1" id="Layer_2_1_" xmlns="http://www.w3.org/2000/svg" xmlns:xlink="http://www.w3.org/1999/xlink" x="0px" y="0px"
	 viewBox="0 0 50 50" style="enable-background:new 0 0 50 50;" xml:space="preserve">
<style type="text/css">
	.st0{fill:none;stroke:#888888;stroke-miterlimit:10;}
	.st1{fill:#888888;stroke:#888888;stroke-width:0.5;stroke-linecap:round;stroke-linejoin:round;stroke-miterlimit:10;}
	.st2{fill:none;stroke:#888888;stroke-linejoin:round;stroke-miterlimit:10;}
</style>
<circle class="st0" cx="25.1" cy="25.1" r="24"/>
<path class="st1" d="M12,17.2c-0.4,0-0.8,0.2-1,0.5c-0.2,0.3-0.4,0.7-0.4,1.1v14.7c0,0.4,0.2,0.8,0.5,1.1c0.3,0.3,0.7,0.5,1.1,0.5
	h25.7c0.4,0,0.8-0.2,1.1-0.5c0.3-0.3,0.5-0.7,0.5-1.1V18.8c0-0.4-0.2-0.8-0.4-1.1c-0.2-0.3-0.6-0.5-1-0.5h-6.8H31l0-0.2l-0.5-2.4
	c-0.1-0.3-0.2-0.5-0.4-0.7c-0.2-0.2-0.5-0.3-0.7-0.3H25h-4.3c-0.3,0-0.5,0.1-0.7,0.3c-0.2,0.2-0.3,0.4-0.4,0.7L19,17l0,0.2h-0.2H12z
	 M10.6,17.4c0.3-0.4,0.8-0.6,1.4-0.7h0h6.6l0.4-2.2c0.1-0.4,0.3-0.7,0.6-1c0.3-0.2,0.7-0.4,1.1-0.4H25h4.4c0.4,0,0.8,0.1,1.1,0.4
	c0.3,0.2,0.5,0.6,0.6,1l0.4,2.2H38h0c0.5,0,1,0.3,1.4,0.7c0.3,0.4,0.6,0.9,0.6,1.4v14.7c0,0.6-0.2,1.1-0.6,1.5
	c-0.4,0.4-0.9,0.6-1.5,0.6H12.1c-0.6,0-1.1-0.2-1.5-0.6c-0.4-0.4-0.6-0.9-0.6-1.5V18.8C10.1,18.3,10.3,17.8,10.6,17.4L10.6,17.4z
	 M25,19.2c0.5,0,0.9,0,1.3,0.1c0.5,0.1,0.9,0.2,1.3,0.4l0.2,0.1v0c0.3,0.2,0.7,0.3,1,0.5c0.4,0.3,0.7,0.5,1,0.9l0,0l0,0
	c0.3,0.3,0.6,0.7,0.9,1c0.2,0.3,0.4,0.6,0.5,1h0l0.1,0.2c0.2,0.4,0.3,0.9,0.4,1.3c0.1,0.4,0.1,0.9,0.1,1.3c0,0.5,0,0.9-0.1,1.3
	c-0.1,0.5-0.2,0.9-0.4,1.3L31.3,29l0,0c-0.2,0.3-0.3,0.7-0.5,1c-0.3,0.4-0.5,0.7-0.9,1l0,0l0,0c-0.3,0.3-0.7,0.6-1,0.9
	c-0.3,0.2-0.6,0.4-1,0.5v0l-0.2,0.1c-0.4,0.2-0.9,0.3-1.3,0.4c-0.4,0.1-0.9,0.1-1.3,0.1c-0.5,0-0.9,0-1.3-0.1
	c-0.5-0.1-0.9-0.2-1.3-0.4l-0.2-0.1h0c-0.3-0.2-0.7-0.3-1-0.5c-0.4-0.3-0.7-0.5-1-0.9l0,0l0,0c-0.3-0.3-0.6-0.7-0.9-1
	c-0.2-0.3-0.4-0.6-0.5-1l0,0l-0.1-0.2c-0.2-0.4-0.3-0.9-0.4-1.3c-0.1-0.4-0.1-0.9-0.1-1.3c0-0.5,0-0.9,0.1-1.3
	c0.1-0.5,0.2-0.9,0.4-1.3l0.1-0.2l0,0c0.2-0.3,0.3-0.7,0.5-1c0.2-0.4,0.5-0.7,0.9-1v0h0c0.3-0.3,0.7-0.6,1-0.9
	c0.3-0.2,0.6-0.4,1-0.5l0,0l0.2-0.1c0.4-0.2,0.8-0.3,1.3-0.4C24.1,19.3,24.5,19.2,25,19.2L25,19.2z M26.3,19.9
	c-0.4-0.1-0.8-0.1-1.3-0.1c-0.4,0-0.9,0-1.3,0.1c-0.4,0.1-0.7,0.2-1.1,0.3l-0.2,0.1c-0.4,0.2-0.8,0.4-1.1,0.6
	c-0.3,0.2-0.7,0.5-1,0.8l0,0l0,0l0,0c-0.3,0.3-0.6,0.6-0.8,1c-0.2,0.3-0.4,0.7-0.6,1.1L19,23.8c-0.1,0.3-0.2,0.7-0.3,1.1
	c-0.1,0.4-0.1,0.8-0.1,1.3c0,0.4,0,0.8,0.1,1.2c0.1,0.4,0.2,0.7,0.3,1.1l0.1,0.2c0.2,0.4,0.4,0.8,0.6,1.1c0.2,0.3,0.5,0.7,0.8,1l0,0
	l0,0l0,0c0.3,0.3,0.6,0.6,1,0.8c0.3,0.2,0.7,0.4,1.1,0.6l0.2,0.1c0.3,0.1,0.7,0.2,1.1,0.3c0.4,0.1,0.8,0.1,1.3,0.1
	c0.4,0,0.8,0,1.3-0.1c0.4-0.1,0.7-0.2,1.1-0.3l0.1-0.1c0.4-0.2,0.8-0.4,1.1-0.6c0.3-0.2,0.7-0.5,1-0.8h0l0,0l0,0
	c0.3-0.3,0.6-0.6,0.8-1c0.2-0.3,0.4-0.7,0.6-1.1l0.1-0.2c0.1-0.3,0.2-0.7,0.3-1.1c0.1-0.4,0.1-0.8,0.1-1.2c0-0.4,0-0.9-0.1-1.3
	c-0.1-0.4-0.2-0.7-0.3-1.1l-0.1-0.1c-0.2-0.4-0.4-0.8-0.6-1.1c-0.2-0.3-0.5-0.7-0.8-1l0,0l0,0h0c-0.3-0.3-0.6-0.6-1-0.8
	c-0.3-0.2-0.7-0.4-1.1-0.6l-0.2-0.1C27,20,26.6,19.9,26.3,19.9L26.3,19.9z M14.4,18.2c0.4,0,0.8,0.2,1.1,0.4
	c0.3,0.3,0.4,0.6,0.4,1.1c0,0.4-0.2,0.8-0.4,1.1c-0.3,0.3-0.7,0.4-1.1,0.4c-0.4,0-0.8-0.2-1.1-0.4c-0.3-0.3-0.4-0.7-0.4-1.1
	c0-0.4,0.2-0.8,0.4-1.1C13.6,18.4,14,18.2,14.4,18.2L14.4,18.2z M15.1,19c-0.2-0.2-0.4-0.3-0.7-0.3c-0.3,0-0.5,0.1-0.7,0.3
	c-0.2,0.2-0.3,0.4-0.3,0.7c0,0.3,0.1,0.5,0.3,0.7c0.2,0.2,0.4,0.3,0.7,0.3c0.3,0,0.5-0.1,0.7-0.3c0.2-0.2,0.3-0.4,0.3-0.7
	C15.4,19.5,15.3,19.2,15.1,19L15.1,19z M28,23.2c-0.2-0.2-0.4-0.4-0.6-0.5c-0.2-0.2-0.5-0.3-0.7-0.4c-0.2-0.1-0.5-0.2-0.8-0.2
	c-0.3-0.1-0.5-0.1-0.8-0.1c-0.3,0-0.6,0-0.8,0.1c-0.3,0.1-0.6,0.1-0.8,0.2c-0.2,0.1-0.5,0.2-0.7,0.4c-0.2,0.2-0.4,0.3-0.6,0.5
	c-0.2,0.2-0.4,0.4-0.5,0.6c-0.2,0.2-0.3,0.5-0.4,0.7c-0.1,0.3-0.2,0.5-0.2,0.8c-0.1,0.3-0.1,0.5-0.1,0.8c0,0.3,0,0.6,0.1,0.8
	c0.1,0.3,0.1,0.5,0.2,0.8c0.1,0.3,0.2,0.5,0.4,0.7c0.2,0.2,0.3,0.5,0.5,0.7c0.2,0.2,0.4,0.4,0.6,0.5c0.2,0.2,0.5,0.3,0.7,0.4
	c0.2,0.1,0.5,0.2,0.8,0.2c0.3,0.1,0.5,0.1,0.8,0.1c0.3,0,0.6,0,0.8-0.1c0.3-0.1,0.5-0.1,0.8-0.2c0.3-0.1,0.5-0.2,0.7-0.4
	c0.2-0.2,0.5-0.3,0.6-0.5c0.2-0.2,0.4-0.4,0.5-0.7c0.2-0.2,0.3-0.5,0.4-0.7c0.1-0.2,0.2-0.5,0.2-0.8c0.1-0.3,0.1-0.6,0.1-0.8
	c0-0.3,0-0.6-0.1-0.8c-0.1-0.3-0.1-0.5-0.2-0.8c-0.1-0.2-0.2-0.5-0.4-0.7C28.4,23.6,28.2,23.4,28,23.2L28,23.2z M27.6,22.2
	c0.3,0.2,0.5,0.4,0.7,0.6c0.2,0.2,0.4,0.5,0.6,0.7c0.2,0.3,0.3,0.5,0.4,0.8c0.1,0.3,0.2,0.6,0.3,0.9c0.1,0.3,0.1,0.6,0.1,0.9
	c0,0.3,0,0.6-0.1,0.9c-0.1,0.3-0.2,0.6-0.3,0.9c-0.1,0.3-0.3,0.6-0.4,0.8c-0.2,0.3-0.4,0.5-0.6,0.7c-0.2,0.2-0.5,0.4-0.7,0.6
	c-0.3,0.2-0.5,0.3-0.8,0.4c-0.3,0.1-0.6,0.2-0.9,0.3c-0.3,0.1-0.6,0.1-0.9,0.1c-0.3,0-0.6,0-0.9-0.1c-0.3-0.1-0.6-0.2-0.9-0.3
	c-0.3-0.1-0.6-0.3-0.8-0.4c-0.3-0.2-0.5-0.4-0.7-0.6c-0.2-0.2-0.4-0.5-0.6-0.7c-0.2-0.3-0.3-0.5-0.4-0.8c-0.1-0.3-0.2-0.6-0.3-0.9
	c-0.1-0.3-0.1-0.6-0.1-0.9c0-0.3,0-0.6,0.1-0.9c0.1-0.3,0.2-0.6,0.3-0.9c0.1-0.3,0.3-0.6,0.4-0.8c0.2-0.3,0.4-0.5,0.6-0.7
	c0.2-0.2,0.5-0.4,0.7-0.6c0.3-0.2,0.5-0.3,0.8-0.4c0.3-0.1,0.6-0.2,0.9-0.3c0.3-0.1,0.6-0.1,0.9-0.1c0.3,0,0.6,0,0.9,0.1
	c0.3,0.1,0.6,0.2,0.9,0.3C27.1,21.9,27.4,22,27.6,22.2L27.6,22.2z"/>
<line class="st2" x1="10.2" y1="30.4" x2="19.6" y2="30.4"/>
<line class="st2" x1="30.3" y1="30.4" x2="39.8" y2="30.4"/>
</svg>
