<?xml version="1.0" encoding="utf-8"?>
<!-- Generator: Adobe Illustrator 25.0.1, SVG Export Plug-In . SVG Version: 6.00 Build 0)  -->
<svg version="1.1" id="Layer_2_1_" xmlns="http://www.w3.org/2000/svg" xmlns:xlink="http://www.w3.org/1999/xlink" x="0px" y="0px"
	 viewBox="0 0 50 50" style="enable-background:new 0 0 50 50;" xml:space="preserve">
<style type="text/css">
	.st0{fill:#888888;stroke:#888888;stroke-width:0.8143;stroke-linecap:round;stroke-linejoin:round;stroke-miterlimit:10;}
	.st1{fill:none;stroke:#888888;stroke-width:1.6286;stroke-linejoin:round;stroke-miterlimit:10;}
</style>
<path class="st0" d="M3.9,12.8c-0.7,0-1.3,0.3-1.6,0.8s-0.7,1.1-0.7,1.8v23.9c0,0.7,0.3,1.3,0.8,1.8c0.5,0.5,1.1,0.8,1.8,0.8h41.9
	c0.7,0,1.3-0.3,1.8-0.8c0.5-0.5,0.8-1.1,0.8-1.8V15.4c0-0.7-0.3-1.3-0.7-1.8c-0.3-0.5-1-0.8-1.6-0.8H35.3h-0.5v-0.3L34,8.5
	c-0.2-0.5-0.3-0.8-0.7-1.1s-0.8-0.5-1.1-0.5h-7.2h-7c-0.5,0-0.8,0.2-1.1,0.5S16.5,8,16.3,8.5l-1,3.9v0.3H15H3.9z M1.6,13.1
	c0.5-0.7,1.3-1,2.3-1.1l0,0h10.7l0.7-3.6c0.2-0.7,0.5-1.1,1-1.6c0.5-0.3,1.1-0.7,1.8-0.7h7h7.2c0.7,0,1.3,0.2,1.8,0.7
	c0.5,0.3,0.8,1,1,1.6l0.7,3.6h10.6l0,0c0.8,0,1.6,0.5,2.3,1.1c0.5,0.7,1,1.5,1,2.3v23.9c0,1-0.3,1.8-1,2.4c-0.7,0.7-1.5,1-2.4,1h-42
	c-1,0-1.8-0.3-2.4-1c-0.7-0.7-1-1.5-1-2.4V15.4C0.8,14.6,1.1,13.7,1.6,13.1L1.6,13.1z M25.1,16c0.8,0,1.5,0,2.1,0.2
	c0.8,0.2,1.5,0.3,2.1,0.7l0.3,0.2l0,0c0.5,0.3,1.1,0.5,1.6,0.8c0.7,0.5,1.1,0.8,1.6,1.5l0,0l0,0c0.5,0.5,1,1.1,1.5,1.6
	c0.3,0.5,0.7,1,0.8,1.6l0,0l0.2,0.3c0.3,0.7,0.5,1.5,0.7,2.1c0.2,0.7,0.2,1.5,0.2,2.1c0,0.8,0,1.5-0.2,2.1c-0.2,0.8-0.3,1.5-0.7,2.1
	V32l0,0c-0.3,0.5-0.5,1.1-0.8,1.6c-0.5,0.7-0.8,1.1-1.5,1.6l0,0l0,0c-0.5,0.5-1.1,1-1.6,1.5c-0.5,0.3-1,0.7-1.6,0.8l0,0l-0.3,0.2
	c-0.7,0.3-1.5,0.5-2.1,0.7c-0.7,0.2-1.5,0.2-2.1,0.2c-0.8,0-1.5,0-2.1-0.2c-0.8-0.2-1.5-0.3-2.1-0.7l-0.3-0.2l0,0
	c-0.5-0.3-1.1-0.5-1.6-0.8c-0.7-0.5-1.1-0.8-1.6-1.5l0,0l0,0c-0.5-0.5-1-1.1-1.5-1.6c-0.3-0.5-0.7-1-0.8-1.6l0,0L15,31.7
	c-0.3-0.7-0.5-1.5-0.7-2.1c-0.2-0.7-0.2-1.5-0.2-2.1c0-0.8,0-1.5,0.2-2.1c0.2-0.8,0.3-1.5,0.7-2.1l0.2-0.3l0,0
	c0.3-0.5,0.5-1.1,0.8-1.6c0.3-0.7,0.8-1.1,1.5-1.6l0,0l0,0c0.5-0.5,1.1-1,1.6-1.5c0.5-0.3,1-0.7,1.6-0.8l0,0l0.3-0.2
	c0.7-0.3,1.3-0.5,2.1-0.7C23.6,16.2,24.3,16,25.1,16L25.1,16z M27.2,17.2C26.6,17,25.9,17,25.1,17c-0.7,0-1.5,0-2.1,0.2
	c-0.7,0.2-1.1,0.3-1.8,0.5l-0.3,0.2c-0.7,0.3-1.3,0.7-1.8,1c-0.5,0.3-1.1,0.8-1.6,1.3l0,0l0,0l0,0c-0.5,0.5-1,1-1.3,1.6
	c-0.3,0.5-0.7,1.1-1,1.8h0.2c-0.2,0.5-0.3,1.1-0.5,1.8c-0.2,0.7-0.2,1.3-0.2,2.1c0,0.7,0,1.3,0.2,2c0.2,0.7,0.3,1.1,0.5,1.8l0.2,0.3
	c0.3,0.7,0.7,1.3,1,1.8c0.3,0.5,0.8,1.1,1.3,1.6l0,0l0,0l0,0c0.5,0.5,1,1,1.6,1.3c0.5,0.3,1.1,0.7,1.8,1l0.3,0.2
	c0.5,0.2,1.1,0.3,1.8,0.5s1.3,0.2,2.1,0.2c0.7,0,1.3,0,2.1-0.2c0.7-0.2,1.1-0.3,1.8-0.5l0.2-0.2c0.7-0.3,1.3-0.7,1.8-1
	c0.5-0.3,1.1-0.8,1.6-1.3l0,0l0,0l0,0c0.5-0.5,1-1,1.3-1.6c0.3-0.5,0.7-1.1,1-1.8l0.2-0.3c0.2-0.5,0.3-1.1,0.5-1.8
	c0.2-0.7,0.2-1.3,0.2-2c0-0.7,0-1.5-0.2-2.1c-0.2-0.7-0.3-1.1-0.5-1.8l-0.2-0.2c-0.3-0.7-0.7-1.3-1-1.8c-0.3-0.5-0.8-1.1-1.3-1.6
	l0,0l0,0l0,0c-0.5-0.5-1-1-1.6-1.3c-0.5-0.3-1.1-0.7-1.8-1l-0.3-0.2C28.3,17.3,27.7,17.2,27.2,17.2L27.2,17.2z M7.8,14.4
	c0.7,0,1.3,0.3,1.8,0.7c0.5,0.5,0.7,1,0.7,1.8c0,0.7-0.3,1.3-0.7,1.8c-0.5,0.5-1.1,0.7-1.8,0.7c-0.7,0-1.3-0.3-1.8-0.7
	c-0.5-0.5-0.7-1.1-0.7-1.8s0.3-1.3,0.7-1.8C6.5,14.7,7.2,14.4,7.8,14.4L7.8,14.4z M9,15.7c-0.3-0.3-0.7-0.5-1.1-0.5S7,15.4,6.7,15.7
	c-0.3,0.3-0.5,0.7-0.5,1.1c0,0.5,0.2,0.8,0.5,1.1c0.3,0.3,0.7,0.5,1.1,0.5S8.6,18.3,9,18c0.3-0.3,0.5-0.7,0.5-1.1
	C9.5,16.5,9.3,16,9,15.7L9,15.7z M30,22.5c-0.3-0.3-0.7-0.7-1-0.8c-0.3-0.3-0.8-0.5-1.1-0.7c-0.3-0.2-0.8-0.3-1.3-0.3
	c-0.5-0.2-0.8-0.2-1.3-0.2c-0.5,0-1,0-1.3,0.2c-0.5,0.2-1,0.2-1.3,0.3c-0.3,0.2-0.8,0.3-1.1,0.7c-0.3,0.3-0.7,0.5-1,0.8
	s-0.7,0.7-0.8,1c-0.3,0.3-0.5,0.8-0.7,1.1c-0.2,0.5-0.3,0.8-0.3,1.3c-0.2,0.5-0.2,0.8-0.2,1.3c0,0.5,0,1,0.2,1.3
	c0.2,0.5,0.2,0.8,0.3,1.3c0.2,0.5,0.3,0.8,0.7,1.1s0.5,0.8,0.8,1.1c0.3,0.3,0.7,0.7,1,0.8c0.3,0.3,0.8,0.5,1.1,0.7
	c0.3,0.2,0.8,0.3,1.3,0.3c0.5,0.2,0.8,0.2,1.3,0.2c0.5,0,1,0,1.3-0.2c0.5-0.2,0.8-0.2,1.3-0.3c0.5-0.2,0.8-0.3,1.1-0.7
	s0.8-0.5,1-0.8c0.3-0.3,0.7-0.7,0.8-1.1c0.3-0.3,0.5-0.8,0.7-1.1c0.2-0.3,0.3-0.8,0.3-1.3c0.2-0.5,0.2-1,0.2-1.3c0-0.5,0-1-0.2-1.3
	c-0.2-0.5-0.2-0.8-0.3-1.3c-0.2-0.3-0.3-0.8-0.7-1.1C30.6,23.2,30.3,22.9,30,22.5L30,22.5z M29.3,20.9c0.5,0.3,0.8,0.7,1.1,1
	s0.7,0.8,1,1.1c0.3,0.5,0.5,0.8,0.7,1.3c0.2,0.5,0.3,1,0.5,1.5c0.2,0.5,0.2,1,0.2,1.5c0,0.5,0,1-0.2,1.5c-0.2,0.5-0.3,1-0.5,1.5
	s-0.5,1-0.7,1.3c-0.3,0.5-0.7,0.8-1,1.1c-0.3,0.3-0.8,0.7-1.1,1c-0.5,0.3-0.8,0.5-1.3,0.7c-0.5,0.2-1,0.3-1.5,0.5
	c-0.5,0.2-1,0.2-1.5,0.2c-0.5,0-1,0-1.5-0.2c-0.5-0.2-1-0.3-1.5-0.5c-0.5-0.2-1-0.5-1.3-0.7c-0.5-0.3-0.8-0.7-1.1-1
	c-0.3-0.3-0.7-0.8-1-1.1c-0.3-0.5-0.5-0.8-0.7-1.3c-0.2-0.5-0.3-1-0.5-1.5c-0.2-0.5-0.2-1-0.2-1.5c0-0.5,0-1,0.2-1.5
	c0.2-0.5,0.3-1,0.5-1.5c0.2-0.5,0.5-1,0.7-1.3c0.3-0.5,0.7-0.8,1-1.1s0.8-0.7,1.1-1c0.5-0.3,0.8-0.5,1.3-0.7c0.5-0.2,1-0.3,1.5-0.5
	c0.5-0.2,1-0.2,1.5-0.2c0.5,0,1,0,1.5,0.2c0.5,0.2,1,0.3,1.5,0.5C28.5,20.4,29,20.6,29.3,20.9L29.3,20.9z"/>
<line class="st1" x1="1" y1="34.3" x2="16.3" y2="34.3"/>
<line class="st1" x1="33.7" y1="34.3" x2="49.2" y2="34.3"/>
</svg>
