<?xml version="1.0" encoding="utf-8"?>
<!-- Generator: Adobe Illustrator 24.3.0, SVG Export Plug-In . SVG Version: 6.00 Build 0)  -->
<svg version="1.1" id="Capa_1" xmlns="http://www.w3.org/2000/svg" xmlns:xlink="http://www.w3.org/1999/xlink" x="0px" y="0px"
	 viewBox="0 0 98.3 44.2" style="enable-background:new 0 0 98.3 44.2;" xml:space="preserve">
<style type="text/css">
	.st0{fill:#888888;stroke:#888888;stroke-width:0.75;stroke-miterlimit:10;}
	.st1{fill:#888888;stroke:#888888;stroke-width:0.25;stroke-miterlimit:10;}
</style>
<g>
	<g>
		<path class="st0" d="M22.1,42.7c-11.4,0-20.6-9.2-20.6-20.6S10.7,1.5,22.1,1.5s20.6,9.2,20.6,20.6S33.5,42.7,22.1,42.7z M22.1,2.9
			c-10.6,0-19.2,8.6-19.2,19.2s8.7,19.2,19.2,19.2s19.2-8.7,19.2-19.2S32.7,2.9,22.1,2.9z"/>
		<path class="st0" d="M24.5,29.4c-0.2,0-0.4-0.1-0.5-0.2l-6.8-6.8c-0.3-0.3-0.3-0.7,0-1l6.8-6.8c0.3-0.3,0.7-0.3,1,0
			c0.3,0.3,0.3,0.7,0,1l-6.3,6.3l6.3,6.3c0.3,0.3,0.3,0.7,0,1C24.9,29.3,24.7,29.4,24.5,29.4z"/>
	</g>
</g>
<g>
	<path class="st1" d="M68.1,24.5c0,1-0.3,1.8-0.8,2.4c-0.8,1-2.2,1.4-4.1,1.4h-5.7V14.8h5.7c1.3,0,2.3,0.2,3,0.7
		c0.9,0.5,1.3,1.4,1.3,2.6c0,0.8-0.2,1.4-0.6,2s-1,0.9-1.7,1.1c0.9,0.1,1.6,0.5,2.1,1.1C67.8,22.9,68.1,23.6,68.1,24.5z M66.2,18.4
		c0-1.7-1-2.5-3.1-2.5h-4.5v4.8h4.5c1,0,1.7-0.2,2.3-0.6S66.2,19.1,66.2,18.4z M66.7,24.5c0-1.8-1.2-2.6-3.6-2.6h-4.5v5.4h4.5
		c1.1,0,1.9-0.2,2.5-0.6C66.4,26.2,66.7,25.5,66.7,24.5z"/>
	<path class="st1" d="M78.6,27.2v1l-0.8,0.1c-0.5,0-0.9-0.1-1.1-0.4s-0.3-0.7-0.3-1.3c-0.5,0.7-1,1.2-1.4,1.5
		c-0.6,0.3-1.3,0.5-2.2,0.5c-0.9,0-1.7-0.2-2.3-0.7c-0.7-0.5-1-1.2-1-2.2c0-1.2,0.5-2,1.6-2.5c0.6-0.2,1.8-0.5,3.6-0.7
		c0.6-0.1,0.9-0.2,1.1-0.3c0.3-0.2,0.4-0.6,0.4-1.1c0-1.3-0.9-2-2.6-2S71,19.9,71,21.4h-1c0-1.1,0.3-1.9,1-2.4
		c0.7-0.6,1.7-0.8,2.9-0.8c1.1,0,1.9,0.2,2.4,0.6c0.8,0.5,1.2,1.3,1.2,2.6v5.2c0,0.5,0.2,0.7,0.7,0.7L78.6,27.2z M76.3,24.5V23
		c-0.1,0.1-0.4,0.3-1,0.4c-0.4,0.1-0.9,0.2-1.6,0.3c-0.7,0.1-1.2,0.2-1.4,0.2c-1,0.3-1.5,0.9-1.5,1.7c0,0.6,0.2,1,0.6,1.4
		s1,0.5,1.6,0.5c1,0,1.8-0.3,2.4-0.9C76,26.2,76.3,25.4,76.3,24.5z"/>
	<path class="st1" d="M87,24.7h1.2c-0.2,1.2-0.6,2.1-1.3,2.8c-0.7,0.7-1.6,1-2.7,1c-1.4,0-2.6-0.5-3.4-1.4c-0.8-1-1.2-2.2-1.2-3.7
		s0.4-2.7,1.2-3.7c0.8-1,2-1.5,3.4-1.5c1.1,0,2,0.3,2.7,0.9s1.1,1.4,1.2,2.5h-1.2c-0.3-1.5-1.3-2.3-2.8-2.3c-1.1,0-1.9,0.4-2.5,1.2
		c-0.6,0.8-0.9,1.8-0.9,2.9s0.3,2.1,0.9,2.9s1.4,1.2,2.5,1.2c0.8,0,1.4-0.3,1.9-0.8C86.6,26.2,86.9,25.6,87,24.7z"/>
	<path class="st1" d="M94,22.2l4.5,6.1H97L93.1,23l-1.9,1.6v3.7H90V14.8h1.2v8.5l5.5-4.7h1.6L94,22.2z"/>
</g>
</svg>
