<svg id="Layer_2" data-name="Layer 2" xmlns="http://www.w3.org/2000/svg" viewBox="0 0 50 50"><defs><style>.cls-1{fill:none;stroke:#888;stroke-linecap:round;stroke-linejoin:round;stroke-width:1.5px;}.cls-2{fill:#888;}</style></defs><path class="cls-1" d="M7.19,22v-16a1.3,1.3,0,0,1,1.3-1.29H31.72a1.45,1.45,0,0,1,1,.42l4.34,4.34a1.45,1.45,0,0,1,.42,1v6.9"/><path class="cls-1" d="M37.51,36.37V44a1.29,1.29,0,0,1-1.29,1.29H8.49A1.3,1.3,0,0,1,7.19,44V28.15"/><path class="cls-1" d="M37.51,10.55v1.54H30.17V4.76h1.55a1.45,1.45,0,0,1,1,.42l4.34,4.34A1.45,1.45,0,0,1,37.51,10.55Z"/><path class="cls-1" d="M41.84,28a6.19,6.19,0,0,0-8.75-8.75L20.84,31.51"/><path class="cls-1" d="M41.84,28,29.53,40.32a4.48,4.48,0,0,1-6.35,0h0a4.5,4.5,0,0,1,0-6.35h0L35.06,22a2.26,2.26,0,0,1,3.18,0h0a2.25,2.25,0,0,1,0,3.18L26.72,36.79"/><circle class="cls-2" cx="18.87" cy="33.49" r="0.85"/><circle class="cls-2" cx="7.19" cy="25.09" r="0.85"/></svg>