<svg id="Layer_2" data-name="Layer 2" xmlns="http://www.w3.org/2000/svg" viewBox="0 0 50 50"><defs><style>.cls-1{fill:none;stroke:#888;stroke-linecap:round;stroke-linejoin:round;stroke-width:1.5px;}</style></defs><path class="cls-1" d="M35,31.53V44a1.3,1.3,0,0,1-1.3,1.29H6A1.3,1.3,0,0,1,4.67,44V6.05A1.3,1.3,0,0,1,6,4.76H29.19a1.49,1.49,0,0,1,1,.42l4.33,4.34a1.46,1.46,0,0,1,.43,1V23.86"/><path class="cls-1" d="M35,10.55v1.54H27.65V4.76h1.54a1.49,1.49,0,0,1,1,.42l4.33,4.34A1.46,1.46,0,0,1,35,10.55Z"/><line class="cls-1" x1="9.38" y1="17.54" x2="27.65" y2="17.54"/><line class="cls-1" x1="9.38" y1="22.53" x2="22.4" y2="22.53"/><line class="cls-1" x1="9.38" y1="27.51" x2="22.4" y2="27.51"/><line class="cls-1" x1="9.38" y1="32.49" x2="22.4" y2="32.49"/><line class="cls-1" x1="19.83" y1="40.26" x2="27.65" y2="40.26"/><rect class="cls-1" x="34.05" y="19.65" width="5.01" height="12.94" transform="translate(29.18 -18.19) rotate(45)"/><path class="cls-1" d="M33.75,32.47l-3.54-3.54L29.11,30a1.87,1.87,0,0,0-.47.79l-1.14,4a.3.3,0,0,0,.37.37l4-1.13a1.91,1.91,0,0,0,.8-.47Z"/><path class="cls-1" d="M42.79,17.39h.13a2.44,2.44,0,0,1,2.44,2.44v2.43a0,0,0,0,1,0,0h-5a0,0,0,0,1,0,0V19.83a2.44,2.44,0,0,1,2.44-2.44Z" transform="translate(26.57 -24.49) rotate(45)"/></svg>