<svg id="Layer_2" data-name="Layer 2" xmlns="http://www.w3.org/2000/svg" viewBox="0 0 50 50"><defs><style>.cls-1{fill:none;}.cls-1,.cls-3{stroke:#888;stroke-linecap:round;stroke-linejoin:round;stroke-width:1.5px;}.cls-2{fill:#888;}.cls-3{fill:#fff;}</style></defs><path class="cls-1" d="M17.75,17.88c0,6.88,6.52,12.46,14.55,12.46a16.44,16.44,0,0,0,6-1.11.64.64,0,0,1,.77.23c.57.81,2.18,2.49,5.93,2.75a7.15,7.15,0,0,1-1.78-5.42,2.57,2.57,0,0,1,.65-1.38,11.26,11.26,0,0,0,3-7.53C46.85,11,40.34,5.43,32.3,5.43S17.75,11,17.75,17.88Z"/><line class="cls-1" x1="28.46" y1="14.18" x2="39.67" y2="14.18"/><line class="cls-1" x1="25.08" y1="19.54" x2="39.67" y2="19.54"/><circle class="cls-2" cx="24.85" cy="14.18" r="0.79"/><path class="cls-3" d="M32.25,30.24c0,6.88-6.52,12.46-14.55,12.46a16.65,16.65,0,0,1-6-1.11.64.64,0,0,0-.77.22c-.57.82-2.18,2.49-5.93,2.76a7.17,7.17,0,0,0,1.78-5.42,2.6,2.6,0,0,0-.65-1.39,11.25,11.25,0,0,1-3-7.52c0-6.87,6.51-12.45,14.55-12.45S32.25,23.37,32.25,30.24Z"/><line class="cls-1" x1="13.84" y1="28.27" x2="25.05" y2="28.27"/><line class="cls-1" x1="10.46" y1="33.63" x2="25.05" y2="33.63"/><circle class="cls-2" cx="10.23" cy="28.27" r="0.79"/></svg>