<?xml version="1.0" encoding="utf-8"?>
<!-- Generator: Adobe Illustrator 25.0.1, SVG Export Plug-In . SVG Version: 6.00 Build 0)  -->
<svg version="1.1" id="Layer_2_1_" xmlns="http://www.w3.org/2000/svg" xmlns:xlink="http://www.w3.org/1999/xlink" x="0px" y="0px"
	 viewBox="0 0 50 50" style="enable-background:new 0 0 50 50;" xml:space="preserve">
<style type="text/css">
	.st0{fill:none;stroke:#888888;stroke-width:4;stroke-linecap:round;stroke-linejoin:round;}
</style>
<path class="st0" d="M42,8.6v30c0,0.6-0.5,1.2-1.2,1.2H16c-0.6,0-1.2-0.5-1.2-1.2v-34c0-0.6,0.5-1.2,1.1-1.2c0,0,0,0,0,0h20.8
	c0.3,0,0.7,0.1,0.9,0.4l3.9,3.9C41.9,7.9,42,8.3,42,8.6z"/>
<path class="st0" d="M42,8.6V10h-6.6V3.4h1.4c0.3,0,0.7,0.1,0.9,0.4l3.9,3.9C41.9,7.9,42,8.3,42,8.6z"/>
<path class="st0" d="M35.2,39.8v5.7c0,0.6-0.5,1.2-1.1,1.2c0,0,0,0,0,0H9.1C8.5,46.6,8,46,8,45.4v-34c0-0.6,0.5-1.2,1.2-1.2h5.7"/>
</svg>
