<?xml version="1.0" encoding="utf-8"?>
<!-- Generator: Adobe Illustrator 24.1.2, SVG Export Plug-In . SVG Version: 6.00 Build 0)  -->
<svg version="1.1" id="Layer_2_1_" xmlns="http://www.w3.org/2000/svg" xmlns:xlink="http://www.w3.org/1999/xlink" x="0px" y="0px"
	 viewBox="0 0 50 50" style="enable-background:new 0 0 50 50;" xml:space="preserve">
<style type="text/css">
	.st0{fill:none;stroke:#888888;stroke-width:1.5;stroke-linecap:round;stroke-linejoin:round;}
	.st1{fill:#888888;}
</style>
<path class="st0" d="M38,42.6c-7.4,5.2-17.6,3.3-22.7-4.1S11.9,21,19.3,15.8s17.6-3.3,22.7,4.1c3.8,5.4,3.9,12.6,0.4,18.1"/>
<circle class="st1" cx="40.3" cy="40.7" r="0.8"/>
<circle class="st0" cx="28.7" cy="29.1" r="12.4"/>
<line class="st0" x1="30.2" y1="27.8" x2="34.7" y2="23.3"/>
<line class="st0" x1="27.1" y1="27.8" x2="24.9" y2="25.6"/>
<circle class="st0" cx="28.7" cy="29.1" r="1.9"/>
<line class="st0" x1="28.7" y1="20.9" x2="28.7" y2="19.9"/>
<line class="st0" x1="28.7" y1="38.2" x2="28.7" y2="37.3"/>
<line class="st0" x1="36.9" y1="29.1" x2="37.8" y2="29.1"/>
<line class="st0" x1="19.5" y1="29.1" x2="20.5" y2="29.1"/>
<path class="st0" d="M25.8,5.2h5.8c1.2,0,2.2,1,2.2,2.2v0c0,1.2-1,2.2-2.2,2.2h-5.8c-1.2,0-2.2-1-2.2-2.2v0
	C23.6,6.2,24.6,5.2,25.8,5.2z"/>
<line class="st0" x1="25.8" y1="9.6" x2="25.8" y2="13"/>
<line class="st0" x1="31.4" y1="9.6" x2="31.4" y2="13"/>
<line class="st0" x1="15.2" y1="19.5" x2="9.2" y2="19.5"/>
<line class="st0" x1="12.7" y1="24.6" x2="3.1" y2="24.6"/>
<line class="st0" x1="12.1" y1="29.6" x2="7.9" y2="29.6"/>
<line class="st0" x1="13" y1="34.5" x2="6.4" y2="34.5"/>
<circle class="st1" cx="3.1" cy="34.5" r="0.8"/>
</svg>
