<?xml version="1.0" encoding="utf-8"?>
<!-- Generator: Adobe Illustrator 24.3.0, SVG Export Plug-In . SVG Version: 6.00 Build 0)  -->
<svg version="1.1" id="Layer_1" xmlns="http://www.w3.org/2000/svg" xmlns:xlink="http://www.w3.org/1999/xlink" x="0px" y="0px"
	 viewBox="0 0 28 28" style="enable-background:new 0 0 28 28;" xml:space="preserve">
<style type="text/css">
	.st0{fill:none;stroke:#888888;stroke-width:1.5;stroke-linecap:round;stroke-linejoin:round;stroke-miterlimit:10;}
	.st1{fill:none;stroke:#888888;stroke-linecap:round;stroke-linejoin:round;stroke-miterlimit:10;}
	.st2{fill:none;stroke:#888888;stroke-width:1.25;stroke-linecap:round;stroke-linejoin:round;stroke-miterlimit:10;}
</style>
<g id="Layer_2_1_">
</g>
<image style="display:none;overflow:visible;enable-background:new    ;" width="523" height="432" xlink:href="ic_clouddown.png"  transform="matrix(5.353728e-02 0 0 5.353728e-02 0 2.4359)">
</image>
<polyline class="st0" points="11.8,23.2 14.3,25.1 14.3,17.7 "/>
<polyline class="st0" points="16.7,23.2 14.3,25.1 14.3,17.7 "/>
<path class="st1" d="M18.4,20.4"/>
<path class="st0" d="M9.7,21.2H7.2c-3.3,0-6-2.5-6-5.8s2.6-5.8,6-5.8c0.2,0,0.4,0,0.6,0c0-3.4,3.1-6.2,6.9-6.2c2,0,4.7,1.4,6,3.3
	c1.2,1.9,1,4.4,1,4.4c3.3,0,5.2,1.5,5.4,4.6c0.2,3.1-2,5.4-5.4,5.4c-2.2,0-2.3,0-2.3,0"/>
<path class="st2" d="M14.5,6.3c0,0-4.1,0.1-4.1,3.9"/>
</svg>
