<svg id="Layer_2" data-name="Layer 2" xmlns="http://www.w3.org/2000/svg" viewBox="0 0 50 50"><defs><style>.cls-1{fill:#888;}.cls-2{fill:none;stroke:#888;stroke-linecap:round;stroke-linejoin:round;stroke-width:1.5px;}</style></defs><circle class="cls-1" cx="25.37" cy="12.53" r="0.85"/><path class="cls-2" d="M27.79,9.92l3.07-3.07a8.68,8.68,0,0,1,12.29,0h0a8.68,8.68,0,0,1,0,12.29l-11,11a8.12,8.12,0,0,1-.7.63"/><path class="cls-2" d="M22.86,32.13a8.53,8.53,0,0,1-3-2h0a8.68,8.68,0,0,1,0-12.29l3.06-3.06"/><path class="cls-2" d="M27.38,27.38a3.53,3.53,0,0,1-4.14-.62h0a3.54,3.54,0,0,1,0-5L34.76,10.25a3.54,3.54,0,0,1,5,0h0a3.54,3.54,0,0,1,0,5l-7.63,7.62"/><path class="cls-2" d="M27.14,17.87a8.67,8.67,0,0,1,3,2h0a8.68,8.68,0,0,1,0,12.29l-11,11a8.68,8.68,0,0,1-12.29,0h0a8.68,8.68,0,0,1,0-12.29l11-11a8.48,8.48,0,0,1,.63-.58"/><path class="cls-2" d="M22.77,22.54a3.55,3.55,0,0,1,4,.7h0a3.54,3.54,0,0,1,0,5L15.24,39.75a3.54,3.54,0,0,1-5,0h0a3.54,3.54,0,0,1,0-5l7.62-7.62"/></svg>