<?xml version="1.0" encoding="utf-8"?>
<!-- Generator: Adobe Illustrator 24.3.0, SVG Export Plug-In . SVG Version: 6.00 Build 0)  -->
<svg version="1.1" id="Layer_2_1_" xmlns="http://www.w3.org/2000/svg" xmlns:xlink="http://www.w3.org/1999/xlink" x="0px" y="0px"
	 viewBox="0 0 50 50" style="enable-background:new 0 0 50 50;" xml:space="preserve">
<style type="text/css">
	.st0{fill:#888888;}
</style>
<g id="g2991" transform="matrix(1,0,0,-1,318.91525,1346.1695)">
	<path id="path2993" class="st0" d="M-289.3,1315.2c0,1.1-0.4,2-1.1,2.8c-0.8,0.8-1.7,1.1-2.8,1.1s-2-0.4-2.8-1.1s-1.1-1.7-1.1-2.8
		c0-0.8,0.2-1.4,0.6-2s0.9-1.1,1.6-1.4l-2.1-7c-0.1-0.3-0.1-0.6,0.2-0.9c0.2-0.3,0.5-0.4,0.8-0.4h5.9c0.3,0,0.6,0.1,0.8,0.4
		c0.2,0.3,0.3,0.6,0.2,0.9l-2.1,7c0.7,0.3,1.2,0.8,1.6,1.4S-289.3,1314.4-289.3,1315.2z M-301,1323h15.7v5.9c0,2.2-0.8,4-2.3,5.5
		c-1.5,1.5-3.4,2.3-5.5,2.3c-2.2,0-4-0.8-5.5-2.3c-1.5-1.5-2.3-3.4-2.3-5.5V1323z M-275.5,1320.1v-17.6c0-0.8-0.3-1.5-0.9-2.1
		c-0.6-0.6-1.3-0.9-2.1-0.9h-29.4c-0.8,0-1.5,0.3-2.1,0.9c-0.6,0.6-0.9,1.3-0.9,2.1v17.6c0,0.8,0.3,1.5,0.9,2.1
		c0.6,0.6,1.3,0.9,2.1,0.9h1v5.9c0,3.8,1.3,7,4,9.7c2.7,2.7,5.9,4,9.7,4s7-1.3,9.7-4c2.7-2.7,4-5.9,4-9.7v-5.9h1
		c0.8,0,1.5-0.3,2.1-0.9C-275.8,1321.6-275.5,1320.9-275.5,1320.1z"/>
</g>
</svg>
