<?xml version="1.0" encoding="utf-8"?>
<!-- Generator: Adobe Illustrator 25.2.1, SVG Export Plug-In . SVG Version: 6.00 Build 0)  -->
<svg version="1.1" id="Capa_1" xmlns="http://www.w3.org/2000/svg" xmlns:xlink="http://www.w3.org/1999/xlink" x="0px" y="0px"
	 viewBox="0 0 296.5 296.5" style="enable-background:new 0 0 296.5 296.5;" xml:space="preserve">
<style type="text/css">
	.st0{fill:#444444;}
</style>
<g>
	<path class="st0" d="M295.8,115.3L295.8,115.3l-0.1-0.8c0,0,0,0,0,0c0,0,0,0,0,0l-0.3-2.9c-0.1-0.6-0.1-1.2-0.2-2l-0.1-0.6l-0.1,0
		C291.3,88.5,281.4,69,266,52.3c-15.3-16.6-35.2-29.7-57.5-37.9c-19.1-7-39.4-10.6-60.3-10.6c-28.2,0-55.6,6.6-79.3,19.2
		C23.3,47.3-3.6,91.8,0.4,136.5c2.1,23.1,11.1,45.1,26.2,63.6c14.2,17.4,33.4,31.5,55.5,40.7c13.6,5.6,27.1,8.3,41.3,11.1l1.7,0.3
		c3.9,0.8,5,1.8,5.2,2.3c0.5,0.8,0.2,2.3,0,3.2c-0.2,0.8-0.4,1.6-0.6,2.4c-1.5,6.2-3.1,12.7-1.9,19.8c1.4,8.2,6.5,12.9,14,12.9
		c0,0,0,0,0,0c8,0,17.2-5.4,23.2-9l0.8-0.5c14.4-8.5,28-18,38.3-25.4c22.4-16.2,47.8-34.5,66.8-58.2
		C290.2,175.7,299.2,145.1,295.8,115.3z M92.3,160.6H66.8c-3.9,0-7-3.1-7-7V99.9c0-3.9,3.1-7,7-7s7,3.1,7,7v46.7h18.6
		c3.9,0,7,3.1,7,7C99.3,157.4,96.2,160.6,92.3,160.6z M119,153.4c0,3.9-3.1,7-7,7s-7-3.1-7-7V99.7c0-3.9,3.1-7,7-7s7,3.1,7,7V153.4z
		 M182.3,153.4c0,3-2,5.7-4.8,6.7c-0.7,0.2-1.4,0.3-2.2,0.3c-2.2,0-4.3-1-5.7-2.9l-25.2-34.7v30.6c0,3.9-3.1,7-7,7s-7-3.1-7-7v-52.2
		c0-3,2-5.7,4.8-6.7c2.9-0.9,6,0.1,7.8,2.5l25.2,34.7V99.7c0-3.9,3.1-7,7-7s7,3.1,7,7V153.4z M233.3,159.3h-34.6c-3.9,0-7-3.1-7-7
		v-26.8V98.6c0-3.9,3.1-7,7-7h33.6c3.9,0,7,3.1,7,7s-3.1,7-7,7h-26.6v12.8h21.6c3.9,0,7,3.1,7,7s-3.1,7-7,7h-21.6v12.8h27.6
		c3.9,0,7,3.1,7,7S237.2,159.3,233.3,159.3z"/>
</g>
</svg>
