<svg id="Layer_2" data-name="Layer 2" xmlns="http://www.w3.org/2000/svg" viewBox="0 0 50 50"><defs><style>.cls-1{fill:none;stroke:#888;stroke-linecap:round;stroke-linejoin:round;stroke-width:1.5px;}</style></defs><line class="cls-1" x1="5.98" y1="34.06" x2="12.97" y2="34.06"/><line class="cls-1" x1="5.98" y1="38.72" x2="39.42" y2="38.72"/><line class="cls-1" x1="5.98" y1="43.38" x2="39.42" y2="43.38"/><line class="cls-1" x1="21.2" y1="24.94" x2="25.01" y2="28.75"/><path class="cls-1" d="M24.57,29.49,19,31.84a.6.6,0,0,1-.78-.78l2.35-5.59a4.55,4.55,0,0,1,1-1.46L38.87,6.66a3.17,3.17,0,0,1,4.49,0h0a3.19,3.19,0,0,1,0,4.49L26,28.5A4.66,4.66,0,0,1,24.57,29.49Z"/></svg>