<?xml version="1.0" encoding="utf-8"?>
<!-- Generator: Adobe Illustrator 25.0.1, SVG Export Plug-In . SVG Version: 6.00 Build 0)  -->
<svg version="1.1" id="Layer_2_1_" xmlns="http://www.w3.org/2000/svg" xmlns:xlink="http://www.w3.org/1999/xlink" x="0px" y="0px"
	 viewBox="0 0 50 50" style="enable-background:new 0 0 50 50;" xml:space="preserve">
<style type="text/css">
	.st0{fill:none;stroke:#FFFFFF;stroke-width:3;stroke-linecap:round;stroke-linejoin:round;}
</style>
<line class="st0" x1="6" y1="34.1" x2="13" y2="34.1"/>
<line class="st0" x1="6" y1="38.7" x2="39.4" y2="38.7"/>
<line class="st0" x1="6" y1="43.4" x2="39.4" y2="43.4"/>
<line class="st0" x1="21.2" y1="24.9" x2="25" y2="28.8"/>
<path class="st0" d="M24.6,29.5L19,31.8c-0.3,0.1-0.7,0-0.8-0.3c-0.1-0.1-0.1-0.3,0-0.4l2.4-5.6c0.2-0.5,0.6-1,1-1.5L38.9,6.7
	c1.2-1.2,3.2-1.2,4.5,0c0,0,0,0,0,0l0,0c1.2,1.2,1.2,3.2,0,4.5L26,28.5C25.6,28.9,25.1,29.3,24.6,29.5z"/>
</svg>
