<?xml version="1.0" encoding="utf-8"?>
<!-- Generator: Adobe Illustrator 24.3.0, SVG Export Plug-In . SVG Version: 6.00 Build 0)  -->
<svg version="1.1" id="Layer_2_1_" xmlns="http://www.w3.org/2000/svg" xmlns:xlink="http://www.w3.org/1999/xlink" x="0px" y="0px"
	 viewBox="0 0 50 50" style="enable-background:new 0 0 50 50;" xml:space="preserve">
<style type="text/css">
	.st0{fill:none;stroke:#888888;stroke-width:1.5;stroke-linecap:round;stroke-linejoin:round;}
</style>
<line class="st0" x1="13.6" y1="30.3" x2="17.8" y2="30.3"/>
<line class="st0" x1="13.6" y1="33.1" x2="33.8" y2="33.1"/>
<line class="st0" x1="13.6" y1="35.9" x2="33.8" y2="35.9"/>
<line class="st0" x1="22.8" y1="24.8" x2="25.1" y2="27.1"/>
<path class="st0" d="M24.8,27.5L21.4,29c-0.2,0.1-0.4,0-0.5-0.2c0-0.1,0-0.2,0-0.3l1.4-3.4c0.1-0.3,0.3-0.6,0.6-0.9l10.4-10.5
	c0.7-0.7,2-0.8,2.7,0c0,0,0,0,0,0l0,0c0.7,0.8,0.7,2,0,2.7L25.7,26.9C25.4,27.2,25.1,27.4,24.8,27.5z"/>
<circle class="st0" cx="25" cy="24.9" r="20.3"/>
</svg>
