<?xml version="1.0" encoding="utf-8"?>
<!-- Generator: Adobe Illustrator 24.3.0, SVG Export Plug-In . SVG Version: 6.00 Build 0)  -->
<svg version="1.1" id="Layer_1" xmlns="http://www.w3.org/2000/svg" xmlns:xlink="http://www.w3.org/1999/xlink" x="0px" y="0px"
	 viewBox="0 0 260 260" style="enable-background:new 0 0 260 260;" xml:space="preserve">
<style type="text/css">
	.st0{fill:none;}
</style>
<path class="st0" d="M51.1,224.2l1.8-15.7c0.6-4.8,3.2-9.1,7.3-11.6l5.4-3.4c2.5-1.6,3.9-4.3,3.9-7.2v-14c-0.1-4-2.9-7.4-6.8-8.3
	l-9.1-1.9c-5.1-1.1-10-3.3-14.1-6.6l-10.1-8c-3.4-2.7-7.7-3.8-12-3.1L8.1,146C12.2,176.6,27.5,204.5,51.1,224.2z"/>
<path class="st0" d="M7.7,117.8h19.8c0.3,0,0.7-0.2,0.8-0.5c0.2-0.3,0.2-0.7,0-1L27,114c-2.9-5.2-1.7-11.8,2.8-15.7l7.5-6.5
	c2.5-2.2,3-3.7,3.8-7.6c2-9.8,8.3-17.9,14.1-24.6c3.6-4.2,3.3-11.7-0.6-15.7l0,0l-5.9-6.1C25.4,58.3,10.8,86.9,7.7,117.8z"/>
<path class="st0" d="M201.5,172.7c0,0-0.1,0.1-0.2,0.3c-0.2,0.2-0.4,0.4-0.6,0.6l-8.8,6.7l0,0c-2.4,1.8-3.5,4.7-3.8,9.3
	c-0.1,0.9-0.1,1.9-0.2,2.9c-0.3,3.7-0.6,7.8,0.2,10.9c0.2,1.3,1.2,2.4,2.5,2.7c1,0.1,2-0.5,2.5-1.4l0.8-1.3c1.6-2.2,3-4.6,4.1-7.1
	c0.9-2.6,1.5-5.3,1.8-8c0.1-0.9,0.3-1.8,0.4-2.7l1.8-11C202.3,173.3,201.7,172.7,201.5,172.7z"/>
<path class="st0" d="M77.6,118.4v2.6c0,6,2.7,11.7,7.4,15.4l1.4,1.1c4.8,3.8,11.1,5.2,17,3.8l2.5-0.6c7.8-1.9,15.7,2.9,17.7,10.7
	c0.2,1,0.4,2,0.4,3l0.1,3.1c0,1.1,0.7,2.1,1.7,2.6c4.9,2.5,6.9,8.5,4.5,13.4l-1.6,3.3c-2.6,5.5-2.9,11.8-0.8,17.4l4.5,11.9
	c3,6.2,10.5,8.8,16.7,5.8c1.4-0.7,2.7-1.6,3.8-2.8c0.7-1.6,1.4-3.2,2.1-4.8c1.6-3.5,3.2-7.2,5-10.7c0.8-1.6,1.7-3.2,2.5-4.7
	c3.1-5.5,6-10.8,6-16.6v-7.6c0-4.5,1.8-8.8,5-12l10.8-10.9c1.3-1.2,1.9-3.1,1.4-4.9c-0.6-2.1-2.5-3.6-4.7-3.6h-2.8
	c-5,0-9.5-3.1-11.2-7.8l-4.4-11.9c-1.3-3.7-3.8-6.8-7-9l-8.4-5.7c-2.4-1.6-5.5-1.9-8.2-0.6l-6.4,3.2c-0.3,0.1-0.6,0.2-0.9,0.3
	c-1.2,0.2-2.3,0.2-3.5,0l-3.5-0.6c-5.1-0.9-8.8-5.3-8.7-10.5c0-0.9-0.4-1.8-1-2.4c-0.7-0.6-1.5-1-2.5-1l-7.1,0.1
	c-2.8,0.1-5.6-1-7.6-3C97.4,84,97,83.5,96.6,83c0,3.7-1.4,7.4-3.9,10.2l-10.5,12.1C79.3,109,77.6,113.6,77.6,118.4z"/>
<path d="M257.5,104.5c0-0.1,0-0.2,0-0.2C245.5,44.9,192.9,0,130,0C58.3,0,0,58.3,0,130c0,4.6,0.2,9.2,0.7,13.8l0,0l0,0
	c3.8,35.6,22.1,68,50.6,89.6c0.3,0.3,0.6,0.5,0.9,0.7c36,26.9,83.4,33.3,125.3,16.9c1.8-0.7,2.7-2.8,2-4.6s-2.8-2.7-4.6-2l0,0
	c-39.1,15.3-83.4,9.6-117.3-15.2l2.3-20c0.3-2.7,1.8-5.1,4-6.5l5.4-3.4c4.5-2.8,7.2-7.8,7.2-13.1v-14c0-7.4-5.2-13.7-12.3-15.3
	l-9.1-1.9c-4.1-0.8-7.9-2.6-11.1-5.1l-10.1-8c-5-3.9-11.4-5.6-17.6-4.5L7.4,139c-0.2-3-0.3-6-0.3-9.1c0-1.7,0.1-3.5,0.1-5.2h20.3
	c4.4,0,8-3.6,8-8c0-1.4-0.3-2.7-1-3.9l-1.2-2.3c-1.3-2.3-0.8-5.2,1.2-6.9l7.5-6.5c4.2-3.6,5.1-6.7,6.1-11.4
	c1.7-8.2,7.3-15.4,12.5-21.4c6-6.9,5.6-18.5-0.9-25.3l0,0c-0.7-0.7-2.1-2.3-5.6-5.8C75.8,16.3,102.5,7,130,7.1c1.1,0,2.3,0,3.4,0.1
	l-7.8,13.1c-1.6,2.7-4.2,4.8-7.2,5.8l-21.7,6.8h-0.1c-4.9,1.7-8.9,5.3-11.2,9.9l-4,7.9c-3.4,6.8-2.7,14.9,1.8,20.9L88,78
	c0.4,0.5,0.7,1,0.9,1.5c1.4,3.1,0.9,6.7-1.3,9.2l-10.5,12.1c-4.2,4.9-6.5,11.1-6.6,17.6v2.6c0,8.2,3.7,15.9,10.1,21l1.4,1.1
	c6.5,5.2,15.1,7.1,23.1,5.1l2.5-0.6c4.1-1,8.1,1.5,9.1,5.6c0.1,0.5,0.2,1,0.2,1.5l0.1,3.1c0.1,3.7,2.3,7,5.6,8.7
	c1.5,0.7,2.1,2.5,1.4,4l-1.6,3.3c-3.5,7.2-3.8,15.5-1,23l4.6,12c0,0.1,0.1,0.2,0.1,0.3c4.6,9.8,16.2,14,26,9.4
	c2.5-1.2,4.8-2.9,6.6-5c0.2-0.2,0.4-0.5,0.5-0.8c0.8-1.8,1.6-3.6,2.4-5.3c1.5-3.4,3.1-7,4.8-10.4c0.8-1.5,1.6-2.9,2.4-4.5
	c3.4-6.1,6.9-12.4,6.9-20v-7.6c0-2.6,1-5.1,2.9-7l10.9-10.8c3.1-3,4.4-7.5,3.3-11.7c-1.4-5.2-6.1-8.8-11.5-8.8h-2.8
	c-2.1,0-3.9-1.3-4.6-3.2l-4.4-11.9c-1.9-5-5.2-9.3-9.7-12.3l-8.4-5.8c-4.5-3.1-10.3-3.5-15.3-1.1l-5.9,2.9c-0.2,0-0.5,0-0.7,0
	l-3.5-0.6c-1.7-0.3-2.9-1.8-2.8-3.5c0-5.8-4.7-10.5-10.5-10.5c-0.1,0-0.1,0-0.2,0l-7.1,0.1c-0.9,0-1.8-0.3-2.5-1s-1-1.5-1-2.5v-1.3
	c0-2.1,1.5-4,3.6-4.4l13.2-2.9c1.9-0.4,3.1-2.3,2.7-4.2c-0.4-1.9-2.3-3.1-4.2-2.7L104,64.6c-5.2,1.2-8.9,5.7-9.1,11
	c-0.3-0.6-0.7-1.2-1.1-1.7L89,67.5c-2.9-3.9-3.4-9.2-1.2-13.5l4-7.9c1.5-3,4.1-5.3,7.2-6.4l21.7-6.9c4.7-1.5,8.7-4.6,11.2-8.8
	l9.7-16.3c53.6,5.1,97.7,44.3,108.9,97l-7.4,12.5c-0.3,0.5-0.8,0.8-1.4,0.6c-0.6-0.1-1-0.5-1.1-1.1l-2-10.6
	c-0.4-1.9-1.1-3.7-2.2-5.2l-6.9-9.6c-2-2.8-5.2-4.4-8.6-4.4H218c-5.8,0-10.5,4.7-10.5,10.5c0,0.7-0.2,1.4-0.6,2l-6,8.5
	c-0.5,0.8-1.4,1.2-2.4,1.2h-9.6c-1.6,0-2.9-1.3-2.9-2.9c0-5.8-1.6-11.5-4.6-16.4l-2.1-3.4c-2.5-4.1-5.9-7.5-9.9-10.1l-12-7.7
	c-1.7-1-3.8-0.6-4.9,1.1c-1,1.7-0.6,3.8,1.1,4.9l12.1,7.7c3.1,2,5.8,4.7,7.7,7.8l2.1,3.4c2.3,3.8,3.6,8.2,3.6,12.7
	c0,5.5,4.5,10,10,10h9.6c3.2,0,6.3-1.6,8.2-4.2l6-8.5c1.3-1.8,1.9-3.9,1.9-6.1c-0.1-1.9,1.4-3.5,3.3-3.6h0.1h2.8
	c1.1,0,2.2,0.5,2.8,1.5l6.9,9.6c0.5,0.7,0.8,1.6,1,2.4l2,10.6c0.6,3.4,3.3,6.1,6.8,6.7c0.5,0.1,1,0.1,1.5,0.1c3,0,5.7-1.6,7.2-4.1
	l3.1-5.3c5.1,42.4-12.2,84.4-45.7,110.9c-1.5,1.2-1.8,3.4-0.6,5c1.2,1.5,3.4,1.8,5,0.6C249,201.5,267,152.3,257.5,104.5L257.5,104.5
	z M17.5,144.5c4.3-0.7,8.6,0.4,12,3.1l10.1,8c4.1,3.3,9,5.5,14.1,6.6l9.1,1.9c3.9,0.8,6.7,4.3,6.8,8.3v14c0,2.9-1.5,5.6-3.9,7.2
	l-5.4,3.4c-4.1,2.6-6.7,6.9-7.3,11.6l-1.8,15.6c-23.6-19.7-39-47.6-43-78.1L17.5,144.5z M54.7,44L54.7,44c4,4.1,4.3,11.6,0.6,15.7
	c-5.8,6.7-12.1,14.9-14.1,24.6c-0.8,3.9-1.2,5.4-3.8,7.6l-7.5,6.5c-4.5,3.9-5.7,10.4-2.8,15.7l1.2,2.2c0.2,0.3,0.2,0.7,0,1
	s-0.5,0.5-0.8,0.5H7.7c3.1-30.9,17.8-59.5,41.1-80L54.7,44z M96.7,83.3c0.3,0.5,0.7,0.9,1.2,1.4c2,2,4.7,3.1,7.6,3l7.1-0.1
	c0.9,0,1.8,0.4,2.5,1c0.6,0.6,1,1.5,1,2.4c-0.1,5.2,3.6,9.6,8.7,10.5l3.5,0.6c1.2,0.2,2.3,0.2,3.5,0c0.3-0.1,0.6-0.2,0.9-0.3
	l6.4-3.2c2.6-1.3,5.8-1.1,8.2,0.6l8.4,5.7c3.2,2.2,5.7,5.3,7,9l4.4,11.9c1.7,4.7,6.2,7.8,11.2,7.8h2.8c2.2,0,4.1,1.5,4.7,3.6
	c0.4,1.7-0.1,3.5-1.4,4.8l-10.9,10.9c-3.2,3.2-5,7.5-5,12v7.6c0,5.8-2.9,11-6,16.6c-0.9,1.5-1.7,3.1-2.5,4.7
	c-1.8,3.5-3.4,7.2-5,10.7c-0.7,1.6-1.4,3.2-2.1,4.8c-4.7,5.1-12.6,5.4-17.7,0.7c-1.2-1.1-2.1-2.4-2.8-3.8l-4.4-11.9
	c-2.1-5.7-1.9-12,0.8-17.4l1.6-3.3c2.4-5,0.4-10.9-4.5-13.4c-1-0.5-1.6-1.5-1.7-2.6l-0.1-3.1c-0.3-8.1-7.1-14.4-15.1-14.1
	c-1,0-2,0.2-3,0.4l-2.5,0.6c-5.9,1.4-12.2,0-17-3.8l-1.4-1.1c-4.7-3.7-7.5-9.4-7.5-15.4v-2.6c0-4.8,1.7-9.4,4.8-13l10.5-12
	C95.3,90.6,96.7,87,96.7,83.3z"/>
<path d="M132.8,65.3c0,2.3,1.9,4.2,4.2,4.2s4.2-1.9,4.2-4.2c0-2.3-1.9-4.2-4.2-4.2l0,0C134.7,61.1,132.8,63,132.8,65.3z"/>
<path d="M193.4,234.7c-2.3,0-4.2,1.9-4.2,4.2s1.9,4.2,4.2,4.2s4.2-1.9,4.2-4.2l0,0C197.6,236.5,195.7,234.7,193.4,234.7z"/>
<path d="M207.2,186.6l1.8-11c0.8-3.8-1.1-7.7-4.6-9.5c-2.9-1.3-6.3-0.5-8.3,1.9l-8.5,6.5l0,0c-4,3.1-6.2,7.8-6.6,14.5
	c-0.1,0.9-0.1,1.8-0.2,2.8c-0.4,4.3-0.8,9.1,0.4,13.4c1,4,4.2,7,8.3,7.7c3.8,0.6,7.6-1.2,9.5-4.5l0.8-1.2c1.9-2.6,3.4-5.5,4.8-8.4
	c1.1-3.1,1.9-6.3,2.2-9.6C207,188.3,207.1,187.5,207.2,186.6z M202.1,174.5l-1.8,11c-0.1,0.9-0.3,1.8-0.4,2.7
	c-0.3,2.7-0.9,5.4-1.8,8c-1.1,2.5-2.5,4.9-4.1,7.1l-0.8,1.3c-0.5,0.9-1.5,1.5-2.5,1.4c-1.3-0.3-2.3-1.4-2.5-2.7
	c-0.9-3-0.5-7.2-0.2-10.9c0.1-1,0.2-2,0.2-2.9c0.3-4.7,1.5-7.5,3.8-9.3l0,0l8.8-6.7c0.2-0.2,0.4-0.4,0.6-0.6
	c0.1-0.2,0.2-0.2,0.2-0.3C201.7,172.7,202.3,173.3,202.1,174.5z"/>
</svg>
