<?xml version="1.0" encoding="utf-8"?>
<!-- Generator: Adobe Illustrator 24.3.0, SVG Export Plug-In . SVG Version: 6.00 Build 0)  -->
<svg version="1.1" id="Layer_1" xmlns="http://www.w3.org/2000/svg" xmlns:xlink="http://www.w3.org/1999/xlink" x="0px" y="0px"
	 viewBox="0 0 1759.3 97" style="enable-background:new 0 0 1759.3 97;" xml:space="preserve">
<style type="text/css">
	.st0{fill:none;stroke:#D9D9D9;stroke-width:4;stroke-miterlimit:10;}
	.st1{fill:#888888;}
</style>
<line class="st0" x1="29.1" y1="58" x2="29.1" y2="97"/>
<line class="st0" x1="369.5" y1="58" x2="369.5" y2="97"/>
<line class="st0" x1="709.4" y1="58" x2="709.4" y2="97"/>
<line class="st0" x1="1049.6" y1="58" x2="1049.6" y2="97"/>
<line class="st0" x1="1390.3" y1="58" x2="1390.3" y2="97"/>
<line class="st0" x1="1730.5" y1="58" x2="1730.5" y2="97"/>
<g>
	<path class="st1" d="M28.1,10.6v25h-2.4V14l-8.6,21.6h-2.2L6.2,14v21.6H3.8v-25h3.5l8.6,21.9l8.6-21.9
		C24.5,10.6,28.1,10.6,28.1,10.6z"/>
	<path class="st1" d="M35.2,10.6v3.5H33v-3.5H35.2z M35.2,17.5v18.1H33V17.5H35.2z"/>
	<path class="st1" d="M54.9,24v11.6h-2.2V24.3c0-1.7-0.3-3-1-3.9c-0.7-1-1.9-1.5-3.6-1.5S45,19.5,44,20.6c-1,1.1-1.5,2.6-1.5,4.4
		v10.6h-2.2V17.5h2.2v3.1c0.4-1,1.1-1.9,2.2-2.6c1.1-0.7,2.3-1,3.6-1c2.4,0,4.1,0.6,5.1,1.9C54.4,20,54.9,21.7,54.9,24z"/>
</g>
<g>
	<path class="st1" d="M1723.1,10.6v25h-2.4V14l-8.6,21.6h-2.2l-8.6-21.6l-0.1,21.6h-2.4v-25h3.5l8.6,21.9l8.7-21.9H1723.1z"/>
	<path class="st1" d="M1743.1,33.6v1.9l-1.4,0.1c-1,0-1.7-0.2-2-0.7c-0.4-0.5-0.6-1.3-0.6-2.4c-0.9,1.3-1.8,2.2-2.6,2.7
		c-1,0.6-2.4,0.9-4.1,0.9s-3.1-0.4-4.2-1.2c-1.2-0.9-1.8-2.3-1.8-4c0-2.2,1-3.8,3-4.6c1.1-0.5,3.3-0.9,6.7-1.2
		c1-0.2,1.7-0.3,2.1-0.5c0.5-0.4,0.7-1,0.7-2c0-2.4-1.6-3.6-4.7-3.6c-3.2,0-4.8,1.4-4.8,4.2h-2.2c0-2,0.6-3.5,1.9-4.5
		s3.1-1.5,5.4-1.5c2,0,3.4,0.4,4.5,1.1c1.4,0.9,2.1,2.5,2.1,4.7v9.6c0,0.9,0.4,1.3,1.3,1.3L1743.1,33.6z M1738.9,28.6v-2.8
		c-0.1,0.2-0.8,0.5-1.9,0.8c-0.7,0.1-1.7,0.3-3,0.5s-2.2,0.4-2.6,0.4c-1.9,0.6-2.8,1.7-2.8,3.2c0,1,0.4,1.9,1.2,2.6
		c0.8,0.7,1.8,1,2.9,1c1.8,0,3.3-0.5,4.5-1.6C1738.3,31.6,1738.9,30.2,1738.9,28.6z"/>
	<path class="st1" d="M1753.4,26.1l7,9.5h-2.8l-5.7-7.6l-5.6,7.6h-2.7l7-9.4l-6.4-8.7h2.8l5.1,6.9l5-6.9h2.8L1753.4,26.1z"/>
</g>
</svg>
