<svg xmlns="http://www.w3.org/2000/svg" xmlns:xlink="http://www.w3.org/1999/xlink" version="1.1" id="Layer_1" x="0px" y="0px" viewBox="0 0 1842.8 122" style="enable-background:new 0 0 1842.8 122;" xml:space="preserve">
<style type="text/css">
	.st0{fill:none;stroke:#D9D9D9;stroke-width:4;stroke-miterlimit:10;}
	.st1{fill:#888888;}
</style>
    <line class="st0" x1="64" y1="83" x2="64" y2="122"/>
    <line class="st0" x1="404.4" y1="83" x2="404.4" y2="122"/>
    <line class="st0" x1="744.3" y1="83" x2="744.3" y2="122"/>
    <line class="st0" x1="1084.5" y1="83" x2="1084.5" y2="122"/>
    <line class="st0" x1="1425.2" y1="83" x2="1425.2" y2="122"/>
    <line class="st0" x1="1765.4" y1="83" x2="1765.4" y2="122"/>
    <g>
	<path class="st1" d="M60.9,3.4V66h-6V11.9L33.3,66h-5.5L6,11.9V66H0V3.4h8.8l21.5,54.8L51.8,3.4H60.9z"/>
        <path class="st1" d="M78.6,3.4v8.8h-5.5V3.4H78.6z M78.6,20.7V66h-5.5V20.7H78.6z"/>
        <path class="st1" d="M128,36.9v29h-5.5V37.7c0-4.3-0.8-7.5-2.5-9.8c-1.8-2.5-4.8-3.8-9-3.8c-4.3,0-7.8,1.5-10.3,4.3   c-2.5,2.8-3.8,6.5-3.8,11V66h-5.5V20.7h5.5v7.8c1-2.5,2.8-4.8,5.5-6.5c2.8-1.8,5.8-2.5,9-2.5c6,0,10.3,1.5,12.8,4.8   C126.7,26.9,128,31.2,128,36.9z"/>
</g>
    <g>
	<path class="st1" d="M1749.4,3.4V66h-6V11.9L1721.9,66h-5.5l-21.5-54.1l-0.3,54.1h-6V3.4h8.8l21.5,54.8l21.8-54.8H1749.4z"/>
        <path class="st1" d="M1799.5,61v4.8L1796,66c-2.5,0-4.3-0.5-5-1.8c-1-1.3-1.5-3.3-1.5-6c-2.3,3.3-4.5,5.5-6.5,6.8   c-2.5,1.5-6,2.3-10.3,2.3s-7.8-1-10.5-3c-3-2.3-4.5-5.8-4.5-10c0-5.5,2.5-9.5,7.5-11.5c2.8-1.3,8.3-2.3,16.8-3   c2.5-0.5,4.3-0.8,5.3-1.3c1.3-1,1.8-2.5,1.8-5c0-6-4-9-11.8-9c-8,0-12,3.5-12,10.5h-5.5c0-5,1.5-8.8,4.8-11.3   c3.3-2.5,7.8-3.8,13.5-3.8c5,0,8.5,1,11.3,2.8c3.5,2.3,5.3,6.3,5.3,11.8v24c0,2.3,1,3.3,3.3,3.3L1799.5,61z M1789,48.5v-7   c-0.3,0.5-2,1.3-4.8,2c-1.8,0.3-4.3,0.8-7.5,1.3c-3.3,0.5-5.5,1-6.5,1c-4.8,1.5-7,4.3-7,8c0,2.5,1,4.8,3,6.5c2,1.8,4.5,2.5,7.3,2.5   c4.5,0,8.3-1.3,11.3-4C1787.5,56,1789,52.5,1789,48.5z"/>
        <path class="st1" d="M1825.3,42.2l17.5,23.8h-7l-14.3-19l-14,19h-6.8l17.5-23.5l-16-21.8h7l12.8,17.3l12.5-17.3h7L1825.3,42.2z"/>
</g>
</svg>