<svg xmlns="http://www.w3.org/2000/svg" viewBox="0 0 70 70"><defs><style>.cls-1{fill:#636363;}</style></defs><title>Asset 14</title><g id="Layer_2" data-name="Layer 2"><g id="Layer_1-2" data-name="Layer 1"><path class="cls-1" d="M35,2.8A32.2,32.2,0,1,1,2.8,35,32.23,32.23,0,0,1,35,2.8M35,0A35,35,0,1,0,70,35,35,35,0,0,0,35,0Z"/><path class="cls-1" d="M46.88,54.39H22.48V17.47L35,8.81l11.89,7.94Zm-21.6-2.8h18.8V18.25L35,12.19l-9.73,6.74Z"/><polygon class="cls-1" points="23.88 54.39 12.57 54.39 12.57 34.37 23.09 26.81 24.72 29.09 15.37 35.8 15.37 51.59 23.88 51.59 23.88 54.39"/><polygon class="cls-1" points="56.81 54.39 45.5 54.39 45.5 51.59 54.01 51.59 54.01 35.8 44.66 29.09 46.3 26.81 56.81 34.37 56.81 54.39"/><path class="cls-1" d="M35,20.53A7.42,7.42,0,1,0,42.43,28,7.43,7.43,0,0,0,35,20.53Zm.87,7.78L33,31.22,31.72,30l2.4-2.39V23.71h1.76Z"/><rect class="cls-1" x="31.72" y="42.06" width="6.72" height="10.93"/></g></g></svg>