<svg xmlns="http://www.w3.org/2000/svg" viewBox="0 0 70 70"><defs><style>.cls-1{fill:#636363;}</style></defs><title>Asset 13</title><g id="Layer_2" data-name="Layer 2"><g id="Layer_1-2" data-name="Layer 1"><path class="cls-1" d="M35,2.8A32.2,32.2,0,1,1,2.8,35,32.23,32.23,0,0,1,35,2.8M35,0A35,35,0,1,0,70,35,35,35,0,0,0,35,0Z"/><polygon class="cls-1" points="57.18 50.4 12.6 50.4 12.6 19.6 34.89 19.6 34.89 22.4 15.4 22.4 15.4 47.6 54.38 47.6 54.38 22.4 49 22.4 49 19.6 57.18 19.6 57.18 50.4"/><path class="cls-1" d="M36.4,50.4H33.6A5.6,5.6,0,0,0,28,44.8H14V42H28A8.41,8.41,0,0,1,36.4,50.4Z"/><path class="cls-1" d="M36.4,50.4H33.6A8.41,8.41,0,0,1,42,42H56v2.8H42A5.6,5.6,0,0,0,36.4,50.4Z"/><path class="cls-1" d="M33.6,49.22l-.11-29.61c0-.11.2-10,15.51-10h1.4v27.2l-1.55-.17c-.05,0-5.29-.5-8.89,2.76-2.36,2.13-3.56,5.45-3.56,9.85Zm14-36.81c-11,.5-11.3,6.93-11.31,7.22l.07,19.58a12.31,12.31,0,0,1,1.74-1.94,14.94,14.94,0,0,1,9.5-3.49Z"/><rect class="cls-1" x="18.89" y="30.84" width="11.19" height="2.17"/><rect class="cls-1" x="18.89" y="27.76" width="11.19" height="2.17"/><rect class="cls-1" x="18.89" y="24.69" width="11.19" height="2.17"/><rect class="cls-1" x="18.89" y="33.91" width="5.59" height="2.17"/></g></g></svg>