<svg xmlns="http://www.w3.org/2000/svg" viewBox="0 0 70 70"><defs><style>.cls-1{fill:#636363;}</style></defs><title>Asset 15</title><g id="Layer_2" data-name="Layer 2"><g id="Layer_1-2" data-name="Layer 1"><path class="cls-1" d="M35,2.8A32.2,32.2,0,1,1,2.8,35,32.23,32.23,0,0,1,35,2.8M35,0A35,35,0,1,0,70,35,35,35,0,0,0,35,0Z"/><path class="cls-1" d="M27,54.59H15.24V43.34H14.07a3.26,3.26,0,0,1-3.26-3.25v-7a5.92,5.92,0,0,1,5.91-5.91H23a4,4,0,0,1,4,4ZM17.63,52.2h6.93l0-21a1.63,1.63,0,0,0-.47-1.14A1.61,1.61,0,0,0,23,29.62H16.73a3.53,3.53,0,0,0-3.52,3.52v7a.86.86,0,0,0,.87.86h3.56Z"/><rect class="cls-1" x="15.24" y="33.6" width="2.39" height="8.55"/><rect class="cls-1" x="19.92" y="40.8" width="2.39" height="12.6"/><path class="cls-1" d="M21.11,26.28A5.49,5.49,0,1,1,26.6,20.8,5.49,5.49,0,0,1,21.11,26.28Zm0-8.17A2.69,2.69,0,1,0,23.8,20.8,2.69,2.69,0,0,0,21.11,18.11Z"/><path class="cls-1" d="M54.48,54.59H42.77l0-23.35a4,4,0,0,1,4-4H53a5.92,5.92,0,0,1,5.91,5.91v7a3.26,3.26,0,0,1-3.26,3.25H54.48ZM45.16,52.2h6.93V41h3.56a.86.86,0,0,0,.87-.86v-7A3.53,3.53,0,0,0,53,29.62H46.74a1.61,1.61,0,0,0-1.14.47,1.63,1.63,0,0,0-.47,1.14Z"/><rect class="cls-1" x="52.09" y="33.6" width="2.39" height="8.55"/><rect class="cls-1" x="47.41" y="40.8" width="2.39" height="12.6"/><path class="cls-1" d="M48.6,26.28a5.49,5.49,0,1,1,5.49-5.48A5.49,5.49,0,0,1,48.6,26.28Zm0-8.17a2.69,2.69,0,1,0,2.69,2.69A2.69,2.69,0,0,0,48.6,18.11Z"/><path class="cls-1" d="M40.69,54.59H29V43.34H27.81a3.26,3.26,0,0,1-3.25-3.25v-7a5.91,5.91,0,0,1,5.9-5.91h9.07a5.91,5.91,0,0,1,5.9,5.91v7.11a3.26,3.26,0,0,1-3.25,3.25H40.69ZM31.38,52.2H38.3V41.11h3.88a.86.86,0,0,0,.86-.86V33.14a3.52,3.52,0,0,0-3.51-3.52H30.47A3.52,3.52,0,0,0,27,33.14v7a.86.86,0,0,0,.86.86h3.57Z"/><rect class="cls-1" x="28.99" y="33.6" width="2.39" height="8.55"/><rect class="cls-1" x="38.3" y="33.6" width="2.39" height="8.71"/><rect class="cls-1" x="33.66" y="40.8" width="2.39" height="12.6"/><path class="cls-1" d="M34.86,26.28a5.49,5.49,0,1,1,5.49-5.48A5.49,5.49,0,0,1,34.86,26.28Zm0-8.17a2.69,2.69,0,1,0,2.69,2.69A2.7,2.7,0,0,0,34.86,18.11Z"/></g></g></svg>