<svg xmlns="http://www.w3.org/2000/svg" viewBox="0 0 70 70"><defs><style>.cls-1{fill:#636363;}</style></defs><title>Asset 11</title><g id="Layer_2" data-name="Layer 2"><g id="Layer_1-2" data-name="Layer 1"><path class="cls-1" d="M48.23,27.68a5.49,5.49,0,1,1,5.48-5.49A5.49,5.49,0,0,1,48.23,27.68Zm0-8.17a2.69,2.69,0,1,0,2.68,2.68A2.69,2.69,0,0,0,48.23,19.51Z"/><rect class="cls-1" x="50.72" y="34.8" width="2.8" height="7.36"/><rect class="cls-1" x="45.73" y="42" width="2.8" height="12.6"/><path class="cls-1" d="M53.52,56H40.62V36L33.5,25.85a3.24,3.24,0,0,1,.62-4.38l.34-.28a3.24,3.24,0,0,1,4.35.25l6.33,6.45a1.41,1.41,0,0,0,1,.43H52.7a4.81,4.81,0,0,1,4.81,4.8l1,6.76a3.68,3.68,0,0,1-3.68,3.68H53.52Zm-10.1-2.8h7.3V40.76h4.11a.89.89,0,0,0,.88-.88l-1-6.76a2,2,0,0,0-2-2H46.15a4.26,4.26,0,0,1-3-1.27L36.82,23.4a.46.46,0,0,0-.6,0h0l-.34.28a.45.45,0,0,0-.09.6l7.63,10.87Z"/><path class="cls-1" d="M35,2.8A32.2,32.2,0,1,1,2.8,35,32.23,32.23,0,0,1,35,2.8M35,0A35,35,0,1,0,70,35,35,35,0,0,0,35,0Z"/><path class="cls-1" d="M29.4,18.53v23.9l-6.3,8.75-6.3-8.75V18.53H29.4m2.8-2.8H14v27.6L23.1,56l9.1-12.64V15.73Z"/><path class="cls-1" d="M22.93,43.83,22,42.71a3.74,3.74,0,0,0-2.44-1.26A3.62,3.62,0,0,0,17,43.15a1.4,1.4,0,1,1-2.21-1.71,6.17,6.17,0,0,1,4.78-2.79A6,6,0,0,1,23.2,40a6,6,0,0,1,4.22-1.1,6.24,6.24,0,0,1,4.07,2.62,1.4,1.4,0,0,1-2.34,1.54A3.52,3.52,0,0,0,27,41.66a3.93,3.93,0,0,0-3,1.23Z"/><rect class="cls-1" x="14.7" y="22.1" width="16.8" height="2.8"/><path class="cls-1" d="M23.1,42.49a1.4,1.4,0,0,1-1.4-1.4V23.5a1.4,1.4,0,0,1,2.8,0V41.09A1.4,1.4,0,0,1,23.1,42.49Z"/><path class="cls-1" d="M20.1,49.31a1.4,1.4,0,0,1-.71-2.61,7.07,7.07,0,0,1,7.64.08A1.4,1.4,0,0,1,25.37,49a4.29,4.29,0,0,0-4.57.08A1.37,1.37,0,0,1,20.1,49.31Z"/><rect class="cls-1" x="14" y="54.6" width="41.93" height="2.8"/></g></g></svg>