<svg xmlns="http://www.w3.org/2000/svg" viewBox="0 0 70 70"><defs><style>.cls-1{fill:#636363;}</style></defs><title>Asset 12</title><g id="Layer_2" data-name="Layer 2"><g id="Layer_1-2" data-name="Layer 1"><path class="cls-1" d="M35,2.8A32.2,32.2,0,1,1,2.8,35,32.23,32.23,0,0,1,35,2.8M35,0A35,35,0,1,0,70,35,35,35,0,0,0,35,0Z"/><path class="cls-1" d="M25,28.88a5.49,5.49,0,1,1,5.49-5.48A5.49,5.49,0,0,1,25,28.88Zm0-8.17a2.69,2.69,0,1,0,2.69,2.69A2.7,2.7,0,0,0,25,20.71Z"/><rect class="cls-1" x="19.67" y="36.2" width="2.8" height="7.36"/><rect class="cls-1" x="24.67" y="43.4" width="2.8" height="12.6"/><path class="cls-1" d="M32.58,57.4H19.67V45h-1.3a3.68,3.68,0,0,1-3.68-3.68l1-6.76a4.81,4.81,0,0,1,4.81-4.8h6.55a1.41,1.41,0,0,0,1-.43l6.32-6.44a3.23,3.23,0,0,1,4.35-.26l.35.28a3.27,3.27,0,0,1,.62,4.39L32.58,37.41ZM22.47,54.6h7.31V36.52L37.4,25.65a.44.44,0,0,0-.08-.6L37,24.77a.45.45,0,0,0-.6,0l-6.32,6.44a4.23,4.23,0,0,1-3,1.27H20.5a2,2,0,0,0-2,2l-1,6.76a.89.89,0,0,0,.88.88h4.1Z"/><polygon class="cls-1" points="57.17 43.4 31.18 43.4 31.18 40.6 54.37 40.6 54.37 15.4 14 15.4 14 12.6 57.17 12.6 57.17 43.4"/><path class="cls-1" d="M47.56,35.34H43.25V28h3.88a5,5,0,0,1,3.44,1.1,3.48,3.48,0,0,1,1.07,2.61,3.34,3.34,0,0,1-1,2.52A4.59,4.59,0,0,1,47.56,35.34Zm-1.51-2.8h1.48a1.93,1.93,0,0,0,1.16-.32c.05,0,.15-.15.15-.49s-.12-.51-.18-.56a2.41,2.41,0,0,0-1.39-.35H46.05Z"/><path class="cls-1" d="M47.56,39.86H43.25V32.54h3.88a5,5,0,0,1,3.44,1.1,3.47,3.47,0,0,1,1.07,2.61,3.35,3.35,0,0,1-1,2.52A4.59,4.59,0,0,1,47.56,39.86Zm-1.51-2.81h1.48a1.87,1.87,0,0,0,1.16-.33c.05,0,.15-.14.15-.48s-.12-.51-.18-.56a2.34,2.34,0,0,0-1.39-.35H46.05Z"/><polygon class="cls-1" points="45.07 26.92 42.38 26.13 45.33 16.13 49.14 16.13 51.72 26.18 49.01 26.88 47.18 19.75 45.07 26.92"/><rect class="cls-1" x="44.79" y="22.23" width="4.64" height="2.8"/><rect class="cls-1" x="21.07" y="54.6" width="34.7" height="2.8"/></g></g></svg>