<svg xmlns="http://www.w3.org/2000/svg" xmlns:xlink="http://www.w3.org/1999/xlink" viewBox="0 0 33.25 28.89"><defs><style>.cls-1{fill:#ececec;}.cls-2{fill:url(#New_Gradient_Swatch_5);}.cls-3{fill:#f5f5f5;}.cls-4{fill:url(#New_Gradient_Swatch_5-2);}.cls-5{fill:#3cf;}.cls-6{fill:url(#New_Gradient_Swatch_5-3);}.cls-7{fill:url(#New_Gradient_Swatch_5-4);}</style><linearGradient id="New_Gradient_Swatch_5" x1="-6.77" y1="26.74" x2="58.23" y2="-13.74" gradientUnits="userSpaceOnUse"><stop offset="0.15" stop-color="#36c"/><stop offset="0.25" stop-color="#3383db"/><stop offset="0.4" stop-color="#33abee"/><stop offset="0.53" stop-color="#33c3fb"/><stop offset="0.6" stop-color="#3cf"/></linearGradient><linearGradient id="New_Gradient_Swatch_5-2" x1="7.21" y1="37.01" x2="43.33" y2="-3.68" xlink:href="#New_Gradient_Swatch_5"/><linearGradient id="New_Gradient_Swatch_5-3" x1="-26.14" y1="0.69" x2="65.66" y2="0.69" xlink:href="#New_Gradient_Swatch_5"/><linearGradient id="New_Gradient_Swatch_5-4" x1="-24.54" y1="3.08" x2="67.26" y2="3.08" xlink:href="#New_Gradient_Swatch_5"/></defs><title>Asset 25</title><g id="Layer_2" data-name="Layer 2"><g id="Layer_1-2" data-name="Layer 1"><rect class="cls-1" y="4.82" width="33.12" height="14.79"/><path class="cls-2" d="M31.75,6.19v12H1.38v-12H31.75m1.37-1.37H0V19.6H33.12V4.82Z"/><circle class="cls-3" cx="23.28" cy="18.92" r="9.97"/><path class="cls-4" d="M23.28,10.37a8.55,8.55,0,1,1-8.55,8.55,8.56,8.56,0,0,1,8.55-8.55m0-1.43a10,10,0,1,0,10,10,10,10,0,0,0-10-10Z"/><circle class="cls-5" cx="5.68" cy="10.55" r="3.12"/><rect class="cls-6" width="33.1" height="1.38"/><rect class="cls-7" y="2.39" width="33.1" height="1.38"/><path class="cls-5" d="M26,18.74a2.17,2.17,0,0,0,1.28-2v0a2,2,0,0,0-.6-1.5,3.29,3.29,0,0,0-2.36-.79h-.47V12.48H22.14v1.93H20.25v9h1.89v1.93h1.69V23.43h.6c2,0,3.33-.87,3.33-2.48v0A2.19,2.19,0,0,0,26,18.74Zm-4.17-2.93h2.28c1,0,1.59.44,1.59,1.15v0c0,.82-.68,1.22-1.71,1.22H21.81Zm4.37,5c0,.81-.66,1.24-1.74,1.24H21.81V19.55h2.52c1.25,0,1.85.45,1.85,1.21Z"/></g></g></svg>