<svg xmlns="http://www.w3.org/2000/svg" viewBox="0 0 33.25 28.89"><defs><style>.cls-1{fill:#fff;}</style></defs><title>Asset 26</title><g id="Layer_2" data-name="Layer 2"><g id="Layer_1-2" data-name="Layer 1"><path class="cls-1" d="M8.8,10.55A3.13,3.13,0,1,1,5.68,7.43,3.12,3.12,0,0,1,8.8,10.55Z"/><path class="cls-1" d="M24.33,19.56H21.81v0h3.11A3.49,3.49,0,0,0,24.33,19.56Z"/><path class="cls-1" d="M24.33,19.56H21.81v0h3.11A3.49,3.49,0,0,0,24.33,19.56Z"/><path class="cls-1" d="M24.33,19.56H21.81v0h3.11A3.49,3.49,0,0,0,24.33,19.56Zm0,0H21.81v0h3.11A3.49,3.49,0,0,0,24.33,19.56Zm0,0H21.81v0h3.11A3.49,3.49,0,0,0,24.33,19.56Zm0,0H21.81v0h3.11A3.49,3.49,0,0,0,24.33,19.56Zm0,0H21.81v0h3.11A3.49,3.49,0,0,0,24.33,19.56Zm0,0H21.81v0h3.11A3.49,3.49,0,0,0,24.33,19.56Zm0,0H21.81v0h3.11A3.49,3.49,0,0,0,24.33,19.56Zm0,0H21.81v0h3.11A3.49,3.49,0,0,0,24.33,19.56Zm0,0H21.81v0h3.11A3.49,3.49,0,0,0,24.33,19.56Zm0,0H21.81v0h3.11A3.49,3.49,0,0,0,24.33,19.56Zm0,0H21.81v0h3.11A3.49,3.49,0,0,0,24.33,19.56Z"/><path class="cls-1" d="M33.13,17.33V4.81H0V19.6H13.33a10,10,0,0,0,19.92-.68A10.25,10.25,0,0,0,33.13,17.33Zm-31.75.89v-12H31.75v7.44a10,10,0,0,0-18.42,4.59ZM31.79,19.6a8.54,8.54,0,0,1-17,0,5.17,5.17,0,0,1,0-.68,5.58,5.58,0,0,1,0-.7,8.54,8.54,0,0,1,17-.41,8.29,8.29,0,0,1,.08,1.11A5.17,5.17,0,0,1,31.79,19.6Z"/><path class="cls-1" d="M8.8,10.55A3.13,3.13,0,1,1,5.68,7.43,3.12,3.12,0,0,1,8.8,10.55Z"/><rect class="cls-1" width="33.1" height="1.38"/><rect class="cls-1" y="2.39" width="33.1" height="1.38"/><path class="cls-1" d="M27.34,19.6A2.69,2.69,0,0,0,26,18.75a3,3,0,0,0,.72-.53,2,2,0,0,0,.57-1.49v0a2.05,2.05,0,0,0-.6-1.49,3.3,3.3,0,0,0-2.37-.79h-.46V12.47H22.14v1.94H20.25v9h1.89v1.92h1.69V23.43h.6c2,0,3.34-.87,3.34-2.47v0A2,2,0,0,0,27.34,19.6Zm-5.53-3.79H24.1c1,0,1.58.44,1.58,1.15v0c0,.83-.68,1.23-1.7,1.23H21.81Zm4.37,5c0,.81-.66,1.24-1.74,1.24H21.81V19.56h2.52a3.49,3.49,0,0,1,.59,0c.86.12,1.26.52,1.26,1.16Z"/></g></g></svg>