<svg xmlns="http://www.w3.org/2000/svg" viewBox="0 0 32.42 33.09"><defs><style>.cls-1{fill:#fff;}</style></defs><title>Asset 31</title><g id="Layer_2" data-name="Layer 2"><g id="Layer_1-2" data-name="Layer 1"><path class="cls-1" d="M28.72,19.11v14h3.7V22.25Zm-5.65,5.28v2.16h2.17V24.39Z"/><path class="cls-1" d="M23.07,11v2.17h2.17V11Zm0,4.46v2.17h2.17V15.46Zm0,0v2.17h2.17V15.46Zm0-4.46v2.17h2.17V11Zm0,0v2.17h2.17V11Zm0,4.46v2.17h2.17V15.46Zm0,8.93v2.16h2.17V24.39Zm0,0v2.16h2.17V24.39Zm0-8.93v2.17h2.17V15.46Zm0-4.46v2.17h2.17V11Zm0,0v2.17h2.17V11Zm0,4.46v2.17h2.17V15.46Zm0,8.93v2.16h2.17V24.39Zm0-13.39v2.17h2.17V11Zm0,4.46v2.17h2.17V15.46Zm0,8.93v2.16h2.17V24.39Zm0,0v2.16h2.17V24.39Zm0-8.93v2.17h2.17V15.46Zm0-4.46v2.17h2.17V11Zm0,0v2.17h2.17V11Zm0,4.46v2.17h2.17V15.46Zm0,0v2.17h2.17V15.46Zm0-4.46v2.17h2.17V11Zm0,0v2.17h2.17V11Zm0,4.46v2.17h2.17V15.46Zm0,0v2.17h2.17V15.46Zm0-4.46v2.17h2.17V11Z"/><rect class="cls-1" x="23.07" y="11" width="2.18" height="2.17"/><rect class="cls-1" x="23.07" y="15.46" width="2.18" height="2.17"/><rect class="cls-1" x="23.07" y="24.39" width="2.18" height="2.17"/><path class="cls-1" d="M17.29,0,6.84,8.87v2.5L0,17.17V33.09H27.75V8.87ZM26,31.36H13.75V17.17L8.58,12.78V9.67l8.71-7.4L26,9.67Z"/><rect class="cls-1" x="23.07" y="11" width="2.18" height="2.17"/><rect class="cls-1" x="23.07" y="15.46" width="2.18" height="2.17"/><rect class="cls-1" x="23.07" y="19.92" width="2.18" height="2.17"/><rect class="cls-1" x="23.07" y="24.39" width="2.18" height="2.17"/></g></g></svg>