<svg xmlns="http://www.w3.org/2000/svg" viewBox="0 0 33.02 33.02"><defs><style>.cls-1{fill:#fff;}</style></defs><title>Asset 34</title><g id="Layer_2" data-name="Layer 2"><g id="Layer_1-2" data-name="Layer 1"><path class="cls-1" d="M29.89,16.51a13.38,13.38,0,1,1-3.56-9.09L26,7.79,15.39,18.33l-3.66-3.66A2.6,2.6,0,0,0,7.29,16.5a2.6,2.6,0,0,0,.76,1.84l5.34,5.34a2.81,2.81,0,0,0,4,0L28.7,12.43l.42-.42A13.63,13.63,0,0,1,29.89,16.51Z"/><path class="cls-1" d="M16.51.65a15.81,15.81,0,1,1-6.17,1.24A15.85,15.85,0,0,1,16.51.65m0-.65A16.51,16.51,0,1,0,33,16.51,16.51,16.51,0,0,0,16.51,0Z"/><path class="cls-1" d="M15.39,23.53a1.83,1.83,0,0,1-1.3-.54L8.75,17.65A1.62,1.62,0,0,1,11,15.36l4.36,4.36L27.09,8.06a1.62,1.62,0,0,1,2.29,2.29L16.7,23A1.84,1.84,0,0,1,15.39,23.53Z"/><path class="cls-1" d="M29.12,12l-.42.42a12.94,12.94,0,0,1-.35,9.09A13.11,13.11,0,0,1,25.6,25.6a12.87,12.87,0,0,1-4.09,2.75,12.88,12.88,0,0,1-10,0A12.87,12.87,0,0,1,4.67,11.5,12.66,12.66,0,0,1,7.42,7.42a12.9,12.9,0,0,1,4.09-2.76,12.88,12.88,0,0,1,10,0A12.9,12.9,0,0,1,25.6,7.42l.36.37.37-.37a13.37,13.37,0,1,0,3.56,9.09A13.63,13.63,0,0,0,29.12,12Z"/></g></g></svg>