<svg xmlns="http://www.w3.org/2000/svg" viewBox="0 0 27.06 33.02"><defs><style>.cls-1{fill:#fff;}</style></defs><title>Asset 35</title><g id="Layer_2" data-name="Layer 2"><g id="Layer_1-2" data-name="Layer 1"><path class="cls-1" d="M16.63,0,13,3.11a10.08,10.08,0,0,0-2.53-.32A10.44,10.44,0,0,0,1.55,18.71L0,19.83V33H27.06V8.84ZM10.44,22.18a8.66,8.66,0,0,1-2.86-.47,8.11,8.11,0,0,1-1.38-.6,9,9,0,0,1-1.75-1.23,8.95,8.95,0,0,1,6-15.59,7.45,7.45,0,0,1,1.06.07,8.94,8.94,0,0,1-1.06,17.82Z"/><path class="cls-1" d="M13.26,13.05a2.25,2.25,0,0,0,1.36-2.11v0A2.12,2.12,0,0,0,14,9.34a3.47,3.47,0,0,0-2.47-.83H11v-2H9.25v2h-2V18h2v2H11V18h.63c2.1,0,3.49-.9,3.49-2.58v0A2.31,2.31,0,0,0,13.26,13.05ZM8.91,10h2.38c1.07,0,1.67.46,1.67,1.21v0c0,.87-.72,1.29-1.79,1.29H8.91Zm4.57,5.2c0,.85-.7,1.3-1.82,1.3H8.91V13.9h2.62c1.31,0,2,.46,2,1.26Z"/></g></g></svg>