<svg xmlns="http://www.w3.org/2000/svg" xmlns:xlink="http://www.w3.org/1999/xlink" viewBox="0 0 33.26 33.02"><defs><style>.cls-1{fill:url(#New_Gradient_Swatch_5);}.cls-2{fill:url(#New_Gradient_Swatch_5-2);}.cls-3{fill:url(#New_Gradient_Swatch_5-3);}.cls-4{fill:#f5f5f5;}.cls-5{fill:#3cf;}</style><linearGradient id="New_Gradient_Swatch_5" x1="3.83" y1="46.02" x2="3.73" y2="-9.17" gradientUnits="userSpaceOnUse"><stop offset="0.15" stop-color="#36c"/><stop offset="0.25" stop-color="#3383db"/><stop offset="0.4" stop-color="#33abee"/><stop offset="0.53" stop-color="#33c3fb"/><stop offset="0.6" stop-color="#3cf"/></linearGradient><linearGradient id="New_Gradient_Swatch_5-2" x1="29.51" y1="45.97" x2="29.4" y2="-9.22" xlink:href="#New_Gradient_Swatch_5"/><linearGradient id="New_Gradient_Swatch_5-3" x1="17.12" y1="47.33" x2="15.79" y2="-24.78" xlink:href="#New_Gradient_Swatch_5"/></defs><title>Asset 33</title><g id="Layer_2" data-name="Layer 2"><g id="Layer_1-2" data-name="Layer 1"><path class="cls-1" d="M7.58,14.32,0,19.83V33H7.58V14.32Z"/><path class="cls-2" d="M25.68,14.32V33h7.58V19.83l-7.58-5.51Z"/><path class="cls-3" d="M16.63,0,6.2,8.85V33H27.06V8.85L16.63,0Z"/><circle class="cls-4" cx="10.44" cy="13.23" r="10.02"/><path class="cls-5" d="M10.44,4.28a9,9,0,1,1-8.95,9,9,9,0,0,1,9-8.95m0-1.49A10.44,10.44,0,1,0,20.88,13.23,10.44,10.44,0,0,0,10.44,2.79Z"/><path class="cls-5" d="M13.27,13.05a2.28,2.28,0,0,0,1.34-2.11v0A2.07,2.07,0,0,0,14,9.35a3.41,3.41,0,0,0-2.47-.84H11v-2H9.25v2h-2V18h2v2H11V18h.63c2.1,0,3.49-.91,3.49-2.6v0A2.3,2.3,0,0,0,13.27,13.05ZM8.91,10h2.38c1.07,0,1.67.46,1.67,1.2v0c0,.86-.72,1.28-1.79,1.28H8.91Zm4.57,5.2c0,.85-.69,1.3-1.82,1.3H8.91V13.9h2.63c1.31,0,1.94.46,1.94,1.26Z"/></g></g></svg>