<svg xmlns="http://www.w3.org/2000/svg" xmlns:xlink="http://www.w3.org/1999/xlink" viewBox="0 0 33.82 30.1"><defs><style>.cls-1{fill:url(#linear-gradient);}.cls-2{fill:url(#linear-gradient-2);}.cls-3{fill:url(#linear-gradient-3);}.cls-4{fill:url(#linear-gradient-4);}.cls-5{fill:#e6e6e6;}</style><linearGradient id="linear-gradient" x1="-6.38" y1="38.13" x2="33.63" y2="-9.07" gradientUnits="userSpaceOnUse"><stop offset="0.15" stop-color="#36c"/><stop offset="0.25" stop-color="#3383db"/><stop offset="0.4" stop-color="#33abee"/><stop offset="0.53" stop-color="#33c3fb"/><stop offset="0.6" stop-color="#3cf"/></linearGradient><linearGradient id="linear-gradient-2" x1="3.22" y1="46.26" x2="43.23" y2="-0.93" xlink:href="#linear-gradient"/><linearGradient id="linear-gradient-3" x1="3.21" y1="46.25" x2="43.22" y2="-0.94" xlink:href="#linear-gradient"/><linearGradient id="linear-gradient-4" x1="16.93" y1="30.1" x2="16.93" y2="30.1" xlink:href="#linear-gradient"/></defs><title>Asset 3</title><g id="Layer_2" data-name="Layer 2"><g id="Name"><path class="cls-1" d="M33.82,9.59c0,4.29-3,14.05-16.89,20.5,0,0,0,0,0,0s0,0,0,0C3,23.64,0,13.88,0,9.59S2.75.35,8.77,0a9.38,9.38,0,0,1,8.14,3.43A9.38,9.38,0,0,1,25.05,0C31.07.35,33.82,5.3,33.82,9.59Z"/><path class="cls-2" d="M16.93,30.09h0S16.93,30.09,16.93,30.09Z"/><path class="cls-3" d="M16.91,30.1h0S16.91,30.09,16.91,30.1Z"/><line class="cls-4" x1="16.93" y1="30.1" x2="16.93" y2="30.09"/><line class="cls-4" x1="16.93" y1="30.1" x2="16.93" y2="30.09"/><path class="cls-5" d="M1.68,16.29H7l1.3-2.16,2,5,3.14-7.94,3.46,10,1.7-5.86h2.85A.83.83,0,0,0,23,15a.83.83,0,0,0-1.55-.39H18l-1.14,4L13.49,8.86,10.3,17,8.42,12.32,6.53,15.48H1.34Z"/></g></g></svg>