<svg xmlns="http://www.w3.org/2000/svg" xmlns:xlink="http://www.w3.org/1999/xlink" viewBox="0 0 24.9 30.08"><defs><style>.cls-1{fill:url(#linear-gradient);}.cls-2{fill:url(#linear-gradient-2);}.cls-3{fill:url(#linear-gradient-3);}.cls-4{fill:#e6e6e6;}</style><linearGradient id="linear-gradient" x1="4.85" y1="8.09" x2="24.65" y2="1.91" gradientUnits="userSpaceOnUse"><stop offset="0.15" stop-color="#36c"/><stop offset="0.25" stop-color="#3383db"/><stop offset="0.4" stop-color="#33abee"/><stop offset="0.53" stop-color="#33c3fb"/><stop offset="0.6" stop-color="#3cf"/></linearGradient><linearGradient id="linear-gradient-2" x1="9.24" y1="22.16" x2="29.04" y2="15.98" xlink:href="#linear-gradient"/><linearGradient id="linear-gradient-3" x1="-9.15" y1="38.38" x2="23.58" y2="-14.14" xlink:href="#linear-gradient"/></defs><title>Asset 1</title><g id="Layer_2" data-name="Layer 2"><g id="Name"><path class="cls-1" d="M18.64,0A3.76,3.76,0,1,0,22.4,3.78,3.76,3.76,0,0,0,18.64,0Z"/><path class="cls-2" d="M21.14,8.17h-5a3.75,3.75,0,0,0-3.75,3.75v5.64a2.5,2.5,0,0,0,2.5,2.5v10H18V20.69h1.25v9.39H22.4v-10a2.51,2.51,0,0,0,2.5-2.5V11.92A3.75,3.75,0,0,0,21.14,8.17Z"/><rect class="cls-3" width="10.81" height="30.05" rx="3"/><rect class="cls-4" x="3.84" y="4.46" width="5.47" height="1.15"/><rect class="cls-4" x="6.34" y="9.44" width="2.97" height="1.15"/><rect class="cls-4" x="3.84" y="14.42" width="5.47" height="1.15"/><rect class="cls-4" x="6.34" y="19.4" width="2.97" height="1.15"/><rect class="cls-4" x="3.84" y="24.38" width="5.47" height="1.15"/></g></g></svg>