<svg xmlns="http://www.w3.org/2000/svg" xmlns:xlink="http://www.w3.org/1999/xlink" viewBox="0 0 45.26 53.28"><defs><style>.cls-1{fill:none;}.cls-2{fill:url(#linear-gradient);}.cls-3{fill:url(#linear-gradient-2);}.cls-4{fill:url(#linear-gradient-3);}.cls-5{fill:url(#linear-gradient-4);}</style><linearGradient id="linear-gradient" x1="10" y1="27.94" x2="40.7" y2="24.94" gradientUnits="userSpaceOnUse"><stop offset="0.15" stop-color="#36c"/><stop offset="0.25" stop-color="#3383db"/><stop offset="0.4" stop-color="#33abee"/><stop offset="0.53" stop-color="#33c3fb"/><stop offset="0.6" stop-color="#3cf"/></linearGradient><linearGradient id="linear-gradient-2" x1="35.88" y1="25.82" x2="-16.49" y2="3.64" xlink:href="#linear-gradient"/><linearGradient id="linear-gradient-3" x1="19.19" y1="33.5" x2="49.13" y2="9.32" xlink:href="#linear-gradient"/><linearGradient id="linear-gradient-4" x1="14.72" y1="58.79" x2="32.25" y2="44.63" xlink:href="#linear-gradient"/></defs><title>Asset 1</title><g id="Layer_2" data-name="Layer 2"><g id="Layer_1-2" data-name="Layer 1"><polygon class="cls-1" points="22 22.09 22 22.09 22 22.09 22 22.09"/><path class="cls-2" d="M22.63,0h0a1.92,1.92,0,0,1,1.92,1.92V53.23a0,0,0,0,1,0,0H20.71a0,0,0,0,1,0,0V1.92A1.92,1.92,0,0,1,22.63,0Z"/><polygon class="cls-3" points="4.53 23.39 20.71 23.39 20.71 8.55 4.53 8.55 0 16.14 4.53 23.39"/><polygon class="cls-4" points="40.73 30.05 24.55 30.05 24.55 15.22 40.73 15.22 45.26 22.8 40.73 30.05"/><rect class="cls-5" x="15.03" y="51.59" width="15.12" height="1.69"/></g></g></svg>