<svg xmlns="http://www.w3.org/2000/svg" xmlns:xlink="http://www.w3.org/1999/xlink" viewBox="0 0 172.33 139"><defs><style>.cls-1{fill:url(#New_Gradient_Swatch_5);}.cls-2{fill:#e6e6e6;}.cls-3{fill:url(#New_Gradient_Swatch_5-2);}.cls-4{fill:url(#New_Gradient_Swatch_5-3);}</style><linearGradient id="New_Gradient_Swatch_5" x1="44.27" y1="150.51" x2="115.96" y2="-88.45" gradientUnits="userSpaceOnUse"><stop offset="0.15" stop-color="#36c"/><stop offset="0.25" stop-color="#3383db"/><stop offset="0.4" stop-color="#33abee"/><stop offset="0.53" stop-color="#33c3fb"/><stop offset="0.6" stop-color="#3cf"/></linearGradient><linearGradient id="New_Gradient_Swatch_5-2" x1="26.88" y1="177.27" x2="101.48" y2="-19.73" xlink:href="#New_Gradient_Swatch_5"/><linearGradient id="New_Gradient_Swatch_5-3" x1="138.87" y1="155.55" x2="144.12" y2="53.56" xlink:href="#New_Gradient_Swatch_5"/></defs><title>Asset 2</title><g id="Layer_2" data-name="Layer 2"><g id="Layer_1-2" data-name="Layer 1"><polygon class="cls-1" points="130.07 28.65 130.07 33.63 120.86 33.63 120.86 139 16.91 139 16.91 33.63 7.69 33.63 7.69 28.65 68.89 0 130.07 28.65"/><rect class="cls-2" x="89.03" y="40.78" width="15.09" height="15.09"/><polygon class="cls-3" points="109.6 89.88 109.6 94.34 101.35 94.34 101.35 139 8.25 139 8.25 94.34 0 94.34 0 89.88 54.8 64.23 109.6 89.88"/><rect class="cls-2" x="47.18" y="111.65" width="15.23" height="27.35"/><path class="cls-4" d="M172.33,108a31,31,0,0,1-29.27,31V122.48c.52,0,1.13.07,1.8.07a20.47,20.47,0,0,0,13-4.31c5.6-4.53,8.43-12.26,8.43-23h-3.5c0,9.58-2.39,16.39-7.11,20.22-4.47,3.65-10,3.69-12.58,3.46V80.2c3.4-.82,11-4,11-15.38h-3.49c0,8.27-4.79,10.93-7.53,11.78V53.81h-3.5V96.35c-4.11-.29-7.24-1.67-9.32-4.16-4.23-5-2.88-13.07-2.86-13.14l-3.44-.61c-.07.38-1.67,9.68,3.61,16,2.75,3.29,6.78,5.1,12,5.44V139a31,31,0,0,1-29.28-31c0-17.13,31-83.51,31-83.51S172.33,90.9,172.33,108Z"/></g></g></svg>