<svg xmlns="http://www.w3.org/2000/svg" xmlns:xlink="http://www.w3.org/1999/xlink" viewBox="0 0 158.14 138.65"><defs><style>.cls-1{fill:url(#New_Gradient_Swatch_5);}.cls-2{fill:url(#New_Gradient_Swatch_5-2);}.cls-3{fill:#e6e6e6;}.cls-4{fill:url(#New_Gradient_Swatch_5-3);}.cls-5{fill:url(#New_Gradient_Swatch_5-4);}</style><linearGradient id="New_Gradient_Swatch_5" x1="61.71" y1="127.86" x2="104.76" y2="-72.21" gradientUnits="userSpaceOnUse"><stop offset="0.15" stop-color="#36c"/><stop offset="0.25" stop-color="#3383db"/><stop offset="0.4" stop-color="#33abee"/><stop offset="0.53" stop-color="#33c3fb"/><stop offset="0.6" stop-color="#3cf"/></linearGradient><linearGradient id="New_Gradient_Swatch_5-2" x1="9.08" y1="146.56" x2="210.67" y2="1.07" xlink:href="#New_Gradient_Swatch_5"/><linearGradient id="New_Gradient_Swatch_5-3" x1="24.47" y1="166.8" x2="95.4" y2="-20.5" xlink:href="#New_Gradient_Swatch_5"/><linearGradient id="New_Gradient_Swatch_5-4" x1="78.1" y1="170.36" x2="80.43" y2="81.19" xlink:href="#New_Gradient_Swatch_5"/></defs><title>Asset 1</title><g id="Layer_2" data-name="Layer 2"><g id="Layer_1-2" data-name="Layer 1"><polygon class="cls-1" points="115.07 41.43 115.07 45.31 108.82 45.31 108.82 133.47 38.24 133.47 38.24 45.31 31.99 45.31 31.99 41.43 73.53 19.17 115.07 41.43"/><rect class="cls-2" x="95.87" width="47.63" height="133.47"/><rect class="cls-3" x="123.3" y="25.64" width="8.97" height="10.27"/><rect class="cls-3" x="123.3" y="51.28" width="8.97" height="10.27"/><rect class="cls-3" x="123.3" y="76.92" width="8.97" height="10.27"/><polygon class="cls-4" points="91.64 81.25 91.64 85.12 85.39 85.12 85.39 133.47 14.82 133.47 14.82 85.12 8.56 85.12 8.56 81.25 50.1 58.98 91.64 81.25"/><rect class="cls-3" x="44.33" y="109.73" width="11.55" height="23.73"/><rect class="cls-5" y="128.11" width="158.14" height="10.54"/></g></g></svg>