<svg xmlns="http://www.w3.org/2000/svg" xmlns:xlink="http://www.w3.org/1999/xlink" viewBox="0 0 71.06 139.38"><defs><style>.cls-1{fill:url(#New_Gradient_Swatch_5);}.cls-2{fill:url(#New_Gradient_Swatch_5-2);}</style><linearGradient id="New_Gradient_Swatch_5" x1="10.73" y1="35.87" x2="57.9" y2="-11.67" gradientUnits="userSpaceOnUse"><stop offset="0.15" stop-color="#36c"/><stop offset="0.25" stop-color="#3383db"/><stop offset="0.4" stop-color="#33abee"/><stop offset="0.53" stop-color="#33c3fb"/><stop offset="0.6" stop-color="#3cf"/></linearGradient><linearGradient id="New_Gradient_Swatch_5-2" x1="-35.72" y1="111.2" x2="147.73" y2="29.38" xlink:href="#New_Gradient_Swatch_5"/></defs><title>Asset 3</title><g id="Layer_2" data-name="Layer 2"><g id="Layer_1-2" data-name="Layer 1"><path class="cls-1" d="M29,0A17.42,17.42,0,1,0,46.45,17.42,17.45,17.45,0,0,0,29,0Z"/><path class="cls-2" d="M63.11,3.87C55.89,3,52.59,9.06,51.6,14.66L48.28,28.52A11.68,11.68,0,0,1,36.77,38.2H17.42a14.58,14.58,0,0,0-2.56.21A17.48,17.48,0,0,0,0,55.62V81.31A11.65,11.65,0,0,0,11.61,92.93v46.45H26.13V95.6h5.8v43.78H46.45V58.54c11.71-7.8,16.37-8.48,17.91-17.22l6.36-24.89C71.71,10.83,70.92,4.81,63.11,3.87Z"/></g></g></svg>