<svg xmlns="http://www.w3.org/2000/svg" xmlns:xlink="http://www.w3.org/1999/xlink" viewBox="0 0 33.12 33.02"><defs><style>.cls-1{fill:url(#New_Gradient_Swatch_5);}.cls-2{fill:#ececec;}.cls-3{fill:url(#New_Gradient_Swatch_5-2);}</style><linearGradient id="New_Gradient_Swatch_5" x1="-12.39" y1="16.51" x2="31.11" y2="16.51" gradientUnits="userSpaceOnUse"><stop offset="0.15" stop-color="#36c"/><stop offset="0.25" stop-color="#3383db"/><stop offset="0.4" stop-color="#33abee"/><stop offset="0.53" stop-color="#33c3fb"/><stop offset="0.6" stop-color="#3cf"/></linearGradient><linearGradient id="New_Gradient_Swatch_5-2" x1="15.04" y1="22.94" x2="45.24" y2="17.3" xlink:href="#New_Gradient_Swatch_5"/></defs><title>Asset 23</title><g id="Layer_2" data-name="Layer 2"><g id="Layer_1-2" data-name="Layer 1"><path class="cls-1" d="M0,0H22.7V27.8a5.94,5.94,0,0,0,1.73,3.71A4.92,4.92,0,0,0,28,33H4.87A4.87,4.87,0,0,1,0,28.14Z"/><rect class="cls-2" x="3.75" y="5.63" width="16.57" height="1.38"/><rect class="cls-2" x="3.75" y="9.23" width="16.57" height="1.38"/><rect class="cls-2" x="3.75" y="12.83" width="16.57" height="1.38"/><rect class="cls-2" x="3.75" y="16.43" width="16.57" height="1.38"/><rect class="cls-2" x="3.75" y="20.02" width="8.29" height="1.38"/><path class="cls-3" d="M33.12,27.8a5.21,5.21,0,0,1-10.42,0V8.94H33.07Z"/></g></g></svg>