<svg xmlns="http://www.w3.org/2000/svg" xmlns:xlink="http://www.w3.org/1999/xlink" viewBox="0 0 55.14 34.17"><defs><style>.cls-1{fill:url(#New_Gradient_Swatch_5);}.cls-2{fill:url(#New_Gradient_Swatch_5-2);}.cls-3{fill:url(#New_Gradient_Swatch_5-3);}.cls-4{fill:url(#New_Gradient_Swatch_5-4);}.cls-5{fill:url(#New_Gradient_Swatch_5-5);}.cls-6{fill:url(#New_Gradient_Swatch_5-6);}.cls-7{fill:url(#New_Gradient_Swatch_5-7);}.cls-8{fill:url(#New_Gradient_Swatch_5-8);}</style><linearGradient id="New_Gradient_Swatch_5" x1="8.1" y1="22.05" x2="31.85" y2="-11.63" gradientUnits="userSpaceOnUse"><stop offset="0.15" stop-color="#36c"/><stop offset="0.25" stop-color="#3383db"/><stop offset="0.4" stop-color="#33abee"/><stop offset="0.53" stop-color="#33c3fb"/><stop offset="0.6" stop-color="#3cf"/></linearGradient><linearGradient id="New_Gradient_Swatch_5-2" x1="11.46" y1="43.09" x2="33.01" y2="-6.29" xlink:href="#New_Gradient_Swatch_5"/><linearGradient id="New_Gradient_Swatch_5-3" x1="-0.87" y1="17.44" x2="15.13" y2="-8.93" xlink:href="#New_Gradient_Swatch_5"/><linearGradient id="New_Gradient_Swatch_5-4" x1="-4.59" y1="43.21" x2="22.19" y2="-8.57" xlink:href="#New_Gradient_Swatch_5"/><linearGradient id="New_Gradient_Swatch_5-5" x1="37.76" y1="22.01" x2="56.28" y2="-11.57" xlink:href="#New_Gradient_Swatch_5"/><linearGradient id="New_Gradient_Swatch_5-6" x1="38.75" y1="45.8" x2="60.09" y2="-10.69" xlink:href="#New_Gradient_Swatch_5"/><linearGradient id="New_Gradient_Swatch_5-7" x1="21.48" y1="25.63" x2="45.44" y2="-15.17" xlink:href="#New_Gradient_Swatch_5"/><linearGradient id="New_Gradient_Swatch_5-8" x1="21.34" y1="43.7" x2="46.97" y2="-2.75" xlink:href="#New_Gradient_Swatch_5"/></defs><title>Asset 2</title><g id="Layer_2" data-name="Layer 2"><g id="Name"><path class="cls-1" d="M20.64,0a4.27,4.27,0,1,0,4.27,4.27A4.27,4.27,0,0,0,20.64,0Z"/><path class="cls-2" d="M22.89,9.26H18.44a3.06,3.06,0,0,0-3.06,3.06v6.81l-2.19,8h3.75l1,7.07H20.5V27.1h.43v7.07h2.56l1-7.07h3.75l-2.29-8V12.32A3.06,3.06,0,0,0,22.89,9.26Z"/><path class="cls-3" d="M7.12,0a4.27,4.27,0,1,0,4.27,4.27A4.27,4.27,0,0,0,7.12,0Z"/><path class="cls-4" d="M10,9.26H4.27A4.27,4.27,0,0,0,0,13.53v6.41a2.84,2.84,0,0,0,2.85,2.84V34.17H6.41V23.49H7.83V34.17h3.56V22.78a2.85,2.85,0,0,0,2.85-2.84V13.53A4.27,4.27,0,0,0,10,9.26Z"/><path class="cls-5" d="M47.54,0a4.27,4.27,0,1,0,4.28,4.27A4.28,4.28,0,0,0,47.54,0Z"/><path class="cls-6" d="M49.79,9.26H45.34a3.06,3.06,0,0,0-3.06,3.06v6.81l-2.19,8h3.76l1,7.07h2.56V27.1h.42v7.07h2.56l1-7.07h3.75l-2.29-8V12.32A3.06,3.06,0,0,0,49.79,9.26Z"/><path class="cls-7" d="M34,0A4.27,4.27,0,1,0,38.3,4.27,4.28,4.28,0,0,0,34,0Z"/><path class="cls-8" d="M36.87,9.26H31.18a4.28,4.28,0,0,0-4.28,4.27v6.41a2.85,2.85,0,0,0,2.85,2.84V34.17h3.56V23.49h1.43V34.17H38.3V22.78a2.84,2.84,0,0,0,2.84-2.84V13.53A4.27,4.27,0,0,0,36.87,9.26Z"/></g></g></svg>