<svg xmlns="http://www.w3.org/2000/svg" xmlns:xlink="http://www.w3.org/1999/xlink" viewBox="0 0 35.23 28.98"><defs><style>.cls-1{fill:url(#New_Gradient_Swatch_5);}.cls-2{fill:url(#New_Gradient_Swatch_5-2);}.cls-3{fill:url(#New_Gradient_Swatch_5-3);}.cls-4{fill:url(#New_Gradient_Swatch_5-4);}.cls-5{fill:url(#New_Gradient_Swatch_5-5);}.cls-6{fill:url(#New_Gradient_Swatch_5-6);}</style><linearGradient id="New_Gradient_Swatch_5" x1="11.98" y1="18.43" x2="28.65" y2="-12.2" gradientUnits="userSpaceOnUse"><stop offset="0.15" stop-color="#36c"/><stop offset="0.25" stop-color="#3383db"/><stop offset="0.4" stop-color="#33abee"/><stop offset="0.53" stop-color="#33c3fb"/><stop offset="0.6" stop-color="#3cf"/></linearGradient><linearGradient id="New_Gradient_Swatch_5-2" x1="15.8" y1="30.19" x2="27.75" y2="-5.73" xlink:href="#New_Gradient_Swatch_5"/><linearGradient id="New_Gradient_Swatch_5-3" x1="-0.51" y1="23.01" x2="14.66" y2="-0.18" xlink:href="#New_Gradient_Swatch_5"/><linearGradient id="New_Gradient_Swatch_5-4" x1="0.8" y1="37.52" x2="18.12" y2="4.18" xlink:href="#New_Gradient_Swatch_5"/><linearGradient id="New_Gradient_Swatch_5-5" x1="42.47" y1="26.03" x2="14.12" y2="2.89" xlink:href="#New_Gradient_Swatch_5"/><linearGradient id="New_Gradient_Swatch_5-6" x1="35.54" y1="37.05" x2="15.14" y2="8" xlink:href="#New_Gradient_Swatch_5"/></defs><title>Asset 3</title><g id="Layer_2" data-name="Layer 2"><g id="Name"><path class="cls-1" d="M19.48,0a4.65,4.65,0,1,0,4.65,4.65A4.65,4.65,0,0,0,19.48,0Z"/><path class="cls-2" d="M22.85,10.32h-6.2A4.65,4.65,0,0,0,12,15v7A3.09,3.09,0,0,0,15.11,25V29h9.28V25a3.1,3.1,0,0,0,3.1-3.09V15A4.65,4.65,0,0,0,22.85,10.32Z"/><path class="cls-3" d="M7.74,5.75a4.65,4.65,0,1,0,4.64,4.65A4.65,4.65,0,0,0,7.74,5.75Z"/><path class="cls-4" d="M10.84,15.81H4.64A4.65,4.65,0,0,0,0,20.46V29H15.48V20.46A4.65,4.65,0,0,0,10.84,15.81Z"/><path class="cls-5" d="M27.49,9.16a4.65,4.65,0,1,0,4.64,4.65A4.65,4.65,0,0,0,27.49,9.16Z"/><path class="cls-6" d="M30.59,19h-6.2a4.64,4.64,0,0,0-4.64,4.64V29H35.23V23.66A4.64,4.64,0,0,0,30.59,19Z"/></g></g></svg>