<svg xmlns="http://www.w3.org/2000/svg" viewBox="0 0 33.11 33.01"><defs><style>.cls-1{fill:#fff;}</style></defs><title>Asset 24</title><g id="Layer_2" data-name="Layer 2"><g id="Layer_1-2" data-name="Layer 1"><path class="cls-1" d="M33.11,27a5.25,5.25,0,0,1-.29,1.74,4.78,4.78,0,0,1-5.55,2.79A4.17,4.17,0,0,1,25,30.26c-1.29-1.46-1.13-3.48-1.13-5.29v-16h9.22Z"/><path class="cls-1" d="M27.39,33h.21a7.41,7.41,0,0,1-1.7-.49,4.72,4.72,0,0,1-1.65-1.18,5.77,5.77,0,0,1-1.56-3.86V0H0V28.13A4.87,4.87,0,0,0,4.87,33ZM12,21.4H3.74V20H12Zm8.29-3.61H3.74V16.42H20.32Zm0-3.59H3.74V12.82H20.32Zm0-3.61H3.74V9.23H20.32Zm0-3.59H3.74V5.62H20.32Z"/></g></g></svg>