<svg xmlns="http://www.w3.org/2000/svg" xmlns:xlink="http://www.w3.org/1999/xlink" viewBox="0 0 33.04 33.02"><defs><style>.cls-1{fill:url(#New_Gradient_Swatch_5);}.cls-2{fill:none;}.cls-3{fill:url(#New_Gradient_Swatch_5-2);}.cls-4{fill:url(#New_Gradient_Swatch_5-3);}.cls-5{fill:url(#New_Gradient_Swatch_5-4);}.cls-6{fill:url(#New_Gradient_Swatch_5-5);}</style><linearGradient id="New_Gradient_Swatch_5" x1="24.73" y1="36.05" x2="10" y2="-2.54" gradientUnits="userSpaceOnUse"><stop offset="0.15" stop-color="#36c"/><stop offset="0.25" stop-color="#3383db"/><stop offset="0.4" stop-color="#33abee"/><stop offset="0.53" stop-color="#33c3fb"/><stop offset="0.6" stop-color="#3cf"/></linearGradient><linearGradient id="New_Gradient_Swatch_5-2" x1="11.29" y1="31.76" x2="-5.82" y2="8.55" xlink:href="#New_Gradient_Swatch_5"/><linearGradient id="New_Gradient_Swatch_5-3" x1="6.72" y1="13.98" x2="18.26" y2="-8.17" xlink:href="#New_Gradient_Swatch_5"/><linearGradient id="New_Gradient_Swatch_5-4" x1="5.25" y1="18.27" x2="3.12" y2="1.43" xlink:href="#New_Gradient_Swatch_5"/><linearGradient id="New_Gradient_Swatch_5-5" x1="73.5" y1="36.81" x2="-43.46" y2="-4.88" xlink:href="#New_Gradient_Swatch_5"/></defs><title>Asset 9</title><g id="Layer_2" data-name="Layer 2"><g id="Name"><path class="cls-1" d="M13.86,22.27a1.37,1.37,0,0,1-.95-.39L9.05,18a1.17,1.17,0,0,1,0-1.66,1.16,1.16,0,0,1,1.65,0l3.16,3.16,8.48-8.45A1.17,1.17,0,0,1,24,12.72l-9.18,9.16A1.37,1.37,0,0,1,13.86,22.27Z"/><polygon class="cls-2" points="16.52 16.5 16.52 16.5 16.52 16.5 16.52 16.5"/><polygon class="cls-2" points="16.52 16.5 16.52 16.5 16.52 16.5 16.52 16.5"/><polygon class="cls-2" points="16.52 16.5 16.52 16.5 16.52 16.5 16.52 16.5"/><polygon class="cls-2" points="16.52 16.5 16.52 16.5 16.52 16.5 16.52 16.5"/><path class="cls-3" d="M4.74,21.51,1.31,23A16.44,16.44,0,0,1,0,16.81l3.73-.07A12.84,12.84,0,0,0,4.74,21.51Z"/><path class="cls-4" d="M15.78,3.73a12.51,12.51,0,0,0-4.72,1.2L9.47,1.55A16.64,16.64,0,0,1,15.57,0Z"/><path class="cls-5" d="M7.13,7.81a12.77,12.77,0,0,0-2.57,4.13L1.08,10.61A16.49,16.49,0,0,1,4.4,5.27Z"/><path class="cls-6" d="M33,16.5a16.42,16.42,0,0,1-4.41,11.22A16.48,16.48,0,0,1,17.46,33c-.31,0-.63,0-.94,0A16.55,16.55,0,0,1,4.83,28.18V25.55H7.47a12.84,12.84,0,0,0,5,3.07,12.63,12.63,0,0,0,4.1.67l.73,0A12.69,12.69,0,0,0,22,28.07a12.81,12.81,0,0,0,6.5-7,12.72,12.72,0,0,0,.84-4.55c0-.09,0-.17,0-.25a12.59,12.59,0,0,0-1-4.76,12.79,12.79,0,0,0-7.68-7.11L21.8.84a16.58,16.58,0,0,1,6.4,4A16.87,16.87,0,0,1,31.72,10,16.44,16.44,0,0,1,33,16.18C33,16.29,33,16.39,33,16.5Z"/></g></g></svg>