<svg xmlns="http://www.w3.org/2000/svg" viewBox="0 0 22.94 33.09"><defs><style>.cls-1{fill:#fff;}</style></defs><title>Asset 20</title><g id="Layer_2" data-name="Layer 2"><g id="Layer_1-2" data-name="Layer 1"><path class="cls-1" d="M11.46,0A11.46,11.46,0,0,0,0,11.46C0,22.64,11.46,33.09,11.46,33.09S22.94,22.94,22.94,11.46A11.47,11.47,0,0,0,11.46,0Zm0,19.37a7.82,7.82,0,1,1,7.82-7.81A7.81,7.81,0,0,1,11.46,19.37ZM9.65,13.51,7.57,11.45l-1,1,3.11,3.09,6.44-7.34-1.05-.91Z"/><polygon class="cls-1" points="16.16 8.18 9.72 15.52 6.61 12.43 7.57 11.45 9.65 13.52 15.11 7.27 16.16 8.18"/><polygon class="cls-1" points="16.16 8.18 9.72 15.52 6.61 12.43 7.57 11.45 9.65 13.52 15.11 7.27 16.16 8.18"/></g></g></svg>