<svg xmlns="http://www.w3.org/2000/svg" viewBox="0 0 33.12 33.02"><defs><style>.cls-1{fill:#fff;}</style></defs><title>Asset 18</title><g id="Layer_2" data-name="Layer 2"><g id="Layer_1-2" data-name="Layer 1"><polygon class="cls-1" points="33.12 19.26 11 19.26 11 17.89 31.74 17.89 31.74 1.38 6.87 1.38 6.87 0 33.12 0 33.12 19.26"/><rect class="cls-1" x="19.99" y="5.12" width="9.26" height="1.38"/><rect class="cls-1" x="19.99" y="7.68" width="9.26" height="1.38"/><rect class="cls-1" x="19.99" y="10.24" width="9.26" height="1.38"/><rect class="cls-1" x="19.99" y="12.8" width="4.8" height="1.38"/><path class="cls-1" d="M16.16,9.05h-12A4.12,4.12,0,0,0,0,13.17v6.09A2.76,2.76,0,0,0,2.75,22V33H6.19V22.7H7.56V33H11V13.87h5.16a2.41,2.41,0,1,0,0-4.82ZM8.33,17.32,6.6,16.2,4.87,17.32h0l.48-2L3.76,14.09l2.07-.21.77-1.8.76,1.8,2.06.21L7.86,15.36Z"/><path class="cls-1" d="M9.94,1.37A4.13,4.13,0,1,0,11,4.13,4.15,4.15,0,0,0,9.94,1.37Z"/></g></g></svg>