<svg xmlns="http://www.w3.org/2000/svg" xmlns:xlink="http://www.w3.org/1999/xlink" viewBox="0 0 23.31 27.1"><defs><style>.cls-1{fill:url(#New_Gradient_Swatch_5);}.cls-2{fill:url(#linear-gradient);}.cls-3{fill:#ececec;}.cls-4{fill:url(#linear-gradient-2);}</style><linearGradient id="New_Gradient_Swatch_5" x1="-0.35" y1="22.64" x2="30.2" y2="22.64" gradientUnits="userSpaceOnUse"><stop offset="0.15" stop-color="#36c"/><stop offset="0.25" stop-color="#3383db"/><stop offset="0.4" stop-color="#33abee"/><stop offset="0.53" stop-color="#33c3fb"/><stop offset="0.6" stop-color="#3cf"/></linearGradient><linearGradient id="linear-gradient" x1="31.9" y1="52.29" x2="0.92" y2="-9.88" gradientUnits="userSpaceOnUse"><stop offset="0" stop-color="#ff3"/><stop offset="0.05" stop-color="#fe2"/><stop offset="0.12" stop-color="#ffdb0f"/><stop offset="0.2" stop-color="#ffd004"/><stop offset="0.28" stop-color="#fc0"/><stop offset="0.67" stop-color="#f93"/><stop offset="0.89" stop-color="#f63"/><stop offset="1" stop-color="#c33"/></linearGradient><linearGradient id="linear-gradient-2" x1="39.74" y1="60.14" x2="-14.26" y2="-33.66" gradientUnits="userSpaceOnUse"><stop offset="0" stop-color="#fff"/><stop offset="0.17" stop-color="#f6f6f6"/><stop offset="0.44" stop-color="#ddd"/><stop offset="0.79" stop-color="#b4b4b4"/><stop offset="1" stop-color="#999"/></linearGradient></defs><title>Asset 1</title><g id="Layer_2" data-name="Layer 2"><g id="Name"><polygon class="cls-1" points="17.91 27.1 11.65 25.1 5.4 27.1 5.4 18.19 17.91 18.19 17.91 27.1"/><path class="cls-2" d="M11.66,23.31A11.66,11.66,0,1,1,23.31,11.66,11.67,11.67,0,0,1,11.66,23.31Z"/><path class="cls-3" d="M20.34,9.31,14,8.67,11.65,3.18,9.32,8.67,3,9.31,7.8,13.22l-1.46,6h0l5.3-3.45L17,19.22l-1.46-6,4.8-3.89Z"/><path class="cls-4" d="M20.31,9.33a17.35,17.35,0,0,0-14,9.88l5.3-3.45L17,19.22l-1.46-6Z"/></g></g></svg>