<svg xmlns="http://www.w3.org/2000/svg" viewBox="0 0 61.13 61.13"><defs><style>.cls-1{fill:none;}</style></defs><title>Asset 1</title><g id="Layer_2" data-name="Layer 2"><g id="Layer_1-2" data-name="Layer 1"><circle class="cls-1" cx="30.56" cy="30.56" r="29.69"/><path d="M30.56,61.13A30.57,30.57,0,1,1,61.13,30.56,30.6,30.6,0,0,1,30.56,61.13Zm0-59.38A28.82,28.82,0,1,0,59.38,30.56,28.84,28.84,0,0,0,30.56,1.75Z"/><path d="M45.41,45.38h-16v-16h16ZM31.19,43.64H43.66V31.16H31.19Z"/><rect x="33.81" y="38.5" width="7.22" height="1.75"/><rect x="33.81" y="34.54" width="7.22" height="1.75"/><path d="M45.41,45.41H15.72V15.72H45.41ZM17.47,43.66H43.66V17.47H17.47Z"/><path d="M45.41,45.41H15.72V15.72H45.41ZM17.47,43.66H43.66V17.47H17.47Z"/><rect x="29.76" y="16.59" width="1.75" height="27.81"/><rect x="16.73" y="29.62" width="27.81" height="1.75"/><rect x="19.8" y="22.76" width="7.22" height="1.75"/><rect x="22.54" y="20.02" width="1.75" height="7.22"/><rect x="34.06" y="22.76" width="7.22" height="1.75"/><rect x="22.54" y="34.11" width="1.75" height="7.22" transform="translate(-19.81 27.59) rotate(-44.98)"/><rect x="19.8" y="36.85" width="7.22" height="1.75" transform="translate(-19.81 27.6) rotate(-45)"/></g></g></svg>