<svg xmlns="http://www.w3.org/2000/svg" viewBox="0 0 61.13 61.13"><defs><style>.cls-1{fill:none;}</style></defs><title>Asset 2</title><g id="Layer_2" data-name="Layer 2"><g id="Layer_1-2" data-name="Layer 1"><circle class="cls-1" cx="30.56" cy="30.56" r="29.69"/><path d="M30.56,61.13A30.57,30.57,0,1,1,61.13,30.56,30.6,30.6,0,0,1,30.56,61.13Zm0-59.38A28.82,28.82,0,1,0,59.38,30.56,28.84,28.84,0,0,0,30.56,1.75Z"/><path d="M30.56,48A17.47,17.47,0,1,1,48,30.56,17.49,17.49,0,0,1,30.56,48Zm0-33.18A15.72,15.72,0,1,0,46.28,30.56,15.73,15.73,0,0,0,30.56,14.85Z"/><path d="M19.38,43.58a.88.88,0,0,1-.88-.82c0-.48,0-1,0-1.45A27.62,27.62,0,0,1,38.06,15a.87.87,0,1,1,.5,1.67A25.86,25.86,0,0,0,20.21,41.31c0,.46,0,.91,0,1.36a.87.87,0,0,1-.83.91Z"/><path d="M44,41.28a.87.87,0,0,1-.8-.53A37.51,37.51,0,0,0,19.4,19.61a.87.87,0,1,1,.5-1.67A39.24,39.24,0,0,1,44.78,40.06a.87.87,0,0,1-.46,1.15A1,1,0,0,1,44,41.28Z"/><path d="M47.06,33.26a.88.88,0,0,1-.88-.84c-.21-6.5-2.92-8.19-5.26-8.93a15.53,15.53,0,0,0-3.74-.67,12.16,12.16,0,0,1-7.08-2.63c-1.87-1.32-4.2-3-3.68-6.11a.9.9,0,0,1,1-.72.87.87,0,0,1,.72,1c-.32,1.91,1,3,3,4.39a10.42,10.42,0,0,0,6.22,2.32,17.59,17.59,0,0,1,4.12.75c4.23,1.34,6.29,4.68,6.48,10.53a.86.86,0,0,1-.84.9Z"/><path d="M33.34,47.8a.89.89,0,0,1-.69-.34A19.84,19.84,0,0,1,28.1,36.24c-.4-3.18-.73-5.7-4.81-9.06a4.86,4.86,0,0,0-3.75-1.36c-1.57.2-3.18,1.42-4.78,3.63a.88.88,0,0,1-1.42-1c1.9-2.61,3.91-4.07,6-4.33a6.54,6.54,0,0,1,5.07,1.74c4.63,3.8,5,6.9,5.45,10.19A18.07,18.07,0,0,0,34,46.38a.88.88,0,0,1-.15,1.23A.85.85,0,0,1,33.34,47.8Z"/></g></g></svg>