<svg xmlns="http://www.w3.org/2000/svg" xmlns:xlink="http://www.w3.org/1999/xlink" viewBox="0 0 33.12 33.02"><defs><style>.cls-1{fill:url(#New_Gradient_Swatch_5);}.cls-2{fill:url(#New_Gradient_Swatch_5-2);}.cls-3{fill:url(#New_Gradient_Swatch_5-3);}.cls-4{fill:url(#New_Gradient_Swatch_5-4);}.cls-5{fill:url(#New_Gradient_Swatch_5-5);}.cls-6{fill:url(#New_Gradient_Swatch_5-6);}.cls-7{fill:url(#New_Gradient_Swatch_5-7);}.cls-8{fill:#ececec;}</style><linearGradient id="New_Gradient_Swatch_5" x1="2.33" y1="9.63" x2="56.09" y2="9.63" gradientUnits="userSpaceOnUse"><stop offset="0.15" stop-color="#36c"/><stop offset="0.25" stop-color="#3383db"/><stop offset="0.4" stop-color="#33abee"/><stop offset="0.53" stop-color="#33c3fb"/><stop offset="0.6" stop-color="#3cf"/></linearGradient><linearGradient id="New_Gradient_Swatch_5-2" x1="-3.96" y1="5.81" x2="83.73" y2="5.81" xlink:href="#New_Gradient_Swatch_5"/><linearGradient id="New_Gradient_Swatch_5-3" x1="-6.72" y1="8.37" x2="80.97" y2="8.37" xlink:href="#New_Gradient_Swatch_5"/><linearGradient id="New_Gradient_Swatch_5-4" x1="-9.48" y1="10.93" x2="78.21" y2="10.93" xlink:href="#New_Gradient_Swatch_5"/><linearGradient id="New_Gradient_Swatch_5-5" x1="-8.06" y1="13.49" x2="68.27" y2="13.49" xlink:href="#New_Gradient_Swatch_5"/><linearGradient id="New_Gradient_Swatch_5-6" x1="-8.17" y1="21.03" x2="41.59" y2="21.03" xlink:href="#New_Gradient_Swatch_5"/><linearGradient id="New_Gradient_Swatch_5-7" x1="-7.95" y1="4.13" x2="35.03" y2="4.13" xlink:href="#New_Gradient_Swatch_5"/></defs><title>Asset 17</title><g id="Layer_2" data-name="Layer 2"><g id="Layer_1-2" data-name="Layer 1"><polygon class="cls-1" points="33.12 19.26 11.01 19.26 11.01 17.89 31.75 17.89 31.75 1.38 6.88 1.38 6.88 0 33.12 0 33.12 19.26"/><rect class="cls-2" x="20" y="5.12" width="9.26" height="1.38"/><rect class="cls-3" x="20" y="7.68" width="9.26" height="1.38"/><rect class="cls-4" x="20" y="10.24" width="9.26" height="1.38"/><rect class="cls-5" x="20" y="12.8" width="4.8" height="1.38"/><path class="cls-6" d="M16.17,9.05h-12A4.13,4.13,0,0,0,0,13.18v6.08A2.75,2.75,0,0,0,2.75,22V33H6.19V22.7H7.57V33H11V13.86h5.16a2.41,2.41,0,0,0,0-4.81Z"/><path class="cls-7" d="M6.88,8.25A4.13,4.13,0,1,1,11,4.13,4.13,4.13,0,0,1,6.88,8.25Z"/><path class="cls-8" d="M9.44,14.08l-2.07-.2-.77-1.8-.76,1.8-2.07.2,1.57,1.28-.47,2h0L6.6,16.19l1.74,1.13-.48-2,1.57-1.27Z"/><path class="cls-8" d="M9.43,14.09a5.68,5.68,0,0,0-4.56,3.23L6.6,16.19l1.74,1.13-.48-2Z"/></g></g></svg>