<svg xmlns="http://www.w3.org/2000/svg" xmlns:xlink="http://www.w3.org/1999/xlink" viewBox="0 0 33.26 33.02"><defs><style>.cls-1{fill:url(#New_Gradient_Swatch_5);}.cls-2{fill:url(#New_Gradient_Swatch_5-2);}.cls-3{fill:url(#linear-gradient);}.cls-4{fill:#ececec;}.cls-5{fill:#3cf;}</style><linearGradient id="New_Gradient_Swatch_5" x1="4.51" y1="56.71" x2="2.95" y2="-15.01" gradientUnits="userSpaceOnUse"><stop offset="0.15" stop-color="#36c"/><stop offset="0.25" stop-color="#3383db"/><stop offset="0.4" stop-color="#33abee"/><stop offset="0.53" stop-color="#33c3fb"/><stop offset="0.6" stop-color="#3cf"/></linearGradient><linearGradient id="New_Gradient_Swatch_5-2" x1="30.12" y1="56.15" x2="28.56" y2="-15.56" xlink:href="#New_Gradient_Swatch_5"/><linearGradient id="linear-gradient" x1="9.42" y1="54.87" x2="28.35" y2="-34.22" gradientUnits="userSpaceOnUse"><stop offset="0.15" stop-color="#36c"/><stop offset="0.25" stop-color="#3383db"/><stop offset="0.4" stop-color="#33abee"/><stop offset="0.53" stop-color="#33c3fb"/><stop offset="0.6" stop-color="#3cf"/><stop offset="0.97" stop-color="#3cf"/></linearGradient></defs><title>Asset 21</title><g id="Layer_2" data-name="Layer 2"><g id="Layer_1-2" data-name="Layer 1"><path class="cls-1" d="M7.58,14.32,0,19.83V33H7.58V14.32Z"/><path class="cls-2" d="M25.68,14.32V33h7.58V19.83l-7.58-5.51Z"/><path class="cls-3" d="M16.63,0,6.2,8.85V33H27.06V8.85L16.63,0Z"/><path class="cls-4" d="M16.63,19.78A5.77,5.77,0,1,1,22.39,14,5.77,5.77,0,0,1,16.63,19.78Z"/><polygon class="cls-5" points="15.06 16.56 14.09 15.59 15.94 13.73 15.94 10.73 17.32 10.73 17.32 14.3 15.06 16.56"/></g></g></svg>