<svg xmlns="http://www.w3.org/2000/svg" viewBox="0 0 61.13 61.13"><defs><style>.cls-1{fill:none;}</style></defs><title>Asset 5</title><g id="Layer_2" data-name="Layer 2"><g id="Layer_1-2" data-name="Layer 1"><circle class="cls-1" cx="30.57" cy="30.56" r="29.69"/><path d="M30.56,61.13A30.57,30.57,0,1,1,61.13,30.56,30.6,30.6,0,0,1,30.56,61.13Zm0-59.38A28.82,28.82,0,1,0,59.38,30.56,28.84,28.84,0,0,0,30.56,1.75Z"/><path d="M14.79,48.08l2.15-6.6A17.46,17.46,0,0,1,30.57,13.1v1.75a15.71,15.71,0,0,0-12,25.88l.31.37-1.2,3.69,3.47-1.62.42.28A15.7,15.7,0,0,0,46.28,30.56H48A17.45,17.45,0,0,1,21,45.17Z"/><path d="M48,30.56H46.28c0-.22,0-.46,0-.68l-.12-1.41A15.8,15.8,0,0,0,31.94,14.9l-.71,0h-.66V13.1h.76l.74.05A17.54,17.54,0,0,1,47.88,28.29L48,29.77C48,30.06,48,30.31,48,30.56Z"/><path d="M31.16,36H27.71V34.24h3.45a1.6,1.6,0,0,0,0-3.2H28.1V29.29h3.06a3.35,3.35,0,0,1,0,6.7Z"/><path d="M30.31,31H28.1V29.29h2.21a1.21,1.21,0,1,0,0-2.42h-2.6V25.13h2.6a3,3,0,1,1,0,5.91Z"/><rect x="27.39" y="25.31" width="1.75" height="10.5"/><path d="M26.36,35.82H24.61V28.23a1.36,1.36,0,1,0-2.71,0v7.59H20.15V28.23a3.11,3.11,0,0,1,6.21,0Z"/><rect x="21.17" y="29.16" width="4.42" height="1.75"/><path d="M37.89,36.27a3.09,3.09,0,0,1-3.08-3.08V28.11a3.09,3.09,0,0,1,6.17,0H39.23a1.34,1.34,0,0,0-2.67,0v5.08a1.34,1.34,0,1,0,2.67,0H41A3.09,3.09,0,0,1,37.89,36.27Z"/></g></g></svg>