<svg xmlns="http://www.w3.org/2000/svg" viewBox="0 0 32.02 33.03"><defs><style>.cls-1{fill:#fff;}</style></defs><title>Asset 29</title><g id="Layer_2" data-name="Layer 2"><g id="Layer_1-2" data-name="Layer 1"><path class="cls-1" d="M22.07,0a4.13,4.13,0,1,0,4.12,4.13A4.15,4.15,0,0,0,22.07,0Z"/><path class="cls-1" d="M30.15.92c-1.72-.2-2.49,1.24-2.74,2.56l-.77,3.28A2.79,2.79,0,0,1,23.9,9.05H19.32a4.2,4.2,0,0,0-.61.06,4.05,4.05,0,0,0-2.51,1.37,4.12,4.12,0,0,0-1,2.7v6.1a2.71,2.71,0,0,0,.94,2,2.74,2.74,0,0,0,1.82.69V33h3.44V22.66h1.37V33h3.44V13.87c2.77-1.84,3.89-2,4.25-4.08l1.5-5.9C32.18,2.57,32,1.15,30.15.92Z"/><path class="cls-1" d="M11,8.26a3.09,3.09,0,1,0,3.1,3.09A3.08,3.08,0,0,0,11,8.26Z"/><path class="cls-1" d="M15.18,15.82A3.12,3.12,0,0,0,13,15H8.91a3.1,3.1,0,0,0-3.09,3.1v4.62a2.06,2.06,0,0,0,2.06,2.06V33h2.57V25.26h1V33h2.57V24.73a2.05,2.05,0,0,0,2.06-2.06V18.05A3.12,3.12,0,0,0,15.18,15.82Z"/><path class="cls-1" d="M10.42.58A1.86,1.86,0,0,0,9.06,0H1.9A1.91,1.91,0,0,0,0,1.91v4.6A1.9,1.9,0,0,0,1.9,8.4H4.79l2.72,2.5V8.4a10.72,10.72,0,0,0,2.64-.33A1.93,1.93,0,0,0,11,6.51V1.91A1.87,1.87,0,0,0,10.42.58ZM3.63,2a.44.44,0,1,1,0,.87.44.44,0,0,1,0-.87ZM5.47,6.17A2.17,2.17,0,0,1,3.31,4h.74A1.43,1.43,0,0,0,6.9,4h.74A2.18,2.18,0,0,1,5.47,6.17ZM7.33,2.85a.44.44,0,1,1,0-.87.44.44,0,0,1,0,.87Z"/></g></g></svg>