<svg xmlns="http://www.w3.org/2000/svg" viewBox="0 0 61.13 61.13"><defs><style>.cls-1{fill:none;}</style></defs><title>Asset 8</title><g id="Layer_2" data-name="Layer 2"><g id="Layer_1-2" data-name="Layer 1"><circle class="cls-1" cx="30.56" cy="30.56" r="29.69"/><path d="M30.56,61.13A30.57,30.57,0,1,1,61.13,30.56,30.6,30.6,0,0,1,30.56,61.13Zm0-59.38A28.82,28.82,0,1,0,59.38,30.56,28.84,28.84,0,0,0,30.56,1.75Z"/><path d="M27.12,31.16a2.29,2.29,0,0,1-.73-.14,1.4,1.4,0,0,1-.71-.5,1.41,1.41,0,0,1,.19-1.63,1.62,1.62,0,0,0,.18-1.1.2.2,0,0,0-.14-.05l-.19,0a6.32,6.32,0,0,1-1,.09,3.61,3.61,0,0,1-.73-.07,2.66,2.66,0,0,1-1.77-1.09A2.09,2.09,0,0,1,22,24.82a.82.82,0,0,1,.79-.56c.71.2.94.68.79,1.11a.44.44,0,0,0,.07.38,1.08,1.08,0,0,0,.69.38,2,2,0,0,0,.42,0,6.13,6.13,0,0,0,.76-.07,4.49,4.49,0,0,1,.59-.05,1.56,1.56,0,0,1,1.25.51,1.75,1.75,0,0,1,.41,1.07c0,.06,0,.12,0,.17s0-.1,0-.15a2.05,2.05,0,0,1,.46-1,2,2,0,0,1,1-.53,8.06,8.06,0,0,0,1.5-.64.94.94,0,0,0,.4-.64.86.86,0,0,1,.81-.61c.45.09.63.23.74.42a.84.84,0,0,1,.07.64A2.54,2.54,0,0,1,31.51,27a9.56,9.56,0,0,1-1.79.77l-.3.27a9.85,9.85,0,0,1-1,2.34,1.59,1.59,0,0,1-.4.51A1.33,1.33,0,0,1,27.12,31.16Z"/><path d="M27.13,30.88a1.83,1.83,0,0,1-.65-.13,1,1,0,0,1-.56-.39,1.13,1.13,0,0,1,.18-1.31l0-.07a1.92,1.92,0,0,0,.18-1.21.72.72,0,0,0-.06-.29s-.12-.06-.59,0a5,5,0,0,1-1.65,0,2.42,2.42,0,0,1-1.59-1,1.84,1.84,0,0,1-.23-1.62.56.56,0,0,1,1.06.37.7.7,0,0,0,.1.62,1.33,1.33,0,0,0,.87.51,3.86,3.86,0,0,0,1.27,0,1.69,1.69,0,0,1,1.6.36,1.59,1.59,0,0,1,.33.92,2.84,2.84,0,0,1-.36,1.95l-.06.08,0,0,.12,0a.35.35,0,0,0,.05-.08,8.84,8.84,0,0,0,.89-2l0-.07a1.73,1.73,0,0,1,.37-.78,1.77,1.77,0,0,1,.84-.46h0a7.24,7.24,0,0,0,1.51-.65,1.22,1.22,0,0,0,.54-.8.57.57,0,0,1,.7-.39.55.55,0,0,1,.38.69,2.25,2.25,0,0,1-1.06,1.47,8.09,8.09,0,0,1-1.74.75h0a.83.83,0,0,0-.34.15.77.77,0,0,0-.12.31l0,.07a9.61,9.61,0,0,1-1,2.21,1.19,1.19,0,0,1-.33.42A1,1,0,0,1,27.13,30.88Z"/><path d="M31.9,25.94a.84.84,0,0,1,0-1.68h5.77a5.06,5.06,0,0,0,.71-.33l.26-.26a1.1,1.1,0,0,0,.19-.6A1.21,1.21,0,0,0,38.09,22a.83.83,0,0,1-.46-1,1.48,1.48,0,0,0,0-.35,1.74,1.74,0,0,0-1.86-1.58H35a.83.83,0,0,1-.78-.56,2.79,2.79,0,0,0-2.68-1.73c-.16,0-.85.09-1.42.18h-.07a.88.88,0,0,1-.59-.17,2.45,2.45,0,0,0-1.54-.52,2.27,2.27,0,0,0-2.19,1.39.86.86,0,0,1-.78.55,2.66,2.66,0,0,0-1.41.43,2.3,2.3,0,0,0-.63.61,1.92,1.92,0,0,0-.34,1A.85.85,0,0,1,22,21l0,.08-.29.45a1.5,1.5,0,0,0-.56,1.14,1.71,1.71,0,0,0,1.67,1.58.84.84,0,0,1-.07,1.68,3.4,3.4,0,0,1-3.28-3.26,3.15,3.15,0,0,1,1.05-2.32,1.44,1.44,0,0,1,.55-.71,2.3,2.3,0,0,1,.5-1.33,3.81,3.81,0,0,1,1-1,4.42,4.42,0,0,1,2-.76,3.6,3.6,0,0,1,3.4-2,4.32,4.32,0,0,1,2.37.72,4.54,4.54,0,0,1,1.25-.21,4.47,4.47,0,0,1,4.1,2.46l.16-.16a3.41,3.41,0,0,1,3.54,3.26,3.22,3.22,0,0,1,1.15,2.38,2.73,2.73,0,0,1-.57,1.65,2.91,2.91,0,0,1-.52.53A5.22,5.22,0,0,1,38,25.9l-.25,0Z"/><path d="M37.75,25.66H31.9a.56.56,0,0,1,0-1.12h5.77a4.52,4.52,0,0,0,.88-.39,1.72,1.72,0,0,0,.27-.27v0a1.29,1.29,0,0,0,.28-.79,1.46,1.46,0,0,0-.9-1.3.56.56,0,0,1-.31-.65,1.59,1.59,0,0,0,.06-.43,2,2,0,0,0-2.14-1.86H35a.56.56,0,0,1-.52-.38,3.08,3.08,0,0,0-2.94-1.91c-.16,0-.87.09-1.47.19a.56.56,0,0,1-.43-.12A2.84,2.84,0,0,0,27.93,16a2.55,2.55,0,0,0-2.45,1.57A.55.55,0,0,1,25,18a3,3,0,0,0-1.56.48l-.08,0a2.69,2.69,0,0,0-.63.63,2.16,2.16,0,0,0-.39,1.12.56.56,0,0,1-.38.5c-.09,0-.2.22-.23.31a.55.55,0,0,1-.17.27,1.74,1.74,0,0,0-.67,1.35,2,2,0,0,0,1.93,1.86.56.56,0,1,1-.1,1.11,3.08,3.08,0,0,1-3-3,2.85,2.85,0,0,1,1-2.11,1.85,1.85,0,0,1,.53-.7,3.43,3.43,0,0,1,.56-1.39,3.8,3.8,0,0,1,.9-.89l.11-.08a4,4,0,0,1,1.79-.63,3.7,3.7,0,0,1,3.35-2,4,4,0,0,1,2.22.67c.4-.06,1.15-.16,1.41-.16a4.2,4.2,0,0,1,3.85,2.3h.41a3.13,3.13,0,0,1,3.26,3,2.62,2.62,0,0,1,0,.28,2.52,2.52,0,0,1,1.16,2.1,2.46,2.46,0,0,1-.51,1.48v0a2.86,2.86,0,0,1-.46.46,5.07,5.07,0,0,1-1.33.6A.47.47,0,0,1,37.75,25.66Z"/><path d="M25,24.59l-.36-.13a.84.84,0,0,1-.38-.52.89.89,0,0,1,.1-.64.87.87,0,0,0,.15-.48c0-.49,0-1.77-2.77-1.77a.84.84,0,0,1,0-1.68c4,0,4.45,2.41,4.45,3.45a2.54,2.54,0,0,1-.4,1.37.85.85,0,0,1-.71.4Z"/><path d="M25.09,24.31a.55.55,0,0,1-.3-.09.56.56,0,0,1-.18-.77,1.16,1.16,0,0,0,.19-.63c0-.51,0-2.05-3.05-2.05a.56.56,0,0,1,0-1.12c3.63,0,4.17,2,4.17,3.17A2.28,2.28,0,0,1,25.56,24,.56.56,0,0,1,25.09,24.31Z"/><path d="M28.11,25.53l-.38-.15a.83.83,0,0,1-.23-1.16.76.76,0,0,0,.11-.38.68.68,0,0,0-.68-.68.84.84,0,0,1,0-1.68,2.36,2.36,0,0,1,2,3.67.83.83,0,0,1-.7.38Z"/><path d="M28.19,25.25a.63.63,0,0,1-.31-.1.57.57,0,0,1-.15-.78,1,1,0,0,0,.16-.53,1,1,0,0,0-1-1,.56.56,0,0,1,0-1.12A2.08,2.08,0,0,1,29,23.84,2.1,2.1,0,0,1,28.66,25,.56.56,0,0,1,28.19,25.25Z"/><path d="M29,22.24l-.32-.1A.85.85,0,0,1,28.34,21c0-.56-.19-.76-.45-.76h0a.88.88,0,0,1-1-.75.86.86,0,0,1,.76-.92h0a2.24,2.24,0,0,1,2.38,2,2.16,2.16,0,0,1-.25,1.25.83.83,0,0,1-.74.45Z"/><path d="M29.08,22a.59.59,0,0,1-.26-.07.56.56,0,0,1-.23-.76.87.87,0,0,0,.09-.45.79.79,0,0,0-.87-.71.58.58,0,0,1-.62-.51.57.57,0,0,1,.5-.61,1.92,1.92,0,0,1,2.1,1.72,1.88,1.88,0,0,1-.21,1.09A.57.57,0,0,1,29.08,22Z"/><path d="M37.27,22.78a2.15,2.15,0,0,1-1.08-.28,2.21,2.21,0,0,1-.88-.91.86.86,0,0,1-.05-.65.83.83,0,0,1,.42-.48l.06,0,.32-.06a.86.86,0,0,1,.75.46l.46.28c.27-.06.38-.14.45-.26a.83.83,0,0,1,.73-.43h.07l.34.1a.86.86,0,0,1,.33,1.15,2.21,2.21,0,0,1-1.32,1A2.47,2.47,0,0,1,37.27,22.78Z"/><path d="M37.26,22.5a1.9,1.9,0,0,1-1.7-1,.56.56,0,1,1,1-.51.79.79,0,0,0,.92.4A.77.77,0,0,0,38,21a.56.56,0,0,1,1,.55,1.9,1.9,0,0,1-1.15.91A1.88,1.88,0,0,1,37.26,22.5Z"/><path d="M35,24.61a.84.84,0,0,1-.82-.68,1.27,1.27,0,0,0-1.25-1,1.3,1.3,0,0,0-.86.33.83.83,0,0,1-.57.22.86.86,0,0,1-.62-.27A.85.85,0,0,1,30.94,22a2.92,2.92,0,0,1,2-.77,3,3,0,0,1,2.89,2.36.85.85,0,0,1-.65,1Z"/><path d="M35,24.33a.57.57,0,0,1-.55-.45,1.55,1.55,0,0,0-1.52-1.24,1.53,1.53,0,0,0-1.05.41.56.56,0,1,1-.75-.83,2.67,2.67,0,0,1,4.42,1.43.55.55,0,0,1-.44.66Z"/><path d="M29,20.8a.84.84,0,0,1-.29-1.63,1.59,1.59,0,0,0,.68-2.48.83.83,0,0,1,.12-1.18.84.84,0,0,1,1.18.12,3.27,3.27,0,0,1-1.4,5.12Z"/><path d="M29,20.52a.56.56,0,0,1-.19-1.08A1.89,1.89,0,0,0,30,17.69a1.79,1.79,0,0,0-.42-1.17.57.57,0,0,1,.08-.79.56.56,0,0,1,.79.08,3,3,0,0,1-1.27,4.68A.69.69,0,0,1,29,20.52Z"/><path d="M33.54,20.56a2.3,2.3,0,0,1-2.3-2.3.85.85,0,0,1,1.69,0,.61.61,0,0,0,.61.62.62.62,0,0,0,.62-.62.84.84,0,1,1,1.68,0A2.3,2.3,0,0,1,33.54,20.56Z"/><path d="M33.54,20.28a2,2,0,0,1-2-2,.56.56,0,0,1,1.12,0,.9.9,0,1,0,1.79,0,.56.56,0,0,1,1.12,0A2,2,0,0,1,33.54,20.28Z"/><path d="M23.29,47.78a.86.86,0,0,1-.6-.27.88.88,0,0,1-.23-.6c0-.22,0-4.46,0-4.46l-1.82-2.2c-2.53-3.47-6.52-10.41-4.76-17.93a13.2,13.2,0,0,1,8.32-8.92,20.4,20.4,0,0,1,6.26-.94,19.2,19.2,0,0,1,8.84,2C42,15.87,44.82,18.71,44.18,22a3.13,3.13,0,0,1-.56,1.25c.67,1.05,1.33,2.86.85,3.93l-.17.37a2.83,2.83,0,0,0-.41,2.12,28.41,28.41,0,0,0,1.49,3.52,1.73,1.73,0,0,1,.26,1.37,1.83,1.83,0,0,1-1.22,1.19,9.14,9.14,0,0,0-1,.42,1.3,1.3,0,0,1,.18,1.35,1.58,1.58,0,0,1-.52.61,1.51,1.51,0,0,1,.14.35,1.23,1.23,0,0,1-.3,1.12l-.29.32c-.36.37-.4.42-.34.77.14.86.24,1.65.26,1.82a2.74,2.74,0,0,1-.34,2.06,2.14,2.14,0,0,1-1.6.91,4.86,4.86,0,0,1-.56,0c-.41,0-.88,0-1.37-.08s-1-.09-1.51-.09c-.82,0-1.14.14-1.27.26s-.11.11-.1.41l0,.91a.85.85,0,0,1-.78.9h0a.86.86,0,0,1-.9-.77c0-.07,0-.26,0-.67a2.41,2.41,0,0,1,.62-2,3.38,3.38,0,0,1,2.44-.72c.54,0,1.1,0,1.63.1s.88.07,1.24.07a1.94,1.94,0,0,0,.35,0c.31,0,.39-.15.42-.19a1.31,1.31,0,0,0,.08-.78c-.07-.46-.16-1.15-.28-1.87a2.3,2.3,0,0,1,.76-2.19l-.26-.12a.84.84,0,0,1-.08-1.51,2.36,2.36,0,0,1,.45-.16,2.86,2.86,0,0,0,.61-.23,1.23,1.23,0,0,1-.19-1.31c.27-.64.9-.88,1.69-1.19L44,34a19.91,19.91,0,0,1-1.77-4,4.29,4.29,0,0,1,.51-3.24l.41-.24-.26-.11a6.17,6.17,0,0,0-1-3.12.85.85,0,0,1,.14-1,1.48,1.48,0,0,0,.41-.75c.47-2.35-1.88-4.54-4-5.71a17.37,17.37,0,0,0-8-1.77,18.51,18.51,0,0,0-5.76.86,11.36,11.36,0,0,0-7.2,7.7C15.9,29.57,19.63,36,22,39.26l.43.53c1.41,1.71,1.63,2.05,1.7,2.39v3.53c0,.64,0,1,0,1.25a.83.83,0,0,1-.84.82Z"/><path d="M23.3,47.5h0a.57.57,0,0,1-.55-.58c0-.22,0-.7,0-1.09,0-.24,0-.46,0-.6V42.45c-.2-.32-1-1.32-1.39-1.76l-.48-.6c-2.5-3.44-6.44-10.3-4.72-17.71a12.93,12.93,0,0,1,8.13-8.72c4.7-1.53,11-1.11,14.89,1,2.58,1.39,5.36,4.12,4.74,7.21A2.73,2.73,0,0,1,43.39,23c.57,1.18,1.27,3,.82,4-.05.13-.11.25-.16.36a3,3,0,0,0-.42,2.31,28.12,28.12,0,0,0,1.5,3.58,1.45,1.45,0,0,1,.24,1.17,1.58,1.58,0,0,1-1,1l-.19.08a3.59,3.59,0,0,0-.91.42.84.84,0,0,0,.12.36,1.26,1.26,0,0,1,0,1.05,1.43,1.43,0,0,1-.67.64,1.39,1.39,0,0,1,.27.51,1,1,0,0,1-.24.87l-.28.3c-.38.39-.5.52-.42,1,.14.85.24,1.64.26,1.8A2.52,2.52,0,0,1,42,44.36a1.86,1.86,0,0,1-1.4.79,9.41,9.41,0,0,1-1.88,0c-1.11-.09-2.5-.21-3,.25a.74.74,0,0,0-.19.62c0,.05,0,.18,0,.33s0,.53,0,.59a.56.56,0,0,1-1.12.09c0-.07,0-.25,0-.66,0-.14,0-.27,0-.31A1.84,1.84,0,0,1,35,44.54c.85-.81,2.45-.68,3.86-.55a9.58,9.58,0,0,0,1.64,0,.81.81,0,0,0,.62-.31,1.54,1.54,0,0,0,.12-1s0,0,0-.06-.1-.88-.25-1.79a2,2,0,0,1,.71-2l.18-.2a2.08,2.08,0,0,0-.56-.35.54.54,0,0,1-.34-.48.55.55,0,0,1,.29-.52,1.61,1.61,0,0,1,.41-.15c.44-.13.69-.24.73-.33h0s0,0,0-.11a1.58,1.58,0,0,1-.12-1.25c.22-.53.77-.75,1.54-1l.19-.07c.24-.1.35-.2.36-.26a.43.43,0,0,0-.07-.24l-.06-.09A28.28,28.28,0,0,1,42.54,30,4.09,4.09,0,0,1,43,26.91c0-.11.11-.23.16-.35.2-.45-.2-1.86-1-3.36a.56.56,0,0,1,.09-.64,1.7,1.7,0,0,0,.48-.89c.5-2.49-1.93-4.79-4.17-6-3.68-2-9.57-2.38-14-.93a11.73,11.73,0,0,0-7.39,7.91c-1.62,7,2.14,13.51,4.53,16.79l.45.54c1.35,1.64,1.58,2,1.63,2.26a1,1,0,0,1,0,.17v2.83c0,.13,0,.35,0,.58,0,.42,0,.9,0,1.14A.55.55,0,0,1,23.3,47.5Z"/></g></g></svg>