<svg xmlns="http://www.w3.org/2000/svg" viewBox="0 0 61.13 61.13"><defs><style>.cls-1{fill:none;}</style></defs><title>Asset 3</title><g id="Layer_2" data-name="Layer 2"><g id="Layer_1-2" data-name="Layer 1"><circle class="cls-1" cx="30.56" cy="30.56" r="29.69"/><path d="M30.56,61.13A30.57,30.57,0,1,1,61.13,30.56,30.6,30.6,0,0,1,30.56,61.13Zm0-59.38A28.82,28.82,0,1,0,59.38,30.56,28.84,28.84,0,0,0,30.56,1.75Z"/><path d="M24.26,53.3c-.86,0-1.08-.5-1.13-.72s-.11-.76.64-1.17l5.63-3.13.26-1.55a5.66,5.66,0,0,1-1,.08,18.59,18.59,0,0,1-8.77-2.21l-.39.6a.82.82,0,0,1-.66.34.86.86,0,0,1-.47-.14.83.83,0,0,1-.19-1.14l2.57-3.65a14.81,14.81,0,0,1-6.5-8.44A15,15,0,0,1,36.67,15.26l2.39-3.58a.8.8,0,0,1,1.12-.22.82.82,0,0,1,.22,1.13l-.3.43a18.32,18.32,0,0,1,6.64,9.59,18.87,18.87,0,0,1-15.49,24l0,1.59,5.9,3.2c.75.41.7,1,.64,1.17a1,1,0,0,1-1.13.72Zm5.93-3.6-3.69,2,8-.06-3.7-2-.28,0v0ZM20.8,43.31a17.36,17.36,0,0,0,12.75,1.16,17.21,17.21,0,0,0,5.63-30.15l-1.24,1.9A14.62,14.62,0,0,1,43,23.66a15,15,0,0,1-14.4,19.27,14.77,14.77,0,0,1-6.49-1.51ZM30,28.65a1.42,1.42,0,0,1,.9.28,1.49,1.49,0,0,1,.52,1.33A10.07,10.07,0,0,1,31,32.33a5.74,5.74,0,0,0-.37,2.52c.31,1-.25,2.24-.79,3.4a6.1,6.1,0,0,0-.6,1.61,3.34,3.34,0,0,1-.08,1.47,15.43,15.43,0,0,0,3.3-.58,13.33,13.33,0,0,0,9-9.07c-.65-.22-.91-1.14-1.5-3.69-.15-.65-.29-1.27-.42-1.7-.05-.19-.16-.29-.56-.29a9.8,9.8,0,0,0-1.15.11,9.8,9.8,0,0,1-1.54.15A5.89,5.89,0,0,1,32,23.92a1.9,1.9,0,0,1-.58-1.86A4.68,4.68,0,0,1,33,19.8c-1.39-.11-2.2-.33-2.47-1a3.7,3.7,0,0,1-.23-.88c-.13-.77-.21-1-.7-1.05a3.9,3.9,0,0,1-2.63-2.29,16.65,16.65,0,0,0-2.11.46,12.88,12.88,0,0,0-1.64.62,8.05,8.05,0,0,0,1,1.77,1.62,1.62,0,0,1,.49,1.19c0,.74-.6,1.23-1.38,1.92a5.79,5.79,0,0,0-1.21,2.74,8.7,8.7,0,0,1-.58,1.77,3.54,3.54,0,0,1-2.27,1.3c-.26.08-.6.18-.82.27.27.71.46.86.74.89A2.24,2.24,0,0,1,21.06,29a2.16,2.16,0,0,1,1.47-.58,6.18,6.18,0,0,1,2,.5,6.93,6.93,0,0,0,2.13.53,1.88,1.88,0,0,0,.43-.05c.39-.1.77-.22,1.12-.33A6.56,6.56,0,0,1,30,28.65ZM15.39,29.89a13.14,13.14,0,0,0,.39,1.82,13.49,13.49,0,0,0,10.74,9.42,7.19,7.19,0,0,1-1.86-3.27,3.65,3.65,0,0,0-1.53-1.69,6.92,6.92,0,0,1-1.76-1.67,4.35,4.35,0,0,1-.68-2c-.08-.62-.08-.62-.38-.69l-.43-.11A13.43,13.43,0,0,1,15.39,29.89Zm7,.13a2,2,0,0,0-.77.52,3,3,0,0,1,.64,1.73,2.82,2.82,0,0,0,.41,1.32,5.73,5.73,0,0,0,1.39,1.28,5,5,0,0,1,2.12,2.53,6.45,6.45,0,0,0,1.44,2.68,4.31,4.31,0,0,1,.65-2.48A5.16,5.16,0,0,0,29,35.31a6.45,6.45,0,0,1,.35-3.4,9.11,9.11,0,0,0,.37-1.66l-1,.33c-.4.13-.82.26-1.25.37a3.59,3.59,0,0,1-.81.09A8,8,0,0,1,24,30.41a6,6,0,0,0-1.44-.4v0Zm-.66-13.6A13.31,13.31,0,0,0,15.27,27a.68.68,0,0,1,.16.33C15.7,28.77,18,29.53,19.77,30c-.26-.64-.47-.79-.75-.82-1.56-.14-2-1.59-2.22-2.37a1.17,1.17,0,0,1,.09-.9c.32-.59,1.05-.81,1.89-1.05a4.25,4.25,0,0,0,1.32-.53A7.58,7.58,0,0,0,20.52,23a6.84,6.84,0,0,1,1.55-3.44,9.41,9.41,0,0,0,1-.94A6.77,6.77,0,0,1,21.77,16.42Zm17.16,8a2,2,0,0,1,2.16,1.45c.14.48.29,1.12.44,1.8s.3,1.3.45,1.85a14.48,14.48,0,0,0-.52-5.36,13.47,13.47,0,0,0-12.76-9.6,2.09,2.09,0,0,0,1.15.78,2.45,2.45,0,0,1,2,2.38,3.34,3.34,0,0,0,1.91.64c1.33.16,2,.23,2.1,1,0,.26,0,.75-.78,1A4,4,0,0,0,33,22.43l.17.42,0,0a4.42,4.42,0,0,0,2.86,1.81h.08a9.48,9.48,0,0,0,1.44-.12A9.66,9.66,0,0,1,38.93,24.38Z"/><path d="M46.71,22.62A18.53,18.53,0,0,0,40.07,13l.3-.45a.77.77,0,0,0-.2-1.07.78.78,0,0,0-1.08.2l-2.44,3.6a15,15,0,1,0-15.9,25.34l-2.57,3.65a.78.78,0,0,0,.18,1.09.85.85,0,0,0,.45.14.82.82,0,0,0,.64-.33l.43-.61a18.69,18.69,0,0,0,8.76,2.2c.35,0,.7,0,1.06,0V48.2a1.82,1.82,0,0,0-.28.11l-5.63,3.13a.95.95,0,0,0,.47,1.83H36.69a.95.95,0,0,0,.47-1.83l-5.63-3.13a1.82,1.82,0,0,0-.28-.11V46.59A19,19,0,0,0,34,46,18.8,18.8,0,0,0,46.71,22.62ZM34.46,51.72h-8l3.68-2a1.06,1.06,0,0,1,.61,0ZM42,29.49c-.16-.59-.33-1.32-.45-1.85s-.3-1.32-.44-1.8c-.51-1.73-2.22-1.48-3.47-1.3a7.63,7.63,0,0,1-1.54.13,4.45,4.45,0,0,1-2.87-1.82l-.2-.23s0-.14,0-.19a4.08,4.08,0,0,1,2.12-2.11c.73-.27.79-.74.76-1-.1-.74-.76-.81-2.08-1a11.81,11.81,0,0,1-1.86-.31,3.29,3.29,0,0,1-.07-.36,2.42,2.42,0,0,0-2-2.35,1.92,1.92,0,0,1-1.15-.85,13.51,13.51,0,0,1,12.8,9.62A13.37,13.37,0,0,1,42,29.49ZM24.82,15A13.48,13.48,0,0,1,27,14.59a3.88,3.88,0,0,0,2.61,2.28c.51.09.59.3.72,1.07a3.46,3.46,0,0,0,.23.88c.28.64,1.12.84,2.46,1a4.74,4.74,0,0,0-1.53,2.24,1.7,1.7,0,0,0,.38,1.61l.2.22a5.83,5.83,0,0,0,3.9,2.32,8.91,8.91,0,0,0,1.88-.14c1.41-.21,1.65-.14,1.75.2s.27,1,.42,1.7c.58,2.54.84,3.45,1.5,3.71a13.32,13.32,0,0,1-12.4,9.63,3.56,3.56,0,0,0,.08-1.46,5.88,5.88,0,0,1,.59-1.61c.54-1.17,1.1-2.37.8-3.39a5.81,5.81,0,0,1,.36-2.52,9.65,9.65,0,0,0,.43-2.08,1.42,1.42,0,0,0-.5-1.3c-.66-.51-1.57-.22-2.62.11-.36.12-.74.24-1.13.33a5.08,5.08,0,0,1-2.58-.48A4.27,4.27,0,0,0,22,28.5,3.05,3.05,0,0,0,21,29a2.27,2.27,0,0,0-1.87-1.41c-.29,0-.5-.19-.76-.95.22-.09.57-.2.82-.27a3.53,3.53,0,0,0,2.26-1.29,8,8,0,0,0,.58-1.76,6,6,0,0,1,1.05-2.6l.17-.15c.77-.68,1.33-1.18,1.37-1.9a1.57,1.57,0,0,0-.49-1.16,6.39,6.39,0,0,1-1-1.82h0A12.14,12.14,0,0,1,24.82,15ZM29.07,35.3c.14.46-.36,1.52-.71,2.29A5.06,5.06,0,0,0,27.63,40v.07a6.49,6.49,0,0,1-1.45-2.69,5,5,0,0,0-2.1-2.51,5.77,5.77,0,0,1-1.39-1.29,2.66,2.66,0,0,1-.42-1.34,2.3,2.3,0,0,0-.74-1.64.94.94,0,0,0,.1-.1,1.85,1.85,0,0,1,.79-.54,4,4,0,0,1,1.57.39,6.13,6.13,0,0,0,3.48.53c.42-.1.84-.23,1.22-.35a10,10,0,0,1,1.11-.31,10.51,10.51,0,0,1-.37,1.67A6.4,6.4,0,0,0,29.07,35.3ZM16.83,21.5a13.37,13.37,0,0,1,5-5.13A7.23,7.23,0,0,0,23,18.55l0,0a7.09,7.09,0,0,1-.82.79l-.17.15a6.84,6.84,0,0,0-1.53,3.39,8.24,8.24,0,0,1-.43,1.4,4.08,4.08,0,0,1-1.34.54c-.83.25-1.55.46-1.87,1a1.19,1.19,0,0,0-.09.87c.23.77.65,2.2,2.2,2.35.29,0,.5.18.73.88-1.58-.4-4.09-1.16-4.36-2.68a.92.92,0,0,0-.16-.33A13.3,13.3,0,0,1,16.83,21.5ZM15.75,31.72a13,13,0,0,1-.4-1.91,12.8,12.8,0,0,0,4.54,1.83l.42.1c.32.08.33.09.42.73a4.12,4.12,0,0,0,.67,2,7.24,7.24,0,0,0,1.75,1.67,3.59,3.59,0,0,1,1.54,1.7,8,8,0,0,0,1.82,3.32A13.53,13.53,0,0,1,15.75,31.72ZM43.83,36.2a17.26,17.26,0,0,1-23.06,7.09l1.35-1.91a14.81,14.81,0,0,0,6.5,1.51h0A14.94,14.94,0,0,0,37.91,16.2l1.29-1.91A17.24,17.24,0,0,1,43.83,36.2Z"/></g></g></svg>