<svg xmlns="http://www.w3.org/2000/svg" viewBox="0 0 61.13 61.13"><defs><style>.cls-1{fill:none;}</style></defs><title>Asset 4</title><g id="Layer_2" data-name="Layer 2"><g id="Layer_1-2" data-name="Layer 1"><circle class="cls-1" cx="30.56" cy="30.56" r="29.69"/><path d="M30.56,61.13A30.57,30.57,0,1,1,61.13,30.56,30.6,30.6,0,0,1,30.56,61.13Zm0-59.38A28.82,28.82,0,1,0,59.38,30.56,28.84,28.84,0,0,0,30.56,1.75Z"/><path d="M32.26,46.73a14.35,14.35,0,0,1-2.62-.24,13.92,13.92,0,0,1-3.26-1,13.57,13.57,0,0,1-1.89-1.08A13.77,13.77,0,0,1,19.42,38a6.37,6.37,0,0,1,.15-5.3,9.22,9.22,0,0,1,3.94-4.22A7,7,0,0,0,26.78,26c1-1.17,1.36-3.35,1.7-5.27.31-1.72.56-3.07,1.2-3.75a5.76,5.76,0,0,1,3.57-1.81A13.54,13.54,0,0,1,35,15a14.5,14.5,0,0,1,3.16.35,13.61,13.61,0,0,1,8.7,6.36,14.64,14.64,0,0,1,1.91,5.57A17.11,17.11,0,0,1,45.9,39.19,18.69,18.69,0,0,1,44,41.53a17.21,17.21,0,0,1-6.74,4.35A15.34,15.34,0,0,1,32.26,46.73ZM35.05,16.6a14.3,14.3,0,0,0-1.6.09A4.17,4.17,0,0,0,30.83,18,8.81,8.81,0,0,0,30,21c-.38,2.11-.81,4.51-2.05,6a8.15,8.15,0,0,1-3.7,2.87A7.7,7.7,0,0,0,21,33.36a4.85,4.85,0,0,0-.1,4,12.18,12.18,0,0,0,4.48,5.66,13.19,13.19,0,0,0,1.68,1,12.41,12.41,0,0,0,2.88.92,12.87,12.87,0,0,0,2.33.22,13.84,13.84,0,0,0,4.51-.77,15.67,15.67,0,0,0,6.11-4,17.79,17.79,0,0,0,1.72-2.13,15.56,15.56,0,0,0,2.65-10.8,13.11,13.11,0,0,0-1.71-5,11.91,11.91,0,0,0-7.69-5.63A12.52,12.52,0,0,0,35.05,16.6ZM26.74,38.07c-1.92,0-3.47-1.07-3.68-2.55a2.74,2.74,0,0,1,.88-2.36,4.74,4.74,0,0,1,2.69-1.26,6,6,0,0,1,.74,0c1.92,0,3.47,1.07,3.68,2.55a2.77,2.77,0,0,1-1,2.42A4.72,4.72,0,0,1,27.48,38,4.62,4.62,0,0,1,26.74,38.07Zm.63-4.64a3,3,0,0,0-.52,0c-1.3.18-2.34,1-2.23,1.83s1,1.19,2.12,1.19a3,3,0,0,0,.52,0A3.18,3.18,0,0,0,29,35.67a1.24,1.24,0,0,0,.48-1.05C29.39,34,28.47,33.43,27.37,33.43Z"/><path d="M32.26,46.49h0a13.89,13.89,0,0,1-5.78-1.26,14.06,14.06,0,0,1-1.85-1.06,13.5,13.5,0,0,1-5-6.27,6.16,6.16,0,0,1,.15-5.11,8.89,8.89,0,0,1,3.82-4.1l.12-.06A7,7,0,0,0,27,26.12c1-1.22,1.4-3.44,1.75-5.39.31-1.68.54-3,1.14-3.63a5.49,5.49,0,0,1,3.43-1.73,14.06,14.06,0,0,1,4.85.24,13.33,13.33,0,0,1,8.55,6.25,14.47,14.47,0,0,1,1.88,5.47A16.9,16.9,0,0,1,45.7,39.06a18,18,0,0,1-1.86,2.3,16.83,16.83,0,0,1-6.64,4.29A15.08,15.08,0,0,1,32.26,46.49Zm2.79-30.14a12.74,12.74,0,0,0-1.63.1,4.4,4.4,0,0,0-2.77,1.41,8.48,8.48,0,0,0-.85,3.07c-.38,2.08-.8,4.44-2,5.88a8.12,8.12,0,0,1-3.62,2.81l-.12.06a8,8,0,0,0-3.3,3.58,5.1,5.1,0,0,0-.11,4.24,12.38,12.38,0,0,0,6.28,6.74,12.68,12.68,0,0,0,2.95.94,12.44,12.44,0,0,0,2.37.22,14.05,14.05,0,0,0,4.59-.78,15.8,15.8,0,0,0,6.2-4,16.62,16.62,0,0,0,1.75-2.17,15.79,15.79,0,0,0,2.69-11,13.35,13.35,0,0,0-1.74-5.07,12.23,12.23,0,0,0-7.85-5.74A13,13,0,0,0,35.05,16.35ZM26.74,37.82c-1.8,0-3.25-1-3.44-2.33-.22-1.58,1.26-3.05,3.36-3.35a5.78,5.78,0,0,1,.71,0c1.8,0,3.25,1,3.44,2.34a2.53,2.53,0,0,1-.88,2.21,4.46,4.46,0,0,1-2.48,1.13A4.31,4.31,0,0,1,26.74,37.82Zm.63-4.64a5.46,5.46,0,0,0-.56,0c-1.45.21-2.56,1.17-2.43,2.11s1.13,1.4,2.36,1.4a3.6,3.6,0,0,0,.56,0,3.4,3.4,0,0,0,1.88-.84,1.5,1.5,0,0,0,.55-1.27C29.62,33.79,28.6,33.18,27.37,33.18Z"/><path d="M42.47,30.71a2.55,2.55,0,1,1,1.85-.79A2.54,2.54,0,0,1,42.47,30.71Zm0-3.53a1,1,0,0,0-.7.3,1,1,0,0,0,0,1.38.94.94,0,0,0,.67.27,1,1,0,0,0,.71-.3,1,1,0,0,0,0-1.38A1,1,0,0,0,42.47,27.18Z"/><path d="M42.48,30.46h0a2.31,2.31,0,1,1,1.66-.71A2.26,2.26,0,0,1,42.48,30.46Zm0-3.52a1.22,1.22,0,0,0-.85,2.1,1.22,1.22,0,0,0,1.73,0,1.21,1.21,0,0,0-.88-2.06Z"/><path d="M41.68,37.29a2.51,2.51,0,0,1-1.76-.71,2.54,2.54,0,0,1,1.76-4.39,2.55,2.55,0,0,1,1.85,4.31A2.55,2.55,0,0,1,41.68,37.29Zm0-3.53a1,1,0,0,0-.7.3,1,1,0,0,0,0,1.39,1,1,0,0,0,.67.26,1,1,0,0,0,1-1,1,1,0,0,0-.3-.69A1,1,0,0,0,41.68,33.76Z"/><path d="M41.68,37.05h0a2.29,2.29,0,0,1-1.59-.64A2.32,2.32,0,0,1,40,33.14a2.28,2.28,0,0,1,1.67-.71,2.31,2.31,0,0,1,1.6.64,2.31,2.31,0,0,1-1.6,4Zm0-3.53a1.17,1.17,0,0,0-.88.38,1.22,1.22,0,1,0,1.76,1.68,1.17,1.17,0,0,0,.34-.87,1.23,1.23,0,0,0-1.22-1.19Z"/><path d="M37.87,42.32a2.51,2.51,0,0,1-1.76-.71,2.55,2.55,0,0,1-.79-1.78A2.58,2.58,0,0,1,36,38a2.56,2.56,0,0,1,1.84-.78,2.54,2.54,0,0,1,1.85,4.31A2.53,2.53,0,0,1,37.87,42.32Zm0-3.53a.93.93,0,0,0-.7.31,1,1,0,0,0,0,1.37,1,1,0,0,0,1.38,0,1,1,0,0,0,.27-.69,1,1,0,0,0-.3-.69A1,1,0,0,0,37.87,38.79Z"/><path d="M37.87,42.08h0a2.29,2.29,0,0,1-1.59-.64,2.31,2.31,0,1,1,3.26-.08A2.29,2.29,0,0,1,37.87,42.08Zm0-3.53a1.19,1.19,0,0,0-.88.38A1.22,1.22,0,0,0,37.87,41a1.25,1.25,0,0,0,.89-.38,1.22,1.22,0,0,0-.89-2.06Z"/><path d="M31.66,43.81a2.58,2.58,0,0,1-1.77-.7,2.57,2.57,0,0,1-.08-3.61,2.56,2.56,0,0,1,3.62-.08A2.57,2.57,0,0,1,33.51,43,2.54,2.54,0,0,1,31.66,43.81Zm0-3.52a.92.92,0,0,0-.7.3.91.91,0,0,0-.27.7A.93.93,0,0,0,31,42a1,1,0,0,0,.67.27,1,1,0,0,0,.67-1.68A.94.94,0,0,0,31.66,40.29Z"/><path d="M31.66,43.57h0A2.31,2.31,0,0,1,30,39.67,2.29,2.29,0,0,1,31.66,39a2.31,2.31,0,0,1,1.67,3.91A2.28,2.28,0,0,1,31.66,43.57Zm0-3.53a1.21,1.21,0,0,0-.88.38,1.17,1.17,0,0,0-.34.87,1.23,1.23,0,0,0,1.22,1.19,1.2,1.2,0,0,0,.88-.37,1.22,1.22,0,0,0,0-1.73A1.18,1.18,0,0,0,31.66,40Z"/><path d="M39.58,24.86a2.55,2.55,0,0,1-1.85-4.31,2.57,2.57,0,0,1,3.61-.08,2.55,2.55,0,0,1-1.76,4.39Zm0-3.51A1,1,0,0,0,38.9,23a1,1,0,0,0,.68.27.92.92,0,0,0,.69-.3.89.89,0,0,0,.27-.69.94.94,0,0,0-1-.94Z"/><path d="M39.58,24.62h0a2.3,2.3,0,0,1-1.67-3.9A2.28,2.28,0,0,1,39.58,20a2.31,2.31,0,0,1,0,4.61Zm0-3.52a1.2,1.2,0,0,0-.88.37,1.22,1.22,0,0,0,0,1.72,1.18,1.18,0,0,0,.84.34,1.21,1.21,0,0,0,.83-2.09A1.17,1.17,0,0,0,39.58,21.1Z"/><path d="M15.21,46.42a1.68,1.68,0,0,1-1.2-.5,1.73,1.73,0,0,1-.49-1.21l-.24-19.25a1.53,1.53,0,0,1,1.48-1.71h1.47a1.36,1.36,0,0,1,1,.4,1.76,1.76,0,0,1,.45,1.3L17,44.75a1.7,1.7,0,0,1-1.7,1.67Zm-.11-1.71,1-19.29-1.24-.09Z"/><path d="M15.32,46.18h-.11a1.45,1.45,0,0,1-1.44-1.47l-.25-19.25c0-.9.5-1.47,1.24-1.47h1.47a1.12,1.12,0,0,1,.84.33,1.51,1.51,0,0,1,.38,1.13l-.67,19.29A1.46,1.46,0,0,1,15.32,46.18Zm.91-21.1H14.76s-.15,0-.15.38l.25,19.25A.33.33,0,0,0,15,45a.34.34,0,0,0,.25.11h.11a.38.38,0,0,0,.37-.38l.68-19.28a.6.6,0,0,0-.07-.34Z"/><path d="M15.44,24.19a3.43,3.43,0,0,1-3.11-2.57,5.8,5.8,0,0,1,.52-4,14.19,14.19,0,0,1,1-1.79c.83-1.23,1.17-1.45,1.6-1.45.89.31.92.86,1,1.56a4.25,4.25,0,0,0,.23,1.43,3.87,3.87,0,0,0,.42.57,4.6,4.6,0,0,1,1.34,3.28,3,3,0,0,1-3,3ZM15,17.09a12.13,12.13,0,0,0-.68,1.2,4.35,4.35,0,0,0-.43,2.92,1.94,1.94,0,0,0,1.61,1.41,1.39,1.39,0,0,0,1.39-1.39,3.11,3.11,0,0,0-1-2.24,5.38,5.38,0,0,1-.62-.86A3.32,3.32,0,0,1,15,17.09Z"/><path d="M15.46,24h0a3.21,3.21,0,0,1-2.88-2.39,5.66,5.66,0,0,1,.5-3.81,15,15,0,0,1,1-1.76c.84-1.25,1.12-1.35,1.4-1.35a.69.69,0,0,1,.24,0c.41.18.43.62.47,1.28a4.18,4.18,0,0,0,.26,1.54,4.67,4.67,0,0,0,.46.63,4.42,4.42,0,0,1,1.27,3.1A2.74,2.74,0,0,1,15.46,24Zm-.33-7.56a14,14,0,0,0-1.07,1.81v0a4.58,4.58,0,0,0-.44,3.05,2.17,2.17,0,0,0,1.84,1.59h0a1.65,1.65,0,0,0,1.64-1.63,3.39,3.39,0,0,0-1-2.4,5,5,0,0,1-.6-.81A4.26,4.26,0,0,1,15.13,16.39Z"/></g></g></svg>