<svg xmlns="http://www.w3.org/2000/svg" viewBox="0 0 61.13 61.13"><defs><style>.cls-1{fill:none;}</style></defs><title>Asset 7</title><g id="Layer_2" data-name="Layer 2"><g id="Layer_1-2" data-name="Layer 1"><circle class="cls-1" cx="30.56" cy="30.56" r="29.69"/><path d="M30.56,61.13A30.57,30.57,0,1,1,61.13,30.56,30.6,30.6,0,0,1,30.56,61.13Zm0-59.38A28.82,28.82,0,1,0,59.38,30.56,28.84,28.84,0,0,0,30.56,1.75Z"/><path d="M42.31,33.82a68.9,68.9,0,0,1-11.75,10.5,69.68,69.68,0,0,1-11.75-10.5A.88.88,0,1,0,17.46,35c4.78,5.77,12.29,11,12.61,11.18a.89.89,0,0,0,1,0c.32-.22,7.83-5.41,12.61-11.18a.88.88,0,0,0-.12-1.24A.89.89,0,0,0,42.31,33.82Z"/><path d="M15,29.38a.87.87,0,0,0,.56-1.11c-1.29-4-.47-7.62,2.25-10,3.66-3.27,8.86-1.08,12.14,2.33a.85.85,0,0,0,.63.27.87.87,0,0,0,.64-.27c3.28-3.41,8.48-5.6,12.14-2.33,2.72,2.43,3.54,6.1,2.24,10.05a.88.88,0,0,0,.56,1.11,1,1,0,0,0,.28.05.9.9,0,0,0,.84-.61,12.5,12.5,0,0,0,.46-6.37,10.17,10.17,0,0,0-3.21-5.55,8.13,8.13,0,0,0-7.58-1.79,14.54,14.54,0,0,0-6.37,3.59,14.45,14.45,0,0,0-6.36-3.59,8.12,8.12,0,0,0-7.58,1.79,10.18,10.18,0,0,0-3.21,5.54,12.54,12.54,0,0,0,.46,6.38A.88.88,0,0,0,15,29.38Z"/><path d="M17.74,24.1a.87.87,0,0,0,.86-.68,4.83,4.83,0,0,1,1.54-2.57A2.62,2.62,0,0,1,22,20.13a.88.88,0,0,0,0-1.76,4.46,4.46,0,0,0-3,1.16A6.49,6.49,0,0,0,16.89,23a.88.88,0,0,0,.66,1A.65.65,0,0,0,17.74,24.1Z"/><path d="M46,31.46a.88.88,0,0,0-.88-.88H36.78A.86.86,0,0,0,36,31l-2,3.35L31.42,24.3a.88.88,0,0,0-.83-.67.91.91,0,0,0-.87.62L27.32,32l-2.16-5a.88.88,0,0,0-.71-.52.89.89,0,0,0-.8.33L20.8,30.58H16a.88.88,0,1,0,0,1.76h5.2a.88.88,0,0,0,.7-.34l2.2-2.87,2.51,5.78a.88.88,0,0,0,.85.53.89.89,0,0,0,.8-.62l2.19-7.07,2.33,9.09a.88.88,0,0,0,.73.65h.12a.88.88,0,0,0,.76-.43l2.85-4.73h7.81A.87.87,0,0,0,46,31.46Z"/></g></g></svg>