<svg xmlns="http://www.w3.org/2000/svg" viewBox="0 0 33.25 33.01"><defs><style>.cls-1{fill:#fff;}</style></defs><title>Asset 22</title><g id="Layer_2" data-name="Layer 2"><g id="Layer_1-2" data-name="Layer 1"><polygon class="cls-1" points="5.39 15.9 5.39 33.01 0 33.01 0 19.82 5.39 15.9"/><polygon class="cls-1" points="33.25 19.82 33.25 33.01 27.86 33.01 27.86 15.9 33.25 19.82"/><path class="cls-1" d="M15.94,10.72v3l-1.86,1.86,1,1,2.26-2.25V10.72Zm0,0v3l-1.86,1.86,1,1,2.26-2.25V10.72Zm0,0v3l-1.86,1.86,1,1,2.26-2.25V10.72Zm0,0v3l-1.86,1.86,1,1,2.26-2.25V10.72Zm0,0v3l-1.86,1.86,1,1,2.26-2.25V10.72Zm0,0v3l-1.86,1.86,1,1,2.26-2.25V10.72Zm0,0v3l-1.86,1.86,1,1,2.26-2.25V10.72Zm0,0v3l-1.86,1.86,1,1,2.26-2.25V10.72Zm0,0v3l-1.86,1.86,1,1,2.26-2.25V10.72Zm0,0v3l-1.86,1.86,1,1,2.26-2.25V10.72Zm0,0v3l-1.86,1.86,1,1,2.26-2.25V10.72Z"/><path class="cls-1" d="M16.63,0,6.2,8.84V33H27.05V8.84Zm0,19.77A5.76,5.76,0,1,1,22.39,14,5.77,5.77,0,0,1,16.63,19.77Z"/><path class="cls-1" d="M15.94,10.72v3l-1.86,1.86,1,1,2.26-2.25V10.72Z"/><polygon class="cls-1" points="17.32 10.72 17.32 14.3 15.06 16.55 14.08 15.58 15.94 13.72 15.94 10.72 17.32 10.72"/></g></g></svg>