<svg xmlns="http://www.w3.org/2000/svg" viewBox="0 0 61.13 61.13"><defs><style>.cls-1{fill:none;}</style></defs><title>Asset 9</title><g id="Layer_2" data-name="Layer 2"><g id="Layer_1-2" data-name="Layer 1"><circle class="cls-1" cx="30.57" cy="30.56" r="29.69"/><path d="M30.56,61.13A30.57,30.57,0,1,1,61.13,30.56,30.6,30.6,0,0,1,30.56,61.13Zm0-59.38A28.82,28.82,0,1,0,59.38,30.56,28.84,28.84,0,0,0,30.56,1.75Z"/><path d="M14.79,48.08l2.15-6.6A17.46,17.46,0,0,1,30.57,13.1v1.75a15.71,15.71,0,0,0-12,25.88l.31.37-1.2,3.69,3.47-1.62.42.28a15.56,15.56,0,0,0,9,2.84A15.74,15.74,0,0,0,46.28,30.56H48A17.48,17.48,0,0,1,30.57,48,17.29,17.29,0,0,1,21,45.17Z"/><path d="M48,30.56H46.28c0-.22,0-.45,0-.68l-.12-1.41A15.8,15.8,0,0,0,31.94,14.9l-.71,0h-.66V13.1h.76l.74.05A17.54,17.54,0,0,1,47.88,28.29L48,29.77C48,30.06,48,30.31,48,30.56Z"/><path d="M23.88,33.81V29a1.64,1.64,0,0,0-.44-1.24,1.75,1.75,0,0,0-1.22-.41,2.78,2.78,0,0,0-.57.07,2.18,2.18,0,0,0-.52.21,2.74,2.74,0,0,0-.43.3,1.43,1.43,0,0,0-.28.35l1.16,1a1.27,1.27,0,0,0-.65.46,1.36,1.36,0,0,0-.22.83v3.23H18.93V30.59a1.46,1.46,0,0,1,.2-.78,1.59,1.59,0,0,1,.52-.54l-1.11-.9a2.78,2.78,0,0,1,.47-.9,3.77,3.77,0,0,1,.82-.77,3.89,3.89,0,0,1,1.1-.54A4.12,4.12,0,0,1,22.26,26a4.34,4.34,0,0,1,1.46.23,2.93,2.93,0,0,1,1.06.63,2.7,2.7,0,0,1,.66,1A3.43,3.43,0,0,1,25.67,29v4.78Z"/><path d="M29,31.25a1.32,1.32,0,0,0,.33,1,1.36,1.36,0,0,0,1,.31,1.31,1.31,0,0,0,1-.34,1.53,1.53,0,0,0,.33-1.09v-5h1.79v5a2.8,2.8,0,0,1-.75,2.09,3.21,3.21,0,0,1-2.36.75A3.29,3.29,0,0,1,28,33.26a2.66,2.66,0,0,1-.75-2v-.71a1.5,1.5,0,0,1,.19-.78,4,4,0,0,1,.43-.62c.15-.19.3-.37.42-.55a.93.93,0,0,0,.2-.55v-.2a.28.28,0,0,0-.32-.31h-.84v-1.4h1.06a3.09,3.09,0,0,1,.88.1,1.5,1.5,0,0,1,.55.29,1.05,1.05,0,0,1,.29.49,2.82,2.82,0,0,1,.08.68V28a1.38,1.38,0,0,1-.18.7,5.45,5.45,0,0,1-.4.58c-.14.19-.28.38-.4.57a1.19,1.19,0,0,0-.17.65Z"/><path d="M37,30.4a1.45,1.45,0,0,1,.51-.54,1.84,1.84,0,0,1,.94-.21h.78v1.48h-.82a1.55,1.55,0,0,0-1,.25,1.21,1.21,0,0,0-.45.68v1.75H35.24V29a3,3,0,0,1,.24-1.21,2.82,2.82,0,0,1,.69-1,3.36,3.36,0,0,1,1.09-.65,4.62,4.62,0,0,1,2.94,0,3.41,3.41,0,0,1,1.1.65,2.93,2.93,0,0,1,.68,1A3,3,0,0,1,42.22,29v4.78H40.44V29a1.57,1.57,0,0,0-1.71-1.66A1.57,1.57,0,0,0,37,29Z"/></g></g></svg>