<svg xmlns="http://www.w3.org/2000/svg" viewBox="0 0 61.13 61.13"><defs><style>.cls-1{fill:none;}</style></defs><title>Asset 6</title><g id="Layer_2" data-name="Layer 2"><g id="Layer_1-2" data-name="Layer 1"><circle class="cls-1" cx="30.56" cy="30.56" r="29.69"/><path d="M30.56,61.13A30.57,30.57,0,1,1,61.13,30.56,30.6,30.6,0,0,1,30.56,61.13Zm0-59.38A28.82,28.82,0,1,0,59.38,30.56,28.84,28.84,0,0,0,30.56,1.75Z"/><path d="M30.42,48.11c-4.14,0-6.37-9-6.37-17.55a43.28,43.28,0,0,1,1.28-10.82L27,20.2A41,41,0,0,0,25.8,30.56c0,9.79,2.69,15.81,4.62,15.81s4.64-6,4.64-15.81-2.7-15.8-4.64-15.8a1.37,1.37,0,0,0-.79.3l-1-1.4A3,3,0,0,1,30.42,13c4.15,0,6.38,9,6.38,17.55S34.57,48.11,30.42,48.11Z"/><path d="M41.63,41c-3.81,0-9.46-2.11-14.39-4.95-7.37-4.26-14.08-10.71-12-14.3s11-1,18.39,3.25a42.3,42.3,0,0,1,9,6.79l-1.26,1.22a40.06,40.06,0,0,0-8.61-6.49c-8.48-4.9-15-5.57-16-3.9s2.89,7,11.37,11.91,15,5.57,16,3.9a1.41,1.41,0,0,0,.13-.92L46,37.29a3.16,3.16,0,0,1-.33,2.05C44.94,40.52,43.51,41,41.63,41Z"/><path d="M22.47,40.66,22.1,39a38.47,38.47,0,0,0,10.64-4.38c8.48-4.89,12.34-10.23,11.37-11.91s-7.52-1-16,3.9S15.77,36.79,16.74,38.47a1.21,1.21,0,0,0,.37.38l-1,1.46a3.07,3.07,0,0,1-.93-1c-2.06-3.59,4.65-10.05,12-14.3s16.32-6.83,18.39-3.25-4.65,10-12,14.3A40.46,40.46,0,0,1,22.47,40.66Z"/><path d="M43.38,36.94a2.91,2.91,0,1,1,2.9-2.9A2.91,2.91,0,0,1,43.38,36.94Zm0-4.06A1.16,1.16,0,1,0,44.54,34,1.16,1.16,0,0,0,43.38,32.88Z"/><path d="M27,20.86A2.91,2.91,0,1,1,29.86,18,2.91,2.91,0,0,1,27,20.86Zm0-4.07A1.16,1.16,0,1,0,28.11,18,1.16,1.16,0,0,0,27,16.79Z"/><path d="M20.35,43a2.9,2.9,0,1,1,2.91-2.9A2.91,2.91,0,0,1,20.35,43Zm0-4.06a1.16,1.16,0,1,0,1.16,1.16A1.16,1.16,0,0,0,20.35,39Z"/><path d="M30.56,33.89a3.33,3.33,0,1,1,3.33-3.33A3.34,3.34,0,0,1,30.56,33.89Zm0-4.91a1.59,1.59,0,1,0,1.59,1.58A1.58,1.58,0,0,0,30.56,29Z"/></g></g></svg>