<svg xmlns="http://www.w3.org/2000/svg" xmlns:xlink="http://www.w3.org/1999/xlink" viewBox="0 0 32.03 33.03"><defs><style>.cls-1{fill:url(#New_Gradient_Swatch_5);}.cls-2{fill:url(#New_Gradient_Swatch_5-2);}.cls-3{fill:url(#New_Gradient_Swatch_5-3);}.cls-4{fill:url(#New_Gradient_Swatch_5-4);}.cls-5{fill:url(#New_Gradient_Swatch_5-5);}.cls-6{fill:#ececec;}</style><linearGradient id="New_Gradient_Swatch_5" x1="4.55" y1="-6.87" x2="47.35" y2="20" gradientUnits="userSpaceOnUse"><stop offset="0.15" stop-color="#36c"/><stop offset="0.25" stop-color="#3383db"/><stop offset="0.4" stop-color="#33abee"/><stop offset="0.53" stop-color="#33c3fb"/><stop offset="0.6" stop-color="#3cf"/></linearGradient><linearGradient id="New_Gradient_Swatch_5-2" x1="-5.1" y1="4.95" x2="59.6" y2="31.5" xlink:href="#New_Gradient_Swatch_5"/><linearGradient id="New_Gradient_Swatch_5-3" x1="1.56" y1="11.34" x2="26.02" y2="11.34" xlink:href="#New_Gradient_Swatch_5"/><linearGradient id="New_Gradient_Swatch_5-4" x1="-4" y1="23.96" x2="34.98" y2="23.96" xlink:href="#New_Gradient_Swatch_5"/><linearGradient id="New_Gradient_Swatch_5-5" x1="-4.06" y1="5.45" x2="22.07" y2="5.45" xlink:href="#New_Gradient_Swatch_5"/></defs><title>Asset 28</title><g id="Layer_2" data-name="Layer 2"><g id="Layer_1-2" data-name="Layer 1"><path class="cls-1" d="M22.07,0A4.13,4.13,0,1,0,26.2,4.13,4.14,4.14,0,0,0,22.07,0Z"/><path class="cls-2" d="M30.15.92c-1.72-.21-2.5,1.23-2.73,2.55l-.79,3.29A2.77,2.77,0,0,1,23.9,9.05H19.32a4.07,4.07,0,0,0-.61,0,4.11,4.11,0,0,0-2.5,1.38,4.07,4.07,0,0,0-1,2.7v6.09A2.76,2.76,0,0,0,17.94,22V33h3.44V22.65h1.38V33H26.2V13.87c2.77-1.85,3.88-2,4.24-4.08L32,3.89C32.18,2.57,32,1.14,30.15.92Z"/><path class="cls-3" d="M11,8.25a3.09,3.09,0,1,0,3.09,3.09A3.1,3.1,0,0,0,11,8.25Z"/><path class="cls-4" d="M13,15H8.91A3.09,3.09,0,0,0,5.82,18v4.63a2.06,2.06,0,0,0,2.06,2.06V33h2.58V25.25h1V33h2.57V24.73a2.06,2.06,0,0,0,2.06-2.06V18A3.09,3.09,0,0,0,13,15Z"/><path class="cls-5" d="M10.43.57A1.9,1.9,0,0,0,9.07,0H1.9A1.9,1.9,0,0,0,0,1.9V6.5A1.9,1.9,0,0,0,1.9,8.4H4.79l2.72,2.5V8.4a10.4,10.4,0,0,0,2.65-.34A1.93,1.93,0,0,0,11,6.5V1.9A1.93,1.93,0,0,0,10.43.57Z"/><circle class="cls-6" cx="3.63" cy="2.41" r="0.43"/><circle class="cls-6" cx="7.32" cy="2.41" r="0.43"/><path class="cls-6" d="M5.48,6.16A2.17,2.17,0,0,1,3.31,4h.74A1.43,1.43,0,0,0,6.9,4h.74A2.16,2.16,0,0,1,5.48,6.16Z"/></g></g></svg>