<?xml version="1.0" encoding="utf-8"?>
<!-- Generator: Adobe Illustrator 21.1.0, SVG Export Plug-In . SVG Version: 6.00 Build 0)  -->
<svg version="1.1" id="Layer_1" xmlns="http://www.w3.org/2000/svg" xmlns:xlink="http://www.w3.org/1999/xlink" x="0px" y="0px"
	 viewBox="0 0 800 800" style="enable-background:new 0 0 800 800;" xml:space="preserve">
<style type="text/css">
	.st0{fill:#E9635E;}
</style>
<g>
	<path class="st0" d="M765.4,183.3c-10.2-9.9-24.1-14.7-38.2-13.2c-22,2.4-39.7,20.1-42.1,42.1l-19.4,179.5
		c-13.6-7.4-28.6-11.5-43.7-12.3c1.7-11.2,2.6-22.7,2.6-34.3c0-26.2-4.6-51.3-12.8-74.7c-0.1-0.3,0-0.5-0.1-0.8
		c-0.6-1.8-1.4-3.5-2.1-5.3c-0.1-0.2-0.1-0.4-0.2-0.6l0,0c-1-2.7-2-5.4-3.2-8c-2.3-5.4-8.6-7.9-14.1-5.6c-5.4,2.3-7.9,8.6-5.6,14.1
		c0.9,2,1.6,4.1,2.4,6.2c0,0,0,0,0,0c9.2,23.1,14.3,48.3,14.3,74.7c0,12.1-1.1,24-3.2,35.6c-19.9,3.2-39,12-54.5,26.6
		c-33.4,31.4-68.6,75.5-85.9,132.2c-18.9,5.8-38.9,8.9-59.6,8.9c-20.7,0-40.8-3.1-59.6-8.9c-17.3-56.6-52.5-100.8-85.9-132.2
		c-15.5-14.6-34.6-23.4-54.5-26.6c-2-11.6-3.2-23.4-3.2-35.6c0-112.1,91.2-203.2,203.2-203.2l0,0c4.6,0,9.1,0.1,13.5,0.4
		c0.2,0,0.5,0,0.7,0c5.6,0,10.3-4.3,10.7-10c0.4-5.9-4.1-11-10-11.4c-2.6-0.2-5.3-0.2-7.9-0.3c0,0,0,0,0-0.1c-2.3-0.1-4.7-0.2-7-0.2
		h0h0h0C276,120.4,175.4,221,175.4,345c0,11.7,0.9,23.1,2.6,34.3c-15.1,0.8-30,4.9-43.7,12.3l-19.4-179.5
		c-2.4-22-20.1-39.7-42.1-42.1c-14.1-1.5-28,3.3-38.2,13.2c-10.2,9.9-15.4,23.6-14.2,37.8l14.8,189.1c1.8,23.4,10.5,45.4,25.2,63.7
		l107.9,134.6c8.5,10.7,12.6,24,11.4,37.7l-1.9,21.7c0,0.5,0,0.9,0,1.3c0,0,0,0,0,0.1v0.9c0,5.2,4.3,9.5,9.5,9.5h147
		c0.2,0,0.3-0.1,0.5-0.1c0.3,0,0.5,0.1,0.8,0c4.4-0.5,8.2-3.7,9.2-8.2c8.7-39.7,8.1-75.7,1.6-108.2c17.2,4.2,35.1,6.5,53.6,6.5
		c18.5,0,36.4-2.3,53.6-6.5c-6.5,32.4-7,68.5,1.6,108.2c1,4.6,4.8,7.8,9.2,8.2c0.2,0,0.5-0.1,0.8,0c0.2,0,0.3,0.1,0.5,0.1h147
		c4.6,0,8.2-3.3,9.1-7.7c0.4-1.3,0.6-2.7,0.5-4.1l-1.9-21.7c-1.2-13.6,2.8-27,11.4-37.6l107.9-134.6c14.7-18.3,23.4-40.3,25.2-63.7
		L779.7,221C780.8,206.9,775.6,193.2,765.4,183.3z M76.8,460.6c-12-15-19.1-33-20.6-52.1L41.4,219.4c-0.6-7.9,2.3-15.5,7.9-21
		c5.7-5.5,13.4-8.1,21.2-7.3c12.2,1.3,22.1,11.2,23.4,23.4l21.3,196.7c0,0.4,0.2,0.7,0.3,1.1c0.1,0.4,0.2,0.7,0.3,1.1
		c0.4,1.2,0.9,2.3,1.7,3.3c0,0,0,0,0,0c0,0,0,0,0,0l81.4,101.1c3.7,4.5,10.3,5.3,14.8,1.6c4.5-3.7,5.3-10.3,1.6-14.8L141,412.2
		c12.7-7.7,26.9-11.6,41.3-11.9c7.8-0.1,15.5,0.8,23,2.9c12.6,3.4,24.6,9.8,34.7,19.3c27.8,26.1,56.9,61.9,74.3,106.7
		c3.3,8.6,6.2,17.5,8.6,26.8c7.9,30.9,9.8,65.4,2.6,103.7H199.6l1-11.7c1.7-19.1-4-37.8-15.9-52.7L76.8,460.6z M743.8,408.5
		c-1.5,19.1-8.6,37.1-20.6,52.1L615.3,595.3c-12,14.9-17.6,33.6-15.9,52.7l1,11.7H474.5c-7.3-38.2-5.3-72.8,2.6-103.7
		c2.4-9.3,5.3-18.2,8.6-26.8c17.4-44.8,46.4-80.6,74.3-106.7c10.1-9.5,22-15.8,34.7-19.3c7.5-2,15.3-3,23-2.9
		c14.3,0.2,28.6,4.2,41.3,11.9l-74.3,92.2c-3.7,4.5-2.9,11.2,1.6,14.8c4.5,3.7,11.2,2.9,14.8-1.6l81.4-101.1c0.8-1,1.3-2.1,1.7-3.3
		c0.1-0.4,0.2-0.7,0.3-1.1c0.1-0.4,0.2-0.7,0.3-1.1l21.3-196.7c1.3-12.2,11.2-22.1,23.4-23.4c7.8-0.8,15.6,1.8,21.2,7.3
		c5.6,5.5,8.5,13.1,7.9,21L743.8,408.5z"/>
	<path class="st0" d="M363.3,245.1v60.3h-60.3c-5.8,0-10.5,4.7-10.5,10.5v52.4c0,5.8,4.7,10.5,10.5,10.5h60.3v60.3
		c0,5.8,4.7,10.5,10.5,10.5h52.4c5.8,0,10.5-4.7,10.5-10.5V379h60.3c5.8,0,10.5-4.7,10.5-10.5V316c0-5.8-4.7-10.5-10.5-10.5h-60.3
		v-60.3c0-5.8-4.7-10.5-10.5-10.5h-52.4C368,234.6,363.3,239.3,363.3,245.1z M384.4,316v-60.3h31.3V316c0,5.8,4.7,10.5,10.5,10.5
		h60.3v31.3h-60.3c-5.8,0-10.5,4.7-10.5,10.5v60.3h-31.3v-60.3c0-5.8-4.7-10.5-10.5-10.5h-60.3v-31.3h60.3
		C379.6,326.5,384.4,321.8,384.4,316z"/>
	<path class="st0" d="M467.9,153.4c8.7,3.1,17.3,6.8,25.5,11.1c1.6,0.8,3.3,1.2,4.9,1.2c3.9,0,7.6-2.1,9.5-5.8
		c2.7-5.2,0.7-11.7-4.6-14.4c-9.1-4.7-18.6-8.8-28.2-12.2c-5.5-2-11.7,0.9-13.6,6.5C459.4,145.3,462.3,151.4,467.9,153.4z"/>
	<path class="st0" d="M557.7,216.8c2.1,2.6,5.2,3.9,8.3,3.9c2.4,0,4.8-0.8,6.7-2.4c4.6-3.7,5.3-10.5,1.5-15
		c-6.4-7.9-13.5-15.5-21-22.4c-4.3-4-11.1-3.8-15.1,0.5c-4,4.3-3.8,11.1,0.5,15.1C545.5,202.8,551.9,209.6,557.7,216.8z"/>
</g>
</svg>
