<?xml version="1.0" encoding="utf-8"?>
<!-- Generator: Adobe Illustrator 21.1.0, SVG Export Plug-In . SVG Version: 6.00 Build 0)  -->
<svg version="1.1" id="Layer_1" xmlns="http://www.w3.org/2000/svg" xmlns:xlink="http://www.w3.org/1999/xlink" x="0px" y="0px"
	 viewBox="0 0 512 512" style="enable-background:new 0 0 512 512;" xml:space="preserve">
<style type="text/css">
	.st0{fill:#808284;}
</style>
<g>
	<path class="st0" d="M501.9,109.7c-7.2-6.9-16.9-10.4-26.9-9.2c-15.5,1.7-28,14.1-29.6,29.6l-12.8,118c-8.1-4.1-16.9-6.6-26.1-7.3
		c1-7.1,1.6-14.4,1.6-21.6c0-17.2-2.9-34.2-8.6-50.4l-0.1-0.7c-0.2-0.7-0.5-1.3-0.8-2c-0.2-0.5-0.4-1-0.6-1.6l-0.8-2
		c-0.5-1.3-1-2.6-1.5-3.9c-0.9-2.1-2.6-3.8-4.8-4.7c-2.2-0.9-4.5-0.8-6.7,0.1c-2.1,0.9-3.8,2.6-4.7,4.8c-0.9,2.2-0.8,4.6,0.1,6.7
		c0.4,0.9,0.7,1.7,1,2.6l0.6,1.5c6.3,15.8,9.4,32.4,9.4,49.5c0,7.4-0.7,15-2,22.5c-13.7,2.4-26.2,8.5-36.2,17.9
		c-28.3,26.6-47.7,56.4-57.7,88.4c-25.1,7.5-52.3,7.5-77.4,0c-10-32-29.3-61.7-57.7-88.4c-10-9.4-22.5-15.5-36.2-17.9
		c-1.3-7.6-2-15.1-2-22.5c0-74.2,60.3-134.5,134.5-134.5c3,0,6,0.1,9,0.3l0.6,0c4.6,0,8.4-3.6,8.7-8.2c0.3-4.8-3.4-9-8.2-9.3
		c-1.3-0.1-2.6-0.1-3.9-0.1l-2.7-0.1c-1.2,0-2.4-0.1-3.6-0.1c-83.8,0-152,68.2-152,152c0,7.3,0.6,14.5,1.6,21.6
		c-9.3,0.7-18.1,3.2-26.2,7.3L66.6,130c-1.7-15.5-14.1-28-29.6-29.6c-10-1.1-19.7,2.3-26.9,9.2c-7.2,7-10.8,16.6-10,26.6L10,262.9
		c1.2,16,7.2,31,17.2,43.5l72.3,90.2c5.5,6.8,8.1,15.4,7.3,24.1l-1.3,14.5c0,0.2,0.1,0.4,0.1,0.7c0,0.1-0.1,0.3-0.1,0.4v0.6
		c0,4.4,3.6,8,8,8h98.5c0,0,0,0,0.1,0c0,0,0.1,0,0.1,0c0.3,0,0.6,0,0.9,0c3.7-0.4,6.8-3.1,7.6-6.8c5.3-24.2,5.7-48,1.4-70.8
		c11.2,2.6,22.6,4,34,4s22.9-1.4,34-4c-4.3,22.9-3.9,46.7,1.4,70.8c0.8,3.7,3.8,6.4,7.6,6.8c0.3,0,0.6,0,0.9,0c0,0,0,0,0.1,0
		c0,0,0,0,0,0h98.5c3.8,0,6.8-2.7,7.6-6.2c0,0,0-0.1,0-0.1c0.1-0.5,0.3-1.1,0.3-1.6v-0.6c0-0.1,0-0.2-0.1-0.3c0-0.3,0.1-0.5,0.1-0.8
		l-1.3-14.5c-0.8-8.7,1.8-17.3,7.3-24.1l72.2-90.2c10-12.5,16-27.6,17.2-43.5l9.9-126.7C512.7,126.3,509,116.6,501.9,109.7z
		 M204.6,428.4h-81.1l0.5-6.1c1.2-13.2-2.7-26.1-11-36.4l-72.2-90.2c-7.8-9.8-12.5-21.6-13.5-34l-9.9-126.7
		c-0.4-4.8,1.4-9.4,4.8-12.8c3.5-3.3,8.3-4.9,12.9-4.4c7.5,0.8,13.5,6.8,14.3,14.3l14.3,131.7c0,0.3,0.2,0.6,0.2,1
		c0.1,0.3,0.1,0.6,0.2,0.9c0.3,0.9,0.8,1.9,1.4,2.6l54.6,67.7c1.4,1.8,3.5,2.9,5.8,3.2c2.3,0.2,4.6-0.4,6.4-1.9
		c1.8-1.5,2.9-3.5,3.2-5.8c0.2-2.3-0.4-4.6-1.9-6.3l-48.7-60.4c7.6-4.3,16.2-6.6,25.3-6.8c5.1,0,10.1,0.6,15,1.9
		c8.5,2.3,16.3,6.6,22.5,12.5c22.9,21.5,39.5,45.3,49.4,70.9c2.3,6.1,4.2,11.9,5.7,17.8C208.3,382.6,208.8,405.3,204.6,428.4z
		 M494.6,134.9l-9.9,126.7c-1,12.5-5.6,24.3-13.5,34L399,385.8c-8.3,10.3-12.2,23.3-11,36.4l0.5,6.1h-81.1
		c-4.2-23-3.7-45.7,1.8-67.5c1.5-5.9,3.4-11.7,5.7-17.8c9.9-25.6,26.5-49.4,49.4-70.9c6.3-5.9,14.1-10.2,22.6-12.5
		c4.9-1.3,10-1.9,15-1.9c9.1,0.1,17.7,2.5,25.3,6.8L378.4,325c-3,3.7-2.4,9.2,1.3,12.2c3.7,3,9.2,2.4,12.2-1.3l54.5-67.7l0,0
		c0,0,0,0,0,0c1-1.2,1.4-2.6,1.7-4c0-0.2,0.2-0.3,0.2-0.5l14.3-131.7c0.8-7.5,6.8-13.5,14.3-14.3c4.6-0.5,9.5,1.1,12.9,4.4
		C493.2,125.4,495,130.1,494.6,134.9z"/>
	<path class="st0" d="M238.5,143.6c-4.8,0-8.7,3.9-8.7,8.7v38.8H191c-4.8,0-8.7,3.9-8.7,8.7v35.1c0,4.8,3.9,8.7,8.7,8.7h38.8v38.8
		c0,4.8,3.9,8.7,8.7,8.7h35.1c4.8,0,8.7-3.9,8.7-8.7v-38.8h38.8c4.8,0,8.7-3.9,8.7-8.7v-35.1c0-4.8-3.9-8.7-8.7-8.7h-38.8v-38.8
		c0-4.8-3.9-8.7-8.7-8.7H238.5z M312.4,208.4v17.8h-38.8c-4.8,0-8.6,3.9-8.6,8.7v38.8h-17.8v-38.8c0-4.8-3.9-8.7-8.7-8.7h-38.8
		v-17.8h38.8c4.8,0,8.7-3.9,8.7-8.7v-38.8h17.8v38.8c0,4.8,3.9,8.7,8.6,8.7H312.4z"/>
	<path class="st0" d="M301,92.3c5.8,2.1,11.5,4.5,16.9,7.3c1.3,0.6,2.6,1,4,1c3.3,0,6.3-1.8,7.8-4.7c2.2-4.3,0.5-9.6-3.8-11.8
		c-6.1-3.2-12.5-6-19.1-8.3c-4.6-1.6-9.6,0.8-11.2,5.3c-0.8,2.2-0.6,4.6,0.4,6.7C297,90,298.7,91.5,301,92.3z"/>
	<path class="st0" d="M360.4,134.3c1.7,2,4.1,3.2,6.8,3.2c2,0,4-0.7,5.5-2c1.8-1.5,2.9-3.6,3.2-5.9c0.2-2.3-0.4-4.6-1.9-6.4
		c-4.3-5.3-9.1-10.4-14.2-15.2c-1.7-1.6-4-2.6-6.3-2.3c-2.3,0.1-4.5,1.1-6.1,2.8c-3.3,3.5-3.1,9.1,0.4,12.4
		C352.3,125,356.5,129.5,360.4,134.3z"/>
</g>
</svg>
