<?xml version="1.0" encoding="utf-8"?>
<!-- Generator: Adobe Illustrator 21.1.0, SVG Export Plug-In . SVG Version: 6.00 Build 0)  -->
<svg version="1.1" id="Layer_1" xmlns="http://www.w3.org/2000/svg" xmlns:xlink="http://www.w3.org/1999/xlink" x="0px" y="0px"
	 viewBox="0 0 800 800" style="enable-background:new 0 0 800 800;" xml:space="preserve">
<style type="text/css">
	.st0{fill:#E9635E;}
</style>
<g>
	<g>
		<path class="st0" d="M503.2,266.9c-3.3-33.4-28.3-57.6-59.6-57.6c-16.1,0-31.8,8-43.6,22.2c-11.8-14.2-27.4-22.2-43.6-22.2
			c-31.3,0-56.4,24.2-59.6,57.4c-0.4,2.8-1.1,10.5,1.8,22.3c4.4,17.6,14.4,33.6,29.1,46.3l61.2,52.3v57.8c0,6.2,5,11.1,11.1,11.1
			s11.1-5,11.1-11.1v-57.8l61.2-52.4c14.6-12.6,24.7-28.6,29.1-46.2C504.3,277.2,503.6,269.4,503.2,266.9z M478.9,283.4L478.9,283.4
			c-3.2,13-10.7,24.8-21.7,34.3l-57.2,49l-57.2-49c-11-9.5-18.5-21.3-21.7-34.3c-2.1-8.3-1.4-13-1.4-13l0.2-1
			c1.7-18.3,14.8-36.9,36.6-36.9c15,0,27.4,12.7,33,25.3l7,15.8c0.6,1.4,2,2.3,3.6,2.3c1.5,0,2.9-0.9,3.6-2.3l7-15.8
			c5.6-12.6,18-25.3,33-25.3c22.8,0,35,19.5,36.7,37.2c0,0.2,0,0.4,0,0.5C480.4,270.7,480.9,275.4,478.9,283.4z"/>
		<circle class="st0" cx="400" cy="484.7" r="11.1"/>
	</g>
	<path class="st0" d="M600.5,662.9h-11.1v-11.1c0-18.5-15-33.4-33.4-33.4h-11.1v-79.1c0-56.2-27.7-108-73.3-139.2
		c37.7-25.9,62.4-65.5,70.3-109c1.3-7-3.9-13.4-10.9-13.4h0c-5.5,0-10,4.1-11,9.5c-7.9,43.6-35.1,81.8-75.1,103.1
		c-3.6,1.9-5.9,5.7-5.9,9.8c0,4.1,2.3,7.9,5.9,9.8c47.9,25.5,77.7,75.1,77.7,129.4v79.1h-22.9c-4-38.2-29.4-51.7-60.8-68.4
		L405.2,532c-3.3-1.7-7.2-1.7-10.5,0l-33.6,17.9c-31.4,16.7-56.8,30.2-60.8,68.4h-22.9v-79.1c0-54.1,29.8-103.9,77.6-129.4
		c3.6-1.9,5.9-5.7,5.9-9.8c0-4.1-2.3-7.9-5.9-9.8c-47.9-25.5-77.6-75.1-77.6-129.4v-79.1h245.1v17.1c0,5.8,4.7,10.5,10.5,10.5h1.3
		c5.8,0,10.5-4.7,10.5-10.5v-17.1H556c18.5,0,33.4-15,33.4-33.4v-11.1h11.1c6.1,0,11.1-5,11.1-11.1s-5-11.1-11.1-11.1h-401
		c-6.2,0-11.1,5-11.1,11.1s5,11.1,11.1,11.1h11.1v11.1c0,18.5,15,33.4,33.4,33.4h11.1v79.1c0,56.2,27.7,108,73.3,139.2
		c-46.6,32-73.3,84.5-73.3,139.2v79.1h-11.1c-18.5,0-33.4,15-33.4,33.4v11.1h-11.1c-6.2,0-11.1,5-11.1,11.1c0,6.2,5,11.1,11.1,11.1
		h401c6.1,0,11.1-5,11.1-11.1C611.6,667.9,606.7,662.9,600.5,662.9z M244.1,159.4c-6.2,0-11.1-5-11.1-11.1v-11.1h334.2v11.1
		c0,6.2-5,11.1-11.1,11.1H244.1z M371.6,569.6l28.4-15.1l28.4,15.1c29.9,15.9,45.5,24.2,48.9,48.7H322.7
		C326.1,593.8,341.7,585.5,371.6,569.6z M567.1,662.9H232.9v-11.1c0-6.2,5-11.1,11.1-11.1H556c6.2,0,11.1,5,11.1,11.1V662.9z"/>
	<path class="st0" d="M533.5,268.8L533.5,268.8c-6.2,0-11.3-5.1-11.3-11.3v-26.4c0-6.2,5.1-11.3,11.3-11.3l0,0
		c6.2,0,11.3,5.1,11.3,11.3v26.4C544.8,263.7,539.7,268.8,533.5,268.8z"/>
</g>
</svg>
