<?xml version="1.0" encoding="utf-8"?>
<!-- Generator: Adobe Illustrator 21.1.0, SVG Export Plug-In . SVG Version: 6.00 Build 0)  -->
<svg version="1.1" id="Layer_1" xmlns="http://www.w3.org/2000/svg" xmlns:xlink="http://www.w3.org/1999/xlink" x="0px" y="0px"
	 viewBox="0 0 800 800" style="enable-background:new 0 0 800 800;" xml:space="preserve">
<style type="text/css">
	.st0{fill:#E9635E;}
</style>
<g>
	<path class="st0" d="M165.8,422.4c0.7,0,1.3,0,2,0c29.7,0.9,55-16.9,73.5-51.4c12.4-23.1,18.9-50.6,18.9-79.3
		c0-20.3-10.1-39-27-49.9c-15.1-9.8-38.8-21.5-65.5-21.5c-25.8,0-47.5,9-61.2,16.6C87.7,247.2,76,267.1,76,288.9v2.8
		c0,28.5,6.4,55.8,18.6,78.7C112.7,404.5,137.4,422.4,165.8,422.4z M96.4,288.9c0-14.3,7.6-27.5,20-34.3
		c11.6-6.4,29.9-14.1,51.4-14.1c21.7,0,41.6,9.9,54.4,18.2c11.1,7.2,17.7,19.5,17.7,32.9c0,25.4-5.7,49.6-16.5,69.7
		c-14.8,27.6-33.3,41.3-55.5,40.7c-22.1,0.6-40.4-13.2-55.2-41.2c-10.6-20-16.2-44-16.2-69.2V288.9z"/>
	<path class="st0" d="M10.2,573.4h150.5c5.6,0,10.2-4.5,10.2-10.2c0-5.6-4.5-10.2-10.2-10.2H21c5.2-49.8,37.2-88.8,74.7-88.8h100.5
		c5.6,0,10.2-4.6,10.2-10.2c0-5.6-4.5-10.2-10.2-10.2H95.7c-51.9,0-94,52.3-95.7,119c-0.1,2.7,1,5.4,2.9,7.4
		C4.8,572.3,7.4,573.4,10.2,573.4z"/>
	<path class="st0" d="M631.6,422.4c0.7,0,1.3,0,2,0c28.9,0,53.7-18,71.8-52c12.2-23,18.6-50.2,18.6-78.7v-2.8
		c0-21.7-11.7-41.7-30.5-52.1c-13.7-7.6-35.4-16.6-61.2-16.6c-26.7,0-50.3,11.7-65.5,21.5c-16.9,10.9-27,29.6-27,49.9
		c0,28.8,6.5,56.2,18.9,79.3C577.2,405.4,602.7,423.2,631.6,422.4z M577.9,258.7c12.8-8.3,32.7-18.2,54.4-18.2
		c21.4,0,39.8,7.6,51.4,14.1c12.3,6.8,20,19.9,20,34.3v2.8c0,25.2-5.6,49.2-16.2,69.2c-14.8,28-33.2,41.8-55.8,41.2
		c-21.7,0.6-40.2-13.1-54.9-40.7c-10.8-20.2-16.5-44.3-16.5-69.7C560.2,278.2,566.8,265.9,577.9,258.7z"/>
	<path class="st0" d="M603.8,444c-5.6,0-10.2,4.5-10.2,10.2c0,5.6,4.5,10.2,10.2,10.2h100.5c37.5,0,69.6,38.9,74.7,88.8H639.4
		c-5.6,0-10.2,4.6-10.2,10.2c0,5.6,4.5,10.2,10.2,10.2h150.5c2.7,0,5.4-1.1,7.3-3.1c1.9-2,3-4.6,2.9-7.4
		c-1.8-66.7-43.8-119-95.7-119H603.8z"/>
	<path class="st0" d="M397.3,384.6c0.8,0,1.6,0,2.4,0c36.1,1.1,67-20.7,89.5-63c15.3-28.5,23.3-62.4,23.3-98
		c0-24.5-12.2-47.1-32.6-60.3c-18.6-12.1-47.7-26.4-80.5-26.4c-31.7,0-58.4,11.1-75.3,20.4c-22.7,12.5-36.8,36.6-36.8,62.9v3.5
		c0,35.3,7.9,68.9,22.9,97.3C332.5,362.6,362.7,384.6,397.3,384.6z M307.8,220.2c0-18.8,10.1-36.1,26.3-45.1
		c14.8-8.2,38.1-17.9,65.5-17.9c27.8,0,53.1,12.6,69.4,23.2c14.6,9.5,23.3,25.6,23.3,43.2c0,32.2-7.2,62.8-20.9,88.4
		c-18.9,35.4-42.7,53-71.6,52.2c-0.6,0-1.2,0-1.8,0c-27.6,0-50.9-17.8-69.5-52.9c-13.5-25.4-20.6-55.8-20.6-87.7V220.2z"/>
	<path class="st0" d="M490.5,416.7H309.5c-63.5,0-115,64.2-117.2,146.3c-0.1,2.7,1,5.4,2.9,7.4c1.9,2,4.5,3.1,7.3,3.1h394.9
		c2.7,0,5.4-1.1,7.3-3.1c1.9-2,3-4.6,2.9-7.4C605.4,481,554,416.7,490.5,416.7z M213.3,553.1c5.7-64.9,47.3-116,96.2-116h180.9
		c48.9,0,90.6,51.2,96.2,116H213.3z"/>
	<path class="st0" d="M789.8,593.7H10.2c-5.6,0-10.2,4.5-10.2,10.2c0,5.6,4.5,10.2,10.2,10.2h779.7c5.6,0,10.2-4.5,10.2-10.2
		C800,598.3,795.5,593.7,789.8,593.7z"/>
	<path class="st0" d="M197.1,642.7H159c-4.1,0-7.4,4.5-7.4,10.2c0,5.6,3.3,10.2,7.4,10.2h38.2c4.1,0,7.4-4.5,7.4-10.2
		C204.6,647.3,201.2,642.7,197.1,642.7z"/>
	<path class="st0" d="M328.4,642.7h-92.3c-4.1,0-7.4,4.5-7.4,10.2c0,5.6,3.3,10.2,7.4,10.2h92.3c4.1,0,7.4-4.5,7.4-10.2
		C335.8,647.3,332.5,642.7,328.4,642.7z"/>
	<path class="st0" d="M408.7,642.7h-38.2c-4.1,0-7.4,4.5-7.4,10.2c0,5.6,3.3,10.2,7.4,10.2h38.2c4.1,0,7.4-4.5,7.4-10.2
		C416.1,647.3,412.8,642.7,408.7,642.7z"/>
	<path class="st0" d="M616.6,642.7h-38.2c-4.1,0-7.4,4.5-7.4,10.2c0,5.6,3.3,10.2,7.4,10.2h38.2c4.1,0,7.4-4.5,7.4-10.2
		C624,647.3,620.7,642.7,616.6,642.7z"/>
	<path class="st0" d="M540,642.7h-92.3c-4.1,0-7.4,4.5-7.4,10.2c0,5.6,3.3,10.2,7.4,10.2H540c4.1,0,7.4-4.5,7.4-10.2
		C547.4,647.3,544.1,642.7,540,642.7z"/>
</g>
</svg>
