<?xml version="1.0" encoding="utf-8"?>
<!-- Generator: Adobe Illustrator 21.1.0, SVG Export Plug-In . SVG Version: 6.00 Build 0)  -->
<svg version="1.1" id="Layer_1" xmlns="http://www.w3.org/2000/svg" xmlns:xlink="http://www.w3.org/1999/xlink" x="0px" y="0px"
	 viewBox="0 0 512 512" style="enable-background:new 0 0 512 512;" xml:space="preserve">
<style type="text/css">
	.st0{fill:#808284;}
</style>
<g>
	<path class="st0" d="M346.5,116c7,2.6,13.7,6.1,19.8,10.6c1.6,1.1,3.4,1.7,5.2,1.7c2.7,0,5.4-1.3,7.1-3.6c2.8-3.9,2-9.4-2-12.3
		c-7.5-5.4-15.6-9.8-24.1-12.9c-4.6-1.7-9.6,0.7-11.3,5.2C339.6,109.3,341.9,114.3,346.5,116z"/>
	<path class="st0" d="M503.7,229.1l-97.2-85.4c-6.2-5.9-14.2-8.8-22.1-8.8c-8.6,0-17.2,3.4-23.5,10.1c-12.2,12.9-11.6,33.5,1.4,45.7
		l1.7,1.6h-38.2c-10.9-14.6-27.6-24-46.4-24c-14.5,0-28.3,5.6-39.1,15.8c-10.8-10.1-24.6-15.8-39.1-15.8c-31.8,0-57.7,27-59.4,60.7
		H92.6h0c-1.2-5.3-2.1-10.7-2.5-16.2c-0.4-4.1-0.4-6.6-0.3-7.6c0-51.9,38.2-94.1,85.3-94.1c25.2,0,49,12.3,65.3,33.7
		c3.3,4.4,10.7,4.4,14,0c10.1-13.2,23.2-23.2,37.9-28.7c3.3-1.2,6.7-2.3,10.1-3c4.7-1.1,7.7-5.8,6.6-10.5c-1.1-4.7-5.8-7.7-10.5-6.6
		c-4.2,0.9-8.3,2.2-12.4,3.7c-14.6,5.5-27.8,14.4-38.7,26.2c-19.2-20.6-45-32.3-72.3-32.3c-56.7,0-102.8,50.1-102.8,111.6
		c0,1.2,0,4.4,0.4,9.2c0.4,5,1.1,9.9,2,14.7H56c-4.2,0-8.2,1.6-11.3,4.5L5.2,270.6c-3.3,3.1-5.2,7.5-5.2,12v68.5v16.5
		c0,4.8,2.1,9.3,5.7,12.5l8.9,7.7L33,403.7l12.3,10.6c3,2.6,6.8,4,10.8,4h11.1h1.6h7.8h114.6c16.1,0,32.1-4.6,45.4-11.7
		c0.3,0.2,0.6,0.3,0.9,0.5c2,1,3.8,2,5.9,3c1.2,0.6,2.5,0.9,3.8,0.9c1.3,0,2.6-0.3,3.8-0.9c19.5-9.5,36.8-19.3,52.2-29.4
		c2.4,0.6,4.8,1,7.4,1l183.4,0.6c9.9,0,18-8.1,18-18V247.3C512,240.3,509,233.7,503.7,229.1z M372.6,156.2c3.1-3.3,7.3-5,11.8-5
		c4.2,0,8.1,1.6,11.1,4.4l39.2,36.9l-47.2,0l-14.2-13.4C366.7,172.9,366.4,162.7,372.6,156.2z M220.1,398c-8.7,3.3-19,5.7-28.9,5.7
		H76.6h-7.8h-0.6c-4.8,0-9.5-1.7-13.1-4.9l-33.5-29c-4.4-3.8-6.9-9.3-6.9-15.1v-59.8c0-5.6,2.3-10.9,6.4-14.7l33.6-31
		c3.7-3.4,8.5-5.3,13.6-5.3H185c8,0,14.6,5.4,16.8,12.7c1.2,4.1,1.4,8.5-2.6,14c-4,5.5-10.7,8.4-17.5,8.4h-0.6h-71.4
		c-7.4,0-12.1,8.2-8.1,14.5l0.1,0.1h0c21.4,33.8,57.7,71.1,118.7,104.7C220.2,398.1,220.2,398.1,220.1,398z M287.4,328.9
		c-4.8,5.7-7.8,13-7.8,21c0,2.5,0.3,4.9,0.8,7.3c0.1,0,0.1-0.1,0.2-0.1c0.6,3.3,1.9,6.4,3.5,9.3c0,0.1,0.1,0.1,0.1,0.2
		c0.2,0.3,0.3,0.6,0.5,0.9c0.6,1,1.3,1.9,2,2.8c-6.1,3.9-12.5,7.7-19.3,11.5c-6.5,3.6-13.2,7.2-20.3,10.7c-2.6-1.3-5-2.6-7.6-3.9
		c-58.7-30.3-94.9-64-116.9-95h47.1c14.1,18,36.2,36.9,70.6,53.6c1.2,0.6,2.5,0.9,3.8,0.9c1.3,0,2.6-0.3,3.8-0.9
		c14.6-7.1,26.8-14.6,37.3-22.2c0.6,1,1,2,1.6,3l0.7,0.9C287.6,328.8,287.5,328.9,287.4,328.9z M280.1,223c0,8.3,3.3,15.9,8.7,21.4
		c-5.4,5.5-8.7,13.1-8.7,21.4c0,8.3,3.3,15.9,8.7,21.4c-3,3-5.2,6.7-6.7,10.7c-1,2.8-1.6,5.7-1.8,8.8c-9.7,7.7-21.5,15.4-36,22.7
		c-23.4-11.8-39.9-24.6-51.7-36.9c-0.1,0-0.2,0-0.4,0c11.8-2.8,21.3-12.1,24.1-23.9c0.6-2.4,0.9-4.8,0.9-7.4
		c0-5.3-1.4-10.1-3.6-14.5c-5.3-10.4-16.1-17.7-28.6-17.7h-21.7h-4C161,205,179.1,186,201.2,186c12.4,0,24.1,6.1,32.1,16.6
		c3.3,4.4,10.7,4.4,14,0c8-10.6,19.7-16.6,32.1-16.6c8.6,0,16.5,3,23.1,7.9c-1.4,0.3-2.6,0.7-3.7,1.1c-2.4,1-4.7,2.1-6.7,3.7
		C284.4,204.7,280.1,213.5,280.1,223z M496.2,331.8v24c0,5.7-4.6,10.4-10.4,10.4l-169.6-0.6h-7.1c-5.3,0-10.2-3-12.2-7.7
		c-0.4-0.9-0.7-1.8-0.8-2.7c-1.3-7.8,4.8-14.7,12.4-14.7h10.9h7.9c4.9,0,8.8-3.7,9.4-8.4c0-0.3,0.1-0.7,0.1-1c0-1.8-0.7-3.4-1.5-4.9
		c-1.7-2.7-4.5-4.6-7.9-4.6h-3.4h-15.5c-2.5,0-4.8-0.8-6.8-2.1c-3.4-2.3-5.7-6.1-5.7-10.4c0-1.4,0.3-2.9,0.8-4.4
		c1.7-4.5,6-7.3,10.7-7.9c0.7-0.1,1.3-0.3,1.9-0.3l17.9,0c5.2,0,9.5-4.2,9.5-9.5c0-5.2-4.2-9.5-9.5-9.5h-6.4h-11.7
		c-2.8,0-5.4-0.9-7.6-2.3c-2.8-1.8-4.9-4.7-5.4-8.1c-1.3-7.8,4.8-14.7,12.4-14.7h4.6h14.3c1.6,0,3.1-0.5,4.5-1.3
		c2.9-1.6,5-4.6,5-8.2c0-2.4-1-4.5-2.4-6.2c-1.7-2-4.2-3.3-7-3.3h-10.4h-7.7c-6.3,0-12.1-4.3-13.1-10.4c-1.3-7.8,4.7-14.7,12.4-14.7
		h2.3H381h71.2l0.6,0.6l36.8,31.9c4.1,3.6,6.5,8.7,6.5,14.2V331.8z"/>
</g>
</svg>
