<?xml version="1.0" encoding="utf-8"?>
<!-- Generator: Adobe Illustrator 21.1.0, SVG Export Plug-In . SVG Version: 6.00 Build 0)  -->
<svg version="1.1" id="Layer_1" xmlns="http://www.w3.org/2000/svg" xmlns:xlink="http://www.w3.org/1999/xlink" x="0px" y="0px"
	 viewBox="0 0 800 800" style="enable-background:new 0 0 800 800;" xml:space="preserve">
<style type="text/css">
	.st0{fill:#E9635E;}
</style>
<g>
	<path class="st0" d="M531.5,196.6c10.2,3.7,19.8,8.9,28.8,15.4c2.3,1.6,4.9,2.4,7.5,2.4c3.9,0,7.8-1.8,10.3-5.3
		c4.1-5.7,2.9-13.7-2.8-17.8c-10.9-7.9-22.6-14.2-35-18.7c-6.6-2.4-14,1-16.4,7.6C521.5,186.8,524.9,194.1,531.5,196.6z"/>
	<path class="st0" d="M760,360.9l-141.3-124c-9-8.5-20.6-12.7-32.2-12.7c-12.5,0-25,4.9-34.2,14.7c-17.7,18.8-16.8,48.7,2,66.4
		l2.5,2.3l-55.5,0c-15.9-21.3-40.2-34.9-67.4-34.9c-21.1,0-41.1,8.2-56.8,22.9c-15.6-14.7-35.7-22.9-56.8-22.9
		c-46.1,0-83.9,39.2-86.4,88.2h-71.4h0c-1.8-7.7-3.1-15.5-3.7-23.5c-0.6-6-0.5-9.6-0.5-11c0-75.4,55.6-136.8,123.9-136.8
		c36.7,0,71.3,17.8,94.9,48.9c4.8,6.4,15.5,6.4,20.3,0c14.6-19.2,33.7-33.7,55.1-41.7v0c4.8-1.8,9.7-3.3,14.7-4.4
		c6.9-1.6,11.2-8.4,9.6-15.3c-1.6-6.9-8.4-11.2-15.3-9.6c-6,1.4-12.1,3.2-17.9,5.4c-21.2,7.9-40.4,21-56.3,38.1
		c-27.9-30-65.4-46.9-105.1-46.9c-82.4,0-149.4,72.8-149.4,162.1c0,1.7-0.1,6.4,0.6,13.3c0.5,7.2,1.6,14.4,3,21.4h-27
		c-6.1,0-12,2.3-16.4,6.5l-57.4,53.9c-4.8,4.5-7.6,10.9-7.6,17.5v99.5v24c0,7,3,13.6,8.3,18.1l13,11.2l26.6,23.1l17.9,15.5
		c4.4,3.8,9.9,5.9,15.7,5.9h16.2h2.3h11.4h166.5c23.4,0,46.7-6.6,66-17c0.5,0.2,0.9,0.5,1.4,0.7c2.9,1.4,5.6,2.9,8.5,4.4
		c1.8,0.8,3.7,1.3,5.6,1.3c1.9,0,3.8-0.4,5.6-1.3c28.4-13.7,53.4-28,75.7-42.7c3.5,0.9,7.1,1.4,10.8,1.4l266.4,0.8
		c14.4,0,26.2-11.7,26.2-26.2V387.3C772,377.2,767.6,367.6,760,360.9z M569.4,254.9c4.5-4.7,10.5-7.3,17.1-7.3
		c6,0,11.8,2.3,16.1,6.3l57,53.7l-68.6,0l-20.6-19.4C560.9,279.3,560.5,264.4,569.4,254.9z M320.3,298.2c18,0,35,8.8,46.6,24.1
		c4.8,6.4,15.5,6.4,20.3,0c11.7-15.3,28.6-24.1,46.6-24.1c12.5,0,24,4.3,33.7,11.5c-2,0.5-3.9,1.1-5.5,1.7c-3.5,1.4-6.8,3.1-9.7,5.4
		c-11.1,8.6-17.4,21.5-17.4,35.2c0,12.1,4.8,23,12.7,31.1c-7.8,8-12.7,19-12.7,31.1c0,12.1,4.8,23,12.7,31.1
		c-4.3,4.4-7.6,9.7-9.8,15.6c-1.5,4-2.4,8.3-2.6,12.8c-14.1,11.2-31.3,22.4-52.3,33c-34-17.1-58-35.8-75.2-53.6
		c-0.2,0-0.4,0.1-0.6,0.1c17.1-4.1,31-17.6,35.1-34.7c0.8-3.5,1.3-7,1.3-10.7c0-7.6-2-14.7-5.3-21.1c-7.7-15.2-23.3-25.7-41.5-25.7
		h-31.5h-5.8C262,325.9,288.3,298.2,320.3,298.2z M139.3,614.6H128h-0.9c-7,0-13.7-2.5-19-7.1l-48.7-42.2c-6.4-5.5-10-13.5-10-22
		v-87c0-8.1,3.4-15.9,9.3-21.4l48.8-45.1c5.4-5,12.4-7.7,19.7-7.7h169.7c11.6,0,21.3,7.8,24.4,18.4c1.7,5.9,2.1,12.4-3.7,20.3
		c-5.9,8-15.6,12.2-25.5,12.2h-0.9H187.3c-10.8,0-17.6,11.9-11.8,21.1l0.1,0.2h0c31,49,83.7,103.2,172.2,151.9
		c-12.7,4.8-27.6,8.2-41.9,8.2H139.3z M304,453.7c-0.6,0.1-1.2,0.2-1.8,0.3C302.8,454,303.4,453.8,304,453.7z M387.3,598.3
		c-3.8-1.9-7.3-3.8-11-5.7c-85.3-44-137.9-93-169.9-138.1h68.5c20.5,26.1,52.6,53.7,102.6,77.9c1.8,0.8,3.7,1.3,5.6,1.3
		c1.9,0,3.8-0.4,5.6-1.3c21.1-10.2,38.9-21,54-32.1c0.8,1.4,1.6,2.8,2.6,4.1l1,1.3c-0.1,0.1-0.3,0.2-0.4,0.3
		c-7,8.2-11.3,18.9-11.3,30.5c0,3.6,0.4,7.2,1.2,10.6c0.1-0.1,0.2-0.1,0.2-0.2c0.9,4.8,2.7,9.4,5.1,13.5c0.1,0.1,0.1,0.2,0.2,0.3
		c0.2,0.4,0.5,0.8,0.8,1.2c0.9,1.4,1.9,2.8,3,4.1c-8.9,5.6-18.1,11.2-28.1,16.7C407.4,588,397.6,593.2,387.3,598.3z M749,510.2v34.9
		c0,8.3-6.7,15.1-15.1,15.1l-246.4-0.8h-10.3c-7.7,0-14.8-4.4-17.8-11.2c-0.5-1.3-1-2.6-1.2-4c-1.9-11.4,6.9-21.3,18-21.3h15.9h11.5
		c7.1,0,12.8-5.4,13.6-12.3c0.1-0.5,0.2-1,0.2-1.5c0-2.7-1-5-2.3-7.1c-2.4-3.9-6.6-6.7-11.5-6.7h-4.9h-22.5c-3.6,0-7-1.1-9.9-3.1
		c-4.9-3.3-8.3-8.9-8.3-15.1c0-2.1,0.4-4.2,1.2-6.4c2.4-6.5,8.7-10.6,15.6-11.5c0.9-0.1,1.9-0.4,2.8-0.4l26.1,0
		c7.6,0,13.8-6.2,13.8-13.8c0-7.6-6.2-13.8-13.8-13.8h-9.4h-17c-4,0-7.9-1.3-11.1-3.4c-4.1-2.7-7.1-6.8-7.9-11.8
		c-1.9-11.4,6.9-21.3,18-21.3h6.7h20.7c2.4,0,4.5-0.8,6.5-1.8c4.3-2.3,7.3-6.7,7.3-11.9c0-3.5-1.4-6.6-3.6-9
		c-2.5-2.8-6.1-4.7-10.2-4.7h-15.1h-11.2c-9.1,0-17.5-6.2-19-15.1c-1.9-11.4,6.9-21.3,18-21.3h3.3h102.1h103.4l0.9,0.8l53.5,46.3
		c6,5.2,9.4,12.7,9.4,20.6V510.2z"/>
</g>
</svg>
