<?xml version="1.0" encoding="utf-8"?>
<!-- Generator: Adobe Illustrator 22.1.0, SVG Export Plug-In . SVG Version: 6.00 Build 0)  -->
<svg version="1.1" id="Layer_1" xmlns="http://www.w3.org/2000/svg" xmlns:xlink="http://www.w3.org/1999/xlink" x="0px" y="0px"
	 viewBox="0 0 65 65" style="enable-background:new 0 0 65 65;" xml:space="preserve">
<style type="text/css">
	.st0{fill:#A6A6A6;}
	.st1{fill:#FFFFFF;}
</style>
<path class="st0" d="M57.5,28.7l-3.8-2.8v0L32.9,10.6L11.8,25.9v0l-3.7,2.7l1.3,1.3l2.3-1.7v26.6h41.8V28.2l2.5,1.8L57.5,28.7z
	 M46.2,33.3l-2.7,0.6c-0.1-0.4-0.4-0.7-0.7-1l1.2-1.7l2.3,1.4c-0.1,0.2-0.1,0.4-0.1,0.6C46.2,33.3,46.2,33.3,46.2,33.3z M39.9,35.4
	l-2.1,1.4c-0.2-0.3-0.6-0.5-1-0.5c-0.3,0-0.6,0.1-0.8,0.3l-3.3-3.3c0.2-0.2,0.3-0.5,0.3-0.8c0-0.7-0.6-1.3-1.3-1.3
	c-0.3,0-0.6,0.1-0.8,0.3l-3.6-3.6c0.1-0.1,0.1-0.2,0.2-0.4l10,0.3c0.1,0.7,0.6,1.2,1.3,1.2c0.4,0,0.8-0.2,1-0.5l4,2.5l-1.2,1.7
	c-0.3-0.2-0.6-0.3-1-0.3c-1.1,0-2,0.9-2,2C39.6,34.8,39.7,35.1,39.9,35.4z M33.2,43.4l-0.8,4.1c0,0,0,0,0,0c-0.5,0-0.8,0.3-0.9,0.8
	h-5.1C26.3,47.6,25.7,47,25,47c-0.1,0-0.3,0-0.4,0.1L20.7,38c0.2-0.1,0.4-0.3,0.5-0.5l3.6,1.5c-0.1,0.2-0.1,0.4-0.1,0.6
	c0,1.1,0.9,2,2,2c1.1,0,2-0.9,2-2c0-0.1,0-0.2,0-0.2l6.8-1.3c0.1,0.2,0.2,0.5,0.4,0.6l-2,3c-0.1-0.1-0.2-0.1-0.4-0.1
	c-0.5,0-0.9,0.4-0.9,0.9C32.6,42.9,32.9,43.2,33.2,43.4z M23.3,52.9l1.4-3.2c0.1,0,0.2,0.1,0.4,0.1c0.7,0,1.2-0.5,1.3-1.2h5.1
	c0.1,0.4,0.5,0.8,0.9,0.8c0,0,0,0,0,0l0.7,3.6H23.3z M18.1,47.5l1.9-9.4c0,0,0.1,0,0.1,0c0.1,0,0.2,0,0.4-0.1l3.9,9.2
	c-0.4,0.2-0.7,0.7-0.7,1.2c0,0.5,0.3,0.9,0.7,1.2l-1.4,3.4h-4.1l-0.7-3.6c0.3-0.1,0.6-0.5,0.6-0.9C18.7,48,18.4,47.7,18.1,47.5z
	 M31.6,33.9c0.3,0,0.6-0.1,0.8-0.3l3.3,3.3c-0.2,0.2-0.3,0.5-0.3,0.8c0,0,0,0.1,0,0.1l-6.8,1.3c-0.2-0.8-1-1.5-1.9-1.5
	c-0.8,0-1.4,0.4-1.8,1.1l-3.6-1.5c0-0.1,0.1-0.2,0.1-0.4c0-0.4-0.2-0.8-0.5-1l5.1-7.6c0.1,0.1,0.2,0.1,0.4,0.1
	c0.2,0,0.4-0.1,0.5-0.2l3.6,3.6c-0.2,0.2-0.3,0.5-0.3,0.8C30.3,33.3,30.9,33.9,31.6,33.9z M44,30.8l-4-2.5c0.1-0.2,0.1-0.4,0.1-0.6
	c0,0,0-0.1,0-0.1l6.2-1.2c0.1,0.2,0.2,0.4,0.4,0.6L44,30.8z M46.1,25.9c0,0,0,0.1,0,0.1L40,27.3c-0.2-0.5-0.7-0.9-1.3-0.9
	c-0.7,0-1.2,0.5-1.3,1.1l-10-0.3c0-0.1,0-0.2-0.1-0.3l7.6-5.1c0.2,0.3,0.6,0.5,1,0.5c0.7,0,1.3-0.6,1.3-1.3c0,0,0-0.1,0-0.1l5.1-1
	l5,3.7l0,1.1C46.7,24.7,46.1,25.2,46.1,25.9z M13.6,26.8l0.9-0.7l0,0l18.3-13.3l9.1,6.7l-4.8,1c-0.2-0.5-0.7-0.9-1.3-0.9
	c-0.7,0-1.3,0.6-1.3,1.3c0,0.2,0.1,0.4,0.2,0.6l-7.6,5.1c-0.2-0.2-0.4-0.3-0.7-0.3c-0.5,0-0.9,0.4-0.9,0.9c0,0.3,0.1,0.5,0.3,0.7
	l-5.1,7.6c-0.2-0.1-0.4-0.2-0.6-0.2c-0.7,0-1.3,0.6-1.3,1.3c0,0.6,0.4,1.1,0.9,1.3l-1.9,9.4c0,0,0,0,0,0c-0.5,0-0.9,0.4-0.9,0.9
	c0,0.5,0.4,0.9,0.9,0.9c0,0,0,0,0,0l0.7,3.6h-4.9V26.8z M33.5,52.9l-0.7-3.6c0.4-0.1,0.6-0.5,0.6-0.9c0-0.4-0.2-0.7-0.6-0.9l0.8-4.1
	c0,0,0,0,0,0c0.5,0,0.9-0.4,0.9-0.9c0-0.3-0.1-0.5-0.3-0.7l2-2.9c0.2,0.1,0.4,0.2,0.6,0.2c0.7,0,1.3-0.6,1.3-1.3
	c0-0.2-0.1-0.4-0.2-0.6l2.1-1.4c0.4,0.5,0.9,0.8,1.6,0.8c1.1,0,2-0.9,2-2c0-0.1,0-0.2,0-0.3l2.7-0.6c0.2,0.5,0.7,0.9,1.3,0.9
	c0.6,0,1.1-0.4,1.3-0.9l3,0.6v18.6H33.5z M51.8,34l-3-0.6c0,0,0-0.1,0-0.1c0-0.7-0.6-1.3-1.3-1.3c-0.4,0-0.8,0.2-1,0.5l-2.3-1.4
	l2.6-3.8c0.2,0.1,0.4,0.2,0.6,0.2c0.7,0,1.3-0.6,1.3-1.3c0-0.7-0.5-1.2-1.2-1.3l0-0.9l3.4,2.5l0,0l0.8,0.6V34z"/>
<g id="_x3C_Group_x3E__hover">
	<path class="st1" d="M52.1,34l-3.3-0.7c0,0,0-0.1,0-0.1c0-0.7-0.6-1.3-1.3-1.3c-0.4,0-0.8,0.2-1,0.5l-2.3-1.4l2.6-3.8
		c0.2,0.1,0.4,0.2,0.6,0.2c0.7,0,1.3-0.6,1.3-1.3c0-0.7-0.5-1.2-1.2-1.3l0-2l-0.3-0.2l0,2.2c-0.7,0.1-1.2,0.6-1.2,1.3
		c0,0,0,0.1,0,0.1L40,27.3c-0.2-0.5-0.7-0.9-1.3-0.9c-0.7,0-1.2,0.5-1.3,1.1l-10-0.3c0-0.1,0-0.2-0.1-0.3l7.6-5.1
		c0.2,0.3,0.6,0.5,1,0.5c0.7,0,1.3-0.6,1.3-1.3c0,0,0-0.1,0-0.1l6.3-1.3l-0.3-0.2l-6,1.2c-0.2-0.5-0.7-0.9-1.3-0.9
		c-0.7,0-1.3,0.6-1.3,1.3c0,0.2,0.1,0.4,0.2,0.6l-7.6,5.1c-0.2-0.2-0.4-0.3-0.7-0.3c-0.5,0-0.9,0.4-0.9,0.9c0,0.3,0.1,0.5,0.3,0.7
		l-5.1,7.6c-0.2-0.1-0.4-0.2-0.6-0.2c-0.7,0-1.3,0.6-1.3,1.3c0,0.6,0.4,1.1,0.9,1.3l-1.9,9.4c0,0,0,0,0,0c-0.5,0-0.9,0.4-0.9,0.9
		c0,0.5,0.4,0.9,0.9,0.9c0,0,0,0,0,0l0.9,4.5H19l-0.9-4.5c0.3-0.1,0.6-0.5,0.6-0.9c0-0.4-0.3-0.7-0.6-0.9l1.9-9.4c0,0,0.1,0,0.1,0
		c0.1,0,0.2,0,0.4-0.1l3.9,9.2c-0.4,0.2-0.7,0.7-0.7,1.2c0,0.5,0.3,0.9,0.7,1.2l-1.8,4.2h0.3l1.8-4.1c0.1,0,0.2,0.1,0.4,0.1
		c0.7,0,1.2-0.5,1.3-1.2h5.1c0.1,0.4,0.5,0.8,0.9,0.8c0,0,0,0,0,0l0.7,3.7c-0.4,0.1-0.7,0.4-0.8,0.8h2.5c-0.2-0.5-0.7-0.8-1.2-0.8
		c0,0-0.1,0-0.1,0l-0.7-3.7c0.4-0.1,0.6-0.5,0.6-0.9c0-0.4-0.2-0.7-0.6-0.9l0.8-4.1c0,0,0,0,0,0c0.5,0,0.9-0.4,0.9-0.9
		c0-0.3-0.1-0.5-0.3-0.7l2-2.9c0.2,0.1,0.4,0.2,0.6,0.2c0.7,0,1.3-0.6,1.3-1.3c0-0.2-0.1-0.4-0.2-0.6l2.1-1.4
		c0.4,0.5,0.9,0.8,1.6,0.8c1.1,0,2-0.9,2-2c0-0.1,0-0.2,0-0.3l2.7-0.6c0.2,0.5,0.7,0.9,1.3,0.9c0.6,0,1.1-0.4,1.3-0.9l3.3,0.7
		c0,0,0,0.1,0,0.1c0,0.5,0.3,0.9,0.7,1.2v-2.3C52.5,33.4,52.2,33.7,52.1,34z M40.1,27.7c0,0,0-0.1,0-0.1l6.2-1.2
		c0.1,0.2,0.2,0.4,0.4,0.6L44,30.8l-4-2.5C40,28.1,40.1,27.9,40.1,27.7z M26.1,28.2c0.1,0.1,0.2,0.1,0.4,0.1c0.2,0,0.4-0.1,0.5-0.2
		l3.6,3.6c-0.2,0.2-0.3,0.5-0.3,0.8c0,0.7,0.6,1.3,1.3,1.3c0.3,0,0.6-0.1,0.8-0.3l3.3,3.3c-0.2,0.2-0.3,0.5-0.3,0.8c0,0,0,0.1,0,0.1
		l-6.8,1.3c-0.2-0.8-1-1.5-1.9-1.5c-0.8,0-1.4,0.4-1.8,1.1l-3.6-1.5c0-0.1,0.1-0.2,0.1-0.4c0-0.4-0.2-0.8-0.5-1L26.1,28.2z M34,41.7
		c-0.1-0.1-0.2-0.1-0.4-0.1c-0.5,0-0.9,0.4-0.9,0.9c0,0.4,0.3,0.7,0.6,0.9l-0.8,4.1c0,0,0,0,0,0c-0.5,0-0.8,0.3-0.9,0.8h-5.1
		C26.3,47.6,25.7,47,25,47c-0.1,0-0.3,0-0.4,0.1L20.7,38c0.2-0.1,0.4-0.3,0.5-0.5l3.6,1.5c-0.1,0.2-0.1,0.4-0.1,0.6c0,1.1,0.9,2,2,2
		s2-0.9,2-2c0-0.1,0-0.2,0-0.2l6.8-1.3c0.1,0.2,0.2,0.5,0.4,0.6L34,41.7z M41.6,32.5c-1.1,0-2,0.9-2,2c0,0.4,0.1,0.7,0.3,1l-2.1,1.4
		c-0.2-0.3-0.6-0.5-1-0.5c-0.3,0-0.6,0.1-0.8,0.3l-3.3-3.3c0.2-0.2,0.3-0.5,0.3-0.8c0-0.7-0.6-1.3-1.3-1.3c-0.3,0-0.6,0.1-0.8,0.3
		l-3.6-3.6c0.1-0.1,0.1-0.2,0.2-0.4l10,0.3c0.1,0.7,0.6,1.2,1.3,1.2c0.4,0,0.8-0.2,1-0.5l4,2.5l-1.2,1.7
		C42.3,32.6,42,32.5,41.6,32.5z M46.2,33.2c0,0,0,0.1,0,0.1l-2.7,0.6c-0.1-0.4-0.4-0.7-0.7-1l1.2-1.7l2.3,1.4
		C46.3,32.8,46.2,33,46.2,33.2z"/>
	<g>
		<path class="st1" d="M52.1,34l-3.3-0.7c0,0,0-0.1,0-0.1c0-0.7-0.6-1.3-1.3-1.3c-0.4,0-0.8,0.2-1,0.5l-2.3-1.4l2.6-3.8
			c0.2,0.1,0.4,0.2,0.6,0.2c0.7,0,1.3-0.6,1.3-1.3c0-0.7-0.5-1.2-1.2-1.3l0-2l-0.3-0.2l0,2.2c-0.7,0.1-1.2,0.6-1.2,1.3
			c0,0,0,0.1,0,0.1L40,27.3c-0.2-0.5-0.7-0.9-1.3-0.9c-0.7,0-1.2,0.5-1.3,1.1l-10-0.3c0-0.1,0-0.2-0.1-0.3l7.6-5.1
			c0.2,0.3,0.6,0.5,1,0.5c0.7,0,1.3-0.6,1.3-1.3c0,0,0-0.1,0-0.1l6.3-1.3l-0.3-0.2l-6,1.2c-0.2-0.5-0.7-0.9-1.3-0.9
			c-0.7,0-1.3,0.6-1.3,1.3c0,0.2,0.1,0.4,0.2,0.6l-7.6,5.1c-0.2-0.2-0.4-0.3-0.7-0.3c-0.5,0-0.9,0.4-0.9,0.9c0,0.3,0.1,0.5,0.3,0.7
			l-5.1,7.6c-0.2-0.1-0.4-0.2-0.6-0.2c-0.7,0-1.3,0.6-1.3,1.3c0,0.6,0.4,1.1,0.9,1.3l-1.9,9.4c0,0,0,0,0,0c-0.5,0-0.9,0.4-0.9,0.9
			c0,0.5,0.4,0.9,0.9,0.9c0,0,0,0,0,0l0.9,4.5H19l-0.9-4.5c0.3-0.1,0.6-0.5,0.6-0.9c0-0.4-0.3-0.7-0.6-0.9l1.9-9.4c0,0,0.1,0,0.1,0
			c0.1,0,0.2,0,0.4-0.1l3.9,9.2c-0.4,0.2-0.7,0.7-0.7,1.2c0,0.5,0.3,0.9,0.7,1.2l-1.8,4.2h0.3l1.8-4.1c0.1,0,0.2,0.1,0.4,0.1
			c0.7,0,1.2-0.5,1.3-1.2h5.1c0.1,0.4,0.5,0.8,0.9,0.8c0,0,0,0,0,0l0.7,3.7c-0.4,0.1-0.7,0.4-0.8,0.8h2.5c-0.2-0.5-0.7-0.8-1.2-0.8
			c0,0-0.1,0-0.1,0l-0.7-3.7c0.4-0.1,0.6-0.5,0.6-0.9c0-0.4-0.2-0.7-0.6-0.9l0.8-4.1c0,0,0,0,0,0c0.5,0,0.9-0.4,0.9-0.9
			c0-0.3-0.1-0.5-0.3-0.7l2-2.9c0.2,0.1,0.4,0.2,0.6,0.2c0.7,0,1.3-0.6,1.3-1.3c0-0.2-0.1-0.4-0.2-0.6l2.1-1.4
			c0.4,0.5,0.9,0.8,1.6,0.8c1.1,0,2-0.9,2-2c0-0.1,0-0.2,0-0.3l2.7-0.6c0.2,0.5,0.7,0.9,1.3,0.9c0.6,0,1.1-0.4,1.3-0.9l3.3,0.7
			c0,0,0,0.1,0,0.1c0,0.5,0.3,0.9,0.7,1.2v-2.3C52.5,33.4,52.2,33.7,52.1,34z M40.1,27.7c0,0,0-0.1,0-0.1l6.2-1.2
			c0.1,0.2,0.2,0.4,0.4,0.6L44,30.8l-4-2.5C40,28.1,40.1,27.9,40.1,27.7z M26.1,28.2c0.1,0.1,0.2,0.1,0.4,0.1c0.2,0,0.4-0.1,0.5-0.2
			l3.6,3.6c-0.2,0.2-0.3,0.5-0.3,0.8c0,0.7,0.6,1.3,1.3,1.3c0.3,0,0.6-0.1,0.8-0.3l3.3,3.3c-0.2,0.2-0.3,0.5-0.3,0.8
			c0,0,0,0.1,0,0.1l-6.8,1.3c-0.2-0.8-1-1.5-1.9-1.5c-0.8,0-1.4,0.4-1.8,1.1l-3.6-1.5c0-0.1,0.1-0.2,0.1-0.4c0-0.4-0.2-0.8-0.5-1
			L26.1,28.2z M34,41.7c-0.1-0.1-0.2-0.1-0.4-0.1c-0.5,0-0.9,0.4-0.9,0.9c0,0.4,0.3,0.7,0.6,0.9l-0.8,4.1c0,0,0,0,0,0
			c-0.5,0-0.8,0.3-0.9,0.8h-5.1C26.3,47.6,25.7,47,25,47c-0.1,0-0.3,0-0.4,0.1L20.7,38c0.2-0.1,0.4-0.3,0.5-0.5l3.6,1.5
			c-0.1,0.2-0.1,0.4-0.1,0.6c0,1.1,0.9,2,2,2s2-0.9,2-2c0-0.1,0-0.2,0-0.2l6.8-1.3c0.1,0.2,0.2,0.5,0.4,0.6L34,41.7z M41.6,32.5
			c-1.1,0-2,0.9-2,2c0,0.4,0.1,0.7,0.3,1l-2.1,1.4c-0.2-0.3-0.6-0.5-1-0.5c-0.3,0-0.6,0.1-0.8,0.3l-3.3-3.3c0.2-0.2,0.3-0.5,0.3-0.8
			c0-0.7-0.6-1.3-1.3-1.3c-0.3,0-0.6,0.1-0.8,0.3l-3.6-3.6c0.1-0.1,0.1-0.2,0.2-0.4l10,0.3c0.1,0.7,0.6,1.2,1.3,1.2
			c0.4,0,0.8-0.2,1-0.5l4,2.5l-1.2,1.7C42.3,32.6,42,32.5,41.6,32.5z M46.2,33.2c0,0,0,0.1,0,0.1l-2.7,0.6c-0.1-0.4-0.4-0.7-0.7-1
			l1.2-1.7l2.3,1.4C46.3,32.8,46.2,33,46.2,33.2z"/>
	</g>
	<path class="st1" d="M11.8,54.8V25.9l21.1-15.3l20.8,15.3v28.9H11.8z M13.6,26.8v26h38.2v-26l-19-14L13.6,26.8z"/>
	<polygon class="st1" points="13.3,24.8 14.6,26.2 9.5,29.9 8.2,28.5 	"/>
	<polygon class="st1" points="52.4,24.9 51.1,26.3 56.2,30 57.5,28.7 	"/>
</g>
<g>
	<polygon class="st0" points="7.5,47.2 7.5,25.1 23.9,13.3 40.2,25.1 40.2,27.2 38.7,27.2 38.7,25.9 23.9,15.2 9,25.9 9,45.7 
		13.6,45.7 13.6,47.2 	"/>
	<path class="st0" d="M32.9,21l0-13.3c0-0.5,0.4-0.8,0.8-0.8s0.8,0.4,0.8,0.8V21H32.9z"/>
	<path class="st0" d="M32.9,18V8.2l7.8,1.9c0.7,0.2,1.2,0.8,1.2,1.5v5.1c0,0.8-0.6,1.4-1.4,1.4H32.9z M34.5,16.4h5.7v-4.7l-5.7-1.4
		V16.4z"/>
	<path class="st0" d="M37.1,20.4v-3h1.6v1.4h5V14h-2.6v-1.6H44c0.8,0,1.4,0.6,1.4,1.4V19c0,0.8-0.6,1.4-1.4,1.4H37.1z"/>
	<path class="st0" d="M13.6,58.5c-0.3,0-0.5-0.2-0.5-0.5V30.8c0-0.3,0.2-0.5,0.5-0.5h2.3c0.3,0,0.5,0.2,0.5,0.5
		c0,0.3-0.2,0.5-0.5,0.5h-1.8v26.1H58V31.3h-1.8c-0.3,0-0.5-0.2-0.5-0.5c0-0.3,0.2-0.5,0.5-0.5h2.3c0.3,0,0.5,0.2,0.5,0.5V58
		c0,0.3-0.2,0.5-0.5,0.5H13.6z"/>
	<path class="st0" d="M15.5,56V30.3l2.5-3.5h7.7c-0.2,0.3-0.4,0.7-0.4,1h-6.7l-2,2.8V55h19.1V38.9h1V56H15.5z M35.6,34.5V31
		c0-1.8-1.5-3.3-3.3-3.3h0c-0.1-0.4-0.2-0.7-0.4-1h0.5c1.5,0,2.8,0.8,3.6,2c0.4,0.7,0.7,1.5,0.7,2.3v3.4H35.6z"/>
	<path class="st0" d="M35.6,56V38.9h1V55h19.1V30.6l-2.1-2.8H39.9c-1.8,0-3.3,1.5-3.3,3.3v3.4h-1V31c0-0.8,0.2-1.6,0.7-2.3
		c0.8-1.3,2.1-2,3.6-2h14.2l2.6,3.5V56H35.6z"/>
	<path class="st0" d="M35.6,55.7c0-0.3-0.1-0.6-0.2-0.9c-0.4-1.3-1.7-2.2-3.1-2.2H18.5v-1h13.9c1.1,0,2.2,0.4,3,1.2l0.1,0
		c0.2,0.2,0.4,0.5,0.6,0.8c0.4,0.6,0.6,1.4,0.7,2.1H35.6z"/>
	<path class="st0" d="M35.6,55.7c0-0.7,0.3-1.5,0.7-2.1c0.2-0.3,0.4-0.6,0.7-0.8l0.1-0.1c0.8-0.7,1.8-1.2,2.9-1.2h13.9v1H39.9
		c-1.4,0-2.6,0.9-3.1,2.2c-0.1,0.3-0.2,0.6-0.2,0.9H35.6z"/>
	<rect x="17.9" y="27.4" class="st0" width="1" height="25"/>
	<rect x="53.3" y="27.4" class="st0" width="1" height="25"/>
	<rect x="39.7" y="42.6" class="st0" width="11" height="1"/>
	<rect x="39.7" y="45.2" class="st0" width="11" height="1"/>
	<rect x="39.7" y="47.9" class="st0" width="11" height="1"/>
	<polygon class="st0" points="39.7,41.1 39.7,38.9 40.7,38.9 40.7,40.1 49.8,40.1 49.8,32 40.7,32 40.7,34.5 39.7,34.5 39.7,31 
		50.8,31 50.8,41.1 	"/>
	<rect x="15.3" y="53.3" transform="matrix(0.6489 -0.7609 0.7609 0.6489 -34.9468 31.9674)" class="st0" width="3.7" height="1"/>
	<polygon class="st0" points="55.1,54.7 53.4,52.8 54.2,52.1 56.6,54.9 55.8,55.6 	"/>
	<path class="st0" d="M28.8,32.4c-2,0-3.7-1.6-3.7-3.7c0-2,1.6-3.7,3.7-3.7c2,0,3.7,1.6,3.7,3.7C32.5,30.7,30.9,32.4,28.8,32.4z
		 M28.8,26c-1.5,0-2.7,1.2-2.7,2.7c0,1.5,1.2,2.7,2.7,2.7c1.5,0,2.7-1.2,2.7-2.7C31.6,27.2,30.3,26,28.8,26z"/>
	<path class="st0" d="M21.3,49.5V39.4c0-2.7,2.2-5,5-5H44v4.8H33.8v8.6h2.8V49h-3.8V38.3h10.3v-2.9H26.3c-2.2,0-4,1.8-4,4v9.1h2.9
		v-5.1h0.9v6.1H21.3z"/>
	<rect x="28.4" y="36.6" class="st0" width="0.9" height="0.9"/>
	<rect x="28.4" y="39.1" class="st0" width="0.9" height="0.9"/>
</g>
<g>
	<g>
		<g>
			<g>
				<g>
					<path class="st0" d="M52.9,20.1H35.1v1.4h17.8c0.3,0,0.5,0.2,0.5,0.5v25.1H10.7V22c0-0.3,0.2-0.5,0.5-0.5h4
						c0.1-0.4,0.3-0.9,0.6-1.4h-4.5c-1,0-1.9,0.8-1.9,1.9v26.5h45.5V22C54.8,20.9,53.9,20.1,52.9,20.1z M29.9,20.1l-0.7,1.4H33v-1.4
						H29.9z"/>
					<path class="st0" d="M35.1,22.6V24h15.7v20.5H13.2V24H15v-0.9c0,0,0-0.2,0-0.4h-3.1v23.2h40.4V22.6H35.1z M28.6,22.6L28.4,23
						c0.6,0.1,1.2,0.3,1.7,1H33v-1.4H28.6z"/>
					<path class="st0" d="M9.3,47.1v4.4c0,1.1,1.1,2.2,2.1,2.2H53c1.1,0,1.8-1.1,1.8-2.1v-4.5H9.3z M53.5,51.5
						c0,0.4-0.2,0.8-0.5,0.8H11.4c-0.3,0-0.8-0.5-0.8-0.8v-3h42.8V51.5z"/>
					<path class="st0" d="M38.7,59.4c-0.5-0.2-0.9-0.4-1.2-0.6l0,0c-0.7-0.4-0.9-0.7-1.1-1.7c-0.1-0.7-0.1-1.7-0.1-2.6
						c0-0.3,0-0.5,0-0.8l-8.5,0c0,0.2,0,0.5,0,0.8c0,1,0,2-0.1,2.6c-0.2,1-0.4,1.3-1.1,1.7l-0.1,0c-0.3,0.2-0.9,0.4-1.2,0.6
						l-0.5-1.3c0.5-0.2,0.9-0.4,1.1-0.5l0.1,0c0.3-0.2,0.3-0.2,0.4-0.7c0.1-0.5,0.1-1.5,0.1-2.4c0-0.6,0-1.2,0-1.5l0.1-0.6l11,0.1
						l0.1,0.6c0,0.4,0,0.9,0,1.5c0,0.8,0,1.8,0.1,2.3c0.1,0.5,0.1,0.6,0.2,0.6c0,0,0.1,0.1,0.2,0.1c0.2,0.1,0.6,0.3,1.1,0.5
						L38.7,59.4z"/>
					<rect x="23.9" y="58" class="st0" width="16.3" height="1.4"/>
				</g>
			</g>
		</g>
		<g>
			<g>
				<path class="st0" d="M50,39.5c0,0.1,0,0.3,0,0.4c0,0.2,0,0.5-0.1,0.7c0,0.1,0,0.2-0.1,0.4c0,0.1,0,0.2-0.1,0.4
					c0,0.1-0.1,0.2-0.1,0.3c-0.3,1-0.8,2-1.4,2.9c-0.1,0.2-0.3,0.3-0.4,0.5c0,0.1-0.1,0.1-0.1,0.1l-0.5-0.5c0,0,0.1-0.1,0.1-0.1
					c0.5-0.6,0.9-1.2,1.3-1.9c0.2-0.5,0.4-1,0.5-1.6c0.1-0.3,0.1-0.6,0.1-0.9c0-0.1,0-0.2,0-0.3c0-0.1,0-0.2,0-0.3
					c0-0.1,0-0.2,0-0.3c0-0.1,0-0.2,0-0.3c0-0.1,0-0.2,0-0.3c0,0,0,0,0-0.1c0-0.1,0-0.1,0-0.2c0,0,0-0.1,0-0.1c0,0,0-0.1,0-0.1
					c0,0,0-0.1,0-0.1c0,0,0-0.1,0-0.1c0-0.1,0-0.2-0.1-0.2C49,37.4,49,37.2,48.9,37c0-0.1-0.1-0.2-0.1-0.3c0-0.1-0.1-0.1-0.1-0.2
					c0,0,0-0.1,0-0.1h0c0,0,0-0.1,0-0.1c-0.1-0.2-0.2-0.4-0.3-0.5c0-0.1-0.1-0.1-0.1-0.2c-0.1-0.1-0.2-0.2-0.3-0.4
					c0-0.1-0.1-0.1-0.1-0.2c-0.1-0.1-0.2-0.2-0.3-0.4c-0.1-0.1-0.1-0.1-0.2-0.2c0,0,0,0-0.1-0.1c-0.1-0.1-0.1-0.1-0.2-0.2
					C47,34.1,46.9,34,46.8,34c-0.1-0.1-0.1-0.1-0.2-0.2c-0.1-0.1-0.1-0.1-0.2-0.2c-0.1,0-0.1-0.1-0.2-0.1c-0.3-0.2-0.5-0.4-0.8-0.5
					c-0.1-0.1-0.2-0.1-0.3-0.1c-0.2-0.1-0.5-0.2-0.7-0.3c-0.2-0.1-0.5-0.2-0.8-0.2c-0.2-0.1-0.4-0.1-0.6-0.1c-0.1,0-0.2,0-0.4,0
					c-0.2,0-0.5,0-0.7,0c-0.1,0-0.2,0-0.4,0c-0.7,0-1.5,0.2-2.1,0.4c-1.9,0.7-3.4,2.1-4.2,3.9c-0.3,0.6-0.4,1.1-0.6,1.8
					c0,0.1,0,0.2-0.1,0.4c0,0.1,0,0.1,0,0.2c0,0,0,0,0,0.1c0,0.1,0,0.1,0,0.2c0,0.1,0,0.1,0,0.2c0,0.1,0,0.2,0,0.3
					c0,0.1,0,0.2,0,0.3c0,0.1,0,0.1,0,0.2c0,0.1,0,0.1,0,0.2c0,0.2,0,0.4,0.1,0.5c0,0.1,0,0.2,0.1,0.3c0.1,0.6,0.3,1.1,0.5,1.6
					c0.3,0.7,0.7,1.3,1.3,1.9l0.1,0.2l-0.5,0.5c-0.2-0.2-0.4-0.4-0.6-0.7c-0.8-1-1.3-2.1-1.5-3.3c0-0.1,0-0.1,0-0.2c0,0,0-0.1,0-0.1
					c0-0.1,0-0.2-0.1-0.4c0-0.1,0-0.2,0-0.3c0-0.1,0-0.2,0-0.2c0-0.2,0-0.4,0-0.5c0-0.1,0-0.3,0-0.4c0-0.1,0-0.3,0-0.4
					c0-0.1,0-0.2,0-0.3c0-0.1,0-0.2,0.1-0.3c0-0.2,0.1-0.5,0.2-0.7c0-0.1,0.1-0.2,0.1-0.4c0-0.1,0.1-0.2,0.1-0.4c0,0,0,0,0-0.1
					c1.2-3,4.1-5.2,7.6-5.2c3.5,0,6.4,2.2,7.6,5.3v0c0.1,0.2,0.1,0.4,0.2,0.6c0,0.2,0.1,0.3,0.1,0.5c0,0.1,0.1,0.2,0.1,0.4
					c0,0.1,0,0.2,0.1,0.3c0,0,0,0.1,0,0.1c0,0.1,0,0.2,0,0.3c0,0.1,0,0.2,0,0.3C50,39.2,50,39.4,50,39.5z"/>
				<path class="st0" d="M45.2,45.2c-0.1,0-0.1,0-0.2,0c-0.2-0.1-0.2-0.3-0.1-0.5c0.8-1.4,1.2-3.2,1.2-5.2c0-4.1-1.9-7.4-4.1-7.4
					c-2.3,0-4.1,3.3-4.1,7.4c0,1.9,0.4,3.7,1.2,5.1c0.1,0.2,0,0.4-0.1,0.5c-0.2,0.1-0.4,0-0.5-0.1c-0.8-1.5-1.2-3.4-1.2-5.4
					c0-4.5,2.2-8.1,4.9-8.1c2.7,0,4.8,3.6,4.8,8.1c0,2.1-0.5,4-1.3,5.5C45.4,45.2,45.3,45.2,45.2,45.2z"/>
				<path class="st0" d="M50,39.5c0,0.2-0.2,0.4-0.4,0.4c-0.2,0-0.4-0.2-0.4-0.4c0-0.1,0-0.2,0-0.3c0-0.1,0-0.2,0-0.3
					c0-0.1,0-0.2,0-0.3c0,0,0,0,0-0.1c0-0.1,0-0.1,0-0.2c0,0,0-0.1,0-0.1c0,0,0,0,0,0c0,0,0-0.1,0-0.1c0,0,0-0.1,0-0.1
					c0,0,0-0.1,0-0.1c0-0.1,0-0.2-0.1-0.2C49,37.4,49,37.2,48.9,37c0-0.1-0.1-0.2-0.1-0.3c0-0.1-0.1-0.1-0.1-0.2c0,0,0-0.1,0-0.1
					c0,0,0-0.1-0.1-0.1c-0.1-0.2-0.2-0.4-0.3-0.5c0-0.1-0.1-0.1-0.1-0.2c-0.1-0.1-0.2-0.2-0.3-0.4c0-0.1-0.1-0.1-0.1-0.2
					c-0.1-0.1-0.2-0.2-0.3-0.4c-0.1-0.1-0.1-0.1-0.2-0.2c0,0,0,0-0.1-0.1c-0.1-0.1-0.1-0.1-0.2-0.2C47,34.1,46.9,34,46.8,34
					c-0.1-0.1-0.1-0.1-0.2-0.2c-0.1-0.1-0.1-0.1-0.2-0.2c-0.1,0-0.1-0.1-0.2-0.1c-0.3-0.2-0.5-0.4-0.8-0.5c-0.1-0.1-0.2-0.1-0.3-0.1
					c-0.2-0.1-0.5-0.2-0.7-0.3c-0.2-0.1-0.5-0.2-0.8-0.2c-0.2-0.1-0.4-0.1-0.6-0.1c-0.1,0-0.2,0-0.4,0c-0.1,0-0.2,0-0.3,0
					c0,0,0,0,0,0v12.8c0,0.2-0.2,0.4-0.4,0.4s-0.4-0.2-0.4-0.4V31.7c0-0.2,0.2-0.4,0.4-0.4c3.5,0,6.4,2.2,7.6,5.3v0
					c0.1,0.2,0.1,0.4,0.2,0.6c0,0.2,0.1,0.3,0.1,0.5c0,0.1,0.1,0.2,0.1,0.4c0,0.1,0,0.2,0.1,0.3c0,0,0,0.1,0,0.1c0,0.1,0,0.2,0,0.3
					c0,0.1,0,0.2,0,0.3C50,39.2,50,39.4,50,39.5z"/>
				<path class="st0" d="M49.2,38.4C49.2,38.3,49.2,38.3,49.2,38.4c0,0,0,0.1,0,0.2C49.2,38.5,49.2,38.4,49.2,38.4z M49.2,38.3
					C49.2,38.2,49.2,38.2,49.2,38.3C49.2,38.2,49.2,38.3,49.2,38.3C49.2,38.3,49.2,38.3,49.2,38.3z M49.1,37.9c0-0.1,0-0.2-0.1-0.2
					C49,37.4,49,37.2,48.9,37c0-0.1-0.1-0.2-0.1-0.3c0-0.1-0.1-0.1-0.1-0.2c0,0,0-0.1,0-0.1H38.2c0,0.1-0.1,0.3-0.1,0.4c0,0,0,0,0,0
					c0,0.1,0,0.2-0.1,0.3h10.9c0.1,0.3,0.2,0.6,0.2,0.9C49.2,38,49.1,37.9,49.1,37.9z M49.2,38.4C49.2,38.3,49.2,38.3,49.2,38.4
					c0,0,0,0.1,0,0.2C49.2,38.5,49.2,38.4,49.2,38.4z M49.2,38.3C49.2,38.2,49.2,38.2,49.2,38.3C49.2,38.2,49.2,38.3,49.2,38.3
					C49.2,38.3,49.2,38.3,49.2,38.3z M49.1,37.9c0-0.1,0-0.2-0.1-0.2C49,37.4,49,37.2,48.9,37c0-0.1-0.1-0.2-0.1-0.3
					c0-0.1-0.1-0.1-0.1-0.2c0,0,0-0.1,0-0.1H38.2c0,0.1-0.1,0.3-0.1,0.4c0,0,0,0,0,0c0,0.1,0,0.2-0.1,0.3h10.9
					c0.1,0.3,0.2,0.6,0.2,0.9C49.2,38,49.1,37.9,49.1,37.9z M49.2,38.4C49.2,38.3,49.2,38.3,49.2,38.4c0,0,0,0.1,0,0.2
					C49.2,38.5,49.2,38.4,49.2,38.4z M49.2,38.2C49.2,38.2,49.2,38.3,49.2,38.2C49.2,38.3,49.2,38.3,49.2,38.2
					C49.2,38.2,49.2,38.2,49.2,38.2z M49.1,37.6C49,37.4,49,37.2,48.9,37c0-0.1-0.1-0.2-0.1-0.3c0-0.1-0.1-0.1-0.1-0.2
					c0,0,0-0.1,0-0.1H38.2c0,0.1-0.1,0.3-0.1,0.4c0,0,0,0,0,0c0,0.1,0,0.2-0.1,0.3h10.9c0.1,0.3,0.2,0.6,0.2,0.9c0,0,0-0.1,0-0.1
					C49.1,37.8,49.1,37.7,49.1,37.6z M50,39.1c0-0.1,0-0.2,0-0.3c0-0.1,0-0.2,0-0.3c0,0,0-0.1,0-0.1c0-0.1,0-0.2-0.1-0.3
					c0-0.1,0-0.2-0.1-0.4c0-0.2-0.1-0.3-0.1-0.5c-0.1-0.2-0.1-0.4-0.2-0.6v0c-0.1-0.1-0.2-0.2-0.3-0.2H34.7c-0.1,0-0.3,0.1-0.3,0.2
					c0,0,0,0,0,0.1c0,0.1-0.1,0.2-0.1,0.4c0,0.1-0.1,0.2-0.1,0.4C34,37.6,34,37.8,33.9,38c0,0.1,0,0.2-0.1,0.3c0,0.1,0,0.2,0,0.3
					c0,0.1,0,0.3,0,0.4c0,0.1,0,0.3,0,0.4c0,0.2,0,0.4,0,0.5c0,0.1,0,0.2,0,0.2c0,0.1,0,0.2,0,0.3c0,0.1,0,0.2,0.1,0.4
					c0,0,0,0.1,0,0.1c0,0.1,0,0.1,0,0.2c0,0.1,0.1,0.3,0.1,0.4c0,0.1,0,0.2,0.1,0.2c0,0,0,0,0,0c0,0,0,0,0,0c0,0.1,0.1,0.3,0.1,0.4
					c0.1,0.1,0.2,0.2,0.3,0.2h14.5c0.1,0,0.3-0.1,0.3-0.2c0.1-0.3,0.2-0.5,0.3-0.8c0-0.1,0.1-0.2,0.1-0.3c0-0.1,0.1-0.2,0.1-0.4
					c0-0.1,0-0.2,0.1-0.4c0-0.2,0.1-0.5,0.1-0.7c0-0.1,0-0.3,0-0.4C50,39.4,50,39.2,50,39.1z M49.3,39.8c0,0.1,0,0.2,0,0.3
					c0,0.3-0.1,0.6-0.1,0.9c-0.1,0.3-0.1,0.6-0.2,0.9h-14c-0.1-0.3-0.2-0.6-0.2-0.9c0-0.1,0-0.2-0.1-0.3c0-0.2-0.1-0.4-0.1-0.5
					c0-0.1,0-0.1,0-0.2c0-0.1,0-0.1,0-0.2c0-0.1,0-0.2,0-0.3c0-0.1,0-0.2,0-0.3c0-0.1,0-0.1,0-0.2c0-0.1,0-0.1,0-0.2c0,0,0,0,0-0.1
					c0-0.1,0-0.1,0-0.2c0-0.1,0-0.2,0.1-0.4c0-0.1,0-0.2,0.1-0.3c0-0.1,0-0.1,0.1-0.2c0-0.1,0-0.2,0.1-0.3c0-0.1,0.1-0.2,0.1-0.3h14
					c0.1,0.3,0.2,0.6,0.2,0.9c0,0,0,0,0,0.1c0,0,0,0,0,0.1c0,0,0,0.1,0,0.1c0,0,0,0.1,0,0.1c0,0.1,0,0.2,0,0.2c0,0,0,0,0,0.1
					c0,0.1,0,0.2,0,0.3c0,0.1,0,0.2,0,0.3c0,0.1,0,0.2,0,0.3C49.3,39.6,49.3,39.7,49.3,39.8z M49.1,37.9c0-0.1,0-0.2-0.1-0.2
					C49,37.4,49,37.2,48.9,37c0-0.1-0.1-0.2-0.1-0.3c0-0.1-0.1-0.1-0.1-0.2c0,0,0-0.1,0-0.1H38.2c0,0.1-0.1,0.3-0.1,0.4c0,0,0,0,0,0
					c0,0.1,0,0.2-0.1,0.3h10.9c0.1,0.3,0.2,0.6,0.2,0.9C49.2,38,49.1,37.9,49.1,37.9z M49.2,38.3C49.2,38.2,49.2,38.2,49.2,38.3
					C49.2,38.2,49.2,38.3,49.2,38.3C49.2,38.3,49.2,38.3,49.2,38.3z M49.2,38.4C49.2,38.3,49.2,38.3,49.2,38.4c0,0,0,0.1,0,0.2
					C49.2,38.5,49.2,38.4,49.2,38.4z M49.1,37.9c0-0.1,0-0.2-0.1-0.2C49,37.4,49,37.2,48.9,37c0-0.1-0.1-0.2-0.1-0.3
					c0-0.1-0.1-0.1-0.1-0.2c0,0,0-0.1,0-0.1H38.2c0,0.1-0.1,0.3-0.1,0.4c0,0,0,0,0,0c0,0.1,0,0.2-0.1,0.3h10.9
					c0.1,0.3,0.2,0.6,0.2,0.9C49.2,38,49.1,37.9,49.1,37.9z M49.2,38.3C49.2,38.2,49.2,38.2,49.2,38.3
					C49.2,38.2,49.2,38.3,49.2,38.3C49.2,38.3,49.2,38.3,49.2,38.3z M49.2,38.4C49.2,38.3,49.2,38.3,49.2,38.4c0,0,0,0.1,0,0.2
					C49.2,38.5,49.2,38.4,49.2,38.4z M49.2,38.3C49.2,38.2,49.2,38.2,49.2,38.3C49.2,38.2,49.2,38.3,49.2,38.3
					C49.2,38.3,49.2,38.3,49.2,38.3z M49.1,37.9c0-0.1,0-0.2-0.1-0.2C49,37.4,49,37.2,48.9,37c0-0.1-0.1-0.2-0.1-0.3
					c0-0.1-0.1-0.1-0.1-0.2c0,0,0-0.1,0-0.1H38.2c0,0.1-0.1,0.3-0.1,0.4c0,0,0,0,0,0c0,0.1,0,0.2-0.1,0.3h10.9
					c0.1,0.3,0.2,0.6,0.2,0.9C49.2,38,49.1,37.9,49.1,37.9z M49.2,38.4C49.2,38.3,49.2,38.3,49.2,38.4c0,0,0,0.1,0,0.2
					C49.2,38.5,49.2,38.4,49.2,38.4z"/>
			</g>
		</g>
		<g>
			<rect x="44.5" y="24.7" class="st0" width="0.5" height="1"/>
			<polygon class="st0" points="43.9,26.1 43.7,26.6 42.8,26.1 43.1,25.6 			"/>
			<polygon class="st0" points="44,27.8 43.1,28.3 42.9,27.8 43.7,27.3 			"/>
			<rect x="44.6" y="28" class="st0" width="0.5" height="1"/>
			<polygon class="st0" points="46.8,26 45.9,26.5 45.6,26 46.5,25.5 			"/>
			<g>
				<polygon class="st0" points="49.6,31 49.2,31.4 47.9,30.1 47.8,29.9 48.1,29.5 48.3,29.7 				"/>
				<path class="st0" d="M44.8,26.5l2.3,5.6l0.8-2l0.1-0.3l0.3-0.1l1.9-0.9L44.8,26.5z M47.6,29.4l-0.5,1.3l-1.3-3.1l3,1.3
					L47.6,29.4z"/>
			</g>
		</g>
	</g>
	<g>
		<g>
			<path class="st0" d="M14.8,60.7"/>
			<path class="st0" d="M26.5,55H11c-1.9,0-3.4,1.5-3.4,3.4s1.5,3.4,3.4,3.4h1.6v-0.8H11c-1.5,0-2.7-1.2-2.7-2.7s1.2-2.7,2.7-2.7
				h15.5V55z"/>
			<path class="st0" d="M54.7,47.4v0.8c1.9,0,3.4,1.5,3.4,3.4c0,1.9-1.5,3.4-3.4,3.4h-3v0.8h3c2.3,0,4.2-1.9,4.2-4.2
				C58.9,49.3,57,47.4,54.7,47.4z"/>
		</g>
		<rect x="37.5" y="55" class="st0" width="15.1" height="0.8"/>
		<g>
			<path class="st0" d="M12.7,57.4h11.2c0.2,0,0.4,0.2,0.4,0.4v4.9c0,0.2-0.2,0.4-0.4,0.4H12.7c-0.2,0-0.4-0.2-0.4-0.4v-4.9
				C12.3,57.6,12.5,57.4,12.7,57.4z M23.9,62.6C23.9,62.6,23.9,62.6,23.9,62.6l0-4.9c0,0,0,0,0,0H12.7c0,0,0,0,0,0v4.9c0,0,0,0,0,0
				H23.9z"/>
			<path class="st0" d="M22.5,61.2h1v1h-1V61.2z"/>
			<path class="st0" d="M22.5,59.9h1v1h-1V59.9z"/>
			<path class="st0" d="M22.5,58.5h1v1h-1V58.5z"/>
			<path class="st0" d="M21.2,61.2h1v1h-1V61.2z"/>
			<path class="st0" d="M21.2,59.9h1v1h-1V59.9z"/>
			<path class="st0" d="M21.2,58.5h1v1h-1V58.5z"/>
			<path class="st0" d="M19.8,61.2h1v1h-1V61.2z"/>
			<path class="st0" d="M19.8,59.9h1v1h-1V59.9z"/>
			<path class="st0" d="M18.5,61.2h1v1h-1V61.2z"/>
			<path class="st0" d="M18.5,59.9h1v1h-1V59.9z"/>
			<path class="st0" d="M17.1,61.2h1v1h-1V61.2z"/>
			<path class="st0" d="M17.1,59.9h1v1h-1V59.9z"/>
			<path class="st0" d="M15.7,61.2h1v1h-1V61.2z"/>
			<path class="st0" d="M15.7,59.9h1v1h-1V59.9z"/>
			<path class="st0" d="M15.7,58.5h5.1v1h-5.1V58.5z"/>
			<path class="st0" d="M14.4,61.2h1v1h-1V61.2z"/>
			<path class="st0" d="M14.4,59.9h1v1h-1V59.9z"/>
			<path class="st0" d="M14.4,58.5h1v1h-1V58.5z"/>
			<path class="st0" d="M13,61.2h1v1h-1V61.2z"/>
			<path class="st0" d="M13,59.9h1v1h-1V59.9z"/>
			<path class="st0" d="M13,58.5h1v1h-1V58.5z"/>
		</g>
	</g>
	<g>
		<g>
			<g>
				<path class="st0" d="M23.1,7.7c-2.4,0-4.4,2-4.4,4.4c0,2.4,2,4.4,4.4,4.4c2.4,0,4.4-2,4.4-4.4C27.4,9.7,25.5,7.7,23.1,7.7z
					 M23.1,15c-1.6,0-2.9-1.3-2.9-2.9c0-1.6,1.3-2.9,2.9-2.9c1.6,0,2.9,1.3,2.9,2.9C26,13.7,24.7,15,23.1,15z"/>
				<path class="st0" d="M28.1,17.4l-0.8,1.3c-0.2,0-0.4,0-0.6,0h-7.3c-2,0-3.7,1.6-3.7,3.7v15.2h-1.5V22.4c0-2.8,2.3-5.1,5.1-5.1
					h7.3C27.2,17.2,27.7,17.3,28.1,17.4z"/>
				<rect x="22.3" y="20.2" class="st0" width="1.5" height="1.5"/>
				<rect x="22.3" y="23.1" class="st0" width="1.5" height="1.5"/>
				<path class="st0" d="M34.2,4.3v9.5c0,0.1,0,0.3-0.1,0.4l-5.2,9.2l-1.5-0.6l5.1-9.2l0-8.5h-1.8v7.6c0,0.1,0,0.3-0.1,0.4l-3.4,5.6
					L26,17.9l3.2-5.4V4.3c0-0.2,0.1-0.4,0.2-0.6c0.1-0.1,0.3-0.2,0.6-0.2h3.4C33.8,3.5,34.2,3.9,34.2,4.3z"/>
				<polygon class="st0" points="18.7,36.5 18.5,37.5 17.3,44.5 15.8,44.5 17,37.5 17.3,36.3 				"/>
				<rect x="14.3" y="36.3" class="st0" width="6.9" height="1.3"/>
			</g>
			<g>
				<path class="st0" d="M29.3,22.7c-0.3-0.1-0.7-0.2-1.1-0.2c-0.2,0-0.4,0-0.7,0.1h0c-1.3,0.3-2.3,1.5-2.3,2.9c0,1.7,1.3,3,3,3
					c1.7,0,3-1.3,3-3C31.2,24.3,30.4,23.2,29.3,22.7z M28.2,27.5c-1.1,0-2-0.9-2-2c0-1.1,0.9-2,2-2c1.1,0,2,0.9,2,2
					C30.2,26.6,29.3,27.5,28.2,27.5z"/>
				<path class="st0" d="M31.6,29.2l-0.5,0.9l0,0c-0.1,0-0.3,0-0.4,0h-5c-1.4,0-2.5,1.1-2.5,2.5v10.4h-1V32.6c0-1.9,1.6-3.5,3.5-3.5
					h5C31,29.1,31.3,29.1,31.6,29.2z"/>
				<rect x="27.7" y="31.1" class="st0" width="1" height="1"/>
				<polygon class="st0" points="32.2,32.4 32.2,44.5 31.2,44.5 31.2,32.9 31.5,32.4 				"/>
				<path class="st0" d="M35.8,20.2v6.5c0,0.1,0,0.2-0.1,0.3l-2.1,3.7L33,31.7l-0.9,1.5L31.8,34l-0.6-0.3v-0.8l0.3-0.5l0.9-1.6
					l0.5-0.9l1.8-3.3v-5.8h-1.2V26c0,0.1,0,0.2-0.1,0.3l-1.8,3l-0.5,0.9l-0.9-0.6l0.3-0.4l2-3.3v-5.6c0-0.1,0.1-0.3,0.2-0.4
					c0.1-0.1,0.2-0.2,0.4-0.2h2.3C35.5,19.7,35.8,19.9,35.8,20.2z"/>
				<polyline class="st0" points="31.1,30.1 31.1,30.1 31.6,29.2 				"/>
				<polygon class="st0" points="25.2,42.3 25.1,42.9 24.8,44.5 23.8,44.5 24.1,42.9 24.2,42.1 				"/>
				<rect x="22.2" y="42.1" class="st0" width="4.7" height="0.9"/>
			</g>
		</g>
		<line class="st0" x1="17.3" y1="44.5" x2="15.8" y2="44.5"/>
		<line class="st0" x1="32.2" y1="44.5" x2="31.2" y2="44.5"/>
		<line class="st0" x1="24.8" y1="44.5" x2="23.8" y2="44.5"/>
	</g>
	<path class="st0" d="M15.8,20.1c-0.3,0.5-0.5,0.9-0.6,1.4L15.8,20.1z"/>
	<path class="st0" d="M15,22.6c0,0.3,0,0.4,0,0.4V24"/>
	<line class="st0" x1="33" y1="21.5" x2="33" y2="20.1"/>
	<line class="st0" x1="33" y1="24" x2="33" y2="22.6"/>
	<line class="st0" x1="35.1" y1="21.5" x2="35.1" y2="20.1"/>
	<line class="st0" x1="35.1" y1="24" x2="35.1" y2="22.6"/>
	<line class="st0" x1="29.9" y1="20.1" x2="29.2" y2="21.5"/>
	<path class="st0" d="M28.4,23c0.6,0.1,1.2,0.3,1.7,1L28.4,23z"/>
</g>
<g>
	<line class="st0" x1="47.1" y1="57.2" x2="43" y2="57.2"/>
	<line class="st0" x1="40.9" y1="35.1" x2="40.9" y2="33.2"/>
	<line class="st0" x1="40.9" y1="58.7" x2="40.9" y2="57.2"/>
	<g>
		<path class="st0" d="M45.1,30.2l-4.2,3v1.9l4.2-3l12.1,8.7v16.3H47.1c0-1.1-0.9-2.1-2.1-2.1S43,56,43,57.2h-2.1v1.6h17.9V40.1
			L45.1,30.2z M45,55.1c-1.1,0-2.1,0.9-2.1,2.1h4.1C47.1,56,46.2,55.1,45,55.1z M45,55.1c-1.1,0-2.1,0.9-2.1,2.1h4.1
			C47.1,56,46.2,55.1,45,55.1z"/>
		<g>
			<path class="st0" d="M44.5,58.7h1.1V37.2c0-0.3-0.2-0.5-0.5-0.5H45c-0.3,0-0.5,0.2-0.5,0.5V58.7z"/>
			<g>
				<path class="st0" d="M48.8,42.9h-4.3v-5.6l4.4,1.1c0.4,0.1,0.7,0.5,0.7,0.9V42C49.6,42.5,49.3,42.9,48.8,42.9z M45.6,41.8h2.9
					v-2.4l-2.9-0.7V41.8z"/>
				<path class="st0" d="M52.2,44.7h-4.8v-2.4h1.1v1.3H52v-2.9h-3.4v-1.1h3.7c0.5,0,0.9,0.4,0.9,0.9v3.4
					C53.1,44.3,52.7,44.7,52.2,44.7z"/>
			</g>
		</g>
	</g>
	<g>
		<rect x="18.7" y="38.6" class="st0" width="1.3" height="20.1"/>
		<g>
			<g>
				<path class="st0" d="M15.7,41.2c-1.8-1.8-4.4-2.3-7.3-1.6L8,39.7l-0.1,0.4c-0.8,2.9-0.2,5.6,1.6,7.3c1.2,1.2,2.9,1.9,4.9,1.9
					c0.7,0,1.4-0.1,2.1-0.2c0.1,0,0.2-0.1,0.4-0.1l0.4-0.1l0.1-0.4c0-0.1,0.1-0.2,0.1-0.4C17.9,45.4,17.4,42.9,15.7,41.2z
					 M16.1,47.8c-0.3,0.1-0.5,0.1-0.8,0.1c-0.3,0-0.6,0.1-0.9,0.1c-1.5,0-2.8-0.5-3.7-1.3c-0.1-0.1-0.1-0.1-0.2-0.2
					c-0.3-0.3-0.6-0.7-0.9-1.2c-0.6-1-0.8-2.3-0.6-3.7c0-0.3,0.1-0.5,0.1-0.8c0.3-0.1,0.5-0.1,0.8-0.1c1-0.1,2,0,2.8,0.2
					c0.5,0.2,1,0.4,1.4,0.7c0.2,0.2,0.4,0.3,0.6,0.5c1.2,1.2,1.7,2.9,1.5,4.9C16.2,47.2,16.1,47.5,16.1,47.8z"/>
				
					<rect x="13.2" y="38" transform="matrix(0.7071 -0.7071 0.7071 0.7071 -28.1963 23.1949)" class="st0" width="1.3" height="15.2"/>
				
					<rect x="11.2" y="43.7" transform="matrix(3.460685e-02 -0.9994 0.9994 3.460685e-02 -34.5965 56.2525)" class="st0" width="1.3" height="4.6"/>
				
					<rect x="12.9" y="40.3" transform="matrix(0.9976 -6.960216e-02 6.960216e-02 0.9976 -2.9489 1.0446)" class="st0" width="1.3" height="5.1"/>
			</g>
			<g>
				<polygon class="st0" points="22.5,47 22.5,48.9 19.9,51.5 19.3,50.9 18.9,50.5 19.3,50.1 21.2,48.3 21.3,48.1 				"/>
			</g>
		</g>
		<g>
			<g>
				<path class="st0" d="M19.4,10.4c-5.4,0-9.8,4.4-9.8,9.8c0,0,0.1,4.6,3.8,9.4c0.6,0.8,0.7,2.2,0.7,3c0,0.3,0,0.5,0,0.6l0.7,0.1
					v0.7h5.4c0-0.1,0.1-0.2,0.1-0.2c0.2-0.4,0.5-0.7,0.9-0.9c0.1-0.1,0.1-0.1,0.2-0.1h-5.9c0-0.1,0-0.2,0-0.2c0-1.1-0.2-2.6-1-3.5
					c-3.4-4.4-3.5-8.5-3.5-8.6c0-4.7,3.8-8.5,8.5-8.5c4.7,0,8.5,3.8,8.5,8.5c0,0,0,1.4-0.7,3.4c-0.1,0.4-0.3,0.8-0.5,1.2
					c0.3,0.2,0.8,0.7,0.9,1.2c0.3-0.5,0.5-1,0.6-1.5c0.9-2.5,0.9-4.2,0.9-4.2C29.2,14.8,24.8,10.4,19.4,10.4z"/>
				<g>
					<rect x="15.6" y="22.5" transform="matrix(0.9871 -0.16 0.16 0.9871 -4.2581 2.9566)" class="st0" width="1.3" height="10.7"/>
					<path class="st0" d="M24.1,22.7l-0.2,1.2l-0.7,4.5L22.7,31l-0.2,1.3L22,32.3c-0.2,0.1-0.5,0.1-0.7,0.2c-0.1,0-0.1,0.1-0.2,0.1
						l0-0.1l0-0.2l0.2-1.2l1.1-6.6l0.3-1.9v0l0-0.2l0.2,0L24.1,22.7z"/>
				</g>
				<polygon class="st0" points="16.3,24.9 15,23.4 16,22.5 16.3,22.9 17.1,22 17.9,22.9 18.6,22 19.4,22.9 20.2,22 21,22.9 
					21.8,22 22.6,22.9 22.9,22.5 23.9,23.4 22.6,24.9 21.8,24 21,24.9 20.2,24 19.4,24.9 18.6,24 17.9,24.9 17.1,24 				"/>
				<path class="st0" d="M14.8,32.3c-0.3,0-0.6,0.1-0.8,0.3c-0.4,0.3-0.6,0.7-0.6,1.2c0,0.3,0.1,0.5,0.2,0.7
					c-0.1,0.2-0.2,0.5-0.2,0.7c0,0.3,0.1,0.5,0.2,0.7c-0.1,0.2-0.2,0.5-0.2,0.7c0,0.6,0.3,1.1,0.8,1.3c0.2,0.7,0.9,1.2,1.6,1.2H20
					v-1.3h-4.1c-0.2,0-0.4-0.2-0.4-0.4v-0.1l-0.6-0.7l0-1.5c0,0-0.1-0.1-0.1-0.1c0-0.1,0-0.1,0.1-0.1v-0.3l0-1v0c0,0-0.1,0-0.1-0.1
					c0-0.1,0.1-0.1,0.1-0.1h5.4c0.2-0.4,0.5-0.7,0.9-0.9c0.1-0.1,0.1-0.1,0.2-0.1c0.2-0.1,0.4-0.2,0.7-0.2H14.8z"/>
			</g>
			<rect x="14.6" y="34.9" class="st0" width="4.6" height="1.3"/>
		</g>
		<g>
			<rect x="22.2" y="8.4" transform="matrix(0.372 -0.9283 0.9283 0.372 6.4008 27.5352)" class="st0" width="2.7" height="1.3"/>
			<rect x="16.8" y="7" transform="matrix(0.9899 -0.142 0.142 0.9899 -1.0174 2.5564)" class="st0" width="1.3" height="2.7"/>
			<rect x="11.1" y="9.6" transform="matrix(0.7862 -0.6179 0.6179 0.7862 -4.2422 9.6043)" class="st0" width="1.3" height="2.7"/>
			<rect x="27.2" y="12" transform="matrix(0.7863 -0.6179 0.6179 0.7863 -1.7174 20.3502)" class="st0" width="2.7" height="1.3"/>
		</g>
		<g>
			<rect x="36" y="45.1" class="st0" width="1.3" height="13.5"/>
		</g>
		<g>
			<path class="st0" d="M36.7,18.1c-2.1,0-3.9,1.7-3.9,3.9c0,2.1,1.7,3.9,3.9,3.9c2.1,0,3.9-1.7,3.9-3.9
				C40.5,19.8,38.8,18.1,36.7,18.1z M36.7,24.5c-1.4,0-2.6-1.2-2.6-2.6c0-1.4,1.2-2.6,2.6-2.6c1.4,0,2.6,1.2,2.6,2.6
				C39.2,23.4,38.1,24.5,36.7,24.5z"/>
		</g>
		<g>
			<path class="st0" d="M41.1,26.7l-0.7,1.2c-0.2,0-0.3,0-0.5,0h-6.4c-1.8,0-3.2,1.4-3.2,3.2v0.6H29V31c0-2.5,2-4.5,4.5-4.5h6.4
				C40.3,26.5,40.7,26.6,41.1,26.7z"/>
		</g>
		<g>
			<rect x="25.1" y="47.7" class="st0" width="1.3" height="10.9"/>
		</g>
		<g>
			<path class="st0" d="M28.2,25.3c-0.3-0.4-0.7-0.7-1.1-0.9c-0.4-0.2-0.9-0.3-1.4-0.3c-0.7,0-1.3,0.2-1.9,0.6
				c-0.8,0.6-1.3,1.5-1.3,2.6c0,0.7,0.2,1.4,0.6,1.9c0.2,0.3,0.6,0.6,0.9,0.9c0.4,0.2,0.8,0.4,1.3,0.4c0.1,0,0.3,0,0.4,0
				c1.8,0,3.2-1.4,3.2-3.2C28.9,26.5,28.7,25.8,28.2,25.3z M26.3,29.1c-0.2,0.1-0.4,0.1-0.6,0.1c-0.3,0-0.7-0.1-0.9-0.2
				c-0.6-0.3-1-1-1-1.7c0-1.1,0.9-1.9,1.9-1.9c0.3,0,0.7,0.1,1,0.3c0.4,0.3,0.8,0.7,0.9,1.2c0,0.2,0.1,0.3,0.1,0.5
				C27.6,28.2,27.1,28.9,26.3,29.1z"/>
		</g>
		<g>
			<path class="st0" d="M32.8,34.9v11.6h-2.6v12.2H29V45.1h2.6V34.9c0-1.4-1.2-2.6-2.6-2.6h-6.4c-0.2,0-0.4,0-0.5,0.1
				c-0.2,0.1-0.5,0.1-0.7,0.2c-0.1,0-0.1,0.1-0.2,0.1c-0.4,0.2-0.7,0.6-0.9,0.9c0,0.1-0.1,0.2-0.1,0.2C20,34.2,20,34.5,20,34.9v10.3
				h2.6v13.5h-1.3V46.4h-2.6V34.9c0-0.3,0-0.6,0.1-0.9c0-0.1,0-0.2,0.1-0.2c0.1-0.4,0.3-0.8,0.6-1.1c0.1-0.1,0.1-0.2,0.2-0.2
				c0.5-0.5,1.1-0.9,1.7-1.2c0.4-0.1,0.8-0.2,1.2-0.2H29c0.5,0,0.9,0.1,1.3,0.2C31.7,31.7,32.8,33.2,32.8,34.9z"/>
		</g>
		<g>
			<rect x="36" y="29.1" class="st0" width="1.3" height="1.3"/>
		</g>
		<g>
			<rect x="36" y="31.6" class="st0" width="1.3" height="1.3"/>
		</g>
		<g>
			<rect x="25.1" y="33.6" class="st0" width="1.3" height="1.3"/>
		</g>
		<g>
			<polygon class="st0" points="40.5,31.4 40.5,32.5 40.5,58.6 41.8,58.6 41.8,31.9 41.8,30.7 40.9,30.7 			"/>
		</g>
		<rect x="31.5" y="45.8" class="st0" width="1.3" height="12.9"/>
		<rect x="40.5" y="45.8" class="st0" width="1.3" height="12.9"/>
		<path class="st0" d="M46.4,15.1v8.4c0,0.1,0,0.2-0.1,0.3l-2.7,4.8l-0.8,1.4l-1.1,2l-0.5,1l-0.7-0.4v-1.1l0.4-0.6l1.2-2.1l0.6-1.1
			l2.3-4.2l0-7.5h-1.6v6.7c0,0.1,0,0.3-0.1,0.4l-2.3,3.8l-0.7,1.1l-1.2-0.7l0.3-0.6l2.5-4.2v-7.2c0-0.2,0.1-0.4,0.2-0.5
			c0.1-0.1,0.3-0.2,0.5-0.2h3C46.1,14.4,46.4,14.7,46.4,15.1z"/>
		<line class="st0" x1="41.1" y1="26.7" x2="40.4" y2="27.8"/>
	</g>
</g>
<g>
	<g>
		<path class="st0" d="M49.3,40.1c-1.9,0-3.5,1.6-3.5,3.5c0,0.9,0.4,1.8,1,2.4c0.6,0.7,1.5,1.1,2.5,1.1c1,0,1.9-0.4,2.5-1.1
			c0.6-0.6,1-1.5,1-2.4C52.8,41.6,51.2,40.1,49.3,40.1z M49.3,41.5c1.1,0,2.1,0.9,2.1,2.1s-0.9,2.1-2.1,2.1c-1.1,0-2.1-0.9-2.1-2.1
			S48.1,41.5,49.3,41.5z"/>
		<path class="st0" d="M53.6,46.4c-0.6-0.2-1.2-0.3-1.8-0.4c-1.7-0.3-3.4-0.3-5,0c-0.6,0.1-1.2,0.2-1.8,0.4c-1,0.3-1.9,1.5-1.9,2.6
			v2.9c0.4,0.4,0.9,0.8,1.4,1.2v-4.1c0-0.5,0.4-1.1,0.9-1.2c2.5-0.8,5.2-0.8,7.8,0c0.5,0.1,0.9,0.7,0.9,1.2V53
			c0.5-0.3,1-0.7,1.4-1.2v-2.9C55.4,47.8,54.6,46.7,53.6,46.4z"/>
		<g>
			<path class="st0" d="M47,49.4v4.7c-0.5-0.1-1-0.3-1.4-0.5v-4.2H47z"/>
			<path class="st0" d="M52.9,49.4v4.2c-0.4,0.2-0.9,0.4-1.4,0.5v-4.7H52.9z"/>
		</g>
	</g>
	<g>
		<path class="st0" d="M48,10.2c0.1-0.2,0.1-0.3,0.1-0.5c0-0.6-0.5-1.1-1.1-1.1c-0.5,0-0.9,0.3-1.1,0.8l-8.1-1.6c0,0,0,0,0,0
			c0-0.4-0.4-0.8-0.8-0.8c-0.4,0-0.8,0.4-0.8,0.8c0,0,0,0,0,0l-8.1,1.6C28,8.8,27.5,8.5,27,8.5c-0.6,0-1.1,0.5-1.1,1.1
			c0,0.2,0,0.4,0.1,0.5l-6.5,4.4c-0.1-0.2-0.4-0.3-0.6-0.3c-0.4,0-0.8,0.4-0.8,0.8c0,0.2,0.1,0.4,0.3,0.6L14.8,21
			c0.2-0.1,0.3-0.2,0.5-0.3l3.3-4.8c0.1,0,0.2,0.1,0.3,0.1c0.2,0,0.3-0.1,0.5-0.2l3.1,3.1c0,0,0.2-0.2,0.2-0.2l-3.1-3.1
			c0.1-0.1,0.1-0.2,0.1-0.3l8.6,0.2c0,0.6,0.5,1.1,1.1,1.1c0.4,0,0.7-0.2,0.9-0.4l3.5,2.2l-1,1.5c-0.3-0.1-0.5-0.2-0.9-0.2
			c-1,0-1.7,0.8-1.7,1.7c0,0.1,0,0.2,0,0.3v0c0.6,0.4,1.1,0.9,1.6,1.4c0,0,0,0,0,0c1,0,1.7-0.8,1.7-1.7c0-0.1,0-0.1,0-0.2l2.3-0.5
			c0.2,0.5,0.6,0.8,1.1,0.8c0.5,0,0.9-0.3,1.1-0.8l2.7,0.6c0-0.1,0-0.2-0.1-0.3l-2.6-0.5c0,0,0-0.1,0-0.1c0-0.6-0.5-1.1-1.1-1.1
			c-0.4,0-0.7,0.2-0.9,0.4l-2-1.2l2.3-3.3c0.2,0.1,0.3,0.1,0.5,0.1c0.6,0,1.1-0.5,1.1-1.2c0-0.6-0.4-1.1-1-1.1l0-4.4
			c0.1,0,0.2-0.1,0.3-0.1l5.2,5.4c0.1-0.1,0.1-0.1,0.2-0.2l-5.2-5.4c0-0.1,0.1-0.1,0.1-0.2l8.1,1.6c0,0,0,0.1,0,0.1
			c0,0.6,0.5,1.2,1.1,1.2c0.3,0,0.7-0.2,0.9-0.4l0.3,0.2c0.1,0,0.3,0,0.4,0L48,10.2z M36,19.7c-0.1,0.2-0.1,0.3-0.1,0.5
			c0,0,0,0.1,0,0.1l-2.3,0.5c-0.1-0.3-0.3-0.6-0.6-0.9l1-1.5L36,19.7z M33.9,18.1l-3.5-2.2c0.1-0.2,0.1-0.3,0.1-0.5c0,0,0-0.1,0-0.1
			l5.3-1.1c0.1,0.2,0.2,0.4,0.3,0.5L33.9,18.1z M36.8,12.8c-0.6,0.1-1,0.5-1,1.1c0,0,0,0.1,0,0.1l-5.3,1.1c-0.1-0.5-0.6-0.8-1.1-0.8
			c-0.6,0-1,0.4-1.1,1L19.7,15c0-0.1,0-0.2-0.1-0.2l6.5-4.4c0.2,0.2,0.5,0.4,0.9,0.4c0.6,0,1.1-0.5,1.1-1.1c0,0,0-0.1,0-0.1l8.1-1.6
			c0.1,0.3,0.3,0.5,0.6,0.5L36.8,12.8z M50.2,54.9c-0.2,0-0.3,0-0.5,0h0l-1.8,1.2c-0.2-0.2-0.5-0.4-0.9-0.4c-0.6,0-1.1,0.5-1.1,1.2
			c0,0,0,0.1,0,0.1l-7.7,1.6c-0.2-0.5-0.6-0.8-1.1-0.8c-0.3,0-0.5,0.1-0.7,0.2l-5.6-5.8c0.3-0.3,0.4-0.7,0.4-1.1
			c0-0.7-0.4-1.2-0.9-1.5l1.5-3.5c0.1,0,0.1,0,0.2,0c0.1,0,0.2,0,0.3-0.1l4.1,6c-0.2,0.1-0.2,0.3-0.2,0.6c0,0.4,0.4,0.8,0.8,0.8
			c0.4,0,0.8-0.4,0.8-0.8c0,0,0,0,0,0l4.7-1c-0.1-0.1-0.1-0.2-0.2-0.2l-4.6,0.9c-0.1-0.3-0.4-0.5-0.7-0.5c-0.1,0-0.2,0-0.3,0.1
			l-4.1-6c0.1-0.1,0.2-0.2,0.2-0.3l3.2,0.7c0,0,0,0.1,0,0.1c0,0.6,0.5,1.1,1.1,1.1c0.6,0,1.2-0.5,1.2-1.1c0,0,0-0.1,0-0.1l2.5-0.5
			c0-0.1,0-0.2,0-0.3l-2.6,0.5c-0.2-0.5-0.6-0.8-1.1-0.8c-0.5,0-0.9,0.3-1.1,0.8l-3.2-0.7c0,0,0,0,0,0c0-0.4-0.4-0.8-0.8-0.8
			c-0.2,0-0.4,0.1-0.6,0.3l-1.2-0.8C30.1,44,30,44,30,44.1l1.2,0.8c0,0.1-0.1,0.2-0.1,0.3c0,0.3,0.1,0.5,0.4,0.7L30,49.4
			c-0.2-0.1-0.4-0.1-0.6-0.1c-0.9,0-1.7,0.7-1.7,1.6L20,51.2c-0.1-0.5-0.5-0.9-1-1l0.1-4c-0.1,0-0.2,0-0.3-0.1l-0.1,4
			c-0.2,0-0.3,0.1-0.4,0.1l-4.2-6.3c0,0,0,0,0,0c-0.6-0.4-1.2-0.9-1.7-1.4c-0.1,0.2-0.2,0.4-0.2,0.6c0,0.6,0.5,1.1,1.1,1.1
			c0.2,0,0.4-0.1,0.5-0.1l4.2,6.3c-0.2,0.2-0.4,0.5-0.4,0.9c0,0.6,0.5,1.1,1.1,1.1c0.3,0,0.7-0.2,0.9-0.4l5.8,3.9
			c-0.1,0.3-0.2,0.5-0.2,0.8c0,1,0.8,1.7,1.7,1.7c0.8,0,1.4-0.5,1.7-1.3l7.2,1.4c0,0,0,0.1,0,0.1c0,0.6,0.5,1.1,1.1,1.1
			c0.6,0,1.2-0.5,1.2-1.1c0,0,0-0.1,0-0.1l7.7-1.6C46,57.7,46.4,58,47,58c0.6,0,1.1-0.5,1.1-1.1c0-0.2,0-0.4-0.1-0.5L50.2,54.9z
			 M35.9,58.5l-7.2-1.5c0-0.1,0-0.1,0-0.2c0-0.9-0.8-1.7-1.7-1.7c-0.5,0-1,0.3-1.3,0.7l-5.8-3.9c0.1-0.1,0.1-0.3,0.1-0.4l7.7-0.2
			c0.1,0.9,0.8,1.5,1.7,1.5c0.4,0,0.8-0.2,1.1-0.4l5.6,5.8C36,58.3,35.9,58.4,35.9,58.5z M22.6,46.5c-0.1,0.1-0.1,0.2-0.1,0.3
			c0,0.4,0.4,0.8,0.8,0.8s0.8-0.4,0.8-0.8c0-0.2-0.1-0.3-0.1-0.5L22.6,46.5z M22.6,46.5c-0.1,0.1-0.1,0.2-0.1,0.3
			c0,0.4,0.4,0.8,0.8,0.8s0.8-0.4,0.8-0.8c0-0.2-0.1-0.3-0.1-0.5L22.6,46.5z M22.6,46.5c-0.1,0.1-0.1,0.2-0.1,0.3
			c0,0.4,0.4,0.8,0.8,0.8s0.8-0.4,0.8-0.8c0-0.2-0.1-0.3-0.1-0.5L22.6,46.5z M22.6,46.5c-0.1,0.1-0.1,0.2-0.1,0.3
			c0,0.4,0.4,0.8,0.8,0.8s0.8-0.4,0.8-0.8c0-0.2-0.1-0.3-0.1-0.5L22.6,46.5z M22.6,46.5c-0.1,0.1-0.1,0.2-0.1,0.3
			c0,0.4,0.4,0.8,0.8,0.8s0.8-0.4,0.8-0.8c0-0.2-0.1-0.3-0.1-0.5L22.6,46.5z M22.6,46.5c-0.1,0.1-0.1,0.2-0.1,0.3
			c0,0.4,0.4,0.8,0.8,0.8s0.8-0.4,0.8-0.8c0-0.2-0.1-0.3-0.1-0.5L22.6,46.5z M22.6,46.5c-0.1,0.1-0.1,0.2-0.1,0.3
			c0,0.4,0.4,0.8,0.8,0.8s0.8-0.4,0.8-0.8c0-0.2-0.1-0.3-0.1-0.5L22.6,46.5z M22.6,46.5c-0.1,0.1-0.1,0.2-0.1,0.3
			c0,0.4,0.4,0.8,0.8,0.8s0.8-0.4,0.8-0.8c0-0.2-0.1-0.3-0.1-0.5L22.6,46.5z M22.6,46.5c-0.1,0.1-0.1,0.2-0.1,0.3
			c0,0.4,0.4,0.8,0.8,0.8s0.8-0.4,0.8-0.8c0-0.2-0.1-0.3-0.1-0.5L22.6,46.5z M22.6,46.5c-0.1,0.1-0.1,0.2-0.1,0.3
			c0,0.4,0.4,0.8,0.8,0.8s0.8-0.4,0.8-0.8c0-0.2-0.1-0.3-0.1-0.5L22.6,46.5z M22.6,46.5c-0.1,0.1-0.1,0.2-0.1,0.3
			c0,0.4,0.4,0.8,0.8,0.8s0.8-0.4,0.8-0.8c0-0.2-0.1-0.3-0.1-0.5L22.6,46.5z"/>
		<path class="st0" d="M23.9,46.4c-0.5,0.1-0.9,0.1-1.4,0.1L23.9,46.4z"/>
		<g>
			<g>
				<g>
					<g>
						<rect x="17.8" y="26.9" class="st0" width="8.5" height="0.8"/>
					</g>
					<g>
						<path class="st0" d="M28.8,37.5c-0.1,0-0.2,0-0.3-0.1c-0.2-0.2-0.2-0.4,0-0.6l1.6-1.6v-0.8l1.4-1.4c0.2-0.2,0.4-0.2,0.6,0
							c0.2,0.2,0.2,0.4,0,0.6L31,34.7v0.8l-1.8,1.8C29.1,37.5,28.9,37.5,28.8,37.5z"/>
					</g>
					<g>
						<path class="st0" d="M27.1,42.6c-0.6,0-1.1-0.5-1.1-0.5l-4.7-4.7c-0.2-0.2-0.2-0.4,0-0.6c0.2-0.2,0.4-0.2,0.6,0l4.7,4.7
							c0.1,0.1,0.4,0.3,0.5,0.3c0.5,0,0.8-0.4,0.8-0.8c0-0.2-0.2-0.4-0.3-0.5L23,35.7c-0.2-0.2-0.2-0.4,0-0.6c0.2-0.2,0.4-0.2,0.6,0
							l4.7,4.7c0.1,0.1,0.5,0.6,0.5,1.1C28.8,41.8,28.1,42.6,27.1,42.6z"/>
					</g>
					<g>
						<path class="st0" d="M25,43.8c-0.6,0-1.1-0.5-1.1-0.5l-4.2-4.2c-0.2-0.2-0.2-0.4,0-0.6c0.2-0.2,0.4-0.2,0.6,0l4.2,4.2
							c0.1,0.1,0.4,0.3,0.5,0.3c0.5,0,0.8-0.4,0.8-0.8c0-0.2-0.2-0.4-0.3-0.5c-0.2-0.2-0.2-0.4,0-0.6c0.2-0.2,0.4-0.2,0.6,0
							c0.1,0.1,0.5,0.6,0.5,1.1C26.7,43.1,26,43.8,25,43.8z"/>
					</g>
					<g>
						<path class="st0" d="M22.5,44.7c-0.6,0-1.1-0.5-1.1-0.5l-7.7-7.7v-1.3l-1.6-1.6c-0.2-0.2-0.2-0.4,0-0.6c0.2-0.2,0.4-0.2,0.6,0
							l1.8,1.8v1.3l7.5,7.5c0.1,0.1,0.4,0.3,0.5,0.3c0.5,0,0.8-0.4,0.8-0.8c0-0.2-0.2-0.4-0.3-0.5c-0.2-0.2-0.2-0.4,0-0.6
							c0.2-0.2,0.4-0.2,0.6,0c0.1,0.1,0.5,0.6,0.5,1.1C24.2,43.9,23.4,44.7,22.5,44.7z"/>
					</g>
					<g>
						<path class="st0" d="M15.3,39.6c-0.9,0-1.7-0.8-1.7-1.7c0-0.6,0.5-1.1,0.5-1.1c0.2-0.2,0.4-0.2,0.6,0c0.2,0.2,0.2,0.4,0,0.6
							c-0.1,0.1-0.3,0.4-0.3,0.5c0,0.5,0.4,0.8,0.8,0.8c0.2,0,0.4-0.2,0.5-0.3c0.2-0.2,0.4-0.2,0.6,0c0.2,0.2,0.2,0.4,0,0.6
							C16.4,39.1,15.9,39.6,15.3,39.6z"/>
					</g>
					<g>
						<path class="st0" d="M17,41.3c-0.9,0-1.7-0.8-1.7-1.7c0-0.6,0.5-1.1,0.5-1.1c0.2-0.2,0.4-0.2,0.6,0c0.2,0.2,0.2,0.4,0,0.6
							c-0.1,0.1-0.3,0.4-0.3,0.5c0,0.5,0.4,0.8,0.8,0.8c0.2,0,0.4-0.2,0.5-0.3c0.2-0.2,0.4-0.2,0.6,0c0.2,0.2,0.2,0.4,0,0.6
							C18.1,40.8,17.6,41.3,17,41.3z"/>
					</g>
					<g>
						<path class="st0" d="M18.7,43c-0.9,0-1.7-0.8-1.7-1.7c0-0.6,0.5-1.1,0.5-1.1c0.2-0.2,0.4-0.2,0.6,0c0.2,0.2,0.2,0.4,0,0.6
							c-0.1,0.1-0.3,0.4-0.3,0.5c0,0.5,0.4,0.8,0.8,0.8c0.2,0,0.4-0.2,0.5-0.3c0.2-0.2,0.4-0.2,0.6,0c0.2,0.2,0.2,0.4,0,0.6
							C19.8,42.5,19.3,43,18.7,43z"/>
					</g>
					<g>
						<path class="st0" d="M20.4,44.7c-0.9,0-1.7-0.8-1.7-1.7c0-0.6,0.5-1.1,0.5-1.1c0.2-0.2,0.4-0.2,0.6,0c0.2,0.2,0.2,0.4,0,0.6
							c-0.1,0.1-0.3,0.4-0.3,0.5c0,0.5,0.4,0.8,0.8,0.8c0.2,0,0.4-0.2,0.5-0.3c0.2-0.2,0.4-0.2,0.6,0c0.2,0.2,0.2,0.4,0,0.6
							C21.5,44.2,21,44.7,20.4,44.7z"/>
					</g>
					<g>
						<path class="st0" d="M28,40c-0.6,0-1.1-0.5-1.1-0.5c-0.2-0.2-0.2-0.4,0-0.6c0.2-0.2,0.4-0.2,0.6,0c0.1,0.1,0.4,0.3,0.5,0.3
							c0.5,0,0.8-0.4,0.8-0.8c0-0.2-0.2-0.4-0.3-0.5l-5.6-5.6v-2.3h-0.7l-2,2c-0.1,0.1-0.6,0.5-1.1,0.5c-0.9,0-1.7-0.8-1.7-1.7
							c0-0.6,0.5-1.1,0.5-1.1l2.5-2.5c0.2-0.2,0.4-0.2,0.6,0c0.2,0.2,0.2,0.4,0,0.6l-2.5,2.5c-0.1,0.1-0.3,0.4-0.3,0.5
							c0,0.5,0.4,0.8,0.8,0.8c0.2,0,0.4-0.2,0.5-0.3l2.2-2.2h1.9v2.8l5.4,5.4c0.1,0.1,0.5,0.6,0.5,1.1C29.7,39.3,28.9,40,28,40z"/>
					</g>
					<g>
						<path class="st0" d="M25.5,33.3h-1.3v-0.8h1.3c0.5,0,0.8-0.4,0.8-0.8h0.8C27.1,32.5,26.4,33.3,25.5,33.3z"/>
					</g>
					<g>
						<path class="st0" d="M33.1,33.7h-0.8c-0.1,0-0.2,0-0.3-0.1l-6.8-6.8c-0.1-0.1-0.1-0.2-0.1-0.3v-0.8c0-0.1,0-0.2,0.1-0.3
							l4.2-4.2c0.2-0.2,0.4-0.2,0.6,0c0.2,0.2,0.2,0.4,0,0.6l-4.1,4.1v0.5l6.5,6.5h0.5l2-2c0.2-0.2,0.4-0.2,0.6,0
							c0.2,0.2,0.2,0.4,0,0.6l-2.1,2.1C33.3,33.7,33.2,33.7,33.1,33.7z"/>
					</g>
					<g>
						<path class="st0" d="M11.9,33.7h-0.8c-0.1,0-0.2,0-0.3-0.1l-2.1-2.1c-0.2-0.2-0.2-0.4,0-0.6c0.2-0.2,0.4-0.2,0.6,0l2,2h0.5
							l6.5-6.5v-0.5l-4.1-4.1c-0.2-0.2-0.2-0.4,0-0.6c0.2-0.2,0.4-0.2,0.6,0l4.2,4.2c0.1,0.1,0.1,0.2,0.1,0.3v0.8
							c0,0.1,0,0.2-0.1,0.3l-6.8,6.8C12.1,33.7,12,33.7,11.9,33.7z"/>
					</g>
					<g>
						<path class="st0" d="M32.6,30.7c-0.1,0-0.2,0-0.3-0.1c-0.2-0.2-0.2-0.4,0-0.6l0.8-0.8c0.2-0.2,0.4-0.2,0.6,0
							c0.2,0.2,0.2,0.4,0,0.6l-0.8,0.8C32.9,30.7,32.8,30.7,32.6,30.7z"/>
					</g>
					<g>
						<path class="st0" d="M11.5,30.7c-0.1,0-0.2,0-0.3-0.1l-0.8-0.8c-0.2-0.2-0.2-0.4,0-0.6c0.2-0.2,0.4-0.2,0.6,0l0.8,0.8
							c0.2,0.2,0.2,0.4,0,0.6C11.7,30.7,11.6,30.7,11.5,30.7z"/>
					</g>
				</g>
				<g>
					<path class="st0" d="M20.4,38.3"/>
				</g>
				<g>
					<path class="st0" d="M19.5,39.2"/>
				</g>
			</g>
		</g>
		<path class="st0" d="M49.3,36.7c-2.6,0-4.9,1-6.8,2.8c-1,1-1.7,2.1-2.2,3.4l-5.7-3.3c1.2-2.1,1.8-4.4,1.8-6.9
			c0-2.4-0.6-4.8-1.8-6.9l5.6-3.3c0.5,1.3,1.2,2.4,2.2,3.4c1.8,1.8,4.2,2.8,6.7,2.8h0c2.6,0,5-1,6.8-2.8c1.8-1.8,2.8-4.2,2.8-6.7
			c0-2.5-1-4.9-2.8-6.7c-0.9-0.9-2-1.6-3.1-2.1c-1.1-0.5-2.4-0.7-3.7-0.7c-2.6,0-4.9,1-6.8,2.8c-1.8,1.8-2.8,4.2-2.8,6.7
			c0,0.6,0.1,1.2,0.2,1.8l-6,3.5c-0.5-0.7-1-1.4-1.6-2c-2.7-2.7-6.3-4.2-10.2-4.2c-3.8,0-7.5,1.5-10.2,4.2
			c-2.7,2.7-4.2,6.3-4.2,10.1c0,3.8,1.5,7.4,4.2,10.2c2.7,2.7,6.3,4.2,10.2,4.2c0,0,0,0,0,0c1.9,0,3.8-0.4,5.5-1.1
			c1.7-0.7,3.3-1.8,4.7-3.1c0.6-0.6,1.1-1.3,1.6-1.9l6,3.5c-0.1,0.6-0.2,1.2-0.2,1.8c0,2.5,1,4.9,2.8,6.7c1.8,1.8,4.2,2.8,6.7,2.8h0
			c2.6,0,5-1,6.8-2.8c1.8-1.8,2.8-4.2,2.8-6.7c0-2.5-1-4.9-2.8-6.7C54.2,37.7,51.8,36.7,49.3,36.7z M43.6,13.6
			c1.5-1.5,3.5-2.3,5.6-2.3c2.1,0,4.1,0.8,5.6,2.3c1.5,1.5,2.3,3.5,2.3,5.6c0,1.1-0.2,2.1-0.6,3c-0.4,1-1,1.8-1.7,2.6
			c-1.5,1.5-3.5,2.4-5.7,2.4c0,0,0,0,0,0c-2.1,0-4.1-0.8-5.6-2.3c-1.5-1.5-2.3-3.5-2.3-5.6C41.3,17.1,42.1,15.1,43.6,13.6z
			 M31.2,41.8c-2.4,2.4-5.7,3.8-9.1,3.8c0,0,0,0,0,0c-3.4,0-6.6-1.3-9.1-3.8c-2.4-2.4-3.8-5.6-3.8-9.1c0-3.4,1.3-6.6,3.7-9
			c2.4-2.4,5.6-3.8,9.1-3.8c3.4,0,6.6,1.3,9.1,3.8c2.4,2.4,3.8,5.6,3.8,9.1C34.9,36.1,33.6,39.3,31.2,41.8z M56.7,49.3
			c-0.4,1-1,1.8-1.7,2.6c-1.5,1.5-3.5,2.4-5.7,2.4c0,0,0,0,0,0c-2.1,0-4.1-0.8-5.6-2.3c-1.5-1.5-2.3-3.5-2.3-5.6
			c0-2.1,0.8-4.1,2.3-5.6c1.5-1.5,3.5-2.4,5.7-2.4c2.1,0,4.1,0.8,5.6,2.3c1.5,1.5,2.3,3.5,2.3,5.6C57.3,47.3,57.1,48.3,56.7,49.3z"
			/>
	</g>
	<g>
		<path class="st0" d="M49.3,13.3c-1.9,0-3.5,1.6-3.5,3.5c0,0.9,0.4,1.8,1,2.4c0.6,0.7,1.5,1.1,2.5,1.1c1,0,1.9-0.4,2.5-1.1
			c0.6-0.6,1-1.5,1-2.4C52.8,14.8,51.2,13.3,49.3,13.3z M49.3,14.7c1.1,0,2.1,0.9,2.1,2.1s-0.9,2.1-2.1,2.1c-1.1,0-2.1-0.9-2.1-2.1
			S48.1,14.7,49.3,14.7z"/>
		<path class="st0" d="M53.6,19.5c-0.6-0.2-1.2-0.3-1.8-0.4c-1.7-0.3-3.4-0.3-5,0c-0.6,0.1-1.2,0.2-1.8,0.4c-1,0.3-1.9,1.5-1.9,2.6
			V25c0.4,0.4,0.9,0.8,1.4,1.2v-4.1c0-0.5,0.4-1.1,0.9-1.2c2.5-0.8,5.2-0.8,7.8,0c0.5,0.1,0.9,0.7,0.9,1.2v4.1
			c0.5-0.3,1-0.7,1.4-1.2v-2.9C55.4,21,54.6,19.9,53.6,19.5z"/>
		<g>
			<path class="st0" d="M47,22.6v4.7c-0.5-0.1-1-0.3-1.4-0.5v-4.2H47z"/>
			<path class="st0" d="M52.9,22.6v4.2c-0.4,0.2-0.9,0.4-1.4,0.5v-4.7H52.9z"/>
		</g>
	</g>
</g>
</svg>
