<?xml version="1.0" encoding="utf-8"?>
<!-- Generator: Adobe Illustrator 22.1.0, SVG Export Plug-In . SVG Version: 6.00 Build 0)  -->
<svg version="1.1" id="Layer_1" xmlns="http://www.w3.org/2000/svg" xmlns:xlink="http://www.w3.org/1999/xlink" x="0px" y="0px"
	 viewBox="0 0 51.5 59.8" style="enable-background:new 0 0 51.5 59.8;" xml:space="preserve">
<style type="text/css">
	.st0{display:none;fill:#A6A6A6;}
	.st1{display:none;}
	.st2{display:inline;fill:#444444;}
	.st3{fill:#444444;}
	.st4{display:inline;fill:none;}
	.st5{display:inline;fill:#A6A6A6;}
</style>
<path class="st0" d="M50,25.2l-3.8-2.8l0,0L25.4,7.1L4.3,22.4l0,0l-3.7,2.7l1.3,1.3l2.3-1.7v26.6H46V24.7l2.5,1.8L50,25.2z
	 M38.7,29.8L36,30.4c-0.1-0.4-0.4-0.7-0.7-1l1.2-1.7l2.3,1.4c-0.1,0.2-0.1,0.4-0.1,0.6C38.7,29.8,38.7,29.8,38.7,29.8z M32.4,31.9
	l-2.1,1.4c-0.2-0.3-0.6-0.5-1-0.5c-0.3,0-0.6,0.1-0.8,0.3l-3.3-3.3c0.2-0.2,0.3-0.5,0.3-0.8c0-0.7-0.6-1.3-1.3-1.3
	c-0.3,0-0.6,0.1-0.8,0.3l-3.6-3.6c0.1-0.1,0.1-0.2,0.2-0.4l10,0.3c0.1,0.7,0.6,1.2,1.3,1.2c0.4,0,0.8-0.2,1-0.5l4,2.5l-1.2,1.7
	c-0.3-0.2-0.6-0.3-1-0.3c-1.1,0-2,0.9-2,2C32.1,31.3,32.2,31.6,32.4,31.9z M25.7,39.9L24.9,44l0,0c-0.5,0-0.8,0.3-0.9,0.8h-5.1
	c-0.1-0.7-0.7-1.3-1.4-1.3c-0.1,0-0.3,0-0.4,0.1l-3.9-9.1c0.2-0.1,0.4-0.3,0.5-0.5l3.6,1.5c-0.1,0.2-0.1,0.4-0.1,0.6
	c0,1.1,0.9,2,2,2s2-0.9,2-2c0-0.1,0-0.2,0-0.2l6.8-1.3c0.1,0.2,0.2,0.5,0.4,0.6l-2,3c-0.1-0.1-0.2-0.1-0.4-0.1
	c-0.5,0-0.9,0.4-0.9,0.9C25.1,39.4,25.4,39.7,25.7,39.9z M15.8,49.4l1.4-3.2c0.1,0,0.2,0.1,0.4,0.1c0.7,0,1.2-0.5,1.3-1.2H24
	c0.1,0.4,0.5,0.8,0.9,0.8l0,0l0.7,3.6L15.8,49.4L15.8,49.4z M10.6,44l1.9-9.4h0.1c0.1,0,0.2,0,0.4-0.1l3.9,9.2
	c-0.4,0.2-0.7,0.7-0.7,1.2s0.3,0.9,0.7,1.2l-1.4,3.4h-4.1l-0.7-3.6c0.3-0.1,0.6-0.5,0.6-0.9C11.2,44.5,10.9,44.2,10.6,44z
	 M24.1,30.4c0.3,0,0.6-0.1,0.8-0.3l3.3,3.3c-0.2,0.2-0.3,0.5-0.3,0.8v0.1l-6.8,1.3c-0.2-0.8-1-1.5-1.9-1.5c-0.8,0-1.4,0.4-1.8,1.1
	l-3.6-1.5c0-0.1,0.1-0.2,0.1-0.4c0-0.4-0.2-0.8-0.5-1l5.1-7.6c0.1,0.1,0.2,0.1,0.4,0.1c0.2,0,0.4-0.1,0.5-0.2l3.6,3.6
	c-0.2,0.2-0.3,0.5-0.3,0.8C22.8,29.8,23.4,30.4,24.1,30.4z M36.5,27.3l-4-2.5c0.1-0.2,0.1-0.4,0.1-0.6v-0.1l6.2-1.2
	c0.1,0.2,0.2,0.4,0.4,0.6L36.5,27.3z M38.6,22.4v0.1l-6.1,1.3c-0.2-0.5-0.7-0.9-1.3-0.9c-0.7,0-1.2,0.5-1.3,1.1l-10-0.3
	c0-0.1,0-0.2-0.1-0.3l7.6-5.1c0.2,0.3,0.6,0.5,1,0.5c0.7,0,1.3-0.6,1.3-1.3v-0.1l5.1-1l5,3.7v1.1C39.2,21.2,38.6,21.7,38.6,22.4z
	 M6.1,23.3L7,22.6l0,0L25.3,9.3l9.1,6.7l-4.8,1c-0.2-0.5-0.7-0.9-1.3-0.9c-0.7,0-1.3,0.6-1.3,1.3c0,0.2,0.1,0.4,0.2,0.6l-7.6,5.1
	c-0.2-0.2-0.4-0.3-0.7-0.3c-0.5,0-0.9,0.4-0.9,0.9c0,0.3,0.1,0.5,0.3,0.7L13.2,32c-0.2-0.1-0.4-0.2-0.6-0.2c-0.7,0-1.3,0.6-1.3,1.3
	c0,0.6,0.4,1.1,0.9,1.3l-1.9,9.4l0,0c-0.5,0-0.9,0.4-0.9,0.9s0.4,0.9,0.9,0.9l0,0l0.7,3.6H6.1C6.1,49.2,6.1,23.3,6.1,23.3z M26,49.4
	l-0.7-3.6c0.4-0.1,0.6-0.5,0.6-0.9s-0.2-0.7-0.6-0.9l0.8-4.1l0,0c0.5,0,0.9-0.4,0.9-0.9c0-0.3-0.1-0.5-0.3-0.7l2-2.9
	c0.2,0.1,0.4,0.2,0.6,0.2c0.7,0,1.3-0.6,1.3-1.3c0-0.2-0.1-0.4-0.2-0.6l2.1-1.4c0.4,0.5,0.9,0.8,1.6,0.8c1.1,0,2-0.9,2-2
	c0-0.1,0-0.2,0-0.3l2.7-0.6c0.2,0.5,0.7,0.9,1.3,0.9s1.1-0.4,1.3-0.9l3,0.6v18.6H26z M44.3,30.5l-3-0.6v-0.1c0-0.7-0.6-1.3-1.3-1.3
	c-0.4,0-0.8,0.2-1,0.5l-2.3-1.4l2.6-3.8c0.2,0.1,0.4,0.2,0.6,0.2c0.7,0,1.3-0.6,1.3-1.3c0-0.7-0.5-1.2-1.2-1.3v-0.9l3.4,2.5l0,0
	l0.8,0.6v6.9H44.3z"/>
<g class="st1">
	<path class="st2" d="M51,26.8h-1.8v-0.1l-2.6-3.5H32.7v-1.6L27,17.5v-2.9h2.6v2.3h6.9c0.8,0,1.4-0.6,1.4-1.4v-5.2
		c0-0.8-0.6-1.4-1.4-1.4h-2.1V8.1c0-0.7-0.5-1.3-1.2-1.5L27,5.1V4.2c0-0.4-0.4-0.8-0.8-0.8c-0.4,0-0.8,0.3-0.8,0.8v0.5v9.8v0.1v1.7
		l-9-6.5L0,21.6v22.1h5.6v10.8c0,0.3,0.2,0.5,0.5,0.5H51c0.3,0,0.5-0.2,0.5-0.5V27.3C51.5,27,51.3,26.8,51,26.8z M34.4,13.2v-2.7
		h1.8v4.8h-5v-0.7H33C33.8,14.6,34.4,14,34.4,13.2z M27,6.8l5.7,1.4v4.7H27V6.8z M46.8,25.2l1.4,1.9v23.3l-1.4-1.6V25.2z M47.6,51.2
		l0.2,0.3H29.2c0-0.1,0.1-0.2,0.1-0.3c0.5-1.3,1.7-2.2,3.1-2.2h13.8l-0.3,0.3L47.6,51.2z M45.8,24.3V48H32.5c-1.1,0-2.1,0.5-2.9,1.2
		l-0.1,0.1c-0.1,0.1-0.2,0.2-0.3,0.3V35.7h3v1.9h11.1V27.5H32.2v3.4h-3v-3.4c0-0.2,0-0.3,0-0.5c0.3-1.5,1.6-2.7,3.2-2.7H45.8z
		 M25.3,34.8v10.7h2.8v3.9c0,0-0.1-0.1-0.1-0.1h-0.1c-0.8-0.8-1.9-1.2-3-1.2H11.4V24.3h6.3c-0.1,0.3-0.1,0.6-0.1,0.9
		c0,2.1,1.7,3.7,3.7,3.7c2.1,0,3.7-1.7,3.7-3.7c0-0.3-0.1-0.7-0.1-1c1.8,0,3.2,1.5,3.2,3.3v3.4h-9.3c-2.8,0-5,2.3-5,5V46h4.8v-6.1
		h-0.9V45h-2.9v-9.1c0-2.2,1.8-4,4-4h16.8v2.9H25.3z M28.1,35.7v8.6h-1.8v-8.6H28.1z M11.2,49.2L11,49.1h13.8c1.4,0,2.7,0.9,3.1,2.2
		c0,0.1,0,0.1,0.1,0.2H9.3L11.2,49.2z M9.1,50.2V27.1l1.3-1.8v23.4L9.1,50.2z M10.8,48.9H11v0.2L10.8,48.9z M18.6,25.2
		c0-1.5,1.2-2.7,2.7-2.7s2.8,1.2,2.7,2.7c0,1.5-1.2,2.7-2.7,2.7S18.6,26.7,18.6,25.2z M33.2,30.9v-2.4h9.1v8.1h-9.1v-0.9h3.3v-4.8
		H33.2z M5.6,27.3v14.9H1.5V22.4l14.9-10.7l14.8,10.7v1c-1,0.3-1.8,0.9-2.4,1.8c-0.1,0.1-0.1,0.2-0.2,0.3c0-0.1-0.1-0.2-0.1-0.3
		c-0.8-1.2-2.1-2-3.6-2h-0.5c-0.7-1-1.8-1.7-3.1-1.7c-1.4,0-2.5,0.7-3.2,1.8h-7.6L8,26.8H6.1C5.8,26.8,5.6,27,5.6,27.3z M50.5,53.9
		H6.6V27.8H8v24.7h20.1h1.1h20V27.8h1.3V53.9z"/>
	<rect x="32.2" y="39.1" class="st2" width="11" height="1"/>
	<rect x="32.2" y="41.7" class="st2" width="11" height="1"/>
	<rect x="32.2" y="44.4" class="st2" width="11" height="1"/>
	<rect x="20.9" y="33.1" class="st2" width="0.9" height="0.9"/>
	<rect x="20.9" y="35.6" class="st2" width="0.9" height="0.9"/>
</g>
<g>
	<rect x="37" y="21.2" class="st3" width="0.5" height="1"/>
	<polygon class="st3" points="36.4,22.6 35.6,22.1 35.3,22.6 36.2,23.1 	"/>
	<polygon class="st3" points="35.4,24.3 35.6,24.8 36.5,24.3 36.2,23.8 	"/>
	<rect x="37.1" y="24.5" class="st3" width="0.5" height="1"/>
	<polygon class="st3" points="39.3,22.5 39,22 38.1,22.5 38.4,23 	"/>
	<path class="st3" d="M39.6,28.6l0.8-2l1.3,1.3l0.4-0.4l-1.3-1.3l1.9-0.9L37.3,23L39.6,28.6z M40.1,25.9l-0.5,1.3l-1.3-3.1l3,1.3
		L40.1,25.9z"/>
	<path class="st3" d="M47.4,43.9V18.5c-0.1-1.1-1-1.9-2-1.9H28.3c-0.1-0.2-0.3-0.4-0.4-0.4h-2.3c-0.2,0-0.3,0.1-0.4,0.2
		c0,0-0.1,0.1-0.1,0.2h-1.8l3.3-5.9c0.1-0.1,0.1-0.3,0.1-0.4V0.8c0-0.4-0.4-0.8-0.8-0.8h-3.4c-0.3,0-0.5,0.1-0.6,0.2
		c-0.1,0.2-0.2,0.4-0.2,0.6V9l-2.8,4.8h-7.1c-2,0-3.7,1.1-4.5,2.8H3.8c-1,0-1.9,0.8-1.9,1.9v25.1c0,0-0.1,0-0.1,0V48
		c0,1.1,1.1,2.2,2.1,2.2H19c0,0.2,0,0.5,0,0.8c0,0.2,0,0.3,0,0.5H3.5c-1.9,0-3.4,1.5-3.4,3.4c0,1.9,1.5,3.4,3.4,3.4h1.3v0.9
		c0,0.2,0.2,0.4,0.4,0.4h11.2c0.2,0,0.4-0.2,0.4-0.4v-3.3h15.9v-1.4h-1.1c-0.4-0.2-0.7-0.3-0.9-0.4c-0.1,0-0.2-0.1-0.2-0.1
		c-0.1,0-0.1-0.1-0.2-0.6c-0.1-0.3-0.1-0.7-0.1-1.1h14h0.9h2.1c2.3,0,4.2-1.9,4.2-4.2C51.4,45.9,49.6,44,47.4,43.9z M28.7,41
		c-0.4-0.5-0.8-1-1-1.6c-0.1-0.2-0.2-0.4-0.2-0.6h2.6c0.2,0.8,0.4,1.5,0.7,2.2H28.7z M27.2,37.2c0-0.2-0.1-0.4-0.1-0.5
		c0-0.1,0-0.1,0-0.2s0-0.1,0-0.2c0-0.1,0-0.2,0-0.3s0-0.2,0-0.3c0-0.1,0-0.1,0-0.2s0-0.1,0-0.2c0,0,0,0,0-0.1c0-0.1,0-0.1,0-0.2
		c0,0,0-0.1,0-0.1c0,0,0,0,0-0.1c0-0.1,0-0.1,0.1-0.2c0,0,0-0.1,0-0.1c0,0,0-0.1,0-0.1c0,0,0-0.1,0.1-0.1c0-0.1,0-0.1,0.1-0.2
		c0-0.1,0-0.2,0.1-0.3c0-0.1,0.1-0.2,0.1-0.3h2.5c-0.2,0.8-0.3,1.7-0.3,2.6c0,0.8,0.1,1.6,0.2,2.3h-2.5c-0.1-0.3-0.2-0.6-0.2-0.9
		C27.3,37.4,27.3,37.3,27.2,37.2z M34.8,28.8c0.1,0,0.2,0,0.3,0c0.1,0,0.2,0,0.3,0c1.2,0.5,2.3,2.1,2.8,4.1h-3.4V28.8z M39.5,30.6
		c0.1,0.1,0.1,0.1,0.2,0.2c0.1,0.1,0.1,0.1,0.1,0.1c0.1,0.1,0.1,0.1,0.2,0.2c0.1,0.2,0.2,0.3,0.3,0.4c0,0.1,0.1,0.1,0.1,0.2
		c0.1,0.2,0.2,0.3,0.3,0.4c0,0.1,0.1,0.1,0.1,0.2c0.1,0.1,0.2,0.3,0.3,0.5c0.1,0,0.1,0.1,0.1,0.1h-2.1c-0.4-1.5-1-2.8-1.8-3.6
		c0.1,0,0.2,0.1,0.3,0.1c0.1,0,0.2,0,0.3,0.1c0.3,0.1,0.5,0.3,0.8,0.5c0.1,0,0.1,0.1,0.2,0.1c0.1,0.1,0.1,0.1,0.2,0.2
		c0.1,0.1,0.1,0.1,0.2,0.2C39.4,30.5,39.5,30.6,39.5,30.6z M30.4,36c0-0.8,0.1-1.6,0.2-2.4H34v4.8h-3.4C30.5,37.6,30.4,36.8,30.4,36
		z M34.8,33.6h3.6c0.1,0.8,0.2,1.6,0.2,2.4c0,0.8-0.1,1.6-0.2,2.4h-3.6V33.6z M39.3,33.6h2.1c0,0.1,0.1,0.2,0.1,0.3
		c0,0.1,0,0.2,0,0.3c0,0,0.1,0,0.1,0c0,0.1,0,0.2,0,0.3c0.1,0,0-0.1,0-0.1c0,0,0-0.1,0-0.1c0.1,0,0.1,0.1,0.1,0.2v0.1v0v0.1v0v0v0v0
		v0v0v0.1c0,0,0,0.1,0,0.1c0,0,0,0,0,0.1c0,0,0,0,0,0c0,0.1,0,0.1,0,0.1c0,0.1,0,0.1,0,0.2c0,0,0,0.1,0,0.1c0,0.1,0,0.1,0,0.2
		c0,0,0,0.1,0,0.1c0,0.1,0,0.1,0,0.2c0,0,0,0.1,0,0.1c0,0.1,0,0.2,0,0.3c0,0.1,0,0.2,0,0.3c0,0.3,0,0.6-0.1,0.9
		c0,0.3-0.1,0.5-0.2,0.8h-2.1c0.1-0.7,0.2-1.5,0.2-2.3C39.5,35.2,39.4,34.4,39.3,33.6z M34,28.8v4.1h-3.2c0.5-2,1.5-3.5,2.7-4.1
		C33.7,28.8,33.8,28.8,34,28.8z M30.2,32.9h-2.4c0.8-1.7,2.3-3,4.1-3.7c0.1,0,0.2-0.1,0.3-0.1C31.3,30,30.6,31.3,30.2,32.9z
		 M31.6,41c-0.4-0.7-0.6-1.4-0.8-2.2H34V41H31.6z M34.8,38.8h3.5c-0.2,0.8-0.5,1.5-0.8,2.2h-2.7V38.8z M39.2,38.8h2.1
		c-0.1,0.1-0.1,0.3-0.2,0.4c-0.4,0.7-0.8,1.2-1.2,1.8h-1.4C38.8,40.3,39,39.6,39.2,38.8z M42.1,38.2c0-0.1,0.1-0.2,0.1-0.3
		c0.1-0.2,0.1-0.3,0.1-0.4c0.1-0.2,0.1-0.3,0.1-0.4c0.1-0.2,0.1-0.5,0.1-0.7c0-0.1,0-0.3,0-0.4s0-0.3,0.1-0.1c0-0.1,0-0.2,0-0.3
		c0-0.1,0-0.2,0-0.3v-0.1c-0.1-0.1-0.1-0.2-0.1-0.3c0-0.1,0-0.1,0-0.2c0-0.1-0.1-0.1-0.1-0.2c0,0,0,0,0-0.1c0,0,0,0,0,0
		c0-0.2-0.1-0.3-0.1-0.4c0-0.1-0.1-0.2-0.1-0.3c-0.1-0.2-0.1-0.4-0.2-0.6c-1.2-3.1-4.1-5.3-7.6-5.3c-0.2,0-0.3,0.1-0.4,0.3
		c-0.1,0-0.2,0-0.3,0.1c-3,0.3-5.5,2.2-6.6,4.8c-0.1,0-0.2,0.1-0.2,0.2c0,0,0,0,0,0.1c0,0.1-0.1,0.2-0.1,0.4c0,0.1-0.1,0.2-0.1,0.4
		c-0.2,0.1-0.2,0.3-0.3,0.5c0,0.1,0,0.2-0.1,0.3c0,0.1,0,0.2,0,0.3c0,0.1,0,0.3,0,0.4s0,0.3,0,0.4c0,0.2,0,0.4,0,0.5
		c0,0.1,0,0.2,0,0.2c0,0.1,0,0.2,0,0.3c0,0.1,0,0.2,0.1,0.4v0.1c0,0.1,0,0.1,0,0.2c0,0.1,0.1,0.3,0.1,0.4c0,0.1,0,0.1,0,0.2
		c0.2,1,0.6,2,1.3,2.8h-3.1V29.5l0.8-1.3l0.6-1l2.1-3.7c0.1-0.1,0.1-0.2,0.1-0.3v-2.7h15V41h-2.5C41.3,40.1,41.8,39.2,42.1,38.2z
		 M25.9,22.8c0.1-0.1,0.1-0.2,0.1-0.3v-5.2h1.2v5.8l-1.8,3.3l-0.5,0.9L24,28.9l-0.3,0.5v0.8V41h-6.4l0.3-1.5h1.8v-0.9h-3.7v-9.5
		c0-1.4,1.1-2.5,2.5-2.5h5c0.1,0,0.2,0,0.2,0l0.2,0.1l0.5-0.9L25.9,22.8z M25,18v1.1h-3.1l0.6-1.1H25z M20.7,20c1.1,0,2,0.9,2,2
		s-0.9,2-2,2c-1.1,0-2-0.9-2-2S19.6,20,20.7,20z M11.9,15.2h7.3c0.2,0,0.4,0,0.6,0l0.8-1.3c0,0-0.1,0-0.1,0l2.6-4.3
		c0.1-0.1,0.1-0.3,0.1-0.4V1.6H25v8.5l-5,9c0,0,0,0,0,0c-1.3,0.3-2.3,1.5-2.3,2.9c0,1.7,1.3,3,3,3s3-1.3,3-3c0-0.5-0.2-1-0.4-1.5H25
		v1.9l-1.9,3.2h-4.9c-1.9,0-3.5,1.6-3.5,3.5v9.5v0.9h1h0.9L16.3,41H9.8l1.2-6.9h2.7v-1.3H8.2V18.9C8.2,16.8,9.9,15.2,11.9,15.2z
		 M6.8,34.1h1.4h1.3L8.3,41H5.7V20.5h1L6.8,34.1L6.8,34.1z M3.2,18.5c0-0.3,0.2-0.5,0.5-0.5h3.1c-0.1,0.3-0.1,0.6-0.1,0.9v0.3H4.4
		v23.2h40.4V19.1H28.3V18h17.1c0.3,0,0.5,0.2,0.5,0.5v25.1H3.2V18.5z M3.1,48v-3h42.8v3H46c0,0.4-0.2,0.8-0.5,0.8H3.9
		C3.6,48.8,3.1,48.3,3.1,48z M16.4,59.1H5.2v-4.9h11.2v0.3v1.4V59.1z M16.4,53.9H5.2c-0.2,0-0.4,0.2-0.4,0.4v3.2H3.5
		c-1.5,0-2.7-1.2-2.7-2.7s1.2-2.7,2.7-2.7H19c0,0.5,0,1-0.1,1.3c-0.1,0.5-0.1,0.5-0.4,0.7h-0.1c-0.2,0.1-0.5,0.2-0.9,0.4h-0.7v-0.2
		C16.8,54.1,16.6,53.9,16.4,53.9z M19.9,54.5c0.1-0.2,0.2-0.5,0.3-0.9c0.1-0.6,0.1-1.6,0.1-2.6c0-0.3,0-0.6,0-0.8h8.5
		c0,0.3,0,0.5,0,0.8c0,0.9,0,1.9,0.1,2.6c0.1,0.4,0.2,0.7,0.3,0.9H19.9z M47.2,51.5h-2.1h-0.9h-14c0-0.1,0-0.3,0-0.4
		c0-0.3,0-0.6,0-0.9h15.3c1.1,0,1.8-1.1,1.8-2.1V45h0.1v-0.3c1.8,0.1,3.2,1.5,3.2,3.4C50.6,50,49.1,51.5,47.2,51.5z"/>
	<rect x="15" y="57.7" class="st3" width="1" height="1"/>
	<rect x="15" y="56.4" class="st3" width="1" height="1"/>
	<rect x="15" y="55" class="st3" width="1" height="1"/>
	<rect x="13.7" y="57.7" class="st3" width="1" height="1"/>
	<rect x="13.7" y="56.4" class="st3" width="1" height="1"/>
	<rect x="13.7" y="55" class="st3" width="1" height="1"/>
	<rect x="12.3" y="57.7" class="st3" width="1" height="1"/>
	<rect x="12.3" y="56.4" class="st3" width="1" height="1"/>
	<rect x="11" y="57.7" class="st3" width="1" height="1"/>
	<rect x="11" y="56.4" class="st3" width="1" height="1"/>
	<rect x="9.6" y="57.7" class="st3" width="1" height="1"/>
	<rect x="9.6" y="56.4" class="st3" width="1" height="1"/>
	<rect x="8.2" y="57.7" class="st3" width="1" height="1"/>
	<rect x="8.2" y="56.4" class="st3" width="1" height="1"/>
	<rect x="8.2" y="55" class="st3" width="5.1" height="1"/>
	<rect x="6.9" y="57.7" class="st3" width="1" height="1"/>
	<rect x="6.9" y="56.4" class="st3" width="1" height="1"/>
	<rect x="6.9" y="55" class="st3" width="1" height="1"/>
	<rect x="5.5" y="57.7" class="st3" width="1" height="1"/>
	<rect x="5.5" y="56.4" class="st3" width="1" height="1"/>
	<rect x="5.5" y="55" class="st3" width="1" height="1"/>
	<path class="st3" d="M15.6,13C18,13,20,11,20,8.6c-0.1-2.4-2-4.4-4.4-4.4c-2.4,0-4.4,2-4.4,4.4C11.2,11,13.2,13,15.6,13z M15.6,5.7
		c1.6,0,2.9,1.3,2.9,2.9c0,1.6-1.3,2.9-2.9,2.9c-1.6,0-2.9-1.3-2.9-2.9C12.7,7,14,5.7,15.6,5.7z"/>
	<rect x="14.8" y="16.7" class="st3" width="1.5" height="1.5"/>
	<rect x="14.8" y="19.6" class="st3" width="1.5" height="1.5"/>
	<rect x="20.2" y="27.6" class="st3" width="1" height="1"/>
</g>
<g class="st1">
	<path class="st4" d="M37.6,26.7l-3.3,2.4v-0.7v-0.1l1-1.8l0.8-1.4l2.7-4.8c0.1-0.1,0.1-0.2,0.1-0.3v-8.4c0-0.4-0.3-0.7-0.8-0.5h-3
		c-0.2,0-0.4,0.1-0.5,0.2c-0.1,0.1-0.2,0.3-0.2,0.5V19L32,23h-6c-2.5,0-4.5,2-4.5,4.5v0.1h-6.3l0-0.1l0.4-1.9c0,0,0,0,0,0.1
		c0.2,0.3,0.6,0.6,0.9,0.9c0.4,0.2,0.8,0.4,1.3,0.4c0.1,0,0.3,0,0.4,0c1.8,0,3.2-1.4,3.2-3.2c0-0.8-0.2-1.5-0.7-2c0,0,0,0,0,0
		c0-0.2,0.1-0.3,0.1-0.5c0.9-2.5,0.9-4.2,0.9-4.2c0-5.8-4.4-10.2-9.8-10.2c-5.4,0-9.8,4.4-9.8,9.8c0,0,0.1,4.6,3.8,9.4
		c0.6,0.8,0.7,2.1,0.7,2.9c0,0-0.1,0-0.1,0.1c-0.4,0.3-0.6,0.7-0.6,1.2c0,0.3,0.1,0.5,0.2,0.7c-0.1,0.2-0.2,0.5-0.2,0.7
		c0,0.3,0.1,0.5,0.2,0.7c-0.1,0.2-0.2,0.5-0.2,0.7c0,0.6,0.3,1.1,0.8,1.3c0.2,0.7,0.9,1.2,1.6,1.2h2.9v7.3v3.2L10,44.8
		c0-0.1,0-0.1,0-0.2c0.4-2.7-0.1-5.2-1.8-6.9c-1.8-1.8-4.4-2.3-7.3-1.6l-0.4,0.1l-0.1,0.4c-0.8,2.9-0.2,5.6,1.6,7.3
		c1.2,1.2,2.9,1.9,4.9,1.9c0.7,0,1.3-0.1,2-0.2l2.3,2.3v7.3h1.3v-7.3l1.3-1.3v8.6h1.3V41.7h-2.6v-6.1v-0.5v-0.8v-2.9
		c0-0.3,0-0.6,0.1-0.9h0.1c0-0.1,0.1-0.2,0.1-0.2c0.2-0.4,0.5-0.7,0.9-0.9c0.1-0.1,0.1-0.1,0.2-0.1h-0.4c0.1,0,0.1-0.1,0.2-0.1
		c0.1,0,0.1-0.1,0.2-0.1c0.2-0.1,0.5-0.1,0.7-0.2c0.1-0.1,0.3-0.1,0.5-0.1h6.4c1.4,0,2.6,1.2,2.6,2.6v10.2h-2.6v13.6h1.2V43H24v12.2
		h1.3V43v-0.7V31.4c0-1.7-1.1-3.2-2.5-3.6v-0.2c0-1.8,1.4-3.2,3.2-3.2h6.4c0.1,0,0.2,0,0.2,0l0.2,0.1l0.1-0.1c0,0,0,0,0,0l0.4-0.7
		l0.2-0.3l2.3-3.8c0.1-0.1,0.1-0.3,0.1-0.4v-6.7h1.6V20l-2.3,4.2l-0.6,1.1l-1.1,1.9h-0.1L33,27.9V28v1v0.1v13.2v12.8v0.1h0.4v0.1
		h17.9V36.6L37.6,26.7z M8.7,43.5C8.7,43.5,8.7,43.6,8.7,43.5l-1.8-1.7l-0.3-3.6c0.2,0.2,0.4,0.3,0.6,0.5
		C8.4,39.8,8.9,41.5,8.7,43.5z M5.2,37.4C5.2,37.4,5.2,37.4,5.2,37.4l0.3,3l-3.2-3.2c0,0,0.1,0,0.1,0C3.4,37.1,4.4,37.2,5.2,37.4z
		 M1.5,38.2l3.7,3.7l-3.1-0.1C1.5,40.8,1.3,39.6,1.5,38.2z M6.9,44.5c-1.5,0-2.8-0.5-3.7-1.3c0,0-0.1-0.1-0.1-0.1l3.4,0.1l1.2,1.2
		C7.4,44.4,7.2,44.5,6.9,44.5z M13.8,42.9v1.7l-0.1,0.2l-1.2,1.1v-3H13.8z M10.1,28.7l-1.2-7.4l0.7-0.8l0.8,0.9l0.7-0.9l0.8,0.9
		l0.8-0.9l0.8,0.9l0.8-0.9l0.6,0.6l-1.1,6.5l0,0.3c-0.4,0.2-0.8,0.5-1.2,0.8H10.1z M18.8,25.6c-0.2,0.1-0.4,0.1-0.6,0.1
		c-0.3,0-0.7-0.1-0.9-0.2c-0.6-0.3-1-1-1-1.7c0-1.1,0.9-1.9,1.9-1.9c0.3,0,0.7,0.1,1,0.3c0.4,0.3,0.8,0.7,0.9,1.2
		c0,0.2,0.1,0.3,0.1,0.5C20.1,24.7,19.6,25.4,18.8,25.6z M3.5,17c0-4.7,3.8-8.5,8.5-8.5s8.5,3.8,8.5,8.5c0,0,0,1.4-0.7,3.4
		c0,0.2-0.1,0.3-0.2,0.5c0,0,0,0,0,0c-0.4-0.2-0.9-0.3-1.4-0.3c-0.7,0-1.3,0.2-1.9,0.6c0,0,0,0,0,0l0.1-0.8l0.2-1.2l-1.2-0.3h-0.2
		v0.2l0,0.2l-0.1,0.1l-0.8-0.9l-0.8,0.9l-0.8-0.9l-0.8,0.9l-0.8-0.9l-0.7,0.9l-0.8-0.9l-0.8,0.9l-0.3-0.3l0-0.1l-1.3,0.2l1.5,9.5H8
		c0-1-0.3-2.3-1-3.1C3.6,21.2,3.5,17.1,3.5,17z M8.4,34.3c-0.2,0-0.4-0.2-0.4-0.4v-0.1l-0.6-0.7v-0.4h3.8v1.6H8.4z M11.2,31.4H7.4
		v-0.3v-0.6h3.9C11.2,30.8,11.2,31.1,11.2,31.4z M49.7,53.6H39.6c0-0.9-0.6-1.7-1.5-2V39.4h1.8v1.8h4.8c0.5,0,0.9-0.4,1-0.8V37
		c0-0.5-0.4-0.9-0.9-0.9h-2.7v-0.3c0-0.4-0.3-0.8-0.7-0.9l-3.3-0.8v-0.4c0-0.3-0.2-0.5-0.5-0.5h-0.1c-0.3,0-0.5,0.2-0.5,0.5v0.1v5.6
		v12.2c-0.5,0.1-0.8,0.4-1.1,0.8c-0.3,0.4-0.5,0.8-0.5,1.3h-1.1V42.3V31l3.3-2.4l12.1,8.7V53.6z M38.1,35.2l2.9,0.7v2.4h-2.9V35.2z
		 M41.3,39.4c0.5,0,0.8-0.4,0.8-0.9v-1.3h2.4v2.9H41v-0.7H41.3z"/>
	<rect x="14.7" y="4.9" transform="matrix(0.372 -0.9282 0.9282 0.372 4.945 18.3895)" class="st4" width="2.7" height="1.3"/>
	<rect x="9.3" y="3.5" transform="matrix(0.9899 -0.142 0.142 0.9899 -0.5871 1.4607)" class="st4" width="1.3" height="2.7"/>
	<rect x="3.6" y="6.1" transform="matrix(0.7862 -0.6179 0.6179 0.7862 -3.6944 4.2266)" class="st4" width="1.3" height="2.7"/>
	<rect x="19.7" y="8.5" transform="matrix(0.7863 -0.6179 0.6179 0.7863 -1.1586 14.9625)" class="st4" width="2.7" height="1.3"/>
	<rect x="28.5" y="41.6" class="st4" width="1.3" height="13.5"/>
	<path class="st4" d="M29.2,22.4c2.1,0,3.9-1.7,3.9-3.9c-0.1-2.2-1.8-3.9-3.9-3.9c-2.1,0-3.9,1.7-3.9,3.9
		C25.3,20.6,27,22.4,29.2,22.4z M29.2,15.8c1.4,0,2.6,1.2,2.6,2.6c-0.1,1.5-1.2,2.6-2.6,2.6c-1.4,0-2.6-1.2-2.6-2.6
		C26.6,17,27.8,15.8,29.2,15.8z"/>
	<rect x="17.6" y="44.2" class="st4" width="1.3" height="10.9"/>
	<rect x="28.5" y="25.6" class="st4" width="1.3" height="1.3"/>
	<rect x="28.5" y="28.1" class="st4" width="1.3" height="1.3"/>
	<rect x="17.6" y="30.1" class="st4" width="1.3" height="1.3"/>
</g>
<g class="st1">
	<path class="st5" d="M30.6,55c0,0,0,0.1,0.1,0.1l7.6-1.6c0,0,0-0.1,0-0.1L30.6,55z"/>
	<polygon class="st5" points="26.5,15 28.5,16.2 26.5,14.9 	"/>
	<path class="st5" d="M25.1,27.2c0.2,0,0.3,0,0.3-0.1l0.8-0.8c0.2-0.2,0.2-0.4,0-0.6s-0.4-0.2-0.6,0l-0.8,0.8
		c-0.2,0.2-0.2,0.4,0,0.6C24.9,27.2,25,27.2,25.1,27.2z"/>
	<path class="st5" d="M2.9,26.3l0.8,0.8c0.1,0.1,0.2,0.1,0.3,0.1s0.2,0,0.3-0.1c0.2-0.2,0.2-0.4,0-0.6l-0.8-0.8
		c-0.2-0.2-0.4-0.2-0.6,0C2.7,25.9,2.7,26.1,2.9,26.3z"/>
	<path class="st5" d="M41.8,33.2c-2.6,0-4.9,1-6.8,2.8c-1,1-1.7,2.1-2.2,3.4l-5.7-3.3c1.2-2.1,1.8-4.4,1.8-6.9
		c0-2.4-0.6-4.8-1.8-6.9l5.6-3.3c0.5,1.3,1.2,2.4,2.2,3.4c1.8,1.8,4.2,2.8,6.7,2.8c2.6,0,5-1,6.8-2.8c1.8-1.8,2.8-4.2,2.8-6.7
		s-1-4.9-2.8-6.7c-0.9-0.9-2-1.6-3.1-2.1c-1.1-0.5-2.4-0.7-3.7-0.7c-0.3,0-0.7,0-1,0.1c0,0,0,0,0-0.1c0-0.6-0.5-1.1-1.1-1.1
		c-0.5,0-0.9,0.3-1.1,0.8l-8.1-1.6c0-0.4-0.4-0.8-0.8-0.8s-0.8,0.4-0.8,0.8l-8.1,1.6C20.5,5.3,20,5,19.5,5c-0.6,0-1.1,0.5-1.1,1.1
		c0,0.2,0,0.4,0.1,0.5L12,11c-0.1-0.2-0.4-0.3-0.6-0.3c-0.4,0-0.8,0.4-0.8,0.8c0,0.2,0.1,0.4,0.3,0.6l-2.8,4.1
		c-1.4,0.7-2.8,1.6-3.9,2.8C1.5,21.7,0,25.3,0,29.1c0,3.8,1.5,7.4,4.2,10.2c0.2,0.2,0.4,0.3,0.5,0.5c0.1,0.5,0.5,0.9,1.1,0.9
		c0,0,0,0,0,0c0.3,0.2,0.6,0.4,1,0.6l3.7,5.6c-0.2,0.2-0.4,0.5-0.4,0.9c0,0.6,0.5,1.1,1.1,1.1c0.3,0,0.7-0.2,0.9-0.4l5.8,3.9
		c-0.1,0.3-0.2,0.5-0.2,0.8c0,1,0.8,1.7,1.7,1.7c0.8,0,1.4-0.5,1.7-1.3l7.2,1.4v0.1c0,0.6,0.5,1.1,1.1,1.1c0.6,0,1.2-0.5,1.2-1.1V55
		l0,0c-0.2-0.4-0.6-0.7-1-0.7c-0.3,0-0.5,0.1-0.7,0.2l-5.6-5.8c0.3-0.3,0.4-0.7,0.4-1.1c0-0.7-0.4-1.2-0.9-1.5l1.5-3.5
		c0.1,0,0.1,0,0.2,0s0.2,0,0.3-0.1l4.1,6c-0.2,0.1-0.2,0.3-0.2,0.6c0,0.4,0.4,0.8,0.8,0.8s0.8-0.4,0.8-0.8l3.6-0.8
		c0.3,0.4,0.6,0.7,0.9,1.1c1.7,1.7,3.9,2.7,6.2,2.8l-0.6,0.4c-0.2-0.2-0.5-0.4-0.9-0.4c-0.6,0-1.1,0.5-1.1,1.2v0.1l-0.1,0
		c0.2,0.7,0.6,1,1.2,1c0.6,0,1.1-0.5,1.1-1.1c0-0.2,0-0.4-0.1-0.5l1-0.7c2.6,0,5-1,6.8-2.8c1.8-1.8,2.8-4.2,2.8-6.7s-1-4.9-2.8-6.7
		C46.7,34.2,44.3,33.2,41.8,33.2z M27.3,27.5l-1.9,1.9h-0.5l-6.5-6.5v-0.5l3.6-3.6c0.6,0.4,1.1,0.9,1.6,1.4
		C25.6,22.2,26.9,24.7,27.3,27.5z M20.5,35.7c-0.1,0-0.4-0.2-0.5-0.3c-0.1-0.1-0.2-0.1-0.2-0.1l-3.7-3.7c-0.2-0.2-0.4-0.2-0.6,0
		c-0.2,0.2-0.2,0.4,0,0.6l4.6,4.8c0.1,0.1,0.3,0.3,0.3,0.5c0,0.4-0.3,0.8-0.8,0.8c-0.1,0-0.4-0.2-0.5-0.3l-4.7-4.7
		c-0.2-0.2-0.4-0.2-0.6,0s-0.2,0.4,0,0.6l4.1,4.1c0,0.1,0.1,0.2,0.1,0.2c0.1,0.1,0.3,0.3,0.3,0.5c0,0.4-0.3,0.8-0.8,0.8
		c-0.1,0-0.4-0.2-0.5-0.3L12.8,35c-0.2-0.2-0.4-0.2-0.6,0s-0.2,0.4,0,0.6l3.2,3.2c0,0.1,0,0.2,0.1,0.3c0.1,0.1,0.3,0.3,0.3,0.5
		c0,0.4-0.3,0.8-0.8,0.8c-0.1,0-0.4-0.2-0.5-0.3L7,32.6v-1.3l-1.8-1.8l5.3-5.3h1.8l-2,2c0,0-0.5,0.5-0.5,1.1c0,0.9,0.8,1.7,1.7,1.7
		c0.5,0,1-0.4,1.1-0.5l2-2h0.7v2.3l5.6,5.6c0.1,0.1,0.3,0.3,0.3,0.5C21.3,35.3,21,35.7,20.5,35.7z M7.2,34l1,1
		c-0.1,0.1-0.3,0.3-0.4,0.3c-0.4,0-0.8-0.3-0.8-0.8C6.9,34.3,7,34.1,7.2,34z M8.9,35.7l1,1c-0.1,0.1-0.3,0.3-0.4,0.3
		c-0.4,0-0.8-0.3-0.8-0.8C8.6,36,8.7,35.8,8.9,35.7z M10.6,37.4l1,1c-0.1,0.1-0.3,0.3-0.4,0.3c-0.4,0-0.8-0.3-0.8-0.8
		C10.3,37.7,10.4,37.5,10.6,37.4z M12.3,39.1l1,1c-0.1,0.1-0.3,0.3-0.4,0.3c-0.4,0-0.8-0.3-0.8-0.8C12,39.4,12.1,39.2,12.3,39.1z
		 M11.5,21.9l-3.6-3.6c2-1.2,4.2-1.9,6.6-1.9c2.4,0,4.7,0.7,6.8,1.9l-3.6,3.6c-0.1,0.1-0.1,0.2-0.1,0.3V23c0,0.1,0,0.2,0.1,0.3
		l0.1,0.1h-6.4l0.1-0.1c0.1-0.1,0.1-0.2,0.1-0.3v-0.8C11.6,22.1,11.6,22,11.5,21.9z M21,33.3L21,33.3l-3.5-3.5H18
		c0.9,0,1.6-0.8,1.6-1.6h-0.8c0,0.4-0.3,0.8-0.8,0.8h-1.3v0l-0.6-0.6v-2.8h-1.9L12,27.8c-0.1,0.1-0.3,0.3-0.5,0.3
		c-0.4,0-0.8-0.3-0.8-0.8c0-0.1,0.2-0.4,0.3-0.5l2.5-2.5c0,0,0.1-0.1,0.1-0.1h5l5.3,5.3l-1.4,1.4v0.8L21,33.3z M26.2,21
		c-0.4-0.5-0.8-1.1-1.2-1.5c0.6-0.3,1-0.9,1-1.6c0-0.1,0-0.1,0-0.2l2.3-0.5c0.2,0.5,0.6,0.8,1.1,0.8s0.9-0.3,1.1-0.8l1.6,0.4
		L26.2,21z M39.5,23.4v-4.3h-1.4v3.8c-0.4-0.2-0.7-0.4-1.1-0.7v-3.6c0-0.5,0.4-1.1,0.9-1.2c2.5-0.8,5.2-0.8,7.8,0
		c0.5,0.1,0.9,0.7,0.9,1.2v3.3c-0.4,0.3-0.8,0.6-1.2,0.8v-3.6H44v4.2c-0.8,0.2-1.6,0.4-2.4,0.4C40.9,23.7,40.2,23.6,39.5,23.4z
		 M39.7,13.3c0-1.2,0.9-2.1,2.1-2.1c1.1,0,2.1,0.9,2.1,2.1c0,1.1-0.8,2-1.9,2.1c-0.1,0-0.2,0-0.4,0C40.6,15.3,39.7,14.4,39.7,13.3z
		 M41.7,7.8c2.1,0,4.1,0.8,5.6,2.3s2.3,3.5,2.3,5.6c0,1.1-0.2,2.1-0.6,3c-0.3,0.6-0.6,1.2-1,1.7v-1.8c-0.1-1.1-0.9-2.2-1.9-2.6
		c-0.6-0.2-1.2-0.3-1.7-0.4c0.6-0.6,0.9-1.5,0.9-2.3c0-2-1.6-3.5-3.5-3.5c-1.9,0-3.5,1.6-3.5,3.5c0,0.9,0.4,1.7,0.9,2.3
		c-0.6,0.1-1.2,0.2-1.7,0.4c-1,0.3-1.9,1.5-1.9,2.6V21c-1.2-1.4-1.9-3.3-1.9-5.2c0.1-2.2,0.9-4.2,2.4-5.7S39.6,7.8,41.7,7.8z
		 M30,4.6l8.1,1.6v0.1c0,0.2,0.1,0.4,0.1,0.5C37,7.3,35.8,8,34.8,9c-0.1,0.1-0.3,0.3-0.4,0.5l-4.5-4.7C29.9,4.7,30,4.7,30,4.6z
		 M29.4,5.1c0.1,0,0.2-0.1,0.3-0.1l4.5,4.7c-1.4,1.7-2.2,3.8-2.2,6c0,0.5,0.1,1.1,0.2,1.6L30.5,17v-0.1c0-0.6-0.5-1.1-1.1-1.1
		c-0.4,0-0.7,0.2-0.9,0.4c-0.1,0.2-0.1,0.3-0.1,0.5v0.1l-2.3,0.5c-0.1-0.3-0.3-0.6-0.6-0.9l1-1.5l0,0l2.3-3.2
		c0.2,0.1,0.3,0.1,0.5,0.1c0.6,0,1.1-0.5,1.1-1.2c0-0.6-0.4-1.1-1-1.1V5.1z M26.4,14.6l-3.5-2.2c0.1-0.2,0.1-0.3,0.1-0.5v-0.1
		l5.3-1.1c0.1,0.2,0.2,0.4,0.3,0.5L26.4,14.6z M18.6,6.9c0.2,0.2,0.5,0.4,0.9,0.4c0.6,0,1.1-0.5,1.1-1.1V6.1l8.1-1.6
		C28.8,4.8,29,5,29.3,5v4.3c-0.6,0.1-1,0.5-1,1.1v0.1L23,11.6c-0.1-0.5-0.6-0.8-1.1-0.8c-0.6,0-1,0.4-1.1,1l-8.6-0.3
		c0-0.1,0-0.2-0.1-0.2L18.6,6.9z M12.2,11.8l8.6,0.2c0,0.6,0.5,1.1,1.1,1.1c0.4,0,0.7-0.2,0.9-0.4l3.5,2.2l-1,1.5
		c-0.3-0.1-0.5-0.2-0.9-0.2c-0.8,0-1.5,0.6-1.6,1.3c-2.3-1.6-5-2.6-7.9-2.6l-2.7-2.7C12.2,12,12.2,11.9,12.2,11.8z M11.1,12.4
		c0.1,0,0.2,0.1,0.3,0.1c0.2,0,0.3-0.1,0.5-0.2l2.5,2.5c-2,0-4,0.4-5.8,1.2L11.1,12.4z M5.4,20.2c0.5-0.5,1.1-1,1.7-1.5l3.7,3.7v0.5
		l-6.5,6.5H3.8l-2-2C2.2,24.7,3.4,22.2,5.4,20.2z M1.7,29.2c0-0.2,0-0.4,0-0.7l1.6,1.6c0.1,0.1,0.2,0.1,0.3,0.1h0.8
		c0.1,0,0.2,0,0.2-0.1l1.6,1.6V33l0.4,0.4c-0.1,0.1-0.5,0.5-0.5,1c0,0.9,0.8,1.7,1.7,1.7c0,0.9,0.8,1.7,1.7,1.7
		c0,0.9,0.8,1.7,1.7,1.7c0,0.9,0.8,1.7,1.7,1.7c0.5,0,0.9-0.3,1-0.5l0,0c0,0,0.5,0.5,1.1,0.5c0.8,0,1.5-0.6,1.6-1.3
		c0.2,0.1,0.5,0.4,0.9,0.4c0.9,0,1.5-0.6,1.6-1.3c0.2,0.1,0.3,0.1,0.5,0.1c1,0,1.7-0.8,1.7-1.7c0-0.4-0.2-0.8-0.4-1
		c0.7-0.2,1.2-0.8,1.1-1.5c0-0.4-0.2-0.8-0.4-1c0,0,0.1-0.1,0.1-0.1l1.8-1.8v-0.8l1.1-1.1c0.1,0,0.2,0.1,0.2,0.1h0.8
		c0.1,0,0.2,0,0.3-0.1l1.5-1.5c0,0.2,0,0.4,0,0.7c0,3.3-1.3,6.5-3.7,9c-2.4,2.4-5.7,3.8-9.1,3.8c-3.4,0-6.6-1.3-9.1-3.8
		C3.1,35.9,1.7,32.7,1.7,29.2z M10.8,46.7l-3.3-4.9c1.2,0.6,2.4,1.1,3.8,1.4l-0.1,3.4C11,46.6,10.9,46.7,10.8,46.7z M23,48.9
		l5.6,5.8c-0.1,0.1-0.2,0.2-0.2,0.3l-7.2-1.5c0-0.1,0-0.1,0-0.2c0-0.9-0.8-1.7-1.7-1.7c-0.5,0-1,0.3-1.3,0.7l-5.8-3.9
		c0.1-0.1,0.1-0.3,0.1-0.4l7.7-0.2c0.1,0.9,0.8,1.5,1.7,1.5C22.3,49.3,22.7,49.1,23,48.9z M22.5,45.9c-0.2-0.1-0.4-0.1-0.6-0.1
		c-0.9,0-1.7,0.7-1.7,1.6l-7.7,0.3c-0.1-0.5-0.5-0.9-1-1l0.1-3.5c0.9,0.2,1.9,0.3,2.8,0.3c0.2,0,0.4,0,0.6,0
		c0.1,0.3,0.4,0.6,0.8,0.6c0.4,0,0.8-0.4,0.8-0.8c1.1-0.2,2.3-0.5,3.3-0.9c1-0.4,2-1,2.9-1.6l0.9,0.6c0,0.1-0.1,0.2-0.1,0.3
		c0,0.3,0.1,0.5,0.4,0.7L22.5,45.9z M24.5,41c-0.2,0-0.4,0.1-0.6,0.3l-1-0.6c0.6-0.4,1.1-0.9,1.7-1.4c0.6-0.6,1.1-1.3,1.6-1.9l6,3.5
		c-0.1,0.4-0.1,0.9-0.2,1.3l-1.3,0.3c-0.2-0.5-0.6-0.8-1.1-0.8s-0.9,0.3-1.1,0.8l-3.2-0.7C25.3,41.4,24.9,41,24.5,41z M30.2,48.8
		c-0.1-0.3-0.4-0.5-0.7-0.5c-0.1,0-0.2,0-0.3,0.1l-4.1-6c0.1-0.1,0.2-0.2,0.2-0.3l3.2,0.7v0.1c0,0.6,0.5,1.1,1.1,1.1
		c0.6,0,1.2-0.5,1.2-1.1v-0.1l1.2-0.2c0,0,0,0.1,0,0.1c0,1.9,0.6,3.8,1.7,5.4L30.2,48.8z M41.8,42.2c-1.1,0-2.1-0.9-2.1-2.1
		c0-1.2,0.9-2.1,2.1-2.1c1.1,0,2.1,0.9,2.1,2.1C43.9,41.3,43,42.2,41.8,42.2z M45.7,44.3c0.5,0.1,0.9,0.7,0.9,1.2v3.7
		c-0.4,0.3-0.8,0.5-1.2,0.8v-4H44v4.6c-0.7,0.2-1.4,0.3-2.2,0.3c-0.8,0-1.6-0.1-2.3-0.3v-4.6h-1.4v4c-0.4-0.2-0.8-0.4-1.1-0.7v-3.7
		c0-0.5,0.4-1.1,0.9-1.2C40.4,43.5,43.1,43.5,45.7,44.3z M49.2,45.8c-0.3,0.8-0.7,1.4-1.2,2v-2.4c-0.1-1.1-0.9-2.2-1.9-2.5
		c-0.6-0.2-1.2-0.3-1.8-0.4c0.6-0.6,1-1.5,1-2.4c0-2-1.6-3.5-3.5-3.5c-1.9,0-3.5,1.6-3.5,3.5c0,0.9,0.4,1.8,1,2.4
		c-0.6,0.1-1.2,0.2-1.8,0.4c-1,0.3-1.9,1.5-1.9,2.6v2.3c-1.1-1.4-1.7-3.1-1.7-4.9c0-2.1,0.8-4.1,2.3-5.6s3.5-2.4,5.7-2.4
		c2.1,0,4.1,0.8,5.6,2.3s2.3,3.5,2.3,5.6C49.8,43.8,49.6,44.8,49.2,45.8z"/>
</g>
</svg>
