<?xml version="1.0" encoding="utf-8"?>
<!-- Generator: Adobe Illustrator 22.1.0, SVG Export Plug-In . SVG Version: 6.00 Build 0)  -->
<svg version="1.1" id="Layer_1" xmlns="http://www.w3.org/2000/svg" xmlns:xlink="http://www.w3.org/1999/xlink" x="0px" y="0px"
	 viewBox="0 0 51.5 51.8" style="enable-background:new 0 0 51.5 51.8;" xml:space="preserve">
<style type="text/css">
	.st0{display:none;fill:#A6A6A6;}
	.st1{display:none;}
	.st2{display:inline;fill:#444444;}
	.st3{fill:#444444;}
	.st4{display:inline;fill:#A6A6A6;}
</style>
<path class="st0" d="M50,21.8L46.2,19l0,0L25.4,3.7L4.3,19l0,0l-3.7,2.7L1.9,23l2.3-1.7v26.6H46V21.3l2.5,1.8L50,21.8z M38.7,26.4
	L36,27c-0.1-0.4-0.4-0.7-0.7-1l1.2-1.7l2.3,1.4c-0.1,0.2-0.1,0.4-0.1,0.6C38.7,26.4,38.7,26.4,38.7,26.4z M32.4,28.5l-2.1,1.4
	c-0.2-0.3-0.6-0.5-1-0.5c-0.3,0-0.6,0.1-0.8,0.3l-3.3-3.3c0.2-0.2,0.3-0.5,0.3-0.8c0-0.7-0.6-1.3-1.3-1.3c-0.3,0-0.6,0.1-0.8,0.3
	L19.8,21c0.1-0.1,0.1-0.2,0.2-0.4l10,0.3c0.1,0.7,0.6,1.2,1.3,1.2c0.4,0,0.8-0.2,1-0.5l4,2.5l-1.2,1.7c-0.3-0.2-0.6-0.3-1-0.3
	c-1.1,0-2,0.9-2,2C32.1,27.9,32.2,28.2,32.4,28.5z M25.7,36.5l-0.8,4.1l0,0c-0.5,0-0.8,0.3-0.9,0.8h-5.1c-0.1-0.7-0.7-1.3-1.4-1.3
	c-0.1,0-0.3,0-0.4,0.1l-3.9-9.1c0.2-0.1,0.4-0.3,0.5-0.5l3.6,1.5c-0.1,0.2-0.1,0.4-0.1,0.6c0,1.1,0.9,2,2,2s2-0.9,2-2
	c0-0.1,0-0.2,0-0.2l6.8-1.3c0.1,0.2,0.2,0.5,0.4,0.6l-2,3c-0.1-0.1-0.2-0.1-0.4-0.1c-0.5,0-0.9,0.4-0.9,0.9
	C25.1,36,25.4,36.3,25.7,36.5z M15.8,46l1.4-3.2c0.1,0,0.2,0.1,0.4,0.1c0.7,0,1.2-0.5,1.3-1.2H24c0.1,0.4,0.5,0.8,0.9,0.8l0,0
	l0.7,3.6L15.8,46L15.8,46z M10.6,40.6l1.9-9.4h0.1c0.1,0,0.2,0,0.4-0.1l3.9,9.2c-0.4,0.2-0.7,0.7-0.7,1.2s0.3,0.9,0.7,1.2l-1.4,3.4
	h-4.1l-0.7-3.6c0.3-0.1,0.6-0.5,0.6-0.9C11.2,41.1,10.9,40.8,10.6,40.6z M24.1,27c0.3,0,0.6-0.1,0.8-0.3l3.3,3.3
	c-0.2,0.2-0.3,0.5-0.3,0.8v0.1l-6.8,1.3c-0.2-0.8-1-1.5-1.9-1.5c-0.8,0-1.4,0.4-1.8,1.1l-3.6-1.5c0-0.1,0.1-0.2,0.1-0.4
	c0-0.4-0.2-0.8-0.5-1l5.1-7.6c0.1,0.1,0.2,0.1,0.4,0.1c0.2,0,0.4-0.1,0.5-0.2l3.6,3.6c-0.2,0.2-0.3,0.5-0.3,0.8
	C22.8,26.4,23.4,27,24.1,27z M36.5,23.9l-4-2.5c0.1-0.2,0.1-0.4,0.1-0.6v-0.1l6.2-1.2c0.1,0.2,0.2,0.4,0.4,0.6L36.5,23.9z M38.6,19
	v0.1l-6.1,1.3c-0.2-0.5-0.7-0.9-1.3-0.9c-0.7,0-1.2,0.5-1.3,1.1l-10-0.3c0-0.1,0-0.2-0.1-0.3l7.6-5.1c0.2,0.3,0.6,0.5,1,0.5
	c0.7,0,1.3-0.6,1.3-1.3V14l5.1-1l5,3.7v1.1C39.2,17.8,38.6,18.3,38.6,19z M6.1,19.9L7,19.2l0,0L25.3,5.9l9.1,6.7l-4.8,1
	c-0.2-0.5-0.7-0.9-1.3-0.9c-0.7,0-1.3,0.6-1.3,1.3c0,0.2,0.1,0.4,0.2,0.6l-7.6,5.1c-0.2-0.2-0.4-0.3-0.7-0.3c-0.5,0-0.9,0.4-0.9,0.9
	c0,0.3,0.1,0.5,0.3,0.7l-5.1,7.6c-0.2-0.1-0.4-0.2-0.6-0.2c-0.7,0-1.3,0.6-1.3,1.3c0,0.6,0.4,1.1,0.9,1.3l-1.9,9.4l0,0
	c-0.5,0-0.9,0.4-0.9,0.9s0.4,0.9,0.9,0.9l0,0l0.7,3.6H6.1C6.1,45.8,6.1,19.9,6.1,19.9z M26,46l-0.7-3.6c0.4-0.1,0.6-0.5,0.6-0.9
	s-0.2-0.7-0.6-0.9l0.8-4.1l0,0c0.5,0,0.9-0.4,0.9-0.9c0-0.3-0.1-0.5-0.3-0.7l2-2.9c0.2,0.1,0.4,0.2,0.6,0.2c0.7,0,1.3-0.6,1.3-1.3
	c0-0.2-0.1-0.4-0.2-0.6l2.1-1.4c0.4,0.5,0.9,0.8,1.6,0.8c1.1,0,2-0.9,2-2c0-0.1,0-0.2,0-0.3l2.7-0.6c0.2,0.5,0.7,0.9,1.3,0.9
	s1.1-0.4,1.3-0.9l3,0.6V46H26z M44.3,27.1l-3-0.6v-0.1c0-0.7-0.6-1.3-1.3-1.3c-0.4,0-0.8,0.2-1,0.5l-2.3-1.4l2.6-3.8
	c0.2,0.1,0.4,0.2,0.6,0.2c0.7,0,1.3-0.6,1.3-1.3c0-0.7-0.5-1.2-1.2-1.3v-0.9l3.4,2.5l0,0l0.8,0.6v6.9H44.3z"/>
<g class="st1">
	<path class="st2" d="M51,23.4h-1.8v-0.1l-2.6-3.5H32.7v-1.6L27,14.1v-2.9h2.6v2.3h6.9c0.8,0,1.4-0.6,1.4-1.4V6.9
		c0-0.8-0.6-1.4-1.4-1.4h-2.1V4.7c0-0.7-0.5-1.3-1.2-1.5L27,1.7V0.8C27,0.4,26.6,0,26.2,0c-0.4,0-0.8,0.3-0.8,0.8v0.5v9.8v0.1v1.7
		l-9-6.5L0,18.2v22.1h5.6v10.8c0,0.3,0.2,0.5,0.5,0.5H51c0.3,0,0.5-0.2,0.5-0.5V23.9C51.5,23.6,51.3,23.4,51,23.4z M34.4,9.8V7.1
		h1.8v4.8h-5v-0.7H33C33.8,11.2,34.4,10.6,34.4,9.8z M27,3.4l5.7,1.4v4.7H27V3.4z M46.8,21.8l1.4,1.9v23.3l-1.4-1.6V21.8z
		 M47.6,47.8l0.2,0.3H29.2c0-0.1,0.1-0.2,0.1-0.3c0.5-1.3,1.7-2.2,3.1-2.2h13.8l-0.3,0.3L47.6,47.8z M45.8,20.9v23.7H32.5
		c-1.1,0-2.1,0.5-2.9,1.2l-0.1,0.1c-0.1,0.1-0.2,0.2-0.3,0.3V32.3h3v1.9h11.1V24.1H32.2v3.4h-3v-3.4c0-0.2,0-0.3,0-0.5
		c0.3-1.5,1.6-2.7,3.2-2.7H45.8z M25.3,31.4v10.7h2.8V46c0,0-0.1-0.1-0.1-0.1h-0.1c-0.8-0.8-1.9-1.2-3-1.2H11.4V20.9h6.3
		c-0.1,0.3-0.1,0.6-0.1,0.9c0,2.1,1.7,3.7,3.7,3.7c2.1,0,3.7-1.7,3.7-3.7c0-0.3-0.1-0.7-0.1-1c1.8,0,3.2,1.5,3.2,3.3v3.4h-9.3
		c-2.8,0-5,2.3-5,5v10.1h4.8v-6.1h-0.9v5.1h-2.9v-9.1c0-2.2,1.8-4,4-4h16.8v2.9H25.3z M28.1,32.3v8.6h-1.8v-8.6H28.1z M11.2,45.8
		L11,45.7h13.8c1.4,0,2.7,0.9,3.1,2.2c0,0.1,0,0.1,0.1,0.2H9.3L11.2,45.8z M9.1,46.8V23.7l1.3-1.8v23.4L9.1,46.8z M10.8,45.5H11v0.2
		L10.8,45.5z M18.6,21.8c0-1.5,1.2-2.7,2.7-2.7s2.8,1.2,2.7,2.7c0,1.5-1.2,2.7-2.7,2.7S18.6,23.3,18.6,21.8z M33.2,27.5v-2.4h9.1
		v8.1h-9.1v-0.9h3.3v-4.8H33.2z M5.6,23.9v14.9H1.5V19L16.4,8.3L31.2,19v1c-1,0.3-1.8,0.9-2.4,1.8c-0.1,0.1-0.1,0.2-0.2,0.3
		c0-0.1-0.1-0.2-0.1-0.3c-0.8-1.2-2.1-2-3.6-2h-0.5c-0.7-1-1.8-1.7-3.1-1.7c-1.4,0-2.5,0.7-3.2,1.8h-7.6L8,23.4H6.1
		C5.8,23.4,5.6,23.6,5.6,23.9z M50.5,50.5H6.6V24.4H8v24.7h20.1h1.1h20V24.4h1.3V50.5z"/>
	<rect x="32.2" y="35.7" class="st2" width="11" height="1"/>
	<rect x="32.2" y="38.3" class="st2" width="11" height="1"/>
	<rect x="32.2" y="41" class="st2" width="11" height="1"/>
	<rect x="20.9" y="29.7" class="st2" width="0.9" height="0.9"/>
	<rect x="20.9" y="32.2" class="st2" width="0.9" height="0.9"/>
</g>
<g class="st1">
	<rect x="37" y="17.8" class="st2" width="0.5" height="1"/>
	<polygon class="st2" points="36.4,19.2 35.6,18.7 35.3,19.2 36.2,19.7 	"/>
	<polygon class="st2" points="35.4,20.9 35.6,21.4 36.5,20.9 36.2,20.4 	"/>
	<rect x="37.1" y="21.1" class="st2" width="0.5" height="1"/>
	<polygon class="st2" points="39.3,19.1 39,18.6 38.1,19.1 38.4,19.6 	"/>
	<path class="st2" d="M39.6,25.2l0.8-2l1.3,1.3l0.4-0.4l-1.3-1.3l1.9-0.9l-5.4-2.3L39.6,25.2z M40.1,22.5l-0.5,1.3l-1.3-3.1l3,1.3
		L40.1,22.5z"/>
	<path class="st2" d="M47.4,40.5V15.1c-0.1-1.1-1-1.9-2-1.9H28.3c-0.1-0.2-0.3-0.4-0.4-0.4h-2.3c-0.2,0-0.3,0.1-0.4,0.2
		c0,0-0.1,0.1-0.1,0.2h-1.8l3.3-5.9c0.1-0.1,0.1-0.3,0.1-0.4v-9.5c0-0.4-0.4-0.8-0.8-0.8h-3.4c-0.3,0-0.5,0.1-0.6,0.2
		c-0.1,0.2-0.2,0.4-0.2,0.6v8.2l-2.8,4.8h-7.1c-2,0-3.7,1.1-4.5,2.8H3.8c-1,0-1.9,0.8-1.9,1.9v25.1c0,0-0.1,0-0.1,0v4.4
		c0,1.1,1.1,2.2,2.1,2.2H19c0,0.2,0,0.5,0,0.8c0,0.2,0,0.3,0,0.5H3.5c-1.9,0-3.4,1.5-3.4,3.4c0,1.9,1.5,3.4,3.4,3.4h1.3v0.9
		c0,0.2,0.2,0.4,0.4,0.4h11.2c0.2,0,0.4-0.2,0.4-0.4v-3.3h15.9v-1.4h-1.1c-0.4-0.2-0.7-0.3-0.9-0.4c-0.1,0-0.2-0.1-0.2-0.1
		c-0.1,0-0.1-0.1-0.2-0.6c-0.1-0.3-0.1-0.7-0.1-1.1h14h0.9h2.1c2.3,0,4.2-1.9,4.2-4.2C51.4,42.5,49.6,40.6,47.4,40.5z M28.7,37.6
		c-0.4-0.5-0.8-1-1-1.6c-0.1-0.2-0.2-0.4-0.2-0.6h2.6c0.2,0.8,0.4,1.5,0.7,2.2H28.7z M27.2,33.8c0-0.2-0.1-0.4-0.1-0.5
		c0-0.1,0-0.1,0-0.2s0-0.1,0-0.2c0-0.1,0-0.2,0-0.3s0-0.2,0-0.3c0-0.1,0-0.1,0-0.2s0-0.1,0-0.2c0,0,0,0,0-0.1c0-0.1,0-0.1,0-0.2
		c0,0,0-0.1,0-0.1c0,0,0,0,0-0.1c0-0.1,0-0.1,0.1-0.2c0,0,0-0.1,0-0.1c0,0,0-0.1,0-0.1c0,0,0-0.1,0.1-0.1c0-0.1,0-0.1,0.1-0.2
		c0-0.1,0-0.2,0.1-0.3c0-0.1,0.1-0.2,0.1-0.3h2.5c-0.2,0.8-0.3,1.7-0.3,2.6c0,0.8,0.1,1.6,0.2,2.3h-2.5c-0.1-0.3-0.2-0.6-0.2-0.9
		C27.3,34,27.3,33.9,27.2,33.8z M34.8,25.4c0.1,0,0.2,0,0.3,0c0.1,0,0.2,0,0.3,0c1.2,0.5,2.3,2.1,2.8,4.1h-3.4V25.4z M39.5,27.2
		c0.1,0.1,0.1,0.1,0.2,0.2c0.1,0.1,0.1,0.1,0.1,0.1c0.1,0.1,0.1,0.1,0.2,0.2c0.1,0.2,0.2,0.3,0.3,0.4c0,0.1,0.1,0.1,0.1,0.2
		c0.1,0.2,0.2,0.3,0.3,0.4c0,0.1,0.1,0.1,0.1,0.2c0.1,0.1,0.2,0.3,0.3,0.5c0.1,0,0.1,0.1,0.1,0.1h-2.1c-0.4-1.5-1-2.8-1.8-3.6
		c0.1,0,0.2,0.1,0.3,0.1c0.1,0,0.2,0,0.3,0.1c0.3,0.1,0.5,0.3,0.8,0.5c0.1,0,0.1,0.1,0.2,0.1c0.1,0.1,0.1,0.1,0.2,0.2
		c0.1,0.1,0.1,0.1,0.2,0.2C39.4,27.1,39.5,27.2,39.5,27.2z M30.4,32.6c0-0.8,0.1-1.6,0.2-2.4H34V35h-3.4
		C30.5,34.2,30.4,33.4,30.4,32.6z M34.8,30.2h3.6c0.1,0.8,0.2,1.6,0.2,2.4c0,0.8-0.1,1.6-0.2,2.4h-3.6V30.2z M39.3,30.2h2.1
		c0,0.1,0.1,0.2,0.1,0.3c0,0.1,0,0.2,0,0.3c0,0,0.1,0,0.1,0c0,0.1,0,0.2,0,0.3c0.1,0,0-0.1,0-0.1c0,0,0-0.1,0-0.1
		c0.1,0,0.1,0.1,0.1,0.2v0.1v0v0.1v0v0v0v0v0v0v0.1c0,0,0,0.1,0,0.1c0,0,0,0,0,0.1c0,0,0,0,0,0c0,0.1,0,0.1,0,0.1c0,0.1,0,0.1,0,0.2
		c0,0,0,0.1,0,0.1c0,0.1,0,0.1,0,0.2c0,0,0,0.1,0,0.1c0,0.1,0,0.1,0,0.2c0,0,0,0.1,0,0.1c0,0.1,0,0.2,0,0.3c0,0.1,0,0.2,0,0.3
		c0,0.3,0,0.6-0.1,0.9c0,0.3-0.1,0.5-0.2,0.8h-2.1c0.1-0.7,0.2-1.5,0.2-2.3C39.5,31.8,39.4,31,39.3,30.2z M34,25.4v4.1h-3.2
		c0.5-2,1.5-3.5,2.7-4.1C33.7,25.4,33.8,25.4,34,25.4z M30.2,29.5h-2.4c0.8-1.7,2.3-3,4.1-3.7c0.1,0,0.2-0.1,0.3-0.1
		C31.3,26.5,30.6,27.9,30.2,29.5z M31.6,37.6c-0.4-0.7-0.6-1.4-0.8-2.2H34v2.2H31.6z M34.8,35.4h3.5c-0.2,0.8-0.5,1.5-0.8,2.2h-2.7
		V35.4z M39.2,35.4h2.1c-0.1,0.1-0.1,0.3-0.2,0.4c-0.4,0.7-0.8,1.2-1.2,1.8h-1.4C38.8,36.9,39,36.2,39.2,35.4z M42.1,34.8
		c0-0.1,0.1-0.2,0.1-0.3c0.1-0.2,0.1-0.3,0.1-0.4c0.1-0.2,0.1-0.3,0.1-0.4c0.1-0.2,0.1-0.5,0.1-0.7c0-0.1,0-0.3,0-0.4s0-0.3,0.1-0.1
		c0-0.1,0-0.2,0-0.3c0-0.1,0-0.2,0-0.3v-0.1c-0.1-0.1-0.1-0.2-0.1-0.3c0-0.1,0-0.1,0-0.2c0-0.1-0.1-0.1-0.1-0.2c0,0,0,0,0-0.1
		c0,0,0,0,0,0c0-0.2-0.1-0.3-0.1-0.4c0-0.1-0.1-0.2-0.1-0.3c-0.1-0.2-0.1-0.4-0.2-0.6c-1.2-3.1-4.1-5.3-7.6-5.3
		c-0.2,0-0.3,0.1-0.4,0.3c-0.1,0-0.2,0-0.3,0.1c-3,0.3-5.5,2.2-6.6,4.8c-0.1,0-0.2,0.1-0.2,0.2c0,0,0,0,0,0.1c0,0.1-0.1,0.2-0.1,0.4
		c0,0.1-0.1,0.2-0.1,0.4c-0.2,0.1-0.2,0.3-0.3,0.5c0,0.1,0,0.2-0.1,0.3c0,0.1,0,0.2,0,0.3c0,0.1,0,0.3,0,0.4s0,0.3,0,0.4
		c0,0.2,0,0.4,0,0.5c0,0.1,0,0.2,0,0.2c0,0.1,0,0.2,0,0.3c0,0.1,0,0.2,0.1,0.4V34c0,0.1,0,0.1,0,0.2c0,0.1,0.1,0.3,0.1,0.4
		c0,0.1,0,0.1,0,0.2c0.2,1,0.6,2,1.3,2.8h-3.1V26.1l0.8-1.3l0.6-1l2.1-3.7c0.1-0.1,0.1-0.2,0.1-0.3v-2.7h15v20.5h-2.5
		C41.3,36.7,41.8,35.7,42.1,34.8z M25.9,19.4c0.1-0.1,0.1-0.2,0.1-0.3v-5.2h1.2v5.8L25.4,23l-0.5,0.9L24,25.5L23.7,26v0.8v10.8h-6.4
		l0.3-1.5h1.8v-0.9h-3.7v-9.5c0-1.4,1.1-2.5,2.5-2.5h5c0.1,0,0.2,0,0.2,0l0.2,0.1l0.5-0.9L25.9,19.4z M25,14.6v1.1h-3.1l0.6-1.1H25z
		 M20.7,16.6c1.1,0,2,0.9,2,2s-0.9,2-2,2c-1.1,0-2-0.9-2-2S19.6,16.6,20.7,16.6z M11.9,11.8h7.3c0.2,0,0.4,0,0.6,0l0.8-1.3
		c0,0-0.1,0-0.1,0l2.6-4.3c0.1-0.1,0.1-0.3,0.1-0.4v-7.6H25v8.5l-5,9c0,0,0,0,0,0c-1.3,0.3-2.3,1.5-2.3,2.9c0,1.7,1.3,3,3,3
		s3-1.3,3-3c0-0.5-0.2-1-0.4-1.5H25V19l-1.9,3.2h-4.9c-1.9,0-3.5,1.6-3.5,3.5v9.5v0.9h1h0.9l-0.3,1.5H9.8l1.2-6.9h2.7v-1.3H8.2V15.5
		C8.2,13.4,9.9,11.8,11.9,11.8z M6.8,30.7h1.4h1.3l-1.2,6.9H5.7V17.1h1L6.8,30.7L6.8,30.7z M3.2,15.1c0-0.3,0.2-0.5,0.5-0.5h3.1
		c-0.1,0.3-0.1,0.6-0.1,0.9v0.3H4.4V39h40.4V15.7H28.3v-1.1h17.1c0.3,0,0.5,0.2,0.5,0.5v25.1H3.2V15.1z M3.1,44.6v-3h42.8v3H46
		c0,0.4-0.2,0.8-0.5,0.8H3.9C3.6,45.4,3.1,44.9,3.1,44.6z M16.4,55.7H5.2v-4.9h11.2v0.3v1.4V55.7z M16.4,50.5H5.2
		c-0.2,0-0.4,0.2-0.4,0.4v3.2H3.5c-1.5,0-2.7-1.2-2.7-2.7s1.2-2.7,2.7-2.7H19c0,0.5,0,1-0.1,1.3c-0.1,0.5-0.1,0.5-0.4,0.7h-0.1
		c-0.2,0.1-0.5,0.2-0.9,0.4h-0.7v-0.2C16.8,50.7,16.6,50.5,16.4,50.5z M19.9,51.1c0.1-0.2,0.2-0.5,0.3-0.9c0.1-0.6,0.1-1.6,0.1-2.6
		c0-0.3,0-0.6,0-0.8h8.5c0,0.3,0,0.5,0,0.8c0,0.9,0,1.9,0.1,2.6c0.1,0.4,0.2,0.7,0.3,0.9H19.9z M47.2,48.1h-2.1h-0.9h-14
		c0-0.1,0-0.3,0-0.4c0-0.3,0-0.6,0-0.9h15.3c1.1,0,1.8-1.1,1.8-2.1v-3.1h0.1v-0.3c1.8,0.1,3.2,1.5,3.2,3.4
		C50.6,46.6,49.1,48.1,47.2,48.1z"/>
	<rect x="15" y="54.3" class="st2" width="1" height="1"/>
	<rect x="15" y="53" class="st2" width="1" height="1"/>
	<rect x="15" y="51.6" class="st2" width="1" height="1"/>
	<rect x="13.7" y="54.3" class="st2" width="1" height="1"/>
	<rect x="13.7" y="53" class="st2" width="1" height="1"/>
	<rect x="13.7" y="51.6" class="st2" width="1" height="1"/>
	<rect x="12.3" y="54.3" class="st2" width="1" height="1"/>
	<rect x="12.3" y="53" class="st2" width="1" height="1"/>
	<rect x="11" y="54.3" class="st2" width="1" height="1"/>
	<rect x="11" y="53" class="st2" width="1" height="1"/>
	<rect x="9.6" y="54.3" class="st2" width="1" height="1"/>
	<rect x="9.6" y="53" class="st2" width="1" height="1"/>
	<rect x="8.2" y="54.3" class="st2" width="1" height="1"/>
	<rect x="8.2" y="53" class="st2" width="1" height="1"/>
	<rect x="8.2" y="51.6" class="st2" width="5.1" height="1"/>
	<rect x="6.9" y="54.3" class="st2" width="1" height="1"/>
	<rect x="6.9" y="53" class="st2" width="1" height="1"/>
	<rect x="6.9" y="51.6" class="st2" width="1" height="1"/>
	<rect x="5.5" y="54.3" class="st2" width="1" height="1"/>
	<rect x="5.5" y="53" class="st2" width="1" height="1"/>
	<rect x="5.5" y="51.6" class="st2" width="1" height="1"/>
	<path class="st2" d="M15.6,9.6c2.4,0,4.4-2,4.4-4.4c-0.1-2.4-2-4.4-4.4-4.4c-2.4,0-4.4,2-4.4,4.4C11.2,7.6,13.2,9.6,15.6,9.6z
		 M15.6,2.3c1.6,0,2.9,1.3,2.9,2.9c0,1.6-1.3,2.9-2.9,2.9c-1.6,0-2.9-1.3-2.9-2.9C12.7,3.6,14,2.3,15.6,2.3z"/>
	<rect x="14.8" y="13.3" class="st2" width="1.5" height="1.5"/>
	<rect x="14.8" y="16.2" class="st2" width="1.5" height="1.5"/>
	<rect x="20.2" y="24.2" class="st2" width="1" height="1"/>
</g>
<g>
	<path class="st3" d="M37.6,23.3l-3.3,2.4V25v-0.1l1-1.8l0.8-1.4l2.7-4.8c0.1-0.1,0.1-0.2,0.1-0.3V8.2c0-0.4-0.3-0.7-0.8-0.5h-3
		c-0.2,0-0.4,0.1-0.5,0.2c-0.1,0.1-0.2,0.3-0.2,0.5v7.2l-2.4,4h-6c-2.5,0-4.5,2-4.5,4.5v0.1h-6.3l0-0.1l0.4-1.9c0,0,0,0,0,0.1
		c0.2,0.3,0.6,0.6,0.9,0.9c0.4,0.2,0.8,0.4,1.3,0.4c0.1,0,0.3,0,0.4,0c1.8,0,3.2-1.4,3.2-3.2c0-0.8-0.2-1.5-0.7-2c0,0,0,0,0,0
		c0-0.2,0.1-0.3,0.1-0.5c0.9-2.5,0.9-4.2,0.9-4.2c0-5.8-4.4-10.2-9.8-10.2c-5.4,0-9.8,4.4-9.8,9.8c0,0,0.1,4.6,3.8,9.4
		c0.6,0.8,0.7,2.1,0.7,2.9c0,0-0.1,0-0.1,0.1c-0.4,0.3-0.6,0.7-0.6,1.2c0,0.3,0.1,0.5,0.2,0.7c-0.1,0.2-0.2,0.5-0.2,0.7
		c0,0.3,0.1,0.5,0.2,0.7c-0.1,0.2-0.2,0.5-0.2,0.7c0,0.6,0.3,1.1,0.8,1.3c0.2,0.7,0.9,1.2,1.6,1.2h2.9v7.3v3.2L10,41.4
		c0-0.1,0-0.1,0-0.2c0.4-2.7-0.1-5.2-1.8-6.9c-1.8-1.8-4.4-2.3-7.3-1.6l-0.4,0.1l-0.1,0.4c-0.8,2.9-0.2,5.6,1.6,7.3
		c1.2,1.2,2.9,1.9,4.9,1.9c0.7,0,1.3-0.1,2-0.2l2.3,2.3v7.3h1.3v-7.3l1.3-1.3v8.6h1.3V38.3h-2.6v-6.1v-0.5v-0.8V28
		c0-0.3,0-0.6,0.1-0.9h0.1c0-0.1,0.1-0.2,0.1-0.2c0.2-0.4,0.5-0.7,0.9-0.9c0.1-0.1,0.1-0.1,0.2-0.1h-0.4c0.1,0,0.1-0.1,0.2-0.1
		c0.1,0,0.1-0.1,0.2-0.1c0.2-0.1,0.5-0.1,0.7-0.2c0.1-0.1,0.3-0.1,0.5-0.1h6.4c1.4,0,2.6,1.2,2.6,2.6v10.2h-2.6v13.6h1.2V39.6H24
		v12.2h1.3V39.6v-0.7V28c0-1.7-1.1-3.2-2.5-3.6v-0.2c0-1.8,1.4-3.2,3.2-3.2h6.4c0.1,0,0.2,0,0.2,0l0.2,0.1l0.1-0.1c0,0,0,0,0,0
		l0.4-0.7l0.2-0.3l2.3-3.8c0.1-0.1,0.1-0.3,0.1-0.4V9.1h1.6v7.5l-2.3,4.2l-0.6,1.1l-1.1,1.9h-0.1L33,24.5v0.1v1v0.1v13.2v12.8v0.1
		h0.4v0.1h17.9V33.2L37.6,23.3z M8.7,40.1C8.7,40.1,8.7,40.1,8.7,40.1l-1.8-1.7l-0.3-3.6C6.8,34.9,7,35,7.2,35.2
		C8.4,36.4,8.9,38.1,8.7,40.1z M5.2,34C5.2,34,5.2,34,5.2,34l0.3,3l-3.2-3.2c0,0,0.1,0,0.1,0C3.4,33.7,4.4,33.8,5.2,34z M1.5,34.8
		l3.7,3.7l-3.1-0.1C1.5,37.4,1.3,36.1,1.5,34.8z M6.9,41.1c-1.5,0-2.8-0.5-3.7-1.3c0,0-0.1-0.1-0.1-0.1l3.4,0.1L7.7,41
		C7.4,41,7.2,41.1,6.9,41.1z M13.8,39.5v1.7l-0.1,0.2l-1.2,1.1v-3H13.8z M10.1,25.3l-1.2-7.4l0.7-0.8l0.8,0.9l0.7-0.9l0.8,0.9
		l0.8-0.9l0.8,0.9l0.8-0.9l0.6,0.6l-1.1,6.5l0,0.3c-0.4,0.2-0.8,0.5-1.2,0.8H10.1z M18.8,22.2c-0.2,0.1-0.4,0.1-0.6,0.1
		c-0.3,0-0.7-0.1-0.9-0.2c-0.6-0.3-1-1-1-1.7c0-1.1,0.9-1.9,1.9-1.9c0.3,0,0.7,0.1,1,0.3c0.4,0.3,0.8,0.7,0.9,1.2
		c0,0.2,0.1,0.3,0.1,0.5C20.1,21.3,19.6,22,18.8,22.2z M3.5,13.6c0-4.7,3.8-8.5,8.5-8.5s8.5,3.8,8.5,8.5c0,0,0,1.4-0.7,3.4
		c0,0.2-0.1,0.3-0.2,0.5c0,0,0,0,0,0c-0.4-0.2-0.9-0.3-1.4-0.3c-0.7,0-1.3,0.2-1.9,0.6c0,0,0,0,0,0l0.1-0.8l0.2-1.2l-1.2-0.3h-0.2
		v0.2l0,0.2L15.1,16l-0.8-0.9L13.5,16l-0.8-0.9L11.9,16l-0.8-0.9L10.4,16l-0.8-0.9L8.8,16l-0.3-0.3l0-0.1l-1.3,0.2l1.5,9.5H8
		c0-1-0.3-2.3-1-3.1C3.6,17.8,3.5,13.7,3.5,13.6z M8.4,30.9c-0.2,0-0.4-0.2-0.4-0.4v-0.1l-0.6-0.7v-0.4h3.8v1.6H8.4z M11.2,28H7.4
		v-0.3v-0.6h3.9C11.2,27.4,11.2,27.7,11.2,28z M49.7,50.2H39.6c0-0.9-0.6-1.7-1.5-2V36h1.8v1.8h4.8c0.5,0,0.9-0.4,1-0.8v-3.4
		c0-0.5-0.4-0.9-0.9-0.9h-2.7v-0.3c0-0.4-0.3-0.8-0.7-0.9l-3.3-0.8v-0.4c0-0.3-0.2-0.5-0.5-0.5h-0.1c-0.3,0-0.5,0.2-0.5,0.5v0.1V36
		v12.2c-0.5,0.1-0.8,0.4-1.1,0.8c-0.3,0.4-0.5,0.8-0.5,1.3h-1.1V38.9V27.5l3.3-2.4l12.1,8.7V50.2z M38.1,31.8l2.9,0.7v2.4h-2.9V31.8
		z M41.3,36c0.5,0,0.8-0.4,0.8-0.9v-1.3h2.4v2.9H41V36H41.3z"/>
	<rect x="14.7" y="1.5" transform="matrix(0.372 -0.9282 0.9282 0.372 8.1155 16.2444)" class="st3" width="2.7" height="1.3"/>
	<rect x="9.3" y="0.1" transform="matrix(0.9899 -0.142 0.142 0.9899 -0.1021 1.4261)" class="st3" width="1.3" height="2.7"/>
	<rect x="3.6" y="2.7" transform="matrix(0.7862 -0.6179 0.6179 0.7862 -1.5838 3.4964)" class="st3" width="1.3" height="2.7"/>
	<rect x="19.7" y="5.1" transform="matrix(0.7863 -0.6179 0.6179 0.7863 0.9519 14.2324)" class="st3" width="2.7" height="1.3"/>
	<rect x="28.5" y="38.2" class="st3" width="1.3" height="13.5"/>
	<path class="st3" d="M29.2,19c2.1,0,3.9-1.7,3.9-3.9c-0.1-2.2-1.8-3.9-3.9-3.9c-2.1,0-3.9,1.7-3.9,3.9C25.3,17.2,27,19,29.2,19z
		 M29.2,12.4c1.4,0,2.6,1.2,2.6,2.6c-0.1,1.5-1.2,2.6-2.6,2.6c-1.4,0-2.6-1.2-2.6-2.6C26.6,13.6,27.8,12.4,29.2,12.4z"/>
	<rect x="17.6" y="40.8" class="st3" width="1.3" height="10.9"/>
	<rect x="28.5" y="22.2" class="st3" width="1.3" height="1.3"/>
	<rect x="28.5" y="24.7" class="st3" width="1.3" height="1.3"/>
	<rect x="17.6" y="26.7" class="st3" width="1.3" height="1.3"/>
</g>
<g class="st1">
	<path class="st4" d="M30.6,51.6c0,0,0,0.1,0.1,0.1l7.6-1.6c0,0,0-0.1,0-0.1L30.6,51.6z"/>
	<polygon class="st4" points="26.5,11.6 28.5,12.8 26.5,11.5 	"/>
	<path class="st4" d="M25.1,23.8c0.2,0,0.3,0,0.3-0.1l0.8-0.8c0.2-0.2,0.2-0.4,0-0.6s-0.4-0.2-0.6,0l-0.8,0.8
		c-0.2,0.2-0.2,0.4,0,0.6C24.9,23.8,25,23.8,25.1,23.8z"/>
	<path class="st4" d="M2.9,22.9l0.8,0.8c0.1,0.1,0.2,0.1,0.3,0.1s0.2,0,0.3-0.1c0.2-0.2,0.2-0.4,0-0.6l-0.8-0.8
		c-0.2-0.2-0.4-0.2-0.6,0C2.7,22.5,2.7,22.7,2.9,22.9z"/>
	<path class="st4" d="M41.8,29.8c-2.6,0-4.9,1-6.8,2.8c-1,1-1.7,2.1-2.2,3.4l-5.7-3.3c1.2-2.1,1.8-4.4,1.8-6.9
		c0-2.4-0.6-4.8-1.8-6.9l5.6-3.3c0.5,1.3,1.2,2.4,2.2,3.4c1.8,1.8,4.2,2.8,6.7,2.8c2.6,0,5-1,6.8-2.8c1.8-1.8,2.8-4.2,2.8-6.7
		s-1-4.9-2.8-6.7c-0.9-0.9-2-1.6-3.1-2.1c-1.1-0.5-2.4-0.7-3.7-0.7c-0.3,0-0.7,0-1,0.1c0,0,0,0,0-0.1c0-0.6-0.5-1.1-1.1-1.1
		c-0.5,0-0.9,0.3-1.1,0.8l-8.1-1.6c0-0.4-0.4-0.8-0.8-0.8s-0.8,0.4-0.8,0.8l-8.1,1.6c-0.1-0.6-0.6-0.9-1.1-0.9
		c-0.6,0-1.1,0.5-1.1,1.1c0,0.2,0,0.4,0.1,0.5L12,7.6c-0.1-0.2-0.4-0.3-0.6-0.3c-0.4,0-0.8,0.4-0.8,0.8c0,0.2,0.1,0.4,0.3,0.6
		l-2.8,4.1c-1.4,0.7-2.8,1.6-3.9,2.8C1.5,18.3,0,21.9,0,25.7c0,3.8,1.5,7.4,4.2,10.2c0.2,0.2,0.4,0.3,0.5,0.5
		c0.1,0.5,0.5,0.9,1.1,0.9c0,0,0,0,0,0c0.3,0.2,0.6,0.4,1,0.6l3.7,5.6c-0.2,0.2-0.4,0.5-0.4,0.9c0,0.6,0.5,1.1,1.1,1.1
		c0.3,0,0.7-0.2,0.9-0.4l5.8,3.9c-0.1,0.3-0.2,0.5-0.2,0.8c0,1,0.8,1.7,1.7,1.7c0.8,0,1.4-0.5,1.7-1.3l7.2,1.4v0.1
		c0,0.6,0.5,1.1,1.1,1.1c0.6,0,1.2-0.5,1.2-1.1v-0.1l0,0c-0.2-0.4-0.6-0.7-1-0.7c-0.3,0-0.5,0.1-0.7,0.2l-5.6-5.8
		c0.3-0.3,0.4-0.7,0.4-1.1c0-0.7-0.4-1.2-0.9-1.5l1.5-3.5c0.1,0,0.1,0,0.2,0s0.2,0,0.3-0.1l4.1,6c-0.2,0.1-0.2,0.3-0.2,0.6
		c0,0.4,0.4,0.8,0.8,0.8s0.8-0.4,0.8-0.8l3.6-0.8c0.3,0.4,0.6,0.7,0.9,1.1c1.7,1.7,3.9,2.7,6.2,2.8l-0.6,0.4
		c-0.2-0.2-0.5-0.4-0.9-0.4c-0.6,0-1.1,0.5-1.1,1.2v0.1l-0.1,0c0.2,0.7,0.6,1,1.2,1c0.6,0,1.1-0.5,1.1-1.1c0-0.2,0-0.4-0.1-0.5
		l1-0.7c2.6,0,5-1,6.8-2.8c1.8-1.8,2.8-4.2,2.8-6.7s-1-4.9-2.8-6.7C46.7,30.8,44.3,29.8,41.8,29.8z M27.3,24.1L25.4,26h-0.5
		l-6.5-6.5V19l3.6-3.6c0.6,0.4,1.1,0.9,1.6,1.4C25.6,18.8,26.9,21.3,27.3,24.1z M20.5,32.3c-0.1,0-0.4-0.2-0.5-0.3
		c-0.1-0.1-0.2-0.1-0.2-0.1l-3.7-3.7c-0.2-0.2-0.4-0.2-0.6,0c-0.2,0.2-0.2,0.4,0,0.6l4.6,4.8c0.1,0.1,0.3,0.3,0.3,0.5
		c0,0.4-0.3,0.8-0.8,0.8c-0.1,0-0.4-0.2-0.5-0.3l-4.7-4.7c-0.2-0.2-0.4-0.2-0.6,0s-0.2,0.4,0,0.6l4.1,4.1c0,0.1,0.1,0.2,0.1,0.2
		c0.1,0.1,0.3,0.3,0.3,0.5c0,0.4-0.3,0.8-0.8,0.8c-0.1,0-0.4-0.2-0.5-0.3l-4.2-4.2c-0.2-0.2-0.4-0.2-0.6,0s-0.2,0.4,0,0.6l3.2,3.2
		c0,0.1,0,0.2,0.1,0.3c0.1,0.1,0.3,0.3,0.3,0.5c0,0.4-0.3,0.8-0.8,0.8c-0.1,0-0.4-0.2-0.5-0.3L7,29.2v-1.3l-1.8-1.8l5.3-5.3h1.8
		l-2,2c0,0-0.5,0.5-0.5,1.1c0,0.9,0.8,1.7,1.7,1.7c0.5,0,1-0.4,1.1-0.5l2-2h0.7v2.3L21,31c0.1,0.1,0.3,0.3,0.3,0.5
		C21.3,31.9,21,32.3,20.5,32.3z M7.2,30.5l1,1c-0.1,0.1-0.3,0.3-0.4,0.3c-0.4,0-0.8-0.3-0.8-0.8C6.9,30.9,7,30.7,7.2,30.5z
		 M8.9,32.2l1,1c-0.1,0.1-0.3,0.3-0.4,0.3c-0.4,0-0.8-0.3-0.8-0.8C8.6,32.6,8.7,32.4,8.9,32.2z M10.6,33.9l1,1
		c-0.1,0.1-0.3,0.3-0.4,0.3c-0.4,0-0.8-0.3-0.8-0.8C10.3,34.3,10.4,34.1,10.6,33.9z M12.3,35.6l1,1c-0.1,0.1-0.3,0.3-0.4,0.3
		c-0.4,0-0.8-0.3-0.8-0.8C12,36,12.1,35.8,12.3,35.6z M11.5,18.5l-3.6-3.6c2-1.2,4.2-1.9,6.6-1.9c2.4,0,4.7,0.7,6.8,1.9l-3.6,3.6
		c-0.1,0.1-0.1,0.2-0.1,0.3v0.8c0,0.1,0,0.2,0.1,0.3l0.1,0.1h-6.4l0.1-0.1c0.1-0.1,0.1-0.2,0.1-0.3v-0.8
		C11.6,18.7,11.6,18.6,11.5,18.5z M21,29.9L21,29.9l-3.5-3.5H18c0.9,0,1.6-0.8,1.6-1.6h-0.8c0,0.4-0.3,0.8-0.8,0.8h-1.3v0L16.1,25
		v-2.8h-1.9L12,24.4c-0.1,0.1-0.3,0.3-0.5,0.3c-0.4,0-0.8-0.3-0.8-0.8c0-0.1,0.2-0.4,0.3-0.5l2.5-2.5c0,0,0.1-0.1,0.1-0.1h5l5.3,5.3
		l-1.4,1.4v0.8L21,29.9z M26.2,17.6c-0.4-0.5-0.8-1.1-1.2-1.5c0.6-0.3,1-0.9,1-1.6c0-0.1,0-0.1,0-0.2l2.3-0.5
		c0.2,0.5,0.6,0.8,1.1,0.8s0.9-0.3,1.1-0.8l1.6,0.4L26.2,17.6z M39.5,20v-4.3h-1.4v3.8c-0.4-0.2-0.7-0.4-1.1-0.7v-3.6
		c0-0.5,0.4-1.1,0.9-1.2c2.5-0.8,5.2-0.8,7.8,0c0.5,0.1,0.9,0.7,0.9,1.2v3.3c-0.4,0.3-0.8,0.6-1.2,0.8v-3.6H44v4.2
		c-0.8,0.2-1.6,0.4-2.4,0.4C40.9,20.3,40.2,20.2,39.5,20z M39.7,9.9c0-1.2,0.9-2.1,2.1-2.1c1.1,0,2.1,0.9,2.1,2.1
		c0,1.1-0.8,2-1.9,2.1c-0.1,0-0.2,0-0.4,0C40.6,11.9,39.7,11,39.7,9.9z M41.7,4.4c2.1,0,4.1,0.8,5.6,2.3s2.3,3.5,2.3,5.6
		c0,1.1-0.2,2.1-0.6,3c-0.3,0.6-0.6,1.2-1,1.7v-1.8c-0.1-1.1-0.9-2.2-1.9-2.6c-0.6-0.2-1.2-0.3-1.7-0.4c0.6-0.6,0.9-1.5,0.9-2.3
		c0-2-1.6-3.5-3.5-3.5c-1.9,0-3.5,1.6-3.5,3.5c0,0.9,0.4,1.7,0.9,2.3c-0.6,0.1-1.2,0.2-1.7,0.4c-1,0.3-1.9,1.5-1.9,2.6v2.4
		c-1.2-1.4-1.9-3.3-1.9-5.2c0.1-2.2,0.9-4.2,2.4-5.7S39.6,4.4,41.7,4.4z M30,1.2l8.1,1.6v0.1c0,0.2,0.1,0.4,0.1,0.5
		c-1.3,0.5-2.4,1.2-3.4,2.2c-0.1,0.1-0.3,0.3-0.4,0.5l-4.5-4.7C29.9,1.3,30,1.3,30,1.2z M29.4,1.7c0.1,0,0.2-0.1,0.3-0.1l4.5,4.7
		c-1.4,1.7-2.2,3.8-2.2,6c0,0.5,0.1,1.1,0.2,1.6l-1.7-0.3v-0.1c0-0.6-0.5-1.1-1.1-1.1c-0.4,0-0.7,0.2-0.9,0.4
		c-0.1,0.2-0.1,0.3-0.1,0.5v0.1l-2.3,0.5c-0.1-0.3-0.3-0.6-0.6-0.9l1-1.5l0,0l2.3-3.2c0.2,0.1,0.3,0.1,0.5,0.1
		c0.6,0,1.1-0.5,1.1-1.2c0-0.6-0.4-1.1-1-1.1V1.7z M26.4,11.2L22.9,9C23,8.8,23,8.7,23,8.5V8.4l5.3-1.1c0.1,0.2,0.2,0.4,0.3,0.5
		L26.4,11.2z M18.6,3.5c0.2,0.2,0.5,0.4,0.9,0.4c0.6,0,1.1-0.5,1.1-1.1V2.7l8.1-1.6c0.1,0.3,0.3,0.5,0.6,0.5v4.3
		c-0.6,0.1-1,0.5-1,1.1v0.1L23,8.2c-0.1-0.5-0.6-0.8-1.1-0.8c-0.6,0-1,0.4-1.1,1l-8.6-0.3c0-0.1,0-0.2-0.1-0.2L18.6,3.5z M12.2,8.4
		l8.6,0.2c0,0.6,0.5,1.1,1.1,1.1c0.4,0,0.7-0.2,0.9-0.4l3.5,2.2l-1,1.5c-0.3-0.1-0.5-0.2-0.9-0.2c-0.8,0-1.5,0.6-1.6,1.3
		c-2.3-1.6-5-2.6-7.9-2.6l-2.7-2.7C12.2,8.6,12.2,8.5,12.2,8.4z M11.1,9c0.1,0,0.2,0.1,0.3,0.1c0.2,0,0.3-0.1,0.5-0.2l2.5,2.5
		c-2,0-4,0.4-5.8,1.2L11.1,9z M5.4,16.8c0.5-0.5,1.1-1,1.7-1.5l3.7,3.7v0.5L4.3,26H3.8l-2-2C2.2,21.3,3.4,18.8,5.4,16.8z M1.7,25.8
		c0-0.2,0-0.4,0-0.7l1.6,1.6c0.1,0.1,0.2,0.1,0.3,0.1h0.8c0.1,0,0.2,0,0.2-0.1l1.6,1.6v1.3l0.4,0.4c-0.1,0.1-0.5,0.5-0.5,1
		c0,0.9,0.8,1.7,1.7,1.7c0,0.9,0.8,1.7,1.7,1.7c0,0.9,0.8,1.7,1.7,1.7c0,0.9,0.8,1.7,1.7,1.7c0.5,0,0.9-0.3,1-0.5l0,0
		c0,0,0.5,0.5,1.1,0.5c0.8,0,1.5-0.6,1.6-1.3c0.2,0.1,0.5,0.4,0.9,0.4c0.9,0,1.5-0.6,1.6-1.3c0.2,0.1,0.3,0.1,0.5,0.1
		c1,0,1.7-0.8,1.7-1.7c0-0.4-0.2-0.8-0.4-1c0.7-0.2,1.2-0.8,1.1-1.5c0-0.4-0.2-0.8-0.4-1c0,0,0.1-0.1,0.1-0.1l1.8-1.8v-0.8l1.1-1.1
		c0.1,0,0.2,0.1,0.2,0.1h0.8c0.1,0,0.2,0,0.3-0.1l1.5-1.5c0,0.2,0,0.4,0,0.7c0,3.3-1.3,6.5-3.7,9c-2.4,2.4-5.7,3.8-9.1,3.8
		c-3.4,0-6.6-1.3-9.1-3.8C3.1,32.5,1.7,29.3,1.7,25.8z M10.8,43.3l-3.3-4.9c1.2,0.6,2.4,1.1,3.8,1.4l-0.1,3.4
		C11,43.2,10.9,43.3,10.8,43.3z M23,45.5l5.6,5.8c-0.1,0.1-0.2,0.2-0.2,0.3l-7.2-1.5c0-0.1,0-0.1,0-0.2c0-0.9-0.8-1.7-1.7-1.7
		c-0.5,0-1,0.3-1.3,0.7L12.4,45c0.1-0.1,0.1-0.3,0.1-0.4l7.7-0.2c0.1,0.9,0.8,1.5,1.7,1.5C22.3,45.9,22.7,45.7,23,45.5z M22.5,42.5
		c-0.2-0.1-0.4-0.1-0.6-0.1c-0.9,0-1.7,0.7-1.7,1.6l-7.7,0.3c-0.1-0.5-0.5-0.9-1-1l0.1-3.5c0.9,0.2,1.9,0.3,2.8,0.3
		c0.2,0,0.4,0,0.6,0c0.1,0.3,0.4,0.6,0.8,0.6c0.4,0,0.8-0.4,0.8-0.8c1.1-0.2,2.3-0.5,3.3-0.9c1-0.4,2-1,2.9-1.6l0.9,0.6
		c0,0.1-0.1,0.2-0.1,0.3c0,0.3,0.1,0.5,0.4,0.7L22.5,42.5z M24.5,37.6c-0.2,0-0.4,0.1-0.6,0.3l-1-0.6c0.6-0.4,1.1-0.9,1.7-1.4
		c0.6-0.6,1.1-1.3,1.6-1.9l6,3.5c-0.1,0.4-0.1,0.9-0.2,1.3l-1.3,0.3c-0.2-0.5-0.6-0.8-1.1-0.8s-0.9,0.3-1.1,0.8l-3.2-0.7
		C25.3,38,24.9,37.6,24.5,37.6z M30.2,45.4c-0.1-0.3-0.4-0.5-0.7-0.5c-0.1,0-0.2,0-0.3,0.1l-4.1-6c0.1-0.1,0.2-0.2,0.2-0.3l3.2,0.7
		v0.1c0,0.6,0.5,1.1,1.1,1.1c0.6,0,1.2-0.5,1.2-1.1v-0.1l1.2-0.2c0,0,0,0.1,0,0.1c0,1.9,0.6,3.8,1.7,5.4L30.2,45.4z M41.8,38.8
		c-1.1,0-2.1-0.9-2.1-2.1c0-1.2,0.9-2.1,2.1-2.1c1.1,0,2.1,0.9,2.1,2.1C43.9,37.9,43,38.8,41.8,38.8z M45.7,40.9
		c0.5,0.1,0.9,0.7,0.9,1.2v3.7c-0.4,0.3-0.8,0.5-1.2,0.8v-4H44v4.6c-0.7,0.2-1.4,0.3-2.2,0.3c-0.8,0-1.6-0.1-2.3-0.3v-4.6h-1.4v4
		c-0.4-0.2-0.8-0.4-1.1-0.7v-3.7c0-0.5,0.4-1.1,0.9-1.2C40.4,40.1,43.1,40.1,45.7,40.9z M49.2,42.4c-0.3,0.8-0.7,1.4-1.2,2V42
		c-0.1-1.1-0.9-2.2-1.9-2.5c-0.6-0.2-1.2-0.3-1.8-0.4c0.6-0.6,1-1.5,1-2.4c0-2-1.6-3.5-3.5-3.5c-1.9,0-3.5,1.6-3.5,3.5
		c0,0.9,0.4,1.8,1,2.4c-0.6,0.1-1.2,0.2-1.8,0.4c-1,0.3-1.9,1.5-1.9,2.6v2.3c-1.1-1.4-1.7-3.1-1.7-4.9c0-2.1,0.8-4.1,2.3-5.6
		s3.5-2.4,5.7-2.4c2.1,0,4.1,0.8,5.6,2.3s2.3,3.5,2.3,5.6C49.8,40.4,49.6,41.4,49.2,42.4z"/>
</g>
</svg>
