<?xml version="1.0" encoding="utf-8"?>
<!-- Generator: Adobe Illustrator 22.1.0, SVG Export Plug-In . SVG Version: 6.00 Build 0)  -->
<svg version="1.1" id="Layer_1" xmlns="http://www.w3.org/2000/svg" xmlns:xlink="http://www.w3.org/1999/xlink" x="0px" y="0px"
	 viewBox="0 0 49.3 44.2" style="enable-background:new 0 0 49.3 44.2;" xml:space="preserve">
<style type="text/css">
	.st0{fill:#444444;}
</style>
<path class="st0" d="M49.3,18.1l-3.8-2.8v0L24.7,0L3.7,15.3v0L0,18l1.3,1.3l2.3-1.7v26.6h41.8V17.6l2.5,1.8L49.3,18.1z M38.1,22.7
	l-2.7,0.6c-0.1-0.4-0.4-0.7-0.7-1l1.2-1.7l2.3,1.4c-0.1,0.2-0.1,0.4-0.1,0.6C38.1,22.7,38.1,22.7,38.1,22.7z M31.7,24.8l-2.1,1.4
	c-0.2-0.3-0.6-0.5-1-0.5c-0.3,0-0.6,0.1-0.8,0.3l-3.3-3.3c0.2-0.2,0.3-0.5,0.3-0.8c0-0.7-0.6-1.3-1.3-1.3c-0.3,0-0.6,0.1-0.8,0.3
	l-3.6-3.6c0.1-0.1,0.1-0.2,0.2-0.4l10,0.3c0.1,0.7,0.6,1.2,1.3,1.2c0.4,0,0.8-0.2,1-0.5l4,2.5l-1.2,1.7c-0.3-0.2-0.6-0.3-1-0.3
	c-1.1,0-2,0.9-2,2C31.5,24.2,31.6,24.6,31.7,24.8z M25.1,32.8l-0.8,4.1c0,0,0,0,0,0c-0.5,0-0.8,0.3-0.9,0.8h-5.1
	c-0.1-0.7-0.6-1.2-1.3-1.2c-0.1,0-0.3,0-0.4,0.1l-3.9-9.2c0.2-0.1,0.4-0.3,0.5-0.5l3.6,1.5c-0.1,0.2-0.1,0.4-0.1,0.6
	c0,1.1,0.9,2,2,2c1.1,0,2-0.9,2-2c0-0.1,0-0.2,0-0.2l6.8-1.3c0.1,0.2,0.2,0.5,0.4,0.6l-2,3C25.7,31,25.6,31,25.4,31
	c-0.5,0-0.9,0.4-0.9,0.9C24.5,32.3,24.7,32.7,25.1,32.8z M15.1,42.3l1.4-3.2c0.1,0,0.2,0.1,0.4,0.1c0.7,0,1.2-0.5,1.3-1.2h5.1
	c0.1,0.4,0.5,0.8,0.9,0.8c0,0,0,0,0,0l0.7,3.6H15.1z M9.9,36.9l1.9-9.4c0,0,0.1,0,0.1,0c0.1,0,0.2,0,0.4-0.1l3.9,9.2
	c-0.4,0.2-0.7,0.7-0.7,1.2c0,0.5,0.3,0.9,0.7,1.2l-1.4,3.4h-4.1l-0.7-3.6c0.3-0.1,0.6-0.5,0.6-0.9C10.5,37.4,10.3,37.1,9.9,36.9z
	 M23.4,23.3c0.3,0,0.6-0.1,0.8-0.3l3.3,3.3c-0.2,0.2-0.3,0.5-0.3,0.8c0,0,0,0.1,0,0.1l-6.8,1.3c-0.2-0.8-1-1.5-1.9-1.5
	c-0.8,0-1.4,0.4-1.8,1.1l-3.6-1.5c0-0.1,0.1-0.2,0.1-0.4c0-0.4-0.2-0.8-0.5-1l5.1-7.6c0.1,0.1,0.2,0.1,0.4,0.1
	c0.2,0,0.4-0.1,0.5-0.2l3.6,3.6c-0.2,0.2-0.3,0.5-0.3,0.8C22.1,22.7,22.7,23.3,23.4,23.3z M35.8,20.2l-4-2.5
	c0.1-0.2,0.1-0.4,0.1-0.6c0,0,0-0.1,0-0.1l6.2-1.2c0.1,0.2,0.2,0.4,0.4,0.6L35.8,20.2z M38,15.3c0,0,0,0.1,0,0.1l-6.2,1.2
	c-0.2-0.5-0.7-0.9-1.3-0.9c-0.7,0-1.2,0.5-1.3,1.1l-10-0.3c0-0.1,0-0.2-0.1-0.3l7.6-5.1c0.2,0.3,0.6,0.5,1,0.5
	c0.7,0,1.3-0.6,1.3-1.3c0,0,0-0.1,0-0.1l5.1-1l5,3.7l0,1.1C38.5,14.1,38,14.6,38,15.3z M5.5,16.3l0.9-0.7l0,0L24.7,2.3L33.8,9L29,10
	C28.9,9.4,28.4,9,27.8,9c-0.7,0-1.3,0.6-1.3,1.3c0,0.2,0.1,0.4,0.2,0.6L19,16.1c-0.2-0.2-0.4-0.3-0.7-0.3c-0.5,0-0.9,0.4-0.9,0.9
	c0,0.3,0.1,0.5,0.3,0.7L12.5,25c-0.2-0.1-0.4-0.2-0.6-0.2c-0.7,0-1.3,0.6-1.3,1.3c0,0.6,0.4,1.1,0.9,1.3l-1.9,9.4c0,0,0,0,0,0
	c-0.5,0-0.9,0.4-0.9,0.9c0,0.5,0.4,0.9,0.9,0.9c0,0,0,0,0,0l0.7,3.6H5.5V16.3z M25.3,42.3l-0.7-3.6c0.4-0.1,0.6-0.5,0.6-0.9
	c0-0.4-0.2-0.7-0.6-0.9l0.8-4.1c0,0,0,0,0,0c0.5,0,0.9-0.4,0.9-0.9c0-0.3-0.1-0.5-0.3-0.7l2-2.9c0.2,0.1,0.4,0.2,0.6,0.2
	c0.7,0,1.3-0.6,1.3-1.3c0-0.2-0.1-0.4-0.2-0.6l2.1-1.4c0.4,0.5,0.9,0.8,1.6,0.8c1.1,0,2-0.9,2-2c0-0.1,0-0.2,0-0.3l2.7-0.6
	c0.2,0.5,0.7,0.9,1.3,0.9c0.6,0,1.1-0.4,1.3-0.9l3,0.6v18.6H25.3z M43.7,23.4l-3-0.6c0,0,0-0.1,0-0.1c0-0.7-0.6-1.3-1.3-1.3
	c-0.4,0-0.8,0.2-1,0.5l-2.3-1.4l2.6-3.8c0.2,0.1,0.4,0.2,0.6,0.2c0.7,0,1.3-0.6,1.3-1.3c0-0.7-0.5-1.2-1.2-1.3l0-0.9l3.4,2.5l0,0
	l0.8,0.6V23.4z"/>
</svg>
