<?xml version="1.0" encoding="utf-8"?>
<!-- Generator: Adobe Illustrator 23.0.1, SVG Export Plug-In . SVG Version: 6.00 Build 0)  -->
<svg version="1.1" id="Layer_1" xmlns="http://www.w3.org/2000/svg" xmlns:xlink="http://www.w3.org/1999/xlink" x="0px" y="0px"
	 viewBox="0 0 600 600" style="enable-background:new 0 0 600 600;" xml:space="preserve">
<style type="text/css">
	.st0{fill:#CE1F29;}
</style>
<g>
	<g>
		<g>
			<path class="st0" d="M300,27.35c36.81,0,72.52,7.21,106.12,21.42c32.47,13.73,61.63,33.39,86.67,58.44
				c25.04,25.04,44.7,54.2,58.44,86.67c14.21,33.61,21.42,69.31,21.42,106.12s-7.21,72.52-21.42,106.12
				c-13.73,32.47-33.39,61.63-58.44,86.67c-25.04,25.04-54.2,44.7-86.67,58.44c-33.61,14.21-69.31,21.42-106.12,21.42
				s-72.52-7.21-106.12-21.42c-32.47-13.73-61.63-33.39-86.67-58.44c-25.04-25.04-44.7-54.2-58.44-86.67
				C34.56,372.52,27.35,336.81,27.35,300s7.21-72.52,21.42-106.12c13.73-32.47,33.39-61.63,58.44-86.67s54.2-44.7,86.67-58.44
				C227.48,34.56,263.19,27.35,300,27.35 M300,15C142.6,15,15,142.6,15,300s127.6,285,285,285s285-127.6,285-285S457.4,15,300,15
				L300,15z"/>
		</g>
	</g>
	<g>
		<rect x="294.63" y="230.01" class="st0" width="10.74" height="32.21"/>
		<rect x="273.15" y="230.01" class="st0" width="10.74" height="32.21"/>
		<rect x="428.86" y="428.67" class="st0" width="10.74" height="10.74"/>
		<rect x="407.38" y="428.67" class="st0" width="10.74" height="10.74"/>
		<rect x="385.91" y="428.67" class="st0" width="10.74" height="10.74"/>
		<circle class="st0" cx="171.14" cy="434.04" r="10.74"/>
		
			<rect x="377.93" y="139.59" transform="matrix(0.7071 -0.7071 0.7071 0.7071 9.46 313.0268)" class="st0" width="9.31" height="11"/>
		
			<rect x="363.44" y="153.64" transform="matrix(0.7071 -0.7071 0.7071 0.7071 -4.5937 307.1919)" class="st0" width="10.16" height="11"/>
		
			<rect x="193.5" y="140.42" transform="matrix(0.7071 -0.7071 0.7071 0.7071 -44.3015 183.2065)" class="st0" width="11" height="9.31"/>
		
			<rect x="207.57" y="154.06" transform="matrix(0.7071 -0.7071 0.7071 0.7071 -50.1239 197.2732)" class="st0" width="11" height="10.16"/>
		<path class="st0" d="M472.31,239.62h-79.12c-2.59-6.51-8.95-11.13-16.37-11.13c-2.5,0-4.87,0.53-7.02,1.47
			c-0.02-24.39-12.68-41.82-24.44-47.71c-6.45-3.22-12.88-4.86-19.12-4.86c-12.06,0-21.33,6.03-28.11,10.44
			c-1.15,0.75-2.34,1.52-3.5,2.23v-14.02c7.73-0.79,22.13-3.39,30.7-11.97c11.9-11.89,12.3-34.97,12.31-35.95l0.06-5.49l-5.49,0.06
			c-0.98,0.01-24.05,0.42-35.95,12.31c-0.57,0.57-1.11,1.18-1.64,1.8V133c0-2.76-2.24-5-5-5h-0.74c-2.76,0-5,2.24-5,5v43.22v0.23
			l0,0v13.62c-1.15-0.7-2.35-1.48-3.5-2.23c-6.77-4.41-16.04-10.44-28.11-10.44c-6.24,0-12.67,1.63-19.12,4.86
			c-11.77,5.89-24.44,23.34-24.44,47.76c0,22.7,5.53,42.5,14.02,57.89H163.7v-29.89c9.04-2.78,15.63-11.21,15.63-21.15
			c0-12.2-9.93-22.13-22.13-22.13s-22.13,9.93-22.13,22.13c0,9.94,6.59,18.37,15.63,21.15v42.89h80.39v-0.44
			c5.22,6.55,11.03,11.77,17.09,15.45h-55.56c-17.58,0-31.91,14.15-32.21,31.66c-0.14,8.46,3.12,16.2,8.48,22.04h-14.22
			c-2.76,0-5,2.24-5,5v27.21h-16.48c-2.76,0-5,2.24-5,5v54.43c0,2.76,2.24,5,5,5h333.62c2.76,0,5-2.24,5-5v-54.43c0-2.76-2.24-5-5-5
			H439.6v-27.21c0-2.76-2.24-5-5-5h-16.48c-9.58,0-17.7-6.3-20.47-14.98h74.66V239.62z M303.86,142.6
			c5.43-5.43,15.54-7.81,22.6-8.71c-0.89,7.05-3.26,17.14-8.72,22.59c-5.42,5.42-15.52,7.81-22.59,8.7
			C296.05,158.12,298.43,148.02,303.86,142.6z M157.2,227.74c5.03,0,9.13,4.09,9.13,9.13s-4.09,9.13-9.13,9.13s-9.13-4.09-9.13-9.13
			S152.17,227.74,157.2,227.74z M219.46,230.01c0-18.97,9.31-33.55,18.51-38.15c5.01-2.51,9.69-3.73,14.32-3.73
			c8.87,0,15.98,4.62,22.25,8.7c5.22,3.39,9.72,6.33,14.73,6.33c5,0,9.51-2.93,14.72-6.33c6.27-4.08,13.37-8.7,22.25-8.7
			c4.62,0,9.3,1.22,14.32,3.73c9.2,4.6,18.51,19.18,18.51,38.15c0,50.47-28.69,81.46-49.26,81.46c-6.56,0-11.97-3.12-16.07-9.27
			l-4.47-6.7l-4.47,6.7c-4.1,6.15-9.51,9.27-16.07,9.27l0,0C248.16,311.47,219.46,280.48,219.46,230.01z M289.26,313.62
			c0.83,0.82,1.69,1.58,2.58,2.29h-5.16C287.57,315.21,288.43,314.45,289.26,313.62z M224.83,401.82v-21.48h10.74v21.48H224.83z
			 M214.09,401.82h-10.74v-21.48h10.74V401.82z M160.4,380.34h32.21v21.48H160.4V380.34z M138.93,412.56h10.74h53.69v42.95h-64.43
			V412.56z M461.07,412.56v42.95H214.09v-42.95h225.5H461.07z M428.86,380.34v21.48H246.31v-21.48h171.81H428.86z M193.15,369.61
			c-11.63,0-21.55-9.03-21.99-20.65c-0.46-12.22,9.34-22.31,21.46-22.31h201.51c-5.11,5.7-8.22,13.23-8.22,21.48
			s3.11,15.77,8.22,21.48L193.15,369.61L193.15,369.61z M459.31,341.63h-61.64c2.36-7.39,8.6-13.07,16.33-14.58
			c2.38-0.46,4.12-2.5,4.12-4.92v-1.22c0-2.76-2.24-5-5-5h-82.77c15.66-9.52,29.69-29.34,35.96-55.68c2.94,2.19,6.57,3.51,10.5,3.51
			c7.42,0,13.77-4.62,16.37-11.13h66.12v89.02H459.31z"/>
	</g>
</g>
</svg>
