<?xml version="1.0" encoding="utf-8"?>
<!-- Generator: Adobe Illustrator 23.0.1, SVG Export Plug-In . SVG Version: 6.00 Build 0)  -->
<svg version="1.1" id="Layer_1" xmlns="http://www.w3.org/2000/svg" xmlns:xlink="http://www.w3.org/1999/xlink" x="0px" y="0px"
	 viewBox="0 0 600 600" style="enable-background:new 0 0 600 600;" xml:space="preserve">
<style type="text/css">
	.st0{fill:#CE1F29;}
</style>
<g>
	<path class="st0" d="M300,15C142.6,15,15,142.6,15,300s127.6,285,285,285s285-127.6,285-285S457.4,15,300,15z M492.79,492.79
		c-25.04,25.04-54.2,44.7-86.67,58.44c-33.61,14.21-69.31,21.42-106.12,21.42s-72.52-7.21-106.12-21.42
		c-32.47-13.73-61.63-33.39-86.67-58.44c-25.04-25.04-44.7-54.2-58.44-86.67C34.56,372.52,27.35,336.81,27.35,300
		s7.21-72.52,21.42-106.12c13.73-32.47,33.39-61.63,58.44-86.67c25.04-25.04,54.2-44.7,86.67-58.44
		c33.6-14.21,69.31-21.42,106.12-21.42s72.52,7.21,106.12,21.42c32.47,13.73,61.63,33.39,86.67,58.44
		c25.04,25.04,44.7,54.2,58.44,86.67c14.21,33.61,21.42,69.31,21.42,106.12s-7.21,72.52-21.42,106.12
		C537.5,438.59,517.84,467.75,492.79,492.79z"/>
	<path class="st0" d="M360.93,311.07h5.54v-88.68h88.68v-5.54c0-51.95-42.27-94.22-94.22-94.22s-94.22,42.27-94.22,94.22
		S308.98,311.07,360.93,311.07z M360.93,133.71c43.98,0,80.09,34.33,82.95,77.59H361.1l-63.33-48.43
		C313.03,145.05,335.67,133.71,360.93,133.71z M291.14,171.76l64.25,49.13v78.91c-43.27-2.86-77.59-38.97-77.59-82.95
		C277.8,200.23,282.71,184.76,291.14,171.76z"/>
	<path class="st0" d="M471.48,239.36l0.36-5.88h-94.29v94.29l5.88-0.36c29.79-1.85,55.83-17.57,71.76-40.78h46.5v55.51h-35.85v12
		h47.85v-79.51h-51.52C467.43,263.85,470.7,251.94,471.48,239.36z M388.64,315.76v-71.21h71.21
		C454.91,281.53,425.61,310.82,388.64,315.76z"/>
	<path class="st0" d="M250.08,281.06V150.34c0-15.28-12.43-27.71-27.71-27.71s-27.71,12.43-27.71,27.71v75.3l-36.98-36.98
		c-3.22-3.22-7.67-5.07-12.23-5.07c-9.54,0-17.3,7.76-17.3,17.3v265.36h265.36c9.54,0,17.3-7.76,17.3-17.3
		c0-4.56-1.85-9.01-5.07-12.23L250.08,281.06z M239,189.14h-33.25v-11.08H239V189.14z M239,200.22v166.27h-33.25V200.22H239z
		 M236.55,377.57l-11.87,31.66c-0.72,1.91-3.89,1.91-4.61,0l-11.87-31.66H236.55z M208.83,410.83h-25.26v-117.9l11.08,11.08v69.02
		L208.83,410.83z M250.08,373.04v-13.6l51.39,51.39h-65.56L250.08,373.04z M222.37,133.71c9.17,0,16.63,7.46,16.63,16.63v16.63
		h-33.25v-16.63C205.75,141.17,213.2,133.71,222.37,133.71z M393.51,455.17h-51v-15.48h-9.74v15.48h-22.14v-15.48h-9.74v15.48
		h-22.14v-15.48H269v15.48h-22.14v-15.48h-9.74v15.48h-22.14v-15.48h-9.74v15.48H183.1v-15.48h-9.74v15.48h-34.12V200.89
		c0-3.43,2.79-6.21,6.21-6.21c1.63,0,3.24,0.66,4.4,1.82l44.81,44.81v47.03l-22.17-22.17v155.74h155.74l-78.15-78.15v-47.03
		L397.9,444.55c1.16,1.16,1.82,2.76,1.82,4.4C399.73,452.38,396.94,455.17,393.51,455.17z"/>
	<rect x="388.64" y="342.61" class="st0" width="66.51" height="11.87"/>
	<rect x="388.64" y="366.34" class="st0" width="66.51" height="11.87"/>
	<rect x="388.64" y="388.35" class="st0" width="66.51" height="11.87"/>
	<rect x="421.89" y="410.66" class="st0" width="33.25" height="11.87"/>
</g>
</svg>
