<?xml version="1.0" encoding="utf-8"?>
<!-- Generator: Adobe Illustrator 23.0.1, SVG Export Plug-In . SVG Version: 6.00 Build 0)  -->
<svg version="1.1" id="Layer_5" xmlns="http://www.w3.org/2000/svg" xmlns:xlink="http://www.w3.org/1999/xlink" x="0px" y="0px"
	 viewBox="0 0 600 600" style="enable-background:new 0 0 600 600;" xml:space="preserve">
<style type="text/css">
	.st0{fill:#CE1F29;}
</style>
<g>
	<path class="st0" d="M300,15C142.6,15,15,142.6,15,300s127.6,285,285,285s285-127.6,285-285S457.4,15,300,15z M492.79,492.79
		c-25.04,25.05-54.2,44.71-86.67,58.44c-33.6,14.21-69.31,21.42-106.12,21.42s-72.52-7.21-106.12-21.42
		c-32.47-13.73-61.63-33.39-86.67-58.44c-25.05-25.04-44.71-54.2-58.44-86.67C34.56,372.52,27.35,336.81,27.35,300
		s7.21-72.52,21.42-106.12c13.73-32.47,33.39-61.63,58.44-86.67c25.04-25.05,54.2-44.71,86.67-58.44
		c33.6-14.21,69.31-21.42,106.12-21.42s72.52,7.21,106.12,21.42c32.47,13.73,61.63,33.39,86.67,58.44
		c25.05,25.04,44.71,54.2,58.44,86.67c14.21,33.6,21.42,69.31,21.42,106.12s-7.21,72.52-21.42,106.12
		C537.5,438.59,517.84,467.75,492.79,492.79z"/>
	<path class="st0" d="M470.35,323.85h-66.57v-19.08c0-2.76-2.24-5-5-5h-48.39c-2.76,0-5,2.24-5,5v19.08H332.6l-73.9-99.44
		c-0.64-0.86-0.99-1.91-0.99-2.98v-40.69h89.55v30.98c-8.33,2.1-14.52,9.66-14.52,18.63c0,10.59,8.62,19.21,19.21,19.21
		c10.6,0,19.22-8.62,19.22-19.21c0-8.66-5.77-16.01-13.67-18.4V175.5c0-2.76-2.24-5-5-5h-94.79v-12.81h142.84v30.26l0,0
		c-8.07,2.27-14.01,9.69-14.01,18.49c0,10.59,8.62,19.21,19.21,19.21s19.21-8.62,19.21-19.21c0-8.85-6.01-16.31-14.16-18.54l0,0
		v-35.46c0-2.76-2.24-5-5-5H257.71v-15.72h8.85c2.83,0,5.12-2.29,5.12-5.12s-2.29-5.12-5.12-5.12h-74.29
		c-2.83,0-5.12,2.29-5.12,5.12c0,2.83,2.29,5.12,5.12,5.12h7.27v89.76c0,1.06-0.34,2.09-0.96,2.94l-73.3,100.7
		c-0.62,0.85-0.96,1.89-0.96,2.94v42.08c0,2.76,2.24,5,5,5h24.79v70.09c0,2.76,2.24,5,5,5h12.61l0,0
		c1.78,8.76,9.55,15.37,18.83,15.37c10.59,0,19.21-8.62,19.21-19.21c0-10.6-8.62-19.22-19.21-19.22c-8.35,0-15.48,5.35-18.11,12.81
		l0,0h-8.09v-64.84h48.67v44.47c0,2.76,2.24,5,5,5h15.37c2.1,8.33,9.66,14.52,18.63,14.52c10.6,0,19.22-8.62,19.22-19.22
		c0-10.59-8.62-19.21-19.22-19.21c-8.66,0-16,5.76-18.39,13.66l0,0h-10.37v-39.22h57.26v85.46c0,2.76,2.24,5,5,5H463.6
		c2.76,0,5-2.24,5-5v-89.47l2.52-0.4c2.42-0.39,4.21-2.48,4.21-4.94v-36.94C475.35,326.09,473.11,323.85,470.35,323.85z
		 M362.63,230.34c0,5.89-4.79,10.67-10.68,10.67c-5.88,0-10.67-4.78-10.67-10.67s4.79-10.67,10.67-10.67
		C357.84,219.67,362.63,224.45,362.63,230.34z M416.42,206.43c0,5.89-4.78,10.67-10.67,10.67s-10.67-4.78-10.67-10.67
		s4.78-10.67,10.67-10.67S416.42,200.54,416.42,206.43z M190.56,435.71c5.88,0,10.67,4.79,10.67,10.68
		c0,5.88-4.79,10.67-10.67,10.67c-5.89,0-10.68-4.79-10.68-10.67C179.88,440.5,184.67,435.71,190.56,435.71z M252.04,409.24
		c5.89,0,10.68,4.79,10.68,10.67c0,5.89-4.79,10.68-10.68,10.68c-5.88,0-10.67-4.79-10.67-10.68
		C241.37,414.03,246.16,409.24,252.04,409.24z M356.81,311.2h35.54v12.65h-35.54V311.2z M334.5,334.09h10.89h58.39h61.32v27.23
		l-70.88,11.39V361.3c0-2.76-2.24-5-5-5h-27.57c-2.76,0-5,2.24-5,5v11.69l-22.15-3.56l-28.91-4.65l-21.53-3.46v-27.23h40.08H334.5z
		 M383.97,384.74v4.86H366.9v-4.58v-10.38v-8.1h17.07v7.82V384.74z M208.94,227.79c0.62-0.85,0.96-1.89,0.96-2.94v-93.13h37.46
		v93.14c0,1.07,0.35,2.12,0.99,2.98l40.31,54.25l0,0H169.42l0,0L208.94,227.79z M134.68,331.43c0-1.06,0.34-2.09,0.96-2.94
		l26.32-36.15l0,0h134.32l0,0l23.42,31.52h-40.88h-5v5v35.93H134.68V331.43z M458.37,455.35H290.79v-80.21v-2.36l14.69,2.36
		l51.17,8.23v11.48c0,2.76,2.24,5,5,5h27.57c2.76,0,5-2.24,5-5v-11.76l64.15-10.31L458.37,455.35L458.37,455.35z"/>
	<path class="st0" d="M128.62,279.44L128.62,279.44c2.41,1.89,5.9,1.47,7.79-0.94l43.54-55.41c0.77-0.98,1.19-2.19,1.19-3.43v-43.55
		c0-3.07-2.49-5.55-5.55-5.55l0,0c-3.07,0-5.55,2.49-5.55,5.55v39.71c0,1.24-0.42,2.45-1.19,3.43l-41.17,52.39
		C125.79,274.06,126.21,277.55,128.62,279.44z"/>
	<rect x="456.1" y="234.02" class="st0" width="11.64" height="52.94"/>
	<rect x="436.26" y="246.6" class="st0" width="11.64" height="40.37"/>
	<rect x="416.42" y="260.49" class="st0" width="11.64" height="26.47"/>
</g>
</svg>
