<?xml version="1.0" encoding="utf-8"?>
<!-- Generator: Adobe Illustrator 23.0.1, SVG Export Plug-In . SVG Version: 6.00 Build 0)  -->
<svg version="1.1" id="Layer_4" xmlns="http://www.w3.org/2000/svg" xmlns:xlink="http://www.w3.org/1999/xlink" x="0px" y="0px"
	 viewBox="0 0 600 600" style="enable-background:new 0 0 600 600;" xml:space="preserve">
<style type="text/css">
	.st0{fill:#CE1F29;}
</style>
<g>
	<path class="st0" d="M394.54,121.46c-21.16,0-40.37,8.5-54.41,22.24h-73.88c-2.08,0-3.95,1.29-4.68,3.24l-29.34,78.25l-16.53-28.92
		c-0.89-1.56-2.55-2.52-4.34-2.52h-78.18c-3.07,0-5.56,2.49-5.56,5.56s2.49,5.56,5.56,5.56h74.63l21.24,37.16
		c2.1,3.68,7.54,3.24,9.02-0.72l32.43-86.49h60.21c-8.82,12.62-14.02,27.96-14.02,44.49c0,27.95,14.83,53.45,38.93,67.37v10.48
		h-5.56c-3.07,0-5.56,2.49-5.56,5.56s2.49,5.56,5.56,5.56h5.56V405.2c0,0.78,0.18,1.54,0.53,2.24l25.38,50.76
		c2.49,4.96,7.48,8.04,13.02,8.04c5.54,0,10.54-3.08,13.02-8.05l25.38-50.75c0.35-0.69,0.53-1.46,0.53-2.24V288.3h5.56
		c3.07,0,5.56-2.49,5.56-5.56s-2.49-5.56-5.56-5.56h-5.56V266.7c24.1-13.92,38.93-39.43,38.93-67.37
		C472.39,156.39,437.47,121.46,394.54,121.46z M366.73,399.52V288.3h22.24v111.22H366.73z M397.61,453.22
		c-1.17,2.36-4.97,2.35-6.15,0.01l-21.29-42.59h48.74L397.61,453.22z M422.34,399.52H400.1V288.3h22.24V399.52z M366.73,277.17
		v-11.12h55.61v11.12H366.73z M394.54,210.44c-6.13,0-11.12-4.99-11.12-11.12s4.99-11.12,11.12-11.12s11.12,4.99,11.12,11.12
		S400.67,210.44,394.54,210.44z M431.36,254.93H400.1v-34.07c9.58-2.47,16.68-11.19,16.68-21.54c0-12.27-9.98-22.24-22.24-22.24
		c-12.27,0-22.24,9.98-22.24,22.24c0,10.35,7.1,19.07,16.68,21.54v34.07h-31.26c-18.61-12.3-29.91-33.03-29.91-55.61
		c0-36.8,29.93-66.73,66.73-66.73s66.73,29.93,66.73,66.73C461.27,221.9,449.97,242.63,431.36,254.93z"/>
	<path class="st0" d="M311.93,319.13l10.91-18.4l-29.7-29.7l-18.4,10.91c-4.81-2.54-9.89-4.64-15.15-6.26l-5.31-20.74h-42
		l-5.31,20.74c-5.26,1.62-10.33,3.73-15.15,6.26l-18.4-10.91l-29.7,29.7l10.91,18.4c-2.54,4.81-4.64,9.89-6.26,15.15l-20.74,5.31v42
		l20.74,5.31c1.62,5.26,3.73,10.33,6.26,15.15l-10.91,18.4l29.7,29.7l18.4-10.91c4.81,2.54,9.89,4.64,15.15,6.26l5.31,20.74h42
		l5.31-20.74c5.26-1.62,10.33-3.73,15.15-6.26l18.4,10.91l29.7-29.7l-10.91-18.4c2.54-4.81,4.64-9.89,6.26-15.15l20.74-5.31v-42
		l-20.74-5.31C316.56,329.02,314.46,323.94,311.93,319.13z M327.81,372.96l-18.6,4.76l-0.85,3.13c-1.76,6.53-4.33,12.76-7.65,18.52
		l-1.62,2.81l9.78,16.5l-17.49,17.49l-16.5-9.78l-2.81,1.62c-5.76,3.32-11.99,5.89-18.52,7.65l-3.13,0.85l-4.76,18.6H220.9
		l-4.76-18.6l-3.13-0.85c-6.53-1.76-12.76-4.33-18.52-7.65l-2.81-1.62l-16.5,9.78l-17.49-17.49l9.78-16.5l-1.62-2.81
		c-3.32-5.76-5.89-11.99-7.65-18.52l-0.85-3.13l-18.6-4.76v-24.73l18.6-4.76l0.85-3.13c1.76-6.53,4.33-12.76,7.65-18.52l1.62-2.81
		l-9.78-16.5l17.49-17.49l16.5,9.78l2.81-1.62c5.76-3.32,11.99-5.89,18.52-7.65l3.13-0.85l4.76-18.6h24.73l4.76,18.6l3.13,0.85
		c6.53,1.76,12.76,4.33,18.52,7.65l2.81,1.62l16.5-9.78l17.49,17.49l-9.78,16.5l1.62,2.81c3.32,5.76,5.89,11.99,7.65,18.52
		l0.85,3.13l18.6,4.76v24.73H327.81z"/>
	<path class="st0" d="M233.27,293.86c-36.8,0-66.73,29.93-66.73,66.73s29.93,66.73,66.73,66.73S300,397.39,300,360.59
		S270.07,293.86,233.27,293.86z M233.27,416.2c-30.66,0-55.61-24.95-55.61-55.61s24.95-55.61,55.61-55.61s55.61,24.95,55.61,55.61
		S263.93,416.2,233.27,416.2z"/>
	<path class="st0" d="M233.27,327.22c-18.4,0-33.37,14.97-33.37,33.37s14.97,33.37,33.37,33.37s33.37-14.97,33.37-33.37
		C266.63,342.19,251.67,327.22,233.27,327.22z M233.27,382.83c-12.27,0-22.24-9.98-22.24-22.24s9.98-22.24,22.24-22.24
		c12.27,0,22.24,9.98,22.24,22.24S245.54,382.83,233.27,382.83z"/>
	<rect x="127.61" y="216" class="st0" width="77.85" height="11.12"/>
	<rect x="194.34" y="238.25" class="st0" width="11.12" height="11.12"/>
	<rect x="172.09" y="238.25" class="st0" width="11.12" height="11.12"/>
	<rect x="149.85" y="238.25" class="st0" width="11.12" height="11.12"/>
	<rect x="127.61" y="238.25" class="st0" width="11.12" height="11.12"/>
	<path class="st0" d="M300,15C142.6,15,15,142.6,15,300s127.6,285,285,285s285-127.6,285-285S457.4,15,300,15z M492.79,492.79
		c-25.04,25.04-54.2,44.7-86.67,58.44c-33.61,14.21-69.31,21.42-106.12,21.42s-72.52-7.21-106.12-21.42
		c-32.47-13.73-61.62-33.39-86.67-58.44s-44.7-54.2-58.44-86.67C34.56,372.52,27.35,336.81,27.35,300s7.21-72.52,21.42-106.12
		c13.73-32.47,33.39-61.63,58.44-86.67c25.04-25.04,54.2-44.7,86.67-58.44c33.6-14.21,69.31-21.42,106.12-21.42
		s72.52,7.21,106.12,21.42c32.47,13.73,61.62,33.39,86.67,58.44c25.04,25.04,44.7,54.2,58.44,86.67
		c14.21,33.61,21.42,69.31,21.42,106.12s-7.21,72.52-21.42,106.12C537.5,438.59,517.84,467.75,492.79,492.79z"/>
</g>
</svg>
