<?xml version="1.0" encoding="utf-8"?>
<!-- Generator: Adobe Illustrator 24.3.0, SVG Export Plug-In . SVG Version: 6.00 Build 0)  -->
<svg version="1.1" id="Layer_2_1_" xmlns="http://www.w3.org/2000/svg" xmlns:xlink="http://www.w3.org/1999/xlink" x="0px" y="0px"
	 viewBox="0 0 27.9 30" style="enable-background:new 0 0 27.9 30;" xml:space="preserve">
<style type="text/css">
	.st0{fill:none;stroke:#888888;stroke-width:1.031;stroke-linecap:round;stroke-linejoin:round;}
	.st1{fill:#888888;}
</style>
<path class="st0" d="M8.8,1.5h17.6c0.5,0,0.9,0.4,0.9,0.9l0,0v25.4c0,0.5-0.4,0.9-0.9,0.9l0,0H1.5c-0.5,0-0.9-0.4-0.9-0.9l0,0V2.5
	C0.6,2,1,1.6,1.5,1.6l0,0h3"/>
<path class="st1" d="M6.7,1L6.7,1C7,1,7.3,1.3,7.3,1.6l0,0c0,0.3-0.3,0.6-0.6,0.6l0,0c-0.3,0-0.6-0.3-0.6-0.6l0,0
	C6.1,1.2,6.4,1,6.7,1z"/>
<path class="st1" d="M18.2,4.2L18.2,4.2c0.3,0,0.6,0.3,0.6,0.6l0,0c0,0.3-0.3,0.6-0.6,0.6l0,0c-0.3,0-0.6-0.3-0.6-0.6l0,0
	C17.6,4.5,17.9,4.2,18.2,4.2z"/>
<path class="st1" d="M21,4.2L21,4.2c0.3,0,0.6,0.3,0.6,0.6l0,0c0,0.3-0.3,0.6-0.6,0.6l0,0c-0.3,0-0.6-0.3-0.6-0.6l0,0
	C20.5,4.5,20.7,4.2,21,4.2z"/>
<path class="st1" d="M23.9,4.2L23.9,4.2c0.3,0,0.6,0.3,0.6,0.6l0,0c0,0.3-0.3,0.6-0.6,0.6l0,0c-0.3,0-0.6-0.3-0.6-0.6l0,0
	C23.3,4.5,23.6,4.2,23.9,4.2z"/>
<line class="st0" x1="3.7" y1="4.8" x2="11.8" y2="4.8"/>
<line class="st0" x1="0.6" y1="7.9" x2="27.3" y2="7.9"/>
<rect x="3.7" y="10.2" class="st0" width="11.8" height="9.3"/>
<polyline class="st0" points="3.8,18.5 7.6,12.9 12,19.4 "/>
<polyline class="st0" points="10.5,17.1 12.5,14.2 15.5,18.8 "/>
<line class="st0" x1="18.4" y1="10.2" x2="24.5" y2="10.2"/>
<line class="st0" x1="18.4" y1="13.3" x2="24.5" y2="13.3"/>
<line class="st0" x1="18.4" y1="16.5" x2="24.5" y2="16.5"/>
<line class="st0" x1="18.4" y1="19.6" x2="24.5" y2="19.6"/>
<circle class="st0" cx="5.5" cy="24.3" r="1.8"/>
<circle class="st0" cx="11.2" cy="24.3" r="1.8"/>
<circle class="st0" cx="17" cy="24.3" r="1.8"/>
<circle class="st0" cx="22.7" cy="24.3" r="1.8"/>
</svg>
