<?xml version="1.0" encoding="utf-8"?>
<!-- Generator: Adobe Illustrator 24.3.0, SVG Export Plug-In . SVG Version: 6.00 Build 0)  -->
<svg version="1.1" id="Layer_2_1_" xmlns="http://www.w3.org/2000/svg" xmlns:xlink="http://www.w3.org/1999/xlink" x="0px" y="0px"
	 viewBox="0 0 28.8 30" style="enable-background:new 0 0 28.8 30;" xml:space="preserve">
<style type="text/css">
	.st0{fill:none;stroke:#888888;stroke-width:1.0202;stroke-linecap:round;stroke-linejoin:round;}
	.st1{fill:#FFFFFF;stroke:#888888;stroke-width:1.0202;stroke-linecap:round;stroke-linejoin:round;}
	.st2{fill:#888888;}
</style>
<path class="st0" d="M0.6,24.3h27.8l0,0v1.4c0,1.3-1,2.3-2.3,2.3H2.9c-1.3,0-2.3-1-2.3-2.3C0.6,25.6,0.6,24.3,0.6,24.3z"/>
<path class="st0" d="M3.4,7.5h22.2c0.8,0,1.4,0.6,1.4,1.4l0,0v15.3l0,0H2l0,0V8.9C2,8.1,2.6,7.5,3.4,7.5L3.4,7.5z"/>
<rect x="4.3" y="10.3" class="st0" width="20.4" height="13.9"/>
<path class="st1" d="M12.7,19.2h3.6c1.4,0,2.6,1.2,2.6,2.6v2.5l0,0h-8.8l0,0v-2.5C10.1,20.3,11.3,19.2,12.7,19.2L12.7,19.2z"/>
<ellipse class="st1" cx="14.5" cy="17" rx="2" ry="2.1"/>
<path class="st1" d="M28.3,3.8v6.1c0,1-0.8,1.8-1.8,1.8h-5l-2.7,2.9v-2.9h-2.4c-1,0-1.8-0.8-1.8-1.8l0,0V3.8c0-1,0.8-1.8,1.8-1.8
	h10.2C27.5,2,28.3,2.8,28.3,3.8z"/>
<path class="st2" d="M18.7,6.5L18.7,6.5c0.3,0,0.6,0.2,0.6,0.6l0,0c0,0.3-0.2,0.6-0.6,0.6l0,0c-0.3,0-0.6-0.2-0.6-0.6l0,0
	C18.1,6.8,18.4,6.5,18.7,6.5z"/>
<path class="st2" d="M21.5,6.5L21.5,6.5c0.3,0,0.6,0.2,0.6,0.6l0,0c0,0.3-0.2,0.6-0.6,0.6l0,0c-0.3,0-0.6-0.2-0.6-0.6l0,0
	C20.9,6.8,21.2,6.5,21.5,6.5z"/>
<path class="st2" d="M24.3,6.5L24.3,6.5c0.3,0,0.6,0.2,0.6,0.6l0,0c0,0.3-0.2,0.6-0.6,0.6l0,0c-0.3,0-0.6-0.2-0.6-0.6l0,0
	C23.8,6.8,24,6.5,24.3,6.5z"/>
</svg>
