<?xml version="1.0" encoding="utf-8"?>
<!-- Generator: Adobe Illustrator 24.3.0, SVG Export Plug-In . SVG Version: 6.00 Build 0)  -->
<svg version="1.1" id="Layer_2_1_" xmlns="http://www.w3.org/2000/svg" xmlns:xlink="http://www.w3.org/1999/xlink" x="0px" y="0px"
	 viewBox="0 0 27.2 30" style="enable-background:new 0 0 27.2 30;" xml:space="preserve">
<style type="text/css">
	.st0{fill:none;stroke:#888888;stroke-width:1.0162;stroke-linecap:round;stroke-linejoin:round;}
</style>
<line class="st0" x1="0.6" y1="21" x2="5.3" y2="21"/>
<line class="st0" x1="0.6" y1="24.2" x2="23.2" y2="24.2"/>
<line class="st0" x1="0.6" y1="27.3" x2="23.2" y2="27.3"/>
<line class="st0" x1="10.9" y1="14.8" x2="13.4" y2="17.4"/>
<path class="st0" d="M13.2,17.9l-3.8,1.6c-0.2,0.1-0.4,0-0.5-0.2c0-0.1,0-0.2,0-0.3l1.6-3.8c0.2-0.4,0.4-0.7,0.7-1L22.9,2.4
	c0.8-0.8,2.2-0.8,3,0l0,0l0,0c0.8,0.8,0.8,2.2,0,3L14.1,17.2C13.8,17.5,13.5,17.7,13.2,17.9z"/>
</svg>
