<svg id="Layer_2" data-name="Layer 2" xmlns="http://www.w3.org/2000/svg" viewBox="0 0 50 50"><defs><style>.cls-1{fill:none;stroke:#888;stroke-linecap:round;stroke-linejoin:round;stroke-width:1.5px;}</style></defs><path class="cls-1" d="M11.84,18.09a1.7,1.7,0,1,1-1.69-1.69A1.69,1.69,0,0,1,11.84,18.09Z"/><path class="cls-1" d="M35.21,27.16A10.22,10.22,0,1,1,25,17,10.23,10.23,0,0,1,35.21,27.16Z"/><path class="cls-1" d="M11.84,18.09a1.7,1.7,0,1,1-1.69-1.69A1.69,1.69,0,0,1,11.84,18.09Z"/><path class="cls-1" d="M35.21,27.16A10.22,10.22,0,1,1,25,17,10.23,10.23,0,0,1,35.21,27.16Z"/><circle class="cls-1" cx="25" cy="27.17" r="7.38"/><line class="cls-1" x1="4.84" y1="33.29" x2="16.41" y2="33.29"/><line class="cls-1" x1="33.8" y1="33.29" x2="45.16" y2="33.29"/><path class="cls-1" d="M41.53,13.66H34l-.56-1.84a3.09,3.09,0,0,0-2.95-2.18h-11a3.09,3.09,0,0,0-3,2.15L16,13.66H8.47a3.63,3.63,0,0,0-3.63,3.63V36.73a3.63,3.63,0,0,0,3.63,3.63H41.53a3.64,3.64,0,0,0,3.63-3.63V17.29A3.63,3.63,0,0,0,41.53,13.66ZM10.15,19.78a1.69,1.69,0,1,1,1.69-1.69A1.69,1.69,0,0,1,10.15,19.78ZM25,37.39A10.22,10.22,0,1,1,35.21,27.16,10.23,10.23,0,0,1,25,37.39Z"/></svg>